<?xml version="1.0" encoding="UTF-8"?>
<svg width="202px" height="201px" viewBox="0 0 202 201" version="1.1" xmlns="http://www.w3.org/2000/svg" xmlns:xlink="http://www.w3.org/1999/xlink">
    <!-- Generator: Sketch 45.2 (43514) - http://www.bohemiancoding.com/sketch -->
    <title>0.5</title>
    <desc>Created with Sketch.</desc>
    <defs></defs>
    <g id="Page-1" stroke="none" stroke-width="1" fill="none" fill-rule="evenodd">
        <path d="M201,1 L1,201 L201,1 Z M134.3,1 C89.8666656,45.4333344 45.4333313,89.8666687 0.999996948,134.300003 L134.3,1 Z M67.6,1 C45.3833328,23.2166672 23.1666656,45.4333344 0.949998474,67.6500015 L67.6,1 Z M201,67.6 L67.6499939,200.950006 L201,67.6 Z M201,134.3 L134.300003,200.999997 L201,134.3 Z M45.35,1 L0.949998474,45.4000015 L45.35,1 Z M23.15,1 L0.949999237,23.2000008 L23.15,1 Z M89.85,1 L1.00000153,89.8499985 L89.85,1 Z M112.1,1 L1.00000153,112.099998 L112.1,1 Z M156.6,1 L1.04999695,156.550003 L156.6,1 Z M178.8,1 L1.05,178.75 L178.8,1 Z M201,23.15 L23.1999969,200.950003 L201,23.15 Z M201,45.4 C149.133331,97.2666687 97.2666626,149.133337 45.3999939,201.000006 L201,45.4 Z M201,89.85 L89.8499985,201.000002 L201,89.85 Z M112.1,201 C141.733334,171.366666 171.366668,141.733332 201.000002,112.099998 L112.1,201 Z M156.6,201 C171.416667,186.183333 186.233334,171.366666 201.050001,156.549999 L156.6,201 Z M178.8,201 L201.05,178.75 L178.8,201 Z" id="0.5" stroke="#666666" stroke-width="0.5"></path>
    </g>
</svg>