<?xml version="1.0" encoding="UTF-8"?>
<svg width="601px" height="146px" viewBox="0 0 601 146" version="1.1" xmlns="http://www.w3.org/2000/svg" xmlns:xlink="http://www.w3.org/1999/xlink">
    <!-- Generator: Sketch 45.2 (43514) - http://www.bohemiancoding.com/sketch -->
    <title>csamandme</title>
    <desc>Created with Sketch.</desc>
    <defs></defs>
    <g id="Page-1" stroke="none" stroke-width="1" fill="none" fill-rule="evenodd">
        <g id="Artboard" transform="translate(-7.000000, -10.000000)">
            <g id="csamandme" transform="translate(7.000000, 10.000000)">
                <g id="csam" transform="translate(177.159128, 98.930195) rotate(-360.000000) translate(-177.159128, -98.930195) translate(0.159128, 55.930195)" fill="#01BAEF">
                    <g id="c" transform="translate(0.000000, 17.473916)">
                        <rect id="Rectangle" x="0" y="16.6002201" width="17.4739159" height="17.4739159"></rect>
                        <rect id="Rectangle" x="0" y="33.2004403" width="17.4739159" height="17.4739159"></rect>
                        <rect id="Rectangle" x="17.4739159" y="-7.10542736e-15" width="17.4739159" height="17.4739159"></rect>
                        <rect id="Rectangle" x="34.3498794" y="-1.42108547e-14" width="17.4739159" height="17.4739159"></rect>
                        <rect id="Rectangle" x="17.4739159" y="49.8006604" width="17.4739159" height="17.4739159"></rect>
                        <rect id="Rectangle" x="34.9478319" y="49.8006604" width="17.4739159" height="17.4739159"></rect>
                        <rect id="Rectangle" x="52.4217478" y="49.8006604" width="17.4739159" height="17.4739159"></rect>
                    </g>
                    <g id="s" transform="translate(77.758926, -0.000000)">
                        <rect id="Rectangle" x="0" y="67.252271" width="17.4739159" height="17.4739159"></rect>
                        <rect id="Rectangle" x="0" y="16.3762198" width="17.4739159" height="17.4739159"></rect>
                        <rect id="Rectangle" x="17.1749397" y="67.252271" width="17.4739159" height="17.4739159"></rect>
                        <rect id="Rectangle" x="33.4761836" y="67.252271" width="17.4739159" height="17.4739159"></rect>
                        <rect id="Rectangle" x="50.6743562" y="50.6743562" width="17.4739159" height="17.4739159"></rect>
                        <rect id="Rectangle" x="33.4761836" y="33.6261355" width="17.4739159" height="17.4739159"></rect>
                        <rect id="Rectangle" x="17.1749397" y="33.6261355" width="17.4739159" height="17.4739159"></rect>
                        <rect id="Rectangle" x="17.4739159" y="-7.10542736e-15" width="17.4739159" height="17.4739159"></rect>
                        <rect id="Rectangle" x="34.3498794" y="-7.10542736e-15" width="17.4739159" height="17.4739159"></rect>
                    </g>
                    <g id="a" transform="translate(153.770460, 1.747392)">
                        <rect id="Rectangle" x="3.12638804e-13" y="48.9269646" width="17.4739159" height="17.4739159"></rect>
                        <rect id="Rectangle" x="3.12638804e-13" y="33.2004403" width="17.4739159" height="17.4739159"></rect>
                        <rect id="Rectangle" x="17.4739159" y="16.6002201" width="17.4739159" height="17.4739159"></rect>
                        <rect id="Rectangle" x="34.0741361" y="16.6002201" width="17.4739159" height="17.4739159"></rect>
                        <rect id="Rectangle" x="51.548052" y="1.42108547e-14" width="17.4739159" height="17.4739159"></rect>
                        <rect id="Rectangle" x="51.548052" y="33.2004403" width="17.4739159" height="17.4739159"></rect>
                        <rect id="Rectangle" x="51.548052" y="48.9269646" width="17.4739159" height="17.4739159"></rect>
                        <rect id="Rectangle" x="17.4739159" y="65.5271848" width="17.4739159" height="17.4739159"></rect>
                        <rect id="Rectangle" x="34.0741361" y="65.5271848" width="17.4739159" height="17.4739159"></rect>
                        <rect id="Rectangle" x="69.021968" y="65.5271848" width="17.4739159" height="17.4739159"></rect>
                    </g>
                    <g id="m" transform="translate(248.129606, 17.473916)">
                        <rect id="Rectangle" x="2.04636308e-12" y="49.8006604" width="17.4739159" height="17.4739159"></rect>
                        <rect id="Rectangle" x="17.4739159" y="33.2004403" width="17.4739159" height="17.4739159"></rect>
                        <rect id="Rectangle" x="17.4739159" y="16.6002201" width="17.4739159" height="17.4739159"></rect>
                        <rect id="Rectangle" x="0" y="0" width="17.4739159" height="17.4739159"></rect>
                        <rect id="Rectangle" x="34.9478319" y="-7.10542736e-15" width="17.4739159" height="17.4739159"></rect>
                        <rect id="Rectangle" x="52.4217478" y="16.6002201" width="17.4739159" height="17.4739159"></rect>
                        <rect id="Rectangle" x="69.8956638" y="7.10542736e-15" width="17.4739159" height="17.4739159"></rect>
                        <rect id="Rectangle" x="87.3695797" y="16.6002201" width="17.4739159" height="17.4739159"></rect>
                        <rect id="Rectangle" x="87.3695797" y="33.2004403" width="17.4739159" height="17.4739159"></rect>
                        <rect id="Rectangle" x="69.8956638" y="49.8006604" width="17.4739159" height="17.4739159"></rect>
                    </g>
                </g>
                <g id="&amp;" transform="translate(364.000000, 0.000000)" fill="#FF4F79">
                    <path d="M20.0112123,140.482315 C6.01983934,137.252152 -2.50647952,122.436455 0.96714607,107.39053 C6.78204171,80.4566782 20.0112123,68.5642054 31.6091782,86.0352985 C53.319792,116.113791 60.279608,115.840356 63.8980642,118.502548 C60.4244386,133.548473 34.0025852,143.712478 20.0112123,140.482315 Z M33.0293567,130.071403 C35.6257344,130.240416 44.2977137,128.565307 47.0059794,124.150656 C33.0293567,114.62587 27.6667306,109.773037 22.2676248,101.037816 C17.0168194,102.534036 15.3787647,111.549726 15.511649,114.347324 C15.511649,119.483814 21.1253724,129.794487 33.0293567,130.071403 Z" id="Combined-Shape"></path>
                    <path d="M57.3432024,89.7015823 C64.1731201,82.2947328 69.5367893,84.7486205 71.7803166,92.0743339 C74.3308465,105.815256 70.9333524,110.742198 65.4499578,121.184477 C61.4141272,127.55924 57.5540024,123.840964 54.1316185,117 C58.9328766,102.228658 57.7120019,99.0943767 57.3432024,89.7015823 Z" id="Rectangle-2"></path>
                    <path d="M18.0472695,83.144483 C9.84821529,93.7883045 -0.176968165,52.2351923 1.7907356,38.8427166 C5,17 18.3915281,-0.436079413 29.6287407,0.738033494 C49.6682861,2.83185247 51,28 45.3583632,43.2072254 C43.8818201,49.7193642 38,63 32,74 C26,85 29.6287407,91.3590752 18.0472695,83.144483 Z M22.224473,66.7014649 C30.0314402,55 29.2295463,55.4589521 33.8782647,44.2904296 C38.526983,33.1219071 35.5628804,16.5834283 30.0314402,16.5834283 C24.5,16.5834283 18.8495492,28.3193412 17.9677028,37.5379896 C17.0858564,46.7566379 18.1110169,72.8669143 22.224473,66.7014649 Z" id="Combined-Shape"></path>
                    <path d="M65.2736305,120.742382 C78.1084665,129.148592 72.7566785,119.532368 90.0648605,133.453916 C91.2589027,138.838925 86.3038511,143 82.1339668,143 C66.2645131,136.730665 64.5589742,137.027742 56.5760966,130.791119 C48.5589742,124.527742 57.2736305,126.992382 65.2736305,120.742382 Z" id="Rectangle-3"></path>
                </g>
                <g id="me" transform="translate(453.000000, 51.000000)" fill="#0CCE6B">
                    <g id="m">
                        <path d="M0.654806924,22.5 C-9.41469125e-14,22 7.5,8.5 12.8395763,15.7744073 C17.4016987,22.5 22.9504457,43.4934843 25.3121393,83.4703536 C23.8853969,84.5710617 23.5018272,89.5807562 16.6331894,85.3039538 C12.9766411,75.5612829 4.14388525,49.0045592 0.654806924,22.5 Z" id="Rectangle-4"></path>
                        <path d="M20.1241885,15.6036961 C25.8741885,7.60369612 23.2983349,15.127632 29.0483349,23.127632 C23.4878868,25.835291 27.3094875,38.9461784 37.3475756,54.0205536 C31.7450115,61.8154254 28.9704449,52.9606582 23.2327516,44.9777805 C17.4704449,36.9606582 14.3741885,23.6036961 20.1241885,15.6036961 Z" id="Rectangle-5" transform="translate(27.204546, 34.613587) rotate(40.000000) translate(-27.204546, -34.613587) "></path>
                        <path d="M41.5,66 C46.5077999,70.3818249 51,55.254834 51,42 C49,37.5 47.5,15.5 38.5,15.5 C29,15.5 32,17 33.5,26 C36.5,27.5 37.5,26.5 38.5,31.5 C44,57.5 39.5,60 41.5,66 Z" id="Oval-7"></path>
                        <path d="M45.5519074,84.5627262 C46.3505334,84.5627262 48.2242849,85.7314811 49.0385889,84.2576811 C51.3547641,82.0474023 48.9975762,72.2154312 50.4423616,64.9173688 C49.6329938,60.7442327 50.6350067,53.2095099 51.5225525,46.521696 C48.559684,38.6257772 70.5386293,2.62876502 68.9198084,1.71080284 C60.8630951,1.41185408 47.2301818,28.2019853 46.3058274,35.8115046 C43.7107005,35.8115046 42.887171,54.6588325 42.887171,65.5783624 C43.6654145,80.2105837 42.9567806,84.5627262 45.5519074,84.5627262 Z" id="Oval-8" transform="translate(55.946169, 43.355336) rotate(5.000000) translate(-55.946169, -43.355336) "></path>
                        <path d="M66,88.5 C70,91 73,90 77.1785459,89.2816443 C84.5,83 93.5,52 94,35.5 C98,9.5 90,1 76.5,1.5 C63.245166,1.5 50,22.9456346 50,46.5 C50,49.2395249 45.9845531,71.0798889 47,69 C47.9004999,67.1555512 53.7949961,41.5 54.5,41.5 C64.5,15.5 70.4333001,11 76.5,11.5 C83,13 86,21 81.5,37 C75.5,68 61.5,80 66,88.5 Z" id="Oval-9"></path>
                    </g>
                    <path d="M102,84 C114.5,94 143,94.5 147.5,70.5 C146,69 143,69 143,73 C139.063983,80.872033 130.984798,86.1790542 119,84 C108,82 103.153792,74.88448 102,72 C100,67 100,61 102,50.5 C103,48.5 108.387372,34 114.5,29.5 C120.612628,25 123,28 124,29.5 C125,31 128,36 126,43 C124,50 113.784288,55.1736732 108,56 C101,57 102,60 104,60 C106,61 117.5,61.5 124,58 C134,56 140.5,41.8898658 140.5,37 C141,29 141,17 124,14 C106,14 95,37 94,56 C93,65 95,77 102,84 Z" id="Oval-10"></path>
                </g>
                <path d="M459.738561,146 C448.837255,146 440,138.594366 440,128.45085 C440,118.758723 448.837255,110.901701 459.738561,110.901701 C467.86163,111.183093 477.934362,116.694747 478.618944,128.45085 C480.233101,135.961036 470.604157,144.314614 459.738561,146 Z M460,139.437143 C469.888776,136.705816 473.530079,133.292706 472,126.5 C472,121.80558 466.627417,118 460,118 C453.372583,118 449.950505,121.152229 448,126.5 C445.565822,135.851838 449.496917,139.410544 460,139.437143 Z" id="Combined-Shape" fill="#FFFFFF"></path>
            </g>
        </g>
    </g>
</svg>