<svg width="500" height="4" viewBox="0 0 500 4" version="1.1" xmlns="http://www.w3.org/2000/svg" xmlns:xlink="http://www.w3.org/1999/xlink">
<title>dash-spacer</title>
<desc>Created using Figma</desc>
<g id="Canvas" transform="translate(242 67)">
<g id="dash-spacer">
<use xlink:href="#path0_fill" transform="translate(-242 -66.5)" fill="#1C1C1C"/>
</g>
</g>
<defs>
<path id="path0_fill" fill-rule="evenodd" d="M 319.052 3L 337.948 3C 337.982 2.67136 338 2.33774 338 2C 338 1.31392 337.927 0.644821 337.789 0L 319.211 0C 319.073 0.644821 319 1.31392 319 2C 319 2.33774 319.018 2.67136 319.052 3ZM 316.039 3C 316.013 2.6701 316 2.33661 316 2C 316 1.31925 316.054 0.651215 316.159 0L 264.763 0L 266.527 1.76346L 265.29 3L 316.039 3ZM 340.841 0C 340.946 0.651215 341 1.31925 341 2C 341 2.33661 340.987 2.6701 340.961 3L 390 3L 390 0L 340.841 0ZM 181.948 3L 163.052 3C 163.018 2.67136 163 2.33774 163 2C 163 1.31392 163.073 0.644821 163.211 0L 181.789 0C 181.927 0.644821 182 1.31392 182 2C 182 2.33774 181.982 2.67136 181.948 3ZM 160 2C 160 2.33661 160.013 2.6701 160.039 3L 111 3L 111 0L 160.159 0C 160.054 0.651215 160 1.31925 160 2ZM 185 2C 185 1.31925 184.946 0.651215 184.841 0L 235.763 0L 234 1.76346L 235.237 3L 184.961 3C 184.987 2.6701 185 2.33661 185 2ZM 401 0L 393 0L 393 3L 401 3L 401 0ZM 404 3L 404 0L 500 0L 500 3L 404 3ZM 100 0L 108 0L 108 3L 100 3L 100 0ZM 97 0L 97 3L 0 3L 0 0L 97 0ZM 260.521 0L 240.006 0L 238.243 1.76346L 239.479 3L 261.048 3L 262.284 1.76346L 260.521 0Z"/>
</defs>
</svg>
