<svg width="500" height="33" viewBox="0 0 500 33" version="1.1" xmlns="http://www.w3.org/2000/svg" xmlns:xlink="http://www.w3.org/1999/xlink">
<title>slash-spacer</title>
<desc>Created using Figma</desc>
<g id="Canvas" transform="translate(242 81)">
<g id="slash-spacer">
<use xlink:href="#path0_fill" transform="translate(-242 -81)" fill="#1C1C1C"/>
<mask id="mask0_outline_ins">
<use xlink:href="#path0_fill" fill="white" transform="translate(-242 -81)"/>
</mask>
<g mask="url(#mask0_outline_ins)">
<use xlink:href="#path1_stroke_2x" transform="translate(-242 -81)" fill="#1C1C1C"/>
</g>
</g>
</g>
<defs>
<path id="path0_fill" fill-rule="evenodd" d="M 235.763 14.5L 234 16.2635L 235.237 17.5L 184.961 17.5C 184.987 17.1701 185 16.8366 185 16.5C 185 15.8193 184.946 15.1512 184.841 14.5L 235.763 14.5ZM 264.763 14.5L 250.263 0L 235.763 14.5L 264.763 14.5ZM 316.159 14.5L 264.763 14.5L 266.527 16.2635L 265.29 17.5L 235.237 17.5L 250.263 32.5269L 265.29 17.5L 316.039 17.5C 316.549 23.936 321.933 29 328.5 29C 335.067 29 340.451 23.936 340.961 17.5L 390 17.5L 390 23L 404 23L 404 17.5L 500 17.5L 500 14.5L 404 14.5L 404 9L 390 9L 390 14.5L 340.841 14.5C 339.884 8.54715 334.723 4 328.5 4C 322.277 4 317.116 8.54715 316.159 14.5ZM 340.841 14.5C 340.946 15.1512 341 15.8193 341 16.5C 341 16.8366 340.987 17.1701 340.961 17.5L 316.039 17.5C 316.013 17.1701 316 16.8366 316 16.5C 316 15.8193 316.054 15.1512 316.159 14.5L 340.841 14.5ZM 390 14.5L 404 14.5L 404 17.5L 390 17.5L 390 14.5ZM 160.159 14.5L 184.841 14.5C 183.884 8.54715 178.723 4 172.5 4C 166.277 4 161.116 8.54715 160.159 14.5ZM 111 14.5L 160.159 14.5C 160.054 15.1512 160 15.8193 160 16.5C 160 16.8366 160.013 17.1701 160.039 17.5L 111 17.5L 111 14.5ZM 97 14.5L 97 9L 111 9L 111 14.5L 97 14.5ZM 97 14.5L 0 14.5L 0 17.5L 97 17.5L 97 23L 111 23L 111 17.5L 97 17.5L 97 14.5ZM 160.039 17.5C 160.549 23.936 165.933 29 172.5 29C 179.067 29 184.451 23.936 184.961 17.5L 160.039 17.5Z"/>
<path id="path1_stroke_2x" d="M 234 16.2635L 231.879 14.1421L 229.757 16.2635L 231.879 18.3848L 234 16.2635ZM 250.263 0L 252.385 -2.12132L 250.263 -4.24264L 248.142 -2.12132L 250.263 0ZM 266.527 16.2635L 268.648 18.3848L 270.77 16.2635L 268.648 14.1421L 266.527 16.2635ZM 250.263 32.5269L 248.142 34.6482L 250.263 36.7696L 252.385 34.6482L 250.263 32.5269ZM 390 23L 387 23L 387 26L 390 26L 390 23ZM 404 23L 404 26L 407 26L 407 23L 404 23ZM 500 17.5L 500 20.5L 503 20.5L 503 17.5L 500 17.5ZM 500 14.5L 503 14.5L 503 11.5L 500 11.5L 500 14.5ZM 404 9L 407 9L 407 6L 404 6L 404 9ZM 390 9L 390 6L 387 6L 387 9L 390 9ZM 97 9L 97 6L 94 6L 94 9L 97 9ZM 111 9L 114 9L 114 6L 111 6L 111 9ZM 0 14.5L 0 11.5L -3 11.5L -3 14.5L 0 14.5ZM 0 17.5L -3 17.5L -3 20.5L 0 20.5L 0 17.5ZM 97 23L 94 23L 94 26L 97 26L 97 23ZM 111 23L 111 26L 114 26L 114 23L 111 23ZM 236.121 18.3848L 237.885 16.6213L 233.642 12.3787L 231.879 14.1421L 236.121 18.3848ZM 237.358 15.3787L 236.121 14.1421L 231.879 18.3848L 233.115 19.6213L 237.358 15.3787ZM 235.237 14.5L 184.961 14.5L 184.961 20.5L 235.237 20.5L 235.237 14.5ZM 187.951 17.7367C 187.981 17.3483 187.999 16.8964 188 16.5L 182 16.5C 182.001 16.7768 181.992 16.9919 181.97 17.2633L 187.951 17.7367ZM 188 16.5C 187.998 15.6974 187.924 14.791 187.803 14.0237L 181.879 14.9763C 181.967 15.5114 182.002 15.9411 182 16.5L 188 16.5ZM 184.841 17.5L 235.763 17.5L 235.763 11.5L 184.841 11.5L 184.841 17.5ZM 248.142 2.12132L 262.642 16.6213L 266.885 12.3787L 252.385 -2.12132L 248.142 2.12132ZM 237.885 16.6213L 252.385 2.12132L 248.142 -2.12132L 233.642 12.3787L 237.885 16.6213ZM 235.763 17.5L 264.763 17.5L 264.763 11.5L 235.763 11.5L 235.763 17.5ZM 264.763 17.5L 316.159 17.5L 316.159 11.5L 264.763 11.5L 264.763 17.5ZM 262.642 16.6213L 264.406 18.3848L 268.648 14.1421L 266.885 12.3787L 262.642 16.6213ZM 264.406 14.1421L 263.169 15.3787L 267.412 19.6213L 268.648 18.3848L 264.406 14.1421ZM 265.29 14.5L 235.237 14.5L 235.237 20.5L 265.29 20.5L 265.29 14.5ZM 252.385 30.4056L 237.358 15.3787L 233.115 19.6213L 248.142 34.6482L 252.385 30.4056ZM 263.169 15.3787L 248.142 30.4056L 252.385 34.6482L 267.412 19.6213L 263.169 15.3787ZM 316.039 14.5L 265.29 14.5L 265.29 20.5L 316.039 20.5L 316.039 14.5ZM 328.5 26C 323.511 26 319.417 22.1516 319.03 17.2633L 313.049 17.7367C 313.681 25.7204 320.356 32 328.5 32L 328.5 26ZM 337.97 17.2633C 337.583 22.1516 333.489 26 328.5 26L 328.5 32C 336.644 32 343.319 25.7204 343.951 17.7367L 337.97 17.2633ZM 390 14.5L 340.961 14.5L 340.961 20.5L 390 20.5L 390 14.5ZM 387 17.5L 387 23L 393 23L 393 17.5L 387 17.5ZM 390 26L 404 26L 404 20L 390 20L 390 26ZM 407 23L 407 17.5L 401 17.5L 401 23L 407 23ZM 500 14.5L 404 14.5L 404 20.5L 500 20.5L 500 14.5ZM 497 14.5L 497 17.5L 503 17.5L 503 14.5L 497 14.5ZM 404 17.5L 500 17.5L 500 11.5L 404 11.5L 404 17.5ZM 407 14.5L 407 9L 401 9L 401 14.5L 407 14.5ZM 404 6L 390 6L 390 12L 404 12L 404 6ZM 387 9L 387 14.5L 393 14.5L 393 9L 387 9ZM 340.841 17.5L 390 17.5L 390 11.5L 340.841 11.5L 340.841 17.5ZM 328.5 7C 333.226 7 337.152 10.4546 337.879 14.9763L 343.803 14.0237C 342.615 6.63971 336.219 1 328.5 1L 328.5 7ZM 319.121 14.9763C 319.848 10.4546 323.774 7 328.5 7L 328.5 1C 320.781 1 314.385 6.63971 313.197 14.0237L 319.121 14.9763ZM 337.879 14.9763C 337.967 15.5114 338.002 15.9411 338 16.5L 344 16.5C 343.998 15.6974 343.924 14.791 343.803 14.0237L 337.879 14.9763ZM 338 16.5C 338.001 16.7768 337.992 16.9919 337.97 17.2633L 343.951 17.7367C 343.981 17.3483 343.999 16.8964 344 16.5L 338 16.5ZM 340.961 14.5L 316.039 14.5L 316.039 20.5L 340.961 20.5L 340.961 14.5ZM 319.03 17.2633C 319.008 16.9919 318.999 16.7768 319 16.5L 313 16.5C 313.001 16.8964 313.019 17.3483 313.049 17.7367L 319.03 17.2633ZM 319 16.5C 318.998 15.9411 319.033 15.5114 319.121 14.9763L 313.197 14.0237C 313.076 14.791 313.002 15.6974 313 16.5L 319 16.5ZM 316.159 17.5L 340.841 17.5L 340.841 11.5L 316.159 11.5L 316.159 17.5ZM 390 17.5L 404 17.5L 404 11.5L 390 11.5L 390 17.5ZM 407 17.5L 407 14.5L 401 14.5L 401 17.5L 407 17.5ZM 404 14.5L 390 14.5L 390 20.5L 404 20.5L 404 14.5ZM 387 14.5L 387 17.5L 393 17.5L 393 14.5L 387 14.5ZM 184.841 11.5L 160.159 11.5L 160.159 17.5L 184.841 17.5L 184.841 11.5ZM 172.5 7C 177.226 7 181.152 10.4546 181.879 14.9763L 187.803 14.0237C 186.615 6.63971 180.219 1 172.5 1L 172.5 7ZM 163.121 14.9763C 163.848 10.4546 167.774 7 172.5 7L 172.5 1C 164.781 1 158.385 6.63971 157.197 14.0237L 163.121 14.9763ZM 111 17.5L 160.159 17.5L 160.159 11.5L 111 11.5L 111 17.5ZM 157.197 14.0237C 157.076 14.791 157.002 15.6974 157 16.5L 163 16.5C 162.998 15.9411 163.033 15.5114 163.121 14.9763L 157.197 14.0237ZM 157 16.5C 157.001 16.8964 157.019 17.3483 157.049 17.7367L 163.03 17.2633C 163.008 16.9919 162.999 16.7768 163 16.5L 157 16.5ZM 160.039 14.5L 111 14.5L 111 20.5L 160.039 20.5L 160.039 14.5ZM 114 17.5L 114 14.5L 108 14.5L 108 17.5L 114 17.5ZM 94 9L 94 14.5L 100 14.5L 100 9L 94 9ZM 111 6L 97 6L 97 12L 111 12L 111 6ZM 114 14.5L 114 9L 108 9L 108 14.5L 114 14.5ZM 97 17.5L 111 17.5L 111 11.5L 97 11.5L 97 17.5ZM 97 11.5L 0 11.5L 0 17.5L 97 17.5L 97 11.5ZM -3 14.5L -3 17.5L 3 17.5L 3 14.5L -3 14.5ZM 0 20.5L 97 20.5L 97 14.5L 0 14.5L 0 20.5ZM 100 23L 100 17.5L 94 17.5L 94 23L 100 23ZM 111 20L 97 20L 97 26L 111 26L 111 20ZM 108 17.5L 108 23L 114 23L 114 17.5L 108 17.5ZM 97 20.5L 111 20.5L 111 14.5L 97 14.5L 97 20.5ZM 100 17.5L 100 14.5L 94 14.5L 94 17.5L 100 17.5ZM 172.5 26C 167.511 26 163.417 22.1516 163.03 17.2633L 157.049 17.7367C 157.681 25.7204 164.356 32 172.5 32L 172.5 26ZM 181.97 17.2633C 181.583 22.1516 177.489 26 172.5 26L 172.5 32C 180.644 32 187.319 25.7204 187.951 17.7367L 181.97 17.2633ZM 160.039 20.5L 184.961 20.5L 184.961 14.5L 160.039 14.5L 160.039 20.5Z"/>
</defs>
</svg>
