<svg width="500" height="33" viewBox="0 0 500 33" version="1.1" xmlns="http://www.w3.org/2000/svg" xmlns:xlink="http://www.w3.org/1999/xlink">
<title>spec-spacer</title>
<desc>Created using Figma</desc>
<g id="Canvas" transform="translate(242 81)">
<g id="spec-spacer">
<use xlink:href="#path0_fill" transform="translate(-242 -81)" fill="#1C1C1C"/>
</g>
</g>
<defs>
<path id="path0_fill" fill-rule="evenodd" d="M 500 17.5L 0 17.5L 0 14.5L 500 14.5L 500 17.5ZM 250.263 4.24264L 238.243 16.2635L 250.263 28.2843L 262.284 16.2635L 250.263 4.24264ZM 236.121 14.1421L 234 16.2635L 236.121 18.3848L 248.142 30.4056L 250.263 32.5269L 252.385 30.4056L 264.406 18.3848L 266.527 16.2635L 264.406 14.1421L 252.385 2.12132L 250.263 0L 248.142 2.12132L 236.121 14.1421ZM 108 12L 100 12L 100 20L 108 20L 108 12ZM 100 9L 97 9L 97 12L 97 20L 97 23L 100 23L 108 23L 111 23L 111 20L 111 12L 111 9L 108 9L 100 9ZM 401 12L 393 12L 393 20L 401 20L 401 12ZM 393 9L 390 9L 390 12L 390 20L 390 23L 393 23L 401 23L 404 23L 404 20L 404 12L 404 9L 401 9L 393 9ZM 172.5 26C 177.747 26 182 21.7467 182 16.5C 182 11.2533 177.747 7 172.5 7C 167.253 7 163 11.2533 163 16.5C 163 21.7467 167.253 26 172.5 26ZM 172.5 29C 179.404 29 185 23.4036 185 16.5C 185 9.59644 179.404 4 172.5 4C 165.596 4 160 9.59644 160 16.5C 160 23.4036 165.596 29 172.5 29ZM 328.5 26C 333.747 26 338 21.7467 338 16.5C 338 11.2533 333.747 7 328.5 7C 323.253 7 319 11.2533 319 16.5C 319 21.7467 323.253 26 328.5 26ZM 328.5 29C 335.404 29 341 23.4036 341 16.5C 341 9.59644 335.404 4 328.5 4C 321.596 4 316 9.59644 316 16.5C 316 23.4036 321.596 29 328.5 29Z"/>
</defs>
</svg>
