<?xml version="1.0" encoding="UTF-8"?>
<svg width="1560px" height="481px" viewBox="0 0 1560 481" version="1.1" xmlns="http://www.w3.org/2000/svg" xmlns:xlink="http://www.w3.org/1999/xlink">
    <!-- Generator: Sketch 45.2 (43514) - http://www.bohemiancoding.com/sketch -->
    <title>under-construction@1x</title>
    <desc>Created with Sketch.</desc>
    <defs></defs>
    <g id="Page-1" stroke="none" stroke-width="1" fill="none" fill-rule="evenodd">
        <g id="Artboard" transform="translate(-90.000000, -360.000000)">
            <g id="under-construction" transform="translate(90.000000, 360.000000)">
                <g id="under" transform="translate(514.000000, 0.000000)" fill="#76C3FC">
                    <g id="u" transform="translate(0.000000, 60.000000)">
                        <rect id="Rectangle" x="0" y="0" width="20" height="20"></rect>
                        <rect id="Rectangle" x="0" y="20" width="20" height="20"></rect>
                        <rect id="Rectangle" x="0" y="40" width="20" height="20"></rect>
                        <rect id="Rectangle" x="20" y="60" width="20" height="20"></rect>
                        <rect id="Rectangle" x="40" y="60" width="20" height="20"></rect>
                        <rect id="Rectangle" x="60" y="40" width="20" height="20"></rect>
                        <rect id="Rectangle" x="60" y="20" width="20" height="20"></rect>
                        <rect id="Rectangle" x="60" y="0" width="20" height="20"></rect>
                    </g>
                    <g id="n" transform="translate(93.000000, 60.000000)">
                        <rect id="Rectangle" x="20" y="60" width="20" height="20"></rect>
                        <rect id="Rectangle" x="20" y="40" width="20" height="20"></rect>
                        <rect id="Rectangle" x="20" y="20" width="20" height="20"></rect>
                        <rect id="Rectangle" x="0" y="0" width="20" height="20"></rect>
                        <rect id="Rectangle" x="40" y="0" width="20" height="20"></rect>
                        <rect id="Rectangle" x="60" y="0" width="20" height="20"></rect>
                        <rect id="Rectangle" x="80" y="20" width="20" height="20"></rect>
                        <rect id="Rectangle" x="80" y="40" width="20" height="20"></rect>
                        <rect id="Rectangle" x="80" y="60" width="20" height="20"></rect>
                    </g>
                    <g id="d" transform="translate(207.000000, 0.000000)">
                        <rect id="Rectangle" x="80" y="120" width="20" height="20"></rect>
                        <rect id="Rectangle" x="80" y="40" width="20" height="20"></rect>
                        <rect id="Rectangle" x="60" y="80" width="20" height="20"></rect>
                        <rect id="Rectangle" x="40" y="120" width="20" height="20"></rect>
                        <rect id="Rectangle" x="20" y="120" width="20" height="20"></rect>
                        <rect id="Rectangle" x="0" y="100" width="20" height="20"></rect>
                        <rect id="Rectangle" x="0" y="80" width="20" height="20"></rect>
                        <rect id="Rectangle" x="20" y="60" width="20" height="20"></rect>
                        <rect id="Rectangle" x="40" y="60" width="20" height="20"></rect>
                        <rect id="Rectangle" x="60" y="100" width="20" height="20"></rect>
                        <rect id="Rectangle" x="80" y="20" width="20" height="20"></rect>
                        <rect id="Rectangle" x="60" y="0" width="20" height="20"></rect>
                        <rect id="Rectangle" x="80" y="60" width="20" height="20"></rect>
                    </g>
                    <g id="e" transform="translate(320.000000, 40.000000)">
                        <rect id="Rectangle" x="40" y="80" width="20" height="20"></rect>
                        <rect id="Rectangle" x="20" y="80" width="20" height="20"></rect>
                        <rect id="Rectangle" x="0" y="60" width="20" height="20"></rect>
                        <rect id="Rectangle" x="60" y="80" width="20" height="20"></rect>
                        <rect id="Rectangle" x="80" y="60" width="20" height="20"></rect>
                        <rect id="Rectangle" x="20" y="40" width="20" height="20"></rect>
                        <rect id="Rectangle" x="40" y="40" width="20" height="20"></rect>
                        <rect id="Rectangle" x="0" y="20" width="20" height="20"></rect>
                        <rect id="Rectangle" x="60" y="20" width="20" height="20"></rect>
                        <rect id="Rectangle" x="20" y="0" width="20" height="20"></rect>
                        <rect id="Rectangle" x="40" y="0" width="20" height="20"></rect>
                    </g>
                    <g id="r" transform="translate(433.000000, 60.000000)">
                        <rect id="Rectangle" x="20" y="60" width="20" height="20"></rect>
                        <rect id="Rectangle" x="20" y="40" width="20" height="20"></rect>
                        <rect id="Rectangle" x="0" y="0" width="20" height="20"></rect>
                        <rect id="Rectangle" x="20" y="20" width="20" height="20"></rect>
                        <rect id="Rectangle" x="60" y="0" width="20" height="20"></rect>
                        <rect id="Rectangle" x="40" y="0" width="20" height="20"></rect>
                        <rect id="Rectangle" x="80" y="20" width="20" height="20"></rect>
                    </g>
                </g>
                <g id="construction" transform="translate(237.000000, 200.000000)" fill="#F66A88">
                    <g id="c" transform="translate(0.000000, 40.000000)">
                        <rect id="Rectangle" x="60" y="60" width="20" height="20"></rect>
                        <rect id="Rectangle" x="40" y="60" width="20" height="20"></rect>
                        <rect id="Rectangle" x="20" y="60" width="20" height="20"></rect>
                        <rect id="Rectangle" x="0" y="40" width="20" height="20"></rect>
                        <rect id="Rectangle" x="0" y="20" width="20" height="20"></rect>
                        <rect id="Rectangle" x="20" y="0" width="20" height="20"></rect>
                        <rect id="Rectangle" x="40" y="0" width="20" height="20"></rect>
                    </g>
                    <g id="o" transform="translate(97.000000, 40.000000)">
                        <rect id="Rectangle" x="0" y="40" width="20" height="20"></rect>
                        <rect id="Rectangle" x="0" y="20" width="20" height="20"></rect>
                        <rect id="Rectangle" x="20" y="60" width="20" height="20"></rect>
                        <rect id="Rectangle" x="40" y="60" width="20" height="20"></rect>
                        <rect id="Rectangle" x="60" y="40" width="20" height="20"></rect>
                        <rect id="Rectangle" x="60" y="20" width="20" height="20"></rect>
                        <rect id="Rectangle" x="20" y="0" width="20" height="20"></rect>
                        <rect id="Rectangle" x="40" y="0" width="20" height="20"></rect>
                    </g>
                    <g id="n" transform="translate(193.000000, 40.000000)">
                        <rect id="Rectangle" x="20" y="60" width="20" height="20"></rect>
                        <rect id="Rectangle" x="20" y="40" width="20" height="20"></rect>
                        <rect id="Rectangle" x="20" y="20" width="20" height="20"></rect>
                        <rect id="Rectangle" x="0" y="0" width="20" height="20"></rect>
                        <rect id="Rectangle" x="40" y="0" width="20" height="20"></rect>
                        <rect id="Rectangle" x="60" y="0" width="20" height="20"></rect>
                        <rect id="Rectangle" x="80" y="20" width="20" height="20"></rect>
                        <rect id="Rectangle" x="80" y="40" width="20" height="20"></rect>
                        <rect id="Rectangle" x="80" y="60" width="20" height="20"></rect>
                    </g>
                    <g id="s" transform="translate(307.000000, 20.000000)">
                        <rect id="Rectangle" x="0" y="80" width="20" height="20"></rect>
                        <rect id="Rectangle" x="20" y="80" width="20" height="20"></rect>
                        <rect id="Rectangle" x="40" y="80" width="20" height="20"></rect>
                        <rect id="Rectangle" x="60" y="60" width="20" height="20"></rect>
                        <rect id="Rectangle" x="40" y="40" width="20" height="20"></rect>
                        <rect id="Rectangle" x="20" y="40" width="20" height="20"></rect>
                        <rect id="Rectangle" x="0" y="20" width="20" height="20"></rect>
                        <rect id="Rectangle" x="20" y="0" width="20" height="20"></rect>
                        <rect id="Rectangle" x="40" y="0" width="20" height="20"></rect>
                    </g>
                    <g id="t" transform="translate(383.000000, 0.000000)">
                        <rect id="Rectangle" x="0" y="40" width="20" height="20"></rect>
                        <rect id="Rectangle" x="40" y="60" width="20" height="20"></rect>
                        <rect id="Rectangle" x="40" y="20" width="20" height="20"></rect>
                        <rect id="Rectangle" x="60" y="40" width="20" height="20"></rect>
                        <rect id="Rectangle" x="40" y="0" width="20" height="20"></rect>
                        <rect id="Rectangle" x="40" y="80" width="20" height="20"></rect>
                        <rect id="Rectangle" x="40" y="100" width="20" height="20"></rect>
                        <rect id="Rectangle" x="20" y="40" width="20" height="20"></rect>
                    </g>
                    <g id="r" transform="translate(478.000000, 40.000000)">
                        <rect id="Rectangle" x="0" y="0" width="20" height="20"></rect>
                        <rect id="Rectangle" x="20" y="20" width="20" height="20"></rect>
                        <rect id="Rectangle" x="20" y="40" width="20" height="20"></rect>
                        <rect id="Rectangle" x="20" y="60" width="20" height="20"></rect>
                        <rect id="Rectangle" x="40" y="0" width="20" height="20"></rect>
                        <rect id="Rectangle" x="60" y="0" width="20" height="20"></rect>
                        <rect id="Rectangle" x="80" y="20" width="20" height="20"></rect>
                    </g>
                    <g id="u" transform="translate(592.000000, 40.000000)">
                        <rect id="Rectangle" x="0" y="0" width="20" height="20"></rect>
                        <rect id="Rectangle" x="0" y="20" width="20" height="20"></rect>
                        <rect id="Rectangle" x="0" y="40" width="20" height="20"></rect>
                        <rect id="Rectangle" x="20" y="60" width="20" height="20"></rect>
                        <rect id="Rectangle" x="40" y="60" width="20" height="20"></rect>
                        <rect id="Rectangle" x="60" y="40" width="20" height="20"></rect>
                        <rect id="Rectangle" x="60" y="20" width="20" height="20"></rect>
                        <rect id="Rectangle" x="60" y="0" width="20" height="20"></rect>
                    </g>
                    <g id="c" transform="translate(687.000000, 40.000000)">
                        <rect id="Rectangle" x="20" y="60" width="20" height="20"></rect>
                        <rect id="Rectangle" x="0" y="40" width="20" height="20"></rect>
                        <rect id="Rectangle" x="0" y="20" width="20" height="20"></rect>
                        <rect id="Rectangle" x="20" y="0" width="20" height="20"></rect>
                        <rect id="Rectangle" x="40" y="0" width="20" height="20"></rect>
                        <rect id="Rectangle" x="40" y="60" width="20" height="20"></rect>
                        <rect id="Rectangle" x="60" y="60" width="20" height="20"></rect>
                    </g>
                    <g id="t" transform="translate(782.000000, 0.000000)">
                        <rect id="Rectangle" x="20" y="100" width="20" height="20"></rect>
                        <rect id="Rectangle" x="20" y="80" width="20" height="20"></rect>
                        <rect id="Rectangle" x="0" y="60" width="20" height="20"></rect>
                        <rect id="Rectangle" x="40" y="60" width="20" height="20"></rect>
                        <rect id="Rectangle" x="20" y="40" width="20" height="20"></rect>
                        <rect id="Rectangle" x="20" y="20" width="20" height="20"></rect>
                        <rect id="Rectangle" x="20" y="0" width="20" height="20"></rect>
                    </g>
                    <g id="i" transform="translate(857.000000, 20.000000)">
                        <rect id="Rectangle" x="0" y="80" width="20" height="20"></rect>
                        <rect id="Rectangle" x="0" y="60" width="20" height="20"></rect>
                        <rect id="Rectangle" x="0" y="0" width="20" height="20"></rect>
                    </g>
                    <g id="o" transform="translate(892.000000, 40.000000)">
                        <rect id="Rectangle" x="20" y="60" width="20" height="20"></rect>
                        <rect id="Rectangle" x="0" y="40" width="20" height="20"></rect>
                        <rect id="Rectangle" x="0" y="20" width="20" height="20"></rect>
                        <rect id="Rectangle" x="40" y="60" width="20" height="20"></rect>
                        <rect id="Rectangle" x="60" y="40" width="20" height="20"></rect>
                        <rect id="Rectangle" x="60" y="20" width="20" height="20"></rect>
                        <rect id="Rectangle" x="20" y="0" width="20" height="20"></rect>
                        <rect id="Rectangle" x="40" y="0" width="20" height="20"></rect>
                    </g>
                    <g id="n" transform="translate(987.000000, 40.000000)">
                        <rect id="Rectangle" x="20" y="60" width="20" height="20"></rect>
                        <rect id="Rectangle" x="20" y="40" width="20" height="20"></rect>
                        <rect id="Rectangle" x="20" y="20" width="20" height="20"></rect>
                        <rect id="Rectangle" x="0" y="0" width="20" height="20"></rect>
                        <rect id="Rectangle" x="40" y="0" width="20" height="20"></rect>
                        <rect id="Rectangle" x="60" y="0" width="20" height="20"></rect>
                        <rect id="Rectangle" x="80" y="20" width="20" height="20"></rect>
                        <rect id="Rectangle" x="80" y="40" width="20" height="20"></rect>
                        <rect id="Rectangle" x="80" y="60" width="20" height="20"></rect>
                    </g>
                </g>
                <g id="grass" transform="translate(0.000000, 380.000000)" fill="#C6FB96">
                    <rect id="Rectangle" x="240" y="20" width="20" height="20"></rect>
                    <rect id="Rectangle" x="40" y="80" width="20" height="20"></rect>
                    <rect id="Rectangle" x="40" y="60" width="20" height="20"></rect>
                    <rect id="Rectangle" x="0" y="61" width="20" height="20"></rect>
                    <rect id="Rectangle" x="0" y="80" width="20" height="20"></rect>
                    <rect id="Rectangle" x="40" y="40" width="20" height="20"></rect>
                    <rect id="Rectangle" x="60" y="21" width="20" height="20"></rect>
                    <rect id="Rectangle" x="80" y="80" width="20" height="20"></rect>
                    <rect id="Rectangle" x="100" y="40" width="20" height="20"></rect>
                    <rect id="Rectangle" x="120" y="80" width="20" height="20"></rect>
                    <rect id="Rectangle" x="120" y="60" width="20" height="20"></rect>
                    <rect id="Rectangle" x="159" y="40" width="20" height="20"></rect>
                    <rect id="Rectangle" x="160" y="80" width="20" height="20"></rect>
                    <rect id="Rectangle" x="180" y="20" width="20" height="20"></rect>
                    <rect id="Rectangle" x="200" y="80" width="20" height="20"></rect>
                    <rect id="Rectangle" x="220" y="1" width="20" height="20"></rect>
                    <rect id="Rectangle" x="240" y="40" width="20" height="20"></rect>
                    <rect id="Rectangle" x="240" y="60" width="20" height="20"></rect>
                    <rect id="Rectangle" x="240" y="80" width="20" height="20"></rect>
                    <rect id="Rectangle" x="280" y="41" width="20" height="20"></rect>
                    <rect id="Rectangle" x="340" y="60" width="20" height="20"></rect>
                    <rect id="Rectangle" x="340" y="80" width="20" height="20"></rect>
                    <rect id="Rectangle" x="340" y="20" width="20" height="20"></rect>
                    <rect id="Rectangle" x="360" y="0" width="20" height="20"></rect>
                    <rect id="Rectangle" x="380" y="40" width="20" height="20"></rect>
                    <rect id="Rectangle" x="380" y="60" width="20" height="20"></rect>
                    <rect id="Rectangle" x="380" y="80" width="20" height="20"></rect>
                    <rect id="Rectangle" x="300" y="60" width="20" height="20"></rect>
                    <rect id="Rectangle" x="300" y="80" width="20" height="20"></rect>
                    <rect id="Rectangle" x="340" y="40" width="20" height="20"></rect>
                    <rect id="Rectangle" x="200" y="60" width="20" height="20"></rect>
                    <rect id="Rectangle" x="160" y="60" width="20" height="20"></rect>
                    <rect id="Rectangle" x="420" y="80" width="20" height="20"></rect>
                    <rect id="Rectangle" x="440" y="40" width="20" height="20"></rect>
                    <rect id="Rectangle" x="480" y="41" width="20" height="20"></rect>
                    <rect id="Rectangle" x="500" y="21" width="20" height="20"></rect>
                    <rect id="Rectangle" x="480" y="80" width="20" height="20"></rect>
                    <rect id="Rectangle" x="480" y="61" width="20" height="20"></rect>
                    <rect id="Rectangle" x="420" y="61" width="20" height="20"></rect>
                    <rect id="Rectangle" x="520" y="80" width="20" height="20"></rect>
                    <rect id="Rectangle" x="580" y="61" width="20" height="20"></rect>
                    <rect id="Rectangle" x="580" y="80" width="20" height="20"></rect>
                    <rect id="Rectangle" x="620" y="60" width="20" height="20"></rect>
                    <rect id="Rectangle" x="568" y="23" width="20" height="20"></rect>
                    <rect id="Rectangle" x="620" y="80" width="20" height="20"></rect>
                    <rect id="Rectangle" x="640" y="40" width="20" height="20"></rect>
                    <rect id="Rectangle" x="700" y="60" width="20" height="20"></rect>
                    <rect id="Rectangle" x="700" y="40" width="20" height="20"></rect>
                    <rect id="Rectangle" x="680" y="21" width="20" height="20"></rect>
                    <rect id="Rectangle" x="740" y="80" width="20" height="20"></rect>
                    <rect id="Rectangle" x="760" y="40" width="20" height="20"></rect>
                    <rect id="Rectangle" x="800" y="61" width="20" height="20"></rect>
                    <rect id="Rectangle" x="800" y="41" width="20" height="20"></rect>
                    <rect id="Rectangle" x="820" y="21" width="20" height="20"></rect>
                    <rect id="Rectangle" x="800" y="80" width="20" height="20"></rect>
                    <rect id="Rectangle" x="740" y="60" width="20" height="20"></rect>
                    <rect id="Rectangle" x="700" y="80" width="20" height="20"></rect>
                    <rect id="Rectangle" x="660" y="80" width="20" height="20"></rect>
                    <rect id="Rectangle" x="580" y="41" width="20" height="20"></rect>
                    <rect id="Rectangle" x="520" y="60" width="20" height="20"></rect>
                    <rect id="Rectangle" x="880" y="41" width="20" height="20"></rect>
                    <rect id="Rectangle" x="920" y="61" width="20" height="20"></rect>
                    <rect id="Rectangle" x="840" y="61" width="20" height="20"></rect>
                    <rect id="Rectangle" x="840" y="80" width="20" height="20"></rect>
                    <rect id="Rectangle" x="880" y="61" width="20" height="20"></rect>
                    <rect id="Rectangle" x="880" y="80" width="20" height="20"></rect>
                    <rect id="Rectangle" x="860" y="7" width="20" height="20"></rect>
                    <rect id="Rectangle" x="920" y="80" width="20" height="20"></rect>
                    <rect id="Rectangle" x="880" y="27" width="20" height="20"></rect>
                    <rect id="Rectangle" x="940" y="41" width="20" height="20"></rect>
                    <rect id="Rectangle" x="980" y="60" width="20" height="20"></rect>
                    <rect id="Rectangle" x="980" y="80" width="20" height="20"></rect>
                    <rect id="Rectangle" x="1020" y="60" width="20" height="20"></rect>
                    <rect id="Rectangle" x="1020" y="80" width="20" height="20"></rect>
                    <rect id="Rectangle" x="1020" y="20" width="20" height="20"></rect>
                    <rect id="Rectangle" x="1000" y="1" width="20" height="20"></rect>
                    <rect id="Rectangle" x="1020" y="40" width="20" height="20"></rect>
                    <rect id="Rectangle" x="980" y="41" width="20" height="20"></rect>
                    <rect id="Rectangle" x="1060" y="60" width="20" height="20"></rect>
                    <rect id="Rectangle" x="1060" y="80" width="20" height="20"></rect>
                    <rect id="Rectangle" x="1060" y="40" width="20" height="20"></rect>
                    <rect id="Rectangle" x="1080" y="20" width="20" height="20"></rect>
                    <rect id="Rectangle" x="1160" y="61" width="20" height="20"></rect>
                    <rect id="Rectangle" x="1160" y="80" width="20" height="20"></rect>
                    <rect id="Rectangle" x="1140" y="41" width="20" height="20"></rect>
                    <rect id="Rectangle" x="1100" y="60" width="20" height="20"></rect>
                    <rect id="Rectangle" x="1120" y="80" width="20" height="20"></rect>
                    <rect id="Rectangle" x="1200" y="80" width="20" height="20"></rect>
                    <rect id="Rectangle" x="1200" y="41" width="20" height="20"></rect>
                    <rect id="Rectangle" x="1220" y="21" width="20" height="20"></rect>
                    <rect id="Rectangle" x="1200" y="61" width="20" height="20"></rect>
                    <rect id="Rectangle" x="1240" y="80" width="20" height="20"></rect>
                    <rect id="Rectangle" x="1240" y="60" width="20" height="20"></rect>
                    <rect id="Rectangle" x="1300" y="41" width="20" height="20"></rect>
                    <rect id="Rectangle" x="1300" y="61" width="20" height="20"></rect>
                    <rect id="Rectangle" x="1300" y="81" width="20" height="20"></rect>
                    <rect id="Rectangle" x="1300" y="21" width="20" height="20"></rect>
                    <rect id="Rectangle" x="1280" y="1" width="20" height="20"></rect>
                    <rect id="Rectangle" x="1340" y="81" width="20" height="20"></rect>
                    <rect id="Rectangle" x="1340" y="61" width="20" height="20"></rect>
                    <rect id="Rectangle" x="1360" y="42" width="20" height="20"></rect>
                    <rect id="Rectangle" x="1420" y="61" width="20" height="20"></rect>
                    <rect id="Rectangle" x="1420" y="81" width="20" height="20"></rect>
                    <rect id="Rectangle" x="1380" y="81" width="20" height="20"></rect>
                    <rect id="Rectangle" x="1420" y="41" width="20" height="20"></rect>
                    <rect id="Rectangle" x="1400" y="22" width="20" height="20"></rect>
                    <rect id="Rectangle" x="1460" y="61" width="20" height="20"></rect>
                    <rect id="Rectangle" x="1500" y="81" width="20" height="20"></rect>
                    <rect id="Rectangle" x="1500" y="41" width="20" height="20"></rect>
                    <rect id="Rectangle" x="1520" y="22" width="20" height="20"></rect>
                    <rect id="Rectangle" x="1540" y="81" width="20" height="20"></rect>
                    <rect id="Rectangle" x="1500" y="61" width="20" height="20"></rect>
                    <rect id="Rectangle" x="1460" y="81" width="20" height="20"></rect>
                </g>
            </g>
        </g>
    </g>
</svg>