<svg width="160" height="160" viewBox="0 0 160 160" version="1.1" xmlns="http://www.w3.org/2000/svg" xmlns:xlink="http://www.w3.org/1999/xlink">
<title>about-logo-bw</title>
<desc>Created using Figma</desc>
<g id="Canvas" transform="translate(-249 317)">
<g id="about-logo-bw">
<g id="Rectangle 5">
<mask id="mask0_outline_ins">
<use xlink:href="#path0_fill" fill="white" transform="translate(249 -317)"/>
</mask>
<g mask="url(#mask0_outline_ins)">
<use xlink:href="#path1_stroke_2x" transform="translate(249 -317)" fill="#FFFFFF"/>
</g>
</g>
<g id="id">
<g id="Group">
<g id="Rectangle 3">
<use xlink:href="#path2_fill" transform="translate(396.435 -248.45)" fill="#1C1C1C"/>
</g>
<g id="Rectangle 3">
<use xlink:href="#path2_fill" transform="translate(396.435 -240.108)" fill="#1C1C1C"/>
</g>
<g id="Rectangle 3">
<use xlink:href="#path2_fill" transform="translate(396.435 -231.696)" fill="#1C1C1C"/>
</g>
</g>
<g id="Group">
<g id="Rectangle 3">
<use xlink:href="#path2_fill" transform="translate(249 -248.45)" fill="#1C1C1C"/>
</g>
<g id="Rectangle 3">
<use xlink:href="#path2_fill" transform="translate(249 -240.108)" fill="#1C1C1C"/>
</g>
<g id="Rectangle 3">
<use xlink:href="#path2_fill" transform="translate(249 -231.696)" fill="#1C1C1C"/>
</g>
</g>
<g id="Subtract">
<use xlink:href="#path3_fill" transform="translate(263.241 -274)" fill="#1C1C1C"/>
</g>
</g>
</g>
</g>
<defs>
<path id="path0_fill" d="M 0 0L 160 0L 160 160L 0 160L 0 0Z"/>
<path id="path1_stroke_2x" d="M 0 0L 0 -1L -1 -1L -1 0L 0 0ZM 160 0L 161 0L 161 -1L 160 -1L 160 0ZM 160 160L 160 161L 161 161L 161 160L 160 160ZM 0 160L -1 160L -1 161L 0 161L 0 160ZM 0 1L 160 1L 160 -1L 0 -1L 0 1ZM 159 0L 159 160L 161 160L 161 0L 159 0ZM 160 159L 0 159L 0 161L 160 161L 160 159ZM 1 160L 1 0L -1 0L -1 160L 1 160Z"/>
<path id="path2_fill" d="M 0 2.96684C 0 1.3283 1.3283 0 2.96684 0L 9.5986 0C 11.2371 0 12.5654 1.3283 12.5654 2.96684L 12.5654 2.96684C 12.5654 4.60538 11.2371 5.93368 9.5986 5.93368L 2.96684 5.93368C 1.3283 5.93368 0 4.60538 0 2.96684L 0 2.96684Z"/>
<path id="path3_fill" fill-rule="evenodd" d="M 10 0C 4.47716 0 0 4.47716 0 10L 0 70C 0 75.5229 4.47716 80 10 80L 23.879 80L 23.879 72.8796L 19.8824 72.8796C 18.0318 72.8796 16.5316 71.3794 16.5316 69.5288C 16.5316 67.6782 18.0318 66.178 19.8824 66.178L 34.8557 66.178C 36.7062 66.178 38.2064 67.6782 38.2064 69.5288C 38.2064 71.3794 36.7062 72.8796 34.8557 72.8796L 30.859 72.8796L 30.859 80L 101.027 80L 101.027 72.8796L 97.03 72.8796C 95.1794 72.8796 93.6792 71.3794 93.6792 69.5288C 93.6792 67.6782 95.1794 66.178 97.03 66.178L 112.003 66.178C 113.854 66.178 115.354 67.6782 115.354 69.5288C 115.354 71.3794 113.854 72.8796 112.003 72.8796L 108.007 72.8796L 108.007 80L 121.518 80C 127.041 80 131.518 75.5229 131.518 70L 131.518 10C 131.518 4.47716 127.041 0 121.518 0L 10 0ZM 39.7376 21.733C 39.7376 28.5315 38.2262 31.7917 33.1544 32.4237C 35.1455 34.8711 38.18 35.3905 40.839 35.8456C 43.8422 36.3597 46.3662 36.7917 46.3662 39.8272C 46.3662 46.8643 39.6201 46.8641 31.268 46.8639L 31.1204 46.8639L 30.9728 46.8639C 22.6208 46.8641 15.8746 46.8643 15.8746 39.8272C 15.8746 36.7822 18.2798 36.357 21.1999 35.8408C 23.78 35.3847 26.7621 34.8576 28.8421 32.3894C 24.0156 31.6807 22.7242 28.4168 22.7242 21.733C 22.7242 14.0993 24.4088 9.16756 31.1204 9.16756C 37.832 9.16756 39.7376 14.0993 39.7376 21.733ZM 56.9987 15.8691C 56.9987 14.4812 58.1238 13.356 59.5118 13.356L 119.552 13.356C 120.94 13.356 122.065 14.4812 122.065 15.8691C 122.065 17.2571 120.94 18.3822 119.552 18.3822L 59.5118 18.3822C 58.1238 18.3822 56.9987 17.2571 56.9987 15.8691ZM 59.2382 26.7592C 57.8503 26.7592 56.7251 27.8843 56.7251 29.2723C 56.7251 30.6602 57.8503 31.7854 59.2382 31.7854L 119.279 31.7854C 120.667 31.7854 121.792 30.6602 121.792 29.2723C 121.792 27.8843 120.667 26.7592 119.279 26.7592L 59.2382 26.7592ZM 56.7251 42.6754C 56.7251 41.2875 57.8503 40.1623 59.2382 40.1623L 119.279 40.1623C 120.667 40.1623 121.792 41.2875 121.792 42.6754C 121.792 44.0633 120.667 45.1885 119.279 45.1885L 59.2382 45.1885C 57.8503 45.1885 56.7251 44.0633 56.7251 42.6754ZM 12.7461 53.5655C 11.3582 53.5655 10.233 54.6906 10.233 56.0786C 10.233 57.4665 11.3582 58.5916 12.7461 58.5916L 119.552 58.5916C 120.94 58.5916 122.065 57.4665 122.065 56.0786C 122.065 54.6906 120.94 53.5655 119.552 53.5655L 12.7461 53.5655Z"/>
</defs>
</svg>
