<svg width="160" height="160" viewBox="0 0 160 160" version="1.1" xmlns="http://www.w3.org/2000/svg" xmlns:xlink="http://www.w3.org/1999/xlink">
<title>app-logo (Canvas)</title>
<desc>Created using Figma</desc>
<g id="Canvas" transform="translate(157 209)">
<rect x="-157" y="-209" width="160" height="160" fill="#E5E5E5"/>
<g id="Ellipse 2">
<use xlink:href="#path0_fill" transform="translate(-157 -209)" fill="#F0ADFF"/>
</g>
<g id="Vector">
<use xlink:href="#path1_stroke" transform="translate(-122 -165)" fill="#1C1C1C"/>
</g>
<g id="Ellipse">
<use xlink:href="#path2_fill" transform="translate(-137 -134)" fill="#1C1C1C"/>
<mask id="mask0_outline_ins">
<use xlink:href="#path2_fill" fill="white" transform="translate(-137 -134)"/>
</mask>
<g mask="url(#mask0_outline_ins)">
<use xlink:href="#path3_stroke_2x" transform="translate(-137 -134)" fill="#1C1C1C"/>
</g>
</g>
<g id="Ellipse">
<use xlink:href="#path2_fill" transform="translate(-65 -178)" fill="#1C1C1C"/>
<mask id="mask1_outline_ins">
<use xlink:href="#path2_fill" fill="white" transform="translate(-65 -178)"/>
</mask>
<g mask="url(#mask1_outline_ins)">
<use xlink:href="#path3_stroke_2x" transform="translate(-65 -178)" fill="#1C1C1C"/>
</g>
</g>
<g id="Ellipse">
<use xlink:href="#path2_fill" transform="translate(-65 -105)" fill="#1C1C1C"/>
<mask id="mask2_outline_ins">
<use xlink:href="#path2_fill" fill="white" transform="translate(-65 -105)"/>
</mask>
<g mask="url(#mask2_outline_ins)">
<use xlink:href="#path3_stroke_2x" transform="translate(-65 -105)" fill="#1C1C1C"/>
</g>
</g>
</g>
<defs>
<path id="path0_fill" d="M 160 80C 160 124.183 124.183 160 80 160C 35.8172 160 0 124.183 0 80C 0 35.8172 35.8172 0 80 0C 124.183 0 160 35.8172 160 80Z"/>
<path id="path1_stroke" d="M 0 45.3103L -0.815083 44.0511L -3.26019 45.6338L -0.551751 46.7052L 0 45.3103ZM 70.5518 71.6052L 0.551751 43.9155L -0.551751 46.7052L 69.4482 74.3948L 70.5518 71.6052ZM 0.815083 46.5696L 70.8151 1.25922L 69.1849 -1.25922L -0.815083 44.0511L 0.815083 46.5696Z"/>
<path id="path2_fill" d="M 27 13.5C 27 20.9558 20.9558 27 13.5 27C 6.04416 27 0 20.9558 0 13.5C 0 6.04416 6.04416 0 13.5 0C 20.9558 0 27 6.04416 27 13.5Z"/>
<path id="path3_stroke_2x" d="M 24 13.5C 24 19.299 19.299 24 13.5 24L 13.5 30C 22.6127 30 30 22.6127 30 13.5L 24 13.5ZM 13.5 24C 7.70101 24 3 19.299 3 13.5L -3 13.5C -3 22.6127 4.3873 30 13.5 30L 13.5 24ZM 3 13.5C 3 7.70101 7.70101 3 13.5 3L 13.5 -3C 4.3873 -3 -3 4.3873 -3 13.5L 3 13.5ZM 13.5 3C 19.299 3 24 7.70101 24 13.5L 30 13.5C 30 4.3873 22.6127 -3 13.5 -3L 13.5 3Z"/>
</defs>
</svg>
