<svg width="161" height="160" viewBox="0 0 161 160" version="1.1" xmlns="http://www.w3.org/2000/svg" xmlns:xlink="http://www.w3.org/1999/xlink">
<title>app-logo-c</title>
<desc>Created using Figma</desc>
<g id="Canvas" transform="translate(268 574)">
<g id="app-logo-c">
<g id="Canvas">
<g id="app logo b">
<g id="Rectangle">
<mask id="mask0_alpha" mask-type="alpha">
<g id="mask0 outline ins">
<g id="Vector">
<use xlink:href="#path0_fill" transform="translate(-267.924 -574)" fill="#FFFFFF"/>
</g>
</g>
</mask>
<g id="Group" mask="url(#mask0_alpha)">
<g id="Vector">
<use xlink:href="#path1_fill" transform="translate(-268.924 -575)" fill="#FFFFFF"/>
</g>
</g>
</g>
<g id="Ellipse 2">
<g id="Vector">
<use xlink:href="#path2_fill" transform="translate(-249.924 -556)" fill="#0CF7AD"/>
</g>
</g>
<g id="Vector">
<g id="Vector">
<use xlink:href="#path3_fill" transform="translate(-243.585 -546.45)" fill="#1C1C1C"/>
</g>
</g>
<g id="Subtract">
<g id="Vector">
<use xlink:href="#path4_fill" transform="matrix(0.839211 -0.543806 0.543806 0.839211 -268 -489.661)" fill="#1C1C1C"/>
</g>
<mask id="mask1_alpha" mask-type="alpha">
<g id="mask1 outline ins">
<g id="Vector">
<use xlink:href="#path4_fill" transform="matrix(0.839211 -0.543806 0.543806 0.839211 -268 -489.661)" fill="#FFFFFF"/>
</g>
</g>
</mask>
<g id="Group" mask="url(#mask1_alpha)">
<g id="Vector">
<use xlink:href="#path5_fill" transform="matrix(0.839211 -0.543806 0.543806 0.839211 -272.149 -490.547)" fill="#1C1C1C"/>
</g>
</g>
</g>
<g id="Subtract">
<g id="Vector">
<use xlink:href="#path6_fill" transform="matrix(0.146943 0.989145 -0.989145 0.146943 -128.708 -566.429)" fill="#1C1C1C"/>
</g>
<mask id="mask2_alpha" mask-type="alpha">
<g id="mask2 outline ins">
<g id="Vector">
<use xlink:href="#path6_fill" transform="matrix(0.146943 0.989145 -0.989145 0.146943 -128.708 -566.429)" fill="#FFFFFF"/>
</g>
</g>
</mask>
<g id="Group" mask="url(#mask2_alpha)">
<g id="Vector">
<use xlink:href="#path7_fill" transform="matrix(0.146943 0.989145 -0.989145 0.146943 -126.181 -569.837)" fill="#1C1C1C"/>
</g>
</g>
</g>
<g id="Subtract">
<g id="Vector">
<use xlink:href="#path8_fill" transform="matrix(-0.890458 0.455066 -0.455066 -0.890458 -119.347 -436.338)" fill="#1C1C1C"/>
</g>
<mask id="mask3_alpha" mask-type="alpha">
<g id="mask3 outline ins">
<g id="Vector">
<use xlink:href="#path8_fill" transform="matrix(-0.890458 0.455066 -0.455066 -0.890458 -119.347 -436.338)" fill="#FFFFFF"/>
</g>
</g>
</mask>
<g id="Group" mask="url(#mask3_alpha)">
<g id="Vector">
<use xlink:href="#path9_fill" transform="matrix(-0.890458 0.455066 -0.455066 -0.890458 -115.31 -435.032)" fill="#1C1C1C"/>
</g>
</g>
</g>
</g>
</g>
</g>
</g>
<defs>
<path id="path0_fill" d="M 0 0L 160 0L 160 160L 0 160L 0 0Z"/>
<path id="path1_fill" d="M 1 1L 1 0L 0 0L 0 1L 1 1ZM 161 1L 162 1L 162 0L 161 0L 161 1ZM 161 161L 161 162L 162 162L 162 161L 161 161ZM 1 161L 0 161L 0 162L 1 162L 1 161ZM 1 2L 161 2L 161 0L 1 0L 1 2ZM 160 1L 160 161L 162 161L 162 1L 160 1ZM 161 160L 1 160L 1 162L 161 162L 161 160ZM 2 161L 2 1L 0 1L 0 161L 2 161Z"/>
<path id="path2_fill" d="M 125 62.5C 125 97.0178 97.0178 125 62.5 125C 27.9822 125 0 97.0178 0 62.5C 0 27.9822 27.9822 0 62.5 0C 97.0178 0 125 27.9822 125 62.5Z"/>
<path id="path3_fill" d="M 3.26713 63.3354L 2.45361 62.0751L 1.01929e-07 63.659L 2.71668 64.7307L 3.26713 63.3354ZM 99.9792 99.8749L 3.81758 61.94L 2.71668 64.7307L 98.8783 102.665L 99.9792 99.8749ZM 4.08065 64.5956L 100.242 2.52046L 98.6152 5.48172e-08L 2.45361 62.0751L 4.08065 64.5956Z"/>
<path id="path4_fill" fill-rule="evenodd" d="M 18.5455 36.99C 28.7878 36.99 37.0909 28.7095 37.0909 18.495C 37.0909 8.28049 28.7878 0 18.5455 0C 8.30309 0 0 8.28049 0 18.495C 0 28.7095 8.30309 36.99 18.5455 36.99ZM 6.5 18.72C 6.5 11.8164 12.0964 6.22 19 6.22L 19 3.22C 10.4396 3.22 3.5 10.1596 3.5 18.72C 3.5 27.2804 10.4396 34.22 19 34.22L 19 31.22C 12.0964 31.22 6.5 25.6236 6.5 18.72Z"/>
<path id="path5_fill" d="M 22 9.22L 22 12.22L 25 12.22L 25 9.22L 22 9.22ZM 22 6.22L 25 6.22L 25 3.22L 22 3.22L 22 6.22ZM 22 37.22L 22 40.22L 25 40.22L 25 37.22L 22 37.22ZM 22 34.22L 25 34.22L 25 31.22L 22 31.22L 22 34.22ZM 37.0909 21.495C 37.0909 30.045 30.1387 36.99 21.5455 36.99L 21.5455 42.99C 33.437 42.99 43.0909 33.3741 43.0909 21.495L 37.0909 21.495ZM 21.5455 6C 30.1387 6 37.0909 12.945 37.0909 21.495L 43.0909 21.495C 43.0909 9.61593 33.437 0 21.5455 0L 21.5455 6ZM 6 21.495C 6 12.945 12.9522 6 21.5455 6L 21.5455 0C 9.65394 0 0 9.61593 0 21.495L 6 21.495ZM 21.5455 36.99C 12.9522 36.99 6 30.045 6 21.495L 0 21.495C 0 33.3741 9.65394 42.99 21.5455 42.99L 21.5455 36.99ZM 22 6.22C 13.4396 6.22 6.5 13.1596 6.5 21.72L 12.5 21.72C 12.5 16.4733 16.7533 12.22 22 12.22L 22 6.22ZM 19 6.22L 19 9.22L 25 9.22L 25 6.22L 19 6.22ZM 9.5 21.72C 9.5 14.8164 15.0964 9.22 22 9.22L 22 3.22C 11.7827 3.22 3.5 11.5027 3.5 21.72L 9.5 21.72ZM 22 34.22C 15.0964 34.22 9.5 28.6236 9.5 21.72L 3.5 21.72C 3.5 31.9373 11.7827 40.22 22 40.22L 22 34.22ZM 19 34.22L 19 37.22L 25 37.22L 25 34.22L 19 34.22ZM 6.5 21.72C 6.5 30.2804 13.4396 37.22 22 37.22L 22 31.22C 16.7533 31.22 12.5 26.9667 12.5 21.72L 6.5 21.72Z"/>
<path id="path6_fill" fill-rule="evenodd" d="M 18.5455 36.99C 28.7878 36.99 37.0909 28.7095 37.0909 18.495C 37.0909 8.28049 28.7878 -4.69683e-06 18.5455 1.99809e-12C 8.30309 4.69684e-06 -6.4538e-07 8.28048 8.32525e-14 18.495C -9.60036e-07 28.7095 8.30308 36.99 18.5455 36.99ZM 6.5 18.72C 6.5 11.8164 12.0964 6.22 19 6.21999L 19 3.22C 10.4396 3.22 3.5 10.1596 3.5 18.72C 3.5 27.2804 10.4396 34.22 19 34.22L 19 31.22C 12.0964 31.22 6.5 25.6236 6.5 18.72Z"/>
<path id="path7_fill" d="M 40.0909 21.495L 43.0909 21.495L 40.0909 21.495ZM 21.5455 39.99L 21.5455 42.99L 21.5455 39.99ZM 3 21.495L 6 21.495L 3 21.495ZM 22 9.21999L 22 12.22L 25 12.22L 25 9.21999L 22 9.21999ZM 9.5 21.72L 12.5 21.72L 9.5 21.72ZM 22 6.22L 25 6.22L 25 3.22L 22 3.22L 22 6.22ZM 6.5 21.72L 3.5 21.72L 6.5 21.72ZM 22 37.22L 22 40.22L 25 40.22L 25 37.22L 22 37.22ZM 22 34.22L 25 34.22L 25 31.22L 22 31.22L 22 34.22ZM 37.0909 21.495C 37.0909 30.0449 30.1387 36.99 21.5455 36.99L 21.5455 42.99C 33.437 42.99 43.0909 33.3741 43.0909 21.495L 37.0909 21.495ZM 21.5455 6C 30.1387 6 37.0909 12.945 37.0909 21.495L 43.0909 21.495C 43.0909 9.61594 33.437 -9.99999e-06 21.5455 7.79954e-12L 21.5455 6ZM 6 21.495C 6 12.945 12.9522 6 21.5455 6L 21.5455 7.79954e-12C 9.65394 1e-05 0 9.61593 0 21.495L 6 21.495ZM 21.5455 36.99C 12.9522 36.99 6 30.0449 6 21.495L 0 21.495C 0 33.3741 9.65394 42.99 21.5455 42.99L 21.5455 36.99ZM 22 6.21999C 13.4396 6.22 6.5 13.1596 6.5 21.72L 12.5 21.72C 12.5 16.4733 16.7533 12.22 22 12.22L 22 6.21999ZM 19 6.22L 19 9.21999L 25 9.21999L 25 6.22L 19 6.22ZM 9.5 21.72C 9.5 14.8164 15.0964 9.22 22 9.22L 22 3.22C 11.7827 3.22 3.5 11.5027 3.5 21.72L 9.5 21.72ZM 22 34.22C 15.0964 34.22 9.5 28.6236 9.5 21.72L 3.5 21.72C 3.5 31.9373 11.7827 40.22 22 40.22L 22 34.22ZM 19 34.22L 19 37.22L 25 37.22L 25 34.22L 19 34.22ZM 6.5 21.72C 6.5 30.2804 13.4396 37.22 22 37.22L 22 31.22C 16.7533 31.22 12.5 26.9667 12.5 21.72L 6.5 21.72Z"/>
<path id="path8_fill" fill-rule="evenodd" d="M 18.5455 36.99C 28.7878 36.99 37.0909 28.7095 37.0909 18.495C 37.0909 8.2805 28.7878 -2.21782e-06 18.5455 4.4551e-13C 8.30309 2.21782e-06 -1.52323e-06 8.2805 4.50537e-12 18.495C -7.06243e-06 28.7095 8.30308 36.99 18.5455 36.99ZM 6.49999 18.72C 6.49999 11.8164 12.0964 6.22 19 6.21999L 19 3.22001C 10.4396 3.22 3.5 10.1596 3.5 18.72C 3.5 27.2804 10.4396 34.22 19 34.22L 19 31.22C 12.0964 31.22 6.5 25.6236 6.49999 18.72Z"/>
<path id="path9_fill" d="M 40.0909 21.495L 37.0909 21.495L 40.0909 21.495ZM 3 21.495L 6 21.495L 3 21.495ZM 22 9.21999L 22 12.22L 25 12.22L 25 9.21999L 22 9.21999ZM 9.49999 21.72L 6.49999 21.72L 9.49999 21.72ZM 22 6.22001L 25 6.22001L 25 3.22001L 22 3.22001L 22 6.22001ZM 22 37.22L 22 40.22L 25 40.22L 25 37.22L 22 37.22ZM 22 34.22L 25 34.22L 25 31.22L 22 31.22L 22 34.22ZM 37.0909 21.495C 37.0909 30.045 30.1387 36.99 21.5455 36.99L 21.5455 42.99C 33.437 42.99 43.0909 33.3741 43.0909 21.495L 37.0909 21.495ZM 21.5455 6C 30.1387 6 37.0909 12.9451 37.0909 21.495L 43.0909 21.495C 43.0909 9.61594 33.437 0 21.5455 0L 21.5455 6ZM 6 21.495C 6 12.9451 12.9522 6 21.5455 6L 21.5455 0C 9.65394 0 7.7689e-12 9.61594 7.7689e-12 21.495L 6 21.495ZM 21.5455 36.99C 12.9522 36.99 5.99999 30.045 6 21.495L 7.7689e-12 21.495C -9.99999e-06 33.3741 9.65394 42.99 21.5455 42.99L 21.5455 36.99ZM 22 6.21999C 13.4396 6.22001 6.49999 13.1596 6.49999 21.72L 12.5 21.72C 12.5 16.4733 16.7533 12.22 22 12.22L 22 6.21999ZM 19 6.22001L 19 9.22L 25 9.21999L 25 6.22001L 19 6.22001ZM 9.5 21.72C 9.5 14.8164 15.0964 9.22001 22 9.22001L 22 3.22001C 11.7827 3.22 3.5 11.5027 3.5 21.72L 9.5 21.72ZM 22 34.22C 15.0964 34.22 9.5 28.6236 9.5 21.72L 3.5 21.72C 3.5 31.9373 11.7827 40.22 22 40.22L 22 34.22ZM 19 34.22L 19 37.22L 25 37.22L 25 34.22L 19 34.22ZM 6.49999 21.72C 6.5 30.2804 13.4396 37.22 22 37.22L 22 31.22C 16.7533 31.22 12.5 26.9667 12.5 21.72L 6.49999 21.72Z"/>
</defs>
</svg>
