<svg width="161" height="160" viewBox="0 0 161 160" version="1.1" xmlns="http://www.w3.org/2000/svg" xmlns:xlink="http://www.w3.org/1999/xlink">
<title>app-logo-b</title>
<desc>Created using Figma</desc>
<g id="Canvas" transform="translate(158 209)">
<g id="app-logo-b">
<g id="Rectangle">
<mask id="mask0_outline_ins">
<use xlink:href="#path0_fill" fill="white" transform="translate(-157 -209)"/>
</mask>
<g mask="url(#mask0_outline_ins)">
<use xlink:href="#path1_stroke_2x" transform="translate(-157 -209)" fill="#FFFFFF"/>
</g>
</g>
<g id="Ellipse 2">
<use xlink:href="#path2_fill" transform="translate(-139 -191)" fill="#F0ADFF"/>
</g>
<g id="Vector">
<use xlink:href="#path3_stroke" transform="translate(-129.394 -180.19)" fill="#1C1C1C"/>
</g>
<g id="Subtract">
<use xlink:href="#path4_fill" transform="matrix(0.839211 -0.543806 0.543806 0.839211 -157.076 -124.661)" fill="#1C1C1C"/>
<mask id="mask1_outline_ins">
<use xlink:href="#path4_fill" fill="white" transform="matrix(0.839211 -0.543806 0.543806 0.839211 -157.076 -124.661)"/>
</mask>
<g mask="url(#mask1_outline_ins)">
<use xlink:href="#path5_stroke_2x" transform="matrix(0.839211 -0.543806 0.543806 0.839211 -157.076 -124.661)" fill="#1C1C1C"/>
</g>
</g>
<g id="Subtract">
<use xlink:href="#path6_fill" transform="matrix(0.146943 0.989145 -0.989145 0.146943 -17.7838 -201.429)" fill="#1C1C1C"/>
<mask id="mask2_outline_ins">
<use xlink:href="#path6_fill" fill="white" transform="matrix(0.146943 0.989145 -0.989145 0.146943 -17.7838 -201.429)"/>
</mask>
<g mask="url(#mask2_outline_ins)">
<use xlink:href="#path7_stroke_2x" transform="matrix(0.146943 0.989145 -0.989145 0.146943 -17.7838 -201.429)" fill="#1C1C1C"/>
</g>
</g>
<g id="Subtract">
<use xlink:href="#path8_fill" transform="matrix(-0.890458 0.455066 -0.455066 -0.890458 -8.42253 -71.3379)" fill="#1C1C1C"/>
<mask id="mask3_outline_ins">
<use xlink:href="#path8_fill" fill="white" transform="matrix(-0.890458 0.455066 -0.455066 -0.890458 -8.42253 -71.3379)"/>
</mask>
<g mask="url(#mask3_outline_ins)">
<use xlink:href="#path9_stroke_2x" transform="matrix(-0.890458 0.455066 -0.455066 -0.890458 -8.42253 -71.3379)" fill="#1C1C1C"/>
</g>
</g>
</g>
</g>
<defs>
<path id="path0_fill" d="M 0 0L 160 0L 160 160L 0 160L 0 0Z"/>
<path id="path1_stroke_2x" d="M 0 0L 0 -1L -1 -1L -1 0L 0 0ZM 160 0L 161 0L 161 -1L 160 -1L 160 0ZM 160 160L 160 161L 161 161L 161 160L 160 160ZM 0 160L -1 160L -1 161L 0 161L 0 160ZM 0 1L 160 1L 160 -1L 0 -1L 0 1ZM 159 0L 159 160L 161 160L 161 0L 159 0ZM 160 159L 0 159L 0 161L 160 161L 160 159ZM 1 160L 1 0L -1 0L -1 160L 1 160Z"/>
<path id="path2_fill" d="M 125 62.5C 125 97.0178 97.0178 125 62.5 125C 27.9822 125 0 97.0178 0 62.5C 0 27.9822 27.9822 0 62.5 0C 97.0178 0 125 27.9822 125 62.5Z"/>
<path id="path3_stroke" d="M 0 62.0752L -0.813518 60.8149L -3.26713 62.3988L -0.550452 63.4705L 0 62.0752ZM 96.7121 98.6147L 0.550452 60.6798L -0.550452 63.4705L 95.6112 101.405L 96.7121 98.6147ZM 0.813518 63.3354L 96.9751 1.26023L 95.3481 -1.26023L -0.813518 60.8149L 0.813518 63.3354Z"/>
<path id="path4_fill" fill-rule="evenodd" d="M 18.5455 36.99C 28.7878 36.99 37.0909 28.7095 37.0909 18.495C 37.0909 8.28049 28.7878 0 18.5455 0C 8.30309 0 0 8.28049 0 18.495C 0 28.7095 8.30309 36.99 18.5455 36.99ZM 6.5 18.72C 6.5 11.8164 12.0964 6.22 19 6.22L 19 3.22C 10.4396 3.22 3.5 10.1596 3.5 18.72C 3.5 27.2804 10.4396 34.22 19 34.22L 19 31.22C 12.0964 31.22 6.5 25.6236 6.5 18.72Z"/>
<path id="path5_stroke_2x" d="M 19 6.22L 19 9.22L 22 9.22L 22 6.22L 19 6.22ZM 19 3.22L 22 3.22L 22 0.220001L 19 0.220001L 19 3.22ZM 19 34.22L 19 37.22L 22 37.22L 22 34.22L 19 34.22ZM 19 31.22L 22 31.22L 22 28.22L 19 28.22L 19 31.22ZM 34.0909 18.495C 34.0909 27.045 27.1387 33.99 18.5455 33.99L 18.5455 39.99C 30.437 39.99 40.0909 30.3741 40.0909 18.495L 34.0909 18.495ZM 18.5455 3C 27.1387 3 34.0909 9.94504 34.0909 18.495L 40.0909 18.495C 40.0909 6.61593 30.437 -3 18.5455 -3L 18.5455 3ZM 3 18.495C 3 9.94504 9.95223 3 18.5455 3L 18.5455 -3C 6.65394 -3 -3 6.61593 -3 18.495L 3 18.495ZM 18.5455 33.99C 9.95223 33.99 3 27.045 3 18.495L -3 18.495C -3 30.3741 6.65394 39.99 18.5455 39.99L 18.5455 33.99ZM 19 3.22C 10.4396 3.22 3.5 10.1596 3.5 18.72L 9.5 18.72C 9.5 13.4733 13.7533 9.22 19 9.22L 19 3.22ZM 16 3.22L 16 6.22L 22 6.22L 22 3.22L 16 3.22ZM 6.5 18.72C 6.5 11.8164 12.0964 6.22 19 6.22L 19 0.220001C 8.78274 0.220001 0.5 8.50273 0.5 18.72L 6.5 18.72ZM 19 31.22C 12.0964 31.22 6.5 25.6236 6.5 18.72L 0.5 18.72C 0.5 28.9373 8.78274 37.22 19 37.22L 19 31.22ZM 16 31.22L 16 34.22L 22 34.22L 22 31.22L 16 31.22ZM 3.5 18.72C 3.5 27.2804 10.4396 34.22 19 34.22L 19 28.22C 13.7533 28.22 9.5 23.9667 9.5 18.72L 3.5 18.72Z"/>
<path id="path6_fill" fill-rule="evenodd" d="M 18.5455 36.99C 28.7878 36.99 37.0909 28.7095 37.0909 18.495C 37.0909 8.28049 28.7878 -4.69683e-06 18.5455 1.99809e-12C 8.30309 4.69684e-06 -6.4538e-07 8.28048 8.32525e-14 18.495C -9.60036e-07 28.7095 8.30308 36.99 18.5455 36.99ZM 6.5 18.72C 6.5 11.8164 12.0964 6.22 19 6.21999L 19 3.22C 10.4396 3.22 3.5 10.1596 3.5 18.72C 3.5 27.2804 10.4396 34.22 19 34.22L 19 31.22C 12.0964 31.22 6.5 25.6236 6.5 18.72Z"/>
<path id="path7_stroke_2x" d="M 37.0909 18.495L 40.0909 18.495L 40.0909 18.495L 37.0909 18.495ZM 18.5455 36.99L 18.5455 39.99L 18.5455 39.99L 18.5455 36.99ZM 8.32525e-14 18.495L 3 18.495L 3 18.495L 8.32525e-14 18.495ZM 19 6.21999L 19 9.21999L 22 9.21999L 22 6.21999L 19 6.21999ZM 6.5 18.72L 9.5 18.72L 9.5 18.72L 6.5 18.72ZM 19 3.22L 22 3.22L 22 0.220003L 19 0.220002L 19 3.22ZM 3.5 18.72L 0.499999 18.72L 0.499999 18.72L 3.5 18.72ZM 19 34.22L 19 37.22L 22 37.22L 22 34.22L 19 34.22ZM 19 31.22L 22 31.22L 22 28.22L 19 28.22L 19 31.22ZM 34.0909 18.495C 34.0909 27.0449 27.1387 33.99 18.5455 33.99L 18.5455 39.99C 30.437 39.99 40.0909 30.3741 40.0909 18.495L 34.0909 18.495ZM 18.5455 3C 27.1387 3 34.0909 9.94504 34.0909 18.495L 40.0909 18.495C 40.0909 6.61594 30.437 -3.00001 18.5455 -3L 18.5455 3ZM 3 18.495C 3 9.94504 9.95223 3 18.5455 3L 18.5455 -3C 6.65394 -2.99999 -3 6.61593 -3 18.495L 3 18.495ZM 18.5455 33.99C 9.95223 33.99 3 27.0449 3 18.495L -3 18.495C -3 30.3741 6.65394 39.99 18.5455 39.99L 18.5455 33.99ZM 19 3.21999C 10.4396 3.22 3.5 10.1596 3.5 18.72L 9.5 18.72C 9.5 13.4733 13.7533 9.22 19 9.21999L 19 3.21999ZM 16 3.22L 16 6.21999L 22 6.21999L 22 3.22L 16 3.22ZM 6.5 18.72C 6.5 11.8164 12.0964 6.22 19 6.22L 19 0.220002C 8.78273 0.22 0.499999 8.50272 0.499999 18.72L 6.5 18.72ZM 19 31.22C 12.0964 31.22 6.5 25.6236 6.5 18.72L 0.499999 18.72C 0.5 28.9373 8.78273 37.22 19 37.22L 19 31.22ZM 16 31.22L 16 34.22L 22 34.22L 22 31.22L 16 31.22ZM 3.5 18.72C 3.5 27.2804 10.4396 34.22 19 34.22L 19 28.22C 13.7533 28.22 9.5 23.9667 9.5 18.72L 3.5 18.72Z"/>
<path id="path8_fill" fill-rule="evenodd" d="M 18.5455 36.99C 28.7878 36.99 37.0909 28.7095 37.0909 18.495C 37.0909 8.2805 28.7878 -2.21782e-06 18.5455 4.45511e-13C 8.30309 2.21782e-06 -1.52323e-06 8.2805 4.50537e-12 18.495C -7.06243e-06 28.7095 8.30308 36.99 18.5455 36.99ZM 6.49999 18.72C 6.49999 11.8164 12.0964 6.22 19 6.21999L 19 3.22001C 10.4396 3.22 3.5 10.1596 3.5 18.72C 3.5 27.2804 10.4396 34.22 19 34.22L 19 31.22C 12.0964 31.22 6.5 25.6236 6.49999 18.72Z"/>
<path id="path9_stroke_2x" d="M 37.0909 18.495L 34.0909 18.495L 34.0909 18.495L 37.0909 18.495ZM 4.50537e-12 18.495L 3 18.495L 3 18.495L 4.50537e-12 18.495ZM 19 6.21999L 19 9.21999L 22 9.21999L 22 6.21999L 19 6.21999ZM 6.49999 18.72L 3.49999 18.72L 3.49999 18.72L 6.49999 18.72ZM 19 3.22001L 22 3.22001L 22 0.22001L 19 0.220009L 19 3.22001ZM 19 34.22L 19 37.22L 22 37.22L 22 34.22L 19 34.22ZM 19 31.22L 22 31.22L 22 28.22L 19 28.22L 19 31.22ZM 34.0909 18.495C 34.0909 27.045 27.1387 33.99 18.5455 33.99L 18.5455 39.99C 30.437 39.99 40.0909 30.3741 40.0909 18.495L 34.0909 18.495ZM 18.5455 3C 27.1387 3 34.0909 9.94505 34.0909 18.495L 40.0909 18.495C 40.0909 6.61594 30.437 -3 18.5455 -3L 18.5455 3ZM 3 18.495C 3 9.94505 9.95223 3 18.5455 3L 18.5455 -3C 6.65394 -3 -3 6.61594 -3 18.495L 3 18.495ZM 18.5455 33.99C 9.95222 33.99 2.99999 27.045 3 18.495L -3 18.495C -3.00001 30.3741 6.65394 39.99 18.5455 39.99L 18.5455 33.99ZM 19 3.21999C 10.4396 3.22001 3.49999 10.1596 3.49999 18.72L 9.49999 18.72C 9.49999 13.4733 13.7533 9.22 19 9.21999L 19 3.21999ZM 16 3.22001L 16 6.22L 22 6.21999L 22 3.22001L 16 3.22001ZM 6.5 18.72C 6.5 11.8164 12.0964 6.22001 19 6.22001L 19 0.220009C 8.78273 0.220004 0.5 8.50274 0.499998 18.72L 6.5 18.72ZM 19 31.22C 12.0964 31.22 6.5 25.6236 6.5 18.72L 0.499998 18.72C 0.499996 28.9373 8.78272 37.22 19 37.22L 19 31.22ZM 16 31.22L 16 34.22L 22 34.22L 22 31.22L 16 31.22ZM 3.49999 18.72C 3.5 27.2804 10.4396 34.22 19 34.22L 19 28.22C 13.7533 28.22 9.5 23.9667 9.49999 18.72L 3.49999 18.72Z"/>
</defs>
</svg>
