<svg width="244" height="274" viewBox="0 0 244 274" version="1.1" xmlns="http://www.w3.org/2000/svg" xmlns:xlink="http://www.w3.org/1999/xlink">
<title>b2t-btn</title>
<desc>Created using Figma</desc>
<g id="Canvas" transform="translate(324 367)">
<g id="b2t-btn">
<g id="Vector">
<use xlink:href="#path0_stroke" transform="translate(-324 -103)" fill="#1C1C1C"/>
</g>
<g id="Ellipse">
<use xlink:href="#path1_fill" transform="translate(-324 -367)" fill="#1C1C1C"/>
</g>
<g id="Polygon">
<use xlink:href="#path2_stroke" transform="translate(-269 -316)" fill="#F2F2F2"/>
</g>
</g>
</g>
<defs>
<path id="path0_stroke" d="M 0 10L 244 10L 244 -10L 0 -10L 0 10Z"/>
<path id="path1_fill" d="M 244 122C 244 189.379 189.379 244 122 244C 54.6213 244 0 189.379 0 122C 0 54.6213 54.6213 0 122 0C 189.379 0 244 54.6213 244 122Z"/>
<path id="path2_stroke" d="M 66.684 0L 77.3539 -9.06384L 66.684 -21.6244L 56.0141 -9.06384L 66.684 0ZM 56.0141 9.06384L 122.698 87.5638L 144.038 69.4362L 77.3539 -9.06384L 56.0141 9.06384ZM 10.6699 87.5638L 77.3539 9.06384L 56.0141 -9.06384L -10.6699 69.4362L 10.6699 87.5638ZM 52.684 0L 52.684 149L 80.684 149L 80.684 0L 52.684 0Z"/>
</defs>
</svg>
