<svg width="160" height="160" viewBox="0 0 160 160" version="1.1" xmlns="http://www.w3.org/2000/svg" xmlns:xlink="http://www.w3.org/1999/xlink">
<title>books-icon-b</title>
<desc>Created using Figma</desc>
<g id="Canvas" transform="translate(83 164)">
<g id="books-icon-b">
<g id="Rectangle">
<mask id="mask0_outline_ins">
<use xlink:href="#path0_fill" fill="white" transform="translate(-83 -164)"/>
</mask>
<g mask="url(#mask0_outline_ins)">
<use xlink:href="#path1_stroke_2x" transform="translate(-83 -164)" fill="#FFFFFF"/>
</g>
</g>
<g id="Ellipse">
<use xlink:href="#path2_fill" transform="translate(-66 -147)" fill="#F0ADFF"/>
</g>
<g id="stack">
<g id="bottom-book">
<use xlink:href="#path3_fill" transform="translate(-55 -89.8824)" fill="#1C1C1C"/>
<use xlink:href="#path4_fill" transform="translate(-55 -89.8824)" fill="#1C1C1C"/>
<use xlink:href="#path5_fill" transform="translate(-55 -89.8824)" fill="#1C1C1C"/>
<use xlink:href="#path6_fill" transform="translate(-55 -89.8824)" fill="#1C1C1C"/>
<use xlink:href="#path7_stroke" transform="translate(-55 -89.8824)" fill="#F0ADFF"/>
</g>
<g id="middle-book">
<use xlink:href="#path8_fill" transform="translate(-42.4286 -107.529)" fill="#1C1C1C"/>
<use xlink:href="#path9_fill" transform="translate(-42.4286 -107.529)" fill="#1C1C1C"/>
<mask id="mask1_outline_ins">
<use xlink:href="#path8_fill" fill="white" transform="translate(-42.4286 -107.529)"/>
<use xlink:href="#path9_fill" fill="white" transform="translate(-42.4286 -107.529)"/>
</mask>
<g mask="url(#mask1_outline_ins)">
<use xlink:href="#path10_stroke_2x" transform="translate(-42.4286 -107.529)" fill="#F0ADFF"/>
</g>
</g>
<g id="bottom-book">
<use xlink:href="#path11_fill" transform="matrix(-1 0 0 1 49 -124)" fill="#1C1C1C"/>
<use xlink:href="#path12_fill" transform="matrix(-1 0 0 1 49 -124)" fill="#1C1C1C"/>
<use xlink:href="#path13_fill" transform="matrix(-1 0 0 1 49 -124)" fill="#1C1C1C"/>
<use xlink:href="#path14_fill" transform="matrix(-1 0 0 1 49 -124)" fill="#1C1C1C"/>
<use xlink:href="#path15_stroke" transform="matrix(-1 0 0 1 49 -124)" fill="#F0ADFF"/>
</g>
</g>
</g>
</g>
<defs>
<path id="path0_fill" d="M 0 0L 160 0L 160 160L 0 160L 0 0Z"/>
<path id="path1_stroke_2x" d="M 0 0L 0 -1L -1 -1L -1 0L 0 0ZM 160 0L 161 0L 161 -1L 160 -1L 160 0ZM 160 160L 160 161L 161 161L 161 160L 160 160ZM 0 160L -1 160L -1 161L 0 161L 0 160ZM 0 1L 160 1L 160 -1L 0 -1L 0 1ZM 159 0L 159 160L 161 160L 161 0L 159 0ZM 160 159L 0 159L 0 161L 160 161L 160 159ZM 1 160L 1 0L -1 0L -1 160L 1 160Z"/>
<path id="path2_fill" d="M 125 62.5C 125 97.0178 97.0178 125 62.5 125C 27.9822 125 0 97.0178 0 62.5C 0 27.9822 27.9822 0 62.5 0C 97.0178 0 125 27.9822 125 62.5Z"/>
<path id="path3_fill" d="M 34.718 25.2146L 101.361 10.3339C 103.356 13.6407 103.356 22.7345 101.361 25.2146L 34.718 45.8824C 35.2638 44.9402 35.7473 43.6545 36.1261 42.1622C 36.3377 41.3288 36.5166 40.4311 36.6554 39.4928C 36.8229 38.3608 36.932 37.1699 36.9699 35.9618C 37.0218 34.3045 36.9396 32.6151 36.6895 31.0016C 36.5341 29.9991 36.314 29.026 36.0211 28.1081C 35.686 27.0583 35.2557 26.0809 34.718 25.2146Z"/>
<path id="path4_fill" d="M 34.718 25.2146L 101.361 10.3339L 66.6427 0L 0 10.3339L 7.98116 14.0541L 34.718 25.2146Z"/>
<path id="path5_fill" d="M 7.98116 19.841C 8.38021 21.0811 8.6241 21.8159 7.98116 23.1479C 7.5821 23.9746 7.28772 24.6048 7.98116 26.0413C 8.09999 26.2875 8.18344 26.5704 8.2315 26.868C 8.31968 27.4142 8.28872 28.0103 8.13861 28.5215C 8.09581 28.6672 8.04333 28.806 7.98116 28.9348L 34.718 41.5635L 36.1261 42.1622C 36.3377 41.3288 36.5166 40.4311 36.6554 39.4928C 36.8229 38.3608 36.932 37.1699 36.9699 35.9618C 37.0218 34.3045 36.9396 32.6151 36.6895 31.0016C 36.5341 29.9991 36.314 29.026 36.0211 28.1081C 35.686 27.0583 35.2557 26.0809 34.718 25.2146L 7.98116 14.0541C 8.38021 14.8808 8.38021 15.7075 7.98116 16.5342C 7.67712 17.479 7.60473 18.1838 7.76396 19.0143C 7.81373 19.2739 7.88613 19.5457 7.98116 19.841Z"/>
<path id="path6_fill" d="M 0 29.7615L 34.718 45.8824C 35.2638 44.9402 35.7473 43.6545 36.1261 42.1622L 34.718 41.5635L 7.98116 28.9348C 8.04333 28.806 8.09581 28.6672 8.13861 28.5215L 4.78869 29.0487L 0 29.7615Z"/>
<path id="path7_stroke" d="M 101.361 10.3339L 101.789 10.0756L 101.689 9.90985L 101.503 9.85464L 101.361 10.3339ZM 101.361 25.2146L 101.509 25.6922L 101.655 25.647L 101.75 25.528L 101.361 25.2146ZM 34.718 45.8824L 34.5075 46.3359L 34.6822 46.417L 34.8661 46.3599L 34.718 45.8824ZM 0 10.3339L -0.0766163 9.83977L -1.70259 10.0919L -0.21124 10.787L 0 10.3339ZM 0 29.7615L -0.0736193 29.267L -1.7234 29.5126L -0.210574 30.215L 0 29.7615ZM 66.6427 0L 66.7853 -0.479222L 66.6773 -0.511354L 66.566 -0.494095L 66.6427 0ZM 34.718 41.5635L 34.5045 42.0156L 34.5134 42.0198L 34.5224 42.0237L 34.718 41.5635ZM 7.98116 16.5342L 7.53087 16.3168L 7.51581 16.348L 7.50519 16.381L 7.98116 16.5342ZM 7.98116 19.841L 7.50519 19.9942L 7.98116 19.841ZM 7.98116 26.0413L 7.53087 26.2587L 7.98116 26.0413ZM 7.98116 28.9348L 7.53087 28.7175L 7.31167 29.1716L 7.76761 29.3869L 7.98116 28.9348ZM 4.78869 29.0487L 4.86232 29.5432L 4.86643 29.5426L 4.78869 29.0487ZM 36.0211 28.1081L 36.4974 27.9561L 36.0211 28.1081ZM 34.827 25.7026L 101.47 10.8218L 101.252 9.84588L 34.6091 24.7266L 34.827 25.7026ZM 100.933 10.5922C 101.856 12.1232 102.357 15.1066 102.357 18.0843C 102.358 19.5616 102.237 20.9852 101.993 22.2106C 101.748 23.4419 101.392 24.3775 100.971 24.9012L 101.75 25.528C 102.327 24.8117 102.72 23.6806 102.973 22.4058C 103.228 21.1253 103.357 19.6038 103.357 18.0843C 103.357 15.0683 102.86 11.8514 101.789 10.0756L 100.933 10.5922ZM 101.213 24.7371L 34.5699 45.4048L 34.8661 46.3599L 101.509 25.6922L 101.213 24.7371ZM 34.9286 45.4289L 0.210574 29.308L -0.210574 30.215L 34.5075 46.3359L 34.9286 45.4289ZM 101.503 9.85464L 66.7853 -0.479222L 66.5 0.479222L 101.218 10.8131L 101.503 9.85464ZM 66.566 -0.494095L -0.0766163 9.83977L 0.0766163 10.828L 66.7193 0.494095L 66.566 -0.494095ZM 8.43144 23.3652C 8.77721 22.6393 8.90133 21.9978 8.871 21.4299C 8.83266 20.8616 8.65639 20.3071 8.45712 19.6879L 7.50519 19.9942C 7.70498 20.615 7.85019 21.048 7.87282 21.4901C 7.90346 21.9326 7.82805 22.3245 7.53087 22.9305L 8.43144 23.3652ZM 8.43144 25.824C 8.10889 25.1558 8.04276 24.7304 8.06974 24.4075C 8.09097 24.0558 8.23251 23.7773 8.43144 23.3652L 7.53087 22.9305C 7.33075 23.3451 7.12556 23.7951 7.07321 24.3243C 7.02659 24.8823 7.15999 25.4903 7.53087 26.2587L 8.43144 25.824ZM 34.9106 24.7532L 8.17376 13.5926L 7.78855 14.5155L 34.5254 25.676L 34.9106 24.7532ZM 8.1924 13.6009L 0.21124 9.88068L -0.21124 10.787L 7.76992 14.5072L 8.1924 13.6009ZM 7.53087 14.2714C 7.86364 14.9608 7.86364 15.6274 7.53087 16.3168L 8.43144 16.7515C 8.89679 15.7875 8.89679 14.8007 8.43144 13.8367L 7.53087 14.2714ZM 35.1507 46.133C 35.7156 45.1542 36.2244 43.8042 36.6108 42.2852L 35.6415 42.0391C 35.2703 43.5047 34.8119 44.7262 34.2854 45.6317L 35.1507 46.133ZM 34.5224 42.0237L 35.9305 42.6223L 36.3218 41.702L 34.9137 41.1034L 34.5224 42.0237ZM 34.9316 41.1114L 8.1947 28.4827L 7.76761 29.3869L 34.5045 42.0156L 34.9316 41.1114ZM 0.0736193 30.2561L 4.86231 29.5432L 4.71507 28.5541L -0.0736193 29.267L 0.0736193 30.2561ZM 8.43144 29.1522C 8.50276 29.0033 8.56987 28.8262 8.61835 28.6624L 7.65887 28.3806C 7.62175 28.5082 7.58389 28.6087 7.53087 28.7175L 8.43144 29.1522ZM 4.86643 29.5426L 8.21634 29.0154L 8.06088 28.0275L 4.71096 28.5548L 4.86643 29.5426ZM 7.77901 23.6052L 36.7678 36.4192L 37.1721 35.5045L 8.1833 22.6905L 7.77901 23.6052ZM 8.45712 19.6879C 8.36585 19.4048 8.30115 19.1624 8.25502 18.9202L 7.27291 19.1085C 7.32632 19.3854 7.40641 19.6867 7.50519 19.9942L 8.45712 19.6879ZM 8.25502 18.9202C 8.10425 18.162 8.16646 17.5816 8.45712 16.6873L 7.50519 16.381C 7.18778 17.3763 7.1052 18.2056 7.27291 19.1085L 8.25502 18.9202ZM 37.4697 35.9775C 37.5218 34.3002 37.437 32.5645 37.1836 30.925L 36.1954 31.0782C 36.4421 32.6656 36.5219 34.3089 36.4701 35.9462L 37.4697 35.9775ZM 7.57254 19.4762L 36.4981 31.4635L 36.8809 30.5397L 7.95539 18.5524L 7.57254 19.4762ZM 8.61835 28.6624C 8.78161 28.0943 8.81895 27.3872 8.72511 26.7884L 7.73789 26.9477C 7.82041 27.4413 7.79582 27.9263 7.65887 28.3806L 8.61835 28.6624ZM 8.72511 26.7884C 8.67101 26.4596 8.56646 26.1075 8.43144 25.824L 7.53087 26.2587C 7.63352 26.4675 7.69588 26.6812 7.73789 26.9477L 8.72511 26.7884ZM 36.6108 42.2852C 36.8253 41.4392 37.0092 40.5165 37.15 39.566L 36.1608 39.4196C 36.0239 40.3456 35.85 41.2184 35.6415 42.0391L 36.6108 42.2852ZM 37.15 39.566C 37.3193 38.4203 37.4311 37.2006 37.4697 35.9775L 36.4701 35.9462C 36.433 37.1392 36.3264 38.3014 36.1608 39.4196L 37.15 39.566ZM 8.02854 27.325L 36.4524 39.9497L 36.8584 39.0358L 8.43446 26.4111L 8.02854 27.325ZM 37.1836 30.925C 37.0253 29.9056 36.7965 28.8947 36.4974 27.9561L 35.5447 28.2601C 35.8316 29.1573 36.043 30.0926 36.1954 31.0782L 37.1836 30.925ZM 36.4974 27.9561C 36.1536 26.8813 35.698 25.8478 35.1429 24.951L 34.2932 25.4783C 34.8133 26.3141 35.2184 27.2353 35.5447 28.2601L 36.4974 27.9561ZM 7.79039 16.9964L 35.8303 28.5703L 36.2118 27.6459L 8.17193 16.072L 7.79039 16.9964Z"/>
<path id="path8_fill" d="M 0 21.1765L 84.5714 21.1765L 84.5714 38.8235L 0 38.8235L 0 21.1765Z"/>
<path id="path9_fill" d="M 0 21.1765L 84.5714 21.1765L 79.4286 0L 5.14286 0L 0 21.1765Z"/>
<path id="path10_stroke_2x" d="M 0 21.6765L 84.5714 21.6765L 84.5714 20.6765L 0 20.6765L 0 21.6765ZM 0 21.1765L -0.971754 20.9405L -1 21.0568L -1 21.1765L 0 21.1765ZM 84.5714 21.1765L 85.5714 21.1765L 85.5714 21.0568L 85.5432 20.9405L 84.5714 21.1765ZM 84.5714 38.8235L 84.5714 39.8235L 85.5714 39.8235L 85.5714 38.8235L 84.5714 38.8235ZM 0 38.8235L -1 38.8235L -1 39.8235L 0 39.8235L 0 38.8235ZM 5.14286 0L 5.14286 -1L 4.35665 -1L 4.1711 -0.235997L 5.14286 0ZM 79.4286 0L 80.4003 -0.235997L 80.2148 -1L 79.4286 -1L 79.4286 0ZM 83.5714 21.1765L 83.5714 38.8235L 85.5714 38.8235L 85.5714 21.1765L 83.5714 21.1765ZM 84.5714 37.8235L 0 37.8235L 0 39.8235L 84.5714 39.8235L 84.5714 37.8235ZM 1 38.8235L 1 21.1765L -1 21.1765L -1 38.8235L 1 38.8235ZM 0.971754 21.4125L 6.11461 0.235997L 4.1711 -0.235997L -0.971754 20.9405L 0.971754 21.4125ZM 5.14286 1L 79.4286 1L 79.4286 -1L 5.14286 -1L 5.14286 1ZM 78.4568 0.235997L 83.5997 21.4125L 85.5432 20.9405L 80.4003 -0.235997L 78.4568 0.235997Z"/>
<path id="path11_fill" d="M 33.175 23.9216L 96.8558 9.80392C 98.7624 12.9412 98.7624 21.5686 96.8558 23.9216L 33.175 43.5294C 33.6965 42.6356 34.1585 41.4158 34.5205 40C 34.7227 39.2094 34.8936 38.3577 35.0263 37.4675C 35.1863 36.3936 35.2906 35.2637 35.3268 34.1176C 35.3764 32.5453 35.2978 30.9425 35.0589 29.4118C 34.9104 28.4607 34.7001 27.5375 34.4201 26.6667C 34.0999 25.6707 33.6887 24.7434 33.175 23.9216Z"/>
<path id="path12_fill" d="M 33.175 23.9216L 96.8558 9.80392L 63.6808 0L 0 9.80392L 7.62644 13.3333L 33.175 23.9216Z"/>
<path id="path13_fill" d="M 7.62644 18.8235C 8.00776 20 8.24081 20.6971 7.62644 21.9608C 7.24512 22.7451 6.96382 23.343 7.62644 24.7059C 7.73999 24.9394 7.81973 25.2078 7.86566 25.4902C 7.94992 26.0084 7.92033 26.5739 7.77689 27.0588C 7.736 27.1971 7.68584 27.3288 7.62644 27.451L 33.175 39.432L 34.5205 40C 34.7227 39.2094 34.8936 38.3577 35.0263 37.4675C 35.1863 36.3936 35.2906 35.2637 35.3268 34.1176C 35.3764 32.5453 35.2978 30.9425 35.0589 29.4118C 34.9104 28.4607 34.7001 27.5375 34.4201 26.6667C 34.0999 25.6707 33.6887 24.7434 33.175 23.9216L 7.62644 13.3333C 8.00776 14.1176 8.00776 14.902 7.62644 15.6863C 7.33592 16.5826 7.26674 17.2513 7.4189 18.0392C 7.46646 18.2855 7.53564 18.5434 7.62644 18.8235Z"/>
<path id="path14_fill" d="M 0 28.2353L 33.175 43.5294C 33.6965 42.6356 34.1585 41.4158 34.5205 40L 33.175 39.432L 7.62644 27.451C 7.68584 27.3288 7.736 27.1971 7.77689 27.0588L 4.57586 27.559L 0 28.2353Z"/>
<path id="path15_stroke" d="M 96.8558 9.80392L 97.283 9.54425L 97.1827 9.37917L 96.9975 9.32442L 96.8558 9.80392ZM 96.8558 23.9216L 97.0029 24.3994L 97.1484 24.3546L 97.2442 24.2364L 96.8558 23.9216ZM 33.175 43.5294L 32.9657 43.9835L 33.1394 44.0636L 33.3221 44.0073L 33.175 43.5294ZM 0 9.80392L -0.0760808 9.30974L -1.71359 9.56185L -0.209996 10.2577L 0 9.80392ZM 0 28.2353L -0.0731038 27.7407L -1.73454 27.9862L -0.209332 28.6894L 0 28.2353ZM 63.6808 0L 63.8225 -0.4795L 63.7152 -0.511195L 63.6047 -0.494178L 63.6808 0ZM 33.175 39.432L 32.9627 39.8847L 32.9716 39.8889L 32.9806 39.8927L 33.175 39.432ZM 7.62644 15.6863L 7.17677 15.4677L 7.16154 15.499L 7.1508 15.5321L 7.62644 15.6863ZM 7.62644 18.8235L 7.1508 18.9777L 7.1508 18.9777L 7.62644 18.8235ZM 7.62644 24.7059L 8.07611 24.4873L 7.62644 24.7059ZM 7.62644 27.451L 7.17677 27.2324L 6.95505 27.6884L 7.41415 27.9037L 7.62644 27.451ZM 4.57586 27.559L 4.64897 28.0536L 4.65305 28.053L 4.57586 27.559ZM 34.4201 26.6667L 34.8961 26.5136L 34.4201 26.6667ZM 33.2832 24.4097L 96.964 10.2921L 96.7475 9.31577L 33.0668 23.4334L 33.2832 24.4097ZM 96.4285 10.0636C 97.3071 11.5094 97.7857 14.3332 97.7857 17.1569C 97.7862 18.5572 97.6716 19.905 97.438 21.0659C 97.2041 22.2326 96.8658 23.1149 96.4673 23.6068L 97.2442 24.2364C 97.799 23.5517 98.1757 22.4733 98.4185 21.2625C 98.6616 20.046 98.7853 18.5997 98.7857 17.1569C 98.7857 14.2943 98.311 11.2357 97.283 9.54425L 96.4285 10.0636ZM 96.7086 23.4437L 33.0279 43.0516L 33.3221 44.0073L 97.0029 24.3994L 96.7086 23.4437ZM 33.3843 43.0753L 0.209332 27.7812L -0.209332 28.6894L 32.9657 43.9835L 33.3843 43.0753ZM 96.9975 9.32442L 63.8225 -0.4795L 63.5391 0.4795L 96.7141 10.2834L 96.9975 9.32442ZM 63.6047 -0.494178L -0.0760808 9.30974L 0.0760808 10.2981L 63.7568 0.494178L 63.6047 -0.494178ZM 8.07611 22.1794C 8.40788 21.4873 8.52788 20.8716 8.4989 20.3291C 8.46181 19.7863 8.29247 19.2568 8.10208 18.6694L 7.1508 18.9777C 7.34172 19.5667 7.47957 19.974 7.50074 20.3898C 7.53003 20.8059 7.45937 21.1706 7.17677 21.7422L 8.07611 22.1794ZM 8.07611 24.4873C 7.7692 23.856 7.70801 23.4577 7.7332 23.1583C 7.75261 22.8297 7.88605 22.5703 8.07611 22.1794L 7.17677 21.7422C 6.98551 22.1356 6.78764 22.5673 6.73672 23.0744C 6.69159 23.6108 6.82107 24.1929 7.17677 24.9245L 8.07611 24.4873ZM 33.3664 23.4597L 7.81787 12.8714L 7.43501 13.7952L 32.9836 24.3835L 33.3664 23.4597ZM 7.83643 12.8796L 0.209996 9.35016L -0.209996 10.2577L 7.41644 13.7871L 7.83643 12.8796ZM 7.17677 13.552C 7.49098 14.1982 7.49098 14.8214 7.17677 15.4677L 8.07611 15.9049C 8.52454 14.9826 8.52454 14.037 8.07611 13.1147L 7.17677 13.552ZM 33.6069 43.7814C 34.1478 42.8509 34.6353 41.5665 35.0049 40.1239L 34.0361 39.8761C 33.6818 41.265 33.2452 42.4203 32.7431 43.2775L 33.6069 43.7814ZM 32.9806 39.8927L 34.3261 40.4606L 34.715 39.5394L 33.3694 38.9714L 32.9806 39.8927ZM 33.3873 38.9794L 7.83873 26.9983L 7.41415 27.9037L 32.9627 39.8847L 33.3873 38.9794ZM 0.0731038 28.7299L 4.64897 28.0536L 4.50276 27.0644L -0.0731038 27.7407L 0.0731038 28.7299ZM 8.07611 27.6696C 8.14477 27.5273 8.20971 27.3571 8.25636 27.2006L 7.29743 26.917C 7.26228 27.0371 7.22692 27.1303 7.17677 27.2324L 8.07611 27.6696ZM 4.65305 28.053L 7.85408 27.5528L 7.6997 26.5648L 4.49867 27.065L 4.65305 28.053ZM 7.4255 22.4186L 35.1259 34.5755L 35.5277 33.6598L 7.82737 21.5029L 7.4255 22.4186ZM 8.10208 18.6694C 8.01508 18.4015 7.9537 18.1732 7.90983 17.9444L 6.92797 18.134C 6.97922 18.3977 7.05619 18.6853 7.1508 18.9777L 8.10208 18.6694ZM 7.90983 17.9444C 7.76626 17.2294 7.82511 16.686 8.10208 15.8404L 7.1508 15.5321C 6.84672 16.4792 6.76722 17.2732 6.92797 18.134L 7.90983 17.9444ZM 35.8265 34.1334C 35.8764 32.541 35.7952 30.8916 35.5529 29.3347L 34.5649 29.4889C 34.8004 30.9934 34.8764 32.5497 34.827 34.1019L 35.8265 34.1334ZM 7.22865 18.5016L 34.8686 29.8742L 35.2491 28.9494L 7.60915 17.5768L 7.22865 18.5016ZM 8.25636 27.2006C 8.41313 26.6585 8.44918 25.9812 8.35917 25.4099L 7.37214 25.5705C 7.45066 26.0356 7.42753 26.4893 7.29743 26.917L 8.25636 27.2006ZM 8.35917 25.4099C 8.30713 25.0962 8.20603 24.7583 8.07611 24.4873L 7.17677 24.9245C 7.27396 25.1206 7.33234 25.3194 7.37214 25.5705L 8.35917 25.4099ZM 35.0049 40.1239C 35.2102 39.3206 35.3862 38.4437 35.5208 37.5412L 34.5317 37.3938C 34.4011 38.2716 34.2352 39.0982 34.0361 39.8761L 35.0049 40.1239ZM 35.5208 37.5412C 35.6827 36.4535 35.7897 35.2946 35.8265 34.1334L 34.827 34.1019C 34.7916 35.2329 34.6899 36.3338 34.5317 37.3938L 35.5208 37.5412ZM 7.66391 25.9477L 34.8245 37.925L 35.228 37.01L 8.0674 25.0327L 7.66391 25.9477ZM 35.5529 29.3347C 35.4015 28.3665 35.1823 27.4053 34.8961 26.5136L 33.9441 26.8197C 34.2178 27.6696 34.4194 28.5548 34.5649 29.4889L 35.5529 29.3347ZM 34.8961 26.5136C 34.5671 25.4926 34.1304 24.509 33.599 23.6565L 32.751 24.1866C 33.2471 24.9779 33.6327 25.8488 33.9441 26.8197L 34.8961 26.5136ZM 7.43684 16.1489L 34.2305 27.1293L 34.6097 26.204L 7.81604 15.2236L 7.43684 16.1489Z"/>
</defs>
</svg>
