<svg width="160" height="160" viewBox="0 0 160 160" version="1.1" xmlns="http://www.w3.org/2000/svg" xmlns:xlink="http://www.w3.org/1999/xlink">
<title>books-icon-b</title>
<desc>Created using Figma</desc>
<g id="Canvas" transform="translate(83 164)">
<g id="books-icon-b">
<g id="Rectangle">
<mask id="mask0_outline_ins">
<use xlink:href="#path0_fill" fill="white" transform="translate(-83 -164)"/>
</mask>
<g mask="url(#mask0_outline_ins)">
<use xlink:href="#path1_stroke_2x" transform="translate(-83 -164)" fill="#FFFFFF"/>
</g>
</g>
<g id="Ellipse">
<use xlink:href="#path2_fill" transform="translate(-66 -147)" fill="#F0ADFF"/>
</g>
<g id="stack">
<g id="bottom-book">
<use xlink:href="#path3_fill" transform="translate(-57 -91.3824)" fill="#1C1C1C"/>
<use xlink:href="#path4_fill" transform="translate(-57 -91.3824)" fill="#1C1C1C"/>
<use xlink:href="#path5_fill" transform="translate(-57 -91.3824)" fill="#1C1C1C"/>
<use xlink:href="#path6_fill" transform="translate(-57 -91.3824)" fill="#1C1C1C"/>
<use xlink:href="#path7_stroke" transform="translate(-57 -91.3824)" fill="#F0ADFF"/>
</g>
<g id="middle-book">
<use xlink:href="#path8_fill" transform="translate(-49.7472 -101.529)" fill="#1C1C1C"/>
<use xlink:href="#path9_fill" transform="translate(-49.7472 -101.529)" fill="#1C1C1C"/>
<mask id="mask1_outline_ins">
<use xlink:href="#path8_fill" fill="white" transform="translate(-49.7472 -101.529)"/>
<use xlink:href="#path9_fill" fill="white" transform="translate(-49.7472 -101.529)"/>
</mask>
<g mask="url(#mask1_outline_ins)">
<use xlink:href="#path10_stroke_2x" transform="translate(-49.7472 -101.529)" fill="#F0ADFF"/>
</g>
</g>
<g id="bottom-book">
<use xlink:href="#path11_fill" transform="matrix(-1 0 0 1 3 -111)" fill="#1C1C1C"/>
<use xlink:href="#path12_fill" transform="matrix(-1 0 0 1 3 -111)" fill="#1C1C1C"/>
<use xlink:href="#path13_fill" transform="matrix(-1 0 0 1 3 -111)" fill="#1C1C1C"/>
<use xlink:href="#path14_fill" transform="matrix(-1 0 0 1 3 -111)" fill="#1C1C1C"/>
<use xlink:href="#path15_stroke" transform="matrix(-1 0 0 1 3 -111)" fill="#F0ADFF"/>
</g>
</g>
<g id="open-book">
<use xlink:href="#path16_fill" transform="matrix(1 -1.38778e-17 1.38778e-17 1 -8 -126)" fill="#1C1C1C"/>
<use xlink:href="#path17_stroke" transform="matrix(1 -1.38778e-17 1.38778e-17 1 -8 -126)" fill="#F0ADFF"/>
</g>
</g>
</g>
<defs>
<path id="path0_fill" d="M 0 0L 160 0L 160 160L 0 160L 0 0Z"/>
<path id="path1_stroke_2x" d="M 0 0L 0 -1L -1 -1L -1 0L 0 0ZM 160 0L 161 0L 161 -1L 160 -1L 160 0ZM 160 160L 160 161L 161 161L 161 160L 160 160ZM 0 160L -1 160L -1 161L 0 161L 0 160ZM 0 1L 160 1L 160 -1L 0 -1L 0 1ZM 159 0L 159 160L 161 160L 161 0L 159 0ZM 160 159L 0 159L 0 161L 160 161L 160 159ZM 1 160L 1 0L -1 0L -1 160L 1 160Z"/>
<path id="path2_fill" d="M 125 62.5C 125 97.0178 97.0178 125 62.5 125C 27.9822 125 0 97.0178 0 62.5C 0 27.9822 27.9822 0 62.5 0C 97.0178 0 125 27.9822 125 62.5Z"/>
<path id="path3_fill" d="M 20.0296 14.4984L 58.4773 5.94197C 59.6284 7.8434 59.6284 13.0723 58.4773 14.4984L 20.0296 26.3824C 20.3445 25.8406 20.6235 25.1013 20.842 24.2432C 20.964 23.7641 21.0673 23.2479 21.1473 22.7083C 21.244 22.0575 21.3069 21.3727 21.3288 20.6781C 21.3588 19.7251 21.3113 18.7537 21.167 17.8259C 21.0774 17.2495 20.9504 16.6899 20.7814 16.1622C 20.5881 15.5585 20.3398 14.9965 20.0296 14.4984Z"/>
<path id="path4_fill" d="M 20.0296 14.4984L 58.4773 5.94197L 38.4477 0L 0 5.94197L 4.60451 8.08108L 20.0296 14.4984Z"/>
<path id="path5_fill" d="M 4.60451 11.4086C 4.83474 12.1216 4.97544 12.5441 4.60451 13.31C 4.37429 13.7854 4.20446 14.1478 4.60451 14.9738C 4.67307 15.1153 4.72122 15.278 4.74894 15.4491C 4.79982 15.7632 4.78195 16.1059 4.69535 16.3998C 4.67066 16.4836 4.64038 16.5635 4.60451 16.6375L 20.0296 23.899L 20.842 24.2432C 20.964 23.7641 21.0673 23.2479 21.1473 22.7083C 21.244 22.0575 21.3069 21.3727 21.3288 20.6781C 21.3588 19.7251 21.3113 18.7537 21.167 17.8259C 21.0774 17.2495 20.9504 16.6899 20.7814 16.1622C 20.5881 15.5585 20.3398 14.9965 20.0296 14.4984L 4.60451 8.08108C 4.83474 8.55644 4.83474 9.0318 4.60451 9.50715C 4.42911 10.0504 4.38734 10.4557 4.47921 10.9332C 4.50792 11.0825 4.54969 11.2388 4.60451 11.4086Z"/>
<path id="path6_fill" d="M 0 17.1129L 20.0296 26.3824C 20.3445 25.8406 20.6235 25.1013 20.842 24.2432L 20.0296 23.899L 4.60451 16.6375C 4.64038 16.5635 4.67066 16.4836 4.69535 16.3998L 2.76271 16.703L 0 17.1129Z"/>
<path id="path7_stroke" d="M 58.4773 5.94197L 58.905 5.68303L 58.8049 5.51761L 58.6195 5.46262L 58.4773 5.94197ZM 58.4773 14.4984L 58.625 14.9761L 58.7706 14.9311L 58.8664 14.8125L 58.4773 14.4984ZM 20.0296 26.3824L 19.8196 26.8361L 19.9939 26.9167L 20.1773 26.8601L 20.0296 26.3824ZM 0 5.94197L -0.0763669 5.44784L -1.70769 5.69995L -0.210661 6.39543L 0 5.94197ZM 0 17.1129L -0.0733792 16.6183L -1.72857 16.8639L -0.209996 17.5666L 0 17.1129ZM 38.4477 0L 38.5899 -0.479352L 38.4823 -0.51128L 38.3713 -0.494134L 38.4477 0ZM 20.0296 23.899L 19.8167 24.3514L 19.8255 24.3556L 19.8346 24.3594L 20.0296 23.899ZM 4.60451 9.50715L 4.15451 9.28921L 4.13937 9.32047L 4.1287 9.35352L 4.60451 9.50715ZM 4.60451 13.31L 4.15451 13.0921L 4.60451 13.31ZM 4.60451 11.4086L 4.1287 11.5622L 4.60451 11.4086ZM 4.60451 14.9738L 4.15451 15.1917L 4.60451 14.9738ZM 4.60451 16.6375L 4.15451 16.4196L 3.93415 16.8746L 4.39155 17.0899L 4.60451 16.6375ZM 2.76271 16.703L 2.83609 17.1976L 2.84019 17.197L 2.76271 16.703ZM 20.7814 16.1622L 21.2576 16.0097L 20.7814 16.1622ZM 20.1382 14.9865L 58.5859 6.43003L 58.3687 5.45391L 19.921 14.0104L 20.1382 14.9865ZM 58.0496 6.20092C 58.5509 7.02901 58.8407 8.69457 58.8407 10.3985C 58.8411 11.2389 58.7737 12.0365 58.6345 12.7293C 58.495 13.4279 58.2982 13.9242 58.0882 14.1844L 58.8664 14.8125C 59.2319 14.3596 59.4669 13.6675 59.6151 12.9252C 59.7638 12.177 59.8402 11.2812 59.8407 10.3985C 59.8407 8.65599 59.5548 6.75637 58.905 5.68303L 58.0496 6.20092ZM 58.3297 14.0207L 19.882 25.9047L 20.1773 26.8601L 58.625 14.9761L 58.3297 14.0207ZM 20.2396 25.9286L 0.209996 16.6591L -0.209996 17.5666L 19.8196 26.8361L 20.2396 25.9286ZM 58.6195 5.46262L 38.5899 -0.479352L 38.3055 0.479352L 58.3351 6.42132L 58.6195 5.46262ZM 38.3713 -0.494134L -0.0763669 5.44784L 0.0763669 6.43611L 38.524 0.494134L 38.3713 -0.494134ZM 5.05451 13.528C 5.26441 13.0849 5.34646 12.6627 5.32903 12.3093C 5.30354 11.9555 5.19518 11.6107 5.08033 11.255L 4.1287 11.5622C 4.24408 11.9195 4.32118 12.1425 4.33086 12.3697C 4.3486 12.5973 4.31555 12.7692 4.15451 13.0921L 5.05451 13.528ZM 5.05451 14.7558C 4.87876 14.3929 4.85507 14.1874 4.86641 14.0522C 4.87199 13.8879 4.94 13.7644 5.05451 13.528L 4.15451 13.0921C 4.0388 13.331 3.90678 13.6264 3.8699 13.9686C 3.83879 14.3399 3.93021 14.7286 4.15451 15.1917L 5.05451 14.7558ZM 20.2217 14.0368L 4.79657 7.61944L 4.41246 8.54272L 19.8376 14.9601L 20.2217 14.0368ZM 4.81517 7.62763L 0.210661 5.48852L -0.210661 6.39543L 4.39385 8.53454L 4.81517 7.62763ZM 4.15451 8.29903C 4.31807 8.63673 4.31807 8.9515 4.15451 9.28921L 5.05451 9.7251C 5.35141 9.11209 5.35141 8.47614 5.05451 7.86314L 4.15451 8.29903ZM 20.4619 26.6336C 20.7961 26.0552 21.1004 25.2515 21.3265 24.3667L 20.3575 24.1198C 20.1465 24.9511 19.8929 25.626 19.5973 26.1311L 20.4619 26.6336ZM 19.8346 24.3594L 20.6469 24.7036L 21.0371 23.7829L 20.2247 23.4386L 19.8346 24.3594ZM 20.2426 23.4466L 4.81747 16.1851L 4.39155 17.0899L 19.8167 24.3514L 20.2426 23.4466ZM 0.0733792 17.6075L 2.83609 17.1976L 2.68933 16.2084L -0.0733792 16.6183L 0.0733792 17.6075ZM 5.05451 16.8555C 5.09958 16.7613 5.14456 16.6431 5.17496 16.5412L 4.21574 16.2585C 4.19676 16.3242 4.18118 16.3656 4.15451 16.4196L 5.05451 16.8555ZM 2.84019 17.197L 4.77283 16.8938L 4.61787 15.9059L 2.68523 16.209L 2.84019 17.197ZM 4.40293 13.7676L 21.1272 21.1356L 21.5304 20.2205L 4.8061 12.8525L 4.40293 13.7676ZM 5.08033 11.255C 5.02928 11.0974 4.99526 10.9706 4.97021 10.8388L 3.98821 11.0277C 4.02059 11.1943 4.0701 11.3802 4.1287 11.5622L 5.08033 11.255ZM 4.97021 10.8388C 4.88686 10.4339 4.91838 10.1534 5.08033 9.66079L 4.1287 9.35352C 3.93984 9.94739 3.88782 10.4775 3.98821 11.0277L 4.97021 10.8388ZM 21.8285 20.6938C 21.8587 19.7208 21.8087 18.703 21.6611 17.7491L 20.673 17.9027C 20.8139 18.8043 20.8588 19.7295 20.829 20.6623L 21.8285 20.6938ZM 4.28833 11.3954L 20.9761 18.288L 21.3579 17.3638L 4.67009 10.4711L 4.28833 11.3954ZM 5.17496 16.5412C 5.2748 16.1902 5.29908 15.7361 5.24251 15.3692L 4.25538 15.5291C 4.30055 15.7903 4.2891 16.0217 4.21574 16.2585L 5.17496 16.5412ZM 5.24251 15.3692C 5.2087 15.1668 5.13934 14.9348 5.05451 14.7558L 4.15451 15.1917C 4.2068 15.2959 4.23373 15.3891 4.25538 15.5291L 5.24251 15.3692ZM 21.3265 24.3667C 21.4516 23.8748 21.5598 23.3336 21.6419 22.7818L 20.6528 22.6349C 20.5747 23.1621 20.4765 23.6533 20.3575 24.1198L 21.3265 24.3667ZM 21.6419 22.7818C 21.7404 22.1171 21.806 21.4035 21.8285 20.6938L 20.829 20.6623C 20.8079 21.3419 20.7475 21.9978 20.6528 22.6349L 21.6419 22.7818ZM 4.54655 15.9063L 20.945 23.1655L 21.3497 22.2511L 4.95134 14.9919L 4.54655 15.9063ZM 21.6611 17.7491C 21.5685 17.1557 21.4327 16.5582 21.2576 16.0097L 20.3052 16.3147C 20.468 16.8216 20.5863 17.3433 20.673 17.9027L 21.6611 17.7491ZM 21.2576 16.0097C 21.0555 15.381 20.7818 14.7628 20.4541 14.2341L 19.6052 14.7627C 19.8978 15.2303 20.1206 15.7361 20.3052 16.3147L 21.2576 16.0097ZM 4.41429 9.96955L 20.5911 16.6246L 20.9716 15.6998L 4.79474 9.04475L 4.41429 9.96955Z"/>
<path id="path8_fill" d="M 0 12.1765L 48.7912 12.1765L 48.7912 22.3235L 0 22.3235L 0 12.1765Z"/>
<path id="path9_fill" d="M 0 12.1765L 48.7912 12.1765L 45.8242 0L 2.96703 0L 0 12.1765Z"/>
<path id="path10_stroke_2x" d="M 0 12.6765L 48.7912 12.6765L 48.7912 11.6765L 0 11.6765L 0 12.6765ZM 0 12.1765L -0.971572 11.9397L -1 12.0564L -1 12.1765L 0 12.1765ZM 48.7912 12.1765L 49.7912 12.1765L 49.7912 12.0564L 49.7628 11.9397L 48.7912 12.1765ZM 48.7912 22.3235L 48.7912 23.3235L 49.7912 23.3235L 49.7912 22.3235L 48.7912 22.3235ZM 0 22.3235L -1 22.3235L -1 23.3235L 0 23.3235L 0 22.3235ZM 2.96703 0L 2.96703 -1L 2.18144 -1L 1.99546 -0.236742L 2.96703 0ZM 45.8242 0L 46.7957 -0.236742L 46.6098 -1L 45.8242 -1L 45.8242 0ZM 47.7912 12.1765L 47.7912 22.3235L 49.7912 22.3235L 49.7912 12.1765L 47.7912 12.1765ZM 48.7912 21.3235L 0 21.3235L 0 23.3235L 48.7912 23.3235L 48.7912 21.3235ZM 1 22.3235L 1 12.1765L -1 12.1765L -1 22.3235L 1 22.3235ZM 0.971572 12.4132L 3.93861 0.236742L 1.99546 -0.236742L -0.971572 11.9397L 0.971572 12.4132ZM 2.96703 1L 45.8242 1L 45.8242 -1L 2.96703 -1L 2.96703 1ZM 44.8526 0.236742L 47.8196 12.4132L 49.7628 11.9397L 46.7957 -0.236742L 44.8526 0.236742Z"/>
<path id="path11_fill" d="M 19.1394 13.7549L 55.8783 5.63726C 56.9783 7.44118 56.9783 12.402 55.8783 13.7549L 19.1394 25.0294C 19.4403 24.5155 19.7069 23.8141 19.9157 23C 20.0323 22.5454 20.1309 22.0557 20.2075 21.5438C 20.2998 20.9263 20.36 20.2767 20.3808 19.6176C 20.4095 18.7136 20.3641 17.7919 20.2263 16.9118C 20.1406 16.3649 20.0193 15.834 19.8578 15.3333C 19.673 14.7607 19.4358 14.2275 19.1394 13.7549Z"/>
<path id="path12_fill" d="M 19.1394 13.7549L 55.8783 5.63726L 36.7389 0L 0 5.63726L 4.39987 7.66667L 19.1394 13.7549Z"/>
<path id="path13_fill" d="M 4.39987 10.8235C 4.61986 11.5 4.75431 11.9009 4.39987 12.6275C 4.17987 13.0784 4.01759 13.4222 4.39987 14.2059C 4.46538 14.3402 4.51138 14.4945 4.53788 14.6569C 4.58649 14.9548 4.56942 15.28 4.48667 15.5588C 4.46307 15.6383 4.43414 15.7141 4.39987 15.7843L 19.1394 22.6734L 19.9157 23C 20.0323 22.5454 20.1309 22.0557 20.2075 21.5438C 20.2998 20.9263 20.36 20.2767 20.3808 19.6176C 20.4095 18.7136 20.3641 17.7919 20.2263 16.9118C 20.1406 16.3649 20.0193 15.834 19.8578 15.3333C 19.673 14.7607 19.4358 14.2275 19.1394 13.7549L 4.39987 7.66667C 4.61986 8.11765 4.61986 8.56863 4.39987 9.01961C 4.23226 9.535 4.19235 9.9195 4.28013 10.3725C 4.30757 10.5142 4.34748 10.6624 4.39987 10.8235Z"/>
<path id="path14_fill" d="M 0 16.2353L 19.1394 25.0294C 19.4403 24.5155 19.7069 23.8141 19.9157 23L 19.1394 22.6734L 4.39987 15.7843C 4.43414 15.7141 4.46307 15.6383 4.48667 15.5588L 2.63992 15.8464L 0 16.2353Z"/>
<path id="path15_stroke" d="M 55.8783 5.63726L 56.3052 5.37695L 56.2047 5.21216L 56.0196 5.15763L 55.8783 5.63726ZM 55.8783 13.7549L 56.025 14.2329L 56.1704 14.1883L 56.2663 14.0703L 55.8783 13.7549ZM 19.1394 25.0294L 18.9307 25.4837L 19.1039 25.5633L 19.2861 25.5074L 19.1394 25.0294ZM 0 5.63726L -0.075833 5.14304L -1.71873 5.39513L -0.209419 6.09129L 0 5.63726ZM 0 16.2353L -0.0728653 15.7406L -1.73976 15.9862L -0.208757 16.6896L 0 16.2353ZM 36.7389 0L 36.8802 -0.479628L 36.7732 -0.511121L 36.6631 -0.494216L 36.7389 0ZM 19.1394 22.6734L 18.9277 23.1264L 18.9365 23.1305L 18.9455 23.1343L 19.1394 22.6734ZM 4.39987 9.01961L 3.95049 8.80039L 3.93518 8.83177L 3.92438 8.86498L 4.39987 9.01961ZM 4.39987 10.8235L 3.92438 10.9782L 4.39987 10.8235ZM 4.39987 15.7843L 3.95049 15.5651L 3.72759 16.022L 4.18816 16.2373L 4.39987 15.7843ZM 2.63992 15.8464L 2.71279 16.3411L 2.71686 16.3405L 2.63992 15.8464ZM 19.8578 15.3333L 20.3336 15.1798L 19.8578 15.3333ZM 19.2473 14.2431L 55.9862 6.12548L 55.7704 5.14903L 19.0316 13.2667L 19.2473 14.2431ZM 55.4514 5.89756C 55.9264 6.67648 56.2033 8.24997 56.2033 9.8652C 56.2038 10.6613 56.1396 11.4152 56.0069 12.0708C 55.8738 12.7321 55.687 13.1977 55.4904 13.4395L 56.2663 14.0703C 56.6197 13.6357 56.8453 12.9737 56.9872 12.268C 57.1295 11.5566 57.2028 10.7039 57.2033 9.8652C 57.2033 8.21082 56.9302 6.40195 56.3052 5.37695L 55.4514 5.89756ZM 55.7316 13.2769L 18.9927 24.5514L 19.2861 25.5074L 56.025 14.2329L 55.7316 13.2769ZM 19.3482 24.5751L 0.208757 15.781L -0.208757 16.6896L 18.9307 25.4837L 19.3482 24.5751ZM 56.0196 5.15763L 36.8802 -0.479628L 36.5976 0.479628L 55.7371 6.11688L 56.0196 5.15763ZM 36.6631 -0.494216L -0.075833 5.14304L 0.075833 6.13147L 36.8147 0.494216L 36.6631 -0.494216ZM 4.84925 12.8467C 5.05119 12.423 5.131 12.0152 5.11436 11.6763C 5.08954 11.337 4.98509 11.0063 4.87536 10.6689L 3.92438 10.9782C 4.03464 11.3172 4.10742 11.5252 4.11621 11.7371C 4.13317 11.9494 4.10299 12.1053 3.95049 12.4082L 4.84925 12.8467ZM 4.84925 13.9867C 4.68261 13.6451 4.66199 13.4554 4.67224 13.334C 4.67668 13.1832 4.73986 13.0709 4.84925 12.8467L 3.95049 12.4082C 3.83988 12.635 3.71192 12.9201 3.67579 13.2499C 3.64547 13.609 3.73485 13.983 3.95049 14.4251L 4.84925 13.9867ZM 19.3303 13.2928L 4.59075 7.20454L 4.20898 8.1288L 18.9485 14.217L 19.3303 13.2928ZM 4.60929 7.21264L 0.209419 5.18322L -0.209419 6.09129L 4.19045 8.1207L 4.60929 7.21264ZM 3.95049 7.88588C 4.10299 8.19851 4.10299 8.48776 3.95049 8.80039L 4.84925 9.23882C 5.13673 8.64949 5.13673 8.03678 4.84925 7.44745L 3.95049 7.88588ZM 19.5709 25.282C 19.8913 24.7313 20.1835 23.9652 20.4 23.1242L 19.4314 22.8758C 19.2303 23.6629 18.9893 24.2996 18.7079 24.7768L 19.5709 25.282ZM 18.9455 23.1343L 19.7218 23.4609L 20.1096 22.5391L 19.3333 22.2126L 18.9455 23.1343ZM 19.3511 22.2205L 4.61158 15.3313L 4.18816 16.2373L 18.9277 23.1264L 19.3511 22.2205ZM 0.0728653 16.73L 2.71279 16.3411L 2.56706 15.3518L -0.0728653 15.7406L 0.0728653 16.73ZM 4.84925 16.0035C 4.89282 15.9131 4.93662 15.7988 4.966 15.7011L 4.00733 15.4166C 3.98953 15.4779 3.97546 15.515 3.95049 15.5651L 4.84925 16.0035ZM 2.71686 16.3405L 4.56361 16.0529L 4.40973 15.0648L 2.56298 15.3524L 2.71686 16.3405ZM 4.19949 13.0855L 20.1805 20.0757L 20.5812 19.1596L 4.60024 12.1694L 4.19949 13.0855ZM 4.87536 10.6689C 4.8268 10.5201 4.79473 10.4016 4.771 10.2774L 3.78926 10.4677C 3.82042 10.6267 3.86817 10.8048 3.92438 10.9782L 4.87536 10.6689ZM 4.771 10.2774C 4.69187 9.89751 4.72139 9.6387 4.87536 9.17424L 3.92438 8.86498C 3.74313 9.43129 3.69283 9.94148 3.78926 10.4677L 4.771 10.2774ZM 20.8806 19.6335C 20.9095 18.7092 20.8615 17.7409 20.7202 16.8344L 19.7323 16.9891C 19.8667 17.843 19.9095 18.7179 19.8811 19.6018L 20.8806 19.6335ZM 4.09043 10.8352L 20.0366 17.3744L 20.416 16.4492L 4.46984 9.90994L 4.09043 10.8352ZM 4.966 15.7011C 5.06217 15.3648 5.08575 14.9275 5.03135 14.5763L 4.0444 14.7374C 4.08724 14.9821 4.07667 15.1952 4.00733 15.4166L 4.966 15.7011ZM 5.03135 14.5763C 4.9987 14.3826 4.93122 14.1585 4.84925 13.9867L 3.95049 14.4251C 3.99954 14.5218 4.02407 14.6064 4.0444 14.7374L 5.03135 14.5763ZM 20.4 23.1242C 20.5197 22.6569 20.6234 22.142 20.702 21.6178L 19.713 21.4699C 19.6384 21.9693 19.5449 22.4339 19.4314 22.8758L 20.4 23.1242ZM 20.702 21.6178C 20.7962 20.9864 20.859 20.3076 20.8806 19.6335L 19.8811 19.6018C 19.8609 20.2457 19.8034 20.8663 19.713 21.4699L 20.702 21.6178ZM 4.3367 15.1146L 20.0063 22.0016L 20.4086 21.0861L 4.73906 14.1991L 4.3367 15.1146ZM 20.7202 16.8344C 20.6316 16.2704 20.5014 15.7014 20.3336 15.1798L 19.3819 15.4868C 19.5372 15.9666 19.6496 16.4594 19.7323 16.9891L 20.7202 16.8344ZM 20.3336 15.1798C 20.14 14.5821 19.8771 13.9924 19.563 13.4892L 18.7158 14.0206C 18.9945 14.4625 19.206 14.9393 19.3819 15.4868L 20.3336 15.1798ZM 4.21081 9.48249L 19.6687 15.7962L 20.0468 14.8705L 4.58893 8.55673L 4.21081 9.48249Z"/>
<path id="path16_fill" d="M 11.806 1.76845L 51.0601 9.08331C 51.3345 8.92955 51.6026 8.76089 51.8637 8.57681C 51.8637 8.79891 51.8642 9.01766 51.8651 9.23331L 54 9.63115L 54 69.2014L 46.0068 67.4205C 45.6849 67.473 45.3988 67.4768 45.1684 67.4205L 45 70.4723C 45 70.4723 43.6154 70.4723 41.8585 68.4064L 41.7161 72.8916C 40.8462 71.161 39.8487 70.1887 35 69.5C 35.0002 69.5441 35.0003 69.5777 35.0004 69.603C 35.0007 69.6229 35.001 69.7449 35.0004 69.603C 35.0002 69.5903 35 69.6191 35 69.7837C 35 70.4723 36.1154 73.2269 37.5 74.6042C 35.4231 75.2929 29.0769 73.9156 28.7555 72.0854C 28.3846 71.8496 29.0836 72.8018 27.6923 74.6042C 26.8491 75.6967 25.6154 76.6702 24.9231 76.6702L 24.7413 72.8916C 23.5385 71.161 22.8462 70.4723 21.3685 69.7837C 21.6009 74.5342 21.8774 78.6018 22.1538 80.8021C 19.3846 80.1135 18.6923 79.4248 17.5655 78.0475L 17.7532 83.5567C 17.1129 83.9011 15.5572 83.9011 14.3885 82.1794L 14.4878 87L 0.00138274 69.2014L 0 2.29562C 0 -0.803328 8.52058 -0.547943 11.806 1.76845Z"/>
<path id="path17_stroke" d="M 13.1707 23.064L 13.6706 23.0537L 13.6699 23.0171L 13.6638 22.981L 13.1707 23.064ZM 54 9.63115L 54.5 9.63115L 54.5 9.21572L 54.0916 9.13962L 54 9.63115ZM 54 69.2014L 53.8913 69.6895L 54.5 69.8251L 54.5 69.2014L 54 69.2014ZM 9.6711 1.72359L 9.6568 1.2238L 9.51285 1.22792L 9.39314 1.30797L 9.6711 1.72359ZM 51.8637 8.57681L 52.3637 8.57681L 52.3637 7.61251L 51.5756 8.16816L 51.8637 8.57681ZM 51.2308 18.8233L 51.7161 18.9435L 51.7161 18.9435L 51.2308 18.8233ZM 49.8462 47.0581L 50.3462 47.0581L 50.3462 47.0372L 50.3444 47.0164L 49.8462 47.0581ZM 37.9775 8.57681L 38.1723 8.11632L 38.1723 8.11632L 37.9775 8.57681ZM 26.2277 5.94096L 26.0952 6.42308L 26.0952 6.42308L 26.2277 5.94096ZM 16.0801 3.3051L 16.2127 2.82282L 16.1999 2.81967L 16.0801 3.3051ZM 6.4666 1.72359L 6.48775 1.22404L 6.44459 1.22221L 6.40176 1.22781L 6.4666 1.72359ZM 0 2.29562L -0.5 2.29562L -0.5 2.29563L 0 2.29562ZM 14.4878 87L 14.1 87.3156L 15.0176 88.4431L 14.9877 86.9897L 14.4878 87ZM 0.00138274 69.2014L -0.498617 69.2014L -0.498614 69.3792L -0.386407 69.5171L 0.00138274 69.2014ZM 48.1251 13.8485L 48.6243 13.8761L 48.6587 13.254L 48.0439 13.3551L 48.1251 13.8485ZM 33.1708 13.8485L 33.2519 13.3551L 33.2437 13.3538L 33.2355 13.3527L 33.1708 13.8485ZM 43.4634 17.8447L 43.9632 17.8606L 43.9634 17.8526L 43.9634 17.8447L 43.4634 17.8447ZM 26.2277 15.2351L 25.7659 15.4268L 25.7659 15.4268L 26.2277 15.2351ZM 36.6948 18.5931L 37.146 18.8087L 37.6526 17.7487L 36.5375 18.1185L 36.6948 18.5931ZM 12.5122 19.1495L 12.5988 18.6571L 11.7336 18.505L 12.0446 19.3265L 12.5122 19.1495ZM 10.89 14.6914L 10.4737 14.9683L 10.4737 14.9683L 10.89 14.6914ZM 21.4615 23.6439L 21.9595 23.6894L 21.9956 23.2942L 21.6189 23.1693L 21.4615 23.6439ZM 20.7692 47.7467L 21.2692 47.7467L 21.2692 47.711L 21.2642 47.6757L 20.7692 47.7467ZM 12.5122 13.3141L 12.7766 12.8897L 12.7541 12.8757L 12.7303 12.8642L 12.5122 13.3141ZM 17.7532 18.5931L 18.251 18.5464L 18.2476 18.5104L 18.2391 18.4751L 17.7532 18.5931ZM 6.4666 7.1162L 6.84757 6.79237L 6.82811 6.76948L 6.80605 6.74908L 6.4666 7.1162ZM 14.5385 10.5595L 14.3461 11.021L 14.3461 11.021L 14.5385 10.5595ZM 21.4615 16.0687L 21.2852 16.5366L 21.3039 16.5436L 21.3232 16.5492L 21.4615 16.0687ZM 9.6711 7.80485L 9.37748 8.20956L 9.6711 7.80485ZM 17.7532 9.63115L 18.0388 9.22074L 18.0123 9.20231L 17.9837 9.18744L 17.7532 9.63115ZM 25.4452 10.5595L 25.5593 10.0726L 25.5593 10.0726L 25.4452 10.5595ZM 15.5404 18.5931L 16.0398 18.5675L 16.0398 18.5675L 15.5404 18.5931ZM 14.3885 82.1794L 13.8886 82.1897L 13.8886 82.1897L 14.3885 82.1794ZM 17.7532 83.5567L 17.99 83.9971L 18.2635 83.85L 18.2529 83.5397L 17.7532 83.5567ZM 22.1538 80.8021L 22.0332 81.2873L 22.7409 81.4633L 22.6499 80.7398L 22.1538 80.8021ZM 22.8462 19.1495L 22.9688 18.6648L 22.323 18.5014L 22.3465 19.1671L 22.8462 19.1495ZM 27.6923 74.6042L 28.0881 74.9098L 28.0881 74.9098L 27.6923 74.6042ZM 24.9231 76.6702L 24.4237 76.6942L 24.4466 77.1702L 24.9231 77.1702L 24.9231 76.6702ZM 21.3685 69.7837L 20.8691 69.8081L 20.8691 69.8081L 21.3685 69.7837ZM 37.5 74.6042L 37.6574 75.0788L 38.4289 74.823L 37.8526 74.2497L 37.5 74.6042ZM 41.7161 72.8916L 41.2694 73.1162L 42.2158 72.9075L 41.7161 72.8916ZM 41.8585 68.4064L 41.3587 68.3905L 41.3587 68.3905L 41.8585 68.4064ZM 45 70.4723L 45 70.9723L 45.4732 70.9723L 45.4992 70.4999L 45 70.4723ZM 50.5385 64.9631L 50.9943 65.1684L 51.0658 65.0099L 51.0234 64.8412L 50.5385 64.9631ZM 46.0068 67.4205L 45.9263 66.9271L 45.9263 66.9271L 46.0068 67.4205ZM 0.169902 3.57362L 12.749 23.3325L 13.5925 22.7954L 1.01346 3.03659L 0.169902 3.57362ZM 11.7145 2.25998L 50.9685 9.57485L 51.1517 8.59177L 11.8976 1.27691L 11.7145 2.25998ZM 50.9685 9.57485L 51.7735 9.72485L 51.9567 8.74178L 51.1517 8.59177L 50.9685 9.57485ZM 51.7735 9.72485L 53.9084 10.1227L 54.0916 9.13962L 51.9567 8.74178L 51.7735 9.72485ZM 53.5 9.63115L 53.5 69.2014L 54.5 69.2014L 54.5 9.63115L 53.5 9.63115ZM 9.6854 2.22339C 10.2467 2.20688 10.4241 2.21717 10.6429 2.23233C 10.8623 2.2475 11.1221 2.26804 11.806 2.26845L 11.806 1.26845C 11.1623 1.26885 10.937 1.2503 10.712 1.23471C 10.4864 1.21911 10.2602 1.20697 9.6568 1.2238L 9.6854 2.22339ZM 51.3637 8.57681C 51.3637 8.79951 51.3642 9.01927 51.3651 9.23531L 52.3651 9.23131C 52.3642 9.01606 52.3637 8.79831 52.3637 8.57681L 51.3637 8.57681ZM 51.3651 9.23531C 51.38 12.9599 51.4967 15.6913 50.7454 18.7031L 51.7161 18.9435C 52.4916 15.7921 52.3798 12.9375 52.3651 9.23132L 51.3651 9.23531ZM 50.7454 18.7031C 50.3285 20.3862 49.808 25.4269 49.4768 31.035C 49.1446 36.6621 49.0002 42.9413 49.3479 47.0998L 50.3444 47.0164C 49.9998 42.9111 50.1438 36.7031 50.4751 31.0939C 50.8074 25.4656 51.3254 20.5208 51.7161 18.9435L 50.7454 18.7031ZM 37.7827 9.0373C 42.4725 11.0212 47.448 11.6802 51.3045 9.51951L 50.8157 8.64711C 47.3616 10.5824 42.7558 10.0552 38.1723 8.11632L 37.7827 9.0373ZM 51.3045 9.51951C 51.59 9.35938 51.8799 9.17696 52.1518 8.98546L 51.5756 8.16816C 51.3253 8.34483 51.0791 8.49971 50.8157 8.64711L 51.3045 9.51951ZM 26.0952 6.42308C 27.9014 6.91836 29.9294 7.18637 31.9477 7.52444C 33.9663 7.86242 35.9605 8.26372 37.7827 9.0373L 38.1723 8.11632C 36.256 7.30838 34.1481 6.87909 32.1129 6.53818C 30.0773 6.19736 28.0997 5.9382 26.3602 5.45884L 26.0952 6.42308ZM 9.55131 2.20903L 15.9603 3.79054L 16.1999 2.81967L 9.79089 1.23815L 9.55131 2.20903ZM 15.9476 3.78722C 18.4572 4.47701 23.599 5.7369 26.0952 6.42308L 26.3602 5.45884C 23.8506 4.76905 18.7087 3.50916 16.2126 2.82299L 15.9476 3.78722ZM 6.44545 2.22314C 7.05254 2.24643 7.62037 2.38629 8.17965 2.45527C 8.74513 2.52412 9.36912 2.52705 9.94905 2.13921L 9.39314 1.30797C 9.11772 1.49216 8.79546 1.52286 8.30053 1.4626C 7.79941 1.40245 7.19266 1.2563 6.48775 1.22404L 6.44545 2.22314ZM 5.81793 2.52283C 5.94004 2.33455 5.99601 2.31287 6.0235 2.30185C 6.10579 2.26886 6.19961 2.26277 6.53144 2.21937L 6.40176 1.22781C 6.17422 1.25757 5.88689 1.27925 5.65141 1.37365C 5.36113 1.49002 5.1627 1.69534 4.97893 1.9787L 5.81793 2.52283ZM 3.98285 2.64988C 4.0514 2.5816 4.1682 2.54351 4.47494 2.60301C 4.61993 2.63069 4.77364 2.67446 4.92952 2.7097C 5.06201 2.7395 5.29392 2.78912 5.51319 2.73742L 5.28368 1.76411C 5.31826 1.75596 5.30159 1.7684 5.1489 1.73407C 5.01959 1.70518 4.85152 1.65788 4.6654 1.62132C 4.30991 1.55235 3.7272 1.49313 3.27717 1.94135L 3.98285 2.64988ZM 3.1948 2.95712C 3.2829 2.72764 3.34155 2.65299 3.35349 2.64057C 3.3546 2.63941 3.33487 2.66011 3.29175 2.6768C 3.24593 2.69454 3.20113 2.69718 3.16811 2.69358C 3.14104 2.69063 3.12917 2.68416 3.14463 2.69025C 3.16297 2.69715 3.19088 2.71068 3.23449 2.72933C 3.30666 2.75998 3.53113 2.85772 3.79157 2.76879L 3.46845 1.82243C 3.59491 1.77926 3.68756 1.8353 3.62539 1.8089C 3.61801 1.80577 3.44476 1.71782 3.2765 1.69948C 3.03517 1.67316 2.8105 1.76245 2.63256 1.94756C 2.4813 2.10492 2.36484 2.32883 2.26123 2.59874L 3.1948 2.95712ZM 0.942926 2.94925C 0.57925 2.59029 0.506249 2.39562 0.499247 2.26818L -0.499247 2.32305C -0.471236 2.8328 -0.172661 3.2532 0.24044 3.66095L 0.942926 2.94925ZM 0.5 2.29562C 0.5 1.80609 0.81955 1.3756 1.58476 1.03748C 2.34855 0.699984 3.44086 0.517774 4.67766 0.501237C 7.16383 0.467994 9.99524 1.10353 11.5179 2.17709L 12.0942 1.3598C 10.3314 0.116978 7.25978 -0.533378 4.66429 -0.498674C 3.36026 -0.481238 2.11709 -0.291017 1.18059 0.122796C 0.245523 0.535976 -0.5 1.23568 -0.5 2.29562L 0.5 2.29562ZM 14.8756 86.6844L 0.389172 68.8858L -0.386407 69.5171L 14.1 87.3156L 14.8756 86.6844ZM -0.5 2.29563L -0.498617 69.2014L 0.501383 69.2014L 0.5 2.29561L -0.5 2.29563ZM 6.27869 2.18694C 13.8036 5.23778 19.8481 6.89847 24.2572 7.95374C 26.4646 8.48196 28.2639 8.85955 29.6397 9.18563C 31.0423 9.51803 31.9229 9.78046 32.3756 10.0576L 32.8977 9.2047C 32.2823 8.82801 31.2319 8.53525 29.8703 8.21258C 28.4819 7.8836 26.6837 7.50626 24.49 6.98121C 20.0969 5.92992 14.1245 4.29066 6.65451 1.26025L 6.27869 2.18694ZM 32.3756 10.0576C 33.5054 10.7491 36.6337 11.9505 39.8373 12.907C 41.4487 13.388 43.1098 13.8155 44.5616 14.0873C 46.0009 14.3566 47.3115 14.4891 48.2063 14.3419L 48.0439 13.3551C 47.3365 13.4715 46.1769 13.3721 44.7455 13.1044C 43.3266 12.8392 41.7164 12.4245 40.1234 11.9488C 36.9179 10.9917 33.9043 9.82085 32.8977 9.2047L 32.3756 10.0576ZM 33.0896 14.3419C 34.6873 14.6047 37.2272 15.0696 39.3715 15.7314C 40.4406 16.0605 41.3703 16.421 42.047 16.8326C 42.7491 17.2574 42.9634 17.6084 42.9634 17.8447L 43.9634 17.8447C 43.9634 17.0267 43.2917 16.4169 42.5646 15.977C 41.8122 15.524 40.7696 15.1162 39.666 14.7757C 37.4651 14.0983 34.8587 13.6195 33.2519 13.3551L 33.0896 14.3419ZM 25.7659 15.4268C 25.901 15.7523 26.1761 16.0362 26.4798 16.2776C 26.7839 16.5183 27.1892 16.7706 27.6309 17.0027C 28.5062 17.4612 29.6393 17.9101 30.7914 18.2743C 31.9432 18.6378 33.1603 18.9319 34.207 19.0879C 35.2345 19.2406 36.2104 19.2805 36.8522 19.0676L 36.5375 18.1185C 36.1409 18.25 35.3756 18.2506 34.354 18.0988C 33.3515 17.9503 32.2115 17.6744 31.0926 17.3207C 29.9741 16.9678 28.9231 16.5523 28.0955 16.1172C 27.6856 15.9025 27.3598 15.7008 27.1022 15.4949C 26.8443 15.2899 26.7274 15.1347 26.6894 15.0433L 25.7659 15.4268ZM 36.2437 18.3774C 35.1366 20.6938 34.2486 25.2475 33.6362 29.6543C 33.0205 34.0867 32.6712 38.4802 32.6708 40.5L 33.6708 40.5C 33.6704 38.5198 34.0146 34.1953 34.6267 29.7919C 35.2421 25.363 36.1161 20.9633 37.146 18.8087L 36.2437 18.3774ZM 0.846469 3.73532C 0.903193 3.70172 0.951375 3.65933 0.967633 3.64523C 0.991371 3.6246 1.01498 3.6032 1.03705 3.58391C 1.08268 3.54398 1.11619 3.51793 1.14263 3.50219C 1.17229 3.48453 1.1564 3.50211 1.1061 3.50276C 1.07709 3.50313 1.04389 3.49758 1.01187 3.48379C 0.980541 3.4703 0.963081 3.45443 0.957847 3.44902L 1.6763 2.75345C 1.51686 2.58877 1.31299 2.50002 1.09324 2.50284C 0.928776 2.51336 0.732468 2.58436 0.631014 2.64298C 0.531726 2.70383 0.434498 2.78243 0.378465 2.83141C 0.349715 2.85659 0.327765 2.87652 0.312406 2.8898C 0.289566 2.90961 0.305118 2.89371 0.336896 2.87489L 0.846469 3.73532ZM 12.0446 19.3265C 12.3588 20.15 12.4458 20.6793 12.4939 21.2297C 12.5426 21.7779 12.5439 22.3412 12.6777 23.1469L 13.6638 22.981C 13.5404 22.258 13.5417 21.734 13.49 21.1421C 13.4378 20.5524 13.3241 19.8888 12.9798 18.9725L 12.0446 19.3265ZM 0.921848 3.4075C 4.41775 7.91875 6.69446 10.6384 8.15547 12.3191C 8.88791 13.1617 9.41717 13.7454 9.79206 14.1628C 10.1659 14.579 10.3677 14.8068 10.4737 14.9683L 11.3064 14.4145C 11.1614 14.1985 10.9135 13.9148 10.536 13.4945C 10.1595 13.0754 9.63571 12.4977 8.91018 11.6631C 7.45524 9.98939 5.1965 7.29141 1.7123 2.79497L 0.921848 3.4075ZM 1.79648 3.24325C 1.81967 3.16498 1.83726 3.1299 1.84262 3.12064C 1.84897 3.10967 1.82809 3.15179 1.76254 3.19081C 1.68407 3.23752 1.59201 3.24999 1.51241 3.23511C 1.47835 3.22874 1.45321 3.21868 1.43829 3.21162C 1.42346 3.20459 1.4149 3.19874 1.41317 3.19753C 1.39695 3.19023 1.46355 3.24658 1.5302 3.30748C 1.55173 3.32684 1.64137 3.41057 1.76831 3.45358C 1.84479 3.4795 1.96786 3.50226 2.10763 3.45732C 2.25104 3.41121 2.34265 3.31628 2.3946 3.2365L 1.55662 2.69081C 1.59624 2.62997 1.67378 2.5464 1.80152 2.50532C 1.92563 2.46542 2.03144 2.4869 2.08923 2.50648C 2.17878 2.53682 2.22528 2.58768 2.19908 2.56411C 2.18612 2.55274 2.1649 2.53101 2.13131 2.49898C 2.09798 2.46738 2.03957 2.41628 1.98448 2.3768C 1.92391 2.33463 1.82526 2.27627 1.69618 2.25214C 1.55216 2.22522 1.39469 2.24601 1.25101 2.33154C 1.00869 2.4758 0.900579 2.74684 0.837665 2.95922L 1.79648 3.24325ZM 2.47024 3.03672C 2.48645 2.92702 2.50315 3.004 2.39897 3.07423C 2.28941 3.14808 2.19475 3.11513 2.21938 3.12168C 2.24459 3.12839 2.27676 3.14349 2.36257 3.18454C 2.39955 3.20222 2.45824 3.22854 2.50937 3.24648C 2.53991 3.25673 2.58974 3.27153 2.65014 3.27792C 2.70744 3.28397 2.81423 3.28693 2.93159 3.23462L 2.52444 2.32125C 2.62818 2.27501 2.71794 2.27951 2.75525 2.28345C 2.79564 2.28772 2.8225 2.29675 2.82752 2.29844C 2.82741 2.29762 2.8251 2.29729 2.79414 2.28246C 2.73064 2.25211 2.60657 2.19265 2.47653 2.15531C 2.33901 2.11871 2.08285 2.08133 1.83999 2.24504C 1.60251 2.40514 1.51411 2.66627 1.48098 2.89059L 2.47024 3.03672ZM 20.9636 23.5984C 20.2728 31.1576 19.572 42.9276 20.2743 47.8178L 21.2642 47.6757C 20.5818 42.9247 21.2657 31.2806 21.9595 23.6894L 20.9636 23.5984ZM 12.2478 13.7384C 14.3526 15.05 15.5007 15.8814 16.1809 16.5931C 16.8496 17.2791 17.0535 17.8253 17.2673 18.711L 18.2391 18.4751C 18.0074 17.5251 17.693 16.7418 16.9038 15.9022C 16.1259 15.0883 14.8763 14.1981 12.7766 12.8897L 12.2478 13.7384ZM 17.2554 18.6397C 17.5186 21.4508 19.0185 23.3606 21.3042 24.1185L 21.6189 23.1693C 19.7507 22.5499 18.4814 21.007 18.251 18.5464L 17.2554 18.6397ZM 1.63616 3.33077L 6.12715 7.48331L 6.80605 6.74908L 2.31506 2.59654L 1.63616 3.33077ZM 6.08563 7.44003C 6.75303 8.22384 7.55307 9.42755 8.55505 10.6248C 9.55601 11.8188 10.8038 13.0342 12.2941 13.764L 12.7303 12.8642C 11.3795 12.2166 10.2903 11.1399 9.32162 9.98267C 8.35397 8.82875 7.55177 7.62217 6.84757 6.79237L 6.08563 7.44003ZM 14.3461 11.021C 16.724 12.0121 17.5193 12.996 18.153 13.8889C 18.4858 14.3576 18.8048 14.8474 19.2663 15.3048C 19.7235 15.7508 20.3656 16.1862 21.2852 16.5366L 21.6379 15.6008C 20.8267 15.2988 20.3577 14.9776 19.9668 14.5911C 19.5802 14.216 19.3141 13.7974 18.9685 13.3101C 18.2452 12.2911 17.3097 11.1728 14.7308 10.0979L 14.3461 11.021ZM 2.4344 3.18264C 4.34532 4.56899 5.12628 5.13302 5.90681 5.69673C 6.68734 6.26045 7.46744 6.82384 9.37748 8.20956L 9.96471 7.40014C 8.0538 6.01379 7.27283 5.44977 6.4923 4.88605C 5.71177 4.32234 4.93167 3.75894 3.02163 2.37322L 2.4344 3.18264ZM 9.37748 8.20956C 10.5763 9.07917 11.087 9.47985 11.6689 9.81712C 12.2502 10.1512 12.893 10.4153 14.3461 11.021L 14.7308 10.0979C 13.2746 9.49101 12.6904 9.25329 12.1687 8.95096C 11.6477 8.65182 11.1794 8.28149 9.96471 7.40014L 9.37748 8.20956ZM 3.39955 2.73933L 17.5227 10.0749L 17.9837 9.18744L 3.86048 1.8519L 3.39955 2.73933ZM 17.4676 10.0416C 18.0759 10.4636 18.8625 10.8717 19.687 11.2718C 20.5108 11.6715 21.3904 12.0742 22.2264 12.5053C 23.9374 13.3874 25.3034 14.3129 25.7659 15.4268L 26.6894 15.0433C 26.0684 13.5476 24.359 12.4797 22.6846 11.6164C 21.8278 11.1749 20.9373 10.767 20.1235 10.3721C 19.3106 9.97766 18.5923 9.60723 18.0388 9.22074L 17.4676 10.0416ZM 5.204 2.71141C 10.9621 5.14183 15.1486 7.02517 18.3109 8.39907C 21.4763 9.77421 23.6484 10.6505 25.3312 11.0463L 25.5593 10.0726C 23.9507 9.6973 21.8629 8.85197 18.7094 7.48189C 15.553 6.11058 11.3617 4.22513 5.59287 1.79012L 5.204 2.71141ZM 25.3312 11.0463C 26.7387 11.3717 28.0933 12.0993 29.3981 12.8013C 30.6696 13.4855 31.9597 14.1947 33.106 14.3443L 33.2355 13.3527C 32.3145 13.2325 31.2115 12.6415 29.8719 11.9207C 28.5656 11.2179 27.0911 10.4359 25.5593 10.0726L 25.3312 11.0463ZM 10.4737 14.9683C 10.752 15.3867 11.2122 15.7891 11.6944 16.155C 12.1832 16.5256 12.7447 16.8957 13.2651 17.2411C 13.7855 17.5865 14.259 17.9029 14.6067 18.1881C 14.7769 18.327 14.8914 18.4334 14.976 18.54C 15.0601 18.6444 15.0435 18.6653 15.0411 18.6187L 16.0398 18.5675C 16.026 18.298 15.884 18.073 15.7542 17.9121C 15.6247 17.7534 15.4363 17.5752 15.24 17.4142C 14.8545 17.0995 14.3401 16.7544 13.8181 16.4079C 13.2962 16.0615 12.7608 15.7093 12.2989 15.3585C 11.8305 15.003 11.4861 14.6847 11.3064 14.4145L 10.4737 14.9683ZM 15.0411 18.6186C 15.0413 18.6215 15.0412 18.6199 15.0412 18.6226L 16.0411 18.6059C 16.0409 18.5946 16.0404 18.5789 16.0398 18.5675L 15.0411 18.6186ZM 15.0412 18.6226C 15.0414 18.6314 15.0449 18.6269 15.0331 18.6378C 15.006 18.6628 14.9226 18.7179 14.7256 18.76C 14.3285 18.8449 13.6447 18.8409 12.5988 18.6571L 12.4256 19.642C 13.5123 19.833 14.348 19.8634 14.9347 19.7379C 15.2296 19.6749 15.5042 19.5636 15.711 19.373C 15.9329 19.1684 16.046 18.8991 16.0411 18.606L 15.0412 18.6226ZM 12.6708 23.0743L 13.8886 82.1897L 14.8884 82.1691L 13.6706 23.0537L 12.6708 23.0743ZM 13.8886 82.1897L 13.9879 87.0103L 14.9877 86.9897L 14.8884 82.1691L 13.8886 82.1897ZM 17.5164 83.1164C 17.127 83.3258 15.8436 83.4327 14.8022 81.8986L 13.9748 82.4603C 15.2708 84.3694 17.0989 84.4763 17.99 83.9971L 17.5164 83.1164ZM 15.0415 18.6313L 17.0658 78.0645L 18.0653 78.0305L 16.0409 18.5972L 15.0415 18.6313ZM 17.0658 78.0645L 17.2535 83.5738L 18.2529 83.5397L 18.0653 78.0305L 17.0658 78.0645ZM 22.2745 80.3169C 20.9223 79.9818 20.134 79.6696 19.5169 79.2642C 18.9109 78.8746 18.5101 78.4126 17.9525 77.7309L 17.1785 78.3641C 17.7477 79.0597 18.2565 79.6307 18.9707 80.1019C 19.6737 80.5574 20.6161 80.9338 22.0332 81.2873L 22.2745 80.3169ZM 21.3232 16.5492C 22.6982 16.9451 24.1628 17.3942 25.3096 17.8325C 25.8798 18.0502 26.3464 18.2538 26.6907 18.4493C 26.8574 18.5432 26.9646 18.6145 27.0491 18.6905C 27.1328 18.7643 27.1127 18.7753 27.098 18.7184L 28.066 18.4677C 28.0058 18.2353 27.8466 18.0606 27.7108 17.9407C 27.5758 17.823 27.3831 17.6925 27.1831 17.5789C 26.7937 17.3594 26.2588 17.1248 25.6664 16.8984C 24.488 16.4486 22.9833 15.9866 21.5999 15.5882L 21.3232 16.5492ZM 27.098 18.7184C 27.0892 18.6845 27.0873 18.6435 27.0966 18.602L 28.0726 18.8198C 28.0905 18.7236 28.0879 18.5663 28.066 18.4677L 27.098 18.7184ZM 27.0966 18.602C 27.1148 18.5205 27.1586 18.5027 27.1192 18.5326C 27.0671 18.5746 27.0105 18.6019 26.8885 18.6459C 26.6277 18.7436 26.2857 18.812 25.8497 18.8555C 24.9639 18.9463 23.9013 18.9035 22.9688 18.6648L 22.7235 19.6342C 23.7571 19.893 24.9934 19.9458 25.9502 19.8504C 26.4355 19.8007 26.9007 19.7056 27.2343 19.5843C 27.4096 19.5188 27.597 19.4227 27.7234 19.3294C 27.8625 19.2239 28.0193 19.0587 28.0726 18.8198L 27.0966 18.602ZM 27.2965 74.2987C 26.8957 74.8197 26.4232 75.2897 25.9487 75.6487C 25.4548 76.0237 25.09 76.1702 24.9231 76.1702L 24.9231 77.1702C 25.4485 77.1702 26.0466 76.8299 26.5535 76.4451C 27.0797 76.0441 27.6457 75.4812 28.0881 74.9098L 27.2965 74.2987ZM 22.3465 19.1671L 24.2416 72.9092L 25.241 72.874L 23.3458 19.1319L 22.3465 19.1671ZM 24.2418 72.9157L 24.4237 76.6942L 25.4225 76.6462L 25.2407 72.8676L 24.2418 72.9157ZM 20.2692 47.7467C 20.2693 53.9582 20.5194 62.6589 20.8691 69.8081L 21.8679 69.7592C 21.5186 62.6201 21.2692 53.9438 21.2692 47.7467L 20.2692 47.7467ZM 20.8691 69.8081C 21.1017 74.5634 21.3797 78.65 21.6577 80.8645L 22.6499 80.7398C 22.375 78.5537 22.1 74.505 21.8679 69.7592L 20.8691 69.8081ZM 25.1518 72.6063C 23.9216 70.8397 23.1324 70.0623 21.5797 69.3305L 21.1573 70.2369C 22.56 70.8823 23.1553 71.4822 24.3307 73.177L 25.1518 72.6063ZM 34.5 69.7837C 34.5 70.045 34.5952 70.4147 34.7218 70.7926C 34.8531 71.1835 35.0472 71.6637 35.2795 72.1511C 35.7426 73.12 36.4146 74.2245 37.1474 74.9587L 37.8526 74.2497C 37.2008 73.6066 36.6227 72.6452 36.182 71.7203C 35.9624 71.2608 35.7912 70.8371 35.67 70.4748C 35.5442 70.0995 35.5 69.8667 35.5 69.7837L 34.5 69.7837ZM 27.0821 18.604L 27.0847 18.7219L 28.0845 18.6999L 28.0819 18.5821L 27.0821 18.604ZM 27.0847 18.7219L 28.2556 72.0963L 29.2553 72.0744L 28.0845 18.6999L 27.0847 18.7219ZM 29.0237 71.6634C 28.9839 71.6385 28.9148 71.6029 28.865 71.5838C 28.8034 71.5619 28.6575 71.5206 28.4884 71.5825C 28.3001 71.6515 28.212 71.7986 28.1759 71.8869C 28.1544 71.9464 28.1358 72.0336 28.131 72.0767C 28.1249 72.1443 28.1246 72.2231 28.1231 72.2929C 28.1216 72.365 28.1192 72.4367 28.1093 72.5283C 28.0735 72.8698 27.9356 73.4707 27.2965 74.2987L 28.0881 74.9098C 28.8403 73.9353 29.0486 73.159 29.1038 72.6327C 29.1167 72.5073 29.1211 72.394 29.1228 72.3141C 29.1245 72.232 29.1284 72.1587 29.1261 72.1754C 29.1261 72.1761 29.1217 72.203 29.1227 72.1965C 29.1203 72.2086 29.1146 72.2334 29.1018 72.2648C 29.0759 72.3283 29.0016 72.4595 28.8324 72.5215C 28.6824 72.5764 28.5609 72.537 28.5304 72.5262C 28.4936 72.5131 28.4756 72.4999 28.4872 72.5073L 29.0237 71.6634ZM 37.3426 74.1296C 36.9178 74.2705 36.2108 74.3194 35.3367 74.2597C 34.4684 74.201 33.5159 74.0437 32.5944 73.8052C 31.6742 73.5682 30.8458 73.2689 30.2092 72.9114C 29.5476 72.5418 29.2853 72.2118 29.2479 71.9989L 28.263 72.1719C 28.3863 72.874 29.0379 73.4025 29.7215 73.7844C 30.4301 74.1784 31.3784 74.5235 32.3444 74.7735C 33.3093 75.0221 34.3528 75.1943 35.2686 75.2574C 36.1786 75.3195 37.0438 75.2823 37.6574 75.0788L 37.3426 74.1296ZM 32.6708 40.5C 32.6708 51.7574 32.8788 58.7533 33.2119 63.0659C 33.3793 65.2301 33.5814 66.745 33.8036 67.7769C 34.024 68.7988 34.2843 69.4582 34.631 69.8374L 35.369 69.1626C 35.2157 68.9949 34.9973 68.5684 34.7811 67.566C 34.5665 66.5734 34.3738 65.1255 34.2089 62.9889C 33.8774 58.6999 33.6707 51.7426 33.6708 40.5L 32.6708 40.5ZM 34.5 69.5019C 34.5002 69.546 34.5003 69.5797 34.5004 69.605L 35.5004 69.601C 35.5003 69.5757 35.5002 69.5422 35.5 69.4981L 34.5 69.5019ZM 34.5004 69.6051C 34.5006 69.6407 34.5006 69.6603 34.5007 69.6688C 34.5007 69.6712 34.5007 69.6735 34.5007 69.6749C 34.5008 69.6762 34.5008 69.68 34.5009 69.6829C 34.5009 69.685 34.5012 69.6918 34.5014 69.6965C 34.5017 69.7025 34.5038 69.7256 34.506 69.7428C 34.5117 69.7749 34.6725 70.0479 34.9325 70.166C 35.2717 70.0909 35.4892 69.7777 35.4957 69.7418C 35.4979 69.7235 35.4999 69.6991 35.5002 69.693C 35.5004 69.6899 35.5005 69.6851 35.5006 69.6832C 35.5006 69.6811 35.5007 69.6779 35.5007 69.6767C 35.5007 69.6729 35.5007 69.6667 35.5007 69.6625C 35.5007 69.6468 35.5005 69.608 35.5003 69.5952L 34.5005 69.6108C 34.5003 69.6037 34.5007 69.65 34.5007 69.6648C 34.5007 69.6682 34.5008 69.6619 34.5008 69.6645C 34.5008 69.6656 34.5009 69.6561 34.5009 69.6581C 34.5008 69.6599 34.5014 69.6454 34.5012 69.6484C 34.5013 69.646 34.5017 69.6399 34.5019 69.6362C 34.5024 69.6301 34.5042 69.6118 34.5058 69.5996C 34.5123 69.5637 34.7298 69.2505 35.0689 69.1754C 35.329 69.2936 35.4898 69.5665 35.4955 69.5987C 35.497 69.61 35.4988 69.6273 35.4993 69.6331C 35.4996 69.6366 35.4999 69.6425 35.5001 69.6449C 35.4998 69.6401 35.5006 69.6605 35.5006 69.6584C 35.5005 69.6558 35.5007 69.6653 35.5007 69.6648C 35.5007 69.665 35.5007 69.6643 35.5007 69.6625C 35.5006 69.6547 35.5005 69.6362 35.5004 69.6009L 34.5004 69.6051ZM 35.5003 69.5953C 35.5003 69.5935 35.5002 69.5899 35.5002 69.5875C 35.5001 69.5855 35.4999 69.5802 35.4998 69.5768C 35.4996 69.5739 35.4992 69.5663 35.4988 69.5615C 35.498 69.5522 35.4931 69.5158 35.4877 69.4889C 35.4836 69.4721 35.4686 69.4251 35.4564 69.3954C 35.4441 69.37 35.4053 69.3071 35.3768 69.2714C 35.3215 69.2172 35.1485 69.1228 35.0299 69.1013C 34.903 69.1099 34.7075 69.1951 34.6415 69.2522C 34.6077 69.2907 34.5622 69.3595 34.5479 69.3874C 34.5342 69.4194 34.5176 69.4699 34.5132 69.4878C 34.5076 69.5156 34.5025 69.5533 34.5017 69.563C 34.5012 69.5707 34.5007 69.5818 34.5005 69.5854C 34.5004 69.5887 34.5003 69.5937 34.5003 69.596C 34.5002 69.6014 34.5002 69.6116 34.5001 69.6254C 34.5001 69.652 34.5 69.7011 34.5 69.7837L 35.5 69.7837C 35.5 69.7016 35.5001 69.654 35.5001 69.6283C 35.5002 69.616 35.5002 69.6079 35.5002 69.6094C 35.5002 69.6089 35.5 69.6189 35.5001 69.6164C 35.5002 69.6132 35.4984 69.6454 35.4989 69.6379C 35.4992 69.6341 35.4965 69.6626 35.4971 69.657C 35.4966 69.6614 35.4941 69.6843 35.4875 69.713C 35.4852 69.7229 35.4757 69.7644 35.4527 69.8133C 35.4385 69.8412 35.3929 69.91 35.3591 69.9486C 35.2932 70.0056 35.0977 70.0908 34.9707 70.0995C 34.8521 70.0779 34.6791 69.9836 34.6238 69.9294C 34.5954 69.8936 34.5566 69.8308 34.5443 69.8053C 34.5239 69.7599 34.5152 69.7219 34.5129 69.7118C 34.5066 69.6845 34.5042 69.6626 34.5037 69.658C 34.5043 69.6636 34.5016 69.6357 34.5019 69.6394C 34.5022 69.6441 34.5008 69.6217 34.5009 69.6245C 34.5011 69.6276 34.5005 69.6133 34.5006 69.6148C 34.5006 69.6164 34.5005 69.6105 34.5005 69.6107L 35.5003 69.5953ZM 42.1628 72.6671C 41.7112 71.7713 41.1516 70.9815 40.0963 70.3699C 39.0472 69.7763 37.5082 69.3512 35.0703 69.005L 34.9297 69.995C 37.3405 70.3374 38.7246 70.7428 39.6039 71.2402C 40.4769 71.7196 40.851 72.2813 41.2694 73.1162L 42.1628 72.6671ZM 42.9637 17.8288L 41.3587 68.3905L 42.3582 68.4222L 43.9632 17.8606L 42.9637 17.8288ZM 41.3587 68.3905L 41.2163 72.8758L 42.2158 72.9075L 42.3582 68.4222L 41.3587 68.3905ZM 45 70.4723C 45 69.9723 45.0004 69.9723 45.0007 69.9723C 45.0008 69.9723 45.0012 69.9723 45.0014 69.9723C 45.0012 69.9723 45.0031 69.9723 45.0027 69.9723C 45.0023 69.9723 45.0055 69.9723 45.0048 69.9723C 45.0045 69.9723 45.0084 69.9724 45.0078 69.9724C 45.0084 69.9724 45.0091 69.9725 45.0079 69.9724C 45.0014 69.9721 44.998 69.9719 44.9857 69.9706C 44.9529 69.9675 44.918 69.9631 44.8567 69.9502C 44.7174 69.922 44.5434 69.8739 44.2957 69.7592C 43.8024 69.5341 43.0747 69.0647 42.2393 68.0824L 41.4776 68.7303C 42.3992 69.814 43.2422 70.3776 43.8805 70.6689C 44.1985 70.8125 44.4805 70.8935 44.6557 70.9298C 44.7517 70.9492 44.8386 70.961 44.8884 70.9659C 44.9174 70.9687 44.9455 70.9705 44.9602 70.9712C 44.9695 70.9717 44.9795 70.972 44.9842 70.9721C 44.9875 70.9722 44.9915 70.9723 44.9931 70.9723C 44.9944 70.9723 44.9962 70.9723 44.9968 70.9723C 44.9974 70.9723 44.9982 70.9723 44.9985 70.9723C 44.9987 70.9723 44.9991 70.9723 44.9993 70.9723C 44.9996 70.9723 45 70.9723 45 70.4723ZM 49.3462 47.0581C 49.3462 50.4198 49.3462 54.214 49.4329 57.512C 49.519 60.7886 49.6913 63.6435 50.0535 65.085L 51.0234 64.8412C 50.6933 63.528 50.5195 60.7922 50.4325 57.4857C 50.3461 54.2008 50.3462 50.4198 50.3462 47.0581L 49.3462 47.0581ZM 47.6258 13.821L 44.6692 67.393L 45.6677 67.4481L 48.6243 13.8761L 47.6258 13.821ZM 44.6692 67.393L 44.5008 70.4448L 45.4992 70.4999L 45.6677 67.4481L 44.6692 67.393ZM 50.0826 64.7577C 49.8123 65.3577 49.162 65.8502 48.324 66.2281C 47.4935 66.605 46.5968 66.818 45.9263 66.9271L 46.0873 67.914C 46.794 67.7984 47.817 67.5512 48.735 67.1397C 49.6454 66.7293 50.5723 66.1054 50.9943 65.1684L 50.0826 64.7577ZM 45.9263 66.9271C 45.6412 66.9749 45.4553 66.98 45.2871 66.9348L 45.0498 67.9063C 45.3423 67.9736 45.7286 67.9711 46.0873 67.914L 45.9263 66.9271ZM 54.1087 68.7134L 46.1155 66.9325L 45.898 67.9086L 53.8913 69.6895L 54.1087 68.7134Z"/>
</defs>
</svg>
