<svg width="160" height="160" viewBox="0 0 160 160" version="1.1" xmlns="http://www.w3.org/2000/svg" xmlns:xlink="http://www.w3.org/1999/xlink">
<title>campaign-icon-b</title>
<desc>Created using Figma</desc>
<g id="Canvas" transform="translate(87 154)">
<g id="campaign-icon-b">
<g id="backing">
<g id="Rectangle 6">
<mask id="mask0_outline_ins">
<use xlink:href="#path0_fill" fill="white" transform="translate(-87 -154)"/>
</mask>
<g mask="url(#mask0_outline_ins)">
<use xlink:href="#path1_stroke_2x" transform="translate(-87 -154)" fill="#FFFFFF"/>
</g>
</g>
<g id="Ellipse 2">
<use xlink:href="#path2_fill" transform="translate(-70 -137)" fill="#FF4F79"/>
</g>
</g>
<g id="Group">
<g id="Rectangle">
<use xlink:href="#path3_fill" transform="translate(-63.6522 -112)" fill="#1C1C1C"/>
</g>
<g id="Rectangle 2">
<mask id="mask1_outline_ins">
<use xlink:href="#path4_fill" fill="white" transform="translate(-69 -55.5776)"/>
</mask>
<g mask="url(#mask1_outline_ins)">
<use xlink:href="#path5_stroke_2x" transform="translate(-69 -55.5776)" fill="#1C1C1C"/>
</g>
</g>
<g id="tires">
<g id="tire">
<g id="Ellipse">
<use xlink:href="#path6_fill" transform="translate(-57 -57)" fill="#FF4F79"/>
<mask id="mask2_outline_ins">
<use xlink:href="#path6_fill" fill="white" transform="translate(-57 -57)"/>
</mask>
<g mask="url(#mask2_outline_ins)">
<use xlink:href="#path7_stroke_2x" transform="translate(-57 -57)" fill="#1C1C1C"/>
</g>
</g>
<g id="Ellipse 3">
<use xlink:href="#path8_fill" transform="translate(-53 -53)" fill="#FF4F79"/>
<mask id="mask3_outline_ins">
<use xlink:href="#path8_fill" fill="white" transform="translate(-53 -53)"/>
</mask>
<g mask="url(#mask3_outline_ins)">
<use xlink:href="#path9_stroke_2x" transform="translate(-53 -53)" fill="#1C1C1C"/>
</g>
</g>
</g>
<g id="tire">
<g id="Ellipse">
<use xlink:href="#path6_fill" transform="translate(16 -57)" fill="#FF4F79"/>
<mask id="mask4_outline_ins">
<use xlink:href="#path6_fill" fill="white" transform="translate(16 -57)"/>
</mask>
<g mask="url(#mask4_outline_ins)">
<use xlink:href="#path7_stroke_2x" transform="translate(16 -57)" fill="#1C1C1C"/>
</g>
</g>
<g id="Ellipse 3">
<use xlink:href="#path10_fill" transform="translate(20 -53)" fill="#FF4F79"/>
<mask id="mask5_outline_ins">
<use xlink:href="#path10_fill" fill="white" transform="translate(20 -53)"/>
</mask>
<g mask="url(#mask5_outline_ins)">
<use xlink:href="#path11_stroke_2x" transform="translate(20 -53)" fill="#1C1C1C"/>
</g>
</g>
</g>
</g>
<g id="Rectangle 4">
<use xlink:href="#path12_fill" transform="translate(23 -108.5)" fill="#FF4F79"/>
<mask id="mask6_outline_ins">
<use xlink:href="#path12_fill" fill="white" transform="translate(23 -108.5)"/>
</mask>
<g mask="url(#mask6_outline_ins)">
<use xlink:href="#path13_stroke_2x" transform="translate(23 -108.5)" fill="#1C1C1C"/>
</g>
</g>
<g id="Rectangle 4">
<use xlink:href="#path12_fill" transform="matrix(-1 0 0 1 -38 -108.5)" fill="#FF4F79"/>
<mask id="mask7_outline_ins">
<use xlink:href="#path12_fill" fill="white" transform="matrix(-1 0 0 1 -38 -108.5)"/>
</mask>
<g mask="url(#mask7_outline_ins)">
<use xlink:href="#path13_stroke_2x" transform="matrix(-1 0 0 1 -38 -108.5)" fill="#1C1C1C"/>
</g>
</g>
<g id="Rectangle 5">
<use xlink:href="#path14_fill" transform="translate(13 -108.5)" fill="#FF4F79"/>
<mask id="mask8_outline_ins">
<use xlink:href="#path14_fill" fill="white" transform="translate(13 -108.5)"/>
</mask>
<g mask="url(#mask8_outline_ins)">
<use xlink:href="#path15_stroke_2x" transform="translate(13 -108.5)" fill="#1C1C1C"/>
</g>
</g>
<g id="Rectangle 5">
<use xlink:href="#path14_fill" transform="translate(-38.1941 -108.5)" fill="#FF4F79"/>
<mask id="mask9_outline_ins">
<use xlink:href="#path14_fill" fill="white" transform="translate(-38.1941 -108.5)"/>
</mask>
<g mask="url(#mask9_outline_ins)">
<use xlink:href="#path15_stroke_2x" transform="translate(-38.1941 -108.5)" fill="#1C1C1C"/>
</g>
</g>
<g id="Rectangle 5">
<use xlink:href="#path16_fill" transform="translate(-7 -108.5)" fill="#FF4F79"/>
<mask id="mask10_outline_ins">
<use xlink:href="#path16_fill" fill="white" transform="translate(-7 -108.5)"/>
</mask>
<g mask="url(#mask10_outline_ins)">
<use xlink:href="#path17_stroke_2x" transform="translate(-7 -108.5)" fill="#1C1C1C"/>
</g>
</g>
<g id="Rectangle 5">
<use xlink:href="#path18_fill" transform="translate(-28 -108.5)" fill="#FF4F79"/>
<mask id="mask11_outline_ins">
<use xlink:href="#path18_fill" fill="white" transform="translate(-28 -108.5)"/>
</mask>
<g mask="url(#mask11_outline_ins)">
<use xlink:href="#path19_stroke_2x" transform="translate(-28 -108.5)" fill="#1C1C1C"/>
</g>
</g>
<g id="Rectangle 8">
<use xlink:href="#path20_fill" transform="matrix(0.514546 0.857463 -0.857463 0.514546 32.1775 -104.99)" fill="#1C1C1C"/>
</g>
<g id="Rectangle 8">
<use xlink:href="#path21_fill" transform="matrix(-0.107171 0.994241 0.994241 0.107171 -57.2211 -91.203)" fill="#1C1C1C"/>
</g>
<g id="Rectangle 9">
<use xlink:href="#path22_fill" transform="translate(-26 -107)" fill="#1C1C1C"/>
</g>
<g id="Rectangle 9">
<use xlink:href="#path22_fill" transform="matrix(-0.999659 0.026113 -0.026113 -0.999659 11.4391 -80.0058)" fill="#1C1C1C"/>
</g>
<g id="Rectangle 9">
<use xlink:href="#path23_fill" transform="matrix(1 0 0 -1 -36.7 -80)" fill="#1C1C1C"/>
</g>
<g id="Rectangle 9">
<use xlink:href="#path23_fill" transform="matrix(-1 0 0 1 21.5 -107)" fill="#1C1C1C"/>
</g>
</g>
<g id="banner">
<g id="Rectangle 3">
<use xlink:href="#path24_fill" transform="translate(-64.2326 -82.5309)" fill="#FF4F79"/>
<mask id="mask12_outline_ins">
<use xlink:href="#path24_fill" fill="white" transform="translate(-64.2326 -82.5309)"/>
</mask>
<g mask="url(#mask12_outline_ins)">
<use xlink:href="#path25_stroke_2x" transform="translate(-64.2326 -82.5309)" fill="#1C1C1C"/>
</g>
</g>
<g id="tie">
<g id="Ellipse 4">
<mask id="mask13_outline_ins">
<use xlink:href="#path26_fill" fill="white" transform="matrix(0.960877 -0.276975 0.276975 0.960877 -61.4624 -78.3437)"/>
</mask>
<g mask="url(#mask13_outline_ins)">
<use xlink:href="#path27_stroke_2x" transform="matrix(0.960877 -0.276975 0.276975 0.960877 -61.4624 -78.3437)" fill="#1C1C1C"/>
</g>
</g>
<g id="Vector">
<use xlink:href="#path28_stroke" transform="matrix(0.960877 -0.276975 0.276975 0.960877 -62.6501 -78.106)" fill="#1C1C1C"/>
</g>
<g id="Vector">
<use xlink:href="#path28_stroke" transform="matrix(-0.824286 0.566174 0.566174 0.824286 -59.0277 -79.826)" fill="#1C1C1C"/>
</g>
</g>
<g id="tie">
<g id="Ellipse 4">
<mask id="mask14_outline_ins">
<use xlink:href="#path26_fill" fill="white" transform="matrix(0.935888 -0.352297 0.352297 0.935888 -61.5061 -64.2064)"/>
</mask>
<g mask="url(#mask14_outline_ins)">
<use xlink:href="#path27_stroke_2x" transform="matrix(0.935888 -0.352297 0.352297 0.935888 -61.5061 -64.2064)" fill="#1C1C1C"/>
</g>
</g>
<g id="Vector">
<use xlink:href="#path28_stroke" transform="matrix(0.935888 -0.352297 0.352297 0.935888 -62.6712 -63.8754)" fill="#1C1C1C"/>
</g>
<g id="Vector">
<use xlink:href="#path28_stroke" transform="matrix(-0.776794 0.629754 0.629754 0.776794 -59.1966 -65.8772)" fill="#1C1C1C"/>
</g>
</g>
<g id="tie">
<g id="Ellipse 4">
<mask id="mask15_outline_ins">
<use xlink:href="#path26_fill" fill="white" transform="matrix(0.703345 0.710848 -0.710848 0.703345 45.1259 -78.6144)"/>
</mask>
<g mask="url(#mask15_outline_ins)">
<use xlink:href="#path27_stroke_2x" transform="matrix(0.703345 0.710848 -0.710848 0.703345 45.1259 -78.6144)" fill="#1C1C1C"/>
</g>
</g>
<g id="Vector">
<use xlink:href="#path28_stroke" transform="matrix(0.703345 0.710848 -0.710848 0.703345 44.3484 -79.5433)" fill="#1C1C1C"/>
</g>
<g id="Vector">
<use xlink:href="#path28_stroke" transform="matrix(-0.891799 -0.452432 -0.452432 0.891799 47.5932 -77.1871)" fill="#1C1C1C"/>
</g>
</g>
<g id="tie">
<g id="Ellipse 4">
<mask id="mask16_outline_ins">
<use xlink:href="#path26_fill" fill="white" transform="matrix(0.79221 0.610248 -0.610248 0.79221 44.9064 -65.0261)"/>
</mask>
<g mask="url(#mask16_outline_ins)">
<use xlink:href="#path27_stroke_2x" transform="matrix(0.79221 0.610248 -0.610248 0.79221 44.9064 -65.0261)" fill="#1C1C1C"/>
</g>
</g>
<g id="Vector">
<use xlink:href="#path28_stroke" transform="matrix(0.79221 0.610248 -0.610248 0.79221 44.0116 -65.8425)" fill="#1C1C1C"/>
</g>
<g id="Vector">
<use xlink:href="#path28_stroke" transform="matrix(-0.944358 -0.328921 -0.328921 0.944358 47.5427 -63.9421)" fill="#1C1C1C"/>
</g>
</g>
<g id="T">
<use xlink:href="#path29_fill" transform="matrix(0.989922 0.141613 -0.141613 0.989922 -55.1956 -83.2422)" fill="#1C1C1C"/>
</g>
<g id="o">
<use xlink:href="#path30_fill" transform="matrix(0.96782 -0.251644 0.251644 0.96782 -48.7945 -78.8523)" fill="#1C1C1C"/>
</g>
<g id="g">
<use xlink:href="#path31_fill" transform="matrix(0.99997 0.00777794 -0.00777794 0.99997 -31.8211 -80)" fill="#1C1C1C"/>
</g>
<g id="e">
<use xlink:href="#path32_fill" transform="matrix(0.999518 0.0310619 -0.0310619 0.999518 -17.6116 -82.1564)" fill="#1C1C1C"/>
</g>
<g id="t">
<use xlink:href="#path33_fill" transform="matrix(0.999982 -0.00607771 0.00607771 0.999982 -4.08497 -81.9602)" fill="#1C1C1C"/>
</g>
<g id="h">
<use xlink:href="#path34_fill" transform="matrix(0.995022 -0.0996584 0.0996584 0.995022 6.67426 -79.892)" fill="#1C1C1C"/>
</g>
<g id="e">
<use xlink:href="#path35_fill" transform="matrix(0.995504 -0.0947183 0.0947183 0.995504 21 -80.0528)" fill="#1C1C1C"/>
</g>
<g id="r">
<use xlink:href="#path36_fill" transform="matrix(0.984397 -0.175961 0.175961 0.984397 33 -80.5923)" fill="#1C1C1C"/>
</g>
</g>
</g>
</g>
<defs>
<path id="path0_fill" d="M 0 0L 160 0L 160 160L 0 160L 0 0Z"/>
<path id="path1_stroke_2x" d="M 0 0L 0 -1L -1 -1L -1 0L 0 0ZM 160 0L 161 0L 161 -1L 160 -1L 160 0ZM 160 160L 160 161L 161 161L 161 160L 160 160ZM 0 160L -1 160L -1 161L 0 161L 0 160ZM 0 1L 160 1L 160 -1L 0 -1L 0 1ZM 159 0L 159 160L 161 160L 161 0L 159 0ZM 160 159L 0 159L 0 161L 160 161L 160 159ZM 1 160L 1 0L -1 0L -1 160L 1 160Z"/>
<path id="path2_fill" d="M 125 62.5C 125 97.0178 97.0178 125 62.5 125C 27.9822 125 0 97.0178 0 62.5C 0 27.9822 27.9822 0 62.5 0C 97.0178 0 125 27.9822 125 62.5Z"/>
<path id="path3_fill" d="M 0 34C 0 15.2223 15.2223 0 34 0L 78.3043 0C 97.082 0 112.304 15.2223 112.304 34L 112.304 56.7543L 0 56.7543L 0 34Z"/>
<path id="path4_fill" d="M 0 0L 123 0L 123 7.96552L 0 7.96552L 0 0Z"/>
<path id="path5_stroke_2x" d="M 0 0L 0 -2L -2 -2L -2 0L 0 0ZM 123 0L 125 0L 125 -2L 123 -2L 123 0ZM 123 7.96552L 123 9.96552L 125 9.96552L 125 7.96552L 123 7.96552ZM 0 7.96552L -2 7.96552L -2 9.96552L 0 9.96552L 0 7.96552ZM 0 2L 123 2L 123 -2L 0 -2L 0 2ZM 121 0L 121 7.96552L 125 7.96552L 125 0L 121 0ZM 123 5.96552L 0 5.96552L 0 9.96552L 123 9.96552L 123 5.96552ZM 2 7.96552L 2 0L -2 0L -2 7.96552L 2 7.96552Z"/>
<path id="path6_fill" d="M 22 11C 22 17.0751 17.0751 22 11 22C 4.92487 22 0 17.0751 0 11C 0 4.92487 4.92487 0 11 0C 17.0751 0 22 4.92487 22 11Z"/>
<path id="path7_stroke_2x" d="M 19.5 11C 19.5 15.6944 15.6944 19.5 11 19.5L 11 24.5C 18.4558 24.5 24.5 18.4558 24.5 11L 19.5 11ZM 11 19.5C 6.30558 19.5 2.5 15.6944 2.5 11L -2.5 11C -2.5 18.4558 3.54416 24.5 11 24.5L 11 19.5ZM 2.5 11C 2.5 6.30558 6.30558 2.5 11 2.5L 11 -2.5C 3.54416 -2.5 -2.5 3.54416 -2.5 11L 2.5 11ZM 11 2.5C 15.6944 2.5 19.5 6.30558 19.5 11L 24.5 11C 24.5 3.54416 18.4558 -2.5 11 -2.5L 11 2.5Z"/>
<path id="path8_fill" d="M 13.5 6.75C 13.5 10.4779 10.4779 13.5 6.75 13.5C 3.02208 13.5 0 10.4779 0 6.75C 0 3.02208 3.02208 0 6.75 0C 10.4779 0 13.5 3.02208 13.5 6.75Z"/>
<path id="path9_stroke_2x" d="M 9.5 6.75C 9.5 8.26878 8.26878 9.5 6.75 9.5L 6.75 17.5C 12.6871 17.5 17.5 12.6871 17.5 6.75L 9.5 6.75ZM 6.75 9.5C 5.23122 9.5 4 8.26878 4 6.75L -4 6.75C -4 12.6871 0.812939 17.5 6.75 17.5L 6.75 9.5ZM 4 6.75C 4 5.23122 5.23122 4 6.75 4L 6.75 -4C 0.812939 -4 -4 0.812939 -4 6.75L 4 6.75ZM 6.75 4C 8.26878 4 9.5 5.23122 9.5 6.75L 17.5 6.75C 17.5 0.812939 12.6871 -4 6.75 -4L 6.75 4Z"/>
<path id="path10_fill" d="M 14 7C 14 10.866 10.866 14 7 14C 3.13401 14 0 10.866 0 7C 0 3.13401 3.13401 0 7 0C 10.866 0 14 3.13401 14 7Z"/>
<path id="path11_stroke_2x" d="M 10 7C 10 8.65685 8.65685 10 7 10L 7 18C 13.0751 18 18 13.0751 18 7L 10 7ZM 7 10C 5.34315 10 4 8.65685 4 7L -4 7C -4 13.0751 0.924868 18 7 18L 7 10ZM 4 7C 4 5.34315 5.34315 4 7 4L 7 -4C 0.924868 -4 -4 0.924868 -4 7L 4 7ZM 7 4C 8.65685 4 10 5.34315 10 7L 18 7C 18 0.924868 13.0751 -4 7 -4L 7 4Z"/>
<path id="path12_fill" d="M 0 0L 0 0C 13.6625 4.15815 23 16.7604 23 31.0416L 23 32.5L 8.36912 32.5C 3.99772 32.5 0.435714 28.9911 0.370022 24.6202L 0 0Z"/>
<path id="path13_stroke_2x" d="M 23 32.5L 23 33.5L 24 33.5L 24 32.5L 23 32.5ZM 22 31.0416L 22 32.5L 24 32.5L 24 31.0416L 22 31.0416ZM 23 31.5L 8.36912 31.5L 8.36912 33.5L 23 33.5L 23 31.5ZM 1.36991 24.6052L 0.999887 -0.0150275L -0.999887 0.0150275L -0.629865 24.6352L 1.36991 24.6052ZM -0.291162 0.956674C 12.9503 4.98668 22 17.2005 22 31.0416L 24 31.0416C 24 16.3202 14.3747 3.32963 0.291162 -0.956674L -0.291162 0.956674ZM 8.36912 31.5C 4.54414 31.5 1.42739 28.4297 1.36991 24.6052L -0.629865 24.6352C -0.555962 29.5525 3.45129 33.5 8.36912 33.5L 8.36912 31.5Z"/>
<path id="path14_fill" d="M 0 0L 10 0L 10 31L 0 31L 0 0Z"/>
<path id="path15_stroke_2x" d="M 0 0L 0 -1L -1 -1L -1 0L 0 0ZM 10 0L 11 0L 11 -1L 10 -1L 10 0ZM 10 31L 10 32L 11 32L 11 31L 10 31ZM 0 31L -1 31L -1 32L 0 32L 0 31ZM 0 1L 10 1L 10 -1L 0 -1L 0 1ZM 9 0L 9 31L 11 31L 11 0L 9 0ZM 10 30L 0 30L 0 32L 10 32L 10 30ZM 1 31L 1 0L -1 0L -1 31L 1 31Z"/>
<path id="path16_fill" d="M 0 0L 20 0L 20 32L 0 32L 0 0Z"/>
<path id="path17_stroke_2x" d="M 0 0L 0 -1L -1 -1L -1 0L 0 0ZM 20 0L 21 0L 21 -1L 20 -1L 20 0ZM 20 32L 20 33L 21 33L 21 32L 20 32ZM 0 32L -1 32L -1 33L 0 33L 0 32ZM 0 1L 20 1L 20 -1L 0 -1L 0 1ZM 19 0L 19 32L 21 32L 21 0L 19 0ZM 20 31L 0 31L 0 33L 20 33L 20 31ZM 1 32L 1 0L -1 0L -1 32L 1 32Z"/>
<path id="path18_fill" d="M 0 0L 21 0L 21 32L 0 32L 0 0Z"/>
<path id="path19_stroke_2x" d="M 0 0L 0 -1L -1 -1L -1 0L 0 0ZM 21 0L 22 0L 22 -1L 21 -1L 21 0ZM 21 32L 21 33L 22 33L 22 32L 21 32ZM 0 32L -1 32L -1 33L 0 33L 0 32ZM 0 1L 21 1L 21 -1L 0 -1L 0 1ZM 20 0L 20 32L 22 32L 22 0L 20 0ZM 21 31L 0 31L 0 33L 21 33L 21 31ZM 1 32L 1 0L -1 0L -1 32L 1 32Z"/>
<path id="path20_fill" d="M 0.489303 3.70982C 0.550498 3.56448 0.640369 3.43291 0.756782 3.32654C 2.62426 1.62006 6.16809 -0.507359 12.6828 0.108751C 13.1518 0.1531 13.595 0.5578 13.4914 1.01731L 13.4914 1.01731C 13.455 1.17879 13.3051 1.29335 13.1403 1.2779C 7.14403 0.715589 4.83048 1.73658 1.05588 4.17955C 0.738767 4.38479 0.342723 4.05795 0.489303 3.70982L 0.489303 3.70982Z"/>
<path id="path21_fill" d="M 0.187036 2.82499C 0.073517 2.26093 0.302572 1.67679 0.794254 1.37795C 3.04519 0.00987361 5.32091 -0.481975 8.56378 0.559861C 9.08528 0.727403 9.49941 1.22721 9.3924 1.76441L 9.3924 1.76441C 9.37148 1.86943 9.26032 1.93132 9.16049 1.89259C 5.99489 0.664363 3.14733 1.08357 0.362947 2.89768C 0.295051 2.94192 0.203024 2.90443 0.187036 2.82499L 0.187036 2.82499Z"/>
<path id="path22_fill" d="M 0 0L 14 0L 2.5 2.5L 0 17L 0 0Z"/>
<path id="path23_fill" d="M 0 0L 7 0L 1.25 1.17647L 0 8L 0 0Z"/>
<path id="path24_fill" d="M 0 0C 13.8454 4.58564 105.023 4.85538 113.465 0L 113.465 21.5795C 102.321 25.6256 11.1439 25.8954 0 21.5795L 0 0Z"/>
<path id="path25_stroke_2x" d="M 0 0L 0.471609 -1.42393L -1.5 -2.07693L -1.5 0L 0 0ZM 113.465 0L 114.965 0L 114.965 -2.59307L 112.717 -1.30029L 113.465 0ZM 113.465 21.5795L 113.977 22.9894L 114.965 22.6307L 114.965 21.5795L 113.465 21.5795ZM 0 21.5795L -1.5 21.5795L -1.5 22.6071L -0.541723 22.9782L 0 21.5795ZM -0.471609 1.42393C 3.21771 2.64584 11.7321 3.52408 22.299 4.11501C 32.9496 4.71043 45.9495 5.0234 58.7567 5.04038C 71.5644 5.05716 84.2308 4.77784 94.2097 4.19063C 99.2055 3.89638 103.57 3.52142 106.934 3.06868C 108.625 2.84064 110.114 2.58448 111.291 2.31162C 112.454 2.04143 113.485 1.71894 114.213 1.30029L 112.717 -1.30029C 112.39 -1.11202 111.719 -0.867626 110.612 -0.610581C 109.52 -0.356202 108.171 -0.124763 106.533 0.0955362C 103.241 0.539479 98.9891 0.904204 94.0334 1.19581C 84.1096 1.78029 71.5333 2.05732 58.7607 2.04038C 45.9876 2.02364 33.0695 1.71283 22.4665 1.11969C 11.7798 0.522067 3.70501 -0.353024 0.471609 -1.42393L -0.471609 1.42393ZM 111.965 0L 111.965 21.5795L 114.965 21.5795L 114.965 0L 111.965 0ZM 112.953 20.1695C 111.755 20.6047 109.285 21.0388 105.686 21.4268C 102.132 21.8104 97.6543 22.1328 92.5253 22.3953C 82.2582 22.9212 69.5054 23.1985 56.7306 23.2152C 43.9558 23.2322 31.2043 22.9885 20.9386 22.4711C 15.8106 22.2128 11.3364 21.8886 7.78348 21.4937C 4.18439 21.094 1.72754 20.64 0.541723 20.1807L -0.541723 22.9782C 1.05843 23.598 3.8886 24.0796 7.45232 24.4754C 11.0622 24.876 15.6266 25.2072 20.7877 25.4673C 31.1002 25.9867 43.9291 26.232 56.7345 26.2152C 69.54 26.1983 82.3675 25.9192 92.6787 25.3914C 97.8388 25.1271 102.4 24.7983 106.008 24.4095C 109.573 24.0252 112.39 23.5657 113.977 22.9894L 112.953 20.1695ZM 1.5 21.5795L 1.5 0L -1.5 0L -1.5 21.5795L 1.5 21.5795Z"/>
<path id="path26_fill" d="M 2 1C 2 1.55228 1.55228 2 1 2C 0.447715 2 0 1.55228 0 1C 0 0.447715 0.447715 0 1 0C 1.55228 0 2 0.447715 2 1Z"/>
<path id="path27_stroke_2x" d="M 1.55 1C 1.55 1.30376 1.30376 1.55 1 1.55L 1 2.45C 1.80081 2.45 2.45 1.80081 2.45 1L 1.55 1ZM 1 1.55C 0.696243 1.55 0.45 1.30376 0.45 1L -0.45 1C -0.45 1.80081 0.199187 2.45 1 2.45L 1 1.55ZM 0.45 1C 0.45 0.696243 0.696243 0.45 1 0.45L 1 -0.45C 0.199187 -0.45 -0.45 0.199187 -0.45 1L 0.45 1ZM 1 0.45C 1.30376 0.45 1.55 0.696243 1.55 1L 2.45 1C 2.45 0.199187 1.80081 -0.45 1 -0.45L 1 0.45Z"/>
<path id="path28_stroke" d="M 2.20711 1.10063L 2.38211 1.10063L 2.3821 0.925633L 2.20711 0.925633L 2.20711 1.10063ZM 0.707105 0.100633L 0.583361 0.224376L 0.583362 0.224377L 0.707105 0.100633ZM 0.207105 1.60063L 0.0833613 1.72438L 0.083362 1.72438L 0.207105 1.60063ZM 2.20711 0.925633C 1.74301 0.925632 1.54128 0.81232 1.39335 0.664388C 1.30939 0.581266 1.2395 0.482402 1.15291 0.364331C 1.06642 0.246386 0.96431 0.110972 0.830849 -0.023111L 0.583362 0.224377C 0.699902 0.340294 0.785294 0.454879 0.870673 0.571309C 0.955967 0.687612 1.04233 0.807498 1.14586 0.911876C 1.37293 1.13894 1.6712 1.27563 2.2071 1.27563L 2.20711 0.925633ZM 0.830849 -0.0231101C 0.747933 -0.106027 0.649663 -0.162397 0.538416 -0.173163C 0.426513 -0.183992 0.32665 -0.146242 0.246015 -0.0886458C 0.0925549 0.0209686 -0.016679 0.218592 -0.0839126 0.420293C -0.150712 0.622926 -0.18655 0.876185 -0.170503 1.09843C -0.153132 1.32425 -0.0822997 1.55871 0.0833613 1.72438L 0.330849 1.47689C 0.246512 1.39255 0.192345 1.25202 0.178466 1.07159C 0.163264 0.88758 0.189926 0.703339 0.248127 0.530972C 0.305893 0.357673 0.384159 0.242796 0.449448 0.196161C 0.478188 0.175632 0.495512 0.17432 0.504702 0.17521C 0.514549 0.176163 0.541278 0.182293 0.583361 0.224376L 0.830849 -0.0231101ZM 0.083362 1.72438C 0.245673 1.88669 0.433788 1.94637 0.630246 1.93564C 0.815904 1.92551 1.00274 1.85295 1.17742 1.76913C 1.35334 1.68457 1.53416 1.58017 1.7154 1.4871C 1.89666 1.3939 2.06948 1.31468 2.24955 1.27041L 2.16466 0.930858C 1.95421 0.984213 1.74427 1.07881 1.55543 1.17579C 1.36657 1.2729 1.18995 1.37505 1.026 1.45358C 0.860815 1.53285 0.72535 1.57993 0.611171 1.58616C 0.507793 1.59181 0.418539 1.56458 0.330849 1.47689L 0.083362 1.72438ZM 2.03211 1.10063C 2.03211 1.32213 1.91427 1.92574 1.72859 2.48279C 1.63684 2.75836 1.5351 3.00645 1.42423 3.19028C 1.37067 3.28005 1.32608 3.33988 1.27622 3.38395C 1.23155 3.42436 1.20924 3.42563 1.20711 3.42563L 1.20711 3.77563C 1.32998 3.77563 1.43266 3.7144 1.51104 3.64349C 1.58422 3.57623 1.66073 3.47591 1.72436 3.37036C 1.84786 3.16356 1.96487 2.8804 2.06063 2.59347C 2.24994 2.02552 2.38211 1.37913 2.38211 1.10063L 2.03211 1.10063Z"/>
<path id="path29_fill" d="M 0.389648 6.08301L 10.7256 6.08301L 10.7256 9.62402L 7.68359 9.62402L 7.68359 17L 3.43164 17L 3.43164 9.62402L 0.389648 9.62402L 0.389648 6.08301Z"/>
<path id="path30_fill" d="M 7.19238 11.4888C 7.09473 11.4399 6.96777 11.4155 6.81152 11.4155C 6.66016 11.4155 6.4917 11.4619 6.30615 11.5547C 6.12061 11.6426 5.9375 11.7646 5.75684 11.9209C 5.37598 12.2529 5.05615 12.6558 4.79736 13.1294C 4.53857 13.603 4.40918 14.04 4.40918 14.4404C 4.40918 14.8359 4.56055 15.1021 4.86328 15.2388C 4.9707 15.2876 5.10254 15.312 5.25879 15.312C 5.41504 15.312 5.57861 15.2656 5.74951 15.1729C 5.92041 15.0752 6.09131 14.9458 6.26221 14.7847C 6.61865 14.4478 6.93115 14.04 7.19971 13.5615C 7.46826 13.0781 7.60254 12.646 7.60254 12.2651C 7.60254 11.8843 7.46582 11.6255 7.19238 11.4888ZM 5.77148 18.271C 4.375 18.271 3.17139 17.8291 2.16064 16.9453C 1.08154 16.0078 0.541992 14.8286 0.541992 13.4077C 0.541992 11.9819 1.04736 10.8174 2.05811 9.91406C 3.06885 9.00586 4.31641 8.55176 5.80078 8.55176C 7.28516 8.55176 8.53271 8.99609 9.54346 9.88477C 10.5542 10.7686 11.062 11.9526 11.0669 13.437C 11.0718 14.3892 10.8301 15.2314 10.3418 15.9639C 9.85352 16.6963 9.20166 17.2627 8.38623 17.6631C 7.5708 18.0635 6.69922 18.2661 5.77148 18.271Z"/>
<path id="path31_fill" d="M 3.7771 19.375L 3.7771 17.0415C 4.00122 17.0679 4.24512 17.1052 4.50879 17.1536C 4.77686 17.2019 5.03613 17.2261 5.28662 17.2261C 5.53711 17.2261 5.76782 17.1975 5.97876 17.1404C 6.19409 17.0833 6.38525 16.9712 6.55225 16.8042C 6.9126 16.4438 7.09497 15.8374 7.09937 14.9849C 6.33032 15.8242 5.39868 16.2439 4.30444 16.2439C 3.2146 16.2483 2.30493 15.9033 1.57544 15.209C 0.850342 14.5146 0.487793 13.5237 0.487793 12.2361C 0.487793 11.3132 0.689941 10.4937 1.09424 9.77734C 1.49854 9.05664 2.04126 8.49634 2.72241 8.09644C 3.40796 7.69653 4.13525 7.49658 4.9043 7.49658C 5.67773 7.49658 6.3457 7.74927 6.9082 8.25464C 7.09277 8.41724 7.25098 8.604 7.38281 8.81494L 8.33203 7.8064L 10.4875 7.8064L 10.4875 16C 10.4919 17.6919 9.72949 18.8037 8.2002 19.3354C 7.58496 19.5508 6.87964 19.6584 6.08423 19.6584C 5.29321 19.6584 4.52417 19.564 3.7771 19.375ZM 6.94116 10.2915C 6.78296 10.1992 6.61597 10.1531 6.44019 10.1531C 6.2688 10.1531 6.10181 10.1882 5.93921 10.2585C 5.60522 10.4036 5.3064 10.6387 5.04272 10.9639C 4.59888 11.478 4.37695 12.0229 4.37695 12.5986C 4.37695 12.9854 4.49121 13.2578 4.71973 13.416C 4.91309 13.5435 5.21191 13.5413 5.61621 13.4094C 6.00293 13.282 6.44458 13.0249 6.94116 12.6382L 6.94116 10.2915Z"/>
<path id="path32_fill" d="M 7.5249 12.8538C 7.5249 12.3811 7.30469 12.1448 6.86426 12.1448C 6.35938 12.1931 6.03174 12.4536 5.88135 12.9263C 5.80615 13.1519 5.75244 13.415 5.72021 13.7158C 5.69336 14.0112 5.65039 14.3281 5.59131 14.6665L 7.35571 14.2717L 7.50879 13.0391L 7.5249 12.8538ZM 6.43726 16.5195C 6.43726 16.5195 6.28955 16.5195 5.99414 16.5195C 5.85449 16.5195 5.72021 16.5142 5.59131 16.5034C 5.59131 17.1426 5.93237 17.4917 6.6145 17.5508C 6.80249 17.5669 6.98511 17.575 7.16235 17.575C 7.6189 17.575 8.19092 17.4702 8.87842 17.2607C 9.57129 17.0513 10.1917 16.7102 10.7395 16.2375L 11.239 18.7432C 10.0413 19.7798 8.2312 20.2981 5.80884 20.2981C 4.41772 20.2981 3.22266 19.8926 2.22363 19.0815C 1.13867 18.1953 0.596191 16.968 0.596191 15.3997C 0.596191 14.218 0.902344 13.1572 1.51465 12.2173C 2.08398 11.3579 2.85474 10.7053 3.8269 10.2595C 4.79907 9.81372 5.84912 9.59082 6.97705 9.59082C 8.43799 9.59082 9.54175 9.9104 10.2883 10.5496C 11.0403 11.1887 11.4136 11.9783 11.4082 12.9182C 11.4082 13.8582 10.9597 14.6934 10.0627 15.4238C 9.16577 16.1543 7.95728 16.5195 6.43726 16.5195Z"/>
<path id="path33_fill" d="M 8.80713 19.2529C 7.7557 19.9668 6.64062 20.3237 5.46191 20.3237C 4.28874 20.3237 3.33415 19.9917 2.59814 19.3276C 1.86214 18.658 1.49414 17.7588 1.49414 16.6299L 1.49414 12.3135L 0.547852 12.3135L 0.547852 9.68213L 1.49414 9.68213L 1.49414 6.89307L 6.45801 6.38672L 6.45801 9.68213L 8.80713 9.68213L 8.80713 12.3135L 6.45801 12.3135L 6.45801 14.9199C 6.45801 15.7002 6.63232 16.2674 6.98096 16.6216C 7.33512 16.9702 7.94385 17.1445 8.80713 17.1445L 8.80713 19.2529Z"/>
<path id="path34_fill" d="M 5.23682 9.87012C 5.896 8.99121 6.89453 8.55176 8.23242 8.55176C 8.61328 8.55176 9.01855 8.63965 9.44824 8.81543C 9.87793 8.99121 10.2515 9.24512 10.5688 9.57715C 11.2524 10.2852 11.5942 11.2227 11.5942 12.3896L 11.5942 18L 7.21436 18L 7.21436 14.0522C 7.21436 13.2661 7.0874 12.6216 6.8335 12.1187C 6.57959 11.6108 6.28174 11.3569 5.93994 11.3569C 5.47119 11.3569 5.23682 11.6768 5.23682 12.3164L 5.23682 18L 0.88623 18L 0.88623 5.67334L 5.23682 5.67334L 5.23682 9.87012Z"/>
<path id="path35_fill" d="M 6.38477 10.9365C 6.38477 10.5355 6.19792 10.335 5.82422 10.335C 5.39583 10.376 5.11784 10.597 4.99023 10.998C 4.92643 11.1895 4.88086 11.4128 4.85352 11.668C 4.83073 11.9186 4.79427 12.1875 4.74414 12.4746L 6.24121 12.1396L 6.37109 11.0938L 6.38477 10.9365ZM 5.46191 14.0469C 5.46191 14.0469 5.33659 14.0469 5.08594 14.0469C 4.96745 14.0469 4.85352 14.0423 4.74414 14.0332C 4.74414 14.5755 5.03353 14.8717 5.6123 14.9219C 5.77181 14.9355 5.92676 14.9424 6.07715 14.9424C 6.46452 14.9424 6.94987 14.8535 7.5332 14.6758C 8.12109 14.498 8.64746 14.2087 9.1123 13.8076L 9.53613 15.9336C 8.51986 16.8132 6.98405 17.2529 4.92871 17.2529C 3.74837 17.2529 2.73438 16.9089 1.88672 16.2207C 0.966146 15.4688 0.505859 14.4274 0.505859 13.0967C 0.505859 12.0941 0.765625 11.194 1.28516 10.3965C 1.76823 9.66732 2.4222 9.11361 3.24707 8.73535C 4.07194 8.3571 4.96289 8.16797 5.91992 8.16797C 7.15951 8.16797 8.09603 8.43913 8.72949 8.98145C 9.36751 9.52376 9.68424 10.1937 9.67969 10.9912C 9.67969 11.7887 9.29915 12.4974 8.53809 13.1172C 7.77702 13.737 6.75163 14.0469 5.46191 14.0469Z"/>
<path id="path36_fill" d="M 6.9043 11.709C 6.48503 11.709 6.05436 11.8617 5.6123 12.167C 5.17025 12.4723 4.94694 12.7617 4.94238 13.0352L 4.94238 17L 0.827148 17L 0.827148 8.50293L 4.94238 8.50293L 4.94238 9.41211C 5.1748 9.0612 5.46191 8.78092 5.80371 8.57129C 6.15007 8.36165 6.51693 8.23633 6.9043 8.19531L 6.9043 11.709Z"/>
</defs>
</svg>
