<svg width="160" height="160" viewBox="0 0 160 160" version="1.1" xmlns="http://www.w3.org/2000/svg" xmlns:xlink="http://www.w3.org/1999/xlink">
<title>campaign-icon-b</title>
<desc>Created using Figma</desc>
<g id="Canvas" transform="translate(87 154)">
<g id="campaign-icon-b">
<g id="backing">
<g id="Rectangle 6">
<mask id="mask0_outline_ins">
<use xlink:href="#path0_fill" fill="white" transform="translate(-87 -154)"/>
</mask>
<g mask="url(#mask0_outline_ins)">
<use xlink:href="#path1_stroke_2x" transform="translate(-87 -154)" fill="#FFFFFF"/>
</g>
</g>
<g id="Ellipse 2">
<use xlink:href="#path2_fill" transform="translate(-70 -137)" fill="#FF4F79"/>
</g>
</g>
<g id="Group">
<g id="Rectangle">
<use xlink:href="#path3_fill" transform="translate(-63.6522 -112)" fill="#1C1C1C"/>
</g>
<g id="Rectangle 2">
<mask id="mask1_outline_ins">
<use xlink:href="#path4_fill" fill="white" transform="translate(-69 -55.5776)"/>
</mask>
<g mask="url(#mask1_outline_ins)">
<use xlink:href="#path5_stroke_2x" transform="translate(-69 -55.5776)" fill="#1C1C1C"/>
</g>
</g>
<g id="tires">
<g id="tire">
<g id="Ellipse">
<use xlink:href="#path6_fill" transform="translate(-57 -57)" fill="#FF4F79"/>
<mask id="mask2_outline_ins">
<use xlink:href="#path6_fill" fill="white" transform="translate(-57 -57)"/>
</mask>
<g mask="url(#mask2_outline_ins)">
<use xlink:href="#path7_stroke_2x" transform="translate(-57 -57)" fill="#1C1C1C"/>
</g>
</g>
<g id="Ellipse 3">
<use xlink:href="#path8_fill" transform="translate(-53 -53)" fill="#FF4F79"/>
<mask id="mask3_outline_ins">
<use xlink:href="#path8_fill" fill="white" transform="translate(-53 -53)"/>
</mask>
<g mask="url(#mask3_outline_ins)">
<use xlink:href="#path9_stroke_2x" transform="translate(-53 -53)" fill="#1C1C1C"/>
</g>
</g>
</g>
<g id="tire">
<g id="Ellipse">
<use xlink:href="#path10_fill" transform="translate(16 -57)" fill="#FF4F79"/>
<mask id="mask4_outline_ins">
<use xlink:href="#path10_fill" fill="white" transform="translate(16 -57)"/>
</mask>
<g mask="url(#mask4_outline_ins)">
<use xlink:href="#path11_stroke_2x" transform="translate(16 -57)" fill="#1C1C1C"/>
</g>
</g>
<g id="Ellipse 3">
<use xlink:href="#path12_fill" transform="translate(20 -53)" fill="#FF4F79"/>
<mask id="mask5_outline_ins">
<use xlink:href="#path12_fill" fill="white" transform="translate(20 -53)"/>
</mask>
<g mask="url(#mask5_outline_ins)">
<use xlink:href="#path13_stroke_2x" transform="translate(20 -53)" fill="#1C1C1C"/>
</g>
</g>
</g>
</g>
<g id="Rectangle 4">
<use xlink:href="#path14_fill" transform="translate(25 -109)" fill="#FF4F79"/>
<mask id="mask6_outline_ins">
<use xlink:href="#path14_fill" fill="white" transform="translate(25 -109)"/>
</mask>
<g mask="url(#mask6_outline_ins)">
<use xlink:href="#path15_stroke_2x" transform="translate(25 -109)" fill="#1C1C1C"/>
</g>
</g>
<g id="Rectangle 4">
<use xlink:href="#path16_fill" transform="matrix(-1 0 0 1 -41 -107)" fill="#FF4F79"/>
<mask id="mask7_outline_ins">
<use xlink:href="#path16_fill" fill="white" transform="matrix(-1 0 0 1 -41 -107)"/>
</mask>
<g mask="url(#mask7_outline_ins)">
<use xlink:href="#path17_stroke_2x" transform="matrix(-1 0 0 1 -41 -107)" fill="#1C1C1C"/>
</g>
</g>
<g id="Rectangle 5">
<use xlink:href="#path18_fill" transform="translate(13 -108.5)" fill="#FF4F79"/>
<mask id="mask8_outline_ins">
<use xlink:href="#path18_fill" fill="white" transform="translate(13 -108.5)"/>
</mask>
<g mask="url(#mask8_outline_ins)">
<use xlink:href="#path19_stroke_2x" transform="translate(13 -108.5)" fill="#1C1C1C"/>
</g>
</g>
<g id="Rectangle 5">
<use xlink:href="#path18_fill" transform="translate(-38.1941 -108.5)" fill="#FF4F79"/>
<mask id="mask9_outline_ins">
<use xlink:href="#path18_fill" fill="white" transform="translate(-38.1941 -108.5)"/>
</mask>
<g mask="url(#mask9_outline_ins)">
<use xlink:href="#path19_stroke_2x" transform="translate(-38.1941 -108.5)" fill="#1C1C1C"/>
</g>
</g>
<g id="Rectangle 5">
<use xlink:href="#path20_fill" transform="translate(-6 -109)" fill="#FF4F79"/>
<mask id="mask10_outline_ins">
<use xlink:href="#path20_fill" fill="white" transform="translate(-6 -109)"/>
</mask>
<g mask="url(#mask10_outline_ins)">
<use xlink:href="#path21_stroke_2x" transform="translate(-6 -109)" fill="#1C1C1C"/>
</g>
</g>
<g id="Rectangle 5">
<use xlink:href="#path22_fill" transform="translate(-27 -109)" fill="#FF4F79"/>
<mask id="mask11_outline_ins">
<use xlink:href="#path22_fill" fill="white" transform="translate(-27 -109)"/>
</mask>
<g mask="url(#mask11_outline_ins)">
<use xlink:href="#path23_stroke_2x" transform="translate(-27 -109)" fill="#1C1C1C"/>
</g>
</g>
<g id="Rectangle 8">
<use xlink:href="#path24_fill" transform="matrix(0.514546 0.857463 -0.857463 0.514546 32.1775 -104.99)" fill="#1C1C1C"/>
</g>
<g id="Rectangle 8">
<use xlink:href="#path25_fill" transform="matrix(-0.107171 0.994241 0.994241 0.107171 -57.2211 -91.203)" fill="#1C1C1C"/>
</g>
<g id="Rectangle 9">
<use xlink:href="#path26_fill" transform="translate(-25 -107)" fill="#1C1C1C"/>
</g>
<g id="Rectangle 9">
<use xlink:href="#path27_fill" transform="matrix(-0.999659 0.026113 -0.026113 -0.999659 10.4391 -80.0058)" fill="#1C1C1C"/>
</g>
<g id="Rectangle 9">
<use xlink:href="#path28_fill" transform="matrix(1 0 0 -1 -36.7 -80)" fill="#1C1C1C"/>
</g>
<g id="Rectangle 9">
<use xlink:href="#path28_fill" transform="matrix(-1 0 0 1 21.5 -107)" fill="#1C1C1C"/>
</g>
</g>
<g id="banner">
<g id="Rectangle 3">
<use xlink:href="#path29_fill" transform="translate(-65.5581 -82.5309)" fill="#FF4F79"/>
<mask id="mask12_outline_ins">
<use xlink:href="#path29_fill" fill="white" transform="translate(-65.5581 -82.5309)"/>
</mask>
<g mask="url(#mask12_outline_ins)">
<use xlink:href="#path30_stroke_2x" transform="translate(-65.5581 -82.5309)" fill="#1C1C1C"/>
</g>
</g>
<g id="tie">
<g id="Ellipse 4">
<mask id="mask13_outline_ins">
<use xlink:href="#path31_fill" fill="white" transform="matrix(0.960877 -0.276975 0.276975 0.960877 -60.9014 -77.5926)"/>
</mask>
<g mask="url(#mask13_outline_ins)">
<use xlink:href="#path32_stroke_2x" transform="matrix(0.960877 -0.276975 0.276975 0.960877 -60.9014 -77.5926)" fill="#1C1C1C"/>
</g>
</g>
<g id="Vector">
<use xlink:href="#path33_stroke" transform="matrix(0.960877 -0.276975 0.276975 0.960877 -62.4149 -77.2898)" fill="#1C1C1C"/>
</g>
<g id="Vector">
<use xlink:href="#path34_stroke" transform="matrix(-0.824286 0.566174 0.566174 0.824286 -57.7992 -79.4814)" fill="#1C1C1C"/>
</g>
</g>
<g id="tie">
<g id="Ellipse 4">
<mask id="mask14_outline_ins">
<use xlink:href="#path35_fill" fill="white" transform="matrix(0.935888 -0.352297 0.352297 0.935888 -61.5214 -64.7544)"/>
</mask>
<g mask="url(#mask14_outline_ins)">
<use xlink:href="#path36_stroke_2x" transform="matrix(0.935888 -0.352297 0.352297 0.935888 -61.5214 -64.7544)" fill="#1C1C1C"/>
</g>
</g>
<g id="Vector">
<use xlink:href="#path37_stroke" transform="matrix(0.935888 -0.352297 0.352297 0.935888 -62.8591 -64.3743)" fill="#1C1C1C"/>
</g>
<g id="Vector">
<use xlink:href="#path37_stroke" transform="matrix(-0.776794 0.629754 0.629754 0.776794 -58.8699 -66.6725)" fill="#1C1C1C"/>
</g>
</g>
<g id="tie">
<g id="Ellipse 4">
<mask id="mask15_outline_ins">
<use xlink:href="#path38_fill" fill="white" transform="matrix(0.703345 0.710848 -0.710848 0.703345 44.7832 -78.4291)"/>
</mask>
<g mask="url(#mask15_outline_ins)">
<use xlink:href="#path39_stroke_2x" transform="matrix(0.703345 0.710848 -0.710848 0.703345 44.7832 -78.4291)" fill="#1C1C1C"/>
</g>
</g>
<g id="Vector">
<use xlink:href="#path40_stroke" transform="matrix(0.703345 0.710848 -0.710848 0.703345 43.9018 -79.4822)" fill="#1C1C1C"/>
</g>
<g id="Vector">
<use xlink:href="#path40_stroke" transform="matrix(-0.891799 -0.452432 -0.452432 0.891799 47.5806 -76.8109)" fill="#1C1C1C"/>
</g>
</g>
<g id="tie">
<g id="Ellipse 4">
<mask id="mask16_outline_ins">
<use xlink:href="#path41_fill" fill="white" transform="matrix(0.79221 0.610248 -0.610248 0.79221 44.7739 -65.7488)"/>
</mask>
<g mask="url(#mask16_outline_ins)">
<use xlink:href="#path42_stroke_2x" transform="matrix(0.79221 0.610248 -0.610248 0.79221 44.7739 -65.7488)" fill="#1C1C1C"/>
</g>
</g>
<g id="Vector">
<use xlink:href="#path43_stroke" transform="matrix(0.79221 0.610248 -0.610248 0.79221 43.7534 -66.6798)" fill="#1C1C1C"/>
</g>
<g id="Vector">
<use xlink:href="#path44_stroke" transform="matrix(-0.944358 -0.328921 -0.328921 0.944358 47.7805 -64.5125)" fill="#1C1C1C"/>
</g>
</g>
<g id="T">
<use xlink:href="#path45_fill" transform="matrix(0.989922 0.141613 -0.141613 0.989922 -55.1956 -83.2422)" fill="#1C1C1C"/>
</g>
<g id="o">
<use xlink:href="#path46_fill" transform="matrix(0.96782 -0.251644 0.251644 0.96782 -48.7945 -78.8523)" fill="#1C1C1C"/>
</g>
<g id="g">
<use xlink:href="#path47_fill" transform="matrix(0.99997 0.00777794 -0.00777794 0.99997 -31.8211 -80)" fill="#1C1C1C"/>
</g>
<g id="e">
<use xlink:href="#path48_fill" transform="matrix(0.999518 0.0310619 -0.0310619 0.999518 -17.6116 -82.1564)" fill="#1C1C1C"/>
</g>
<g id="t">
<use xlink:href="#path49_fill" transform="matrix(0.999982 -0.00607771 0.00607771 0.999982 -4.08496 -81.9602)" fill="#1C1C1C"/>
</g>
<g id="h">
<use xlink:href="#path50_fill" transform="matrix(0.995022 -0.0996584 0.0996584 0.995022 6.67427 -79.892)" fill="#1C1C1C"/>
</g>
<g id="e">
<use xlink:href="#path51_fill" transform="matrix(0.995504 -0.0947183 0.0947183 0.995504 21 -80.0528)" fill="#1C1C1C"/>
</g>
<g id="r">
<use xlink:href="#path52_fill" transform="matrix(0.984397 -0.175961 0.175961 0.984397 33 -80.5923)" fill="#1C1C1C"/>
</g>
</g>
</g>
</g>
<defs>
<path id="path0_fill" d="M 0 0L 160 0L 160 160L 0 160L 0 0Z"/>
<path id="path1_stroke_2x" d="M 0 0L 0 -1L -1 -1L -1 0L 0 0ZM 160 0L 161 0L 161 -1L 160 -1L 160 0ZM 160 160L 160 161L 161 161L 161 160L 160 160ZM 0 160L -1 160L -1 161L 0 161L 0 160ZM 0 1L 160 1L 160 -1L 0 -1L 0 1ZM 159 0L 159 160L 161 160L 161 0L 159 0ZM 160 159L 0 159L 0 161L 160 161L 160 159ZM 1 160L 1 0L -1 0L -1 160L 1 160Z"/>
<path id="path2_fill" d="M 125 62.5C 125 97.0178 97.0178 125 62.5 125C 27.9822 125 0 97.0178 0 62.5C 0 27.9822 27.9822 0 62.5 0C 97.0178 0 125 27.9822 125 62.5Z"/>
<path id="path3_fill" d="M 0 34C 0 15.2223 15.2223 0 34 0L 78.3043 0C 97.082 0 112.304 15.2223 112.304 34L 112.304 56.7543L 0 56.7543L 0 34Z"/>
<path id="path4_fill" d="M 0 3C 0 1.34315 1.34315 0 3 0L 120 0C 121.657 0 123 1.34315 123 3L 123 4.96552C 123 6.62237 121.657 7.96552 120 7.96552L 3 7.96552C 1.34315 7.96552 0 6.62237 0 4.96552L 0 3Z"/>
<path id="path5_stroke_2x" d="M 3 2L 120 2L 120 -2L 3 -2L 3 2ZM 121 3L 121 4.96552L 125 4.96552L 125 3L 121 3ZM 120 5.96552L 3 5.96552L 3 9.96552L 120 9.96552L 120 5.96552ZM 2 4.96552L 2 3L -2 3L -2 4.96552L 2 4.96552ZM 3 -2C 0.238576 -2 -2 0.238576 -2 3L 2 3C 2 2.44772 2.44772 2 3 2L 3 -2ZM 120 2C 120.552 2 121 2.44772 121 3L 125 3C 125 0.238576 122.761 -2 120 -2L 120 2ZM 121 4.96552C 121 5.5178 120.552 5.96552 120 5.96552L 120 9.96552C 122.761 9.96552 125 7.72694 125 4.96552L 121 4.96552ZM 3 5.96552C 2.44772 5.96552 2 5.5178 2 4.96552L -2 4.96552C -2 7.72694 0.238576 9.96552 3 9.96552L 3 5.96552Z"/>
<path id="path6_fill" d="M 22 11C 22 17.0751 17.0751 22 11 22C 4.92487 22 0 17.0751 0 11C 0 4.92487 4.92487 0 11 0C 17.0751 0 22 4.92487 22 11Z"/>
<path id="path7_stroke_2x" d="M 19.5 11C 19.5 15.6944 15.6944 19.5 11 19.5L 11 24.5C 18.4558 24.5 24.5 18.4558 24.5 11L 19.5 11ZM 11 19.5C 6.30558 19.5 2.5 15.6944 2.5 11L -2.5 11C -2.5 18.4558 3.54416 24.5 11 24.5L 11 19.5ZM 2.5 11C 2.5 6.30558 6.30558 2.5 11 2.5L 11 -2.5C 3.54416 -2.5 -2.5 3.54416 -2.5 11L 2.5 11ZM 11 2.5C 15.6944 2.5 19.5 6.30558 19.5 11L 24.5 11C 24.5 3.54416 18.4558 -2.5 11 -2.5L 11 2.5Z"/>
<path id="path8_fill" d="M 13.5 6.75C 13.5 10.4779 10.4779 13.5 6.75 13.5C 3.02208 13.5 0 10.4779 0 6.75C 0 3.02208 3.02208 0 6.75 0C 10.4779 0 13.5 3.02208 13.5 6.75Z"/>
<path id="path9_stroke_2x" d="M 9.5 6.75C 9.5 8.26878 8.26878 9.5 6.75 9.5L 6.75 17.5C 12.6871 17.5 17.5 12.6871 17.5 6.75L 9.5 6.75ZM 6.75 9.5C 5.23122 9.5 4 8.26878 4 6.75L -4 6.75C -4 12.6871 0.812939 17.5 6.75 17.5L 6.75 9.5ZM 4 6.75C 4 5.23122 5.23122 4 6.75 4L 6.75 -4C 0.812939 -4 -4 0.812939 -4 6.75L 4 6.75ZM 6.75 4C 8.26878 4 9.5 5.23122 9.5 6.75L 17.5 6.75C 17.5 0.812939 12.6871 -4 6.75 -4L 6.75 4Z"/>
<path id="path10_fill" d="M 22 11C 22 17.0751 17.0751 22 11 22C 4.92487 22 0 17.0751 0 11C 0 4.92487 4.92487 0 11 0C 17.0751 0 22 4.92487 22 11Z"/>
<path id="path11_stroke_2x" d="M 19.5 11C 19.5 15.6944 15.6944 19.5 11 19.5L 11 24.5C 18.4558 24.5 24.5 18.4558 24.5 11L 19.5 11ZM 11 19.5C 6.30558 19.5 2.5 15.6944 2.5 11L -2.5 11C -2.5 18.4558 3.54416 24.5 11 24.5L 11 19.5ZM 2.5 11C 2.5 6.30558 6.30558 2.5 11 2.5L 11 -2.5C 3.54416 -2.5 -2.5 3.54416 -2.5 11L 2.5 11ZM 11 2.5C 15.6944 2.5 19.5 6.30558 19.5 11L 24.5 11C 24.5 3.54416 18.4558 -2.5 11 -2.5L 11 2.5Z"/>
<path id="path12_fill" d="M 14 7C 14 10.866 10.866 14 7 14C 3.13401 14 0 10.866 0 7C 0 3.13401 3.13401 0 7 0C 10.866 0 14 3.13401 14 7Z"/>
<path id="path13_stroke_2x" d="M 10 7C 10 8.65685 8.65685 10 7 10L 7 18C 13.0751 18 18 13.0751 18 7L 10 7ZM 7 10C 5.34315 10 4 8.65685 4 7L -4 7C -4 13.0751 0.924868 18 7 18L 7 10ZM 4 7C 4 5.34315 5.34315 4 7 4L 7 -4C 0.924868 -4 -4 0.924868 -4 7L 4 7ZM 7 4C 8.65685 4 10 5.34315 10 7L 18 7C 18 0.924868 13.0751 -4 7 -4L 7 4Z"/>
<path id="path14_fill" d="M 0 0L 0 0C 12.5525 4.24853 21 16.026 21 29.2779L 21 33L 8.33859 33C 3.96247 33 0.398456 29.4838 0.339321 25.1081L 0 0Z"/>
<path id="path15_stroke_2x" d="M 21 33L 21 34L 22 34L 22 33L 21 33ZM 20 29.2779L 20 33L 22 33L 22 29.2779L 20 29.2779ZM 21 32L 8.33859 32L 8.33859 34L 21 34L 21 32ZM 1.33923 25.0946L 0.999909 -0.0135132L -0.999909 0.0135132L -0.660588 25.1216L 1.33923 25.0946ZM -0.320596 0.947216C 11.8258 5.05829 20 16.4547 20 29.2779L 22 29.2779C 22 15.5972 13.2792 3.43876 0.320596 -0.947216L -0.320596 0.947216ZM 8.33859 32C 4.50949 32 1.39097 28.9233 1.33923 25.0946L -0.660588 25.1216C -0.594061 30.0443 3.41546 34 8.33859 34L 8.33859 32Z"/>
<path id="path16_fill" d="M 0 0L 0 0C 11.8498 3.44556 20 14.3031 20 26.6437L 20 27L 6.33109 27C 3.05418 27 0.38338 24.3709 0.331837 21.0944L 0 0Z"/>
<path id="path17_stroke_2x" d="M 20 27L 20 28L 21 28L 21 27L 20 27ZM 19 26.6437L 19 27L 21 27L 21 26.6437L 19 26.6437ZM 20 26L 6.33109 26L 6.33109 28L 20 28L 20 26ZM 1.33171 21.0786L 0.999876 -0.0157291L -0.999876 0.0157291L -0.66804 21.1101L 1.33171 21.0786ZM -0.279206 0.960231C 11.1435 4.28161 19 14.7479 19 26.6437L 21 26.6437C 21 13.8584 12.5561 2.6095 0.279206 -0.960231L -0.279206 0.960231ZM 6.33109 26C 3.60034 26 1.37467 23.8091 1.33171 21.0786L -0.66804 21.1101C -0.607906 24.9327 2.50803 28 6.33109 28L 6.33109 26Z"/>
<path id="path18_fill" d="M 0 0L 10 0L 10 31L 0 31L 0 0Z"/>
<path id="path19_stroke_2x" d="M 0 0L 0 -1L -1 -1L -1 0L 0 0ZM 10 0L 11 0L 11 -1L 10 -1L 10 0ZM 10 31L 10 32L 11 32L 11 31L 10 31ZM 0 31L -1 31L -1 32L 0 32L 0 31ZM 0 1L 10 1L 10 -1L 0 -1L 0 1ZM 9 0L 9 31L 11 31L 11 0L 9 0ZM 10 30L 0 30L 0 32L 10 32L 10 30ZM 1 31L 1 0L -1 0L -1 31L 1 31Z"/>
<path id="path20_fill" d="M 0 0L 18 0L 18 32L 0 32L 0 0Z"/>
<path id="path21_stroke_2x" d="M 0 0L 0 -1L -1 -1L -1 0L 0 0ZM 18 0L 19 0L 19 -1L 18 -1L 18 0ZM 18 32L 18 33L 19 33L 19 32L 18 32ZM 0 32L -1 32L -1 33L 0 33L 0 32ZM 0 1L 18 1L 18 -1L 0 -1L 0 1ZM 17 0L 17 32L 19 32L 19 0L 17 0ZM 18 31L 0 31L 0 33L 18 33L 18 31ZM 1 32L 1 0L -1 0L -1 32L 1 32Z"/>
<path id="path22_fill" d="M 0 0L 19 0L 19 32L 0 32L 0 0Z"/>
<path id="path23_stroke_2x" d="M 0 0L 0 -1L -1 -1L -1 0L 0 0ZM 19 0L 20 0L 20 -1L 19 -1L 19 0ZM 19 32L 19 33L 20 33L 20 32L 19 32ZM 0 32L -1 32L -1 33L 0 33L 0 32ZM 0 1L 19 1L 19 -1L 0 -1L 0 1ZM 18 0L 18 32L 20 32L 20 0L 18 0ZM 19 31L 0 31L 0 33L 19 33L 19 31ZM 1 32L 1 0L -1 0L -1 32L 1 32Z"/>
<path id="path24_fill" d="M 0.489303 3.70982C 0.550498 3.56448 0.640369 3.43291 0.756782 3.32654C 2.62426 1.62006 6.16809 -0.507359 12.6828 0.108751C 13.1518 0.1531 13.595 0.5578 13.4914 1.01731C 13.455 1.17879 13.3051 1.29335 13.1403 1.2779C 7.14403 0.715589 4.83048 1.73658 1.05588 4.17955C 0.738767 4.38479 0.342723 4.05795 0.489303 3.70982Z"/>
<path id="path25_fill" d="M 0.187036 2.82499C 0.073517 2.26093 0.302572 1.67679 0.794254 1.37795C 3.04519 0.00987361 5.32091 -0.481975 8.56378 0.559861C 9.08528 0.727403 9.49941 1.22721 9.3924 1.76441C 9.37148 1.86943 9.26032 1.93132 9.16049 1.89259C 5.99489 0.664364 3.14733 1.08357 0.362947 2.89768C 0.295051 2.94192 0.203024 2.90443 0.187036 2.82499Z"/>
<path id="path26_fill" d="M 0 0L 13 0L 2.32143 2.35294L 0 16L 0 0Z"/>
<path id="path27_fill" d="M 0 0L 13.0691 0L 2.33377 2.33377L 0 15.8697L 0 0Z"/>
<path id="path28_fill" d="M 0 0L 7 0L 1.25 1.17647L 0 8L 0 0Z"/>
<path id="path29_fill" d="M 1.32558 0C 15.171 4.58564 106.348 4.85538 114.791 0L 114.791 3.53087L 114.791 7.53087C 116.058 7.53087 116.058 14.0309 114.791 14.0309L 114.791 21.5795C 103.647 25.6256 12.4695 25.8954 1.32558 21.5795C -0.441864 21.5795 -0.441862 14.0309 1.32558 14.0309L 1.32558 0Z"/>
<path id="path30_stroke_2x" d="M 1.32558 0L 1.79719 -1.42393L -0.174422 -2.07693L -0.174422 0L 1.32558 0ZM 114.791 0L 116.291 0L 116.291 -2.59307L 114.043 -1.30029L 114.791 0ZM 114.791 21.5795L 115.303 22.9894L 116.291 22.6307L 116.291 21.5795L 114.791 21.5795ZM 1.32558 21.5795L 1.8673 20.1807L 1.6059 20.0795L 1.32558 20.0795L 1.32558 21.5795ZM 114.791 7.53087L 113.291 7.53087L 113.291 9.03087L 114.791 9.03087L 114.791 7.53087ZM 114.791 14.0309L 114.791 12.5309L 113.291 12.5309L 113.291 14.0309L 114.791 14.0309ZM 1.32558 14.0309L 1.32558 15.5309L 2.82558 15.5309L 2.82558 14.0309L 1.32558 14.0309ZM 0.853969 1.42393C 4.54329 2.64584 13.0577 3.52408 23.6246 4.11501C 34.2752 4.71043 47.2751 5.0234 60.0823 5.04038C 72.89 5.05716 85.5564 4.77784 95.5353 4.19063C 100.531 3.89638 104.895 3.52142 108.26 3.06868C 109.95 2.84064 111.439 2.58448 112.617 2.31162C 113.78 2.04143 114.811 1.71894 115.539 1.30029L 114.043 -1.30029C 113.716 -1.11202 113.045 -0.867626 111.938 -0.610581C 110.846 -0.356202 109.496 -0.124763 107.859 0.0955361C 104.567 0.539479 100.315 0.904204 95.359 1.19581C 85.4352 1.78029 72.8589 2.05732 60.0863 2.04038C 47.3132 2.02364 34.3951 1.71283 23.7921 1.11969C 13.1054 0.522067 5.03059 -0.353024 1.79719 -1.42393L 0.853969 1.42393ZM 114.279 20.1695C 113.08 20.6047 110.61 21.0388 107.012 21.4268C 103.457 21.8104 98.9799 22.1328 93.8509 22.3953C 83.5838 22.9212 70.831 23.1985 58.0562 23.2152C 45.2813 23.2322 32.5299 22.9885 22.2642 22.4711C 17.1362 22.2128 12.6619 21.8886 9.10905 21.4937C 5.50997 21.094 3.05312 20.64 1.8673 20.1807L 0.783855 22.9782C 2.38401 23.598 5.21418 24.0796 8.7779 24.4754C 12.3878 24.876 16.9522 25.2072 22.1132 25.4673C 32.4258 25.9867 45.2546 26.232 58.0601 26.2152C 70.8656 26.1983 83.6931 25.9192 94.0043 25.3914C 99.1644 25.1271 103.726 24.7983 107.334 24.4095C 110.898 24.0252 113.715 23.5657 115.303 22.9894L 114.279 20.1695ZM 113.291 0L 113.291 3.53087L 116.291 3.53087L 116.291 0L 113.291 0ZM 113.291 3.53087L 113.291 7.53087L 116.291 7.53087L 116.291 3.53087L 113.291 3.53087ZM 114.791 9.03087C 114.223 9.03087 113.965 8.65172 113.96 8.64383C 113.924 8.60634 113.997 8.70382 114.052 8.92393C 114.185 9.41817 114.243 10.0412 114.241 10.7809C 114.243 11.5205 114.185 12.1436 114.052 12.6378C 113.997 12.8579 113.924 12.9554 113.96 12.9179C 113.965 12.91 114.223 12.5309 114.791 12.5309L 114.791 15.5309C 115.675 15.5309 116.211 14.9486 116.454 14.5852C 116.656 14.2673 116.852 13.7819 116.955 13.3927C 117.139 12.6682 117.24 11.6662 117.241 10.7809C 117.24 9.89551 117.139 8.89357 116.955 8.16906C 116.852 7.77979 116.656 7.29447 116.454 6.9765C 116.211 6.61314 115.675 6.03087 114.791 6.03087L 114.791 9.03087ZM 113.291 14.0309L 113.291 21.5795L 116.291 21.5795L 116.291 14.0309L 113.291 14.0309ZM 1.32558 20.0795C 1.70775 20.0795 1.90437 20.3024 1.91536 20.3161C 1.97766 20.3767 1.8402 20.211 1.76324 19.953C 1.57764 19.3803 1.49745 18.6614 1.5 17.8052C 1.49745 16.9489 1.57764 16.2301 1.76324 15.6573C 1.8402 15.3993 1.97766 15.2336 1.91536 15.2942C 1.90437 15.3079 1.70776 15.5309 1.32558 15.5309L 1.32558 12.5309C 0.501541 12.5309 -0.0816989 12.9897 -0.424083 13.4162C -0.693176 13.7684 -0.956482 14.3137 -1.10045 14.7633C -1.35672 15.606 -1.49746 16.7742 -1.5 17.8052C -1.49746 18.8361 -1.35672 20.0044 -1.10045 20.847C -0.956483 21.2967 -0.693177 21.8419 -0.424084 22.1941C -0.0816987 22.6206 0.501542 23.0795 1.32558 23.0795L 1.32558 20.0795ZM 2.82558 14.0309L 2.82558 0L -0.174422 0L -0.174422 14.0309L 2.82558 14.0309Z"/>
<path id="path31_fill" d="M 2.54837 1.27418C 2.54837 1.9779 1.9779 2.54837 1.27418 2.54837C 0.570472 2.54837 0 1.9779 0 1.27418C 0 0.570472 0.570472 0 1.27418 0C 1.9779 0 2.54837 0.570472 2.54837 1.27418Z"/>
<path id="path32_stroke_2x" d="M 2.09837 1.27418C 2.09837 1.72937 1.72937 2.09837 1.27418 2.09837L 1.27418 2.99837C 2.22642 2.99837 2.99837 2.22642 2.99837 1.27418L 2.09837 1.27418ZM 1.27418 2.09837C 0.819 2.09837 0.45 1.72937 0.45 1.27418L -0.45 1.27418C -0.45 2.22642 0.321944 2.99837 1.27418 2.99837L 1.27418 2.09837ZM 0.45 1.27418C 0.45 0.819 0.819 0.45 1.27418 0.45L 1.27418 -0.45C 0.321944 -0.45 -0.45 0.321944 -0.45 1.27418L 0.45 1.27418ZM 1.27418 0.45C 1.72937 0.45 2.09837 0.819 2.09837 1.27418L 2.99837 1.27418C 2.99837 0.321944 2.22642 -0.45 1.27418 -0.45L 1.27418 0.45Z"/>
<path id="path33_stroke" d="M 2.81226 1.40241L 2.98726 1.40241L 2.98726 1.22741L 2.81226 1.22741L 2.81226 1.40241ZM 0.900982 0.128225L 0.777238 0.251968L 0.777239 0.251969L 0.900982 0.128225ZM 0.26389 2.0395L 0.140146 2.16324L 0.140147 2.16325L 0.26389 2.0395ZM 2.81226 1.22741C 2.21107 1.22741 1.9408 1.07982 1.74146 0.880482C 1.63179 0.771655 1.54048 0.642802 1.43033 0.4926C 1.32027 0.342524 1.19246 0.172837 1.02473 0.00448101L 0.777239 0.251969C 0.928052 0.402158 1.03915 0.551017 1.14809 0.699578C 1.25695 0.848012 1.36473 0.997886 1.49397 1.12797C 1.77245 1.40645 2.13926 1.57741 2.81226 1.57741L 2.81226 1.22741ZM 1.02473 0.00448189C 0.924674 -0.0955715 0.809267 -0.16051 0.681419 -0.172882C 0.552915 -0.185318 0.436987 -0.142213 0.341357 -0.0739063C 0.157909 0.0571287 0.02297 0.297593 -0.0614001 0.550704C -0.145336 0.804746 -0.189743 1.11798 -0.169411 1.39592C -0.147757 1.67743 -0.0597876 1.96331 0.140146 2.16324L 0.387634 1.91576C 0.269024 1.79715 0.197721 1.6052 0.179558 1.36908C 0.160072 1.12938 0.195302 0.88516 0.270639 0.661383C 0.345542 0.436675 0.449512 0.278956 0.544791 0.2109C 0.588525 0.179662 0.621914 0.172994 0.647705 0.17549C 0.674153 0.17805 0.718019 0.192748 0.777238 0.251968L 1.02473 0.00448189ZM 0.140147 2.16325C 0.336731 2.35983 0.562872 2.43142 0.800435 2.41846C 1.0272 2.40608 1.25822 2.31712 1.4795 2.21094C 1.70201 2.10402 1.93183 1.9713 2.1638 1.85216C 2.3958 1.73289 2.6211 1.62985 2.8547 1.57218L 2.76981 1.23263C 2.50582 1.29937 2.24341 1.4178 2.00383 1.54086C 1.76423 1.66404 1.53862 1.7945 1.32807 1.89539C 1.11629 1.99702 0.936643 2.0605 0.78136 2.06898C 0.636876 2.07686 0.509597 2.03772 0.387633 1.91576L 0.140147 2.16325ZM 2.63726 1.40241C 2.63726 1.69246 2.48515 2.46743 2.24806 3.17871C 2.13061 3.53139 1.99888 3.85231 1.85588 4.08969C 1.78625 4.20623 1.72507 4.28802 1.65833 4.34735C 1.5968 4.40303 1.55735 4.41287 1.53808 4.41287L 1.53808 4.76287C 1.67808 4.76287 1.7979 4.69307 1.89315 4.60689C 1.9832 4.52438 2.07632 4.40209 2.156 4.26977C 2.31164 4.00942 2.45864 3.65343 2.5801 3.28939C 2.82082 2.56721 2.98726 1.74945 2.98726 1.40241L 2.63726 1.40241Z"/>
<path id="path34_stroke" d="M 2.81226 1.40241L 2.98726 1.40241L 2.98726 1.22741L 2.81226 1.22741L 2.81226 1.40241ZM 0.900982 0.128225L 0.777238 0.251968L 0.777239 0.251969L 0.900982 0.128225ZM 0.26389 2.0395L 0.140146 2.16324L 0.140147 2.16325L 0.26389 2.0395ZM 2.81226 1.22741C 2.21107 1.22741 1.9408 1.07982 1.74146 0.880482C 1.63179 0.771655 1.54048 0.642802 1.43033 0.4926C 1.32027 0.342524 1.19246 0.172837 1.02473 0.004481L 0.777239 0.251969C 0.928052 0.402158 1.03915 0.551017 1.14809 0.699578C 1.25695 0.848012 1.36473 0.997886 1.49397 1.12797C 1.77245 1.40645 2.13926 1.57741 2.81226 1.57741L 2.81226 1.22741ZM 1.02473 0.00448189C 0.924674 -0.0955715 0.809267 -0.16051 0.681419 -0.172882C 0.552915 -0.185318 0.436987 -0.142213 0.341357 -0.0739063C 0.157909 0.0571287 0.02297 0.297593 -0.0614001 0.550704C -0.145336 0.804746 -0.189743 1.11798 -0.169411 1.39592C -0.147757 1.67743 -0.0597876 1.96331 0.140146 2.16324L 0.387634 1.91576C 0.269024 1.79715 0.197721 1.6052 0.179558 1.36908C 0.160072 1.12938 0.195302 0.88516 0.270639 0.661383C 0.345542 0.436675 0.449512 0.278956 0.544791 0.2109C 0.588525 0.179662 0.621914 0.172994 0.647705 0.17549C 0.674153 0.17805 0.718019 0.192748 0.777238 0.251968L 1.02473 0.00448189ZM 0.140147 2.16325C 0.336731 2.35983 0.562872 2.43142 0.800435 2.41846C 1.0272 2.40608 1.25822 2.31712 1.4795 2.21094C 1.70201 2.10402 1.93183 1.9713 2.1638 1.85216C 2.3958 1.73289 2.6211 1.62985 2.8547 1.57218L 2.76981 1.23263C 2.50582 1.29937 2.24341 1.4178 2.00383 1.54086C 1.76423 1.66404 1.53862 1.7945 1.32807 1.89539C 1.11629 1.99702 0.936644 2.0605 0.78136 2.06898C 0.636876 2.07686 0.509597 2.03772 0.387634 1.91576L 0.140147 2.16325ZM 2.63726 1.40241C 2.63726 1.69246 2.48515 2.46743 2.24806 3.17871C 2.13061 3.53139 1.99888 3.85231 1.85588 4.08969C 1.78625 4.20623 1.72507 4.28802 1.65833 4.34735C 1.5968 4.40303 1.55735 4.41287 1.53808 4.41287L 1.53808 4.76287C 1.67808 4.76287 1.7979 4.69307 1.89315 4.60689C 1.9832 4.52438 2.07632 4.40209 2.156 4.26977C 2.31164 4.00942 2.45864 3.65343 2.5801 3.28939C 2.82082 2.56721 2.98726 1.74945 2.98726 1.40241L 2.63726 1.40241Z"/>
<path id="path35_fill" d="M 2.29614 1.14807C 2.29614 1.78213 1.78213 2.29614 1.14807 2.29614C 0.514008 2.29614 0 1.78213 0 1.14807C 0 0.514008 0.514008 0 1.14807 0C 1.78213 0 2.29614 0.514008 2.29614 1.14807Z"/>
<path id="path36_stroke_2x" d="M 1.84614 1.14807C 1.84614 1.5336 1.5336 1.84614 1.14807 1.84614L 1.14807 2.74614C 2.03066 2.74614 2.74614 2.03066 2.74614 1.14807L 1.84614 1.14807ZM 1.14807 1.84614C 0.762536 1.84614 0.45 1.5336 0.45 1.14807L -0.45 1.14807C -0.45 2.03066 0.26548 2.74614 1.14807 2.74614L 1.14807 1.84614ZM 0.45 1.14807C 0.45 0.762536 0.762536 0.45 1.14807 0.45L 1.14807 -0.45C 0.26548 -0.45 -0.45 0.26548 -0.45 1.14807L 0.45 1.14807ZM 1.14807 0.45C 1.5336 0.45 1.84614 0.762536 1.84614 1.14807L 2.74614 1.14807C 2.74614 0.26548 2.03066 -0.45 1.14807 -0.45L 1.14807 0.45Z"/>
<path id="path37_stroke" d="M 2.53391 1.2636L 2.70891 1.2636L 2.70891 1.0886L 2.53391 1.0886L 2.53391 1.2636ZM 0.811806 0.115534L 0.688062 0.239277L 0.688063 0.239278L 0.811806 0.115534ZM 0.237771 1.83764L 0.114027 1.96138L 0.114028 1.96138L 0.237771 1.83764ZM 2.53391 1.0886C 1.99578 1.0886 1.75704 0.956782 1.58134 0.781087C 1.48349 0.684083 1.40204 0.569024 1.30273 0.433601C 1.20351 0.298304 1.08752 0.144381 0.935549 -0.00821028L 0.688063 0.239278C 0.823112 0.373703 0.922385 0.506797 1.02049 0.640579C 1.11851 0.774234 1.21644 0.910315 1.33385 1.02857C 1.58869 1.28341 1.92397 1.4386 2.53391 1.4386L 2.53391 1.0886ZM 0.93555 -0.00820939C 0.84338 -0.100381 0.735855 -0.161378 0.615643 -0.173011C 0.494775 -0.184709 0.386236 -0.144066 0.297503 -0.0806859C 0.127848 0.0404964 0.00473294 0.261255 -0.071755 0.49072C -0.147808 0.721116 -0.188274 1.00677 -0.169913 1.25909C -0.150229 1.51498 -0.0701423 1.77721 0.114027 1.96138L 0.361515 1.7139C 0.258669 1.61105 0.195248 1.44275 0.179056 1.23224C 0.16154 1.01816 0.192829 0.801529 0.260284 0.601399C 0.327305 0.400337 0.419452 0.262324 0.500937 0.204121C 0.537774 0.177808 0.563774 0.173604 0.581929 0.175361C 0.600741 0.177182 0.636725 0.187939 0.688062 0.239277L 0.93555 -0.00820939ZM 0.114028 1.96138C 0.294848 2.1422 0.503498 2.20831 0.722154 2.19638C 0.930011 2.18504 1.14071 2.10362 1.34055 2.00772C 1.54163 1.91109 1.74892 1.7914 1.95755 1.68425C 2.16621 1.57697 2.36737 1.48488 2.57635 1.43338L 2.49147 1.09383C 2.2521 1.15441 2.01382 1.26188 1.79758 1.37294C 1.58132 1.48413 1.37825 1.60157 1.18913 1.69217C 0.998784 1.78352 0.839456 1.83946 0.703079 1.8469C 0.577503 1.85375 0.467713 1.82009 0.361515 1.71389L 0.114028 1.96138ZM 2.35891 1.2636C 2.35891 1.52212 2.22257 2.21827 2.00912 2.85861C 1.90349 3.17583 1.78556 3.46325 1.65734 3.676C 1.5951 3.78022 1.54155 3.85191 1.48258 3.90422C 1.4288 3.95288 1.39723 3.95878 1.38584 3.95878L 1.38584 4.30878C 1.51797 4.30878 1.62991 4.24292 1.7174 4.16376C 1.79969 4.08826 1.88516 3.97608 1.95746 3.85607C 2.09832 3.62036 2.23153 3.29787 2.34116 2.96929C 2.55824 2.31805 2.70891 1.57912 2.70891 1.2636L 2.35891 1.2636Z"/>
<path id="path38_fill" d="M 2.26747 1.13374C 2.26747 1.75988 1.75988 2.26747 1.13374 2.26747C 0.507591 2.26747 0 1.75988 0 1.13374C 0 0.507591 0.507591 0 1.13374 0C 1.75988 0 2.26747 0.507591 2.26747 1.13374Z"/>
<path id="path39_stroke_2x" d="M 1.81747 1.13374C 1.81747 1.51135 1.51135 1.81747 1.13374 1.81747L 1.13374 2.71747C 2.00841 2.71747 2.71747 2.00841 2.71747 1.13374L 1.81747 1.13374ZM 1.13374 1.81747C 0.756119 1.81747 0.45 1.51135 0.45 1.13374L -0.45 1.13374C -0.45 2.00841 0.259063 2.71747 1.13374 2.71747L 1.13374 1.81747ZM 0.45 1.13374C 0.45 0.756119 0.756119 0.45 1.13374 0.45L 1.13374 -0.45C 0.259063 -0.45 -0.45 0.259063 -0.45 1.13374L 0.45 1.13374ZM 1.13374 0.45C 1.51135 0.45 1.81747 0.756119 1.81747 1.13374L 2.71747 1.13374C 2.71747 0.259063 2.00841 -0.45 1.13374 -0.45L 1.13374 0.45Z"/>
<path id="path40_stroke" d="M 2.50227 1.24783L 2.67727 1.24783L 2.67727 1.07283L 2.50227 1.07283L 2.50227 1.24783ZM 0.801671 0.114091L 0.677927 0.237835L 0.677927 0.237836L 0.801671 0.114091ZM 0.234803 1.8147L 0.111059 1.93844L 0.111059 1.93844L 0.234803 1.8147ZM 2.50227 1.07283C 1.97131 1.07283 1.73615 0.942797 1.56314 0.76979C 1.46664 0.67413 1.3863 0.560639 1.28823 0.426895C 1.19024 0.293278 1.07559 0.141147 0.925414 -0.00965276L 0.677927 0.237836C 0.811184 0.370469 0.909114 0.501771 1.00599 0.633873C 1.10277 0.765848 1.19958 0.900362 1.31566 1.01728C 1.5678 1.26942 1.8995 1.42283 2.50227 1.42283L 2.50227 1.07283ZM 0.925415 -0.00965187C 0.83414 -0.100927 0.727511 -0.161476 0.608167 -0.173026C 0.488167 -0.184639 0.380468 -0.144277 0.292519 -0.0814565C 0.124432 0.038606 0.00266015 0.257125 -0.0729319 0.483902C -0.148089 0.71161 -0.188107 0.994124 -0.16997 1.24353C -0.15051 1.49652 -0.0713192 1.75606 0.111059 1.93844L 0.358547 1.69095C 0.257492 1.5899 0.194967 1.42429 0.178999 1.21669C 0.161707 1.00552 0.192548 0.792024 0.259107 0.594581C 0.325232 0.396207 0.416036 0.260434 0.495952 0.20335C 0.532006 0.177598 0.557166 0.173673 0.574453 0.175346C 0.592397 0.177083 0.627485 0.187393 0.677927 0.237835L 0.925415 -0.00965187ZM 0.111059 1.93844C 0.290088 2.11747 0.49675 2.18296 0.713257 2.17114C 0.918965 2.15991 1.12735 2.07936 1.32476 1.98463C 1.52341 1.88916 1.72813 1.77095 1.93411 1.66516C 2.14012 1.55924 2.33854 1.46841 2.54472 1.4176L 2.45983 1.07805C 2.22326 1.13794 1.98773 1.24416 1.77414 1.35386C 1.56053 1.46368 1.36002 1.57964 1.17334 1.66908C 0.985428 1.75925 0.82841 1.81433 0.694182 1.82166C 0.570754 1.8284 0.462953 1.79536 0.358546 1.69095L 0.111059 1.93844ZM 2.32727 1.24783C 2.32728 1.50276 2.19272 2.18995 1.98196 2.82223C 1.87768 3.13541 1.76132 3.41903 1.63477 3.62898C 1.57337 3.7318 1.52069 3.80234 1.4626 3.85386C 1.4097 3.90172 1.37903 3.90717 1.36854 3.90717L 1.36854 4.25717C 1.49977 4.25717 1.61081 4.19176 1.69742 4.1134C 1.77883 4.0387 1.86344 3.92766 1.9349 3.80905C 2.07407 3.57614 2.20571 3.25746 2.314 2.93291C 2.5284 2.28974 2.67728 1.55976 2.67727 1.24783L 2.32727 1.24783Z"/>
<path id="path41_fill" d="M 2.28094 1.14047C 2.28094 1.77034 1.77034 2.28094 1.14047 2.28094C 0.510606 2.28094 0 1.77034 0 1.14047C 0 0.510606 0.510606 0 1.14047 0C 1.77034 0 2.28094 0.510606 2.28094 1.14047Z"/>
<path id="path42_stroke_2x" d="M 1.83094 1.14047C 1.83094 1.52181 1.52181 1.83094 1.14047 1.83094L 1.14047 2.73094C 2.01886 2.73094 2.73094 2.01886 2.73094 1.14047L 1.83094 1.14047ZM 1.14047 1.83094C 0.759134 1.83094 0.45 1.52181 0.45 1.14047L -0.45 1.14047C -0.45 2.01886 0.262078 2.73094 1.14047 2.73094L 1.14047 1.83094ZM 0.45 1.14047C 0.45 0.759134 0.759134 0.45 1.14047 0.45L 1.14047 -0.45C 0.262078 -0.45 -0.45 0.262078 -0.45 1.14047L 0.45 1.14047ZM 1.14047 0.45C 1.52181 0.45 1.83094 0.759134 1.83094 1.14047L 2.73094 1.14047C 2.73094 0.262078 2.01886 -0.45 1.14047 -0.45L 1.14047 0.45Z"/>
<path id="path43_stroke" d="M 2.51714 1.25524L 2.69214 1.25524L 2.69214 1.08024L 2.51714 1.08024L 2.51714 1.25524ZM 0.806433 0.114769L 0.682689 0.238512L 0.68269 0.238513L 0.806433 0.114769ZM 0.236198 1.82548L 0.112454 1.94922L 0.112454 1.94922L 0.236198 1.82548ZM 2.51714 1.08024C 1.98281 1.08024 1.74596 0.949368 1.57169 0.775098C 1.47456 0.678807 1.3937 0.564579 1.29504 0.430046C 1.19647 0.29564 1.0812 0.142667 0.930176 -0.00897497L 0.68269 0.238513C 0.816789 0.371988 0.91535 0.504132 1.0128 0.637024C 1.11017 0.769789 1.2075 0.905038 1.32421 1.02259C 1.57761 1.27599 1.911 1.43024 2.51714 1.43024L 2.51714 1.08024ZM 0.930177 -0.00897408C 0.838482 -0.10067 0.731432 -0.16143 0.61168 -0.173019C 0.491272 -0.184672 0.383178 -0.144178 0.294861 -0.0810944C 0.126037 0.0394943 0.0036341 0.259066 -0.0723789 0.487105C -0.147957 0.716077 -0.188186 1.00006 -0.169944 1.25084C -0.150378 1.50519 -0.0707662 1.766 0.112454 1.94922L 0.359942 1.70173C 0.258045 1.59984 0.195099 1.43296 0.179026 1.224C 0.161629 1.01146 0.19268 0.79649 0.25966 0.597785C 0.326206 0.398147 0.417641 0.261322 0.498294 0.203712C 0.534716 0.177697 0.560271 0.173641 0.577966 0.175353C 0.596318 0.177129 0.631826 0.187649 0.682689 0.238512L 0.930177 -0.00897408ZM 0.112454 1.94922C 0.292324 2.12909 0.499921 2.19487 0.717438 2.183C 0.924155 2.17172 1.13363 2.09076 1.33218 1.99548C 1.53197 1.89947 1.73789 1.78056 1.94513 1.67413C 2.15238 1.56757 2.35209 1.47615 2.55958 1.42502L 2.4747 1.08547C 2.23681 1.14568 1.99999 1.25249 1.78516 1.36282C 1.5703 1.47329 1.36858 1.58994 1.18076 1.67993C 0.991703 1.77065 0.8336 1.82614 0.698363 1.83352C 0.573925 1.84031 0.46519 1.80698 0.359941 1.70173L 0.112454 1.94922ZM 2.34214 1.25524C 2.34214 1.51186 2.20675 2.20326 1.99473 2.83933C 1.88981 3.1544 1.77271 3.43981 1.64538 3.65107C 1.58358 3.75455 1.53049 3.82563 1.47199 3.87752C 1.41868 3.92576 1.38758 3.93142 1.37667 3.93142L 1.37667 4.28142C 1.50832 4.28142 1.61978 4.2158 1.70681 4.13706C 1.78863 4.06199 1.87365 3.95041 1.9455 3.83115C 2.08547 3.59692 2.21784 3.27644 2.32676 2.95001C 2.54242 2.30304 2.69214 1.56886 2.69214 1.25524L 2.34214 1.25524Z"/>
<path id="path44_stroke" d="M 2.51714 1.25524L 2.69214 1.25524L 2.69214 1.08024L 2.51714 1.08024L 2.51714 1.25524ZM 0.806433 0.114769L 0.682689 0.238512L 0.68269 0.238513L 0.806433 0.114769ZM 0.236198 1.82548L 0.112454 1.94922L 0.112454 1.94922L 0.236198 1.82548ZM 2.51714 1.08024C 1.98281 1.08024 1.74596 0.949368 1.57169 0.775098C 1.47456 0.678807 1.3937 0.564579 1.29504 0.430046C 1.19647 0.29564 1.0812 0.142667 0.930176 -0.00897497L 0.68269 0.238513C 0.816789 0.371988 0.91535 0.504132 1.0128 0.637024C 1.11017 0.769789 1.2075 0.905038 1.32421 1.02259C 1.57761 1.27599 1.911 1.43024 2.51714 1.43024L 2.51714 1.08024ZM 0.930177 -0.00897409C 0.838482 -0.10067 0.731432 -0.16143 0.61168 -0.173019C 0.491272 -0.184672 0.383178 -0.144178 0.294861 -0.0810944C 0.126037 0.0394943 0.00363412 0.259066 -0.0723789 0.487105C -0.147957 0.716077 -0.188186 1.00006 -0.169944 1.25084C -0.150378 1.50519 -0.0707662 1.766 0.112454 1.94922L 0.359942 1.70173C 0.258045 1.59984 0.195099 1.43296 0.179026 1.224C 0.161629 1.01146 0.19268 0.79649 0.25966 0.597785C 0.326206 0.398147 0.417641 0.261322 0.498295 0.203712C 0.534716 0.177697 0.560271 0.173641 0.577966 0.175353C 0.596318 0.177129 0.631826 0.187649 0.682689 0.238512L 0.930177 -0.00897409ZM 0.112454 1.94922C 0.292324 2.12909 0.499921 2.19487 0.717438 2.183C 0.924155 2.17172 1.13363 2.09076 1.33218 1.99548C 1.53197 1.89947 1.73789 1.78056 1.94513 1.67413C 2.15238 1.56757 2.35209 1.47615 2.55958 1.42502L 2.4747 1.08547C 2.23681 1.14568 1.99999 1.25249 1.78516 1.36282C 1.5703 1.47329 1.36858 1.58994 1.18076 1.67993C 0.991703 1.77065 0.833601 1.82614 0.698363 1.83352C 0.573925 1.84031 0.46519 1.80698 0.359941 1.70173L 0.112454 1.94922ZM 2.34214 1.25524C 2.34214 1.51186 2.20675 2.20326 1.99473 2.83933C 1.88981 3.1544 1.77271 3.43981 1.64538 3.65107C 1.58358 3.75455 1.53049 3.82563 1.47199 3.87752C 1.41868 3.92576 1.38758 3.93142 1.37667 3.93142L 1.37667 4.28142C 1.50832 4.28142 1.61978 4.2158 1.70681 4.13706C 1.78863 4.06199 1.87365 3.95041 1.9455 3.83115C 2.08547 3.59692 2.21784 3.27644 2.32676 2.95001C 2.54242 2.30304 2.69214 1.56886 2.69214 1.25524L 2.34214 1.25524Z"/>
<path id="path45_fill" d="M 0.389648 6.08301L 10.7256 6.08301L 10.7256 9.62402L 7.68359 9.62402L 7.68359 17L 3.43164 17L 3.43164 9.62402L 0.389648 9.62402L 0.389648 6.08301Z"/>
<path id="path46_fill" d="M 7.19238 11.4888C 7.09473 11.4399 6.96777 11.4155 6.81152 11.4155C 6.66016 11.4155 6.4917 11.4619 6.30615 11.5547C 6.12061 11.6426 5.9375 11.7646 5.75684 11.9209C 5.37598 12.2529 5.05615 12.6558 4.79736 13.1294C 4.53857 13.603 4.40918 14.04 4.40918 14.4404C 4.40918 14.8359 4.56055 15.1021 4.86328 15.2388C 4.9707 15.2876 5.10254 15.312 5.25879 15.312C 5.41504 15.312 5.57861 15.2656 5.74951 15.1729C 5.92041 15.0752 6.09131 14.9458 6.26221 14.7847C 6.61865 14.4478 6.93115 14.04 7.19971 13.5615C 7.46826 13.0781 7.60254 12.646 7.60254 12.2651C 7.60254 11.8843 7.46582 11.6255 7.19238 11.4888ZM 5.77148 18.271C 4.375 18.271 3.17139 17.8291 2.16064 16.9453C 1.08154 16.0078 0.541992 14.8286 0.541992 13.4077C 0.541992 11.9819 1.04736 10.8174 2.05811 9.91406C 3.06885 9.00586 4.31641 8.55176 5.80078 8.55176C 7.28516 8.55176 8.53271 8.99609 9.54346 9.88477C 10.5542 10.7686 11.062 11.9526 11.0669 13.437C 11.0718 14.3892 10.8301 15.2314 10.3418 15.9639C 9.85352 16.6963 9.20166 17.2627 8.38623 17.6631C 7.5708 18.0635 6.69922 18.2661 5.77148 18.271Z"/>
<path id="path47_fill" d="M 3.7771 19.375L 3.7771 17.0415C 4.00122 17.0679 4.24512 17.1052 4.50879 17.1536C 4.77686 17.2019 5.03613 17.2261 5.28662 17.2261C 5.53711 17.2261 5.76782 17.1975 5.97876 17.1404C 6.19409 17.0833 6.38525 16.9712 6.55225 16.8042C 6.9126 16.4438 7.09497 15.8374 7.09937 14.9849C 6.33032 15.8242 5.39868 16.2439 4.30444 16.2439C 3.2146 16.2483 2.30493 15.9033 1.57544 15.209C 0.850342 14.5146 0.487793 13.5237 0.487793 12.2361C 0.487793 11.3132 0.689941 10.4937 1.09424 9.77734C 1.49854 9.05664 2.04126 8.49634 2.72241 8.09644C 3.40796 7.69653 4.13525 7.49658 4.9043 7.49658C 5.67773 7.49658 6.3457 7.74927 6.9082 8.25464C 7.09277 8.41724 7.25098 8.604 7.38281 8.81494L 8.33203 7.8064L 10.4875 7.8064L 10.4875 16C 10.4919 17.6919 9.72949 18.8037 8.2002 19.3354C 7.58496 19.5508 6.87964 19.6584 6.08423 19.6584C 5.29321 19.6584 4.52417 19.564 3.7771 19.375ZM 6.94116 10.2915C 6.78296 10.1992 6.61597 10.1531 6.44019 10.1531C 6.2688 10.1531 6.10181 10.1882 5.93921 10.2585C 5.60522 10.4036 5.3064 10.6387 5.04272 10.9639C 4.59888 11.478 4.37695 12.0229 4.37695 12.5986C 4.37695 12.9854 4.49121 13.2578 4.71973 13.416C 4.91309 13.5435 5.21191 13.5413 5.61621 13.4094C 6.00293 13.282 6.44458 13.0249 6.94116 12.6382L 6.94116 10.2915Z"/>
<path id="path48_fill" d="M 7.5249 12.8538C 7.5249 12.3811 7.30469 12.1448 6.86426 12.1448C 6.35937 12.1931 6.03174 12.4536 5.88135 12.9263C 5.80615 13.1519 5.75244 13.415 5.72021 13.7158C 5.69336 14.0112 5.65039 14.3281 5.59131 14.6665L 7.35571 14.2717L 7.50879 13.0391L 7.5249 12.8538ZM 6.43726 16.5195C 6.43726 16.5195 6.28955 16.5195 5.99414 16.5195C 5.85449 16.5195 5.72021 16.5142 5.59131 16.5034C 5.59131 17.1426 5.93237 17.4917 6.6145 17.5508C 6.80249 17.5669 6.98511 17.575 7.16235 17.575C 7.6189 17.575 8.19092 17.4702 8.87842 17.2607C 9.57129 17.0513 10.1917 16.7102 10.7395 16.2375L 11.239 18.7432C 10.0413 19.7798 8.2312 20.2981 5.80884 20.2981C 4.41772 20.2981 3.22266 19.8926 2.22363 19.0815C 1.13867 18.1953 0.596191 16.968 0.596191 15.3997C 0.596191 14.218 0.902344 13.1572 1.51465 12.2173C 2.08398 11.3579 2.85474 10.7053 3.8269 10.2595C 4.79907 9.81372 5.84912 9.59082 6.97705 9.59082C 8.43799 9.59082 9.54175 9.9104 10.2883 10.5496C 11.0403 11.1887 11.4136 11.9783 11.4082 12.9182C 11.4082 13.8582 10.9597 14.6934 10.0627 15.4238C 9.16577 16.1543 7.95728 16.5195 6.43726 16.5195Z"/>
<path id="path49_fill" d="M 8.80713 19.2529C 7.7557 19.9668 6.64062 20.3237 5.46191 20.3237C 4.28874 20.3237 3.33415 19.9917 2.59814 19.3276C 1.86214 18.658 1.49414 17.7588 1.49414 16.6299L 1.49414 12.3135L 0.547852 12.3135L 0.547852 9.68213L 1.49414 9.68213L 1.49414 6.89307L 6.45801 6.38672L 6.45801 9.68213L 8.80713 9.68213L 8.80713 12.3135L 6.45801 12.3135L 6.45801 14.9199C 6.45801 15.7002 6.63232 16.2674 6.98096 16.6216C 7.33512 16.9702 7.94385 17.1445 8.80713 17.1445L 8.80713 19.2529Z"/>
<path id="path50_fill" d="M 5.23682 9.87012C 5.896 8.99121 6.89453 8.55176 8.23242 8.55176C 8.61328 8.55176 9.01855 8.63965 9.44824 8.81543C 9.87793 8.99121 10.2515 9.24512 10.5688 9.57715C 11.2524 10.2852 11.5942 11.2227 11.5942 12.3896L 11.5942 18L 7.21436 18L 7.21436 14.0522C 7.21436 13.2661 7.0874 12.6216 6.8335 12.1187C 6.57959 11.6108 6.28174 11.3569 5.93994 11.3569C 5.47119 11.3569 5.23682 11.6768 5.23682 12.3164L 5.23682 18L 0.88623 18L 0.88623 5.67334L 5.23682 5.67334L 5.23682 9.87012Z"/>
<path id="path51_fill" d="M 6.38477 10.9365C 6.38477 10.5355 6.19792 10.335 5.82422 10.335C 5.39583 10.376 5.11784 10.597 4.99023 10.998C 4.92643 11.1895 4.88086 11.4128 4.85352 11.668C 4.83073 11.9186 4.79427 12.1875 4.74414 12.4746L 6.24121 12.1396L 6.37109 11.0938L 6.38477 10.9365ZM 5.46191 14.0469C 5.46191 14.0469 5.33659 14.0469 5.08594 14.0469C 4.96745 14.0469 4.85352 14.0423 4.74414 14.0332C 4.74414 14.5755 5.03353 14.8717 5.6123 14.9219C 5.77181 14.9355 5.92676 14.9424 6.07715 14.9424C 6.46452 14.9424 6.94987 14.8535 7.5332 14.6758C 8.12109 14.498 8.64746 14.2087 9.1123 13.8076L 9.53613 15.9336C 8.51986 16.8132 6.98405 17.2529 4.92871 17.2529C 3.74837 17.2529 2.73438 16.9089 1.88672 16.2207C 0.966146 15.4688 0.505859 14.4274 0.505859 13.0967C 0.505859 12.0941 0.765625 11.194 1.28516 10.3965C 1.76823 9.66732 2.4222 9.11361 3.24707 8.73535C 4.07194 8.3571 4.96289 8.16797 5.91992 8.16797C 7.15951 8.16797 8.09603 8.43913 8.72949 8.98145C 9.36751 9.52376 9.68424 10.1937 9.67969 10.9912C 9.67969 11.7887 9.29915 12.4974 8.53809 13.1172C 7.77702 13.737 6.75163 14.0469 5.46191 14.0469Z"/>
<path id="path52_fill" d="M 6.9043 11.709C 6.48503 11.709 6.05436 11.8617 5.6123 12.167C 5.17025 12.4723 4.94694 12.7617 4.94238 13.0352L 4.94238 17L 0.827148 17L 0.827148 8.50293L 4.94238 8.50293L 4.94238 9.41211C 5.1748 9.0612 5.46191 8.78092 5.80371 8.57129C 6.15007 8.36165 6.51693 8.23633 6.9043 8.19531L 6.9043 11.709Z"/>
</defs>
</svg>
