<svg width="144" height="125" viewBox="0 0 144 125" version="1.1" xmlns="http://www.w3.org/2000/svg" xmlns:xlink="http://www.w3.org/1999/xlink">
<title>civic-icon-c</title>
<desc>Created using Figma</desc>
<g id="Canvas" transform="translate(123 26)">
<g id="civic-icon-c">
<g id="backing">
<g id="Ellipse 2">
<use xlink:href="#path0_fill" transform="translate(-112 -26)" fill="#FF517A"/>
</g>
</g>
<g id="city hall">
<g id="building">
<g id="building">
<mask id="mask0_outline_ins">
<use xlink:href="#path1_fill" fill="white" transform="translate(-122 10.2754)"/>
</mask>
<g mask="url(#mask0_outline_ins)">
<use xlink:href="#path2_stroke_2x" transform="translate(-122 10.2754)" fill="#1C1C1C"/>
</g>
</g>
<g id="Rectangle">
<use xlink:href="#path3_fill" transform="translate(-39.7703 38.3267)" fill="#1C1C1C"/>
</g>
<g id="Rectangle">
<use xlink:href="#path3_fill" transform="translate(-69.4917 23.4741)" fill="#1C1C1C"/>
</g>
<g id="Rectangle">
<use xlink:href="#path3_fill" transform="translate(-69.4917 38.3267)" fill="#1C1C1C"/>
</g>
<g id="Rectangle">
<use xlink:href="#path3_fill" transform="translate(-54.631 23.4741)" fill="#1C1C1C"/>
</g>
<g id="Rectangle">
<use xlink:href="#path3_fill" transform="translate(-54.631 38.3267)" fill="#1C1C1C"/>
</g>
<g id="Rectangle">
<use xlink:href="#path3_fill" transform="translate(-39.7703 23.4741)" fill="#1C1C1C"/>
</g>
<g id="Rectangle">
<use xlink:href="#path3_fill" transform="translate(-15.8672 23.6667)" fill="#1C1C1C"/>
</g>
<g id="Rectangle">
<use xlink:href="#path3_fill" transform="translate(-4.19976 23.6667)" fill="#1C1C1C"/>
</g>
<g id="Rectangle">
<use xlink:href="#path3_fill" transform="translate(-4.19976 38.5193)" fill="#1C1C1C"/>
</g>
<g id="Rectangle">
<use xlink:href="#path3_fill" transform="translate(-104.747 23.6667)" fill="#1C1C1C"/>
</g>
<g id="Rectangle">
<use xlink:href="#path3_fill" transform="translate(7.46783 23.6667)" fill="#1C1C1C"/>
</g>
<g id="Rectangle">
<use xlink:href="#path3_fill" transform="translate(-15.8672 38.5193)" fill="#1C1C1C"/>
</g>
<g id="Rectangle">
<use xlink:href="#path3_fill" transform="translate(7.46783 38.5193)" fill="#1C1C1C"/>
</g>
<g id="Rectangle">
<use xlink:href="#path3_fill" transform="translate(-116.414 23.6667)" fill="#1C1C1C"/>
</g>
<g id="Rectangle">
<use xlink:href="#path3_fill" transform="translate(-93.0792 23.6667)" fill="#1C1C1C"/>
</g>
<g id="Rectangle">
<use xlink:href="#path3_fill" transform="translate(-104.494 57.3968)" fill="#1C1C1C"/>
</g>
<g id="Rectangle">
<use xlink:href="#path3_fill" transform="translate(-116.162 57.3968)" fill="#1C1C1C"/>
</g>
<g id="Rectangle">
<use xlink:href="#path3_fill" transform="translate(-92.8266 57.3968)" fill="#1C1C1C"/>
</g>
<g id="Rectangle">
<use xlink:href="#path3_fill" transform="translate(-4.39928 57.3968)" fill="#1C1C1C"/>
</g>
<g id="Rectangle">
<use xlink:href="#path3_fill" transform="translate(-16.0667 57.3968)" fill="#1C1C1C"/>
</g>
<g id="Rectangle">
<use xlink:href="#path3_fill" transform="translate(7.26831 57.3968)" fill="#1C1C1C"/>
</g>
<g id="Rectangle">
<use xlink:href="#path3_fill" transform="translate(-104.747 38.5193)" fill="#1C1C1C"/>
</g>
<g id="Rectangle">
<use xlink:href="#path3_fill" transform="translate(-116.414 38.5193)" fill="#1C1C1C"/>
</g>
<g id="Rectangle">
<use xlink:href="#path3_fill" transform="translate(-93.0792 38.5193)" fill="#1C1C1C"/>
</g>
<g id="column-top">
<g id="Rectangle 3">
<use xlink:href="#path4_fill" transform="translate(-59.912 22.5572)" fill="#1C1C1C"/>
</g>
<g id="Rectangle 4">
<use xlink:href="#path5_fill" transform="translate(-60.9561 20)" fill="#1C1C1C"/>
</g>
</g>
<g id="column-top">
<g id="Rectangle 3">
<use xlink:href="#path6_fill" transform="translate(-75.1513 22.5517)" fill="#1C1C1C"/>
</g>
<g id="Rectangle 4">
<use xlink:href="#path7_fill" transform="translate(-76.1954 20)" fill="#1C1C1C"/>
</g>
</g>
<g id="column-top">
<g id="Rectangle 3">
<use xlink:href="#path8_fill" transform="translate(-120.973 22.65)" fill="#1C1C1C"/>
</g>
<g id="Rectangle 4">
<use xlink:href="#path9_fill" transform="translate(-122.035 20)" fill="#1C1C1C"/>
</g>
</g>
<g id="Group">
<g id="Rectangle 3">
<use xlink:href="#path10_fill" transform="translate(-23 22.44)" fill="#1C1C1C"/>
</g>
<g id="Rectangle 4">
<use xlink:href="#path11_fill" transform="translate(-23.6875 20)" fill="#1C1C1C"/>
</g>
</g>
<g id="column-top">
<g id="Rectangle 3">
<use xlink:href="#path12_fill" transform="translate(17.55 22.44)" fill="#1C1C1C"/>
</g>
<g id="Rectangle 4">
<use xlink:href="#path13_fill" transform="translate(16.5312 20)" fill="#1C1C1C"/>
</g>
</g>
<g id="Group">
<g id="Rectangle 3">
<use xlink:href="#path10_fill" transform="translate(-83 22.55)" fill="#1C1C1C"/>
</g>
<g id="Rectangle 4">
<use xlink:href="#path7_fill" transform="translate(-84.0156 20)" fill="#1C1C1C"/>
</g>
</g>
<g id="doors">
<g id="Rectangle">
<use xlink:href="#path14_fill" transform="translate(-54.6309 57.3969)" fill="#1C1C1C"/>
</g>
<g id="Group">
<g id="Vector">
<use xlink:href="#path15_stroke" transform="translate(-49.3828 64.9566)" fill="#FF4F79"/>
</g>
<g id="Vector">
<use xlink:href="#path15_stroke" transform="matrix(-1 0 0 1 -51.0586 64.9566)" fill="#FF4F79"/>
</g>
</g>
<g id="Rectangle">
<use xlink:href="#path14_fill" transform="translate(-69.4917 57.3969)" fill="#1C1C1C"/>
</g>
<g id="Rectangle">
<use xlink:href="#path14_fill" transform="translate(-39.2789 57.3969)" fill="#1C1C1C"/>
</g>
<g id="Group">
<g id="Vector">
<use xlink:href="#path15_stroke" transform="translate(-64.1855 64.9566)" fill="#FF4F79"/>
</g>
<g id="Vector">
<use xlink:href="#path15_stroke" transform="matrix(-1 0 0 1 -65.8613 64.9566)" fill="#FF4F79"/>
</g>
</g>
<g id="Group">
<g id="Vector">
<use xlink:href="#path15_stroke" transform="translate(-34.0215 64.9566)" fill="#FF4F79"/>
</g>
<g id="Vector">
<use xlink:href="#path15_stroke" transform="matrix(-1 0 0 1 -35.6973 64.9566)" fill="#FF4F79"/>
</g>
</g>
<g id="lightpost">
<g id="Rectangle 8">
<use xlink:href="#path16_fill" transform="translate(-58.3177 61.7848)" fill="#1C1C1C"/>
</g>
<g id="Ellipse">
<mask id="mask1_outline_ins">
<use xlink:href="#path17_fill" fill="white" transform="translate(-59.1752 59.2305)"/>
</mask>
<g mask="url(#mask1_outline_ins)">
<use xlink:href="#path18_stroke_2x" transform="translate(-59.1752 59.2305)" fill="#1C1C1C"/>
</g>
</g>
</g>
<g id="lightpost">
<g id="Ellipse">
<mask id="mask2_outline_ins">
<use xlink:href="#path17_fill" fill="white" transform="translate(-44.3143 59.2305)"/>
</mask>
<g mask="url(#mask2_outline_ins)">
<use xlink:href="#path18_stroke_2x" transform="translate(-44.3143 59.2305)" fill="#1C1C1C"/>
</g>
</g>
<g id="Rectangle 8">
<use xlink:href="#path19_fill" transform="translate(-43.4574 61.7393)" fill="#1C1C1C"/>
</g>
</g>
</g>
<g id="column-top">
<g id="Rectangle 3">
<use xlink:href="#path4_fill" transform="translate(-44.99 22.5572)" fill="#1C1C1C"/>
</g>
<g id="Rectangle 4">
<use xlink:href="#path20_fill" transform="translate(-46.0166 20)" fill="#1C1C1C"/>
</g>
</g>
<g id="column-top">
<g id="Rectangle 3">
<use xlink:href="#path6_fill" transform="translate(-29.364 22.5517)" fill="#1C1C1C"/>
</g>
<g id="Rectangle 4">
<use xlink:href="#path21_fill" transform="translate(-30.3554 20)" fill="#1C1C1C"/>
</g>
</g>
<g id="Rectangle 5">
<use xlink:href="#path22_fill" transform="translate(-81.4661 10.6384)" fill="#FF4F79"/>
<mask id="mask3_outline_ins">
<use xlink:href="#path22_fill" fill="white" transform="translate(-81.4661 10.6384)"/>
</mask>
<g mask="url(#mask3_outline_ins)">
<use xlink:href="#path23_stroke_2x" transform="translate(-81.4661 10.6384)" fill="#1C1C1C"/>
</g>
</g>
<g id="Rectangle 5">
<use xlink:href="#path22_fill" transform="translate(-28.3797 10.6384)" fill="#FF4F79"/>
<mask id="mask4_outline_ins">
<use xlink:href="#path22_fill" fill="white" transform="translate(-28.3797 10.6384)"/>
</mask>
<g mask="url(#mask4_outline_ins)">
<use xlink:href="#path23_stroke_2x" transform="translate(-28.3797 10.6384)" fill="#1C1C1C"/>
</g>
</g>
<g id="Rectangle 12">
<use xlink:href="#path24_fill" transform="translate(-84 11.0001)" fill="#FF4F79"/>
</g>
<g id="Rectangle 12">
<use xlink:href="#path24_fill" transform="translate(-29 11.0001)" fill="#FF4F79"/>
</g>
<g id="buildingtop">
<g id="Rectangle 6">
<use xlink:href="#path25_fill" transform="translate(-83.6155 0.987841)" fill="#FF4F79"/>
<mask id="mask5_outline_out">
<rect id="mask5_outline_inv" fill="white" x="-2" y="-2" width="72" height="14" transform="translate(-83.6155 0.987841)"/>
<use xlink:href="#path25_fill" fill="black" transform="translate(-83.6155 0.987841)"/>
</mask>
<g mask="url(#mask5_outline_out)">
<use xlink:href="#path26_stroke_2x" transform="translate(-83.6155 0.987841)" fill="#1C1C1C"/>
</g>
</g>
<g id="Rectangle 7">
<use xlink:href="#path27_fill" transform="translate(-69.4713 5.43404)" fill="#1C1C1C"/>
</g>
<g id="Rectangle 7">
<use xlink:href="#path27_fill" transform="translate(-64.2439 5.43404)" fill="#1C1C1C"/>
</g>
<g id="Rectangle 7">
<use xlink:href="#path27_fill" transform="translate(-54.5891 5.43404)" fill="#1C1C1C"/>
</g>
<g id="Rectangle 7">
<use xlink:href="#path27_fill" transform="translate(-49.3617 5.43404)" fill="#1C1C1C"/>
</g>
<g id="Rectangle 7">
<use xlink:href="#path27_fill" transform="translate(-39.707 5.43404)" fill="#1C1C1C"/>
</g>
<g id="Rectangle 7">
<use xlink:href="#path27_fill" transform="translate(-34.4796 5.43404)" fill="#1C1C1C"/>
</g>
<g id="Rectangle 9">
<use xlink:href="#path28_fill" transform="translate(-86.04 -2.35999)" fill="#FF4F79"/>
<mask id="mask6_outline_out">
<rect id="mask6_outline_inv" fill="white" x="-2" y="-2" width="76" height="8" transform="translate(-86.04 -2.35999)"/>
<use xlink:href="#path28_fill" fill="black" transform="translate(-86.04 -2.35999)"/>
</mask>
<g mask="url(#mask6_outline_out)">
<use xlink:href="#path29_stroke_2x" transform="translate(-86.04 -2.35999)" fill="#1C1C1C"/>
</g>
</g>
</g>
</g>
<g id="Rectangle 10">
<mask id="mask7_outline_ins">
<use xlink:href="#path30_fill" fill="white" transform="translate(-121 48)"/>
</mask>
<g mask="url(#mask7_outline_ins)">
<use xlink:href="#path31_stroke_2x" transform="translate(-121 48)" fill="#1C1C1C"/>
</g>
</g>
<g id="Rectangle 10">
<mask id="mask8_outline_ins">
<use xlink:href="#path32_fill" fill="white" transform="translate(-122 66)"/>
</mask>
<g mask="url(#mask8_outline_ins)">
<use xlink:href="#path33_stroke_2x" transform="translate(-122 66)" fill="#1C1C1C"/>
</g>
</g>
<g id="Rectangle 10">
<mask id="mask9_outline_ins">
<use xlink:href="#path34_fill" fill="white" transform="translate(-20.336 48.2174)"/>
</mask>
<g mask="url(#mask9_outline_ins)">
<use xlink:href="#path35_stroke_2x" transform="translate(-20.336 48.2174)" fill="#1C1C1C"/>
</g>
</g>
<g id="Rectangle 10">
<mask id="mask10_outline_ins">
<use xlink:href="#path32_fill" fill="white" transform="translate(-21 66)"/>
</mask>
<g mask="url(#mask10_outline_ins)">
<use xlink:href="#path33_stroke_2x" transform="translate(-21 66)" fill="#1C1C1C"/>
</g>
</g>
<g id="Rectangle 10">
<use xlink:href="#path36_fill" transform="translate(-72.8438 48)" fill="#FF4F79"/>
<mask id="mask11_outline_ins">
<use xlink:href="#path36_fill" fill="white" transform="translate(-72.8438 48)"/>
</mask>
<g mask="url(#mask11_outline_ins)">
<use xlink:href="#path37_stroke_2x" transform="translate(-72.8438 48)" fill="#1C1C1C"/>
</g>
</g>
<g id="Rectangle 11">
<mask id="mask12_outline_ins">
<use xlink:href="#path38_fill" fill="white" transform="translate(-122 3.00006)"/>
</mask>
<g mask="url(#mask12_outline_ins)">
<use xlink:href="#path39_stroke_2x" transform="translate(-122 3.00006)" fill="#1C1C1C"/>
</g>
</g>
<g id="Rectangle 11">
<mask id="mask13_outline_ins">
<use xlink:href="#path38_fill" fill="white" transform="translate(13 3.00006)"/>
</mask>
<g mask="url(#mask13_outline_ins)">
<use xlink:href="#path39_stroke_2x" transform="translate(13 3.00006)" fill="#1C1C1C"/>
</g>
</g>
<g id="Rectangle 10">
<mask id="mask14_outline_ins">
<use xlink:href="#path40_fill" fill="white" transform="translate(-122 10)"/>
</mask>
<g mask="url(#mask14_outline_ins)">
<use xlink:href="#path41_stroke_2x" transform="translate(-122 10)" fill="#1C1C1C"/>
</g>
</g>
<g id="MUNICIPAL BUILDING">
<use xlink:href="#path42_fill" transform="translate(-89 12)"/>
</g>
</g>
</g>
</g>
<defs>
<path id="path0_fill" d="M 125 62.5C 125 97.0178 97.0178 125 62.5 125C 27.9822 125 0 97.0178 0 62.5C 0 27.9822 27.9822 0 62.5 0C 97.0178 0 125 27.9822 125 62.5Z"/>
<path id="path1_fill" d="M 0 0L 143 0L 143 64.7246L 0 64.7246L 0 0Z"/>
<path id="path2_stroke_2x" d="M 0 0L 0 -2L -2 -2L -2 0L 0 0ZM 143 0L 145 0L 145 -2L 143 -2L 143 0ZM 143 64.7246L 143 66.7246L 145 66.7246L 145 64.7246L 143 64.7246ZM 0 64.7246L -2 64.7246L -2 66.7246L 0 66.7246L 0 64.7246ZM 0 2L 143 2L 143 -2L 0 -2L 0 2ZM 141 0L 141 64.7246L 145 64.7246L 145 0L 141 0ZM 143 62.7246L 0 62.7246L 0 66.7246L 143 66.7246L 143 62.7246ZM 2 64.7246L 2 0L -2 0L -2 64.7246L 2 64.7246Z"/>
<path id="path3_fill" d="M 0 0L 8.96555 0L 8.96555 10.513L 0 10.513L 0 0Z"/>
<path id="path4_fill" d="M 0 0L 4.54418 0L 4.54418 26.2825L 0 26.2825C 0 16.0185 0 10.264 0 0Z"/>
<path id="path5_fill" d="M 0.351353 0L 6.24651 0C 7.81242 1.34469 4.86484 1.85425 5.57103 2.55715L 1.02684 2.55715C 1.79444 1.88481 -0.938212 1.49749 0.351353 0Z"/>
<path id="path6_fill" d="M 0 0L 4.54418 0L 4.54418 51.28L 0 51.28C 0 31.2539 0 20.0261 0 0Z"/>
<path id="path7_fill" d="M 0.351353 0L 6.24651 0C 7.81242 1.34469 4.86484 1.84879 5.57103 2.5517L 1.02684 2.5517C 1.79444 1.87935 -0.938212 1.49749 0.351353 0Z"/>
<path id="path8_fill" d="M 0 0L 3.35156 0L 3.35156 50.78L 0 50.78C 0 30.9492 0 19.8308 0 0Z"/>
<path id="path9_fill" d="M 0.347566 0L 5.03516 0C 6.60106 1.34469 3.69245 1.94486 4.39864 2.64777L 1.06202 2.64777C 1.82962 1.97542 -0.941999 1.49749 0.347566 0Z"/>
<path id="path10_fill" d="M 0 0L 5 0L 5 51L 0 51C 0 31.0833 0 19.9167 0 0Z"/>
<path id="path11_fill" d="M 0.351353 0L 6.24651 0C 7.81242 1.34469 4.86484 1.74198 5.57103 2.44488L 1.02684 2.44488C 1.79444 1.77254 -0.938212 1.49749 0.351353 0Z"/>
<path id="path12_fill" d="M 0 0L 3 0L 3 52L 0 52C 0 31.6927 0 20.3073 0 0Z"/>
<path id="path13_fill" d="M 0.351353 0L 3.97442 0C 5.54032 1.34469 2.59274 1.74198 3.29893 2.44488L 1.02684 2.44488C 1.79444 1.77254 -0.938212 1.49749 0.351353 0Z"/>
<path id="path14_fill" d="M 0 0L 8.96555 0L 8.96555 17.6032L 0 17.6032L 0 0Z"/>
<path id="path15_stroke" d="M 0.433594 0.418473L 0.433594 2.65036L 0.683594 2.65036L 0.683594 0.418473L 0.433594 0.418473ZM 0.683594 0.418473C 0.683594 0.106014 0.518837 -0.125 0.279297 -0.125C 0.0397567 -0.125 -0.125 0.106013 -0.125 0.418473L 0.125 0.418473C 0.125 0.172968 0.23954 0.125 0.279297 0.125C 0.319054 0.125 0.433594 0.172969 0.433594 0.418473L 0.683594 0.418473ZM 0.433594 2.65036C 0.433594 2.89587 0.319052 2.94384 0.279297 2.94384C 0.239542 2.94384 0.125 2.89587 0.125 2.65036L -0.125 2.65036C -0.125 2.96282 0.0397548 3.19384 0.279297 3.19384C 0.518839 3.19384 0.683594 2.96282 0.683594 2.65036L 0.433594 2.65036Z"/>
<path id="path16_fill" d="M 0.00241846 6.34179e-06L 1.35339 6.34179e-06C 1.3841 1.61974 1.07701 2.855 1.35334 3.19117C -1.01086 4.53586 2.39728 4.56642 0.00236905 3.19117C 0.248001 2.67163 -0.0282845 1.61974 0.00241846 6.34179e-06Z"/>
<path id="path17_fill" d="M 3.07039 1.52805C 3.07039 2.37197 2.38306 3.05611 1.5352 3.05611C 0.687331 3.05611 0 2.37197 0 1.52805C 0 0.684133 0.687331 0 1.5352 0C 2.38306 0 3.07039 0.684133 3.07039 1.52805Z"/>
<path id="path18_stroke_2x" d="M 2.57039 1.52805C 2.57039 2.09363 2.10912 2.55611 1.5352 2.55611L 1.5352 3.55611C 2.657 3.55611 3.57039 2.65031 3.57039 1.52805L 2.57039 1.52805ZM 1.5352 2.55611C 0.961272 2.55611 0.5 2.09363 0.5 1.52805L -0.5 1.52805C -0.5 2.65031 0.41339 3.55611 1.5352 3.55611L 1.5352 2.55611ZM 0.5 1.52805C 0.5 0.962471 0.961272 0.5 1.5352 0.5L 1.5352 -0.5C 0.41339 -0.5 -0.5 0.405794 -0.5 1.52805L 0.5 1.52805ZM 1.5352 0.5C 2.10912 0.5 2.57039 0.962471 2.57039 1.52805L 3.57039 1.52805C 3.57039 0.405794 2.657 -0.5 1.5352 -0.5L 1.5352 0.5Z"/>
<path id="path19_fill" d="M 0.00250564 2.12669e-05L 1.35348 2.12669e-05C 1.38418 1.61976 1.07735 2.90055 1.35368 3.23672C -1.01052 4.5814 2.39762 4.61197 0.00270812 3.23672C 0.24834 2.71718 -0.0281973 1.61976 0.00250564 2.12669e-05Z"/>
<path id="path20_fill" d="M 0.351353 0L 6.24651 0C 7.81242 1.34469 4.86484 1.85425 5.57103 2.55716L 1.02684 2.55716C 1.79444 1.88482 -0.938212 1.49749 0.351353 0Z"/>
<path id="path21_fill" d="M 0.355347 0L 6.25051 0C 7.81641 1.34469 4.82956 1.84879 5.53575 2.5517L 0.991563 2.5517C 1.75916 1.87935 -0.934218 1.49749 0.355347 0Z"/>
<path id="path22_fill" d="M 0 0L 9.27259 0L 9.27259 64.3616L 0 64.3616L 0 0Z"/>
<path id="path23_stroke_2x" d="M 0 0L 0 -2L -2 -2L -2 0L 0 0ZM 9.27259 0L 11.2726 0L 11.2726 -2L 9.27259 -2L 9.27259 0ZM 9.27259 64.3616L 9.27259 66.3616L 11.2726 66.3616L 11.2726 64.3616L 9.27259 64.3616ZM 0 64.3616L -2 64.3616L -2 66.3616L 0 66.3616L 0 64.3616ZM 0 2L 9.27259 2L 9.27259 -2L 0 -2L 0 2ZM 7.27259 0L 7.27259 64.3616L 11.2726 64.3616L 11.2726 0L 7.27259 0ZM 9.27259 62.3616L 0 62.3616L 0 66.3616L 9.27259 66.3616L 9.27259 62.3616ZM 2 64.3616L 2 0L -2 0L -2 64.3616L 2 64.3616Z"/>
<path id="path24_fill" d="M 0 0L 13 0L 13 8L 0 8L 0 0Z"/>
<path id="path25_fill" d="M 0 0L 67.0312 0L 67.0312 9.29056L 0 9.29056L 0 0Z"/>
<path id="path26_stroke_2x" d="M 0 0L 0 -2L -2 -2L -2 0L 0 0ZM 67.0312 0L 69.0312 0L 69.0312 -2L 67.0312 -2L 67.0312 0ZM 67.0312 9.29056L 67.0312 11.2906L 69.0312 11.2906L 69.0312 9.29056L 67.0312 9.29056ZM 0 9.29056L -2 9.29056L -2 11.2906L 0 11.2906L 0 9.29056ZM 0 2L 67.0312 2L 67.0312 -2L 0 -2L 0 2ZM 65.0312 0L 65.0312 9.29056L 69.0312 9.29056L 69.0312 0L 65.0312 0ZM 67.0312 7.29056L 0 7.29056L 0 11.2906L 67.0312 11.2906L 67.0312 7.29056ZM 2 9.29056L 2 0L -2 0L -2 9.29056L 2 9.29056Z"/>
<path id="path27_fill" d="M 0 0L 3.75129 0L 3.75129 3.72845L 0 3.72845L 0 0Z"/>
<path id="path28_fill" d="M 0 0L 71.59 0L 71.59 3.34783L 0 3.34783L 0 0Z"/>
<path id="path29_stroke_2x" d="M 0 0L 0 -2L -2 -2L -2 0L 0 0ZM 71.59 0L 73.59 0L 73.59 -2L 71.59 -2L 71.59 0ZM 71.59 3.34783L 71.59 5.34783L 73.59 5.34783L 73.59 3.34783L 71.59 3.34783ZM 0 3.34783L -2 3.34783L -2 5.34783L 0 5.34783L 0 3.34783ZM 0 2L 71.59 2L 71.59 -2L 0 -2L 0 2ZM 69.59 0L 69.59 3.34783L 73.59 3.34783L 73.59 0L 69.59 0ZM 71.59 1.34783L 0 1.34783L 0 5.34783L 71.59 5.34783L 71.59 1.34783ZM 2 3.34783L 2 0L -2 0L -2 3.34783L 2 3.34783Z"/>
<path id="path30_fill" d="M 0 0L 41 0L 41 10L 0 10L 0 0Z"/>
<path id="path31_stroke_2x" d="M 0 0L 0 -2L -2 -2L -2 0L 0 0ZM 41 0L 43 0L 43 -2L 41 -2L 41 0ZM 41 10L 41 12L 43 12L 43 10L 41 10ZM 0 10L -2 10L -2 12L 0 12L 0 10ZM 0 2L 41 2L 41 -2L 0 -2L 0 2ZM 39 0L 39 10L 43 10L 43 0L 39 0ZM 41 8L 0 8L 0 12L 41 12L 41 8ZM 2 10L 2 0L -2 0L -2 10L 2 10Z"/>
<path id="path32_fill" d="M 0 0L 42 0L 42 9L 0 9L 0 0Z"/>
<path id="path33_stroke_2x" d="M 0 0L 0 -2L -2 -2L -2 0L 0 0ZM 42 0L 44 0L 44 -2L 42 -2L 42 0ZM 42 9L 42 11L 44 11L 44 9L 42 9ZM 0 9L -2 9L -2 11L 0 11L 0 9ZM 0 2L 42 2L 42 -2L 0 -2L 0 2ZM 40 0L 40 9L 44 9L 44 0L 40 0ZM 42 7L 0 7L 0 11L 42 11L 42 7ZM 2 9L 2 0L -2 0L -2 9L 2 9Z"/>
<path id="path34_fill" d="M 0 0L 40.2188 0L 40.2188 10.0435L 0 10.0435L 0 0Z"/>
<path id="path35_stroke_2x" d="M 0 0L 0 -2L -2 -2L -2 0L 0 0ZM 40.2188 0L 42.2188 0L 42.2188 -2L 40.2188 -2L 40.2188 0ZM 40.2188 10.0435L 40.2188 12.0435L 42.2188 12.0435L 42.2188 10.0435L 40.2188 10.0435ZM 0 10.0435L -2 10.0435L -2 12.0435L 0 12.0435L 0 10.0435ZM 0 2L 40.2188 2L 40.2188 -2L 0 -2L 0 2ZM 38.2188 0L 38.2188 10.0435L 42.2188 10.0435L 42.2188 0L 38.2188 0ZM 40.2188 8.04348L 0 8.04348L 0 12.0435L 40.2188 12.0435L 40.2188 8.04348ZM 2 10.0435L 2 0L -2 0L -2 10.0435L 2 10.0435Z"/>
<path id="path36_fill" d="M 0 0L 45.8047 0L 45.8047 10.0435L 0 10.0435L 0 0Z"/>
<path id="path37_stroke_2x" d="M 0 0L 0 -2L -2 -2L -2 0L 0 0ZM 45.8047 0L 47.8047 0L 47.8047 -2L 45.8047 -2L 45.8047 0ZM 45.8047 10.0435L 45.8047 12.0435L 47.8047 12.0435L 47.8047 10.0435L 45.8047 10.0435ZM 0 10.0435L -2 10.0435L -2 12.0435L 0 12.0435L 0 10.0435ZM 0 2L 45.8047 2L 45.8047 -2L 0 -2L 0 2ZM 43.8047 0L 43.8047 10.0435L 47.8047 10.0435L 47.8047 0L 43.8047 0ZM 45.8047 8.04348L 0 8.04348L 0 12.0435L 45.8047 12.0435L 45.8047 8.04348ZM 2 10.0435L 2 0L -2 0L -2 10.0435L 2 10.0435Z"/>
<path id="path38_fill" d="M 0 0L 8 0L 8 9L 0 9L 0 3.6L 0 0Z"/>
<path id="path39_stroke_2x" d="M 0 0L 0 -2L -2 -2L -2 0L 0 0ZM 8 0L 10 0L 10 -2L 8 -2L 8 0ZM 8 9L 8 11L 10 11L 10 9L 8 9ZM 0 9L -2 9L -2 11L 0 11L 0 9ZM 0 2L 8 2L 8 -2L 0 -2L 0 2ZM 6 0L 6 9L 10 9L 10 0L 6 0ZM 8 7L 0 7L 0 11L 8 11L 8 7ZM 2 9L 2 3.6L -2 3.6L -2 9L 2 9ZM 2 3.6L 2 0L -2 0L -2 3.6L 2 3.6Z"/>
<path id="path40_fill" d="M 0 0L 143 0L 143 10L 0 10L 0 0Z"/>
<path id="path41_stroke_2x" d="M 0 0L 0 -2L -2 -2L -2 0L 0 0ZM 143 0L 145 0L 145 -2L 143 -2L 143 0ZM 143 10L 143 12L 145 12L 145 10L 143 10ZM 0 10L -2 10L -2 12L 0 12L 0 10ZM 0 2L 143 2L 143 -2L 0 -2L 0 2ZM 141 0L 141 10L 145 10L 145 0L 141 0ZM 143 8L 0 8L 0 12L 143 12L 143 8ZM 2 10L 2 0L -2 0L -2 10L 2 10Z"/>
<path id="path42_fill" d="M 3.02002 5L 3.02002 4.73389L 3.06885 4.73389C 3.12093 4.73389 3.1665 4.73063 3.20557 4.72412C 3.24626 4.71761 3.27962 4.70459 3.30566 4.68506C 3.33171 4.66553 3.35124 4.63786 3.36426 4.60205C 3.37728 4.56462 3.38379 4.51579 3.38379 4.45557L 3.38379 1.92383L 2.37549 5L 2.03613 5L 0.979004 1.92383L 0.979004 4.40918C 0.979004 4.48079 0.987142 4.53776 1.00342 4.58008C 1.02132 4.6224 1.04574 4.65495 1.07666 4.67773C 1.10921 4.70052 1.14827 4.71598 1.19385 4.72412C 1.23942 4.73063 1.2915 4.73389 1.3501 4.73389L 1.37939 4.73389L 1.37939 5L 0.13916 5L 0.13916 4.73389L 0.349121 4.73389C 0.384928 4.73389 0.418294 4.73063 0.449219 4.72412C 0.480143 4.71761 0.506999 4.70459 0.529785 4.68506C 0.554199 4.6639 0.572917 4.63379 0.585938 4.59473C 0.598958 4.55404 0.605469 4.50114 0.605469 4.43604L 0.605469 1.99951C 0.605469 1.93278 0.598958 1.87988 0.585938 1.84082C 0.572917 1.80013 0.554199 1.76921 0.529785 1.74805C 0.506999 1.72689 0.480143 1.71305 0.449219 1.70654C 0.418294 1.6984 0.384928 1.69434 0.349121 1.69434L 0.13916 1.69434L 0.13916 1.43066L 1.57959 1.43066L 2.40967 3.84521L 3.20557 1.43066L 4.61914 1.43066L 4.61914 1.69434L 4.40918 1.69434C 4.37337 1.69434 4.34001 1.6984 4.30908 1.70654C 4.27816 1.71305 4.2513 1.7277 4.22852 1.75049C 4.20573 1.77327 4.18783 1.80583 4.1748 1.84814C 4.16178 1.89046 4.15527 1.94743 4.15527 2.01904L 4.15527 4.40918C 4.15527 4.48079 4.16178 4.53776 4.1748 4.58008C 4.18783 4.6224 4.20573 4.65495 4.22852 4.67773C 4.2513 4.70052 4.27816 4.71598 4.30908 4.72412C 4.34001 4.73063 4.37337 4.73389 4.40918 4.73389L 4.61914 4.73389L 4.61914 5L 3.02002 5ZM 9.91553 1.69434L 9.70068 1.69434C 9.6665 1.69434 9.63395 1.6984 9.60303 1.70654C 9.5721 1.71305 9.54443 1.7277 9.52002 1.75049C 9.49723 1.77327 9.47933 1.80583 9.46631 1.84814C 9.45329 1.89046 9.44678 1.94743 9.44678 2.01904L 9.44678 3.96973C 9.44678 4.13737 9.42236 4.28792 9.37354 4.42139C 9.32633 4.55485 9.25146 4.66797 9.14893 4.76074C 9.04801 4.85352 8.91862 4.92513 8.76074 4.97559C 8.60286 5.02441 8.41488 5.04883 8.19678 5.04883C 7.97868 5.04883 7.78337 5.02848 7.61084 4.98779C 7.43994 4.94548 7.29508 4.87874 7.17627 4.7876C 7.05745 4.69645 6.96631 4.57926 6.90283 4.43604C 6.84098 4.29118 6.81006 4.11621 6.81006 3.91113L 6.81006 1.99951C 6.81006 1.93278 6.80273 1.87988 6.78809 1.84082C 6.77507 1.80013 6.75635 1.76921 6.73193 1.74805C 6.70915 1.72689 6.68229 1.71305 6.65137 1.70654C 6.62207 1.6984 6.59033 1.69434 6.55615 1.69434L 6.34131 1.69434L 6.34131 1.43066L 8.06494 1.43066L 8.06494 1.69434L 7.85498 1.69434C 7.8208 1.69434 7.78825 1.6984 7.75732 1.70654C 7.7264 1.71305 7.69873 1.7277 7.67432 1.75049C 7.65153 1.77327 7.63363 1.80583 7.62061 1.84814C 7.60758 1.89046 7.60107 1.94743 7.60107 2.01904L 7.60107 3.9502C 7.60107 4.09017 7.61816 4.20817 7.65234 4.3042C 7.68815 4.3986 7.73861 4.4751 7.80371 4.53369C 7.86882 4.59066 7.94694 4.63216 8.03809 4.6582C 8.12923 4.68262 8.23177 4.69482 8.3457 4.69482C 8.45638 4.69482 8.55648 4.68099 8.646 4.65332C 8.73551 4.62402 8.8112 4.57926 8.87305 4.51904C 8.93652 4.45882 8.98535 4.38232 9.01953 4.28955C 9.05371 4.19678 9.0708 4.08691 9.0708 3.95996L 9.0708 1.99951C 9.0708 1.93278 9.06429 1.87988 9.05127 1.84082C 9.03825 1.80013 9.01953 1.76921 8.99512 1.74805C 8.97233 1.72689 8.94548 1.71305 8.91455 1.70654C 8.88363 1.6984 8.85107 1.69434 8.81689 1.69434L 8.60693 1.69434L 8.60693 1.43066L 9.91553 1.43066L 9.91553 1.69434ZM 14.4258 5L 12.4751 2.24609L 12.4751 4.40918C 12.4751 4.48079 12.4816 4.53776 12.4946 4.58008C 12.5093 4.6224 12.528 4.65495 12.5508 4.67773C 12.5736 4.70052 12.6004 4.71598 12.6313 4.72412C 12.6639 4.73063 12.6973 4.73389 12.7314 4.73389L 12.9414 4.73389L 12.9414 5L 11.6353 5L 11.6353 4.73389L 11.8452 4.73389C 11.881 4.73389 11.9144 4.73063 11.9453 4.72412C 11.9762 4.71598 12.0031 4.70052 12.0259 4.67773C 12.0503 4.65495 12.069 4.6224 12.082 4.58008C 12.0951 4.53776 12.1016 4.48079 12.1016 4.40918L 12.1016 1.99951C 12.1016 1.93278 12.0942 1.87988 12.0796 1.84082C 12.0666 1.80013 12.0479 1.76921 12.0234 1.74805C 12.0007 1.72689 11.9738 1.71305 11.9429 1.70654C 11.9119 1.6984 11.8794 1.69434 11.8452 1.69434L 11.6353 1.69434L 11.6353 1.43066L 12.7461 1.43066L 14.5112 3.92578L 14.5112 1.99951C 14.5112 1.93278 14.5039 1.87988 14.4893 1.84082C 14.4762 1.80013 14.4575 1.76921 14.4331 1.74805C 14.4103 1.72689 14.3835 1.71305 14.3525 1.70654C 14.3216 1.6984 14.2891 1.69434 14.2549 1.69434L 14.0449 1.69434L 14.0449 1.43066L 15.3511 1.43066L 15.3511 1.69434L 15.1411 1.69434C 15.1069 1.69434 15.0744 1.6984 15.0435 1.70654C 15.0125 1.71305 14.9849 1.7277 14.9604 1.75049C 14.9377 1.77327 14.9198 1.80583 14.9067 1.84814C 14.8937 1.89046 14.8872 1.94743 14.8872 2.01904L 14.8872 5L 14.4258 5ZM 17.0757 5L 17.0757 4.73389L 17.2856 4.73389C 17.3231 4.73389 17.3573 4.73063 17.3882 4.72412C 17.4191 4.71598 17.446 4.70052 17.4688 4.67773C 17.4915 4.65495 17.5094 4.6224 17.5225 4.58008C 17.5355 4.53776 17.542 4.48079 17.542 4.40918L 17.542 2.02148C 17.542 1.94987 17.5355 1.8929 17.5225 1.85059C 17.5094 1.80827 17.4915 1.77572 17.4688 1.75293C 17.446 1.73014 17.4191 1.71549 17.3882 1.70898C 17.3573 1.70085 17.3231 1.69678 17.2856 1.69678L 17.0757 1.69678L 17.0757 1.43066L 18.8018 1.43066L 18.8018 1.69678L 18.5918 1.69678C 18.556 1.69678 18.5218 1.70085 18.4893 1.70898C 18.4583 1.71549 18.4315 1.73014 18.4087 1.75293C 18.3859 1.77572 18.368 1.80827 18.355 1.85059C 18.342 1.8929 18.3354 1.94987 18.3354 2.02148L 18.3354 4.40918C 18.3354 4.48079 18.342 4.53776 18.355 4.58008C 18.368 4.6224 18.3859 4.65495 18.4087 4.67773C 18.4315 4.70052 18.4583 4.71598 18.4893 4.72412C 18.5218 4.73063 18.556 4.73389 18.5918 4.73389L 18.8018 4.73389L 18.8018 5L 17.0757 5ZM 22.5674 4.65088C 22.6895 4.65088 22.7977 4.63704 22.8921 4.60938C 22.9881 4.58008 23.0736 4.54264 23.1484 4.49707C 23.2233 4.4515 23.2884 4.40023 23.3438 4.34326C 23.4007 4.2863 23.4504 4.23014 23.4927 4.1748C 23.5187 4.19434 23.5391 4.22445 23.5537 4.26514C 23.57 4.30583 23.5781 4.34733 23.5781 4.38965C 23.5781 4.45964 23.5594 4.53369 23.522 4.61182C 23.4845 4.68831 23.4219 4.75911 23.334 4.82422C 23.2461 4.88932 23.1297 4.94303 22.9849 4.98535C 22.84 5.02767 22.661 5.04883 22.4478 5.04883C 22.158 5.04883 21.9049 5.00488 21.6885 4.91699C 21.472 4.8291 21.2922 4.70459 21.1489 4.54346C 21.0057 4.38232 20.8983 4.18864 20.8267 3.9624C 20.755 3.73617 20.7192 3.48551 20.7192 3.21045C 20.7192 2.94027 20.7559 2.69287 20.8291 2.46826C 20.9023 2.24365 21.0106 2.05078 21.1538 1.88965C 21.2987 1.72852 21.4785 1.60319 21.6934 1.51367C 21.9098 1.42415 22.1597 1.37939 22.4429 1.37939C 22.6349 1.37939 22.8018 1.39486 22.9434 1.42578C 23.0866 1.45508 23.2054 1.49577 23.2998 1.54785C 23.3942 1.59993 23.465 1.66178 23.5122 1.7334C 23.5594 1.80339 23.583 1.87907 23.583 1.96045C 23.583 2.0223 23.5692 2.08008 23.5415 2.13379C 23.5155 2.18587 23.4756 2.23145 23.4219 2.27051C 23.3698 2.30957 23.3047 2.34049 23.2266 2.36328C 23.1484 2.38444 23.0589 2.39502 22.958 2.39502C 22.958 2.31201 22.9491 2.22982 22.9312 2.14844C 22.9132 2.06543 22.8823 1.99056 22.8384 1.92383C 22.7961 1.8571 22.7399 1.80339 22.6699 1.7627C 22.5999 1.72038 22.5129 1.69922 22.4087 1.69922C 22.2508 1.69922 22.1174 1.73258 22.0083 1.79932C 21.8993 1.86605 21.8114 1.9637 21.7446 2.09229C 21.6795 2.22087 21.6323 2.37956 21.603 2.56836C 21.5737 2.75553 21.5591 2.96956 21.5591 3.21045C 21.5591 3.45133 21.577 3.66211 21.6128 3.84277C 21.6486 4.02344 21.7064 4.17399 21.7861 4.29443C 21.8659 4.41325 21.9692 4.50277 22.0962 4.56299C 22.2248 4.62158 22.3818 4.65088 22.5674 4.65088ZM 25.4224 5L 25.4224 4.73389L 25.6323 4.73389C 25.6698 4.73389 25.7039 4.73063 25.7349 4.72412C 25.7658 4.71598 25.7926 4.70052 25.8154 4.67773C 25.8382 4.65495 25.8561 4.6224 25.8691 4.58008C 25.8822 4.53776 25.8887 4.48079 25.8887 4.40918L 25.8887 2.02148C 25.8887 1.94987 25.8822 1.8929 25.8691 1.85059C 25.8561 1.80827 25.8382 1.77572 25.8154 1.75293C 25.7926 1.73014 25.7658 1.71549 25.7349 1.70898C 25.7039 1.70085 25.6698 1.69678 25.6323 1.69678L 25.4224 1.69678L 25.4224 1.43066L 27.1484 1.43066L 27.1484 1.69678L 26.9385 1.69678C 26.9027 1.69678 26.8685 1.70085 26.8359 1.70898C 26.805 1.71549 26.7782 1.73014 26.7554 1.75293C 26.7326 1.77572 26.7147 1.80827 26.7017 1.85059C 26.6886 1.8929 26.6821 1.94987 26.6821 2.02148L 26.6821 4.40918C 26.6821 4.48079 26.6886 4.53776 26.7017 4.58008C 26.7147 4.6224 26.7326 4.65495 26.7554 4.67773C 26.7782 4.70052 26.805 4.71598 26.8359 4.72412C 26.8685 4.73063 26.9027 4.73389 26.9385 4.73389L 27.1484 4.73389L 27.1484 5L 25.4224 5ZM 31.8296 2.49023C 31.8296 2.63997 31.8035 2.78402 31.7515 2.92236C 31.6994 3.06071 31.6147 3.18278 31.4976 3.28857C 31.3804 3.39437 31.2282 3.479 31.041 3.54248C 30.8538 3.60433 30.6252 3.63525 30.355 3.63525L 30.1841 3.63525L 30.1841 4.43604C 30.1841 4.50114 30.1914 4.55404 30.2061 4.59473C 30.2207 4.63379 30.2402 4.6639 30.2646 4.68506C 30.2891 4.70459 30.3175 4.71761 30.3501 4.72412C 30.3826 4.73063 30.416 4.73389 30.4502 4.73389L 30.7554 4.73389L 30.7554 5L 28.9292 5L 28.9292 4.73389L 29.1392 4.73389C 29.1766 4.73389 29.2108 4.73063 29.2417 4.72412C 29.2726 4.71598 29.2995 4.70052 29.3223 4.67773C 29.3451 4.65495 29.363 4.6224 29.376 4.58008C 29.389 4.53776 29.3955 4.48079 29.3955 4.40918L 29.3955 1.99951C 29.3955 1.93278 29.389 1.87988 29.376 1.84082C 29.363 1.80013 29.3442 1.76921 29.3198 1.74805C 29.297 1.72689 29.2702 1.71305 29.2393 1.70654C 29.2083 1.6984 29.175 1.69434 29.1392 1.69434L 28.9292 1.69434L 28.9292 1.43066L 30.4648 1.43066C 30.696 1.43066 30.897 1.45508 31.0679 1.50391C 31.2388 1.55273 31.3804 1.62354 31.4927 1.71631C 31.6066 1.80745 31.6912 1.91813 31.7466 2.04834C 31.8019 2.17855 31.8296 2.32585 31.8296 2.49023ZM 30.1841 3.34473L 30.3062 3.34473C 30.4299 3.34473 30.5348 3.32926 30.6211 3.29834C 30.7074 3.26742 30.7773 3.21859 30.8311 3.15186C 30.8864 3.08512 30.9263 2.99886 30.9507 2.89307C 30.9767 2.78727 30.9897 2.65951 30.9897 2.50977C 30.9897 2.3763 30.9784 2.26074 30.9556 2.16309C 30.9344 2.0638 30.8994 1.98242 30.8506 1.91895C 30.8034 1.85384 30.7407 1.80583 30.6626 1.7749C 30.5861 1.74235 30.4917 1.72607 30.3794 1.72607L 30.1841 1.72607L 30.1841 3.34473ZM 34.3232 3.82568L 34.1792 4.25537C 34.1662 4.29606 34.1523 4.34408 34.1377 4.39941C 34.1247 4.45312 34.1182 4.50033 34.1182 4.54102C 34.1182 4.57357 34.1247 4.60205 34.1377 4.62646C 34.1507 4.65088 34.1678 4.67122 34.189 4.6875C 34.2101 4.70215 34.2337 4.71354 34.2598 4.72168C 34.2874 4.72982 34.3159 4.73389 34.3452 4.73389L 34.5552 4.73389L 34.5552 5L 33.2539 5L 33.2539 4.73389L 33.3149 4.73389C 33.3589 4.73389 33.3988 4.729 33.4346 4.71924C 33.472 4.70947 33.5062 4.69157 33.5371 4.66553C 33.5697 4.63786 33.5998 4.60042 33.6274 4.55322C 33.6567 4.50602 33.686 4.44499 33.7153 4.37012L 34.7993 1.43066L 35.4854 1.43066L 36.5303 4.375C 36.5547 4.44499 36.5799 4.50358 36.606 4.55078C 36.6336 4.59635 36.6629 4.63298 36.6938 4.66064C 36.7264 4.68669 36.7606 4.7054 36.7964 4.7168C 36.8322 4.72819 36.8696 4.73389 36.9087 4.73389L 36.999 4.73389L 36.999 5L 35.3486 5L 35.3486 4.73389L 35.5439 4.73389C 35.5684 4.73389 35.5936 4.73063 35.6196 4.72412C 35.6457 4.71598 35.6685 4.70459 35.688 4.68994C 35.7091 4.67367 35.7262 4.65332 35.7393 4.62891C 35.7523 4.60449 35.7588 4.5752 35.7588 4.54102C 35.7588 4.50033 35.7539 4.46126 35.7441 4.42383C 35.7344 4.38639 35.7246 4.35384 35.7148 4.32617L 35.5391 3.82568L 34.3232 3.82568ZM 35.1753 2.7002C 35.1574 2.64323 35.1387 2.58382 35.1191 2.52197C 35.1012 2.4585 35.0825 2.39421 35.063 2.3291C 35.0451 2.264 35.0272 2.19971 35.0093 2.13623C 34.993 2.07113 34.9784 2.00928 34.9653 1.95068C 34.9507 2.00114 34.9336 2.05648 34.9141 2.1167C 34.8945 2.17692 34.8734 2.23877 34.8506 2.30225C 34.8294 2.36572 34.8075 2.4292 34.7847 2.49268C 34.7635 2.55615 34.7432 2.61719 34.7236 2.67578L 34.4282 3.52051L 35.439 3.52051L 35.1753 2.7002ZM 38.6382 5L 38.6382 4.73389L 38.8481 4.73389C 38.8856 4.73389 38.9198 4.73063 38.9507 4.72412C 38.9816 4.71598 39.0085 4.70052 39.0312 4.67773C 39.054 4.65495 39.0719 4.6224 39.085 4.58008C 39.098 4.53776 39.1045 4.48079 39.1045 4.40918L 39.1045 2.01904C 39.1045 1.94743 39.098 1.89046 39.085 1.84814C 39.0719 1.80583 39.054 1.77327 39.0312 1.75049C 39.0085 1.7277 38.9816 1.71305 38.9507 1.70654C 38.9198 1.6984 38.8856 1.69434 38.8481 1.69434L 38.6382 1.69434L 38.6382 1.43066L 40.3643 1.43066L 40.3643 1.69434L 40.1543 1.69434C 40.1201 1.69434 40.0868 1.6984 40.0542 1.70654C 40.0233 1.71305 39.9964 1.72689 39.9736 1.74805C 39.9508 1.76921 39.9321 1.80013 39.9175 1.84082C 39.9045 1.87988 39.8979 1.93278 39.8979 1.99951L 39.8979 4.69482L 40.8281 4.69482C 40.9453 4.69482 41.0365 4.6582 41.1016 4.58496C 41.1667 4.51009 41.2139 4.40186 41.2432 4.26025L 41.3237 3.88428L 41.6045 3.88428L 41.5679 5L 38.6382 5ZM 49.0991 2.33887C 49.0991 2.44954 49.0837 2.54639 49.0527 2.62939C 49.0234 2.71077 48.9811 2.78158 48.9258 2.8418C 48.8704 2.90039 48.8037 2.95085 48.7256 2.99316C 48.6491 3.03548 48.5636 3.07129 48.4692 3.10059L 48.4692 3.125C 48.5848 3.1543 48.6898 3.19499 48.7842 3.24707C 48.8802 3.29753 48.9624 3.36019 49.0308 3.43506C 49.1007 3.5083 49.1545 3.59375 49.1919 3.69141C 49.231 3.78906 49.2505 3.89893 49.2505 4.021C 49.2505 4.34977 49.1309 4.59554 48.8916 4.7583C 48.6523 4.91943 48.2951 5 47.8198 5L 46.2085 5L 46.2085 4.73389L 46.4136 4.73389C 46.451 4.73389 46.4852 4.73063 46.5161 4.72412C 46.5487 4.71598 46.5763 4.70052 46.5991 4.67773C 46.6219 4.65495 46.6398 4.6224 46.6528 4.58008C 46.6675 4.53776 46.6748 4.48079 46.6748 4.40918L 46.6748 2.01416C 46.6748 1.94743 46.6675 1.89372 46.6528 1.85303C 46.6398 1.81071 46.6211 1.77816 46.5967 1.75537C 46.5739 1.73258 46.5462 1.71712 46.5137 1.70898C 46.4827 1.69922 46.4494 1.69434 46.4136 1.69434L 46.2085 1.69434L 46.2085 1.43066L 47.6685 1.43066C 48.1437 1.43066 48.501 1.50391 48.7402 1.65039C 48.9795 1.79688 49.0991 2.02637 49.0991 2.33887ZM 47.4634 4.69482L 47.7954 4.69482C 47.9061 4.69482 48.0005 4.68262 48.0786 4.6582C 48.1567 4.63379 48.2202 4.59473 48.269 4.54102C 48.3179 4.48568 48.3529 4.41406 48.374 4.32617C 48.3968 4.23828 48.4082 4.13086 48.4082 4.00391C 48.4082 3.88184 48.3984 3.77604 48.3789 3.68652C 48.3594 3.59538 48.326 3.52051 48.2788 3.46191C 48.2316 3.40332 48.1698 3.35938 48.0933 3.33008C 48.0168 3.30078 47.9207 3.28613 47.8052 3.28613L 47.4634 3.28613L 47.4634 4.69482ZM 47.4634 2.98096L 47.6538 2.98096C 47.771 2.98096 47.8678 2.96875 47.9443 2.94434C 48.0225 2.91992 48.0843 2.88249 48.1299 2.83203C 48.1771 2.77995 48.2104 2.71322 48.23 2.63184C 48.2495 2.55046 48.2593 2.4528 48.2593 2.33887C 48.2593 2.22493 48.2479 2.12972 48.2251 2.05322C 48.2039 1.97673 48.1689 1.91488 48.1201 1.86768C 48.0713 1.82048 48.0078 1.78711 47.9297 1.76758C 47.8516 1.74642 47.7563 1.73584 47.644 1.73584L 47.4634 1.73584L 47.4634 2.98096ZM 54.5835 1.69434L 54.3687 1.69434C 54.3345 1.69434 54.3019 1.6984 54.271 1.70654C 54.2401 1.71305 54.2124 1.7277 54.188 1.75049C 54.1652 1.77327 54.1473 1.80583 54.1343 1.84814C 54.1213 1.89046 54.1147 1.94743 54.1147 2.01904L 54.1147 3.96973C 54.1147 4.13737 54.0903 4.28792 54.0415 4.42139C 53.9943 4.55485 53.9194 4.66797 53.8169 4.76074C 53.716 4.85352 53.5866 4.92513 53.4287 4.97559C 53.2708 5.02441 53.0828 5.04883 52.8647 5.04883C 52.6466 5.04883 52.4513 5.02848 52.2788 4.98779C 52.1079 4.94548 51.9631 4.87874 51.8442 4.7876C 51.7254 4.69645 51.6343 4.57926 51.5708 4.43604C 51.509 4.29118 51.478 4.11621 51.478 3.91113L 51.478 1.99951C 51.478 1.93278 51.4707 1.87988 51.4561 1.84082C 51.443 1.80013 51.4243 1.76921 51.3999 1.74805C 51.3771 1.72689 51.3503 1.71305 51.3193 1.70654C 51.29 1.6984 51.2583 1.69434 51.2241 1.69434L 51.0093 1.69434L 51.0093 1.43066L 52.7329 1.43066L 52.7329 1.69434L 52.5229 1.69434C 52.4888 1.69434 52.4562 1.6984 52.4253 1.70654C 52.3944 1.71305 52.3667 1.7277 52.3423 1.75049C 52.3195 1.77327 52.3016 1.80583 52.2886 1.84814C 52.2756 1.89046 52.269 1.94743 52.269 2.01904L 52.269 3.9502C 52.269 4.09017 52.2861 4.20817 52.3203 4.3042C 52.3561 4.3986 52.4066 4.4751 52.4717 4.53369C 52.5368 4.59066 52.6149 4.63216 52.7061 4.6582C 52.7972 4.68262 52.8997 4.69482 53.0137 4.69482C 53.1243 4.69482 53.2244 4.68099 53.314 4.65332C 53.4035 4.62402 53.4792 4.57926 53.541 4.51904C 53.6045 4.45882 53.6533 4.38232 53.6875 4.28955C 53.7217 4.19678 53.7388 4.08691 53.7388 3.95996L 53.7388 1.99951C 53.7388 1.93278 53.7323 1.87988 53.7192 1.84082C 53.7062 1.80013 53.6875 1.76921 53.6631 1.74805C 53.6403 1.72689 53.6134 1.71305 53.5825 1.70654C 53.5516 1.6984 53.519 1.69434 53.4849 1.69434L 53.2749 1.69434L 53.2749 1.43066L 54.5835 1.43066L 54.5835 1.69434ZM 56.3032 5L 56.3032 4.73389L 56.5132 4.73389C 56.5506 4.73389 56.5848 4.73063 56.6157 4.72412C 56.6466 4.71598 56.6735 4.70052 56.6963 4.67773C 56.7191 4.65495 56.737 4.6224 56.75 4.58008C 56.763 4.53776 56.7695 4.48079 56.7695 4.40918L 56.7695 2.02148C 56.7695 1.94987 56.763 1.8929 56.75 1.85059C 56.737 1.80827 56.7191 1.77572 56.6963 1.75293C 56.6735 1.73014 56.6466 1.71549 56.6157 1.70898C 56.5848 1.70085 56.5506 1.69678 56.5132 1.69678L 56.3032 1.69678L 56.3032 1.43066L 58.0293 1.43066L 58.0293 1.69678L 57.8193 1.69678C 57.7835 1.69678 57.7493 1.70085 57.7168 1.70898C 57.6859 1.71549 57.659 1.73014 57.6362 1.75293C 57.6134 1.77572 57.5955 1.80827 57.5825 1.85059C 57.5695 1.8929 57.563 1.94987 57.563 2.02148L 57.563 4.40918C 57.563 4.48079 57.5695 4.53776 57.5825 4.58008C 57.5955 4.6224 57.6134 4.65495 57.6362 4.67773C 57.659 4.70052 57.6859 4.71598 57.7168 4.72412C 57.7493 4.73063 57.7835 4.73389 57.8193 4.73389L 58.0293 4.73389L 58.0293 5L 56.3032 5ZM 59.8101 5L 59.8101 4.73389L 60.02 4.73389C 60.0575 4.73389 60.0916 4.73063 60.1226 4.72412C 60.1535 4.71598 60.1803 4.70052 60.2031 4.67773C 60.2259 4.65495 60.2438 4.6224 60.2568 4.58008C 60.2699 4.53776 60.2764 4.48079 60.2764 4.40918L 60.2764 2.01904C 60.2764 1.94743 60.2699 1.89046 60.2568 1.84814C 60.2438 1.80583 60.2259 1.77327 60.2031 1.75049C 60.1803 1.7277 60.1535 1.71305 60.1226 1.70654C 60.0916 1.6984 60.0575 1.69434 60.02 1.69434L 59.8101 1.69434L 59.8101 1.43066L 61.5361 1.43066L 61.5361 1.69434L 61.3262 1.69434C 61.292 1.69434 61.2586 1.6984 61.2261 1.70654C 61.1951 1.71305 61.1683 1.72689 61.1455 1.74805C 61.1227 1.76921 61.104 1.80013 61.0894 1.84082C 61.0763 1.87988 61.0698 1.93278 61.0698 1.99951L 61.0698 4.69482L 62 4.69482C 62.1172 4.69482 62.2083 4.6582 62.2734 4.58496C 62.3385 4.51009 62.3857 4.40186 62.415 4.26025L 62.4956 3.88428L 62.7764 3.88428L 62.7397 5L 59.8101 5ZM 68.002 3.14941C 68.002 3.42285 67.9645 3.6735 67.8896 3.90137C 67.8148 4.1276 67.7025 4.3221 67.5527 4.48486C 67.4046 4.64762 67.2199 4.77458 66.9985 4.86572C 66.7788 4.95524 66.5233 5 66.2319 5L 64.5815 5L 64.5815 4.73389L 64.7915 4.73389C 64.8289 4.73389 64.8631 4.73063 64.894 4.72412C 64.925 4.71598 64.9518 4.70052 64.9746 4.67773C 64.9974 4.65495 65.0153 4.6224 65.0283 4.58008C 65.0413 4.53776 65.0479 4.48079 65.0479 4.40918L 65.0479 1.99951C 65.0479 1.93278 65.0413 1.87988 65.0283 1.84082C 65.0153 1.80013 64.9966 1.76921 64.9722 1.74805C 64.9494 1.72689 64.9225 1.71305 64.8916 1.70654C 64.8607 1.6984 64.8273 1.69434 64.7915 1.69434L 64.5815 1.69434L 64.5815 1.43066L 66.2319 1.43066C 66.5086 1.43066 66.756 1.46729 66.9741 1.54053C 67.1938 1.61214 67.3794 1.72038 67.5308 1.86523C 67.6838 2.00846 67.8001 2.1875 67.8799 2.40234C 67.9613 2.61719 68.002 2.86621 68.002 3.14941ZM 67.1572 3.14941C 67.1572 2.67253 67.0693 2.31771 66.8936 2.08496C 66.7194 1.85221 66.4622 1.73584 66.1221 1.73584L 65.8364 1.73584L 65.8364 4.68994L 66.1172 4.68994C 66.2881 4.68994 66.4386 4.65495 66.5688 4.58496C 66.6991 4.51335 66.8073 4.41081 66.8936 4.27734C 66.9814 4.14388 67.0474 3.98275 67.0913 3.79395C 67.1353 3.60352 67.1572 3.38867 67.1572 3.14941ZM 69.9194 5L 69.9194 4.73389L 70.1294 4.73389C 70.1668 4.73389 70.201 4.73063 70.2319 4.72412C 70.2629 4.71598 70.2897 4.70052 70.3125 4.67773C 70.3353 4.65495 70.3532 4.6224 70.3662 4.58008C 70.3792 4.53776 70.3857 4.48079 70.3857 4.40918L 70.3857 2.02148C 70.3857 1.94987 70.3792 1.8929 70.3662 1.85059C 70.3532 1.80827 70.3353 1.77572 70.3125 1.75293C 70.2897 1.73014 70.2629 1.71549 70.2319 1.70898C 70.201 1.70085 70.1668 1.69678 70.1294 1.69678L 69.9194 1.69678L 69.9194 1.43066L 71.6455 1.43066L 71.6455 1.69678L 71.4355 1.69678C 71.3997 1.69678 71.3656 1.70085 71.333 1.70898C 71.3021 1.71549 71.2752 1.73014 71.2524 1.75293C 71.2297 1.77572 71.2118 1.80827 71.1987 1.85059C 71.1857 1.8929 71.1792 1.94987 71.1792 2.02148L 71.1792 4.40918C 71.1792 4.48079 71.1857 4.53776 71.1987 4.58008C 71.2118 4.6224 71.2297 4.65495 71.2524 4.67773C 71.2752 4.70052 71.3021 4.71598 71.333 4.72412C 71.3656 4.73063 71.3997 4.73389 71.4355 4.73389L 71.6455 4.73389L 71.6455 5L 69.9194 5ZM 76.2168 5L 74.2661 2.24609L 74.2661 4.40918C 74.2661 4.48079 74.2726 4.53776 74.2856 4.58008C 74.3003 4.6224 74.319 4.65495 74.3418 4.67773C 74.3646 4.70052 74.3914 4.71598 74.4224 4.72412C 74.4549 4.73063 74.4883 4.73389 74.5225 4.73389L 74.7324 4.73389L 74.7324 5L 73.4263 5L 73.4263 4.73389L 73.6362 4.73389C 73.672 4.73389 73.7054 4.73063 73.7363 4.72412C 73.7673 4.71598 73.7941 4.70052 73.8169 4.67773C 73.8413 4.65495 73.86 4.6224 73.873 4.58008C 73.8861 4.53776 73.8926 4.48079 73.8926 4.40918L 73.8926 1.99951C 73.8926 1.93278 73.8853 1.87988 73.8706 1.84082C 73.8576 1.80013 73.8389 1.76921 73.8145 1.74805C 73.7917 1.72689 73.7648 1.71305 73.7339 1.70654C 73.703 1.6984 73.6704 1.69434 73.6362 1.69434L 73.4263 1.69434L 73.4263 1.43066L 74.5371 1.43066L 76.3022 3.92578L 76.3022 1.99951C 76.3022 1.93278 76.2949 1.87988 76.2803 1.84082C 76.2673 1.80013 76.2485 1.76921 76.2241 1.74805C 76.2013 1.72689 76.1745 1.71305 76.1436 1.70654C 76.1126 1.6984 76.0801 1.69434 76.0459 1.69434L 75.8359 1.69434L 75.8359 1.43066L 77.1421 1.43066L 77.1421 1.69434L 76.9321 1.69434C 76.8979 1.69434 76.8654 1.6984 76.8345 1.70654C 76.8035 1.71305 76.7759 1.7277 76.7515 1.75049C 76.7287 1.77327 76.7108 1.80583 76.6978 1.84814C 76.6847 1.89046 76.6782 1.94743 76.6782 2.01904L 76.6782 5L 76.2168 5ZM 80.8418 5.04883C 80.5326 5.04883 80.2624 5.00488 80.0312 4.91699C 79.8018 4.8291 79.6105 4.70459 79.4575 4.54346C 79.3045 4.38232 79.1906 4.18864 79.1157 3.9624C 79.0409 3.73617 79.0034 3.48551 79.0034 3.21045C 79.0034 2.94027 79.0433 2.69287 79.123 2.46826C 79.2028 2.24365 79.3208 2.05078 79.4771 1.88965C 79.6333 1.72852 79.8278 1.60319 80.0605 1.51367C 80.2933 1.42415 80.5627 1.37939 80.8687 1.37939C 81.077 1.37939 81.2585 1.39486 81.4131 1.42578C 81.5693 1.45508 81.6995 1.49577 81.8037 1.54785C 81.9095 1.59993 81.9884 1.66178 82.0405 1.7334C 82.0926 1.80339 82.1187 1.87907 82.1187 1.96045C 82.1187 2.01904 82.1048 2.07438 82.0771 2.12646C 82.0495 2.17692 82.008 2.22168 81.9526 2.26074C 81.8973 2.2998 81.8298 2.33073 81.75 2.35352C 81.6702 2.37467 81.5775 2.38525 81.4717 2.38525C 81.4717 2.28434 81.4595 2.19157 81.4351 2.10693C 81.4106 2.0223 81.3724 1.94987 81.3203 1.88965C 81.2699 1.82943 81.2056 1.78304 81.1274 1.75049C 81.0493 1.71631 80.9574 1.69922 80.8516 1.69922C 80.6693 1.69922 80.5138 1.73258 80.3853 1.79932C 80.2583 1.86605 80.1541 1.9637 80.0728 2.09229C 79.993 2.22087 79.9344 2.37956 79.897 2.56836C 79.8612 2.75553 79.8433 2.96956 79.8433 3.21045C 79.8433 3.45133 79.862 3.66536 79.8994 3.85254C 79.9385 4.03809 80.0003 4.19434 80.085 4.32129C 80.1712 4.44824 80.2819 4.54508 80.417 4.61182C 80.5537 4.67692 80.7205 4.70947 80.9175 4.70947C 80.9793 4.70947 81.0412 4.70703 81.103 4.70215C 81.1649 4.69727 81.2251 4.68831 81.2837 4.67529L 81.2837 3.94043C 81.2837 3.80697 81.2536 3.71419 81.1934 3.66211C 81.1331 3.61003 81.0444 3.58398 80.9272 3.58398L 80.8613 3.58398L 80.8613 3.32031L 82.4336 3.32031L 82.4336 3.58398L 82.3677 3.58398C 82.3172 3.58398 82.2733 3.59049 82.2358 3.60352C 82.1984 3.61491 82.1675 3.63525 82.1431 3.66455C 82.1187 3.69385 82.1007 3.73291 82.0894 3.78174C 82.078 3.82894 82.0723 3.88835 82.0723 3.95996L 82.0723 4.78027C 81.877 4.86979 81.68 4.93734 81.4814 4.98291C 81.2829 5.02686 81.0697 5.04883 80.8418 5.04883Z"/>
</defs>
</svg>
