<svg width="160" height="160" viewBox="0 0 160 160" version="1.1" xmlns="http://www.w3.org/2000/svg" xmlns:xlink="http://www.w3.org/1999/xlink">
<title>code-icon-b</title>
<desc>Created using Figma</desc>
<g id="Canvas" transform="translate(277 383)">
<g id="code-icon-b">
<g id="Rectangle 5">
<mask id="mask0_outline_ins">
<use xlink:href="#path0_fill" fill="white" transform="translate(-277 -383)"/>
</mask>
<g mask="url(#mask0_outline_ins)">
<use xlink:href="#path1_stroke_2x" transform="translate(-277 -383)" fill="#FFFFFF"/>
</g>
</g>
<g id="Ellipse">
<use xlink:href="#path2_fill" transform="translate(-260 -363)" fill="#0BF8AB"/>
</g>
<g id="Group">
<g id="Polygon">
<use xlink:href="#path3_stroke" transform="matrix(6.12323e-17 -1 1 6.12323e-17 -237 -283)" fill="#1C1C1C"/>
</g>
<g id="Polygon">
<use xlink:href="#path3_stroke" transform="matrix(-6.12323e-17 -1 -1 6.12323e-17 -158 -283)" fill="#1C1C1C"/>
</g>
<g id="Rectangle">
<use xlink:href="#path4_fill" transform="matrix(0.945519 0.325568 -0.325568 0.945519 -188.895 -339.313)" fill="#1C1C1C"/>
</g>
</g>
</g>
</g>
<defs>
<path id="path0_fill" d="M 0 0L 160 0L 160 160L 0 160L 0 0Z"/>
<path id="path1_stroke_2x" d="M 0 0L 0 -1L -1 -1L -1 0L 0 0ZM 160 0L 161 0L 161 -1L 160 -1L 160 0ZM 160 160L 160 161L 161 161L 161 160L 160 160ZM 0 160L -1 160L -1 161L 0 161L 0 160ZM 0 1L 160 1L 160 -1L 0 -1L 0 1ZM 159 0L 159 160L 161 160L 161 0L 159 0ZM 160 159L 0 159L 0 161L 160 161L 160 159ZM 1 160L 1 0L -1 0L -1 160L 1 160Z"/>
<path id="path2_fill" d="M 125 62.5C 125 97.0178 97.0178 125 62.5 125C 27.9822 125 0 97.0178 0 62.5C 0 27.9822 27.9822 0 62.5 0C 97.0178 0 125 27.9822 125 62.5Z"/>
<path id="path3_stroke" d="M 18.2355 0.798592L 21.1777 -1.91131L 21.1777 -1.91131L 18.2355 0.798592ZM 34.3252 18.2673L 31.383 20.9772L 34.3252 18.2673ZM 0.67483 18.2673L 3.61701 20.9772L 0.67483 18.2673ZM 16.7631 2.02402L 13.8157 -0.680171L 16.7631 2.02402ZM 1.31793 18.8585L -1.6295 16.1543L 1.31793 18.8585ZM 16.7645 0.798592L 13.8223 -1.91131L 16.7645 0.798592ZM 18.2369 2.02402L 15.2894 4.72821L 18.2369 2.02402ZM 33.6821 18.8585L 30.7346 21.5627L 33.6821 18.8585ZM 15.2934 3.50849L 31.383 20.9772L 37.2673 15.5574L 21.1777 -1.91131L 15.2934 3.50849ZM 3.61701 20.9772L 19.7066 3.50849L 13.8223 -1.91131L -2.26735 15.5574L 3.61701 20.9772ZM 13.8157 -0.680171L -1.6295 16.1543L 4.26536 21.5627L 19.7106 4.72821L 13.8157 -0.680171ZM 36.6295 16.1543L 21.1843 -0.680171L 15.2894 4.72821L 30.7346 21.5627L 36.6295 16.1543ZM 21.1777 -1.91131C 19.1973 -4.06147 15.8027 -4.06147 13.8223 -1.91131L 19.7066 3.50849C 18.5184 4.79859 16.4816 4.79859 15.2934 3.50849L 21.1777 -1.91131ZM 31.383 20.9772C 29.2798 18.6938 30.8995 15 34.0039 15L 34.0039 23C 37.8694 23 39.8861 18.4007 37.2673 15.5574L 31.383 20.9772ZM -2.26735 15.5574C -4.88611 18.4007 -2.86938 23 0.996094 23L 0.996094 15C 4.10051 15 5.72017 18.6938 3.61701 20.9772L -2.26735 15.5574ZM 19.7106 4.72821C 18.5217 6.02402 16.4783 6.02402 15.2894 4.72821L 21.1843 -0.680171C 19.2028 -2.83985 15.7972 -2.83985 13.8157 -0.680171L 19.7106 4.72821ZM -1.6295 16.1543C -0.954629 15.4187 -0.00215316 15 0.996094 15L 0.996094 23C 2.23907 23 3.42505 22.4786 4.26536 21.5627L -1.6295 16.1543ZM 34.0039 15C 35.0022 15 35.9546 15.4187 36.6295 16.1543L 30.7346 21.5627C 31.5749 22.4786 32.7609 23 34.0039 23L 34.0039 15Z"/>
<path id="path4_fill" d="M 0 4.5C 0 2.01472 2.01472 0 4.5 0C 6.98528 0 9 2.01472 9 4.5L 9 74.5C 9 76.9853 6.98528 79 4.5 79C 2.01472 79 0 76.9853 0 74.5L 0 4.5Z"/>
</defs>
</svg>
