<svg width="809" height="145" viewBox="0 0 809 145" version="1.1" xmlns="http://www.w3.org/2000/svg" xmlns:xlink="http://www.w3.org/1999/xlink">
<title>csamandme.bw</title>
<desc>Created using Figma</desc>
<g id="Canvas" transform="translate(253 -151)">
<g id="csamandme.bw">
<g id="csam">
<g id="c">
<g id="Rectangle">
<use xlink:href="#path0_fill" transform="matrix(1 2.44929e-16 -2.44929e-16 1 -253 217.454)" fill="#1C1C1C"/>
</g>
<g id="Rectangle">
<use xlink:href="#path0_fill" transform="matrix(1 2.44929e-16 -2.44929e-16 1 -253 241.546)" fill="#1C1C1C"/>
</g>
<g id="Rectangle">
<use xlink:href="#path0_fill" transform="matrix(1 2.44929e-16 -2.44929e-16 1 -227.604 193.361)" fill="#1C1C1C"/>
</g>
<g id="Rectangle">
<use xlink:href="#path0_fill" transform="matrix(1 2.44929e-16 -2.44929e-16 1 -203.077 193.361)" fill="#1C1C1C"/>
</g>
<g id="Rectangle">
<use xlink:href="#path0_fill" transform="matrix(1 2.44929e-16 -2.44929e-16 1 -227.604 265.639)" fill="#1C1C1C"/>
</g>
<g id="Rectangle">
<use xlink:href="#path0_fill" transform="matrix(1 2.44929e-16 -2.44929e-16 1 -202.208 265.639)" fill="#1C1C1C"/>
</g>
<g id="Rectangle">
<use xlink:href="#path0_fill" transform="matrix(1 2.44929e-16 -2.44929e-16 1 -176.812 265.639)" fill="#1C1C1C"/>
</g>
</g>
<g id="s">
<g id="Rectangle">
<use xlink:href="#path0_fill" transform="matrix(1 2.44929e-16 -2.44929e-16 1 -139.988 265.607)" fill="#1C1C1C"/>
</g>
<g id="Rectangle">
<use xlink:href="#path0_fill" transform="matrix(1 2.44929e-16 -2.44929e-16 1 -139.988 191.768)" fill="#1C1C1C"/>
</g>
<g id="Rectangle">
<use xlink:href="#path0_fill" transform="matrix(1 2.44929e-16 -2.44929e-16 1 -115.026 265.607)" fill="#1C1C1C"/>
</g>
<g id="Rectangle">
<use xlink:href="#path0_fill" transform="matrix(1 2.44929e-16 -2.44929e-16 1 -91.3344 265.607)" fill="#1C1C1C"/>
</g>
<g id="Rectangle">
<use xlink:href="#path0_fill" transform="matrix(1 2.44929e-16 -2.44929e-16 1 -66.3391 241.546)" fill="#1C1C1C"/>
</g>
<g id="Rectangle">
<use xlink:href="#path0_fill" transform="matrix(1 2.44929e-16 -2.44929e-16 1 -91.3344 216.803)" fill="#1C1C1C"/>
</g>
<g id="Rectangle">
<use xlink:href="#path0_fill" transform="matrix(1 2.44929e-16 -2.44929e-16 1 -115.026 216.803)" fill="#1C1C1C"/>
</g>
<g id="Rectangle">
<use xlink:href="#path0_fill" transform="matrix(1 2.44929e-16 -2.44929e-16 1 -114.592 168)" fill="#1C1C1C"/>
</g>
<g id="Rectangle">
<use xlink:href="#path0_fill" transform="matrix(1 2.44929e-16 -2.44929e-16 1 -90.0646 168)" fill="#1C1C1C"/>
</g>
</g>
<g id="a">
<g id="Rectangle">
<use xlink:href="#path0_fill" transform="matrix(1 2.44929e-16 -2.44929e-16 1 -29.5149 241.546)" fill="#1C1C1C"/>
</g>
<g id="Rectangle">
<use xlink:href="#path0_fill" transform="matrix(1 2.44929e-16 -2.44929e-16 1 -29.5149 218.722)" fill="#1C1C1C"/>
</g>
<g id="Rectangle">
<use xlink:href="#path0_fill" transform="matrix(1 2.44929e-16 -2.44929e-16 1 -4.11882 194.629)" fill="#1C1C1C"/>
</g>
<g id="Rectangle">
<use xlink:href="#path0_fill" transform="matrix(1 2.44929e-16 -2.44929e-16 1 20.0074 194.629)" fill="#1C1C1C"/>
</g>
<g id="Rectangle">
<use xlink:href="#path0_fill" transform="matrix(1 2.44929e-16 -2.44929e-16 1 45.4035 170.536)" fill="#1C1C1C"/>
</g>
<g id="Rectangle">
<use xlink:href="#path0_fill" transform="matrix(1 2.44929e-16 -2.44929e-16 1 45.4035 218.722)" fill="#1C1C1C"/>
</g>
<g id="Rectangle">
<use xlink:href="#path0_fill" transform="matrix(1 2.44929e-16 -2.44929e-16 1 45.4035 241.546)" fill="#1C1C1C"/>
</g>
<g id="Rectangle">
<use xlink:href="#path0_fill" transform="matrix(1 2.44929e-16 -2.44929e-16 1 -4.11883 265.639)" fill="#1C1C1C"/>
</g>
<g id="Rectangle">
<use xlink:href="#path0_fill" transform="matrix(1 2.44929e-16 -2.44929e-16 1 20.0074 265.639)" fill="#1C1C1C"/>
</g>
<g id="Rectangle">
<use xlink:href="#path0_fill" transform="matrix(1 2.44929e-16 -2.44929e-16 1 70.7995 265.639)" fill="#1C1C1C"/>
</g>
</g>
<g id="m">
<g id="Rectangle">
<use xlink:href="#path0_fill" transform="matrix(1 2.44929e-16 -2.44929e-16 1 107.624 265.639)" fill="#1C1C1C"/>
</g>
<g id="Rectangle">
<use xlink:href="#path0_fill" transform="matrix(1 2.44929e-16 -2.44929e-16 1 133.02 241.546)" fill="#1C1C1C"/>
</g>
<g id="Rectangle">
<use xlink:href="#path0_fill" transform="matrix(1 2.44929e-16 -2.44929e-16 1 133.02 217.454)" fill="#1C1C1C"/>
</g>
<g id="Rectangle">
<use xlink:href="#path0_fill" transform="matrix(1 2.44929e-16 -2.44929e-16 1 107.624 193.361)" fill="#1C1C1C"/>
</g>
<g id="Rectangle">
<use xlink:href="#path0_fill" transform="matrix(1 2.44929e-16 -2.44929e-16 1 158.416 193.361)" fill="#1C1C1C"/>
</g>
<g id="Rectangle">
<use xlink:href="#path0_fill" transform="matrix(1 2.44929e-16 -2.44929e-16 1 183.812 217.454)" fill="#1C1C1C"/>
</g>
<g id="Rectangle">
<use xlink:href="#path0_fill" transform="matrix(1 2.44929e-16 -2.44929e-16 1 209.208 193.361)" fill="#1C1C1C"/>
</g>
<g id="Rectangle">
<use xlink:href="#path0_fill" transform="matrix(1 2.44929e-16 -2.44929e-16 1 234.604 217.454)" fill="#1C1C1C"/>
</g>
<g id="Rectangle">
<use xlink:href="#path0_fill" transform="matrix(1 2.44929e-16 -2.44929e-16 1 234.604 241.546)" fill="#1C1C1C"/>
</g>
<g id="Rectangle">
<use xlink:href="#path0_fill" transform="matrix(1 2.44929e-16 -2.44929e-16 1 209.208 265.639)" fill="#1C1C1C"/>
</g>
</g>
</g>
<g id="&#38;">
<g id="Combined Shape">
<use xlink:href="#path1_fill" transform="translate(271 227.959)" fill="#1C1C1C"/>
</g>
<g id="Rectangle 2">
<use xlink:href="#path2_fill" transform="translate(339.882 235.347)" fill="#1C1C1C"/>
</g>
<g id="Combined Shape">
<use xlink:href="#path3_fill" transform="translate(272.722 151)" fill="#1C1C1C"/>
</g>
<g id="Rectangle 3">
<use xlink:href="#path4_fill" transform="translate(338.94 270.792)" fill="#1C1C1C"/>
</g>
</g>
<g id="me">
<g id="m">
<g id="Rectangle 4">
<use xlink:href="#path5_fill" transform="translate(361 189.102)" fill="#1C1C1C"/>
</g>
<g id="Rectangle 5">
<use xlink:href="#path6_fill" transform="matrix(0.766445 0.64231 -0.643266 0.765643 405.121 185.506)" fill="#1C1C1C"/>
</g>
<g id="Oval 7">
<use xlink:href="#path7_fill" transform="translate(402.453 191.585)" fill="#1C1C1C"/>
</g>
<g id="Oval 8">
<use xlink:href="#path8_fill" transform="matrix(0.996204 0.0870462 -0.0872654 0.996185 422.004 172)" fill="#1C1C1C"/>
</g>
<g id="Oval 9">
<use xlink:href="#path9_fill" transform="translate(422.361 172.995)" fill="#1C1C1C"/>
</g>
</g>
<g id="Oval 10">
<use xlink:href="#path10_fill" transform="translate(484.655 189.596)" fill="#1C1C1C"/>
</g>
</g>
<g id="Combined Shape">
<use xlink:href="#path11_fill" transform="translate(347 260.902)" fill="#FFFFFF"/>
<mask id="mask0_outline_ins">
<use xlink:href="#path11_fill" fill="white" transform="translate(347 260.902)"/>
</mask>
<g mask="url(#mask0_outline_ins)">
<use xlink:href="#path12_stroke_2x" transform="translate(347 260.902)" fill="#1C1C1C"/>
</g>
</g>
</g>
</g>
<defs>
<path id="path0_fill" fill-rule="evenodd" d="M 0 0L 25.396 0L 25.396 25.3608L 0 25.3608L 0 0Z"/>
<path id="path1_fill" fill-rule="evenodd" d="M 81.3537 40.598C 76.9178 55.6104 43.1767 65.7517 25.3095 62.5287C 7.44232 59.3058 -3.44589 44.5232 0.989961 29.5108C 8.41568 2.63718 25.3095 -9.22871 40.1203 8.20334C 63.1274 33.1078 73.1627 37.1578 78.5524 39.3328C 79.6576 39.7789 80.5674 40.146 81.3537 40.598ZM 59.7823 46.2335C 56.3238 50.6383 45.2495 52.3097 41.9339 52.141C 26.7323 51.8648 19.5635 41.5771 19.5635 36.4521C 19.3938 33.6608 21.4857 24.6652 28.191 23.1723C 35.0858 31.888 41.9339 36.73 59.7823 46.2335Z"/>
<path id="path2_fill" fill-rule="evenodd" d="M 4.10124 4.47393C 12.8231 -2.91637 19.6726 -0.467966 22.5377 6.84138C 25.7947 20.5516 21.4561 25.4675 14.4537 35.8865C 9.29987 42.247 4.37044 38.537 0 31.7114C 6.13128 16.973 4.5722 13.8457 4.10124 4.47393Z"/>
<path id="path3_fill" fill-rule="evenodd" d="M 34.5925 81.2173C 32.296 86.5722 31.63 88.1251 21.0795 82.2782C 10.6092 92.8982 -2.19307 51.438 0.319717 38.0754C 4.41798 16.2815 21.5192 -1.11561 35.8693 0.0558852C 61.4601 2.14501 63.1607 27.2569 55.9562 42.4302C 54.0707 48.9278 46.5595 62.1787 38.8974 73.1542C 36.7012 76.3001 35.5152 79.0656 34.5925 81.2173ZM 38.817 48.2405C 35.3944 54.8409 34.7157 56.1497 26.4139 65.8719C 21.1609 72.0236 19.8518 45.9717 20.9779 36.7736C 22.104 27.5756 29.3197 15.8659 36.3835 15.8659C 43.4472 15.8659 47.2324 32.3674 41.2959 43.511C 40.3029 45.3751 39.5046 46.9146 38.817 48.2405Z"/>
<path id="path4_fill" fill-rule="evenodd" d="M 15.1704 0C 31.5607 8.38743 24.7264 -1.20731 46.8292 12.6831C 48.354 18.0561 42.0263 22.2079 36.7013 22.2079C 16.4358 15.9526 14.2578 16.249 4.06355 10.0263C -6.17444 3.7769 4.95431 6.23604 15.1704 0Z"/>
<path id="path5_fill" fill-rule="evenodd" d="M 0.0532735 11.7644C -0.816026 11.1015 9.14072 -6.79797 16.2294 2.84706C 22.2859 11.7644 29.6522 39.5994 32.7875 92.6041C 30.8934 94.0635 30.3842 100.706 21.2656 95.0352C 16.4113 82.1176 4.68526 46.9064 0.0532735 11.7644Z"/>
<path id="path6_fill" fill-rule="evenodd" d="M 4.06377 4.53019C 11.6933 -6.08245 8.27546 3.89865 15.905 14.5113C 8.52697 18.1032 13.5977 35.4959 26.917 55.4932C 19.4831 65.8337 15.8016 54.0872 8.18844 43.4973C 0.542597 32.8619 -3.56574 15.1428 4.06377 4.53019Z"/>
<path id="path7_fill" fill-rule="evenodd" d="M 12.825 66.9572C 19.4732 72.767 25.4369 52.7103 25.4369 35.136C 22.7817 29.1695 20.7904 -2.26104e-13 8.8423 0C -3.76958 -2.26103e-13 0.213121 1.98883 2.20447 13.9218C 6.18717 15.9106 7.51474 14.5847 8.8423 21.2142C 16.1439 55.6872 10.1699 59.0019 12.825 66.9572Z"/>
<path id="path8_fill" fill-rule="evenodd" d="M 3.53758 109.856C 4.5978 109.856 7.0853 111.406 8.16634 109.452C 11.2412 106.521 8.11189 93.4852 10.0299 83.8087C 8.95544 78.2756 10.2857 68.2853 11.4639 59.418C 7.53057 48.9488 36.7088 1.22042 34.5597 0.00329111C 23.864 -0.393084 5.76558 35.1279 4.53845 45.2173C 1.09328 45.2173 0 70.207 0 84.6851C 1.03316 104.086 0.0924105 109.856 3.53758 109.856Z"/>
<path id="path9_fill" fill-rule="evenodd" d="M 25.4422 115.379C 30.7525 118.694 34.7352 117.368 40.2825 116.416C 50.0022 108.087 61.9503 66.9846 62.6141 45.1075C 67.9244 10.6345 57.3038 -0.635557 39.3817 0.0273857C 21.785 0.0273857 4.20119 28.4618 4.20119 59.6922C 4.20119 63.3245 -1.12959 92.2823 0.218488 89.5246C 1.41396 87.0791 9.2393 53.0628 10.1752 53.0628C 23.4509 18.5898 31.3277 12.6233 39.3817 13.2862C 48.0109 15.2751 51.9936 25.8821 46.0195 47.0963C 38.0541 88.1987 19.4682 104.109 25.4422 115.379Z"/>
<path id="path10_fill" fill-rule="evenodd" d="M 10.9411 92.812C 27.5356 106.071 65.3713 106.734 71.3453 74.9125C 69.354 72.9237 65.3713 72.9237 65.3713 78.2272C 60.146 88.6646 49.4203 95.7011 33.5097 92.812C 18.9065 90.1602 12.4728 80.7258 10.9411 76.9013C 8.28592 70.2719 8.28592 62.3166 10.9411 48.3948C 12.2686 45.743 19.4207 26.5177 27.5356 20.5512C 35.6506 14.5847 38.8199 18.5624 40.1475 20.5512C 41.4751 22.54 45.4578 29.1695 42.8026 38.4507C 40.1475 47.7319 26.5855 54.5916 18.9065 55.6872C 9.61349 57.0131 10.9411 60.9907 13.5962 60.9907C 16.2513 62.3166 31.5183 62.9795 40.1475 58.3389C 53.4232 55.6872 62.0524 36.9788 62.0524 30.4954C 62.7161 19.8883 62.7161 3.97765 40.1475 0C 16.2513 0 1.64809 30.4954 0.320523 55.6872C -1.00704 67.6201 1.64809 83.5308 10.9411 92.812Z"/>
<path id="path11_fill" fill-rule="evenodd" d="M 19.7386 35.0983C 30.6042 33.4129 40.2331 25.0593 38.6189 17.5492C 37.9344 5.79305 27.8616 0.281393 19.7386 0C 8.83726 0 0 7.85702 0 17.5492C 0 27.6927 8.83726 35.0983 19.7386 35.0983Z"/>
<path id="path12_stroke_2x" d="M 19.7386 35.0983L 19.7386 43.0983L 20.3553 43.0983L 20.9648 43.0038L 19.7386 35.0983ZM 38.6189 17.5492L 30.6325 18.0142L 30.6682 18.6286L 30.7976 19.2302L 38.6189 17.5492ZM 19.7386 0L 20.0155 -7.9952L 19.8771 -8L 19.7386 -8L 19.7386 0ZM 20.9648 43.0038C 27.5713 41.8871 34.789 38.3643 39.2384 34.4291C 43.7657 30.3157 48.1132 23.6516 46.4403 15.8681L 30.7976 19.2302C 30.7388 18.9569 31.0789 20.2247 28.479 22.587C 25.8009 25.1274 22.7714 26.6241 18.5123 27.1928L 20.9648 43.0038ZM 46.6054 17.0841C 45.6008 -0.168576 30.7318 -7.62398 20.0155 -7.9952L 19.4616 7.9952C 24.9914 8.18676 30.268 11.7547 30.6325 18.0142L 46.6054 17.0841ZM 19.7386 -8C 5.32913 -8 -8 2.58047 -8 17.5492L 8 17.5492C 8 13.1336 12.3454 8 19.7386 8L 19.7386 -8ZM -8 17.5492C -8 33.0946 5.47145 43.0983 19.7386 43.0983L 19.7386 27.0983C 12.2031 27.0983 8 22.2907 8 17.5492L -8 17.5492Z"/>
</defs>
</svg>
