<svg width="159" height="132" viewBox="0 0 159 132" version="1.1" xmlns="http://www.w3.org/2000/svg" xmlns:xlink="http://www.w3.org/1999/xlink">
<title>Group</title>
<desc>Created using Figma</desc>
<g id="Canvas" transform="translate(-1 -1)">
<g id="Group">
<g id="Ellipse 2">
<use xlink:href="#path0_fill" transform="translate(14.5575 3.06473)" fill="#F0ADFF"/>
</g>
<g id="Group">
<g id="Ellipse">
<use xlink:href="#path1_fill" transform="translate(37.543 21.4531)" fill="#1C1C1C"/>
</g>
<g id="Rectangle 3">
<use xlink:href="#path2_fill" transform="translate(65.1255 93.754)" fill="#1C1C1C"/>
</g>
<g id="Vector 2">
<use xlink:href="#path3_stroke" transform="translate(65.8917 75.8258)" fill="#F0ADFF"/>
</g>
<g id="Group">
<g id="Rectangle 4">
<use xlink:href="#path4_fill" transform="translate(65.1255 112.564)" fill="#1C1C1C"/>
</g>
<g id="Rectangle 4">
<use xlink:href="#path4_fill" transform="translate(65.1255 117.854)" fill="#1C1C1C"/>
</g>
<g id="Rectangle 4">
<use xlink:href="#path5_fill" transform="translate(73.3767 129.023)" fill="#1C1C1C"/>
</g>
<g id="Rectangle 4">
<use xlink:href="#path4_fill" transform="translate(65.1255 123.145)" fill="#1C1C1C"/>
</g>
</g>
</g>
<g id="Group">
<g id="Vector 7">
<use xlink:href="#path6_stroke" transform="matrix(0.729558 -0.683919 0.683919 0.729558 25.0946 5.04533)" fill="#1C1C1C"/>
</g>
<g id="Vector 7">
<use xlink:href="#path6_stroke" transform="matrix(-0.729558 -0.683919 -0.683919 0.729558 139.954 5.04533)" fill="#1C1C1C"/>
</g>
<g id="Vector 7">
<use xlink:href="#path6_stroke" transform="matrix(0.370804 -0.928711 0.928711 0.370804 7.70129 34.5653)" fill="#1C1C1C"/>
</g>
<g id="Vector 7">
<use xlink:href="#path6_stroke" transform="matrix(0.649016 0.760775 0.760775 -0.649016 17.4328 109.049)" fill="#1C1C1C"/>
</g>
<g id="Vector 7">
<use xlink:href="#path6_stroke" transform="matrix(-0.649016 0.760775 -0.760775 -0.649016 149.589 109.815)" fill="#1C1C1C"/>
</g>
<g id="Vector 7">
<use xlink:href="#path6_stroke" transform="matrix(-0.370804 -0.928711 -0.928711 0.370804 157.73 34.9265)" fill="#1C1C1C"/>
</g>
<g id="Vector 7">
<use xlink:href="#path6_stroke" transform="matrix(6.12323e-17 -1 1 6.12323e-17 133.893 67.8723)" fill="#1C1C1C"/>
</g>
<g id="Vector 7">
<use xlink:href="#path6_stroke" transform="matrix(6.12323e-17 -1 1 6.12323e-17 5.94001 67.8723)" fill="#1C1C1C"/>
</g>
<g id="Group">
<g id="Vector 8">
<use xlink:href="#path7_stroke" transform="matrix(0.866028 0.499995 -0.499995 0.866028 29.1348 75.9015)" fill="#1C1C1C"/>
</g>
<g id="Vector 8">
<use xlink:href="#path7_stroke" transform="matrix(0.499995 -0.866028 0.866028 0.499995 26.038 76.7312)" fill="#1C1C1C"/>
</g>
</g>
<g id="Group">
<g id="Vector 8">
<use xlink:href="#path8_stroke" transform="matrix(0.423671 0.905816 -0.905816 0.423671 39.6738 33.1984)" fill="#1C1C1C"/>
</g>
<g id="Vector 8">
<use xlink:href="#path9_stroke" transform="matrix(0.905816 -0.423671 0.423671 0.905816 35.6256 31.7317)" fill="#1C1C1C"/>
</g>
</g>
<g id="Group">
<g id="Vector 8">
<use xlink:href="#path10_stroke" transform="matrix(0.591726 0.806139 -0.806139 0.591726 144.623 78.0576)" fill="#1C1C1C"/>
</g>
<g id="Vector 8">
<use xlink:href="#path10_stroke" transform="matrix(0.806139 -0.591726 0.591726 0.806139 140.247 77.3865)" fill="#1C1C1C"/>
</g>
</g>
<g id="Group">
<g id="Vector 8">
<use xlink:href="#path11_stroke" transform="matrix(0.866028 0.499995 -0.499995 0.866028 130.667 32.9002)" fill="#1C1C1C"/>
</g>
<g id="Vector 8">
<use xlink:href="#path11_stroke" transform="matrix(0.499995 -0.866028 0.866028 0.499995 125.737 34.2213)" fill="#1C1C1C"/>
</g>
</g>
<g id="Group">
<g id="Vector 8">
<use xlink:href="#path12_stroke" transform="matrix(0.740987 -0.671519 0.671519 0.740987 43.8073 110.857)" fill="#1C1C1C"/>
</g>
<g id="Vector 8">
<use xlink:href="#path12_stroke" transform="matrix(-0.671519 -0.740987 0.740987 -0.671519 43.5614 115.857)" fill="#1C1C1C"/>
</g>
</g>
<g id="Group">
<g id="Vector 8">
<use xlink:href="#path13_stroke" transform="matrix(0.858573 -0.51269 0.51269 0.858573 107.842 2.55526)" fill="#1C1C1C"/>
</g>
<g id="Vector 8">
<use xlink:href="#path13_stroke" transform="matrix(-0.51269 -0.858573 0.858573 -0.51269 106.118 9.38965)" fill="#1C1C1C"/>
</g>
</g>
<g id="Group">
<g id="Vector 8">
<use xlink:href="#path14_stroke" transform="matrix(-0.340177 0.940361 -0.940361 -0.340177 57.5585 6.80607)" fill="#1C1C1C"/>
</g>
<g id="Vector 8">
<use xlink:href="#path14_stroke" transform="matrix(0.940361 0.340177 -0.340177 0.940361 55.2041 1.78269)" fill="#1C1C1C"/>
</g>
</g>
<g id="Group">
<g id="Vector 8">
<use xlink:href="#path15_stroke" transform="matrix(0.907082 0.420954 -0.420954 0.907082 114.876 105.449)" fill="#1C1C1C"/>
</g>
<g id="Vector 8">
<use xlink:href="#path16_stroke" transform="matrix(0.420954 -0.907082 0.907082 0.420954 112.352 106.373)" fill="#1C1C1C"/>
</g>
</g>
<g id="Group">
<g id="Vector 8">
<use xlink:href="#path17_stroke" transform="matrix(0.838687 0.544614 -0.544614 0.838687 83.1297 13.1847)" fill="#1C1C1C"/>
</g>
<g id="Vector 8">
<use xlink:href="#path18_stroke" transform="matrix(0.544614 -0.838687 0.838687 0.544614 79.9709 13.8559)" fill="#1C1C1C"/>
</g>
</g>
<g id="Group">
<g id="Vector 8">
<use xlink:href="#path19_stroke" transform="matrix(0.941094 0.338144 -0.338144 0.941094 157.49 45.9188)" fill="#1C1C1C"/>
</g>
<g id="Vector 8">
<use xlink:href="#path20_stroke" transform="matrix(0.338144 -0.941094 0.941094 0.338144 154.079 47.5263)" fill="#1C1C1C"/>
</g>
</g>
<g id="Group">
<g id="Vector 8">
<use xlink:href="#path21_stroke" transform="matrix(-0.323417 0.946257 -0.946257 -0.323417 117.566 124.329)" fill="#1C1C1C"/>
</g>
<g id="Vector 8">
<use xlink:href="#path22_stroke" transform="matrix(0.946257 0.323417 -0.323417 0.946257 115.264 119.636)" fill="#1C1C1C"/>
</g>
</g>
<g id="Group">
<g id="Vector 8">
<use xlink:href="#path11_stroke" transform="matrix(0.871747 0.489956 -0.489956 0.871747 6.68327 50.6756)" fill="#1C1C1C"/>
</g>
<g id="Vector 8">
<use xlink:href="#path11_stroke" transform="matrix(0.489956 -0.871747 0.871747 0.489956 1.76842 52.0536)" fill="#1C1C1C"/>
</g>
</g>
</g>
</g>
</g>
<defs>
<path id="path0_fill" d="M 128.719 64.3594C 128.719 99.9041 99.9041 128.719 64.3594 128.719C 28.8147 128.719 0 99.9041 0 64.3594C 0 28.8147 28.8147 0 64.3594 0C 99.9041 0 128.719 28.8147 128.719 64.3594Z"/>
<path id="path1_fill" d="M 84.2801 42.0286C 84.2801 65.2403 81.0386 71.4192 42.1401 84.0572C 3.83091 71.7131 0 65.2403 0 42.0286C 0 18.8168 18.8667 0 42.1401 0C 65.4134 0 84.2801 18.8168 84.2801 42.0286Z"/>
<path id="path2_fill" d="M 0 5C 0 2.23858 2.23858 0 5 0L 23.8792 0C 26.6406 0 28.8792 2.23858 28.8792 5L 28.8792 12.0466C 28.8792 14.808 26.6406 17.0466 23.8792 17.0466L 5 17.0466C 2.23858 17.0466 0 14.808 0 12.0466L 0 5Z"/>
<path id="path3_stroke" d="M 0 1.17562L 1.31814 0.459736L -1.46305 1.50651L 0 1.17562ZM 3.83091 8.22937L 5.17184 7.55713L 5.16081 7.53512L 5.14906 7.51348L 3.83091 8.22937ZM 6.77777 14.1075L 5.43684 14.7797L 7.69452 19.2831L 8.26802 14.2783L 6.77777 14.1075ZM 7.95652 3.82078L 9.3289 3.21533L 7.09604 -1.84592L 6.46627 3.65001L 7.95652 3.82078ZM 27.4058 0L 28.8832 0.259498L 26.0372 -0.613902L 27.4058 0ZM 11.1981 11.1684L 9.82568 11.7739L 10.9928 14.4194L 12.4834 11.9417L 11.1981 11.1684ZM 12.9662 8.22937L 14.3843 7.7406L 13.3373 4.70272L 11.6808 7.45613L 12.9662 8.22937ZM 16.2077 17.6344L 14.7896 18.1231L 16.1588 22.0957L 17.6148 18.1541L 16.2077 17.6344ZM 20.3333 6.46594L 21.707 5.86337L 20.214 2.45999L 18.9262 5.94617L 20.3333 6.46594ZM 22.3961 11.1684L 21.0225 11.771L 22.3808 14.8676L 23.7647 11.7823L 22.3961 11.1684ZM 10.3036 39.9343L 1.46305 0.844738L -1.46305 1.50651L 7.37752 40.596L 10.3036 39.9343ZM 2.48999 8.90162L 5.43684 14.7797L 8.1187 13.4353L 5.17184 7.55713L 2.48999 8.90162ZM 8.26802 14.2783L 9.44676 3.99155L 6.46627 3.65001L 5.28752 13.9367L 8.26802 14.2783ZM 25.9284 -0.259498L 18.8559 40.0056L 21.8107 40.5246L 28.8832 0.259498L 25.9284 -0.259498ZM 6.58413 4.42623L 9.82568 11.7739L 12.5704 10.563L 9.3289 3.21533L 6.58413 4.42623ZM 12.4834 11.9417L 14.2515 9.00262L 11.6808 7.45613L 9.91272 10.3952L 12.4834 11.9417ZM 11.548 8.71815L 14.7896 18.1231L 17.6258 17.1456L 14.3843 7.7406L 11.548 8.71815ZM 17.6148 18.1541L 21.7404 6.9857L 18.9262 5.94617L 14.8006 17.1146L 17.6148 18.1541ZM 18.9597 7.0685L 21.0225 11.771L 23.7698 10.5659L 21.707 5.86337L 18.9597 7.0685ZM 23.7647 11.7823L 28.7744 0.613902L 26.0372 -0.613902L 21.0275 10.5545L 23.7647 11.7823ZM -1.31814 1.89151L 2.51277 8.94526L 5.14906 7.51348L 1.31814 0.459736L -1.31814 1.89151Z"/>
<path id="path4_fill" d="M 0 1.76344C 0 0.789518 0.789518 0 1.76344 0L 27.1158 0C 28.0897 0 28.8792 0.789518 28.8792 1.76344L 28.8792 1.76344C 28.8792 2.73736 28.0897 3.52687 27.1158 3.52687L 1.76344 3.52687C 0.789518 3.52687 0 2.73736 0 1.76344L 0 1.76344Z"/>
<path id="path5_fill" d="M 0 1.76344C 0 0.789518 0.789518 0 1.76344 0L 10.6134 0C 11.5873 0 12.3768 0.789518 12.3768 1.76344L 12.3768 1.76344C 12.3768 2.73736 11.5873 3.52687 10.6134 3.52687L 1.76344 3.52687C 0.789518 3.52687 0 2.73736 0 1.76344L 0 1.76344Z"/>
<path id="path6_stroke" d="M 1.5 25.6671L 1.5 0L -1.5 0L -1.5 25.6671L 1.5 25.6671Z"/>
<path id="path7_stroke" d="M -1 0L -1 4.53395L 1 4.53395L 1 0L -1 0Z"/>
<path id="path8_stroke" d="M -1 0L -1 6.09115L 1 6.09115L 1 0L -1 0Z"/>
<path id="path9_stroke" d="M -1 0L -1 6.08733L 1 6.08733L 1 0L -1 0Z"/>
<path id="path10_stroke" d="M -1 0L -1 6.2606L 1 6.2606L 1 0L -1 0Z"/>
<path id="path11_stroke" d="M -1 0L -1 7.21869L 1 7.21869L 1 0L -1 0Z"/>
<path id="path12_stroke" d="M -1 0L -1 7.07953L 1 7.07953L 1 0L -1 0Z"/>
<path id="path13_stroke" d="M -1 0L -1 9.96804L 1 9.96804L 1 0L -1 0Z"/>
<path id="path14_stroke" d="M -1 0L -1 7.84571L 1 7.84571L 1 0L -1 0Z"/>
<path id="path15_stroke" d="M -1 0L -1 3.80027L 1 3.80027L 1 0L -1 0Z"/>
<path id="path16_stroke" d="M -1 0L -1 3.80107L 1 3.80107L 1 0L -1 0Z"/>
<path id="path17_stroke" d="M -1 0L -1 4.56645L 1 4.56645L 1 0L -1 0Z"/>
<path id="path18_stroke" d="M -1 0L -1 4.56741L 1 4.56741L 1 0L -1 0Z"/>
<path id="path19_stroke" d="M -1 0L -1 5.33263L 1 5.33263L 1 0L -1 0Z"/>
<path id="path20_stroke" d="M -1 0L -1 5.33376L 1 5.33376L 1 0L -1 0Z"/>
<path id="path21_stroke" d="M -1 0L -1 7.3927L 1 7.3927L 1 0L -1 0Z"/>
<path id="path22_stroke" d="M -1 0L -1 7.39367L 1 7.39367L 1 0L -1 0Z"/>
</defs>
</svg>
