<svg width="160" height="160" viewBox="0 0 160 160" version="1.1" xmlns="http://www.w3.org/2000/svg" xmlns:xlink="http://www.w3.org/1999/xlink">
<title>influences-icon-b</title>
<desc>Created using Figma</desc>
<g id="Canvas" transform="translate(85 197)">
<g id="influences-icon-b">
<g id="influences-icon-b">
<g id="Rectangle">
<mask id="mask0_outline_ins">
<use xlink:href="#path0_fill" fill="white" transform="translate(-85 -197)"/>
</mask>
<g mask="url(#mask0_outline_ins)">
<use xlink:href="#path1_stroke_2x" transform="translate(-85 -197)" fill="#FFFFFF"/>
</g>
</g>
<g id="Ellipse">
<use xlink:href="#path2_fill" transform="translate(-67 -179)" fill="#F0ADFF"/>
</g>
<g id="Subtract">
<use xlink:href="#path3_fill" transform="matrix(-0.987497 -0.15764 0.15764 -0.987497 55.8572 -42.2585)" fill="#1C1C1C"/>
<mask id="mask1_outline_ins">
<use xlink:href="#path3_fill" fill="white" transform="matrix(-0.987497 -0.15764 0.15764 -0.987497 55.8572 -42.2585)"/>
</mask>
<g mask="url(#mask1_outline_ins)">
<use xlink:href="#path4_stroke_2x" transform="matrix(-0.987497 -0.15764 0.15764 -0.987497 55.8572 -42.2585)" fill="#1C1C1C"/>
</g>
</g>
</g>
<g id="Vector">
<use xlink:href="#path5_fill" transform="translate(-40 -141)" fill="#1C1C1C"/>
<use xlink:href="#path6_stroke" transform="translate(-40 -141)" fill="#F0ADFF"/>
</g>
</g>
</g>
<defs>
<path id="path0_fill" d="M 0 0L 160 0L 160 160L 0 160L 0 0Z"/>
<path id="path1_stroke_2x" d="M 0 0L 0 -1L -1 -1L -1 0L 0 0ZM 160 0L 161 0L 161 -1L 160 -1L 160 0ZM 160 160L 160 161L 161 161L 161 160L 160 160ZM 0 160L -1 160L -1 161L 0 161L 0 160ZM 0 1L 160 1L 160 -1L 0 -1L 0 1ZM 159 0L 159 160L 161 160L 161 0L 159 0ZM 160 159L 0 159L 0 161L 160 161L 160 159ZM 1 160L 1 0L -1 0L -1 160L 1 160Z"/>
<path id="path2_fill" d="M 125 62.5C 125 97.0178 97.0178 125 62.5 125C 27.9822 125 0 97.0178 0 62.5C 0 27.9822 27.9822 0 62.5 0C 97.0178 0 125 27.9822 125 62.5Z"/>
<path id="path3_fill" fill-rule="evenodd" d="M 74.4538 3.36428C 72.7768 0.439825 71.7726 -1.3114 71.3374 1.21702C 64.7036 19.5954 56.8738 10.6146 51.9651 4.98437C 48.6576 1.1907 46.6764 -1.0818 47.2808 7.56136C 45.7981 26.9285 33.5081 21.3167 27.1058 18.3933C 23.5044 16.7488 21.766 15.955 24.8621 20.9364C 32.1844 42.4785 15.1563 41.4332 8.06104 40.9977C 4.56326 40.783 3.47937 40.7165 8.91663 43.5772C 24.607 56.1659 10.8016 61.3966 3.65651 64.1038C -0.227662 65.5755 -2.14356 66.3014 3.71724 67.0582C 23.9067 73.2087 14.4347 81.4338 9.27265 85.9163C 6.33294 88.469 4.79103 89.808 10.9213 88.8587C 29.1784 86.0315 25.3933 99.8097 23.6093 106.304C 22.8359 109.119 22.4385 110.566 24.3763 108.697C 34.476 103.528 46.602 102.003 46.4562 123.292C 61.9987 103.899 66.2007 117.395 68.4683 124.679C 69.5272 128.08 70.1643 130.126 71.3374 126.837C 77.3639 102.207 87.9675 114.69 92.7137 120.278C 94.0754 121.881 94.955 122.916 95.106 122.345C 93.1015 97.6472 107.265 104.394 114.177 107.687C 117.027 109.045 118.644 109.815 117.389 107.555C 107.31 89.3966 120.942 91.2575 128.34 92.2674C 131.701 92.7262 133.775 93.0094 131.753 91.1596C 116.115 76.8474 127.953 72.6624 134.718 70.2706C 138.04 69.0964 140.139 68.3543 137.164 67.0582C 117.395 58.4458 127.789 50.8784 133.431 46.7702C 136.686 44.4006 138.36 43.1819 131.753 43.5772C 111.998 37.4382 117.658 25.455 120.212 20.0488C 121.567 17.1797 122.047 16.163 117.389 18.8553C 98.7087 24.898 99.6726 11.9818 100.141 5.70255C 100.4 2.22869 100.508 0.786184 97.054 5.70908C 85.3575 22.3794 78.2142 9.9221 74.4538 3.36428ZM 81.6092 105.64C 108.356 98.9805 125.173 74.0386 119.171 49.9303C 113.169 25.8221 86.6202 11.677 59.8731 18.3363C 33.1259 24.9956 16.3088 49.9375 22.3111 74.0458C 28.3133 98.154 54.862 112.299 81.6092 105.64Z"/>
<path id="path4_stroke_2x" d="M 71.3374 1.21702L 72.278 1.55654L 72.3079 1.47358L 72.3229 1.38667L 71.3374 1.21702ZM 74.4538 3.36428L 73.5863 3.86172L 73.5863 3.86172L 74.4538 3.36428ZM 51.9651 4.98437L 52.7189 4.32722L 51.9651 4.98437ZM 47.2808 7.56136L 48.2779 7.63769L 48.2835 7.56466L 48.2784 7.49159L 47.2808 7.56136ZM 27.1058 18.3933L 27.5212 17.4836L 27.1058 18.3933ZM 24.8621 20.9364L 25.8089 20.6146L 25.772 20.5059L 25.7114 20.4085L 24.8621 20.9364ZM 8.06104 40.9977L 8.12231 39.9996L 8.12231 39.9996L 8.06104 40.9977ZM 8.91663 43.5772L 9.54243 42.7972L 9.46739 42.737L 9.38225 42.6922L 8.91663 43.5772ZM 3.65651 64.1038L 3.3022 63.1687L 3.3022 63.1687L 3.65651 64.1038ZM 3.71724 67.0582L 4.00865 66.1016L 3.92845 66.0772L 3.8453 66.0664L 3.71724 67.0582ZM 9.27265 85.9163L 8.61699 85.1613L 8.61699 85.1613L 9.27265 85.9163ZM 10.9213 88.8587L 11.0743 89.8469L 11.0743 89.8469L 10.9213 88.8587ZM 23.6093 106.304L 24.5736 106.569L 23.6093 106.304ZM 24.3763 108.697L 23.9207 107.806L 23.7887 107.874L 23.682 107.977L 24.3763 108.697ZM 46.4562 123.292L 45.4562 123.286L 45.4365 126.164L 47.2365 123.918L 46.4562 123.292ZM 68.4683 124.679L 69.4231 124.382L 68.4683 124.679ZM 71.3374 126.837L 72.2793 127.173L 72.2965 127.124L 72.3087 127.074L 71.3374 126.837ZM 92.7137 120.278L 91.9515 120.925L 92.7137 120.278ZM 95.106 122.345L 96.0728 122.6L 96.1166 122.435L 96.1027 122.264L 95.106 122.345ZM 114.177 107.687L 113.747 108.59L 114.177 107.687ZM 117.389 107.555L 116.515 108.04L 117.389 107.555ZM 128.34 92.2674L 128.204 93.2582L 128.34 92.2674ZM 131.753 91.1596L 132.429 90.4219L 131.753 91.1596ZM 134.718 70.2706L 134.385 69.3278L 134.718 70.2706ZM 137.164 67.0582L 137.563 66.1414L 137.164 67.0582ZM 133.431 46.7702L 134.02 47.5786L 133.431 46.7702ZM 131.753 43.5772L 131.457 44.5322L 131.631 44.5863L 131.813 44.5754L 131.753 43.5772ZM 120.212 20.0488L 121.116 20.4758L 120.212 20.0488ZM 117.389 18.8553L 117.697 19.8068L 117.798 19.7741L 117.89 19.7211L 117.389 18.8553ZM 100.141 5.70255L 101.138 5.77698L 101.138 5.77698L 100.141 5.70255ZM 97.054 5.70908L 97.8726 6.28345L 97.054 5.70908ZM 119.171 49.9303L 120.142 49.6887L 119.171 49.9303ZM 81.6092 105.64L 81.8508 106.61L 81.6092 105.64ZM 59.8731 18.3363L 59.6315 17.3659L 59.8731 18.3363ZM 22.3111 74.0458L 21.3407 74.2873L 22.3111 74.0458ZM 72.3229 1.38667C 72.3699 1.10905 72.4081 0.954755 72.4609 0.822095C 72.5074 0.701181 72.5087 0.765686 72.398 0.854533C 72.2276 0.991265 71.9921 1.02995 71.8039 0.977447C 71.6838 0.943962 71.661 0.895 71.7427 0.972234C 71.8993 1.12042 72.138 1.43701 72.4739 1.97152C 72.8001 2.49024 73.167 3.13061 73.5863 3.86172L 75.3213 2.86684C 74.902 2.13573 74.5146 1.46053 74.1673 0.907401C 73.8296 0.370059 73.4756 -0.141463 73.1172 -0.480589C 72.9413 -0.64701 72.6804 -0.854426 72.3412 -0.949029C 71.9338 -1.06265 71.4982 -0.987749 71.1463 -0.705328C 70.854 -0.470793 70.6923 -0.151131 70.594 0.104717C 70.5021 0.34882 70.4137 0.692896 70.3519 1.04738L 72.3229 1.38667ZM 51.2114 5.64153C 52.4385 7.04909 53.893 8.71413 55.4689 10.1057C 57.0431 11.493 58.8531 12.7098 60.8161 13.0861C 62.8597 13.4777 64.9337 12.933 66.8905 11.0762C 68.799 9.26518 70.598 6.21089 72.278 1.55654L 70.3968 0.877509C 68.7599 5.41235 67.0925 8.12735 65.5138 9.62541C 63.9833 11.0777 62.5493 11.3818 61.1926 11.1218C 59.7553 10.8464 58.2729 9.911 56.7912 8.6052C 55.311 7.30368 53.946 5.73478 52.7189 4.32722L 51.2114 5.64153ZM 48.2784 7.49159C 48.1281 5.34181 48.1469 3.96065 48.2798 3.13843C 48.3473 2.72109 48.4302 2.54388 48.4632 2.4932C 48.4673 2.48688 48.3743 2.60012 48.2016 2.60801C 48.1109 2.61216 48.1398 2.57676 48.341 2.7022C 48.5516 2.83076 48.7671 3.01222 49.0628 3.29492C 49.6716 3.87382 50.3845 4.69311 51.2114 5.64153L 52.7189 4.32722C 51.892 3.3788 51.1169 2.4914 50.4429 1.84733C 50.0972 1.51856 49.7226 1.20946 49.3992 1.00509C 49.0665 0.797616 48.6177 0.586922 48.1104 0.610096C 47.5211 0.637016 47.0726 0.963619 46.7873 1.40168C 46.5309 1.79538 46.3904 2.29357 46.3054 2.81935C 46.1335 3.88337 46.1314 5.45933 46.2833 7.63112L 48.2784 7.49159ZM 26.6904 19.3029C 29.8114 20.728 34.7815 23.0336 39.1969 22.3236C 41.4857 21.9556 43.6084 20.7869 45.2307 18.3971C 46.8273 16.0453 47.9003 12.5704 48.2779 7.63769L 46.2838 7.48502C 45.92 12.2358 44.9008 15.3222 43.5759 17.2738C 42.2768 19.1875 40.6488 20.0645 38.8794 20.349C 35.1786 20.944 30.8025 18.9819 27.5212 17.4836L 26.6904 19.3029ZM 25.7114 20.4085C 24.9404 19.168 24.5185 18.3606 24.341 17.8675C 24.2563 17.6414 24.2704 17.5609 24.2584 17.5921C 24.2552 17.6308 24.2394 17.7313 24.1644 17.8468C 24.0844 17.9701 23.9748 18.0517 23.8746 18.0957C 23.721 18.1632 23.6538 18.1168 23.8238 18.1467C 23.9888 18.1739 24.1732 18.231 24.4561 18.3352C 25.0414 18.5491 25.7901 18.8918 26.6904 19.3029L 27.5212 17.4836C 26.6208 17.0725 25.8017 16.6993 25.1449 16.4576C 24.8067 16.3339 24.4515 16.2282 24.17 16.1769C 23.8934 16.1283 23.4727 16.0878 23.0702 16.2646C 22.5496 16.4933 22.3039 16.9634 22.2653 17.426C 22.2333 17.8101 22.3359 18.2026 22.4592 18.545C 22.7022 19.2124 23.2218 20.1906 24.0128 21.4643L 25.7114 20.4085ZM 7.99978 41.9958C 11.471 42.2089 17.8245 42.6288 22.3582 40.0804C 24.694 38.7673 26.5512 36.6696 27.298 33.446C 28.034 30.2691 27.6707 26.0919 25.8089 20.6146L 23.9153 21.2582C 25.7147 26.5519 25.9687 30.3223 25.3496 32.9946C 24.7413 35.6201 23.2709 37.2729 21.3781 38.3369C 17.4545 40.5425 11.7464 40.222 8.12231 39.9996L 7.99978 41.9958ZM 9.38225 42.6922C 8.0342 41.9831 7.12104 41.4729 6.53956 41.0969C 6.26182 40.9182 6.11552 40.8116 6.01899 40.7185C 5.98136 40.6831 5.9985 40.6919 6.02984 40.7422C 6.05646 40.785 6.15804 40.961 6.13409 41.2246C 6.10626 41.531 5.93222 41.7353 5.79792 41.8355C 5.73793 41.8802 5.68691 41.9046 5.65928 41.9163C 5.6712 41.9122 5.61513 41.9329 5.61156 41.9333C 5.55453 41.9517 5.75138 41.9107 5.97075 41.9078C 6.4405 41.8994 7.12533 41.9422 7.99978 41.9958L 8.12231 39.9996C 7.24786 39.9459 6.48554 39.8999 5.93823 39.908C 5.64906 39.9133 5.33085 39.9437 5.11043 39.9971C 4.98266 40.0302 4.78779 40.0939 4.60258 40.232C 4.39335 40.3879 4.17727 40.6588 4.1423 41.0437C 4.11121 41.3858 4.24056 41.6524 4.33186 41.7991C 4.40827 41.916 4.54271 42.0739 4.64947 42.176C 4.83393 42.347 5.12428 42.5632 5.45489 42.7773C 6.0901 43.1867 7.08042 43.741 8.45101 44.4622L 9.38225 42.6922ZM 4.01082 65.0389C 5.79708 64.3621 8.0538 63.5053 10.1605 62.412C 12.2606 61.3201 14.3266 59.9338 15.6536 58.141C 17.0228 56.2912 17.5826 54.0304 16.6634 51.3863C 15.7723 48.8229 13.5233 45.9912 9.54243 42.7972L 8.29083 44.3572C 12.1551 47.4576 14.0643 50.0005 14.7743 52.043C 15.4563 54.0048 15.0601 55.5812 14.0461 56.9511C 12.9899 58.3781 11.2455 59.5938 9.23791 60.6375C 7.23682 61.6797 5.08846 62.4919 3.3022 63.1687L 4.01082 65.0389ZM 3.8453 66.0664C 2.38248 65.8775 1.4906 65.6997 1.0094 65.537C 0.747316 65.4483 0.739666 65.4062 0.8045 65.4708C 0.852205 65.5184 0.94936 65.6367 0.986273 65.8298C 1.02486 66.0316 0.975711 66.1995 0.925474 66.2992C 0.855161 66.4387 0.789308 66.4393 0.963748 66.3273C 1.1207 66.2251 1.31981 66.1243 1.61525 65.991C 2.22081 65.7166 3.03977 65.4068 4.01082 65.0389L 3.3022 63.1687C 2.33116 63.5366 1.45407 63.8694 0.791128 64.1687C 0.452316 64.3222 0.124055 64.4911 -0.11678 64.6443C -0.340128 64.7877 -0.674195 65.0294 -0.860456 65.3989C -0.945322 65.5908 -1.00641 65.9694 -0.978142 66.2054C -0.920234 66.5082 -0.761183 66.734 -0.607841 66.8869C -0.331737 67.1623 0.0468385 67.3227 0.368623 67.4315C 1.01816 67.6487 2.09401 67.8564 3.58917 68.0499L 3.8453 66.0664ZM 9.92831 86.6714C 11.2188 85.5507 12.8304 84.148 14.177 82.5987C 15.5174 81.0527 16.7054 79.2338 16.9915 77.2559C 17.2905 75.1882 16.5809 73.126 14.5025 71.2303C 12.471 69.3774 9.1119 67.6562 4.00865 66.1016L 3.42582 68.0148C 8.41732 69.5354 11.4453 71.1488 13.1547 72.708C 14.8173 74.2244 15.2026 75.6518 15.0121 76.9696C 14.8085 78.3771 13.9224 79.8393 12.6659 81.2885C 11.4157 82.7343 9.9075 84.0406 8.61699 85.1613L 9.92831 86.6714ZM 10.7683 87.8705C 9.24205 88.1068 8.27477 88.1863 7.71156 88.1595C 7.44931 88.1498 7.3329 88.0921 7.37009 88.1197C 7.39587 88.1323 7.48205 88.1799 7.56329 88.2913C 7.65204 88.413 7.69235 88.5527 7.69542 88.6758C 7.70014 88.8649 7.6177 88.9225 7.71428 88.7798C 7.80449 88.6431 7.93034 88.5011 8.14077 88.2879C 8.5749 87.8456 9.19339 87.3096 9.92831 86.6714L 8.61699 85.1613C 7.88206 85.7994 7.20541 86.388 6.71522 86.8851C 6.46348 87.1416 6.21986 87.4229 6.05782 87.659C 5.90214 87.8891 5.68466 88.269 5.69604 88.7257C 5.71089 89.321 6.08684 89.7184 6.49106 89.9162C 6.83405 90.084 7.23915 90.1393 7.61662 90.1573C 8.35659 90.1901 9.50991 90.0886 11.0743 89.8469L 10.7683 87.8705ZM 24.5736 106.569C 25.0196 104.945 25.6049 102.808 25.936 100.587C 26.2633 98.3691 26.3295 95.9142 25.7424 93.8116C 25.1167 91.6172 23.7577 89.7015 21.2716 88.5686C 18.8364 87.4588 15.4269 87.149 10.7683 87.8705L 11.0743 89.8469C 15.5442 89.1547 18.508 89.507 20.4422 90.3885C 22.3254 91.2467 23.3319 92.6514 23.819 94.36C 24.3447 96.1602 24.2713 98.1909 23.9576 100.294C 23.6479 102.395 23.091 104.415 22.645 106.039L 24.5736 106.569ZM 23.682 107.977C 23.2391 108.406 22.8927 108.591 22.9807 108.57C 22.9946 108.565 23.3291 108.444 23.6752 108.701C 23.8276 108.815 23.9021 108.949 23.9354 109.031C 23.9671 109.108 23.9714 109.16 23.9715 109.161C 23.9786 109.202 23.969 109.082 23.9911 108.932C 24.0138 108.77 24.0501 108.59 24.1048 108.353C 24.2157 107.871 24.3802 107.273 24.5736 106.569L 22.645 106.039C 22.4517 106.743 22.2765 107.381 22.1559 107.904C 22.0445 108.387 21.9397 108.927 21.9807 109.353C 21.9993 109.546 22.0711 110 22.4811 110.305C 22.9426 110.649 23.4426 110.533 23.6797 110.444C 24.1255 110.278 24.6029 109.867 25.0705 109.416L 23.682 107.977ZM 47.4562 123.299C 47.5298 112.543 44.5036 107.007 39.6152 105.139C 34.9024 103.338 28.9904 105.212 23.9207 107.806L 24.8319 109.587C 29.8618 107.013 35.0626 105.54 38.9013 107.007C 42.5644 108.407 45.5283 112.753 45.4562 123.286L 47.4562 123.299ZM 69.4231 124.382C 68.8562 122.561 68.1441 120.282 67.1591 118.229C 66.1755 116.184 64.8408 114.195 62.9341 113.112C 60.9426 111.981 58.5245 111.945 55.6755 113.414C 52.8766 114.857 49.5949 117.777 45.6759 122.667L 47.2365 123.918C 51.0888 119.111 54.1607 116.445 56.5919 115.192C 58.9729 113.964 60.6613 114.121 61.9466 114.851C 63.3166 115.629 64.4289 117.167 65.3568 119.096C 66.2831 121.015 66.9466 123.155 67.5135 124.976L 69.4231 124.382ZM 70.3955 126.501C 70.2587 126.886 70.1479 127.15 70.0344 127.365C 69.936 127.558 69.8301 127.654 69.8733 127.623C 69.8975 127.601 70.0771 127.463 70.3593 127.51C 70.5886 127.549 70.6726 127.68 70.628 127.626C 70.5334 127.513 70.3673 127.196 70.1372 126.569C 69.9185 125.974 69.6878 125.232 69.4231 124.382L 67.5135 124.976C 67.7782 125.826 68.0243 126.616 68.2595 127.258C 68.4833 127.868 68.7483 128.495 69.092 128.907C 69.2666 129.117 69.5715 129.406 70.0272 129.483C 70.5359 129.568 70.9475 129.348 71.2129 129.108C 71.6638 128.701 71.9911 127.981 72.2793 127.173L 70.3955 126.501ZM 93.4759 119.63C 92.2893 118.233 90.6907 116.355 88.8857 114.736C 87.0885 113.128 84.9609 111.663 82.6878 111.242C 80.3095 110.802 77.9238 111.531 75.7974 113.98C 73.7264 116.364 71.8862 120.386 70.3661 126.599L 72.3087 127.074C 73.8018 120.972 75.5471 117.318 77.3075 115.291C 79.0125 113.328 80.7044 112.909 82.3235 113.209C 84.0479 113.528 85.8378 114.693 87.5519 116.227C 89.2583 117.751 90.765 119.528 91.9515 120.925L 93.4759 119.63ZM 94.1392 122.089C 94.1544 122.032 94.2334 121.779 94.524 121.615C 94.8245 121.445 95.0962 121.513 95.177 121.54C 95.2859 121.576 95.2627 121.601 95.052 121.401C 94.6811 121.051 94.1567 120.432 93.4759 119.63L 91.9515 120.925C 92.6324 121.726 93.2287 122.426 93.6758 122.852C 93.874 123.04 94.1841 123.317 94.543 123.437C 94.7488 123.505 95.1245 123.573 95.5074 123.356C 95.8803 123.146 96.0199 122.8 96.0728 122.6L 94.1392 122.089ZM 114.607 106.785C 112.879 105.961 110.633 104.894 108.298 104.161C 105.966 103.431 103.403 102.991 101.066 103.547C 98.653 104.121 96.6111 105.728 95.3442 108.79C 94.1022 111.792 93.6028 116.185 94.1093 122.426L 96.1027 122.264C 95.607 116.156 96.1263 112.131 97.1922 109.554C 98.2331 107.039 99.7882 105.907 101.529 105.492C 103.347 105.06 105.496 105.38 107.701 106.07C 109.903 106.756 112.019 107.767 113.747 108.59L 114.607 106.785ZM 116.515 108.04C 116.657 108.295 116.736 108.459 116.789 108.608C 116.841 108.752 116.812 108.738 116.821 108.633C 116.836 108.457 116.952 108.19 117.232 108.052C 117.416 107.961 117.539 107.998 117.453 107.986C 117.303 107.966 116.988 107.867 116.451 107.638C 115.937 107.418 115.32 107.124 114.607 106.785L 113.747 108.59C 114.46 108.93 115.113 109.241 115.664 109.477C 116.193 109.703 116.738 109.909 117.191 109.969C 117.408 109.998 117.768 110.018 118.119 109.844C 118.566 109.623 118.778 109.207 118.813 108.807C 118.842 108.478 118.756 108.164 118.668 107.922C 118.58 107.686 118.435 107.379 118.263 107.069L 116.515 108.04ZM 128.475 91.2766C 126.625 91.0241 124.327 90.7121 122.106 90.6766C 119.899 90.6432 117.601 90.8787 115.831 91.8454C 113.959 92.8682 112.78 94.6549 112.808 97.3737C 112.834 99.9879 113.969 103.453 116.515 108.04L 118.263 107.069C 115.77 102.577 114.829 99.4657 114.808 97.3535C 114.788 95.3458 115.59 94.2562 116.79 93.6007C 118.093 92.8892 119.96 92.6443 122.075 92.6764C 124.176 92.7064 126.355 93.0058 128.204 93.2582L 128.475 91.2766ZM 131.078 91.8973C 131.306 92.1051 131.436 92.2404 131.534 92.3687C 131.63 92.4934 131.58 92.4728 131.559 92.34C 131.521 92.1104 131.612 91.8324 131.822 91.6637C 131.948 91.5625 132.032 91.573 131.916 91.5903C 131.709 91.6215 131.31 91.6151 130.672 91.5527C 130.056 91.4926 129.315 91.3913 128.475 91.2766L 128.204 93.2582C 129.045 93.3729 129.823 93.479 130.478 93.5433C 131.112 93.6053 131.735 93.6401 132.213 93.5681C 132.441 93.534 132.783 93.4568 133.073 93.2243C 133.447 92.9242 133.607 92.4712 133.532 92.0152C 133.473 91.656 133.28 91.3576 133.116 91.1456C 132.953 90.9371 132.706 90.6766 132.429 90.4219L 131.078 91.8973ZM 134.385 69.3278C 132.693 69.9258 130.619 70.662 128.737 71.6452C 126.858 72.6303 125.038 73.9325 123.973 75.7366C 122.871 77.6033 122.655 79.8732 123.74 82.5677C 124.805 85.2105 127.121 88.2758 131.078 91.8973L 132.429 90.4219C 128.567 86.8874 126.498 84.0624 125.596 81.8205C 124.713 79.6302 124.947 78.0208 125.696 76.7533C 126.481 75.4231 127.912 74.3362 129.666 73.4166C 131.418 72.4952 133.36 71.8114 135.051 71.2134L 134.385 69.3278ZM 136.764 67.975C 137.425 68.2581 137.699 68.5811 137.657 68.4736C 137.613 68.4046 137.559 68.245 137.611 68.0619C 137.649 67.9266 137.715 67.8955 137.646 67.9557C 137.497 68.0851 137.154 68.2769 136.538 68.5312C 135.945 68.7766 135.215 69.0342 134.385 69.3278L 135.051 71.2134C 135.882 70.9199 136.66 70.6444 137.302 70.3798C 137.92 70.1243 138.539 69.8294 138.959 69.4645C 139.173 69.2775 139.425 68.9973 139.535 68.6072C 139.659 68.1694 139.564 67.7491 139.35 67.4099C 139 66.8523 138.301 66.4628 137.563 66.1414L 136.764 67.975ZM 132.843 45.9617C 131.432 46.9888 129.668 48.2762 128.156 49.746C 126.649 51.2149 125.277 52.9773 124.796 54.9925C 124.295 57.0874 124.792 59.292 126.691 61.4869C 128.551 63.6364 131.766 65.7973 136.764 67.975L 137.563 66.1414C 132.677 64.0128 129.778 61.9982 128.203 60.1782C 126.668 58.4035 126.409 56.8447 126.741 55.4577C 127.091 53.991 128.141 52.553 129.552 51.1784C 130.958 49.8047 132.609 48.6057 134.02 47.5786L 132.843 45.9617ZM 131.813 44.5754C 133.458 44.477 134.51 44.4853 135.129 44.5674C 135.421 44.6038 135.616 44.7026 135.557 44.6613C 135.517 44.6391 135.29 44.4706 135.29 44.1377C 135.29 43.9298 135.389 43.8647 135.285 43.9984C 135.186 44.1281 135.05 44.2595 134.818 44.4589C 134.338 44.8739 133.656 45.3694 132.843 45.9617L 134.02 47.5786C 134.833 46.9862 135.581 46.4407 136.124 45.9731C 136.404 45.7313 136.677 45.4609 136.86 45.2303C 137.037 45.0037 137.29 44.6196 137.29 44.136C 137.29 43.5274 136.909 43.1264 136.534 42.9166C 136.201 42.7295 135.793 42.638 135.392 42.5848C 134.606 42.4827 133.376 42.4788 131.694 42.579L 131.813 44.5754ZM 119.307 19.6217C 118.052 22.2802 115.836 26.9078 116.63 31.7016C 117.451 36.6559 121.38 41.4008 131.457 44.5322L 132.05 42.6222C 122.372 39.6145 119.253 35.2984 118.603 31.3748C 117.927 27.2906 119.818 23.2235 121.116 20.4758L 119.307 19.6217ZM 117.89 19.7211C 119.036 19.0583 119.817 18.6485 120.361 18.4294C 120.626 18.3221 120.761 18.2915 120.808 18.2859C 120.881 18.2769 120.622 18.3329 120.369 18.0938C 120.243 17.9752 120.185 17.8413 120.161 17.748C 120.15 17.704 120.147 17.6698 120.146 17.6497C 120.145 17.6544 120.144 17.6263 120.145 17.6191C 120.146 17.5931 120.143 17.6479 120.127 17.7102C 120.109 17.7796 120.09 17.8409 120.055 17.9375C 119.91 18.3481 119.646 18.9044 119.307 19.6217L 121.116 20.4758C 121.455 19.7586 121.759 19.1119 121.939 18.609C 122.034 18.3415 122.115 18.0225 122.139 17.7817C 122.16 17.5219 122.147 17.0216 121.741 16.6392C 121.342 16.262 120.842 16.2668 120.565 16.3007C 120.307 16.3357 119.95 16.4394 119.61 16.5756C 118.977 16.8334 118.071 17.3061 116.889 17.9895L 117.89 19.7211ZM 99.144 5.62813C 99.0269 7.19793 98.876 9.25358 99.0139 11.3241C 99.1565 13.392 99.6385 15.6429 100.736 17.4294C 101.905 19.3003 103.766 20.7073 106.569 21.2164C 109.325 21.7169 112.948 21.3431 117.697 19.8068L 117.081 17.9038C 112.49 19.3889 109.228 19.6665 106.926 19.2485C 104.671 18.839 103.299 17.7576 102.432 16.3698C 101.495 14.8977 101.138 13.1199 101.009 11.1888C 100.876 9.26035 101.021 7.34678 101.138 5.77698L 99.144 5.62813ZM 97.8726 6.28345C 98.7233 5.07061 99.3203 4.29323 99.7594 3.82683C 99.9746 3.59743 100.093 3.50826 100.132 3.48489C 100.2 3.44394 99.9287 3.63748 99.556 3.45787C 99.2262 3.29892 99.193 3.0181 99.2188 3.1217C 99.2324 3.17641 99.2507 3.30963 99.2541 3.55932C 99.2619 4.06212 99.2088 4.75966 99.144 5.62813L 101.138 5.77698C 101.203 4.90851 101.261 4.12304 101.254 3.53219C 101.249 3.22252 101.217 2.88323 101.159 2.63828C 101.102 2.40666 100.94 1.90489 100.424 1.65619C 99.8654 1.38684 99.3496 1.62183 99.1022 1.77046C 98.8708 1.914 98.5715 2.17166 98.3007 2.45857C 97.7966 2.99771 97.1118 3.88611 96.2354 5.13472L 97.8726 6.28345ZM 73.5863 3.86172C 74.5264 5.50118 75.711 7.56298 77.1286 9.44402C 78.5472 11.3232 80.2705 13.1164 82.3323 14.1425C 84.4454 15.1941 86.8675 15.4133 89.5293 14.2087C 92.1351 13.0296 94.9006 10.5193 97.8726 6.28345L 96.2354 5.13472C 93.3592 9.23406 90.8455 11.4179 88.7048 12.3866C 86.6201 13.33 84.8282 13.1506 83.2234 12.352C 81.5672 11.5278 80.0686 10.019 78.7248 8.23897C 77.3799 6.46083 76.2614 4.50629 75.3213 2.86684L 73.5863 3.86172ZM 118.201 50.1719C 124.047 73.6519 107.676 98.1194 81.3676 104.669L 81.8508 106.61C 109.037 99.8417 126.3 74.4252 120.142 49.6887L 118.201 50.1719ZM 60.1147 19.3067C 86.4232 12.7566 112.355 26.692 118.201 50.1719L 120.142 49.6887C 113.983 24.9523 86.8173 10.5974 59.6315 17.3659L 60.1147 19.3067ZM 23.2815 73.8042C 17.4356 50.3242 33.8061 25.8567 60.1147 19.3067L 59.6315 17.3659C 32.4456 24.1344 15.182 49.5509 21.3407 74.2873L 23.2815 73.8042ZM 81.3676 104.669C 55.059 111.22 29.1273 97.2841 23.2815 73.8042L 21.3407 74.2873C 27.4994 99.0238 54.6649 113.379 81.8508 106.61L 81.3676 104.669Z"/>
<path id="path5_fill" d="M 21.6039 3.62313C 27.1324 -1.80188 37.4986 0.453619 39.1354 0.944424C 48.6567 -2.48327 56.3707 4.52191 56.3707 4.52191C 56.3707 4.52191 64.778 5.88778 67.9596 13.4349C 71.8707 17.2548 69.6883 28.9568 65.3843 32.5342C 65.3843 32.6279 65.356 32.7277 65.3025 32.8311C 63.9793 37.4679 61.049 40.2936 56.3707 41.4473C 52.9173 42.2988 50.4495 41.9502 47.3571 40.174C 49.2733 43.1699 47.3571 55.4534 47.3571 55.4534L 45.1369 56.4198L 42.2065 58C 42.2065 58 43.5861 48.9372 34.4805 38.9007C 33.8367 41.4473 25.7121 41.4473 23.2748 39.8744C 18.584 42.3964 14.3378 40.174 11.9005 38.0742C 11.3104 38.9007 7.84917 40.4913 3.77593 36.0972C 2.15103 34.4956 -1.09878 31.4569 0.526129 27.4411C -1.09878 24.0419 1.33858 16.8054 3.77593 15.1576C 2.15103 12.6859 9.7092 4.05324 14.5839 7.38777C 16.3076 5.51517 18.7543 3.62313 21.6039 3.62313Z"/>
<path id="path6_stroke" d="M 47.3571 8.34177L 46.6083 8.29998L 46.6048 8.36127L 46.6114 8.42231L 47.3571 8.34177ZM 14.5839 7.38777L 15.1357 7.89571L 15.1357 7.89571L 14.5839 7.38777ZM 23.2748 39.8744L 23.6815 39.2442L 23.574 39.1748L 23.4496 39.145L 23.2748 39.8744ZM 34.4805 38.9007L 33.8531 38.4898L 33.7842 38.595L 33.7534 38.7169L 34.4805 38.9007ZM 24.1792 27.4411L 24.8974 27.2249L 24.879 27.1638L 24.8505 27.1066L 24.1792 27.4411ZM 65.3843 32.5342L 64.9049 31.9575L 64.7211 32.1103L 64.6596 32.3413L 65.3843 32.5342ZM 44.7818 27.4411L 44.7944 28.191L 44.8502 28.1901L 44.9051 28.1809L 44.7818 27.4411ZM 56.3707 41.4473L 56.5503 42.1754L 56.3707 41.4473ZM 56.3707 30.306L 57.113 30.1986L 57.0868 30.0175L 56.9801 29.8688L 56.3707 30.306ZM 11.9005 38.0742L 12.39 37.506L 11.7675 36.9697L 11.2901 37.6384L 11.9005 38.0742ZM 42.2065 58L 41.465 57.8871L 41.2387 59.374L 42.5624 58.6601L 42.2065 58ZM 47.3571 55.4534L 47.6564 56.1411L 48.0346 55.9765L 48.0981 55.569L 47.3571 55.4534ZM 17.5876 25.4224L 17.9834 26.0595L 18.0924 25.9918L 18.1727 25.8917L 17.5876 25.4224ZM 17.79 33.2832L 18.4809 32.9913L 18.4809 32.9913L 17.79 33.2832ZM 22.1292 4.15844C 24.6899 1.64568 28.4271 0.86704 31.8404 0.81526C 35.2386 0.763711 38.1623 1.43564 38.92 1.66282L 39.3508 0.226027C 38.4717 -0.0375945 35.394 -0.738819 31.8177 -0.684567C 28.2566 -0.630546 24.0464 0.175562 21.0786 3.08781L 22.1292 4.15844ZM 38.92 1.66282C 43.0339 2.89644 44.9243 4.6547 45.8018 6.00643C 46.2527 6.69024 46.4365 7.24927 46.5338 7.70309C 46.5803 7.91322 46.596 8.05796 46.6038 8.17831C 46.6075 8.23085 46.608 8.26016 46.6081 8.28855C 46.6081 8.2991 46.6081 8.30169 46.6079 8.30728C 46.6079 8.3083 46.6079 8.30752 46.6079 8.30696C 46.6079 8.30756 46.608 8.30403 46.608 8.30432C 46.608 8.3049 46.6082 8.30207 46.6081 8.30236C 46.6082 8.302 46.6082 8.3014 46.6082 8.30122C 46.6082 8.30061 46.6083 8.29998 47.3571 8.34177C 48.1059 8.38356 48.106 8.38289 48.106 8.38221C 48.106 8.38195 48.1061 8.38124 48.1061 8.38073C 48.1061 8.38015 48.1062 8.37862 48.1063 8.37745C 48.1063 8.37599 48.1065 8.37246 48.1066 8.36952C 48.1068 8.3654 48.1071 8.35651 48.1073 8.34827C 48.1077 8.33535 48.1081 8.31039 48.1081 8.28479C 48.1079 8.24088 48.106 8.16348 48.1005 8.07842C 48.0899 7.92354 48.0604 7.66942 47.9996 7.385C 47.8823 6.84972 47.603 6.03689 47.06 5.18969C 45.9497 3.47938 43.7293 1.53898 39.3508 0.226028L 38.92 1.66282ZM 46.6114 8.42231C 46.6658 8.92518 46.509 9.76587 46.1625 10.8409C 45.8239 11.8937 45.3478 13.043 44.8518 14.1363C 44.3567 15.2282 43.855 16.2314 43.4725 16.9711C 43.282 17.3395 43.1237 17.6372 43.0116 17.8456C 42.9559 17.9491 42.9126 18.0287 42.8826 18.0835C 42.8678 18.1106 42.8568 18.1307 42.8491 18.1447C 42.8453 18.1515 42.8426 18.1564 42.8407 18.1598C 42.8398 18.1615 42.8392 18.1626 42.8387 18.1634C 42.8385 18.1638 42.8384 18.164 42.8383 18.1642C 42.8383 18.1643 42.8382 18.1643 42.8382 18.1643C 42.8382 18.1643 42.8382 18.1643 43.4941 18.5281C 44.15 18.8919 44.15 18.8918 44.1501 18.8916C 44.1501 18.8916 44.1502 18.8914 44.1503 18.8913C 44.1505 18.891 44.1507 18.8905 44.151 18.89C 44.1516 18.889 44.1524 18.8874 44.1535 18.8855C 44.1556 18.8817 44.1589 18.8758 44.163 18.8684C 44.171 18.8538 44.1832 18.8316 44.1987 18.8031C 44.2295 18.7469 44.2752 18.6629 44.3325 18.5563C 44.4464 18.3446 44.6104 18.0361 44.8049 17.6602C 45.1921 16.9113 45.7108 15.8735 46.2179 14.7559C 46.724 13.6396 47.2319 12.4109 47.5902 11.301C 47.9408 10.2132 48.1941 9.10654 48.1028 8.26122L 46.6114 8.42231ZM 43.4941 18.5281C 43.7088 17.8095 43.7086 17.8094 43.7083 17.8093C 43.7082 17.8093 43.7079 17.8092 43.7076 17.8091C 43.7072 17.809 43.7063 17.8087 43.7054 17.8085C 43.7038 17.808 43.7011 17.8072 43.6979 17.8062C 43.692 17.8045 43.6825 17.8017 43.6708 17.7983C 43.6483 17.7918 43.6133 17.7817 43.5691 17.7692C 43.4825 17.7448 43.3513 17.7086 43.1851 17.6647C 42.8565 17.5779 42.3701 17.4559 41.7687 17.322C 40.5741 17.0563 38.8724 16.7331 36.931 16.5187C 33.0634 16.0926 28.0816 16.0773 23.889 17.8365L 24.4694 19.2197C 28.3094 17.6084 32.985 17.5931 36.7667 18.0096C 38.65 18.2165 40.271 18.5253 41.4428 18.7862C 42.0246 18.9156 42.4824 19.0306 42.8022 19.115C 42.9602 19.1567 43.0792 19.1896 43.1618 19.2129C 43.2022 19.2243 43.2316 19.2327 43.2522 19.2387C 43.2621 19.2416 43.2689 19.2436 43.2739 19.2451C 43.2762 19.2457 43.2776 19.2461 43.2787 19.2465C 43.2792 19.2466 43.2793 19.2467 43.2796 19.2467C 43.2796 19.2468 43.2796 19.2467 43.2796 19.2468C 43.2796 19.2467 43.2794 19.2467 43.4941 18.5281ZM 24.1792 18.5281C 24.9292 18.5225 24.9292 18.5224 24.9292 18.5222C 24.9292 18.5221 24.9292 18.5219 24.9292 18.5217C 24.9292 18.5212 24.9292 18.5205 24.9292 18.5197C 24.9292 18.5181 24.9291 18.5155 24.9291 18.5123C 24.9291 18.5061 24.929 18.4966 24.9288 18.4844C 24.9286 18.4604 24.9282 18.4241 24.9275 18.3774C 24.9262 18.2848 24.924 18.1473 24.9202 17.973C 24.9128 17.6261 24.8993 17.1241 24.8755 16.5172C 24.8278 15.3073 24.7374 13.6542 24.5693 11.9296C 24.401 10.2066 24.1491 8.37067 23.7838 6.82216C 23.4269 5.31284 22.9205 3.87536 22.133 3.09155L 21.0748 4.1547C 21.529 4.60672 21.9653 5.65028 22.3241 7.16736C 22.6745 8.64524 22.9112 10.3811 23.0764 12.0753C 23.2417 13.768 23.3294 15.3777 23.3766 16.5763C 23.4002 17.1737 23.4133 17.6623 23.4206 18.005C 23.4242 18.1755 23.4264 18.3075 23.4276 18.3983C 23.4283 18.4433 23.4287 18.4771 23.4289 18.5003C 23.429 18.5117 23.4291 18.52 23.4292 18.5258C 23.4292 18.5286 23.4292 18.5305 23.4292 18.5319C 23.4292 18.5326 23.4292 18.533 23.4292 18.5333C 23.4292 18.5335 23.4292 18.5336 23.4292 18.5336C 23.4292 18.5337 23.4292 18.5336 24.1792 18.5281ZM 21.6039 2.87313C 18.4277 2.87313 15.7923 4.96763 14.0321 6.87983L 15.1357 7.89571C 16.823 6.0627 19.0809 4.37313 21.6039 4.37313L 21.6039 2.87313ZM 14.0321 6.87983C 13.1607 7.82822 12.4553 8.78606 11.9867 9.48219C 11.7495 9.83484 11.5623 10.1353 11.4396 10.3392C 11.377 10.4433 11.3275 10.5282 11.2957 10.5837C 11.2793 10.6125 11.2659 10.6361 11.2577 10.6509C 11.2532 10.6588 11.2495 10.6655 11.2473 10.6695C 11.246 10.6718 11.2449 10.6738 11.2442 10.675C 11.2439 10.6757 11.2435 10.6764 11.2433 10.6767C 11.2432 10.677 11.243 10.6772 11.2429 10.6773C 11.2429 10.6774 11.2428 10.6775 11.2428 10.6776C 11.2428 10.6777 11.2427 10.6778 11.9005 11.0381C 12.5582 11.3985 12.5582 11.3986 12.5581 11.3987C 12.5581 11.3987 12.5581 11.3987 12.5581 11.3988C 12.5581 11.3988 12.558 11.3989 12.558 11.3989C 12.5579 11.399 12.558 11.3989 12.5581 11.3987C 12.5585 11.398 12.5588 11.3975 12.5595 11.3962C 12.5611 11.3933 12.5632 11.3896 12.5664 11.3837C 12.5735 11.371 12.5832 11.3538 12.5973 11.3294C 12.6265 11.2784 12.6679 11.2072 12.725 11.1124C 12.8416 10.9185 13.0086 10.6502 13.2312 10.3196C 13.6821 9.64918 14.3185 8.78183 15.1357 7.89571L 14.0321 6.87983ZM 7.52253 21.9525C 6.35681 23.0533 6.12034 24.8118 6.2256 26.4227C 6.33608 28.0531 6.8219 29.8182 7.34337 31.0957L 8.73158 30.5274C 8.24132 29.3332 7.81505 27.8028 7.72241 26.3249C 7.62456 24.8274 7.89396 23.6648 8.55242 23.043L 7.52253 21.9525ZM 7.29168 30.8909C 7.62414 34.0178 9.74111 37.4469 12.7049 39.5879C 15.6985 41.7505 19.6636 42.6675 23.6299 40.535L 22.9196 39.2138C 19.5739 41.0126 16.2269 40.2818 13.5832 38.372C 10.9096 36.4406 9.06398 33.3725 8.78327 30.7323L 7.29168 30.8909ZM 22.8681 40.5046C 23.6075 40.9817 24.6939 41.2971 25.8429 41.4842C 26.9974 41.671 28.3408 41.7432 29.5879 41.6814C 30.8382 41.6172 32.1038 41.4065 33.0639 41.0507C 34.0097 40.6963 34.9518 40.0963 35.2076 39.0845L 33.7534 38.7169C 33.6873 38.9783 33.3724 39.3333 32.5376 39.646C 31.7171 39.9572 30.6785 40.1257 29.5125 40.1833C 28.3433 40.2432 27.1583 40.1796 26.0839 40.0037C 25.0039 39.8279 24.1607 39.5535 23.6815 39.2442L 22.8681 40.5046ZM 24.1792 27.4411C 24.7976 27.0167 24.7976 27.0167 24.7976 27.0167C 24.7976 27.0168 24.7977 27.0168 24.7977 27.0168C 24.7977 27.0168 24.7978 27.017 24.7978 27.017C 24.7978 27.0169 24.798 27.0173 24.798 27.0173C 24.7979 27.0172 24.7983 27.0177 24.7982 27.0177C 24.7983 27.0177 24.7984 27.0179 24.7984 27.0178C 24.798 27.0172 24.7978 27.017 24.797 27.0159C 24.7948 27.0125 24.7924 27.009 24.7881 27.0025C 24.7782 26.9874 24.7658 26.9683 24.7475 26.9393C 24.7083 26.8771 24.6571 26.7933 24.5911 26.6769L 23.2867 27.4176C 23.3645 27.5544 23.4335 27.6676 23.4785 27.739C 23.5023 27.7768 23.523 27.8087 23.5357 27.8279C 23.5426 27.8385 23.549 27.8479 23.5525 27.8533C 23.5547 27.8564 23.5567 27.8595 23.5578 27.8611C 23.5585 27.8621 23.5593 27.8632 23.5596 27.8637C 23.5599 27.8641 23.5602 27.8645 23.5603 27.8647C 23.5604 27.8649 23.5606 27.8651 23.5606 27.8652C 23.5607 27.8652 23.5607 27.8653 23.5607 27.8654C 23.5608 27.8654 23.5608 27.8654 23.5608 27.8654C 23.5608 27.8655 23.5609 27.8655 24.1792 27.4411ZM 24.5911 26.6769C 24.2507 26.0782 23.6726 24.9226 23.4994 23.4876C 23.3203 22.0868 23.532 20.4889 24.7574 19.0058L 23.601 18.0504C 22.0525 19.9245 21.7929 21.9677 22.0115 23.6779C 22.236 25.354 22.9246 26.7793 23.2867 27.4176L 24.5911 26.6769ZM 23.889 17.8365C 23.5031 17.9984 22.6395 17.9795 21.3725 17.6281C 20.145 17.2892 18.7713 16.7114 17.433 15.9654C 16.0935 15.2213 14.886 14.3666 13.9853 13.4462C 13.0772 12.5223 12.6478 11.693 12.6505 11.0412L 11.1505 11.0351C 11.1454 12.2932 11.9252 13.4902 12.9155 14.4977C 13.9133 15.5085 15.2935 16.4902 16.7037 17.2762C 18.115 18.0602 19.653 18.7062 20.9716 19.0735C 22.2506 19.4283 23.5677 19.598 24.4694 19.2197L 23.889 17.8365ZM 39.3894 1.65009C 43.9192 0.0193488 48.0258 0.863661 51.0307 2.13823C 52.5405 2.77647 53.7361 3.50666 54.59 4.09771C 55.0106 4.38838 55.3273 4.63214 55.5502 4.81172C 55.6589 4.89915 55.7374 4.96524 55.7934 5.01327C 55.82 5.03613 55.8382 5.05204 55.8518 5.06401C 55.8579 5.06943 55.8615 5.07269 55.8647 5.07547C 55.8659 5.07658 55.8663 5.07699 55.867 5.07755C 55.8671 5.07769 55.8672 5.07773 55.8671 5.07766C 55.867 5.07762 55.8669 5.07749 55.8669 5.07747C 55.8667 5.07732 55.8665 5.07713 56.3707 4.52191C 56.8749 3.96668 56.8747 3.96644 56.8744 3.96618C 56.8742 3.96605 56.8739 3.96576 56.8736 3.96551C 56.8732 3.96516 56.8724 3.96442 56.8716 3.96371C 56.8704 3.96258 56.868 3.96046 56.8655 3.95821C 56.8611 3.95428 56.8536 3.94755 56.8448 3.93982C 56.8286 3.9255 56.8023 3.90248 56.7701 3.87487C 56.7084 3.82196 56.612 3.7409 56.4911 3.64348C 56.2549 3.45335 55.8946 3.1766 55.4433 2.8641C 54.5532 2.24879 53.2253 1.44192 51.6164 0.757324C 48.384 -0.613767 43.8729 -1.5582 38.8814 0.238759L 39.3894 1.65009ZM 56.3892 3.77213C 53.4164 3.69877 48.8388 3.71538 46.6867 8.00548L 48.0275 8.67805C 49.7078 5.32843 53.2547 5.19524 56.3522 5.27168L 56.3892 3.77213ZM 56.3707 4.52191C 56.2504 5.2622 56.2502 5.26216 56.2499 5.26212C 56.2499 5.26211 56.2497 5.26208 56.2496 5.26207C 56.2496 5.26206 56.2495 5.26204 56.2496 5.26206C 56.2502 5.26217 56.2506 5.26222 56.2518 5.26243C 56.255 5.26298 56.2586 5.2636 56.265 5.26472C 56.2794 5.26724 56.2981 5.27062 56.3259 5.27591C 56.3848 5.28708 56.4658 5.30325 56.5766 5.32772C 56.8049 5.37805 57.1209 5.45467 57.5228 5.57288C 58.3413 5.81287 59.4252 6.19446 60.6292 6.81527C 63.0699 8.06645 65.775 10.1195 67.2685 13.7263L 68.6507 13.1436C 66.9627 9.20325 63.8733 6.79974 61.315 5.4812C 60.0194 4.81715 58.8026 4.38558 57.9453 4.13362C 57.5094 4.00585 57.1436 3.9168 56.8998 3.86295C 56.7744 3.83533 56.6717 3.81479 56.6059 3.80227C 56.5713 3.79571 56.5425 3.7905 56.5248 3.78739C 56.5152 3.7857 56.5067 3.78424 56.5019 3.78342C 56.499 3.78294 56.4963 3.78249 56.4949 3.78225C 56.494 3.7821 56.493 3.78194 56.4925 3.78187C 56.4922 3.78181 56.4918 3.78175 56.4917 3.78172C 56.4913 3.78167 56.491 3.78161 56.3707 4.52191ZM 67.4356 13.9715C 68.2557 14.7724 68.8083 16.0443 69.0724 17.6494C 69.3425 19.271 69.3028 21.0851 69.0114 22.961C 68.4279 26.7385 66.8501 30.3406 64.9049 31.9575L 65.8637 33.111C 68.2226 31.1504 69.8879 27.1127 70.4938 23.19C 70.7971 21.2157 70.8387 19.1645 70.5525 17.4058C 70.2604 15.6306 69.6192 14.0074 68.4837 12.8984L 67.4356 13.9715ZM 45.2674 26.8696C 44.1419 25.9132 43.7997 24.0149 43.8301 22.0977C 43.8439 21.1708 43.9423 20.3323 44.04 19.6976C 44.088 19.3848 44.1339 19.1371 44.1693 18.9592C 44.1866 18.8723 44.2003 18.8079 44.2104 18.7617C 44.2152 18.7396 44.2186 18.7242 44.2212 18.7128C 44.2224 18.7076 44.2231 18.7044 44.2237 18.7017C 44.224 18.7006 44.2241 18.7002 44.2242 18.6996C 44.2243 18.6994 44.2243 18.6993 44.2243 18.6994C 44.2243 18.6994 44.2243 18.6995 44.2243 18.6995C 44.2242 18.6997 44.2242 18.6998 43.4941 18.5281C 42.764 18.3563 42.764 18.3565 42.7639 18.3568C 42.7639 18.3569 42.7639 18.3571 42.7638 18.3573C 42.7637 18.3576 42.7636 18.3583 42.7634 18.3589C 42.7632 18.36 42.7628 18.3619 42.7623 18.3639C 42.7614 18.3675 42.76 18.3737 42.7584 18.3809C 42.7554 18.3943 42.7505 18.4158 42.7448 18.442C 42.7338 18.4924 42.7173 18.5703 42.6982 18.6663C 42.6608 18.8541 42.609 19.1343 42.5574 19.4698C 42.4558 20.1317 42.3472 21.0721 42.3303 22.0739C 42.2995 24.014 42.601 26.5722 44.2961 28.0126L 45.2674 26.8696ZM 43.4941 18.5281C 43.7196 19.2434 43.7192 19.2435 43.7188 19.2436C 43.7187 19.2437 43.7183 19.2438 43.718 19.2439C 43.7182 19.2438 43.7165 19.2443 43.7168 19.2442C 43.7169 19.2442 43.7154 19.2447 43.7156 19.2446C 43.7147 19.2449 43.7158 19.2445 43.7175 19.2441C 43.7231 19.2424 43.7276 19.2411 43.7383 19.2382C 43.7649 19.231 43.7951 19.2233 43.8445 19.2125C 43.9539 19.1882 44.0899 19.1626 44.2817 19.1428C 44.6891 19.0988 45.1852 19.0872 45.7966 19.2238C 46.9657 19.4756 48.4912 20.2663 49.677 22.6115L 51.0156 21.9346C 49.6261 19.1866 47.7255 18.1048 46.1124 17.7574C 45.3326 17.5945 44.5985 17.6016 44.1235 17.6512C 43.8742 17.6782 43.6558 17.7181 43.5213 17.7477C 43.4487 17.7638 43.3846 17.7801 43.3472 17.7901C 43.326 17.7959 43.3061 17.8015 43.2955 17.8047C 43.2889 17.8066 43.2821 17.8086 43.2789 17.8096C 43.2766 17.8103 43.2741 17.8111 43.2729 17.8114C 43.2721 17.8117 43.271 17.812 43.2706 17.8122C 43.2702 17.8123 43.2697 17.8124 43.2696 17.8125C 43.2691 17.8126 43.2686 17.8128 43.4941 18.5281ZM 49.677 22.6115C 51.2075 25.6383 54.5897 25.9694 57.1921 24.9671C 59.7826 23.9695 62.1099 21.4565 61.3784 18.2846L 59.9168 18.6217C 60.4117 20.7677 58.8759 22.7112 56.653 23.5673C 54.442 24.4188 52.0604 24.0009 51.0156 21.9346L 49.677 22.6115ZM 61.3293 18.7658C 62.907 15.3259 61.6943 11.5633 60.2419 8.80669C 59.5068 7.4145 58.6707 6.20435 58.037 5.37054C 57.7165 4.94929 57.4365 4.60802 57.2432 4.38022C 57.1449 4.26436 57.0642 4.17215 57.0109 4.11213C 56.9835 4.08119 56.9611 4.05631 56.9468 4.04059C 56.9393 4.03229 56.933 4.02535 56.9291 4.02117C 56.927 4.01886 56.9251 4.0168 56.9241 4.01564C 56.9234 4.01495 56.9228 4.01427 56.9225 4.01393C 56.9223 4.0137 56.9221 4.01345 56.9219 4.01334C 56.9217 4.01312 56.9216 4.01293 56.3707 4.52191C 55.8199 5.03088 55.8197 5.03075 55.8196 5.03065C 55.8196 5.03065 55.8196 5.03058 55.8196 5.03059C 55.8197 5.03071 55.8197 5.03074 55.8199 5.03099C 55.8206 5.03171 55.8213 5.03245 55.8226 5.03387C 55.8256 5.03715 55.8295 5.04138 55.8353 5.04786C 55.8479 5.06172 55.8652 5.08091 55.8892 5.108C 55.9389 5.16401 56.0086 5.24362 56.0996 5.35085C 56.285 5.56923 56.5396 5.87923 56.8429 6.27837C 57.4566 7.08532 58.2243 8.19236 58.9148 9.50591C 60.3137 12.1608 61.2394 15.3639 59.9659 18.1405L 61.3293 18.7658ZM 61.3293 18.7658C 62.744 15.6813 63.8713 14.4545 64.7885 14.0056C 65.6585 13.5798 66.498 13.7704 67.7393 14.1518L 68.18 12.718C 66.984 12.3505 65.593 11.9419 64.1291 12.6583C 62.7124 13.3516 61.4024 15.0084 59.9659 18.1405L 61.3293 18.7658ZM 64.6596 32.3413C 64.6339 32.4378 64.6084 32.5304 64.5813 32.6253L 66.0237 33.0369C 66.0526 32.9355 66.0816 32.8302 66.1091 32.7272L 64.6596 32.3413ZM 64.5813 32.6253C 63.3319 37.0036 60.6082 39.6299 56.1911 40.7191L 56.5503 42.1754C 61.4898 40.9574 64.6268 37.9323 66.0237 33.0369L 64.5813 32.6253ZM 56.1911 40.7191C 52.9258 41.5243 50.6561 41.204 47.7307 39.5236L 46.9835 40.8243C 50.2429 42.6965 52.9088 43.0734 56.5503 42.1754L 56.1911 40.7191ZM 64.6343 32.5342C 64.6343 32.5052 64.6387 32.4859 64.6408 32.4783C 64.6429 32.471 64.643 32.4736 64.6365 32.4863L 65.9685 33.1759C 66.0533 33.004 66.1272 32.7313 66.1343 32.5342L 64.6343 32.5342ZM 64.6365 32.4862C 64.5465 32.6599 64.1431 33.035 63.3781 33.3797C 62.6357 33.7172 61.7906 33.9397 60.8823 33.9332C 59.9734 33.9387 59.2129 33.7548 58.5337 33.1682C 57.8912 32.6356 57.3343 31.7276 57.113 30.1986L 55.6284 30.4134C 55.8901 32.2214 56.5855 33.5015 57.5763 34.323C 58.5303 35.0905 59.784 35.4267 60.8816 35.4332C 61.9799 35.4277 63.1338 35.1321 63.9944 34.7473C 64.8325 34.3696 65.636 33.8182 65.9685 33.1759L 64.6365 32.4862ZM 56.9801 29.8688C 56.5296 29.2407 55.7924 28.7026 54.9442 28.259C 54.1004 27.8193 53.0376 27.4223 51.9212 27.1297C 49.7004 26.5523 46.9986 26.3172 44.6584 26.7013L 44.9051 28.1809C 47.0564 27.816 49.444 28.0303 51.5421 28.581C 52.5853 28.8525 53.4895 29.1893 54.249 29.5882C 55.0041 29.9831 55.5067 30.3882 55.7613 30.7431L 56.9801 29.8688ZM 47.8193 40.7646C 48.6523 40.1092 49.561 39.6248 50.5208 39.1266C 51.4805 38.6284 52.4861 38.1215 53.402 37.4734C 55.3165 36.1131 56.8005 34.139 57.1181 30.369L 55.6234 30.243C 55.3431 33.5697 54.0908 35.144 52.5332 36.2506C 51.7131 36.836 50.7987 37.2923 49.8297 37.7953C 48.8609 38.2982 47.8325 38.8531 46.8949 39.5833L 47.8193 40.7646ZM 44.7691 26.6912C 42.453 26.7361 39.9616 27.4145 37.9974 28.3896C 36.0479 29.3613 34.3737 30.7253 33.7806 32.2646L 35.1804 32.8039C 35.5684 31.7966 36.822 30.6515 38.6666 29.732C 40.4964 28.8159 42.665 28.221 44.7944 28.191L 44.7691 26.6912ZM 33.986 33.0981C 34.6274 33.6607 34.8656 34.5885 34.7736 35.6827C 34.6823 36.7687 34.274 37.847 33.8531 38.4898L 35.1079 39.3116C 35.668 38.4563 36.1565 37.1379 36.2683 35.8084C 36.3794 34.4871 36.1271 32.9807 34.975 31.9704L 33.986 33.0981ZM 34.4805 31.7842C 30.2523 31.7842 27.8573 30.5608 26.531 29.4192C 25.853 28.8421 25.4632 28.3024 25.2023 27.8568C 25.0783 27.6474 25.0056 27.4924 24.9527 27.3672C 24.9287 27.3109 24.9156 27.2761 24.9046 27.2453C 24.9001 27.2329 24.8985 27.228 24.8964 27.2215C 24.8958 27.2197 24.8955 27.2187 24.8958 27.2197C 24.8957 27.2194 24.8964 27.2215 24.8963 27.2214C 24.8962 27.221 24.8969 27.2232 24.8968 27.223C 24.8969 27.2232 24.897 27.2237 24.8971 27.2239C 24.8972 27.2244 24.8974 27.2249 24.1792 27.4411C 23.461 27.6573 23.4612 27.6578 23.4614 27.6584C 23.4615 27.6586 23.4616 27.6593 23.4618 27.6597C 23.4619 27.6602 23.4624 27.6616 23.4627 27.6626C 23.4631 27.664 23.4641 27.6672 23.4649 27.6699C 23.4662 27.6738 23.4688 27.6821 23.4714 27.6899C 23.4756 27.7027 23.4836 27.7264 23.4925 27.7513C 23.5083 27.7951 23.5367 27.8697 23.5717 27.9527C 23.6369 28.106 23.7525 28.3489 23.9092 28.617C 24.2097 29.1263 24.7512 29.8599 25.5525 30.5561C 27.1847 31.9611 29.9404 33.2842 34.4805 33.2842L 34.4805 31.7842ZM 15.0074 6.76874C 13.5643 5.78164 11.9373 5.70173 10.41 6.12467C 8.93961 6.53991 7.44039 7.47025 6.24299 8.53597C 5.04748 9.60761 4.01662 10.9253 3.42378 12.0946C 3.12435 12.6932 2.90433 13.3402 2.83015 13.8805C 2.7556 14.4531 2.81392 15.0596 3.14923 15.5696L 4.40264 14.7456C 4.33172 14.6377 4.27079 14.4337 4.3176 14.0742C 4.36478 13.6823 4.50674 13.2754 4.76355 12.7692C 5.28321 11.7289 6.14189 10.6334 7.24215 9.65475C 8.34052 8.67015 9.54329 7.91307 10.8103 7.57027C 12.0204 7.23518 13.1662 7.32664 14.1605 8.0068L 15.0074 6.76874ZM 3.35588 14.5363C 2.60646 15.0429 1.9278 15.9203 1.35888 16.9243C 0.79151 17.9284 0.275566 19.1739 -0.0923777 20.4328C -0.815933 22.9162 -1.08699 25.8055 -0.150534 27.7646L 1.20279 27.1176C 0.514343 25.6774 0.649509 23.2489 1.34774 20.8524C 1.6907 19.6713 2.13954 18.5862 2.6639 17.6638C 3.18671 16.7412 3.72674 16.0962 4.19599 15.7789L 3.35588 14.5363ZM -0.169114 27.1598C -1.08785 29.4304 -0.614961 31.4343 0.276795 33.0388C 1.15169 34.5953 2.44167 35.8351 3.24945 36.6313L 4.30242 35.563C 3.4853 34.7577 2.33792 33.6773 1.58791 32.3101C 0.854762 30.991 0.515199 29.4677 1.22137 27.7224L -0.169114 27.1598ZM 3.2259 36.607C 7.51366 41.2325 11.5591 39.8431 12.5109 38.51L 11.2901 37.6384C 11.0617 37.9583 8.18468 39.75 4.32597 35.5873L 3.2259 36.607ZM 11.4109 38.6424C 13.9388 40.8201 18.5291 43.2774 23.6299 40.535L 22.9196 39.2138C 18.6389 41.5153 14.7369 39.5278 12.39 37.506L 11.4109 38.6424ZM 33.925 39.4046C 38.3851 44.3207 40.2597 48.9765 41.0264 52.3789C 41.4131 54.0859 41.5176 55.4545 41.5298 56.4368C 41.5363 56.9177 41.5193 57.2782 41.5 57.5352C 41.4909 57.6589 41.4819 57.7464 41.4746 57.8104C 41.4712 57.8402 41.4688 57.8592 41.4667 57.8744C 41.4659 57.8808 41.4654 57.884 41.465 57.8872C 41.4648 57.8883 41.4647 57.8894 41.4647 57.8888C 41.4647 57.8888 41.4648 57.8884 41.4648 57.8884C 41.4648 57.8882 41.4649 57.8879 41.4649 57.8879C 41.4649 57.8875 41.465 57.8871 42.2065 58C 42.9479 58.1129 42.948 58.1124 42.9481 58.1119C 42.9481 58.1117 42.9482 58.1112 42.9482 58.1108C 42.9483 58.1102 42.9485 58.109 42.9487 58.1079C 42.9489 58.1062 42.9494 58.1029 42.9499 58.0996C 42.9507 58.094 42.9521 58.084 42.9535 58.073C 42.9562 58.0533 42.9604 58.0202 42.9649 57.9811C 42.9733 57.9075 42.9851 57.7904 42.9959 57.6468C 43.0165 57.3689 43.0361 56.943 43.0297 56.4175C 43.0161 55.3868 42.8964 53.8625 42.4897 52.0492C 41.6699 48.4111 39.6815 43.5172 35.036 38.3967L 33.925 39.4046ZM 47.3571 55.4534C 48.0981 55.569 48.0982 55.5689 48.0982 55.5687C 48.0982 55.5686 48.0982 55.5684 48.0983 55.5682C 48.0983 55.5678 48.0984 55.5671 48.0986 55.5662C 48.0988 55.5646 48.0992 55.5621 48.0997 55.559C 48.1006 55.5529 48.1021 55.5435 48.1039 55.5314C 48.1075 55.5077 48.113 55.4718 48.1199 55.4257C 48.1336 55.3342 48.1536 55.1981 48.1782 55.0255C 48.2271 54.6818 48.2954 54.1839 48.3708 53.5803C 48.5211 52.3765 48.7029 50.727 48.8239 48.9892C 48.9444 47.2529 49.0052 45.3892 48.9143 43.7826C 48.8246 42.212 48.5842 40.7006 47.9889 39.7699L 46.7253 40.5781C 47.0881 41.1454 47.3267 42.2928 47.4167 43.8681C 47.5054 45.4072 47.4464 47.1761 47.3275 48.8852C 47.2089 50.5927 47.0314 52.2013 46.8823 53.3944C 46.8081 53.9891 46.7416 54.4743 46.6932 54.8141C 46.6691 54.9831 46.6498 55.1139 46.6364 55.2038C 46.6297 55.2483 46.6247 55.2818 46.6212 55.3048C 46.6194 55.316 46.6182 55.3243 46.6173 55.33C 46.6168 55.3328 46.6165 55.3347 46.6163 55.3361C 46.6162 55.3368 46.6162 55.3372 46.6161 55.3375C 46.6161 55.3377 46.6161 55.3377 46.6161 55.3378C 46.6161 55.3378 46.6161 55.3378 47.3571 55.4534ZM 8.53495 30.2503C 5.95696 27.9653 3.83858 26.6911 0.526129 26.6911L 0.526129 28.1911C 3.31473 28.1911 5.08999 29.2013 7.54 31.3728L 8.53495 30.2503ZM 7.44627 30.3501C 6.1032 32.0997 5.7621 33.5188 5.41214 34.3821C 5.24186 34.8052 5.10733 34.9955 4.94317 35.1111C 4.77765 35.2278 4.46687 35.3472 3.77593 35.3472L 3.77593 36.8472C 4.61026 36.8472 5.28056 36.7084 5.80725 36.3373C 6.3353 35.9651 6.60413 35.4379 6.80366 34.9422C 7.19334 33.9678 7.45775 32.7441 8.62868 31.273L 7.44627 30.3501ZM 61.2455 18.0004C 59.6317 15.8694 56.9354 15.0864 54.5341 15.7654C 52.096 16.4547 50.0414 18.6165 49.6019 22.1813L 51.0907 22.3648C 51.4637 19.3384 53.1418 17.7178 54.9422 17.2088C 56.7794 16.6893 58.8275 17.292 60.0497 18.906L 61.2455 18.0004ZM 11.5613 10.3692C 10.8634 10.7231 9.95822 11.5725 9.14571 12.6956C 8.33513 13.8194 7.5303 15.3677 7.11926 17.0824L 8.57908 17.4272C 8.93584 15.8916 9.61082 14.6084 10.361 13.5748C 11.1093 12.5405 11.8459 11.9067 12.2396 11.7071L 11.5613 10.3692ZM 7.11926 17.0824C 6.73007 18.7482 6.69674 20.7382 7.32325 22.7266L 8.7517 22.2689C 8.18096 20.5212 8.2182 18.9365 8.57908 17.4272L 7.11926 17.0824ZM 3.43262 15.8244L 7.50585 17.9216L 8.19249 16.588L 4.11925 14.4908L 3.43262 15.8244ZM 24.8505 27.1066C 24.7706 26.9478 24.6586 26.7647 24.5483 26.6101L 23.3295 27.4844C 23.4089 27.5943 23.4586 27.6749 23.5079 27.7756L 24.8505 27.1066ZM 24.5483 26.6101C 23.8281 25.6061 22.4798 24.6449 21.11 24.1757C 19.7709 23.7169 18.0627 23.6314 17.0026 24.9532L 18.1727 25.8917C 18.6213 25.3324 19.4725 25.2003 20.6238 25.5947C 21.7444 25.9786 22.8172 26.7703 23.3295 27.4844L 24.5483 26.6101ZM 18.293 25.1676C 17.3444 22.5418 14.9757 21.5291 12.8352 21.249C 11.7712 21.1122 10.6755 21.1466 9.80268 21.263C 8.93247 21.38 8.15852 21.5869 7.68865 21.8338L 8.3863 23.1617C 8.62924 23.034 9.20235 22.8572 10.0026 22.7496C 10.8002 22.6414 11.6982 22.6104 12.6405 22.7363C 14.5124 22.9813 16.206 23.8055 16.8822 25.6773L 18.293 25.1676ZM 23.4496 39.145C 22.7085 38.9674 21.8024 38.2714 20.8743 37.1131C 19.9516 35.9652 19.1276 34.5252 18.4809 32.9913L 17.0992 33.5752C 17.7836 35.1912 18.7118 36.8095 19.7037 38.051C 20.6901 39.2821 21.8608 40.3067 23.1 40.6037L 23.4496 39.145ZM 18.4809 32.9913C 17.799 31.3819 17.3633 29.7991 17.2881 28.4548C 17.2073 27.085 17.5265 26.3433 17.9834 26.0595L 17.1919 24.7853C 15.9831 25.5362 15.7038 27.069 15.7907 28.5431C 15.8832 30.0425 16.3816 31.8729 17.0992 33.5752L 18.4809 32.9913ZM 7.54 31.3728C 8.60774 32.3048 9.73203 32.7673 10.7074 32.9203C 11.6994 33.0635 12.6574 32.9502 13.474 32.8386C 14.291 32.727 14.9549 32.6195 15.5764 32.7286C 16.1234 32.8168 16.6574 33.0689 17.2047 33.7521L 18.3754 32.8144C 17.6028 31.8498 16.7407 31.397 15.8152 31.2478C 14.9642 31.1195 14.0793 31.242 13.271 31.3524C 12.4623 31.4629 11.7184 31.5636 10.9322 31.4372C 10.1293 31.3208 9.3987 31.0303 8.53495 30.2503L 7.54 31.3728ZM 42.5624 58.6601L 45.4928 57.08L 44.7809 55.7597L 41.8505 57.3399L 42.5624 58.6601ZM 45.4362 57.1075L 47.6564 56.1411L 47.0578 54.7657L 44.8375 55.7322L 45.4362 57.1075ZM 47.0606 39.4851C 47.0087 39.5074 46.8541 39.5414 46.5462 39.5462C 46.2506 39.5515 45.9156 39.5299 45.5461 39.501C 44.8663 39.4477 43.9668 39.3483 43.3874 39.4316L 43.6008 40.9163C 43.9646 40.864 44.6076 40.932 45.429 40.9964C 45.8101 41.0262 46.2154 41.051 46.5697 41.0461C 46.9117 41.0407 47.3165 41.008 47.6536 40.8629L 47.0606 39.4851ZM 43.3874 39.4316C 42.0712 39.6208 40.9855 39.765 39.6853 39.6371C 38.361 39.5139 36.883 39.1301 34.7796 38.2129L 34.1814 39.5885C 36.394 40.5482 38.101 40.9911 39.5437 41.1304C 41.0104 41.2648 42.2735 41.1071 43.6008 40.9163L 43.3874 39.4316ZM 45.8869 56.4198C 45.8869 50.5478 45.6987 44.0596 44.1993 39.9186L 42.7889 40.4293C 44.182 44.2768 44.3869 50.485 44.3869 56.4198L 45.8869 56.4198Z"/>
</defs>
</svg>
