<svg width="160" height="160" viewBox="0 0 160 160" version="1.1" xmlns="http://www.w3.org/2000/svg" xmlns:xlink="http://www.w3.org/1999/xlink">
<title>influences-logo-b</title>
<desc>Created using Figma</desc>
<g id="Canvas" transform="translate(7 -9)">
<g id="influences-logo-b">
<g id="Rectangle">
<mask id="mask0_outline_ins">
<use xlink:href="#path0_fill" fill="white" transform="translate(-7 9)"/>
</mask>
<g mask="url(#mask0_outline_ins)">
<use xlink:href="#path1_stroke_2x" transform="translate(-7 9)" fill="#FFFFFF"/>
</g>
</g>
<g id="Ellipse 2">
<use xlink:href="#path2_fill" transform="translate(10 26)" fill="#F0ADFF"/>
</g>
<g id="energy">
<g id="Vector 7">
<use xlink:href="#path3_stroke" transform="matrix(0.728514 -0.685031 0.682805 0.730601 21.8988 28.618)" fill="#1C1C1C"/>
</g>
<g id="Vector 7">
<use xlink:href="#path3_stroke" transform="matrix(-0.728514 -0.685031 -0.682805 0.730601 126.708 28.618)" fill="#1C1C1C"/>
</g>
<g id="Vector 7">
<use xlink:href="#path4_stroke" transform="matrix(0.369827 -0.929101 0.92832 0.371783 6.02743 55.6374)" fill="#1C1C1C"/>
</g>
<g id="Vector 7">
<use xlink:href="#path5_stroke" transform="matrix(0.647867 0.761754 0.759794 -0.650164 14.9074 123.812)" fill="#1C1C1C"/>
</g>
<g id="Vector 7">
<use xlink:href="#path5_stroke" transform="matrix(-0.647867 0.761754 -0.759794 -0.650164 135.5 124.513)" fill="#1C1C1C"/>
</g>
<g id="Vector 7">
<use xlink:href="#path4_stroke" transform="matrix(-0.369827 -0.929101 -0.92832 0.371783 142.929 55.968)" fill="#1C1C1C"/>
</g>
<g id="Vector 7">
<use xlink:href="#path6_stroke" transform="matrix(6.10454e-17 -1 1 6.14199e-17 121.177 86.1232)" fill="#1C1C1C"/>
</g>
<g id="Vector 7">
<use xlink:href="#path6_stroke" transform="matrix(6.10454e-17 -1 1 6.14199e-17 4.42026 86.1232)" fill="#1C1C1C"/>
</g>
<g id="Group">
<g id="Vector 8">
<use xlink:href="#path7_stroke" transform="matrix(0.865365 0.501143 -0.498849 0.866689 25.5855 93.4722)" fill="#1C1C1C"/>
</g>
<g id="Vector 8">
<use xlink:href="#path8_stroke" transform="matrix(0.498849 -0.866689 0.865365 0.501143 22.7597 94.2317)" fill="#1C1C1C"/>
</g>
</g>
<g id="Group">
<g id="Vector 8">
<use xlink:href="#path9_stroke" transform="matrix(0.422608 0.906312 -0.905318 0.424735 35.2024 54.3863)" fill="#1C1C1C"/>
</g>
<g id="Vector 8">
<use xlink:href="#path10_stroke" transform="matrix(0.905318 -0.424735 0.422608 0.906312 31.5084 53.0439)" fill="#1C1C1C"/>
</g>
</g>
<g id="Group">
<g id="Vector 8">
<use xlink:href="#path11_stroke" transform="matrix(0.59055 0.807001 -0.805274 0.592902 130.968 95.4457)" fill="#1C1C1C"/>
</g>
<g id="Vector 8">
<use xlink:href="#path12_stroke" transform="matrix(0.805274 -0.592902 0.59055 0.807001 126.975 94.8314)" fill="#1C1C1C"/>
</g>
</g>
<g id="Group">
<g id="Vector 8">
<use xlink:href="#path13_stroke" transform="matrix(0.865365 0.501143 -0.498849 0.866689 118.234 54.1134)" fill="#1C1C1C"/>
</g>
<g id="Vector 8">
<use xlink:href="#path14_stroke" transform="matrix(0.498849 -0.866689 0.865365 0.501143 113.735 55.3226)" fill="#1C1C1C"/>
</g>
</g>
<g id="Group">
<g id="Vector 8">
<use xlink:href="#path15_stroke" transform="matrix(0.739965 -0.672646 0.670391 0.742008 38.9742 125.467)" fill="#1C1C1C"/>
</g>
<g id="Vector 8">
<use xlink:href="#path16_stroke" transform="matrix(-0.670391 -0.742008 0.739965 -0.672646 38.7498 130.043)" fill="#1C1C1C"/>
</g>
</g>
<g id="Group">
<g id="Vector 8">
<use xlink:href="#path17_stroke" transform="matrix(0.857882 -0.513847 0.511535 0.859262 97.4061 26.3388)" fill="#1C1C1C"/>
</g>
<g id="Vector 8">
<use xlink:href="#path18_stroke" transform="matrix(-0.511535 -0.859262 0.857882 -0.513847 95.8331 32.5943)" fill="#1C1C1C"/>
</g>
</g>
<g id="Group">
<g id="Vector 8">
<use xlink:href="#path19_stroke" transform="matrix(-0.339258 0.940693 -0.940028 -0.341098 51.5222 30.2296)" fill="#1C1C1C"/>
</g>
<g id="Vector 8">
<use xlink:href="#path20_stroke" transform="matrix(0.940028 0.341098 -0.339258 0.940693 49.3737 25.6317)" fill="#1C1C1C"/>
</g>
</g>
<g id="Group">
<g id="Vector 8">
<use xlink:href="#path21_stroke" transform="matrix(0.906589 0.422014 -0.419895 0.907573 103.824 120.517)" fill="#1C1C1C"/>
</g>
<g id="Vector 8">
<use xlink:href="#path22_stroke" transform="matrix(0.419895 -0.907573 0.906589 0.422014 101.521 121.362)" fill="#1C1C1C"/>
</g>
</g>
<g id="Group">
<g id="Vector 8">
<use xlink:href="#path23_stroke" transform="matrix(0.837925 0.545786 -0.543442 0.839447 74.8558 36.0679)" fill="#1C1C1C"/>
</g>
<g id="Vector 8">
<use xlink:href="#path24_stroke" transform="matrix(0.543442 -0.839447 0.837925 0.545786 71.9734 36.6822)" fill="#1C1C1C"/>
</g>
</g>
<g id="Group">
<g id="Vector 8">
<use xlink:href="#path25_stroke" transform="matrix(0.940765 0.339061 -0.337229 0.941423 142.71 66.0292)" fill="#1C1C1C"/>
</g>
<g id="Vector 8">
<use xlink:href="#path26_stroke" transform="matrix(0.337229 -0.941423 0.940765 0.339061 139.597 67.5006)" fill="#1C1C1C"/>
</g>
</g>
<g id="Group">
<g id="Vector 8">
<use xlink:href="#path27_stroke" transform="matrix(-0.322532 0.946559 -0.945953 -0.324303 106.279 137.798)" fill="#1C1C1C"/>
</g>
<g id="Vector 8">
<use xlink:href="#path28_stroke" transform="matrix(0.945953 0.324303 -0.322532 0.946559 104.178 133.502)" fill="#1C1C1C"/>
</g>
</g>
<g id="Group">
<g id="Vector 8">
<use xlink:href="#path29_stroke" transform="matrix(0.871106 0.491095 -0.488818 0.872386 5.09849 70.3832)" fill="#1C1C1C"/>
</g>
<g id="Vector 8">
<use xlink:href="#path30_stroke" transform="matrix(0.488818 -0.872386 0.871106 0.491095 0.613684 71.6444)" fill="#1C1C1C"/>
</g>
</g>
</g>
<g id="bulb">
<g id="Ellipse">
<use xlink:href="#path31_fill" transform="translate(37 47)" fill="#1C1C1C"/>
</g>
<g id="Rectangle 3">
<use xlink:href="#path32_fill" transform="translate(60.2364 108.175)" fill="#1C1C1C"/>
</g>
<g id="Vector 2">
<use xlink:href="#path33_stroke" transform="translate(60.8818 93.0053)" fill="#F0ADFF"/>
</g>
<g id="Group">
<g id="Rectangle 4">
<use xlink:href="#path34_fill" transform="translate(60.2364 124.09)" fill="#1C1C1C"/>
</g>
<g id="Rectangle 4">
<use xlink:href="#path34_fill" transform="translate(60.2364 128.566)" fill="#1C1C1C"/>
</g>
<g id="Rectangle 4">
<use xlink:href="#path35_fill" transform="translate(67.1874 138.016)" fill="#1C1C1C"/>
</g>
<g id="Rectangle 4">
<use xlink:href="#path34_fill" transform="translate(60.2364 133.042)" fill="#1C1C1C"/>
</g>
</g>
</g>
</g>
</g>
<defs>
<path id="path0_fill" d="M 0 0L 160 0L 160 160L 0 160L 0 0Z"/>
<path id="path1_stroke_2x" d="M 0 0L 0 -1L -1 -1L -1 0L 0 0ZM 160 0L 161 0L 161 -1L 160 -1L 160 0ZM 160 160L 160 161L 161 161L 161 160L 160 160ZM 0 160L -1 160L -1 161L 0 161L 0 160ZM 0 1L 160 1L 160 -1L 0 -1L 0 1ZM 159 0L 159 160L 161 160L 161 0L 159 0ZM 160 159L 0 159L 0 161L 160 161L 160 159ZM 1 160L 1 0L -1 0L -1 160L 1 160Z"/>
<path id="path2_fill" d="M 125 62.5C 125 97.0178 97.0178 125 62.5 125C 27.9822 125 0 97.0178 0 62.5C 0 27.9822 27.9822 0 62.5 0C 97.0178 0 125 27.9822 125 62.5Z"/>
<path id="path3_stroke" d="M 1 23.4595L 1 0L -1 0L -1 23.4595L 1 23.4595Z"/>
<path id="path4_stroke" d="M 1 23.4311L 1 0L -1 0L -1 23.4311L 1 23.4311Z"/>
<path id="path5_stroke" d="M 1 23.4515L 1 0L -1 0L -1 23.4515L 1 23.4515Z"/>
<path id="path6_stroke" d="M 1 23.4213L 1 0L -1 0L -1 23.4213L 1 23.4213Z"/>
<path id="path7_stroke" d="M -1 0L -1 4.14674L 1 4.14674L 1 0L -1 0Z"/>
<path id="path8_stroke" d="M -1 0L -1 4.1404L 1 4.1404L 1 0L -1 0Z"/>
<path id="path9_stroke" d="M -1 0L -1 5.56124L 1 5.56124L 1 0L -1 0Z"/>
<path id="path10_stroke" d="M -1 0L -1 5.56865L 1 5.56865L 1 0L -1 0Z"/>
<path id="path11_stroke" d="M -1 0L -1 5.71893L 1 5.71893L 1 0L -1 0Z"/>
<path id="path12_stroke" d="M -1 0L -1 5.72417L 1 5.72417L 1 0L -1 0Z"/>
<path id="path13_stroke" d="M -1 0L -1 6.60219L 1 6.60219L 1 0L -1 0Z"/>
<path id="path14_stroke" d="M -1 0L -1 6.5921L 1 6.5921L 1 0L -1 0Z"/>
<path id="path15_stroke" d="M -1 0L -1 6.47094L 1 6.47094L 1 0L -1 0Z"/>
<path id="path16_stroke" d="M -1 0L -1 6.469L 1 6.469L 1 0L -1 0Z"/>
<path id="path17_stroke" d="M -1 0L -1 9.11638L 1 9.11638L 1 0L -1 0Z"/>
<path id="path18_stroke" d="M -1 0L -1 9.10317L 1 9.10317L 1 0L -1 0Z"/>
<path id="path19_stroke" d="M -1 0L -1 7.16175L 1 7.16175L 1 0L -1 0Z"/>
<path id="path20_stroke" d="M -1 0L -1 7.17861L 1 7.17861L 1 0L -1 0Z"/>
<path id="path21_stroke" d="M -1 0L -1 3.47649L 1 3.47649L 1 0L -1 0Z"/>
<path id="path22_stroke" d="M -1 0L -1 3.47036L 1 3.47036L 1 0L -1 0Z"/>
<path id="path23_stroke" d="M -1 0L -1 4.17587L 1 4.17587L 1 0L -1 0Z"/>
<path id="path24_stroke" d="M -1 0L -1 4.17156L 1 4.17156L 1 0L -1 0Z"/>
<path id="path25_stroke" d="M -1 0L -1 4.87923L 1 4.87923L 1 0L -1 0Z"/>
<path id="path26_stroke" d="M -1 0L -1 4.86876L 1 4.86876L 1 0L -1 0Z"/>
<path id="path27_stroke" d="M -1 0L -1 6.748L 1 6.748L 1 0L -1 0Z"/>
<path id="path28_stroke" d="M -1 0L -1 6.76523L 1 6.76523L 1 0L -1 0Z"/>
<path id="path29_stroke" d="M -1 0L -1 6.60239L 1 6.60239L 1 0L -1 0Z"/>
<path id="path30_stroke" d="M -1 0L -1 6.5919L 1 6.5919L 1 0L -1 0Z"/>
<path id="path31_fill" d="M 71 35.5608C 71 55.2006 68.2692 60.4286 35.5 71.1217C 3.22727 60.6773 0 55.2006 0 35.5608C 0 15.9211 15.8939 0 35.5 0C 55.1061 0 71 15.9211 71 35.5608Z"/>
<path id="path32_fill" d="M 0 5C 0 2.23858 2.23858 0 5 0L 19.3287 0C 22.0901 0 24.3287 2.23858 24.3287 5L 24.3287 9.42328C 24.3287 12.1847 22.0901 14.4233 19.3287 14.4233L 5 14.4233C 2.23858 14.4233 0 12.1847 0 9.42328L 0 5Z"/>
<path id="path33_stroke" d="M 0 0.994709L 0.879633 0.519056L -0.95565 1.28922L 0 0.994709ZM 3.22727 6.96296L 4.12201 6.51636L 4.11469 6.50171L 4.10691 6.48731L 3.22727 6.96296ZM 5.70979 11.9365L 4.81506 12.3831L 6.32109 15.4003L 6.70334 12.0499L 5.70979 11.9365ZM 6.7028 3.2328L 7.61837 2.83064L 6.12903 -0.560008L 5.70924 3.11945L 6.7028 3.2328ZM 23.0874 0L 24.0654 0.208749L 22.1743 -0.407784L 23.0874 0ZM 9.43357 9.44974L 8.518 9.8519L 9.29661 11.6245L 10.2914 9.96358L 9.43357 9.44974ZM 10.9231 6.96296L 11.8689 6.63838L 11.1707 4.60353L 10.0652 6.44912L 10.9231 6.96296ZM 13.6538 14.9206L 12.708 15.2452L 13.6212 17.9064L 14.5924 15.2658L 13.6538 14.9206ZM 17.1294 5.4709L 18.0458 5.07066L 17.0498 2.79024L 16.1908 5.12571L 17.1294 5.4709ZM 18.8671 9.44974L 17.9507 9.84998L 18.8569 11.9249L 19.7802 9.85752L 18.8671 9.44974ZM 8.44672 34.1096C 8.53234 32.0132 8.0837 28.8591 7.40055 25.3897C 6.71302 21.8993 5.76506 17.9812 4.81181 14.3298C 3.85817 10.6772 2.89338 7.26698 2.16905 4.77718C 1.80653 3.5311 1.50305 2.5114 1.29086 1.80543C 1.1846 1.4519 1.10077 1.17549 1.04378 0.988373C 1.0152 0.894551 0.993165 0.822487 0.978395 0.774285C 0.970971 0.750057 0.965283 0.731531 0.961511 0.719257C 0.959605 0.713057 0.95814 0.708292 0.95718 0.705172C 0.95669 0.703581 0.956307 0.702338 0.956062 0.70154C 0.955934 0.701126 0.955831 0.700791 0.955767 0.700584C 0.955693 0.700345 0.95565 0.700203 0 0.994709C -0.95565 1.28922 -0.955634 1.28926 -0.955589 1.28941C -0.955535 1.28959 -0.955461 1.28983 -0.955352 1.29018C -0.955126 1.29092 -0.954801 1.29197 -0.95435 1.29344C -0.953428 1.29643 -0.952079 1.30082 -0.950252 1.30676C -0.946558 1.31878 -0.941108 1.33654 -0.933842 1.36025C -0.919234 1.40792 -0.897688 1.47837 -0.869443 1.57111C -0.812793 1.7571 -0.730029 2.02998 -0.624489 2.38112C -0.413078 3.08449 -0.112125 4.0957 0.248662 5.33586C 0.970941 7.81856 1.92827 11.2021 2.87667 14.835C 3.82547 18.469 4.75947 22.3278 5.43823 25.7761C 6.12139 29.2455 6.52338 32.1919 6.44839 34.028L 8.44672 34.1096ZM 2.33254 7.40956L 4.81506 12.3831L 6.60452 11.4899L 4.12201 6.51636L 2.33254 7.40956ZM 6.70334 12.0499L 7.69635 3.34616L 5.70924 3.11945L 4.71624 11.8232L 6.70334 12.0499ZM 23.0874 0C 22.1094 -0.208749 22.1094 -0.208621 22.1094 -0.208387C 22.1093 -0.208167 22.1092 -0.207826 22.1092 -0.207388C 22.109 -0.206524 22.1087 -0.205209 22.1083 -0.203488C 22.1076 -0.200075 22.1065 -0.194924 22.105 -0.188145C 22.1022 -0.174646 22.0979 -0.154402 22.0922 -0.127781C 22.0809 -0.0746564 22.0641 0.00446299 22.0422 0.107687C 21.9985 0.313893 21.9344 0.617565 21.8528 1.00576C 21.6897 1.78163 21.4566 2.89802 21.177 4.25592C 20.6181 6.97063 19.8721 10.6585 19.1264 14.5371C 18.3808 18.4153 17.6333 22.4967 17.0729 25.9902C 16.512 29.4881 16.1314 32.466 16.1294 34.0688L 18.1294 34.0688C 18.1273 32.5937 18.4915 29.7739 19.0477 26.3069C 19.6044 22.8353 20.3465 18.7843 21.0904 14.9147C 21.8342 11.0456 22.5777 7.37057 23.1359 4.65923C 23.4149 3.30411 23.6472 2.19171 23.81 1.41706C 23.8914 1.02998 23.9552 0.727949 23.9988 0.522269C 24.0205 0.41955 24.0372 0.34118 24.0484 0.288301C 24.0541 0.261921 24.0583 0.242035 24.0611 0.228654C 24.0626 0.221993 24.0636 0.217017 24.0643 0.213663C 24.0647 0.212 24.0649 0.210772 24.0651 0.209937C 24.0652 0.209527 24.0653 0.20923 24.0653 0.209025C 24.0654 0.208834 24.0654 0.208749 23.0874 0ZM 5.78723 3.63497L 8.518 9.8519L 10.3491 9.04757L 7.61837 2.83064L 5.78723 3.63497ZM 10.2914 9.96358L 11.781 7.47681L 10.0652 6.44912L 8.57568 8.93589L 10.2914 9.96358ZM 9.97722 7.28755L 12.708 15.2452L 14.5997 14.5961L 11.8689 6.63838L 9.97722 7.28755ZM 14.5924 15.2658L 18.0679 5.81608L 16.1908 5.12571L 12.7153 14.5755L 14.5924 15.2658ZM 16.213 5.87114L 17.9507 9.84998L 19.7835 9.04949L 18.0458 5.07066L 16.213 5.87114ZM 19.7802 9.85752L 24.0005 0.407784L 22.1743 -0.407784L 17.9541 9.04195L 19.7802 9.85752ZM -0.879633 1.47036L 2.34764 7.43862L 4.10691 6.48731L 0.879633 0.519056L -0.879633 1.47036Z"/>
<path id="path34_fill" d="M 0 1.49206C 0 0.668019 0.668019 0 1.49206 0L 22.8366 0C 23.6607 0 24.3287 0.66802 24.3287 1.49206L 24.3287 1.49206C 24.3287 2.31611 23.6607 2.98413 22.8366 2.98413L 1.49206 2.98413C 0.668019 2.98413 0 2.31611 0 1.49206L 0 1.49206Z"/>
<path id="path35_fill" d="M 0 1.49206C 0 0.668019 0.668019 0 1.49206 0L 8.93451 0C 9.75855 0 10.4266 0.66802 10.4266 1.49206L 10.4266 1.49206C 10.4266 2.31611 9.75855 2.98413 8.93451 2.98413L 1.49206 2.98413C 0.668019 2.98413 0 2.31611 0 1.49206L 0 1.49206Z"/>
</defs>
</svg>
