<svg width="160" height="160" viewBox="0 0 160 160" version="1.1" xmlns="http://www.w3.org/2000/svg" xmlns:xlink="http://www.w3.org/1999/xlink">
<title>influences-logo (Canvas)</title>
<desc>Created using Figma</desc>
<g id="Canvas" transform="translate(1 17)">
<g id="Group">
<g id="Ellipse 2">
<use xlink:href="#path0_fill" transform="translate(-1 -17)" fill="#F0ADFF"/>
</g>
<g id="Group">
<g id="Ellipse">
<use xlink:href="#path1_fill" transform="translate(42.6769 25.1272)" fill="#1C1C1C"/>
</g>
<g id="Rectangle 3">
<use xlink:href="#path2_fill" transform="translate(65.9497 86.219)" fill="#1C1C1C"/>
</g>
<g id="Vector 2">
<use xlink:href="#path3_stroke" transform="translate(66.5961 71.0702)" fill="#F0ADFF"/>
</g>
<g id="Group">
<g id="Rectangle 4">
<use xlink:href="#path4_fill" transform="translate(65.9497 102.113)" fill="#1C1C1C"/>
</g>
<g id="Rectangle 4">
<use xlink:href="#path4_fill" transform="translate(65.9497 106.583)" fill="#1C1C1C"/>
</g>
<g id="Rectangle 4">
<use xlink:href="#path5_fill" transform="translate(72.9116 116.02)" fill="#1C1C1C"/>
</g>
<g id="Rectangle 4">
<use xlink:href="#path4_fill" transform="translate(65.9497 111.053)" fill="#1C1C1C"/>
</g>
</g>
</g>
<g id="Group">
<g id="Vector 7">
<use xlink:href="#path6_stroke" transform="matrix(0.729067 -0.684443 0.683394 0.73005 32.1736 11.2631)" fill="#1C1C1C"/>
</g>
<g id="Vector 7">
<use xlink:href="#path6_stroke" transform="matrix(-0.729067 -0.684443 -0.683394 0.73005 129.086 11.2631)" fill="#1C1C1C"/>
</g>
<g id="Vector 7">
<use xlink:href="#path7_stroke" transform="matrix(0.370344 -0.928895 0.928527 0.371265 17.498 36.2065)" fill="#1C1C1C"/>
</g>
<g id="Vector 7">
<use xlink:href="#path8_stroke" transform="matrix(0.648475 0.761236 0.760313 -0.649557 25.7089 99.1424)" fill="#1C1C1C"/>
</g>
<g id="Vector 7">
<use xlink:href="#path8_stroke" transform="matrix(-0.648475 0.761236 -0.760313 -0.649557 137.215 99.7898)" fill="#1C1C1C"/>
</g>
<g id="Vector 7">
<use xlink:href="#path7_stroke" transform="matrix(-0.370344 -0.928895 -0.928527 0.371265 144.085 36.5117)" fill="#1C1C1C"/>
</g>
<g id="Vector 7">
<use xlink:href="#path9_stroke" transform="matrix(6.11442e-17 -1 1 6.13206e-17 123.972 64.3498)" fill="#1C1C1C"/>
</g>
<g id="Vector 7">
<use xlink:href="#path9_stroke" transform="matrix(6.11442e-17 -1 1 6.13206e-17 16.0119 64.3498)" fill="#1C1C1C"/>
</g>
<g id="Group">
<g id="Vector 8">
<use xlink:href="#path10_stroke" transform="matrix(0.865716 0.500536 -0.499455 0.86634 35.5825 71.1342)" fill="#1C1C1C"/>
</g>
<g id="Vector 8">
<use xlink:href="#path11_stroke" transform="matrix(0.499455 -0.86634 0.865716 0.500536 32.9696 71.8353)" fill="#1C1C1C"/>
</g>
</g>
<g id="Group">
<g id="Vector 8">
<use xlink:href="#path12_stroke" transform="matrix(0.42317 0.90605 -0.905582 0.424172 44.4748 35.0515)" fill="#1C1C1C"/>
</g>
<g id="Vector 8">
<use xlink:href="#path13_stroke" transform="matrix(0.905582 -0.424172 0.42317 0.90605 41.0591 33.8122)" fill="#1C1C1C"/>
</g>
</g>
<g id="Group">
<g id="Vector 8">
<use xlink:href="#path14_stroke" transform="matrix(0.591173 0.806545 -0.805732 0.59228 133.025 72.9561)" fill="#1C1C1C"/>
</g>
<g id="Vector 8">
<use xlink:href="#path15_stroke" transform="matrix(0.805732 -0.59228 0.591173 0.806545 129.333 72.389)" fill="#1C1C1C"/>
</g>
</g>
<g id="Group">
<g id="Vector 8">
<use xlink:href="#path16_stroke" transform="matrix(0.865716 0.500536 -0.499455 0.86634 121.251 34.7996)" fill="#1C1C1C"/>
</g>
<g id="Vector 8">
<use xlink:href="#path17_stroke" transform="matrix(0.499455 -0.86634 0.865716 0.500536 117.09 35.9159)" fill="#1C1C1C"/>
</g>
</g>
<g id="Group">
<g id="Vector 8">
<use xlink:href="#path18_stroke" transform="matrix(0.740506 -0.67205 0.670988 0.741469 47.9624 100.67)" fill="#1C1C1C"/>
</g>
<g id="Vector 8">
<use xlink:href="#path19_stroke" transform="matrix(-0.670988 -0.741469 0.740506 -0.67205 47.755 104.895)" fill="#1C1C1C"/>
</g>
</g>
<g id="Group">
<g id="Vector 8">
<use xlink:href="#path20_stroke" transform="matrix(0.858248 -0.513235 0.512146 0.858898 101.992 9.15911)" fill="#1C1C1C"/>
</g>
<g id="Vector 8">
<use xlink:href="#path21_stroke" transform="matrix(-0.512146 -0.858898 0.858248 -0.513235 100.537 14.9339)" fill="#1C1C1C"/>
</g>
</g>
<g id="Group">
<g id="Vector 8">
<use xlink:href="#path22_stroke" transform="matrix(-0.339744 0.940518 -0.940204 -0.340611 59.565 12.7509)" fill="#1C1C1C"/>
</g>
<g id="Vector 8">
<use xlink:href="#path23_stroke" transform="matrix(0.940204 0.340611 -0.339744 0.940518 57.5785 8.50632)" fill="#1C1C1C"/>
</g>
</g>
<g id="Group">
<g id="Vector 8">
<use xlink:href="#path24_stroke" transform="matrix(0.90685 0.421453 -0.420455 0.907313 107.926 96.101)" fill="#1C1C1C"/>
</g>
<g id="Vector 8">
<use xlink:href="#path25_stroke" transform="matrix(0.420455 -0.907313 0.90685 0.421453 105.797 96.8813)" fill="#1C1C1C"/>
</g>
</g>
<g id="Group">
<g id="Vector 8">
<use xlink:href="#path26_stroke" transform="matrix(0.838328 0.545166 -0.544062 0.839045 81.1407 18.1406)" fill="#1C1C1C"/>
</g>
<g id="Vector 8">
<use xlink:href="#path27_stroke" transform="matrix(0.544062 -0.839045 0.838328 0.545166 78.4754 18.7078)" fill="#1C1C1C"/>
</g>
</g>
<g id="Group">
<g id="Vector 8">
<use xlink:href="#path28_stroke" transform="matrix(0.940939 0.338576 -0.337713 0.941249 143.882 45.7998)" fill="#1C1C1C"/>
</g>
<g id="Vector 8">
<use xlink:href="#path29_stroke" transform="matrix(0.337713 -0.941249 0.940939 0.338576 141.004 47.1581)" fill="#1C1C1C"/>
</g>
</g>
<g id="Group">
<g id="Vector 8">
<use xlink:href="#path30_stroke" transform="matrix(-0.323 0.946399 -0.946114 -0.323834 110.196 112.054)" fill="#1C1C1C"/>
</g>
<g id="Vector 8">
<use xlink:href="#path31_stroke" transform="matrix(0.946114 0.323834 -0.323 0.946399 108.254 108.088)" fill="#1C1C1C"/>
</g>
</g>
<g id="Group">
<g id="Vector 8">
<use xlink:href="#path32_stroke" transform="matrix(0.871445 0.490493 -0.48942 0.872048 16.639 49.8192)" fill="#1C1C1C"/>
</g>
<g id="Vector 8">
<use xlink:href="#path33_stroke" transform="matrix(0.48942 -0.872048 0.871445 0.490493 12.4921 50.9836)" fill="#1C1C1C"/>
</g>
</g>
</g>
</g>
</g>
<defs>
<path id="path0_fill" d="M 160 80C 160 124.183 124.183 160 80 160C 35.8172 160 0 124.183 0 80C 0 35.8172 35.8172 0 80 0C 124.183 0 160 35.8172 160 80Z"/>
<path id="path1_fill" d="M 71.1114 35.5127C 71.1114 55.1259 68.3763 60.3468 35.5557 71.0255C 3.23233 60.5952 0 55.1259 0 35.5127C 0 15.8996 15.9188 0 35.5557 0C 55.1925 0 71.1114 15.8996 71.1114 35.5127Z"/>
<path id="path2_fill" d="M 0 5C 0 2.23858 2.23858 0 5 0L 19.3668 0C 22.1283 0 24.3668 2.23858 24.3668 5L 24.3668 9.40377C 24.3668 12.1652 22.1283 14.4038 19.3668 14.4038L 5 14.4038C 2.23858 14.4038 0 12.1652 0 9.40377L 0 5Z"/>
<path id="path3_stroke" d="M 0 0.993363L 0.879051 0.516635L -0.975435 1.21365L 0 0.993363ZM 3.23233 6.95354L 4.12655 6.5059L 4.1192 6.49123L 4.11139 6.47681L 3.23233 6.95354ZM 5.71875 11.9204L 4.82453 12.368L 6.32995 15.3752L 6.71226 12.034L 5.71875 11.9204ZM 6.71331 3.22843L 7.62845 2.82528L 6.13962 -0.554319L 5.71979 3.11475L 6.71331 3.22843ZM 23.1236 0L 24.1086 0.172757L 22.211 -0.408777L 23.1236 0ZM 9.44836 9.43695L 8.53323 9.8401L 9.31148 11.6067L 10.3056 9.9519L 9.44836 9.43695ZM 10.9402 6.95354L 11.8858 6.62811L 11.1877 4.59969L 10.083 6.43859L 10.9402 6.95354ZM 13.6753 14.9004L 12.7297 15.2259L 13.6426 17.8785L 14.6135 15.2465L 13.6753 14.9004ZM 17.1562 5.4635L 18.0722 5.06227L 17.0767 2.78956L 16.218 5.11742L 17.1562 5.4635ZM 18.8967 9.43695L 17.9807 9.83818L 18.8865 11.906L 19.8094 9.84573L 18.8967 9.43695ZM 8.43467 33.8024L 0.975435 0.773074L -0.975435 1.21365L 6.4838 34.243L 8.43467 33.8024ZM 2.33812 7.40119L 4.82453 12.368L 6.61296 11.4727L 4.12655 6.5059L 2.33812 7.40119ZM 6.71226 12.034L 7.70683 3.34211L 5.71979 3.11475L 4.72523 11.8067L 6.71226 12.034ZM 22.1387 -0.172757L 16.1713 33.8499L 18.1412 34.1954L 24.1086 0.172757L 22.1387 -0.172757ZM 5.79817 3.63158L 8.53323 9.8401L 10.3635 9.0338L 7.62845 2.82528L 5.79817 3.63158ZM 10.3056 9.9519L 11.7974 7.4685L 10.083 6.43859L 8.59114 8.922L 10.3056 9.9519ZM 9.99464 7.27897L 12.7297 15.2259L 14.6208 14.575L 11.8858 6.62811L 9.99464 7.27897ZM 14.6135 15.2465L 18.0944 5.80957L 16.218 5.11742L 12.7371 14.5544L 14.6135 15.2465ZM 16.2403 5.86472L 17.9807 9.83818L 19.8127 9.03572L 18.0722 5.06227L 16.2403 5.86472ZM 19.8094 9.84573L 24.0363 0.408777L 22.211 -0.408777L 17.9841 9.02817L 19.8094 9.84573ZM -0.879051 1.47009L 2.35328 7.43027L 4.11139 6.47681L 0.879051 0.516635L -0.879051 1.47009Z"/>
<path id="path4_fill" d="M 0 1.49004C 0 0.667116 0.667116 0 1.49004 0L 22.8768 0C 23.6997 0 24.3668 0.667116 24.3668 1.49005L 24.3668 1.49005C 24.3668 2.31297 23.6997 2.98009 22.8768 2.98009L 1.49004 2.98009C 0.667116 2.98009 0 2.31297 0 1.49004L 0 1.49004Z"/>
<path id="path5_fill" d="M 0 1.49004C 0 0.667116 0.667116 0 1.49004 0L 8.95288 0C 9.77581 0 10.4429 0.667116 10.4429 1.49005L 10.4429 1.49005C 10.4429 2.31297 9.77581 2.98009 8.95288 2.98009L 1.49004 2.98009C 0.667116 2.98009 0 2.31297 0 1.49004L 0 1.49004Z"/>
<path id="path6_stroke" d="M 1 21.6733L 1 0L -1 0L -1 21.6733L 1 21.6733Z"/>
<path id="path7_stroke" d="M 1 21.6609L 1 0L -1 0L -1 21.6609L 1 21.6609Z"/>
<path id="path8_stroke" d="M 1 21.6698L 1 0L -1 0L -1 21.6698L 1 21.6698Z"/>
<path id="path9_stroke" d="M 1 21.6566L 1 0L -1 0L -1 21.6566L 1 21.6566Z"/>
<path id="path10_stroke" d="M -1 0L -1 3.82966L 1 3.82966L 1 0L -1 0Z"/>
<path id="path11_stroke" d="M -1 0L -1 3.8269L 1 3.8269L 1 0L -1 0Z"/>
<path id="path12_stroke" d="M -1 0L -1 5.14074L 1 5.14074L 1 0L -1 0Z"/>
<path id="path13_stroke" d="M -1 0L -1 5.14226L 1 5.14226L 1 0L -1 0Z"/>
<path id="path14_stroke" d="M -1 0L -1 5.28505L 1 5.28505L 1 0L -1 0Z"/>
<path id="path15_stroke" d="M -1 0L -1 5.28733L 1 5.28733L 1 0L -1 0Z"/>
<path id="path16_stroke" d="M -1 0L -1 6.09735L 1 6.09735L 1 0L -1 0Z"/>
<path id="path17_stroke" d="M -1 0L -1 6.09296L 1 6.09296L 1 0L -1 0Z"/>
<path id="path18_stroke" d="M -1 0L -1 5.97808L 1 5.97808L 1 0L -1 0Z"/>
<path id="path19_stroke" d="M -1 0L -1 5.97724L 1 5.97724L 1 0L -1 0Z"/>
<path id="path20_stroke" d="M -1 0L -1 8.41947L 1 8.41947L 1 0L -1 0Z"/>
<path id="path21_stroke" d="M -1 0L -1 8.41372L 1 8.41372L 1 0L -1 0Z"/>
<path id="path22_stroke" d="M -1 0L -1 6.62093L 1 6.62093L 1 0L -1 0Z"/>
<path id="path23_stroke" d="M -1 0L -1 6.62826L 1 6.62826L 1 0L -1 0Z"/>
<path id="path24_stroke" d="M -1 0L -1 3.21028L 1 3.21028L 1 0L -1 0Z"/>
<path id="path25_stroke" d="M -1 0L -1 3.20797L 1 3.20797L 1 0L -1 0Z"/>
<path id="path26_stroke" d="M -1 0L -1 3.85685L 1 3.85685L 1 0L -1 0Z"/>
<path id="path27_stroke" d="M -1 0L -1 3.8554L 1 3.8554L 1 0L -1 0Z"/>
<path id="path28_stroke" d="M -1 0L -1 4.50515L 1 4.50515L 1 0L -1 0Z"/>
<path id="path29_stroke" d="M -1 0L -1 4.5011L 1 4.5011L 1 0L -1 0Z"/>
<path id="path30_stroke" d="M -1 0L -1 6.23853L 1 6.23853L 1 0L -1 0Z"/>
<path id="path31_stroke" d="M -1 0L -1 6.24646L 1 6.24646L 1 0L -1 0Z"/>
<path id="path32_stroke" d="M -1 0L -1 6.09744L 1 6.09744L 1 0L -1 0Z"/>
<path id="path33_stroke" d="M -1 0L -1 6.09288L 1 6.09288L 1 0L -1 0Z"/>
</defs>
</svg>
