<svg width="160" height="160" viewBox="0 0 160 160" version="1.1" xmlns="http://www.w3.org/2000/svg" xmlns:xlink="http://www.w3.org/1999/xlink">
<title>influences-logo-c (Canvas)</title>
<desc>Created using Figma</desc>
<g id="Canvas" transform="translate(1 17)">
<g id="Group">
<g id="Ellipse 2">
<use xlink:href="#path0_fill" transform="translate(-1 -17)" fill="#F0ADFF"/>
</g>
<g id="Group">
<g id="Ellipse">
<use xlink:href="#path1_fill" transform="translate(37 8)" fill="#1C1C1C"/>
</g>
<g id="Rectangle 3">
<use xlink:href="#path2_fill" transform="translate(64.1636 79.5873)" fill="#1C1C1C"/>
</g>
<g id="Vector 2">
<use xlink:href="#path3_stroke" transform="translate(64.9182 61.836)" fill="#F0ADFF"/>
</g>
<g id="Group">
<g id="Rectangle 4">
<use xlink:href="#path4_fill" transform="translate(64.1636 98.2116)" fill="#1C1C1C"/>
</g>
<g id="Rectangle 4">
<use xlink:href="#path4_fill" transform="translate(64.1636 103.45)" fill="#1C1C1C"/>
</g>
<g id="Rectangle 4">
<use xlink:href="#path5_fill" transform="translate(72.2895 114.508)" fill="#1C1C1C"/>
</g>
<g id="Rectangle 4">
<use xlink:href="#path4_fill" transform="translate(64.1636 108.688)" fill="#1C1C1C"/>
</g>
</g>
</g>
</g>
</g>
<defs>
<path id="path0_fill" d="M 160 80C 160 124.183 124.183 160 80 160C 35.8172 160 0 124.183 0 80C 0 35.8172 35.8172 0 80 0C 124.183 0 160 35.8172 160 80Z"/>
<path id="path1_fill" d="M 83 41.6138C 83 64.5964 79.8077 70.7143 41.5 83.2275C 3.77273 71.0053 0 64.5964 0 41.6138C 0 18.6311 18.5802 0 41.5 0C 64.4198 0 83 18.6311 83 41.6138Z"/>
<path id="path2_fill" d="M 0 5C 0 2.23858 2.23858 0 5 0L 23.4406 0C 26.202 0 28.4406 2.23858 28.4406 5L 28.4406 11.8783C 28.4406 14.6397 26.202 16.8783 23.4406 16.8783L 5 16.8783C 2.23858 16.8783 0 14.6397 0 11.8783L 0 5Z"/>
<path id="path3_stroke" d="M 0 1.16402L 0.879837 0.688746L -0.975621 1.38348L 0 1.16402ZM 3.77273 8.14815L 4.66764 7.70191L 4.66034 7.68727L 4.65256 7.67287L 3.77273 8.14815ZM 6.67482 13.9683L 5.77991 14.4145L 7.28616 17.4352L 7.66839 14.0815L 6.67482 13.9683ZM 7.83566 3.78307L 8.75138 3.38125L 7.26187 -0.0132811L 6.8421 3.66983L 7.83566 3.78307ZM 26.9895 0L 27.9746 0.172097L 26.0763 -0.407435L 26.9895 0ZM 11.028 11.0582L 10.1123 11.46L 10.891 13.2347L 11.8861 11.5717L 11.028 11.0582ZM 12.7692 8.14815L 13.7152 7.82386L 13.0168 5.78675L 11.9111 7.63469L 12.7692 8.14815ZM 15.9615 17.4603L 15.0156 17.7846L 15.9289 20.4488L 16.9002 17.8052L 15.9615 17.4603ZM 20.0245 6.40212L 20.941 6.00222L 19.9449 3.71909L 19.0858 6.05724L 20.0245 6.40212ZM 22.0559 11.0582L 21.1394 11.4581L 22.0457 13.5354L 22.9692 11.4656L 22.0559 11.0582ZM 9.68191 39.6483L 0.975621 0.944558L -0.975621 1.38348L 7.73067 40.0872L 9.68191 39.6483ZM 2.87781 8.59438L 5.77991 14.4145L 7.56974 13.522L 4.66764 7.70191L 2.87781 8.59438ZM 7.66839 14.0815L 8.82923 3.89631L 6.8421 3.66983L 5.68126 13.855L 7.66839 14.0815ZM 26.0044 -0.172097L 19.0394 39.6956L 21.0096 40.0398L 27.9746 0.172097L 26.0044 -0.172097ZM 6.91994 4.18488L 10.1123 11.46L 11.9437 10.6564L 8.75138 3.38125L 6.91994 4.18488ZM 11.8861 11.5717L 13.6273 8.66161L 11.9111 7.63469L 10.1699 10.5447L 11.8861 11.5717ZM 11.8233 8.47243L 15.0156 17.7846L 16.9075 17.136L 13.7152 7.82386L 11.8233 8.47243ZM 16.9002 17.8052L 20.9631 6.74699L 19.0858 6.05724L 15.0229 17.1154L 16.9002 17.8052ZM 19.1079 6.80202L 21.1394 11.4581L 22.9725 10.6583L 20.941 6.00222L 19.1079 6.80202ZM 22.9692 11.4656L 27.9027 0.407435L 26.0763 -0.407435L 21.1427 10.6508L 22.9692 11.4656ZM -0.879837 1.6393L 2.89289 8.62342L 4.65256 7.67287L 0.879837 0.688746L -0.879837 1.6393Z"/>
<path id="path4_fill" d="M 0 1.74603C 0 0.781725 0.781725 0 1.74603 0L 26.6945 0C 27.6588 0 28.4406 0.781726 28.4406 1.74603L 28.4406 1.74603C 28.4406 2.71034 27.6588 3.49206 26.6945 3.49206L 1.74603 3.49206C 0.781725 3.49206 0 2.71034 0 1.74603L 0 1.74603Z"/>
<path id="path5_fill" d="M 0 1.74603C 0 0.781725 0.781725 0 1.74603 0L 10.4428 0C 11.4071 0 12.1888 0.781726 12.1888 1.74603L 12.1888 1.74603C 12.1888 2.71034 11.4071 3.49206 10.4428 3.49206L 1.74603 3.49206C 0.781725 3.49206 0 2.71034 0 1.74603L 0 1.74603Z"/>
</defs>
</svg>
