<svg width="160" height="160" viewBox="0 0 160 160" version="1.1" xmlns="http://www.w3.org/2000/svg" xmlns:xlink="http://www.w3.org/1999/xlink">
<title>labs-logo (Canvas)</title>
<desc>Created using Figma</desc>
<g id="Canvas" transform="translate(133 251)">
<g id="Group">
<g id="Ellipse">
<use xlink:href="#path0_fill" transform="translate(-133 -251)" fill="#F0ADFF"/>
</g>
<g id="Group">
<g id="Polygon">
<mask id="mask0_outline_ins">
<use xlink:href="#path1_fill" fill="white" transform="translate(-94 -238)"/>
</mask>
<g mask="url(#mask0_outline_ins)">
<use xlink:href="#path2_stroke_2x" transform="translate(-94 -238)" fill="#1C1C1C"/>
</g>
</g>
<g id="Polygon">
<use xlink:href="#path3_fill" transform="translate(-94 -238)" fill="#1C1C1C"/>
<use xlink:href="#path4_fill" transform="translate(-94 -238)" fill="#1C1C1C"/>
<mask id="mask1_outline_ins">
<use xlink:href="#path3_fill" fill="white" transform="translate(-94 -238)"/>
<use xlink:href="#path4_fill" fill="white" transform="translate(-94 -238)"/>
</mask>
<g mask="url(#mask1_outline_ins)">
<use xlink:href="#path5_stroke_2x" transform="translate(-94 -238)" fill="#1C1C1C"/>
</g>
</g>
</g>
<g id="Group">
<g id="Polygon">
<mask id="mask2_outline_ins">
<use xlink:href="#path6_fill" fill="white" transform="translate(-53.2684 -230.349)"/>
</mask>
<g mask="url(#mask2_outline_ins)">
<use xlink:href="#path7_stroke_2x" transform="translate(-53.2684 -230.349)" fill="#1C1C1C"/>
</g>
</g>
<g id="Polygon">
<use xlink:href="#path8_fill" transform="translate(-53.2684 -230.349)" fill="#1C1C1C"/>
<use xlink:href="#path9_fill" transform="translate(-53.2684 -230.349)" fill="#1C1C1C"/>
<mask id="mask3_outline_ins">
<use xlink:href="#path8_fill" fill="white" transform="translate(-53.2684 -230.349)"/>
<use xlink:href="#path9_fill" fill="white" transform="translate(-53.2684 -230.349)"/>
</mask>
<g mask="url(#mask3_outline_ins)">
<use xlink:href="#path10_stroke_2x" transform="translate(-53.2684 -230.349)" fill="#1C1C1C"/>
</g>
</g>
</g>
<g id="Group">
<g id="Polygon">
<mask id="mask4_outline_ins">
<use xlink:href="#path11_fill" fill="white" transform="translate(-40.2581 -163.462)"/>
</mask>
<g mask="url(#mask4_outline_ins)">
<use xlink:href="#path12_stroke_2x" transform="translate(-40.2581 -163.462)" fill="#1C1C1C"/>
</g>
</g>
<g id="Polygon">
<use xlink:href="#path13_fill" transform="translate(-40.2581 -163.462)" fill="#1C1C1C"/>
<use xlink:href="#path14_fill" transform="translate(-40.2581 -163.462)" fill="#1C1C1C"/>
<mask id="mask5_outline_ins">
<use xlink:href="#path13_fill" fill="white" transform="translate(-40.2581 -163.462)"/>
<use xlink:href="#path14_fill" fill="white" transform="translate(-40.2581 -163.462)"/>
</mask>
<g mask="url(#mask5_outline_ins)">
<use xlink:href="#path15_stroke_2x" transform="translate(-40.2581 -163.462)" fill="#1C1C1C"/>
</g>
</g>
</g>
</g>
</g>
<defs>
<path id="path0_fill" d="M 160 80C 160 124.183 124.183 160 80 160C 35.8172 160 0 124.183 0 80C 0 35.8172 35.8172 0 80 0C 124.183 0 160 35.8172 160 80Z"/>
<path id="path1_fill" d="M 20.2903 0L 40.5807 96.2462L 20.2903 108.519L 0 96.2462L 20.2903 0Z"/>
<path id="path2_stroke_2x" d="M 21.2903 108.519L 21.2903 0L 19.2903 0L 19.2903 108.519L 21.2903 108.519ZM 20.2903 0L 22.2473 -0.412565L 18.3333 -0.412565L 20.2903 0ZM 40.5807 96.2462L 41.6158 97.9575L 42.8305 97.2228L 42.5376 95.8337L 40.5807 96.2462ZM 0 96.2462L -1.95698 95.8337L -2.24983 97.2228L -1.03511 97.9575L 0 96.2462ZM 20.2903 108.519L 19.2552 110.231L 20.2903 110.857L 21.3254 110.231L 20.2903 108.519ZM 18.3333 0.412565L 38.6237 96.6588L 42.5376 95.8337L 22.2473 -0.412565L 18.3333 0.412565ZM 1.95698 96.6588L 22.2473 0.412565L 18.3333 -0.412565L -1.95698 95.8337L 1.95698 96.6588ZM 39.5455 94.5349L 19.2552 106.808L 21.3254 110.231L 41.6158 97.9575L 39.5455 94.5349ZM 21.3254 106.808L 1.03511 94.5349L -1.03511 97.9575L 19.2552 110.231L 21.3254 106.808Z"/>
<path id="path3_fill" fill-rule="evenodd" d="M 20.2903 0L 0 96.2462L 20.2903 108.519L 20.2903 0Z"/>
<path id="path4_fill" d="M 20.2903 0L 0 96.2462L 20.2903 108.519L 20.2903 0Z"/>
<path id="path5_stroke_2x" d="M 20.2903 0L 21.2688 -0.206283L 19.3118 -0.206283L 20.2903 0ZM 40.5807 96.2462L 41.0982 97.1019L 41.7056 96.7345L 41.5591 96.04L 40.5807 96.2462ZM 0 96.2462L -0.978492 96.04L -1.12492 96.7345L -0.517556 97.1019L 0 96.2462ZM 20.2903 108.519L 19.7728 109.375L 20.2903 109.688L 20.8079 109.375L 20.2903 108.519ZM 19.3118 0.206283L 39.6022 96.4525L 41.5591 96.04L 21.2688 -0.206283L 19.3118 0.206283ZM 0.978492 96.4525L 21.2688 0.206283L 19.3118 -0.206283L -0.978492 96.04L 0.978492 96.4525ZM 40.0631 95.3906L 19.7728 107.664L 20.8079 109.375L 41.0982 97.1019L 40.0631 95.3906ZM 20.8079 107.664L 0.517556 95.3906L -0.517556 97.1019L 19.7728 109.375L 20.8079 107.664ZM 21.2903 108.519L 21.2903 0L 19.2903 0L 19.2903 108.519L 21.2903 108.519Z"/>
<path id="path6_fill" d="M 13.1613 0L 26.3226 63.192L 13.1613 71.25L 0 63.192L 13.1613 0Z"/>
<path id="path7_stroke_2x" d="M 14.1613 71.25L 14.1613 0L 12.1613 0L 12.1613 71.25L 14.1613 71.25ZM 13.1613 0L 15.1193 -0.407798L 11.2033 -0.407799L 13.1613 0ZM 26.3226 63.192L 27.3669 64.8977L 28.5676 64.1625L 28.2806 62.7842L 26.3226 63.192ZM 0 63.192L -1.95798 62.7842L -2.24506 64.1625L -1.04432 64.8977L 0 63.192ZM 13.1613 71.25L 12.117 72.9557L 13.1613 73.5951L 14.2056 72.9557L 13.1613 71.25ZM 11.2033 0.407798L 24.3646 63.5998L 28.2806 62.7842L 15.1193 -0.407798L 11.2033 0.407798ZM 1.95798 63.5998L 15.1193 0.407799L 11.2033 -0.407799L -1.95798 62.7842L 1.95798 63.5998ZM 25.2783 61.4863L 12.117 69.5443L 14.2056 72.9557L 27.3669 64.8977L 25.2783 61.4863ZM 14.2056 69.5443L 1.04432 61.4863L -1.04432 64.8977L 12.117 72.9557L 14.2056 69.5443Z"/>
<path id="path8_fill" fill-rule="evenodd" d="M 13.1613 0L 0 63.192L 13.1613 71.25L 13.1613 0Z"/>
<path id="path9_fill" d="M 13.1613 0L 0 63.192L 13.1613 71.25L 13.1613 0Z"/>
<path id="path10_stroke_2x" d="M 13.1613 0L 14.1403 -0.203899L 12.1823 -0.203899L 13.1613 0ZM 26.3226 63.192L 26.8447 64.0448L 27.4451 63.6772L 27.3016 62.9881L 26.3226 63.192ZM 0 63.192L -0.978992 62.9881L -1.12253 63.6772L -0.522159 64.0448L 0 63.192ZM 13.1613 71.25L 12.6391 72.1029L 13.1613 72.4226L 13.6835 72.1029L 13.1613 71.25ZM 12.1823 0.203899L 25.3436 63.3959L 27.3016 62.9881L 14.1403 -0.203899L 12.1823 0.203899ZM 0.978992 63.3959L 14.1403 0.203899L 12.1823 -0.203899L -0.978992 62.9881L 0.978992 63.3959ZM 25.8004 62.3391L 12.6391 70.3972L 13.6835 72.1029L 26.8447 64.0448L 25.8004 62.3391ZM 13.6834 70.3972L 0.522159 62.3391L -0.522159 64.0448L 12.6391 72.1029L 13.6834 70.3972ZM 14.1613 71.25L 14.1613 0L 12.1613 0L 12.1613 71.25L 14.1613 71.25Z"/>
<path id="path11_fill" d="M 7.12903 0L 14.2581 34.9986L 7.12903 39.4615L 0 34.9986L 7.12903 0Z"/>
<path id="path12_stroke_2x" d="M 8.12903 39.4615L 8.12903 0L 6.12903 0L 6.12903 39.4615L 8.12903 39.4615ZM 7.12903 0L 9.08879 -0.399192L 5.16928 -0.399192L 7.12903 0ZM 14.2581 34.9986L 15.3193 36.6938L 16.4946 35.9581L 16.2178 34.5994L 14.2581 34.9986ZM 0 34.9986L -1.95976 34.5994L -2.23651 35.9581L -1.06124 36.6938L 0 34.9986ZM 7.12903 39.4615L 6.06779 41.1568L 7.12903 41.8211L 8.19027 41.1568L 7.12903 39.4615ZM 5.16928 0.399192L 12.2983 35.3978L 16.2178 34.5994L 9.08879 -0.399192L 5.16928 0.399192ZM 1.95976 35.3978L 9.08879 0.399192L 5.16928 -0.399192L -1.95976 34.5994L 1.95976 35.3978ZM 13.1968 33.3034L 6.06779 37.7663L 8.19027 41.1568L 15.3193 36.6938L 13.1968 33.3034ZM 8.19027 37.7663L 1.06124 33.3034L -1.06124 36.6938L 6.06779 41.1568L 8.19027 37.7663Z"/>
<path id="path13_fill" fill-rule="evenodd" d="M 7.12903 0L 0 34.9986L 7.12903 39.4615L 7.12903 0Z"/>
<path id="path14_fill" d="M 7.12903 0L 0 34.9986L 7.12903 39.4615L 7.12903 0Z"/>
<path id="path15_stroke_2x" d="M 7.12903 0L 8.10891 -0.199596L 6.14915 -0.199596L 7.12903 0ZM 14.2581 34.9986L 14.7887 35.8462L 15.3763 35.4784L 15.2379 34.799L 14.2581 34.9986ZM 0 34.9986L -0.979878 34.799L -1.11826 35.4784L -0.53062 35.8462L 0 34.9986ZM 7.12903 39.4615L 6.59841 40.3092L 7.12903 40.6413L 7.65965 40.3092L 7.12903 39.4615ZM 6.14915 0.199596L 13.2782 35.1982L 15.2379 34.799L 8.10891 -0.199596L 6.14915 0.199596ZM 0.979878 35.1982L 8.10891 0.199596L 6.14915 -0.199596L -0.979878 34.799L 0.979878 35.1982ZM 13.7274 34.151L 6.59841 38.6139L 7.65965 40.3092L 14.7887 35.8462L 13.7274 34.151ZM 7.65965 38.6139L 0.53062 34.151L -0.53062 35.8462L 6.59841 40.3092L 7.65965 38.6139ZM 8.12903 39.4615L 8.12903 0L 6.12903 0L 6.12903 39.4615L 8.12903 39.4615Z"/>
</defs>
</svg>
