<svg width="160" height="160" viewBox="0 0 160 160" version="1.1" xmlns="http://www.w3.org/2000/svg" xmlns:xlink="http://www.w3.org/1999/xlink">
<title>organizing-icon-b</title>
<desc>Created using Figma</desc>
<g id="Canvas" transform="translate(437 159)">
<g id="organizing-icon-b">
<g id="backing">
<g id="Rectangle 4">
<mask id="mask0_outline_ins">
<use xlink:href="#path0_fill" fill="white" transform="translate(-437 -159)"/>
</mask>
<g mask="url(#mask0_outline_ins)">
<use xlink:href="#path1_stroke_2x" transform="translate(-437 -159)" fill="#FFFFFF"/>
</g>
</g>
<g id="Ellipse 6">
<use xlink:href="#path2_fill" transform="translate(-420 -142)" fill="#FF4F79"/>
</g>
</g>
<g id="clipboard">
<g id="lines">
<g id="Rectangle 5">
<use xlink:href="#path3_fill" transform="translate(-379.911 -106.991)" fill="#1C1C1C"/>
</g>
<g id="Rectangle 5">
<use xlink:href="#path3_fill" transform="translate(-379.911 -96.6422)" fill="#1C1C1C"/>
</g>
<g id="Rectangle 5">
<use xlink:href="#path3_fill" transform="translate(-379.911 -86.2936)" fill="#1C1C1C"/>
</g>
<g id="Rectangle 5">
<use xlink:href="#path3_fill" transform="translate(-379.911 -75.945)" fill="#1C1C1C"/>
</g>
<g id="Rectangle 5">
<use xlink:href="#path3_fill" transform="translate(-379.911 -65.5963)" fill="#1C1C1C"/>
</g>
<g id="Rectangle 5">
<use xlink:href="#path3_fill" transform="translate(-379.911 -55.2477)" fill="#1C1C1C"/>
</g>
</g>
<g id="Subtract">
<use xlink:href="#path4_fill" transform="translate(-393 -119.927)" fill="#1C1C1C"/>
<mask id="mask1_outline_ins">
<use xlink:href="#path4_fill" fill="white" transform="translate(-393 -119.927)"/>
</mask>
<g mask="url(#mask1_outline_ins)">
<use xlink:href="#path5_stroke_2x" transform="translate(-393 -119.927)" fill="#1C1C1C"/>
</g>
</g>
<g id="Ellipse 2">
<use xlink:href="#path6_fill" transform="translate(-345.905 -64.4587)" fill="#FF4F79"/>
</g>
<g id="clip">
<g id="Union">
<use xlink:href="#path7_fill" transform="translate(-373.738 -132)" fill="#FF4F79"/>
<mask id="mask2_outline_out">
<rect id="mask2_outline_inv" fill="white" x="-3" y="-2" width="38" height="24" transform="translate(-373.738 -132)"/>
<use xlink:href="#path7_fill" fill="black" transform="translate(-373.738 -132)"/>
</mask>
<g mask="url(#mask2_outline_out)">
<use xlink:href="#path8_stroke_2x" transform="translate(-373.738 -132)" fill="#1C1C1C"/>
</g>
</g>
<g id="Ellipse">
<use xlink:href="#path9_fill" transform="translate(-360.564 -128.694)" fill="#1C1C1C"/>
</g>
</g>
</g>
<g id="button">
<g id="head">
<g id="Ellipse 3">
<use xlink:href="#path10_fill" transform="translate(-333 -46)" fill="#1C1C1C"/>
</g>
<g id="Ellipse 5">
<use xlink:href="#path11_fill" transform="translate(-330 -42.5)" fill="#FF4F79"/>
</g>
<g id="Ellipse 5">
<use xlink:href="#path11_fill" transform="translate(-324 -42.5)" fill="#FF4F79"/>
</g>
<g id="Ellipse 4">
<use xlink:href="#path12_fill" transform="translate(-328.873 -38.0728)" fill="#FF4F79"/>
</g>
</g>
<g id="Ellipse 2">
<use xlink:href="#path13_stroke" transform="translate(-347 -66)" fill="#1C1C1C"/>
</g>
<g id="Group">
<g id="Rectangle 5">
<use xlink:href="#path14_fill" transform="matrix(1 0 0 -1 -343 -41)" fill="#1C1C1C"/>
</g>
<g id="Rectangle 5">
<use xlink:href="#path14_fill" transform="matrix(1 0 0 -1 -343 -38)" fill="#1C1C1C"/>
</g>
</g>
<g id="Group">
<g id="Rectangle 5">
<use xlink:href="#path14_fill" transform="matrix(1 0 0 -1 -316 -41)" fill="#1C1C1C"/>
</g>
<g id="Rectangle 5">
<use xlink:href="#path14_fill" transform="matrix(1 0 0 -1 -316 -38)" fill="#1C1C1C"/>
</g>
</g>
<g id="Group">
<g id="e">
<use xlink:href="#path15_fill" transform="matrix(0.978792 0.204856 -0.204856 0.978792 -319.467 -62.3035)" fill="#1C1C1C"/>
</g>
<g id="v">
<use xlink:href="#path16_fill" transform="matrix(0.940906 -0.338669 0.338669 0.940906 -344.504 -60.6544)" fill="#1C1C1C"/>
</g>
<g id="O">
<use xlink:href="#path17_fill" transform="matrix(0.996413 -0.084625 0.084625 0.996413 -335 -62.323)" fill="#1C1C1C"/>
</g>
<g id="t">
<use xlink:href="#path18_fill" transform="matrix(0.989866 0.142007 -0.142007 0.989866 -324.876 -67)" fill="#1C1C1C"/>
</g>
<g id="!">
<use xlink:href="#path19_fill" transform="matrix(0.956204 0.292701 -0.292701 0.956204 -312.731 -60)" fill="#1C1C1C"/>
</g>
</g>
</g>
</g>
</g>
<defs>
<path id="path0_fill" d="M 0 0L 160 0L 160 160L 0 160L 0 0Z"/>
<path id="path1_stroke_2x" d="M 0 0L 0 -1L -1 -1L -1 0L 0 0ZM 160 0L 161 0L 161 -1L 160 -1L 160 0ZM 160 160L 160 161L 161 161L 161 160L 160 160ZM 0 160L -1 160L -1 161L 0 161L 0 160ZM 0 1L 160 1L 160 -1L 0 -1L 0 1ZM 159 0L 159 160L 161 160L 161 0L 159 0ZM 160 159L 0 159L 0 161L 160 161L 160 159ZM 1 160L 1 0L -1 0L -1 160L 1 160Z"/>
<path id="path2_fill" d="M 125 62.5C 125 97.0178 97.0178 125 62.5 125C 27.9822 125 0 97.0178 0 62.5C 0 27.9822 27.9822 0 62.5 0C 97.0178 0 125 27.9822 125 62.5Z"/>
<path id="path3_fill" d="M 0 2.15596C 0 0.965258 0.965258 0 2.15596 0L 41.4742 0C 42.6649 0 43.6301 0.965258 43.6301 2.15596C 43.6301 3.34667 42.6649 4.31193 41.4742 4.31193L 2.15596 4.31193C 0.965258 4.31193 0 3.34667 0 2.15596Z"/>
<path id="path4_fill" fill-rule="evenodd" d="M 0 4C 0 1.79086 1.79086 0 4 0L 66.6808 0C 68.89 0 70.6808 1.79086 70.6808 4L 70.6808 54.5167C 68.7848 53.7283 66.728 53.2425 64.5726 53.1207L 64.5726 10.0367C 64.5726 7.82756 62.7817 6.0367 60.5726 6.0367L 10.1082 6.0367C 7.89908 6.0367 6.10822 7.82756 6.10822 10.0367L 6.10822 70.8627C 6.10822 73.0718 7.89908 74.8627 10.1082 74.8627L 45.3025 74.8627C 45.8065 77.4531 46.8636 79.8493 48.3476 81.9266L 4 81.9266C 1.79086 81.9266 0 80.1357 0 77.9266L 0 4Z"/>
<path id="path5_stroke_2x" d="M 70.6808 54.5167L 69.145 58.2101L 74.6808 60.5121L 74.6808 54.5167L 70.6808 54.5167ZM 64.5726 53.1207L 60.5726 53.1207L 60.5726 56.9009L 64.3468 57.1143L 64.5726 53.1207ZM 45.3025 74.8627L 49.2289 74.0988L 48.5993 70.8627L 45.3025 70.8627L 45.3025 74.8627ZM 48.3476 81.9266L 48.3476 85.9266L 56.1209 85.9266L 51.6024 79.6015L 48.3476 81.9266ZM 4 -4C -0.418276 -4 -4 -0.418276 -4 4L 4 4L 4 -4ZM 66.6808 -4L 4 -4L 4 4L 66.6808 4L 66.6808 -4ZM 74.6808 4C 74.6808 -0.418276 71.0991 -4 66.6808 -4L 66.6808 4L 74.6808 4ZM 74.6808 54.5167L 74.6808 4L 66.6808 4L 66.6808 54.5167L 74.6808 54.5167ZM 64.3468 57.1143C 66.1532 57.201 67.5531 57.534 69.145 58.2101L 72.2166 50.8233C 70.0165 49.9227 67.3028 49.2841 64.7984 49.1271L 64.3468 57.1143ZM 68.5726 53.1207L 68.5726 10.0367L 60.5726 10.0367L 60.5726 53.1207L 68.5726 53.1207ZM 68.5726 10.0367C 68.5726 5.61842 64.9909 2.0367 60.5726 2.0367L 60.5726 10.0367L 68.5726 10.0367ZM 60.5726 2.0367L 10.1082 2.0367L 10.1082 10.0367L 60.5726 10.0367L 60.5726 2.0367ZM 10.1082 2.0367C 5.68994 2.0367 2.10822 5.61842 2.10822 10.0367L 10.1082 10.0367L 10.1082 2.0367ZM 2.10822 10.0367L 2.10822 70.8627L 10.1082 70.8627L 10.1082 10.0367L 2.10822 10.0367ZM 2.10822 70.8627C 2.10822 75.2809 5.68994 78.8627 10.1082 78.8627L 10.1082 70.8627L 2.10822 70.8627ZM 10.1082 78.8627L 45.3025 78.8627L 45.3025 70.8627L 10.1082 70.8627L 10.1082 78.8627ZM 51.6024 79.6015C 50.339 77.8691 49.6233 76.2565 49.2289 74.0988L 41.3761 75.6265C 41.9897 78.6497 43.3881 81.8295 45.0928 84.2518L 51.6024 79.6015ZM 4 85.9266L 48.3476 85.9266L 48.3476 77.9266L 4 77.9266L 4 85.9266ZM -4 77.9266C -4 82.3449 -0.418273 85.9266 4 85.9266L 4 77.9266L -4 77.9266ZM -4 4L -4 77.9266L 4 77.9266L 4 4L -4 4Z"/>
<path id="path6_fill" d="M 25.5853 16.8165C 25.5853 26.9227 25.3467 28.0275 15.1141 28.0275C 2.40454 27.4587 -1.09545 31.4587 0.27982 18.2989C 0.27982 8.19268 8.57497 0 18.8075 0C 29.0401 0 25.5853 6.71033 25.5853 16.8165Z"/>
<path id="path7_fill" fill-rule="evenodd" d="M 19.4294 8.50066C 20.2927 7.59792 20.8223 6.37891 20.8223 5.03742C 20.8223 2.25533 18.5447 0 15.7352 0C 12.9257 0 10.6481 2.25533 10.6481 5.03742C 10.6481 6.37891 11.1776 7.59792 12.041 8.50066L 4.63483 8.50066C 2.33331 8.50066 0.383484 10.1961 0.0638122 12.4753C -0.481476 16.3631 2.53738 19.8349 6.4632 19.8349L 25.0593 19.8349C 29.2812 19.8349 32.5277 16.1012 31.9413 11.9202C 31.6663 9.95931 29.9888 8.50066 28.0087 8.50066L 19.4294 8.50066Z"/>
<path id="path8_stroke_2x" d="M 19.4294 8.50066L 17.984 7.11832L 14.7492 10.5007L 19.4294 10.5007L 19.4294 8.50066ZM 12.041 8.50066L 12.041 10.5007L 16.7212 10.5007L 13.4864 7.11832L 12.041 8.50066ZM 0.0638122 12.4753L 2.04443 12.7531L 2.04443 12.7531L 0.0638122 12.4753ZM 31.9413 11.9202L 29.9607 12.198L 29.9607 12.198L 31.9413 11.9202ZM 18.8223 5.03742C 18.8223 5.84103 18.5075 6.57089 17.984 7.11832L 20.8747 9.883C 22.0779 8.62494 22.8223 6.91679 22.8223 5.03742L 18.8223 5.03742ZM 15.7352 2C 17.4587 2 18.8223 3.37835 18.8223 5.03742L 22.8223 5.03742C 22.8223 1.1323 19.6307 -2 15.7352 -2L 15.7352 2ZM 12.6481 5.03742C 12.6481 3.37834 14.0117 2 15.7352 2L 15.7352 -2C 11.8396 -2 8.6481 1.13231 8.6481 5.03742L 12.6481 5.03742ZM 13.4864 7.11832C 12.9628 6.57089 12.6481 5.84103 12.6481 5.03742L 8.6481 5.03742C 8.6481 6.91679 9.39244 8.62494 10.5956 9.883L 13.4864 7.11832ZM 4.63483 10.5007L 12.041 10.5007L 12.041 6.50066L 4.63483 6.50066L 4.63483 10.5007ZM 2.04443 12.7531C 2.22558 11.4615 3.33054 10.5007 4.63483 10.5007L 4.63483 6.50066C 1.33608 6.50066 -1.45861 8.93073 -1.9168 12.1975L 2.04443 12.7531ZM 6.4632 17.8349C 3.75243 17.8349 1.6679 15.4376 2.04443 12.7531L -1.9168 12.1975C -2.63086 17.2885 1.32234 21.8349 6.4632 21.8349L 6.4632 17.8349ZM 25.0593 17.8349L 6.4632 17.8349L 6.4632 21.8349L 25.0593 21.8349L 25.0593 17.8349ZM 29.9607 12.198C 30.3784 15.1757 28.0661 17.8349 25.0593 17.8349L 25.0593 21.8349C 30.4962 21.8349 34.6771 17.0267 33.9219 11.6424L 29.9607 12.198ZM 28.0087 10.5007C 28.9915 10.5007 29.8242 11.2247 29.9607 12.198L 33.9219 11.6424C 33.5084 8.69394 30.986 6.50066 28.0087 6.50066L 28.0087 10.5007ZM 19.4294 10.5007L 28.0087 10.5007L 28.0087 6.50066L 19.4294 6.50066L 19.4294 10.5007Z"/>
<path id="path9_fill" d="M 4.97851 2.47936C 4.97851 3.84867 3.86403 4.95871 2.48926 4.95871C 1.11448 4.95871 0 3.84867 0 2.47936C 0 1.11005 1.11448 0 2.48926 0C 3.86403 0 4.97851 1.11005 4.97851 2.47936Z"/>
<path id="path10_fill" d="M 9.61651 14.6452C 9.04412 16.9334 9.26471 15.6308 7.58501 15.6308C 6.83824 15.6308 6.39706 16.7163 6.1998 14.6452C -3.48089 10.1961 -0.900279 0 7.58501 0C 16.0703 0 17.9685 10.1961 9.61651 14.6452Z"/>
<path id="path11_fill" d="M 3 1.5C 3 2.32843 2.32843 3 1.5 3C 0.671573 3 0 2.32843 0 1.5C 0 0.671573 0.671573 0 1.5 0C 2.32843 0 3 0.671573 3 1.5Z"/>
<path id="path12_fill" d="M 6.87771 0.474393C 6.87771 2.33549 5.33808 3.84421 3.43885 3.84421C 1.53963 3.84421 0 2.33549 0 0.474393C 0 -0.927173 0.873291 1.22324 3.43885 1.22324C 5.87329 1.22324 6.87771 -0.927173 6.87771 0.474393Z"/>
<path id="path13_stroke" d="M 41.4655 21.2189C 41.4655 32.3849 32.4076 41.4378 21.2327 41.4378L 21.2327 43.4378C 33.5109 43.4378 43.4655 33.4907 43.4655 21.2189L 41.4655 21.2189ZM 21.2327 41.4378C 10.0579 41.4378 1 32.3849 1 21.2189L -1 21.2189C -1 33.4907 8.95455 43.4378 21.2327 43.4378L 21.2327 41.4378ZM 1 21.2189C 1 10.0529 10.0579 1 21.2327 1L 21.2327 -1C 8.95455 -1 -1 8.94712 -1 21.2189L 1 21.2189ZM 21.2327 1C 32.4076 1 41.4655 10.0529 41.4655 21.2189L 43.4655 21.2189C 43.4655 8.94712 33.5109 -1 21.2327 -1L 21.2327 1Z"/>
<path id="path14_fill" d="M 0 1C 0 0.447715 0.447715 0 1 0L 7 0C 7.55228 0 8 0.447715 8 1C 8 1.55228 7.55228 2 7 2L 1 2C 0.447715 2 0 1.55228 0 1Z"/>
<path id="path15_fill" d="M 2.76 9.22C 2.864 9.564 3.036 9.844 3.276 10.06C 3.516 10.276 3.848 10.384 4.272 10.384C 4.4 10.384 4.536 10.376 4.68 10.36C 4.832 10.336 4.98 10.308 5.124 10.276C 5.268 10.236 5.404 10.196 5.532 10.156C 5.66 10.108 5.772 10.064 5.868 10.024C 5.884 10.256 5.892 10.504 5.892 10.768C 5.9 11.024 5.904 11.28 5.904 11.536C 5.904 11.96 5.892 12.34 5.868 12.676C 5.244 12.98 4.544 13.132 3.768 13.132C 3.408 13.132 3.044 13.092 2.676 13.012C 2.308 12.932 1.952 12.78 1.608 12.556C 1.304 12.356 1.052 12.124 0.852 11.86C 0.66 11.588 0.508 11.312 0.396 11.032C 0.284 10.744 0.208 10.464 0.168 10.192C 0.128 9.92 0.108 9.676 0.108 9.46C 0.108 9.14 0.144 8.808 0.216 8.464C 0.296 8.112 0.416 7.78 0.576 7.468C 0.736 7.148 0.94 6.856 1.188 6.592C 1.436 6.328 1.728 6.12 2.064 5.968C 2.472 5.784 2.904 5.692 3.36 5.692C 3.84 5.692 4.272 5.788 4.656 5.98C 5.04 6.172 5.352 6.436 5.592 6.772C 5.824 7.092 5.968 7.448 6.024 7.84C 6.088 8.232 6.12 8.692 6.12 9.22L 2.76 9.22ZM 3.444 6.988C 3.276 6.988 3.116 7.06 2.964 7.204C 2.812 7.34 2.712 7.584 2.664 7.936L 4.236 7.936C 4.204 7.616 4.108 7.38 3.948 7.228C 3.796 7.068 3.628 6.988 3.444 6.988Z"/>
<path id="path16_fill" d="M 6.87 7.03L 4.845 16L 2.01 16L -0.045 7.03L 2.19 7.03L 3.06 11.8C 3.09 11.98 3.135 12.13 3.195 12.25C 3.265 12.37 3.35 12.43 3.45 12.43C 3.62 12.43 3.745 12.22 3.825 11.8L 4.635 7.03L 6.87 7.03Z"/>
<path id="path17_fill" d="M 3.648 3.04C 4.84 3.04 5.72 3.464 6.288 4.312C 6.856 5.16 7.14 6.392 7.14 8.008C 7.14 9.648 6.86 10.912 6.3 11.8C 5.748 12.688 4.864 13.132 3.648 13.132C 3.048 13.132 2.528 13.02 2.088 12.796C 1.648 12.564 1.284 12.232 0.996 11.8C 0.708 11.36 0.496 10.824 0.36 10.192C 0.224 9.552 0.156 8.824 0.156 8.008C 0.156 6.368 0.44 5.132 1.008 4.3C 1.576 3.46 2.456 3.04 3.648 3.04ZM 3.648 10.036C 3.904 10.036 4.128 9.98 4.32 9.868C 4.52 9.748 4.684 9.588 4.812 9.388C 4.94 9.18 5.036 8.936 5.1 8.656C 5.164 8.368 5.196 8.052 5.196 7.708C 5.196 7.364 5.164 7.048 5.1 6.76C 5.036 6.464 4.94 6.208 4.812 5.992C 4.684 5.776 4.52 5.608 4.32 5.488C 4.128 5.368 3.904 5.308 3.648 5.308C 3.392 5.308 3.168 5.372 2.976 5.5C 2.792 5.62 2.632 5.788 2.496 6.004C 2.368 6.22 2.272 6.476 2.208 6.772C 2.144 7.06 2.112 7.372 2.112 7.708C 2.112 8.052 2.144 8.368 2.208 8.656C 2.272 8.936 2.368 9.18 2.496 9.388C 2.632 9.588 2.792 9.748 2.976 9.868C 3.168 9.98 3.392 10.036 3.648 10.036Z"/>
<path id="path18_fill" d="M 1.275 5.862L 3.604 5.862L 3.604 7.834L 4.913 7.834L 4.913 12.356L 3.57 12.356L 3.57 14.736C 3.57 15.2007 3.60967 15.5123 3.689 15.671C 3.76833 15.8183 3.94967 15.892 4.233 15.892C 4.31233 15.892 4.42 15.8863 4.556 15.875C 4.692 15.8637 4.794 15.8467 4.862 15.824C 4.88467 15.9033 4.896 16.0677 4.896 16.317C 4.896 16.555 4.896 16.7987 4.896 17.048C 4.896 17.2633 4.896 17.4617 4.896 17.643C 4.896 17.813 4.89033 17.932 4.879 18C 4.743 18.0227 4.59 18.0397 4.42 18.051C 4.26133 18.0737 4.10267 18.0907 3.944 18.102C 3.79667 18.1133 3.655 18.119 3.519 18.119C 3.39433 18.1303 3.29233 18.136 3.213 18.136C 2.805 18.136 2.47067 18.0567 2.21 17.898C 1.94933 17.7393 1.74533 17.5297 1.598 17.269C 1.45067 16.997 1.34867 16.6967 1.292 16.368C 1.23533 16.028 1.207 15.6823 1.207 15.331C 1.207 15.195 1.207 14.9967 1.207 14.736C 1.21833 14.464 1.224 14.1807 1.224 13.886C 1.23533 13.5913 1.24667 13.308 1.258 13.036C 1.26933 12.7527 1.275 12.526 1.275 12.356L 0.255 12.356L 0.255 7.834L 1.275 7.834L 1.275 5.862Z"/>
<path id="path19_fill" d="M 3.346 3.464L 2.66 10.758L 0.966 10.758L 0.966 3.226L 3.346 3.464ZM 1.68 12.144C 1.91333 12.144 2.11867 12.1907 2.296 12.284C 2.48267 12.3773 2.63667 12.4987 2.758 12.648C 2.88867 12.788 2.98667 12.9467 3.052 13.124C 3.11733 13.292 3.15 13.4553 3.15 13.614C 3.15 13.8193 3.108 14.0153 3.024 14.202C 2.94933 14.3887 2.842 14.552 2.702 14.692C 2.57133 14.832 2.41267 14.944 2.226 15.028C 2.04867 15.112 1.862 15.154 1.666 15.154C 1.414 15.154 1.19467 15.112 1.008 15.028C 0.821333 14.9533 0.667333 14.8507 0.546 14.72C 0.424667 14.58 0.331333 14.426 0.266 14.258C 0.21 14.09 0.182 13.9173 0.182 13.74C 0.182 13.5533 0.214667 13.3667 0.28 13.18C 0.345333 12.984 0.438667 12.8113 0.56 12.662C 0.690667 12.5033 0.849333 12.3773 1.036 12.284C 1.22267 12.1907 1.43733 12.144 1.68 12.144Z"/>
</defs>
</svg>
