<svg width="160" height="160" viewBox="0 0 160 160" version="1.1" xmlns="http://www.w3.org/2000/svg" xmlns:xlink="http://www.w3.org/1999/xlink">
<title>people-icon-b</title>
<desc>Created using Figma</desc>
<g id="Canvas" transform="translate(159 194)">
<g id="people-icon-b">
<g id="Rectangle">
<mask id="mask0_outline_ins">
<use xlink:href="#path0_fill" fill="white" transform="translate(-159 -194)"/>
</mask>
<g mask="url(#mask0_outline_ins)">
<use xlink:href="#path1_stroke_2x" transform="translate(-159 -194)" fill="#FFFFFF"/>
</g>
</g>
<g id="Ellipse">
<use xlink:href="#path2_fill" transform="translate(-142 -177)" fill="#F0ADFF"/>
</g>
<g id="Group">
<g id="Group">
<g id="Union">
<mask id="mask1_outline_ins">
<use xlink:href="#path3_fill" fill="white" transform="matrix(0.973241 -0.229787 -0.233525 -0.972351 -139.046 -58.9854)"/>
</mask>
<g mask="url(#mask1_outline_ins)">
<use xlink:href="#path4_stroke_2x" transform="matrix(0.973241 -0.229787 -0.233525 -0.972351 -139.046 -58.9854)" fill="#1C1C1C"/>
</g>
</g>
<g id="Ellipse 2">
<mask id="mask2_outline_ins">
<use xlink:href="#path5_fill" fill="white" transform="matrix(0.973241 -0.229787 0.233525 0.972351 -154.818 -138.658)"/>
</mask>
<g mask="url(#mask2_outline_ins)">
<use xlink:href="#path6_stroke_2x" transform="matrix(0.973241 -0.229787 0.233525 0.972351 -154.818 -138.658)" fill="#1C1C1C"/>
</g>
</g>
</g>
<g id="Group">
<g id="Union">
<mask id="mask3_outline_ins">
<use xlink:href="#path7_fill" fill="white" transform="matrix(0.973258 0.229716 0.233453 -0.972368 -57.473 -67.843)"/>
</mask>
<g mask="url(#mask3_outline_ins)">
<use xlink:href="#path8_stroke_2x" transform="matrix(0.973258 0.229716 0.233453 -0.972368 -57.473 -67.843)" fill="#1C1C1C"/>
</g>
</g>
<g id="Ellipse 2">
<mask id="mask4_outline_ins">
<use xlink:href="#path9_fill" fill="white" transform="matrix(0.973258 0.229716 -0.233453 0.972368 -35.3428 -146.014)"/>
</mask>
<g mask="url(#mask4_outline_ins)">
<use xlink:href="#path10_stroke_2x" transform="matrix(0.973258 0.229716 -0.233453 0.972368 -35.3428 -146.014)" fill="#1C1C1C"/>
</g>
</g>
</g>
<g id="Group">
<g id="Union">
<use xlink:href="#path11_fill" transform="matrix(0.985555 -0.169358 -0.172186 -0.985065 -122.962 -56.1932)" fill="#1C1C1C"/>
<mask id="mask5_outline_ins">
<use xlink:href="#path11_fill" fill="white" transform="matrix(0.985555 -0.169358 -0.172186 -0.985065 -122.962 -56.1932)"/>
</mask>
<g mask="url(#mask5_outline_ins)">
<use xlink:href="#path12_stroke_2x" transform="matrix(0.985555 -0.169358 -0.172186 -0.985065 -122.962 -56.1932)" fill="#1C1C1C"/>
</g>
</g>
<g id="Ellipse 2">
<use xlink:href="#path13_fill" transform="matrix(0.985555 -0.169358 0.172186 0.985065 -136.118 -154.258)" fill="#1C1C1C"/>
<mask id="mask6_outline_ins">
<use xlink:href="#path13_fill" fill="white" transform="matrix(0.985555 -0.169358 0.172186 0.985065 -136.118 -154.258)"/>
</mask>
<g mask="url(#mask6_outline_ins)">
<use xlink:href="#path14_stroke_2x" transform="matrix(0.985555 -0.169358 0.172186 0.985065 -136.118 -154.258)" fill="#1C1C1C"/>
</g>
</g>
</g>
<g id="Group">
<g id="Union">
<use xlink:href="#path15_fill" transform="matrix(0.985561 0.169318 0.172144 -0.985072 -82.0167 -64.033)" fill="#1C1C1C"/>
<mask id="mask7_outline_ins">
<use xlink:href="#path15_fill" fill="white" transform="matrix(0.985561 0.169318 0.172144 -0.985072 -82.0167 -64.033)"/>
</mask>
<g mask="url(#mask7_outline_ins)">
<use xlink:href="#path16_stroke_2x" transform="matrix(0.985561 0.169318 0.172144 -0.985072 -82.0167 -64.033)" fill="#1C1C1C"/>
</g>
</g>
<g id="Ellipse 2">
<use xlink:href="#path17_fill" transform="matrix(0.985561 0.169318 -0.172144 0.985072 -61.1264 -160.769)" fill="#1C1C1C"/>
<mask id="mask8_outline_ins">
<use xlink:href="#path17_fill" fill="white" transform="matrix(0.985561 0.169318 -0.172144 0.985072 -61.1264 -160.769)"/>
</mask>
<g mask="url(#mask8_outline_ins)">
<use xlink:href="#path18_stroke_2x" transform="matrix(0.985561 0.169318 -0.172144 0.985072 -61.1264 -160.769)" fill="#1C1C1C"/>
</g>
</g>
</g>
<g id="Rectangle 2">
<use xlink:href="#path19_fill" transform="matrix(1 0 0 -1 -109.954 -48)" fill="#F0ADFF"/>
</g>
<g id="Rectangle 2">
<mask id="mask9_outline_ins">
<use xlink:href="#path20_fill" fill="white" transform="matrix(1 0 0 -1 -111.274 -47)"/>
</mask>
<g mask="url(#mask9_outline_ins)">
<use xlink:href="#path21_stroke_2x" transform="matrix(1 0 0 -1 -111.274 -47)" fill="#1C1C1C"/>
</g>
</g>
<g id="Ellipse 2">
<use xlink:href="#path22_fill" transform="translate(-104.5 -181)" fill="#F0ADFF"/>
</g>
<g id="Ellipse 2">
<mask id="mask10_outline_ins">
<use xlink:href="#path23_fill" fill="white" transform="translate(-106.044 -181)"/>
</mask>
<g mask="url(#mask10_outline_ins)">
<use xlink:href="#path24_stroke_2x" transform="translate(-106.044 -181)" fill="#1C1C1C"/>
</g>
</g>
</g>
</g>
</g>
<defs>
<path id="path0_fill" d="M 0 0L 160 0L 160 160L 0 160L 0 0Z"/>
<path id="path1_stroke_2x" d="M 0 0L 0 -1L -1 -1L -1 0L 0 0ZM 160 0L 161 0L 161 -1L 160 -1L 160 0ZM 160 160L 160 161L 161 161L 161 160L 160 160ZM 0 160L -1 160L -1 161L 0 161L 0 160ZM 0 1L 160 1L 160 -1L 0 -1L 0 1ZM 159 0L 159 160L 161 160L 161 0L 159 0ZM 160 159L 0 159L 0 161L 160 161L 160 159ZM 1 160L 1 0L -1 0L -1 160L 1 160Z"/>
<path id="path2_fill" d="M 125 62.5C 125 97.0178 97.0178 125 62.5 125C 27.9822 125 0 97.0178 0 62.5C 0 27.9822 27.9822 0 62.5 0C 97.0178 0 125 27.9822 125 62.5Z"/>
<path id="path3_fill" d="M 3.2694 12.6424C 6.50025 4.27881 9.81485 1.31041 19.2072 0C 27.6382 0.766484 31.2801 3.2994 35.2864 12.6424C 35.2864 12.6424 42.6426 32.0014 35.2864 39.9931C 26.9908 49.0054 11.565 49.0054 3.2694 39.9931C -4.08675 32.0014 3.2694 12.6424 3.2694 12.6424Z"/>
<path id="path4_stroke_2x" d="M 3.2694 12.6424L 0.470947 11.5613L 0.46797 11.569L 0.465036 11.5768L 3.2694 12.6424ZM 35.2864 12.6424L 38.0908 11.5768L 38.0684 11.5179L 38.0436 11.4601L 35.2864 12.6424ZM 35.2864 39.9931L 33.0792 37.9613L 33.0792 37.9613L 35.2864 39.9931ZM 3.2694 39.9931L 5.47667 37.9613L 5.47667 37.9613L 3.2694 39.9931ZM 19.2072 0L 19.4788 -2.98768L 19.1348 -3.01895L 18.7927 -2.97122L 19.2072 0ZM 35.2864 12.6424C 32.4821 13.708 32.4818 13.7074 32.4816 13.7069C 32.4816 13.7069 32.4815 13.7064 32.4814 13.7063C 32.4813 13.7061 32.4813 13.706 32.4814 13.7063C 32.482 13.7078 32.4823 13.7087 32.4834 13.7116C 32.4863 13.7192 32.4895 13.7278 32.495 13.7426C 32.5073 13.7758 32.5234 13.8194 32.5467 13.8837C 32.5959 14.0196 32.6626 14.2068 32.7502 14.4625C 32.9308 14.9892 33.1699 15.7164 33.4445 16.6443C 34.0046 18.5333 34.6477 21.0107 35.0815 23.7876C 35.5243 26.5824 35.7354 29.3427 35.4102 31.9984C 35.1071 34.5817 34.3354 36.5966 33.0792 37.9613L 37.4937 42.0248C 39.9155 39.3938 40.9828 35.9919 41.3694 32.6977C 41.7339 29.4759 41.4852 25.898 41.0084 22.8542C 40.5227 19.7923 39.7866 16.9305 39.1973 14.9399C 38.8971 13.928 38.619 13.0804 38.4261 12.5171C 38.3269 12.2279 38.2427 11.9914 38.1878 11.8397C 38.159 11.7603 38.1347 11.6942 38.1196 11.6537C 38.1114 11.6317 38.1042 11.6124 38.1 11.6012C 38.0976 11.5948 38.0953 11.5887 38.0941 11.5855C 38.0933 11.5834 38.0925 11.5812 38.0921 11.5802C 38.0918 11.5795 38.0915 11.5786 38.0914 11.5783C 38.0911 11.5775 38.0908 11.5768 35.2864 12.6424ZM 33.0792 37.9613C 25.9719 45.6826 12.584 45.6826 5.47667 37.9613L 1.06213 42.0248C 10.5461 52.3281 28.0097 52.3281 37.4937 42.0248L 33.0792 37.9613ZM 5.47667 37.9613C 4.22044 36.5966 3.4487 34.5817 3.14558 31.9984C 2.82047 29.3427 3.03151 26.5824 3.47432 23.7876C 3.90809 21.0107 4.55122 18.5333 5.11136 16.6443C 5.38591 15.7164 5.62504 14.9892 5.80563 14.4625C 5.8932 14.2068 5.9599 14.0196 6.00914 13.8837C 6.03243 13.8194 6.04851 13.7758 6.06084 13.7426C 6.06635 13.7278 6.06956 13.7192 6.0724 13.7116C 6.0735 13.7087 6.07383 13.7078 6.07439 13.7063C 6.07451 13.706 6.07447 13.7061 6.07441 13.7063C 6.07436 13.7064 6.0742 13.7069 6.07417 13.7069C 6.07398 13.7074 6.07377 13.708 3.2694 12.6424C 0.465036 11.5768 0.464763 11.5775 0.464463 11.5783C 0.464325 11.5786 0.463997 11.5795 0.463722 11.5802C 0.463335 11.5812 0.462509 11.5834 0.461738 11.5855C 0.460521 11.5887 0.458205 11.5948 0.455791 11.6012C 0.451618 11.6124 0.444391 11.6317 0.436205 11.6537C 0.421152 11.6942 0.396819 11.7603 0.368024 11.8397C 0.313101 11.9914 0.228942 12.2279 0.129741 12.5171C -0.063232 13.0804 -0.341331 13.928 -0.641473 14.9399C -1.23074 16.9305 -1.96688 19.7923 -2.45263 22.8542C -2.92934 25.898 -3.17806 29.4759 -2.81353 32.6977C -2.42701 35.9919 -1.35971 39.3938 1.06213 42.0248L 5.47667 37.9613ZM 6.06785 13.7234C 7.62268 9.69852 9.02528 7.45945 10.8172 6.00648C 12.6003 4.56067 15.138 3.59679 19.6217 2.97122L 18.7927 -2.97122C 13.8841 -2.28638 10.0683 -1.11086 7.03828 1.34603C 4.0171 3.79574 2.14698 7.22266 0.470947 11.5613L 6.06785 13.7234ZM 18.9356 2.98768C 22.9279 3.35063 25.2742 4.09566 27.0765 5.48257C 28.9264 6.90604 30.5895 9.30105 32.5292 13.8247L 38.0436 11.4601C 35.977 6.64071 33.816 3.09778 30.7356 0.727432C 27.6077 -1.67948 23.9175 -2.58414 19.4788 -2.98768L 18.9356 2.98768Z"/>
<path id="path5_fill" d="M 32.017 15.439C 32.017 23.9657 24.8498 30.8779 16.0085 30.8779C 7.16725 30.8779 0 23.9657 0 15.439C 0 6.91226 7.16725 0 16.0085 0C 24.8498 0 32.017 6.91226 32.017 15.439Z"/>
<path id="path6_stroke_2x" d="M 29.017 15.439C 29.017 22.2073 23.2963 27.8779 16.0085 27.8779L 16.0085 33.8779C 26.4033 33.8779 35.017 25.724 35.017 15.439L 29.017 15.439ZM 16.0085 27.8779C 8.72075 27.8779 3 22.2073 3 15.439L -3 15.439C -3 25.724 5.61376 33.8779 16.0085 33.8779L 16.0085 27.8779ZM 3 15.439C 3 8.67062 8.72075 3 16.0085 3L 16.0085 -3C 5.61376 -3 -3 5.1539 -3 15.439L 3 15.439ZM 16.0085 3C 23.2963 3 29.017 8.67062 29.017 15.439L 35.017 15.439C 35.017 5.1539 26.4033 -3 16.0085 -3L 16.0085 3Z"/>
<path id="path7_fill" d="M 3.2694 12.6424C 6.50025 4.27881 9.81485 1.31041 19.2072 0C 27.6382 0.766484 31.2801 3.29939 35.2864 12.6424C 35.2864 12.6424 42.6426 32.0014 35.2864 39.9931C 26.9908 49.0054 11.565 49.0054 3.2694 39.9931C -4.08675 32.0014 3.2694 12.6424 3.2694 12.6424Z"/>
<path id="path8_stroke_2x" d="M 3.2694 12.6424L 0.470948 11.5613L 0.467971 11.569L 0.465036 11.5767L 3.2694 12.6424ZM 35.2864 12.6424L 38.0908 11.5767L 38.0684 11.5179L 38.0436 11.4601L 35.2864 12.6424ZM 35.2864 39.9931L 33.0792 37.9613L 35.2864 39.9931ZM 3.2694 39.9931L 5.47667 37.9613L 3.2694 39.9931ZM 19.2072 0L 19.4788 -2.98768L 19.1348 -3.01895L 18.7927 -2.97122L 19.2072 0ZM 35.2864 12.6424C 32.4821 13.708 32.4818 13.7074 32.4817 13.7069C 32.4816 13.7068 32.4815 13.7064 32.4814 13.7063C 32.4814 13.7061 32.4813 13.706 32.4814 13.7063C 32.482 13.7078 32.4823 13.7087 32.4834 13.7116C 32.4863 13.7192 32.4895 13.7278 32.495 13.7426C 32.5073 13.7758 32.5234 13.8194 32.5467 13.8837C 32.5959 14.0196 32.6626 14.2068 32.7502 14.4625C 32.9308 14.9892 33.1699 15.7164 33.4445 16.6443C 34.0046 18.5333 34.6477 21.0107 35.0815 23.7876C 35.5243 26.5824 35.7354 29.3427 35.4102 31.9984C 35.1071 34.5817 34.3354 36.5966 33.0792 37.9613L 37.4937 42.0248C 39.9155 39.3937 40.9828 35.9918 41.3694 32.6977C 41.7339 29.4759 41.4852 25.898 41.0085 22.8541C 40.5227 19.7922 39.7866 16.9305 39.1973 14.9399C 38.8972 13.928 38.6191 13.0804 38.4261 12.5171C 38.3269 12.2279 38.2427 11.9914 38.1878 11.8397C 38.159 11.7603 38.1347 11.6942 38.1196 11.6537C 38.1114 11.6317 38.1042 11.6123 38.1 11.6012C 38.0976 11.5948 38.0953 11.5887 38.0941 11.5855C 38.0933 11.5834 38.0925 11.5812 38.0921 11.5802C 38.0918 11.5795 38.0915 11.5786 38.0914 11.5783C 38.0911 11.5775 38.0908 11.5767 35.2864 12.6424ZM 33.0792 37.9613C 25.9719 45.6826 12.584 45.6826 5.47667 37.9613L 1.06214 42.0248C 10.5461 52.3281 28.0097 52.3281 37.4937 42.0248L 33.0792 37.9613ZM 5.47667 37.9613C 4.22044 36.5966 3.4487 34.5817 3.14558 31.9984C 2.82047 29.3427 3.03151 26.5824 3.47432 23.7876C 3.90809 21.0107 4.55122 18.5333 5.11136 16.6443C 5.38591 15.7164 5.62504 14.9892 5.80563 14.4625C 5.8932 14.2068 5.9599 14.0196 6.00914 13.8837C 6.03243 13.8194 6.04851 13.7758 6.06084 13.7426C 6.06635 13.7278 6.06956 13.7192 6.0724 13.7116C 6.0735 13.7087 6.07383 13.7078 6.07439 13.7063C 6.07451 13.706 6.07447 13.7061 6.07441 13.7063C 6.07436 13.7064 6.0742 13.7068 6.07417 13.7069C 6.07398 13.7074 6.07377 13.708 3.2694 12.6424C 0.465036 11.5767 0.464764 11.5775 0.464464 11.5783C 0.464326 11.5786 0.463997 11.5795 0.463722 11.5802C 0.463336 11.5812 0.46251 11.5834 0.461739 11.5855C 0.460522 11.5887 0.458206 11.5948 0.455792 11.6012C 0.451619 11.6123 0.444392 11.6317 0.436206 11.6537C 0.421152 11.6942 0.396819 11.7603 0.368025 11.8397C 0.313102 11.9914 0.228942 12.2279 0.129742 12.5171C -0.0632313 13.0804 -0.341331 13.928 -0.641473 14.9399C -1.23074 16.9305 -1.96688 19.7922 -2.45263 22.8541C -2.92934 25.898 -3.17806 29.4759 -2.81353 32.6977C -2.42701 35.9918 -1.35971 39.3937 1.06214 42.0248L 5.47667 37.9613ZM 6.06785 13.7234C 7.62268 9.69851 9.02528 7.45945 10.8172 6.00648C 12.6003 4.56067 15.138 3.59679 19.6217 2.97122L 18.7927 -2.97122C 13.8841 -2.28638 10.0683 -1.11086 7.03828 1.34603C 4.0171 3.79574 2.14698 7.22266 0.470948 11.5613L 6.06785 13.7234ZM 18.9356 2.98768C 22.9279 3.35063 25.2742 4.09566 27.0765 5.48257C 28.9264 6.90604 30.5895 9.30105 32.5292 13.8247L 38.0436 11.4601C 35.977 6.64071 33.816 3.09778 30.7356 0.727431C 27.6077 -1.67948 23.9175 -2.58414 19.4788 -2.98768L 18.9356 2.98768Z"/>
<path id="path9_fill" d="M 32.017 15.439C 32.017 23.9657 24.8498 30.8779 16.0085 30.8779C 7.16725 30.8779 0 23.9657 0 15.439C 0 6.91226 7.16725 0 16.0085 0C 24.8498 0 32.017 6.91226 32.017 15.439Z"/>
<path id="path10_stroke_2x" d="M 29.017 15.439C 29.017 22.2073 23.2963 27.8779 16.0085 27.8779L 16.0085 33.8779C 26.4033 33.8779 35.017 25.724 35.017 15.439L 29.017 15.439ZM 16.0085 27.8779C 8.72075 27.8779 3 22.2073 3 15.439L -3 15.439C -3 25.724 5.61376 33.8779 16.0085 33.8779L 16.0085 27.8779ZM 3 15.439C 3 8.67062 8.72075 3 16.0085 3L 16.0085 -3C 5.61376 -3 -3 5.15389 -3 15.439L 3 15.439ZM 16.0085 3C 23.2963 3 29.017 8.67062 29.017 15.439L 35.017 15.439C 35.017 5.15389 26.4033 -3 16.0085 -3L 16.0085 3Z"/>
<path id="path11_fill" d="M 3.92597 15.4011C 7.80565 5.21251 11.7859 1.59636 23.0644 0C 33.1886 0.933744 37.5618 4.01938 42.3727 15.4011C 42.3727 15.4011 51.2062 38.9847 42.3727 48.7202C 32.4111 59.6992 13.8876 59.6992 3.92597 48.7202C -4.90746 38.9847 3.92597 15.4011 3.92597 15.4011Z"/>
<path id="path12_stroke_2x" d="M 3.92597 15.4011L 1.12235 14.3336L 1.11944 14.3412L 1.11658 14.3489L 3.92597 15.4011ZM 42.3727 15.4011L 45.1821 14.3489L 45.1603 14.2905L 45.136 14.2331L 42.3727 15.4011ZM 42.3727 48.7202L 40.151 46.7043L 42.3727 48.7202ZM 3.92597 48.7202L 6.14773 46.7043L 6.14773 46.7043L 3.92597 48.7202ZM 23.0644 0L 23.34 -2.98732L 22.991 -3.01951L 22.644 -2.97039L 23.0644 0ZM 42.3727 15.4011C 39.5633 16.4534 39.5631 16.4529 39.563 16.4524C 39.563 16.4524 39.5628 16.452 39.5628 16.4519C 39.5627 16.4517 39.5628 16.452 39.563 16.4526C 39.5638 16.4546 39.5644 16.4563 39.5659 16.4602C 39.5694 16.4698 39.5737 16.4815 39.5806 16.5004C 39.5958 16.5417 39.616 16.5974 39.6446 16.6774C 39.7043 16.8447 39.7864 17.0784 39.8929 17.3937C 40.1111 18.0395 40.4026 18.9392 40.7352 20.0792C 41.4111 22.392 42.194 25.4544 42.7208 28.8701C 43.2564 32.3036 43.5141 35.7613 43.1192 39.0622C 42.7454 42.2944 41.7842 44.9044 40.151 46.7043L 44.5945 50.7361C 47.378 47.6683 48.6252 43.6795 49.0795 39.7516C 49.5127 35.8926 49.2183 31.6289 48.6498 27.9496C 48.0724 24.2525 47.199 20.8105 46.4947 18.3972C 46.1371 17.1741 45.8076 16.1553 45.5772 15.4733C 45.4594 15.1247 45.3603 14.8422 45.295 14.6593C 45.261 14.5643 45.2327 14.4863 45.215 14.4378C 45.2054 14.4118 45.1972 14.3894 45.1924 14.3763C 45.1896 14.3689 45.187 14.362 45.1857 14.3583C 45.1848 14.356 45.1839 14.3536 45.1835 14.3525C 45.1832 14.3517 45.1829 14.3508 45.1827 14.3504C 45.1824 14.3496 45.1821 14.3489 42.3727 15.4011ZM 40.151 46.7043C 31.38 56.3711 14.9188 56.3711 6.14773 46.7043L 1.70421 50.7361C 12.8564 63.0272 33.4423 63.0272 44.5945 50.7361L 40.151 46.7043ZM 6.14773 46.7043C 4.51452 44.9044 3.55333 42.2944 3.1795 39.0622C 2.78458 35.7613 3.04231 32.3036 3.57793 28.8701C 4.10472 25.4544 4.88756 22.392 5.56348 20.0792C 5.89606 18.9392 6.1876 18.0395 6.40584 17.3937C 6.51231 17.0784 6.59437 16.8447 6.65413 16.6774C 6.68272 16.5974 6.70295 16.5417 6.71806 16.5004C 6.72498 16.4815 6.72928 16.4698 6.73285 16.4602C 6.73431 16.4563 6.73493 16.4546 6.73568 16.4526C 6.73589 16.452 6.73603 16.4517 6.73592 16.4519C 6.73589 16.452 6.73575 16.4524 6.73574 16.4524C 6.73557 16.4529 6.73537 16.4534 3.92597 15.4011C 1.11658 14.3489 1.1163 14.3496 1.116 14.3504C 1.11585 14.3508 1.11551 14.3517 1.11522 14.3525C 1.11479 14.3536 1.11391 14.356 1.11306 14.3583C 1.11167 14.362 1.10911 14.3689 1.10636 14.3763C 1.1015 14.3894 1.09327 14.4118 1.08374 14.4378C 1.06597 14.4863 1.03767 14.5643 1.00371 14.6593C 0.938398 14.8422 0.839298 15.1247 0.721481 15.4733C 0.491149 16.1553 0.16159 17.1741 -0.195941 18.3972C -0.900249 20.8105 -1.77367 24.2525 -2.35106 27.9496C -2.91963 31.6289 -3.21398 35.8926 -2.78077 39.7516C -2.32647 43.6795 -1.0793 47.6683 1.70421 50.7361L 6.14773 46.7043ZM 6.72959 16.4687C 8.61134 11.527 10.3469 8.67051 12.6265 6.79533C 14.8921 4.93166 18.0633 3.73776 23.4849 2.97039L 22.644 -2.97039C 16.7871 -2.1414 12.3289 -0.729044 8.8148 2.16162C 5.31473 5.04075 3.12028 9.08669 1.12235 14.3336L 6.72959 16.4687ZM 22.7889 2.98732C 27.6222 3.43309 30.5692 4.35513 32.865 6.14734C 35.2136 7.98076 37.2648 11.0221 39.6094 16.5691L 45.136 14.2331C 42.6698 8.39841 40.1289 4.20606 36.5571 1.41779C 32.9325 -1.4117 28.6308 -2.49935 23.34 -2.98732L 22.7889 2.98732Z"/>
<path id="path13_fill" d="M 38.4468 18.808C 38.4468 29.1954 29.8402 37.616 19.2234 37.616C 8.6066 37.616 0 29.1954 0 18.808C 0 8.42063 8.6066 0 19.2234 0C 29.8402 0 38.4468 8.42063 38.4468 18.808Z"/>
<path id="path14_stroke_2x" d="M 35.4468 18.808C 35.4468 27.4771 28.2454 34.616 19.2234 34.616L 19.2234 40.616C 31.4349 40.616 41.4468 30.9137 41.4468 18.808L 35.4468 18.808ZM 19.2234 34.616C 10.2013 34.616 3 27.4771 3 18.808L -3 18.808C -3 30.9137 7.01186 40.616 19.2234 40.616L 19.2234 34.616ZM 3 18.808C 3 10.1389 10.2013 3 19.2234 3L 19.2234 -3C 7.01186 -3 -3 6.70233 -3 18.808L 3 18.808ZM 19.2234 3C 28.2454 3 35.4468 10.1389 35.4468 18.808L 41.4468 18.808C 41.4468 6.70233 31.4349 -3 19.2234 -3L 19.2234 3Z"/>
<path id="path15_fill" d="M 3.92597 15.4011C 7.80566 5.21251 11.7859 1.59636 23.0644 0C 33.1886 0.933744 37.5618 4.01938 42.3727 15.4011C 42.3727 15.4011 51.2062 38.9847 42.3727 48.7202C 32.4112 59.6992 13.8876 59.6992 3.92597 48.7202C -4.90746 38.9847 3.92597 15.4011 3.92597 15.4011Z"/>
<path id="path16_stroke_2x" d="M 3.92597 15.4011L 1.12235 14.3336L 1.11944 14.3412L 1.11658 14.3489L 3.92597 15.4011ZM 42.3727 15.4011L 45.1821 14.3489L 45.1603 14.2905L 45.136 14.2331L 42.3727 15.4011ZM 42.3727 48.7202L 40.151 46.7043L 42.3727 48.7202ZM 3.92597 48.7202L 6.14773 46.7043L 6.14773 46.7043L 3.92597 48.7202ZM 23.0644 0L 23.34 -2.98732L 22.991 -3.01951L 22.644 -2.97039L 23.0644 0ZM 42.3727 15.4011C 39.5634 16.4534 39.5631 16.4529 39.563 16.4524C 39.563 16.4524 39.5628 16.452 39.5628 16.4519C 39.5627 16.4517 39.5628 16.452 39.563 16.4526C 39.5638 16.4546 39.5644 16.4563 39.5659 16.4602C 39.5694 16.4698 39.5737 16.4815 39.5807 16.5004C 39.5958 16.5417 39.616 16.5974 39.6446 16.6774C 39.7044 16.8447 39.7864 17.0784 39.8929 17.3937C 40.1111 18.0395 40.4027 18.9392 40.7352 20.0792C 41.4112 22.392 42.194 25.4544 42.7208 28.87C 43.2564 32.3036 43.5141 35.7613 43.1192 39.0622C 42.7454 42.2944 41.7842 44.9043 40.151 46.7043L 44.5945 50.7361C 47.378 47.6683 48.6252 43.6795 49.0795 39.7516C 49.5127 35.8926 49.2183 31.6289 48.6498 27.9496C 48.0724 24.2525 47.199 20.8105 46.4947 18.3972C 46.1371 17.1741 45.8076 16.1553 45.5772 15.4733C 45.4594 15.1247 45.3603 14.8422 45.295 14.6593C 45.261 14.5643 45.2328 14.4863 45.215 14.4378C 45.2055 14.4118 45.1972 14.3894 45.1924 14.3763C 45.1896 14.3689 45.187 14.362 45.1857 14.3583C 45.1848 14.356 45.1839 14.3536 45.1835 14.3525C 45.1832 14.3517 45.1829 14.3508 45.1827 14.3504C 45.1824 14.3496 45.1821 14.3489 42.3727 15.4011ZM 40.151 46.7043C 31.38 56.3711 14.9188 56.3711 6.14773 46.7043L 1.70421 50.7361C 12.8564 63.0272 33.4423 63.0272 44.5945 50.7361L 40.151 46.7043ZM 6.14773 46.7043C 4.51452 44.9043 3.55333 42.2944 3.1795 39.0622C 2.78458 35.7613 3.04231 32.3036 3.57793 28.87C 4.10472 25.4544 4.88756 22.392 5.56348 20.0792C 5.89606 18.9392 6.1876 18.0395 6.40584 17.3937C 6.51231 17.0784 6.59437 16.8447 6.65414 16.6774C 6.68272 16.5974 6.70295 16.5417 6.71806 16.5004C 6.72498 16.4815 6.72928 16.4698 6.73285 16.4602C 6.73431 16.4563 6.73493 16.4546 6.73568 16.4526C 6.73589 16.452 6.73603 16.4517 6.73592 16.4519C 6.73589 16.452 6.73575 16.4524 6.73574 16.4524C 6.73557 16.4529 6.73537 16.4534 3.92597 15.4011C 1.11658 14.3489 1.11631 14.3496 1.116 14.3504C 1.11585 14.3508 1.11551 14.3517 1.11522 14.3525C 1.11479 14.3536 1.11391 14.356 1.11306 14.3583C 1.11167 14.362 1.10911 14.3689 1.10636 14.3763C 1.1015 14.3894 1.09327 14.4118 1.08374 14.4378C 1.06597 14.4863 1.03767 14.5643 1.00371 14.6593C 0.938399 14.8422 0.839299 15.1247 0.721482 15.4733C 0.49115 16.1553 0.161591 17.1741 -0.195941 18.3972C -0.900248 20.8105 -1.77367 24.2525 -2.35106 27.9496C -2.91963 31.6289 -3.21398 35.8926 -2.78077 39.7516C -2.32647 43.6795 -1.0793 47.6683 1.70421 50.7361L 6.14773 46.7043ZM 6.72959 16.4687C 8.61134 11.527 10.3469 8.67051 12.6265 6.79533C 14.8921 4.93166 18.0633 3.73776 23.4849 2.97039L 22.644 -2.97039C 16.7871 -2.1414 12.3289 -0.729045 8.81481 2.16161C 5.31473 5.04075 3.12029 9.08669 1.12235 14.3336L 6.72959 16.4687ZM 22.7889 2.98732C 27.6222 3.43309 30.5692 4.35513 32.865 6.14734C 35.2136 7.98076 37.2648 11.0221 39.6095 16.5691L 45.136 14.2331C 42.6698 8.3984 40.1289 4.20606 36.5571 1.41779C 32.9325 -1.4117 28.6308 -2.49935 23.34 -2.98732L 22.7889 2.98732Z"/>
<path id="path17_fill" d="M 38.4468 18.808C 38.4468 29.1954 29.8402 37.616 19.2234 37.616C 8.6066 37.616 0 29.1954 0 18.808C 0 8.42063 8.6066 0 19.2234 0C 29.8402 0 38.4468 8.42063 38.4468 18.808Z"/>
<path id="path18_stroke_2x" d="M 35.4468 18.808C 35.4468 27.4771 28.2454 34.616 19.2234 34.616L 19.2234 40.616C 31.4349 40.616 41.4468 30.9137 41.4468 18.808L 35.4468 18.808ZM 19.2234 34.616C 10.2013 34.616 3 27.4771 3 18.808L -3 18.808C -3 30.9137 7.01187 40.616 19.2234 40.616L 19.2234 34.616ZM 3 18.808C 3 10.1389 10.2013 3 19.2234 3L 19.2234 -3C 7.01187 -3 -3 6.70233 -3 18.808L 3 18.808ZM 19.2234 3C 28.2454 3 35.4468 10.1389 35.4468 18.808L 41.4468 18.808C 41.4468 6.70233 31.4349 -3 19.2234 -3L 19.2234 3Z"/>
<path id="path19_fill" fill-rule="evenodd" d="M 53.6265 64.7518C 65.3943 51.5579 53.1265 20.6239 53.1265 20.6239C 51.5173 16.7511 51.1196 13.5871 49.4535 11C 49.0075 10.3074 49.0547 9.6562 48.5928 9.0438L 11.6265 9.0438C 11.1471 9.65801 10.6871 10.3092 10.2426 11C 8.56802 13.6021 6.07083 16.7652 4.62648 20.6239C 4.62648 20.6239 -6.31429 51.3061 5.4535 64.5C 20.9535 79 40.4535 77 53.6265 64.7518Z"/>
<path id="path20_fill" d="M 56.4484 66.0269C 68.2162 52.833 56.4484 20.872 56.4484 20.872C 54.8393 16.9993 53.2669 13.8352 51.6008 11.2482C 46.631 3.53117 40.8271 0.947718 30.7262 0C 21.0145 1.39836 15.3648 3.94031 11.1878 9.29197C 10.7084 9.90619 10.2483 10.5574 9.80382 11.2482C 8.12929 13.8503 6.67448 17.0134 5.23013 20.872C 5.23013 20.872 -6.53766 52.833 5.23013 66.0269C 18.5008 80.9059 43.1777 80.9059 56.4484 66.0269Z"/>
<path id="path21_stroke_2x" d="M 56.4484 20.872L 59.2637 19.8355L 59.2424 19.7777L 59.2188 19.7209L 56.4484 20.872ZM 56.4484 66.0269L 54.2096 64.0301L 56.4484 66.0269ZM 5.23013 66.0269L 7.46899 64.0301L 7.46899 64.0301L 5.23013 66.0269ZM 5.23013 20.872L 2.42051 19.8204L 2.41768 19.8279L 2.41489 19.8355L 5.23013 20.872ZM 9.80382 11.2482L 7.28106 9.6247L 7.28106 9.6247L 9.80382 11.2482ZM 30.7262 0L 31.0064 -2.98688L 30.6515 -3.02018L 30.2986 -2.96938L 30.7262 0ZM 51.6008 11.2482L 54.123 9.62384L 54.123 9.62384L 51.6008 11.2482ZM 11.1878 9.29197L 8.82284 7.44612L 8.82284 7.44612L 11.1878 9.29197ZM 56.4484 20.872C 53.6332 21.9086 53.633 21.9081 53.6329 21.9077C 53.6329 21.9077 53.6328 21.9074 53.6328 21.9075C 53.633 21.9081 53.6331 21.9082 53.6335 21.9093C 53.6346 21.9124 53.6358 21.9156 53.6379 21.9216C 53.6429 21.9352 53.6494 21.953 53.6591 21.9799C 53.6797 22.0372 53.7081 22.1167 53.7471 22.228C 53.8277 22.4576 53.9401 22.7832 54.084 23.2166C 54.3769 24.0985 54.7722 25.3397 55.2198 26.8999C 56.1254 30.0528 57.1847 34.2732 57.8957 38.9543C 58.6152 43.6532 58.9653 48.489 58.4322 53.0664C 57.9191 57.5792 56.5856 61.3661 54.2096 64.0301L 58.6873 68.0238C 62.1952 64.0908 63.8036 58.9349 64.3938 53.7442C 64.9639 48.6181 64.5785 42.9898 63.827 38.0492C 63.0671 33.0909 61.9199 28.4963 60.9868 25.2443C 60.515 23.602 60.0829 22.2432 59.7782 21.3256C 59.6233 20.8593 59.4944 20.4854 59.4083 20.2404C 59.3641 20.1143 59.3278 20.0128 59.3046 19.9483C 59.2924 19.9143 59.2822 19.8861 59.2759 19.8689C 59.2725 19.8595 59.2694 19.8511 59.2677 19.8464C 59.2667 19.8436 59.2657 19.8409 59.2651 19.8395C 59.2648 19.8386 59.2645 19.8376 59.2643 19.8371C 59.264 19.8362 59.2637 19.8355 56.4484 20.872ZM 54.2096 64.0301C 42.1318 77.5715 19.5468 77.5715 7.46899 64.0301L 2.99127 68.0238C 17.4549 84.2402 44.2237 84.2402 58.6873 68.0238L 54.2096 64.0301ZM 7.46899 64.0301C 5.09298 61.3661 3.75946 57.5792 3.24639 53.0664C 2.71328 48.489 3.06332 43.6532 3.78288 38.9543C 4.49387 34.2732 5.55323 30.0528 6.45882 26.8999C 6.90639 25.3397 7.30165 24.0985 7.59457 23.2166C 7.73845 22.7832 7.85084 22.4576 7.93146 22.228C 7.9705 22.1167 7.99891 22.0372 8.01952 21.9799C 8.0292 21.953 8.03565 21.9352 8.04063 21.9216C 8.04281 21.9156 8.04399 21.9124 8.04509 21.9093C 8.04549 21.9082 8.04556 21.9081 8.04576 21.9075C 8.04578 21.9074 8.04569 21.9077 8.0457 21.9077C 8.04556 21.9081 8.04537 21.9086 5.23013 20.872C 2.41489 19.8355 2.41462 19.8362 2.41429 19.8371C 2.41413 19.8376 2.41376 19.8386 2.41343 19.8395C 2.41291 19.8409 2.41191 19.8436 2.41089 19.8464C 2.40916 19.8511 2.4061 19.8595 2.40267 19.8689C 2.39642 19.8861 2.38617 19.9143 2.37394 19.9483C 2.35074 20.0128 2.3145 20.1143 2.27023 20.2404C 2.18422 20.4854 2.05527 20.8593 1.90037 21.3256C 1.5957 22.2432 1.16354 23.602 0.691752 25.2443C -0.241373 28.4963 -1.38848 33.0909 -2.14846 38.0492C -2.89988 42.9898 -3.28533 48.6181 -2.7152 53.7442C -2.12505 58.9349 -0.516612 64.0908 2.99127 68.0238L 7.46899 64.0301ZM 8.03975 21.9237C 9.4439 18.1667 10.7599 15.2924 12.3266 12.8716L 7.28106 9.6247C 5.49863 12.4082 3.90506 15.86 2.42051 19.8204L 8.03975 21.9237ZM 30.4459 2.98688C 35.3105 3.43742 38.7287 4.17642 41.7068 5.74893C 44.6778 7.2551 46.8022 9.29929 49.0786 12.8725L 54.123 9.62384C 51.4296 5.48005 48.1671 2.37401 44.4685 0.422271C 40.777 -1.46312 36.2428 -2.4897 31.0064 -2.98688L 30.4459 2.98688ZM 49.0786 12.8725C 50.6585 15.3172 52.1093 18.2431 53.6781 22.0231L 59.2188 19.7209C 57.5693 15.7555 55.8753 12.3532 54.123 9.62384L 49.0786 12.8725ZM 12.3266 12.8716C 12.7355 12.235 13.1167 11.695 13.5527 11.1378L 8.82284 7.44612C 8.30004 8.11733 7.76121 8.87987 7.28106 9.6247L 12.3266 12.8716ZM 13.5527 11.1378C 17.049 6.65827 21.8013 4.31601 31.1537 2.96938L 30.2986 -2.96938C 20.2277 -1.51929 13.6806 1.22235 8.82284 7.44612L 13.5527 11.1378Z"/>
<path id="path22_fill" fill-rule="evenodd" d="M 24 49.5C 38.1435 49.5 48 39.5663 48 25.4891L 0 25.4891C 0 39.5663 9.85646 49.5 24 49.5Z"/>
<path id="path23_fill" d="M 25.6091 50.9782C 39.7527 50.9782 51.2183 39.5663 51.2183 25.4891C 51.2183 11.4119 39.7527 0 25.6091 0C 11.4656 0 0 11.4119 0 25.4891C 0 39.5663 11.4656 50.9782 25.6091 50.9782Z"/>
<path id="path24_stroke_2x" d="M 48.2183 25.4891C 48.2183 37.8962 38.1091 47.9782 25.6091 47.9782L 25.6091 53.9782C 41.3962 53.9782 54.2183 41.2365 54.2183 25.4891L 48.2183 25.4891ZM 25.6091 47.9782C 13.1092 47.9782 3 37.8962 3 25.4891L -3 25.4891C -3 41.2365 9.82206 53.9782 25.6091 53.9782L 25.6091 47.9782ZM 3 25.4891C 3 13.082 13.1092 3 25.6091 3L 25.6091 -3C 9.82206 -3 -3 9.74173 -3 25.4891L 3 25.4891ZM 25.6091 3C 38.1091 3 48.2183 13.082 48.2183 25.4891L 54.2183 25.4891C 54.2183 9.74173 41.3962 -3 25.6091 -3L 25.6091 3Z"/>
</defs>
</svg>
