<svg width="160" height="160" viewBox="0 0 160 160" version="1.1" xmlns="http://www.w3.org/2000/svg" xmlns:xlink="http://www.w3.org/1999/xlink">
<title>policy-icon-b</title>
<desc>Created using Figma</desc>
<g id="Canvas" transform="translate(117 171)">
<g id="policy-icon-b">
<g id="Rectangle">
<mask id="mask0_outline_ins">
<use xlink:href="#path0_fill" fill="white" transform="translate(-117 -171)"/>
</mask>
<g mask="url(#mask0_outline_ins)">
<use xlink:href="#path1_stroke_2x" transform="translate(-117 -171)" fill="#FFFFFF"/>
</g>
</g>
<g id="Ellipse 2">
<use xlink:href="#path2_fill" transform="translate(-100 -154)" fill="#FF4F79"/>
</g>
<g id="Vector">
<use xlink:href="#path3_stroke" transform="matrix(0.983303 0.181978 -0.181978 0.983303 -96.9532 -153.081)" fill="#1C1C1C"/>
</g>
<g id="Vector">
<use xlink:href="#path4_fill" transform="matrix(0.983303 0.181978 -0.181978 0.983303 -92.7401 -152.302)" fill="#1C1C1C"/>
<use xlink:href="#path5_stroke" transform="matrix(0.983303 0.181978 -0.181978 0.983303 -92.7401 -152.302)" fill="#1C1C1C"/>
</g>
<g id="Vector">
<use xlink:href="#path6_fill" transform="matrix(0.983303 0.181978 -0.181978 0.983303 -92.7401 -152.302)" fill="#1C1C1C"/>
<use xlink:href="#path7_fill" transform="matrix(0.983303 0.181978 -0.181978 0.983303 -92.7401 -152.302)" fill="#1C1C1C"/>
<use xlink:href="#path8_fill" transform="matrix(0.983303 0.181978 -0.181978 0.983303 -92.7401 -152.302)" fill="#1C1C1C"/>
<use xlink:href="#path9_fill" transform="matrix(0.983303 0.181978 -0.181978 0.983303 -92.7401 -152.302)" fill="#1C1C1C"/>
<use xlink:href="#path10_stroke" transform="matrix(0.983303 0.181978 -0.181978 0.983303 -92.7401 -152.302)" fill="#1C1C1C"/>
</g>
</g>
</g>
<defs>
<path id="path0_fill" d="M 0 0L 160 0L 160 160L 0 160L 0 0Z"/>
<path id="path1_stroke_2x" d="M 0 0L 0 -1L -1 -1L -1 0L 0 0ZM 160 0L 161 0L 161 -1L 160 -1L 160 0ZM 160 160L 160 161L 161 161L 161 160L 160 160ZM 0 160L -1 160L -1 161L 0 161L 0 160ZM 0 1L 160 1L 160 -1L 0 -1L 0 1ZM 159 0L 159 160L 161 160L 161 0L 159 0ZM 160 159L 0 159L 0 161L 160 161L 160 159ZM 1 160L 1 0L -1 0L -1 160L 1 160Z"/>
<path id="path2_fill" d="M 125 62.5C 125 97.0178 97.0178 125 62.5 125C 27.9822 125 0 97.0178 0 62.5C 0 27.9822 27.9822 0 62.5 0C 97.0178 0 125 27.9822 125 62.5Z"/>
<path id="path3_stroke" d="M 20.3723 39.0845L 19.4428 39.4532L 20.3723 39.0845ZM 14.7654 28.2697L 15.409 27.5044L 15.409 27.5044L 14.7654 28.2697ZM 11.5364 42.7052L 11.0599 43.5844L 11.7128 43.9383L 12.2403 43.4155L 11.5364 42.7052ZM 74.9864 78.2777L 74.3492 79.0485L 74.3548 79.0531L 74.3606 79.0577L 74.9864 78.2777ZM 4.28469 28.0951L 3.65903 27.315L 3.65903 27.315L 4.28469 28.0951ZM 37.1727 6.49753L 36.6393 5.65171L 36.6315 5.65661L 36.6238 5.66166L 37.1727 6.49753ZM 30.4203 41.4348L 29.7766 42.2002L 29.7831 42.2055L 30.4203 41.4348ZM 18.5864 46.0395L 19.1946 46.8332L 19.1946 46.8332L 18.5864 46.0395ZM 27.5591 39.0287L 26.9155 39.794L 26.9155 39.794L 27.5591 39.0287ZM 44.9552 1.58901L 45.4886 2.43483L 45.4886 2.43483L 44.9552 1.58901ZM 105.109 42.07L 104.472 42.841L 104.492 42.8573L 104.513 42.8726L 105.109 42.07ZM 18.6853 35.8305L 19.4686 35.2088L 19.4686 35.2088L 18.6853 35.8305ZM 17.014 34.3388L 17.5954 33.5252L 17.5954 33.5252L 17.014 34.3388ZM 19.0905 36.5581L 19.0849 37.5581L 20.2348 37.5646L 20.0816 36.4249L 19.0905 36.5581ZM 16.5334 29.7566L 15.8898 30.5219L 15.8898 30.5219L 16.5334 29.7566ZM 7.39555 26.3129L 7.75181 27.2472L 7.75181 27.2472L 7.39555 26.3129ZM 57.0254 2.35575L 56.3886 3.12677L 56.3886 3.12677L 57.0254 2.35575ZM 83.664 76.5566L 82.6822 76.3667L 82.6822 76.3667L 83.664 76.5566ZM 101.384 89.6065L 100.676 88.8999L 100.676 88.8999L 101.384 89.6065ZM 85.1772 73.3302L 84.4854 72.608L 84.4854 72.608L 85.1772 73.3302ZM 91.92 70.1933L 92.029 71.1873L 91.92 70.1933ZM 88.4454 85.2652L 88.6859 84.2946L 88.6859 84.2946L 88.4454 85.2652ZM 90.6097 90.461L 90.0708 91.3034L 90.1139 91.3309L 90.1596 91.354L 90.6097 90.461ZM 88.4454 89.0766L 87.8196 89.8565L 87.8614 89.8901L 87.9066 89.919L 88.4454 89.0766ZM 98.0591 75.7369L 97.3915 76.4814L 97.3915 76.4814L 98.0591 75.7369ZM 93.5727 80.8186L 93.7357 81.8053L 94.0502 81.7533L 94.2767 81.5289L 93.5727 80.8186ZM 97.4182 84.63L 97.9695 85.4643L 98.0386 85.4186L 98.0993 85.3622L 97.4182 84.63ZM 99.3409 71.8848L 99.8713 71.0371L 99.8713 71.0371L 99.3409 71.8848ZM 96.1364 85.2652L 95.8927 84.2953L 95.8225 84.313L 95.7555 84.3406L 96.1364 85.2652ZM 94.2136 85.9004L 94.4499 86.8721L 94.2136 85.9004ZM 98.6874 91.1443L 98.8664 92.1282L 98.9525 92.1125L 99.0346 92.0821L 98.6874 91.1443ZM 97.2124 91.4173L 97.4708 92.3833L 97.2124 91.4173ZM 138.436 61.7619L 139.038 62.5606L 139.092 62.5199L 139.14 62.4722L 138.436 61.7619ZM 84.254 74.2999L 83.4285 73.7355L 83.4285 73.7355L 84.254 74.2999ZM 124.336 47.1518L 123.785 46.3175L 123.775 46.3244L 123.764 46.3315L 124.336 47.1518ZM 131.386 45.2461L 131.386 46.2461L 131.386 46.2461L 131.386 45.2461ZM 141 54.7745L 142 54.7745L 142 54.7745L 141 54.7745ZM 135.232 45.8814L 134.72 46.7407L 134.72 46.7407L 135.232 45.8814ZM 82.0368 23.0137L 82.6736 22.2427L 82.6736 22.2427L 82.0368 23.0137ZM 11.5364 47.4223C 5.70887 47.4223 1 42.7424 1 36.9882L -1 36.9882C -1 43.8637 4.62114 49.4223 11.5364 49.4223L 11.5364 47.4223ZM 19.4428 39.4532C 19.6352 39.9379 19.9097 40.702 20.0134 41.551C 20.1238 42.4085 20.031 43.1218 19.6938 43.5965L 21.3243 44.7547C 22.0935 43.6719 22.1319 42.3427 21.997 41.2956C 21.8556 40.2399 21.5085 39.2373 21.3019 38.7159L 19.4428 39.4532ZM 1 36.9882C 1 33.7144 2.52166 30.791 4.91034 28.8752L 3.65903 27.315C 0.820472 29.5916 -1 33.0783 -1 36.9882L 1 36.9882ZM 29.7831 42.2055L 74.3492 79.0485L 75.6235 77.507L 31.0575 40.6641L 29.7831 42.2055ZM 17.9781 45.2457C 16.1563 46.6564 14.0179 47.4374 11.5364 47.4223L 11.5364 49.4223C 14.3647 49.4071 17.1173 48.4104 19.1946 46.8332L 17.9781 45.2457ZM 26.9155 39.794L 29.7767 42.2001L 31.0639 40.6695L 28.2027 38.2633L 26.9155 39.794ZM 37.7062 7.34335L 45.4886 2.43483L 44.4217 0.743192L 36.6393 5.65171L 37.7062 7.34335ZM 12.0129 41.8261C 9.74997 40.5996 7.86929 39.0106 6.96128 37.5252C 6.5113 36.789 6.34974 36.1611 6.39964 35.6572C 6.44599 35.1892 6.6878 34.6875 7.35599 34.1908L 6.16283 32.5857C 5.12193 33.3594 4.52031 34.3399 4.40938 35.4601C 4.302 36.5443 4.66931 37.6104 5.25483 38.5683C 6.41784 40.4709 8.63472 42.27 11.0599 43.5844L 12.0129 41.8261ZM 7.19339 34.2891C 8.28514 33.7632 9.93544 33.4899 11.6918 33.6142C 13.4656 33.7344 15.1232 34.1987 16.4325 35.1524L 17.5954 33.5252C 15.9922 32.3974 13.813 31.7648 11.833 31.6192C 9.83544 31.4778 7.81475 31.7699 6.32543 32.4873L 7.19339 34.2891ZM 16.4325 35.1524C 16.8944 35.4825 17.6264 36.1049 17.9021 36.4523L 19.4686 35.2088C 19.0169 34.6398 18.1028 33.8878 17.5954 33.5252L 16.4325 35.1524ZM 17.9021 36.4523C 17.9372 36.4914 17.9231 36.4721 17.9616 36.5502C 18.0053 36.6379 18.0754 36.7878 18.2157 37.0426L 19.9653 36.0736C 19.8588 35.8826 19.8082 35.7721 19.7521 35.6591C 19.6907 35.5364 19.5975 35.3763 19.4686 35.2088L 17.9021 36.4523ZM 20.0816 36.4249C 20.0842 36.4441 20.1015 36.5618 20.0747 36.7132C 20.0563 36.817 19.911 37.4274 19.2337 37.5222C 18.7816 37.5855 18.4837 37.3198 18.4826 37.3189C 18.4116 37.2624 18.3677 37.2104 18.3565 37.1971C 18.3177 37.1512 18.3147 37.1364 18.3639 37.2202C 18.4445 37.3571 18.5583 37.5712 18.6943 37.8399C 18.9692 38.3824 19.2797 39.0407 19.4428 39.4532L 21.3019 38.7159C 21.1149 38.2456 20.7662 37.5043 20.4785 36.9362C 20.3333 36.6495 20.1899 36.3806 20.0884 36.2073C 20.0317 36.1112 19.9479 35.985 19.885 35.9073C 19.8555 35.8733 19.7805 35.7983 19.7282 35.7541C 19.7185 35.7464 19.4136 35.4775 18.9564 35.5415C 18.2739 35.6371 18.1252 36.252 18.1053 36.3645C 18.077 36.5246 18.0946 36.655 18.0994 36.6913L 20.0816 36.4249ZM 19.0962 35.5581C 17.3926 35.5485 16.054 36.5475 14.8547 37.7202C 13.6469 38.9035 12.397 40.4464 10.8324 41.995L 12.2403 43.4155C 13.8803 41.788 15.1256 40.2501 16.2529 39.1502C 17.3886 38.0398 18.2248 37.5532 19.0849 37.5581L 19.0962 35.5581ZM 19.202 46.8275L 19.3741 46.693L 18.1427 45.117L 17.9707 45.2515L 19.202 46.8275ZM 19.3815 46.6872C 20.0662 46.1399 20.7292 45.4849 21.2837 44.808L 19.7345 43.5431C 19.2497 44.1392 18.7384 44.6443 18.1353 45.1229L 19.3815 46.6872ZM 7.41459 34.1437C 9.93224 31.9603 11.6241 30.5766 12.9665 29.9825C 13.6047 29.7 14.0814 29.6365 14.479 29.7022C 14.8748 29.7676 15.3161 29.9816 15.8462 30.483L 17.2206 29.0301C 16.4929 28.3417 15.7032 27.8774 14.805 27.729C 13.9086 27.5809 13.0284 27.768 12.1571 28.1536C 10.4806 28.8956 8.54323 30.5175 6.10423 32.6327L 7.41459 34.1437ZM 17.1771 28.9912L 15.409 27.5044L 14.1218 29.035L 15.8898 30.5219L 17.1771 28.9912ZM 7.03928 25.3785C 6.57094 25.5576 6.08871 25.7763 5.65001 26.0076L 6.58433 27.7759C 6.96937 27.5719 7.34067 27.4035 7.75181 27.2472L 7.03928 25.3785ZM 5.56825 26.0559L 3.73577 27.2592L 4.83361 28.931L 6.66608 27.7276L 5.56825 26.0559ZM 6.66609 27.7276L 37.7216 7.33341L 36.6238 5.66166L 5.56825 26.0559L 6.66609 27.7276ZM 15.9107 30.539C 15.944 30.5654 15.9672 30.5849 16.0005 30.6145L 17.3268 29.1176C 17.2748 29.0716 17.2112 29.018 17.1562 28.9741L 15.9107 30.539ZM 4.91034 28.8752C 5.44172 28.4476 5.97574 28.0962 6.58433 27.7759L 5.65001 26.0076C 4.95769 26.3746 4.26506 26.8304 3.65903 27.315L 4.91034 28.8752ZM 15.8898 30.5219L 16.02 30.6314L 17.3073 29.1007L 17.1771 28.9912L 15.8898 30.5219ZM 18.1353 45.1229C 18.0821 45.1653 18.0322 45.2043 17.9781 45.2457L 19.1946 46.8332C 19.2561 46.7861 19.3209 46.7355 19.3815 46.6872L 18.1353 45.1229ZM 104.513 42.8726L 117.331 52.4009L 118.524 50.7958L 105.706 41.2675L 104.513 42.8726ZM 15.409 27.5044C 13.2216 25.6648 10.1005 24.2113 7.03928 25.3785L 7.75181 27.2472C 9.79396 26.4686 12.1398 27.3683 14.1218 29.035L 15.409 27.5044ZM 45.4886 2.43483C 48.8873 0.291247 53.2952 0.571825 56.3886 3.12677L 57.6622 1.58473C 53.9018 -1.52112 48.5499 -1.86052 44.4217 0.743192L 45.4886 2.43483ZM 84.7914 79.32C 84.464 78.4211 84.4281 77.8299 84.6458 76.7464L 82.6822 76.3667C 82.4322 77.7021 82.5043 78.8208 82.9054 79.9857L 84.7914 79.32ZM 103.661 80.4112C 104.025 83.6652 102.837 86.736 100.676 88.8999L 102.091 90.3131C 104.661 87.7402 106.083 84.0755 105.649 80.1893L 103.661 80.4112ZM 85.8689 74.0523C 87.5229 72.4519 89.5611 71.4427 92.029 71.1873L 91.811 69.1992C 89.0012 69.5227 86.3754 70.8138 84.4854 72.608L 85.8689 74.0523ZM 88.6859 84.2946C 87.0728 83.8949 85.8784 82.556 84.8794 79.8033L 82.9994 80.4856C 84.0755 83.4507 85.6104 85.593 88.2049 86.2359L 88.6859 84.2946ZM 91.1485 89.6186L 88.9843 88.2342L 87.9066 89.919L 90.0708 91.3034L 91.1485 89.6186ZM 89.0712 88.2966L 75.6122 77.4978L 74.3606 79.0577L 87.8196 89.8565L 89.0712 88.2966ZM 98.7267 74.9923C 98.2632 74.5768 97.4773 73.8647 96.3806 73.4244C 95.2178 72.9788 93.7656 72.8825 91.9567 73.5239L 92.6251 75.4089C 94.0208 74.914 94.9807 75.0298 95.665 75.292C 96.4152 75.5593 96.9111 76.0505 97.3915 76.4814L 98.7267 74.9923ZM 91.8469 73.5704C 89.5283 74.7194 88.6465 76.9167 89.0719 78.8141C 89.503 80.7368 91.266 82.2132 93.7357 81.8053L 93.4097 79.832C 92.034 80.0593 91.2333 79.3124 91.0235 78.3766C 90.808 77.4155 91.208 76.1191 92.7349 75.3624L 91.8469 73.5704ZM 97.3915 76.4814C 97.6957 76.7542 97.9582 77.289 98.0145 78.1131L 100.01 77.9768C 99.9323 76.842 99.5509 75.7314 98.7267 74.9923L 97.3915 76.4814ZM 98.0145 78.1131C 98.019 78.1793 98.0217 78.2363 98.0235 78.3046L 100.023 78.251C 100.02 78.1622 100.016 78.0639 100.01 77.9768L 98.0145 78.1131ZM 98.0235 78.3045C 98.0813 80.4605 98.3419 82.405 96.7371 83.8978L 98.0993 85.3622C 100.513 83.1166 100.07 80.0246 100.023 78.251L 98.0235 78.3045ZM 94.2767 81.5289C 94.7656 81.0443 95.9362 80.244 97.0727 79.6328C 97.6289 79.3332 98.1024 79.1135 98.4789 78.9955C 98.6486 78.9401 98.785 78.9355 98.7381 78.9315C 98.7352 78.9315 98.6586 78.9338 98.5482 78.8918C 98.4222 78.8438 98.254 78.7364 98.141 78.536L 99.8833 77.5539C 99.5547 76.971 98.9427 76.9281 98.7075 76.9317C 98.4672 76.9401 98.1368 77.0067 97.8717 77.0899C 97.3788 77.2489 96.7364 77.5434 96.1255 77.8714C 94.928 78.5153 93.5601 79.4232 92.8688 80.1084L 94.2767 81.5289ZM 98.141 78.536C 97.9946 78.2762 98.0478 78.0562 98.053 78.0351L 99.9933 78.5204C 100.049 78.2979 100.092 77.9244 99.8833 77.5539L 98.141 78.536ZM 92.029 71.1873C 94.5525 70.8946 96.8158 71.4703 98.8105 72.7326L 99.8713 71.0371C 97.6007 69.6308 94.6906 68.8993 91.811 69.1992L 92.029 71.1873ZM 98.8105 72.7326C 101.431 74.3722 103.295 77.1308 103.661 80.4112L 105.649 80.1893C 105.212 76.2718 102.984 72.9842 99.8713 71.0371L 98.8105 72.7326ZM 92.7997 75.3273C 94.6147 74.2462 97.0485 73.5233 99.5958 72.8518L 99.086 70.9179C 96.506 71.5982 93.8126 72.4141 91.7821 73.6055L 92.7997 75.3273ZM 96.8669 83.7957C 96.5637 83.9969 96.4475 84.0905 96.3477 84.1424C 96.2889 84.175 96.1978 84.2187 95.8927 84.2953L 96.38 86.2351C 96.7792 86.1332 97.0858 86.017 97.3183 85.8911C 97.5515 85.7582 97.7312 85.6208 97.9695 85.4643L 96.8669 83.7957ZM 96.1364 85.2652C 95.7555 84.3406 95.7556 84.3405 95.7557 84.3405C 95.7557 84.3405 95.7557 84.3405 95.7557 84.3405C 95.7557 84.3405 95.7559 84.3404 95.7559 84.3404C 95.7559 84.3404 95.7559 84.3404 95.7558 84.3404C 95.7555 84.3406 95.7553 84.3407 95.7546 84.3409C 95.7531 84.3416 95.7513 84.3423 95.7482 84.3436C 95.7414 84.3463 95.7324 84.35 95.7194 84.3552C 95.6919 84.3662 95.6544 84.3811 95.6038 84.4008C 95.4998 84.4413 95.3592 84.4947 95.1859 84.5567C 94.833 84.6832 94.4026 84.8262 93.9774 84.9287L 94.4499 86.8721C 94.953 86.749 95.4839 86.5743 95.8603 86.4396C 96.0516 86.3711 96.2176 86.308 96.3291 86.2647C 96.3863 86.2424 96.4337 86.2236 96.4642 86.2113C 96.4802 86.2049 96.4935 86.1995 96.5017 86.1962C 96.5062 86.1944 96.5101 86.1928 96.5123 86.1919C 96.5136 86.1913 96.5148 86.1908 96.5155 86.1906C 96.5159 86.1904 96.5163 86.1902 96.5165 86.1901C 96.5166 86.1901 96.5168 86.19 96.5169 86.19C 96.5169 86.19 96.517 86.1899 96.517 86.1899C 96.5171 86.1899 96.5172 86.1899 96.1364 85.2652ZM 93.9774 84.9287C 92.5242 85.282 90.7056 84.795 88.6859 84.2946L 88.2049 86.2359C 90.01 86.6831 92.4049 87.3692 94.4499 86.8721L 93.9774 84.9287ZM 96.3798 86.2351C 97.6075 85.927 99.6144 85.0873 101.402 84.1165C 102.3 83.628 103.195 83.0743 103.897 82.5409C 104.578 82.0222 105.248 81.4007 105.563 80.7203L 103.748 79.8802C 103.652 80.0863 103.33 80.4587 102.686 80.9498C 102.062 81.426 101.297 81.8978 100.447 82.359C 98.7378 83.2874 96.8955 84.0437 95.8929 84.2953L 96.3798 86.2351ZM 100.676 88.8999C 100.572 89.0039 100.475 89.1 100.378 89.1938L 101.771 90.6292C 101.873 90.5297 101.982 90.4226 102.091 90.3131L 100.676 88.8999ZM 100.378 89.1938C 99.4911 90.0543 99.0693 89.9365 98.3402 90.2065L 99.0346 92.0821C 99.2973 91.9848 100.481 91.8806 101.771 90.6292L 100.378 89.1938ZM 98.6874 91.1443C 98.5083 90.1605 98.5083 90.1605 98.5083 90.1605C 98.5083 90.1605 98.5083 90.1605 98.5083 90.1605C 98.5082 90.1605 98.5081 90.1605 98.5081 90.1605C 98.5079 90.1606 98.5076 90.1606 98.5073 90.1607C 98.5066 90.1608 98.5055 90.161 98.5042 90.1612C 98.5015 90.1617 98.4975 90.1625 98.4922 90.1634C 98.4818 90.1653 98.4664 90.1681 98.4469 90.1717C 98.4079 90.1788 98.352 90.189 98.2848 90.2012C 98.1506 90.2257 97.9707 90.2586 97.7893 90.2919C 97.4721 90.3501 97.0319 90.4304 96.9541 90.4512L 97.4708 92.3833C 97.4349 92.3929 97.4705 92.3849 97.6486 92.3517C 97.7884 92.3256 97.9697 92.2922 98.1504 92.259C 98.331 92.2259 98.5099 92.1932 98.6439 92.1687C 98.7109 92.1565 98.7665 92.1464 98.8055 92.1393C 98.8249 92.1357 98.8401 92.1329 98.8506 92.131C 98.8557 92.1301 98.8597 92.1294 98.8624 92.1289C 98.8637 92.1286 98.8647 92.1285 98.8654 92.1283C 98.8658 92.1283 98.866 92.1282 98.8662 92.1282C 98.8663 92.1282 98.8663 92.1282 98.8664 92.1282C 98.8664 92.1282 98.8664 92.1282 98.8664 92.1282C 98.8664 92.1282 98.8664 92.1282 98.6874 91.1443ZM 99.1463 92.0328L 101.533 90.8L 100.615 89.023L 98.2285 90.2558L 99.1463 92.0328ZM 101.676 90.7102L 139.038 62.5606L 137.835 60.9633L 100.473 89.1128L 101.676 90.7102ZM 85.0794 74.8644C 85.1327 74.7835 85.1913 74.7184 85.3172 74.5892L 83.8827 73.1956C 83.7199 73.3637 83.5509 73.5595 83.4285 73.7355L 85.0794 74.8644ZM 85.3172 74.5892C 85.458 74.444 85.6356 74.2758 85.8689 74.0523L 84.4854 72.608C 84.2556 72.8282 84.0522 73.0215 83.8827 73.1956L 85.3172 74.5892ZM 123.764 46.3315C 116.648 51.2936 106.728 57.6364 98.5749 62.9133C 94.4979 65.5519 90.857 67.9279 88.2366 69.7267C 86.9232 70.6285 85.8463 71.3996 85.104 71.983C 84.7265 72.2803 84.4022 72.5574 84.1846 72.7726C 84.0672 72.89 83.9385 73.0369 83.8576 73.1486C 83.7938 73.2385 83.6 73.5162 83.6 73.8924L 85.6 73.8924C 85.6 74.0615 85.5522 74.1811 85.5321 74.2263C 85.5393 74.2114 85.4982 74.2923 85.5021 74.2851C 85.5044 74.2816 85.4908 74.3033 85.4894 74.305C 85.4731 74.3305 85.5218 74.2627 85.5944 74.1913C 85.7569 74.0288 85.9937 73.8275 86.3405 73.5551C 87.0468 72.9992 88.0713 72.2661 89.3685 71.3756C 91.9695 69.5899 95.5877 67.2289 99.6616 64.5923C 107.81 59.3184 117.759 52.9567 124.908 47.9721L 123.764 46.3315ZM 131.386 44.2461C 128.313 44.2561 125.84 44.9736 123.785 46.3175L 124.888 47.9861C 126.679 46.7891 128.594 46.2362 131.386 46.2461L 131.386 44.2461ZM 139.14 62.4722C 142.007 59.6308 142 56.7265 142 54.7745L 140 54.7745C 140 56.6339 139.993 58.8113 137.732 61.0517L 139.14 62.4722ZM 142 54.7745C 142 52.4597 141.668 50.6773 140.633 49.1105C 139.619 47.577 138.008 46.3699 135.743 45.0221L 134.72 46.7407C 136.942 48.0631 138.215 49.0793 138.964 50.2131C 139.691 51.3137 140 52.6427 140 54.7745L 142 54.7745ZM 135.743 45.0221C 134.401 44.2233 133.259 44.2461 131.386 44.2461L 131.386 46.2461C 133.359 46.2461 133.928 46.269 134.72 46.7407L 135.743 45.0221ZM 90.1596 91.354C 91.8253 92.1886 93.2306 92.593 94.3665 92.7028C 95.5471 92.8029 96.5826 92.6201 97.4708 92.3833L 96.9541 90.4512C 96.1419 90.6692 95.4567 90.8049 94.5513 90.7114C 93.6012 90.6277 92.5552 90.3265 91.0597 89.568L 90.1596 91.354ZM 84.6458 76.7464C 84.7276 76.3171 84.7655 75.9123 84.8318 75.5708C 84.8955 75.2308 84.9375 75.0505 85.0795 74.8644L 83.4285 73.7355C 83.1312 74.1917 82.952 74.7588 82.8673 75.1959C 82.7853 75.6316 82.7478 76.0339 82.6822 76.3667L 84.6458 76.7464ZM 16.02 30.6314L 25.9826 39.0095L 27.2698 37.4788L 17.3073 29.1007L 16.02 30.6314ZM 25.9826 39.0095L 26.9155 39.794L 28.2027 38.2633L 27.2698 37.4788L 25.9826 39.0095ZM 21.2052 44.8935L 27.3223 38.962L 25.9301 37.5262L 19.813 43.4577L 21.2052 44.8935ZM 56.3886 3.12677L 81.4 23.7847L 82.6736 22.2427L 57.6622 1.58473L 56.3886 3.12677ZM 81.4 23.7847L 104.472 42.841L 105.746 41.299L 82.6736 22.2427L 81.4 23.7847Z"/>
<path id="path4_fill" d="M 2.47472 33.3882C -0.94346 35.9291 2.56364 40.1644 7.25167 42.7052C 10.4562 39.5291 12.2422 36.5437 14.8058 36.5581C 14.559 36.1123 14.5646 36.0372 14.4007 35.8305C 14.0369 35.3723 13.2139 34.6851 12.7293 34.3388C 9.81669 32.2573 5.05579 32.1449 2.47472 33.3882Z"/>
<path id="path5_stroke" d="M 10.4807 28.2697L 11.1243 27.5044L 11.1243 27.5044L 10.4807 28.2697ZM 16.2244 44.1756L 15.5283 43.4577L 15.4865 43.4981L 15.4498 43.5431L 16.2244 44.1756ZM 7.25167 42.7052L 6.77517 43.5844L 7.42812 43.9383L 7.95562 43.4155L 7.25167 42.7052ZM 70.7017 78.2777L 70.0645 79.0485L 70.0702 79.0531L 70.0759 79.0577L 70.7017 78.2777ZM 32.888 6.49753L 32.3546 5.65171L 32.3468 5.65661L 32.3391 5.66166L 32.888 6.49753ZM 26.1356 41.4348L 25.492 42.2002L 25.4984 42.2055L 26.1356 41.4348ZM 14.3017 46.0395L 14.9099 46.8332L 14.9099 46.8332L 14.3017 46.0395ZM 23.2744 39.0287L 22.6308 39.794L 22.6308 39.794L 23.2744 39.0287ZM 40.6705 1.58901L 41.2039 2.43483L 41.2039 2.43483L 40.6705 1.58901ZM 100.824 42.07L 100.188 42.841L 100.207 42.8573L 100.228 42.8726L 100.824 42.07ZM 14.4007 35.8305L 15.1839 35.2088L 15.1839 35.2088L 14.4007 35.8305ZM 12.7293 34.3388L 13.3107 33.5252L 13.3107 33.5252L 12.7293 34.3388ZM 14.8058 36.5581L 14.8002 37.5581L 16.5081 37.5677L 15.6806 36.0736L 14.8058 36.5581ZM 12.2488 29.7566L 11.6051 30.5219L 11.6051 30.5219L 12.2488 29.7566ZM 3.11086 26.3129L 3.46712 27.2472L 3.46712 27.2472L 3.11086 26.3129ZM 52.7407 2.35575L 52.1039 3.12677L 52.1039 3.12677L 52.7407 2.35575ZM 79.3793 76.5566L 78.3975 76.3667L 79.3793 76.5566ZM 97.0988 89.6065L 96.3912 88.8999L 96.3912 88.8999L 97.0988 89.6065ZM 80.8925 73.3302L 80.2008 72.608L 80.2008 72.608L 80.8925 73.3302ZM 87.6353 70.1933L 87.7443 71.1873L 87.6353 70.1933ZM 84.1607 85.2652L 83.8315 86.2095L 83.8753 86.2247L 83.9202 86.2359L 84.1607 85.2652ZM 86.325 90.461L 85.7861 91.3034L 85.8292 91.3309L 85.8749 91.354L 86.325 90.461ZM 84.1607 89.0766L 83.5349 89.8565L 83.5767 89.8901L 83.6219 89.919L 84.1607 89.0766ZM 93.7744 75.7369L 93.1068 76.4814L 93.1068 76.4814L 93.7744 75.7369ZM 89.288 80.8186L 89.451 81.8053L 89.7655 81.7533L 89.992 81.5289L 89.288 80.8186ZM 93.1335 84.63L 93.6848 85.4643L 93.7539 85.4186L 93.8146 85.3622L 93.1335 84.63ZM 95.0562 71.8848L 95.5866 71.0371L 95.5866 71.0371L 95.0562 71.8848ZM 91.8517 85.2652L 91.608 84.2953L 91.5378 84.313L 91.4709 84.3406L 91.8517 85.2652ZM 89.9289 85.9004L 90.1652 86.8721L 89.9289 85.9004ZM 94.4027 91.1443L 94.5817 92.1282L 94.6678 92.1125L 94.7499 92.0821L 94.4027 91.1443ZM 92.9277 91.4173L 93.1861 92.3833L 92.9277 91.4173ZM 134.152 61.7619L 134.753 62.5606L 134.808 62.5199L 134.856 62.4722L 134.152 61.7619ZM 79.9693 74.2999L 79.1438 73.7355L 79.1438 73.7355L 79.9693 74.2999ZM 80.3153 73.8924L 79.598 73.1956L 79.598 73.1956L 80.3153 73.8924ZM 127.102 45.2461L 127.102 46.2461L 127.102 46.2461L 127.102 45.2461ZM 136.715 54.7745L 137.715 54.7745L 137.715 54.7745L 136.715 54.7745ZM 130.947 45.8814L 130.436 46.7407L 130.436 46.7407L 130.947 45.8814ZM 25.4984 42.2055L 70.0645 79.0485L 71.3388 77.507L 26.7728 40.6641L 25.4984 42.2055ZM 13.6934 45.2457C 11.8716 46.6564 9.73318 47.4374 7.25167 47.4223L 7.25167 49.4223C 10.0801 49.4071 12.8326 48.4104 14.9099 46.8332L 13.6934 45.2457ZM 22.6308 39.794L 25.492 42.2001L 26.7792 40.6695L 23.918 38.2633L 22.6308 39.794ZM 33.4215 7.34335L 41.2039 2.43483L 40.137 0.743192L 32.3546 5.65171L 33.4215 7.34335ZM 52.1039 3.12677L 100.188 42.841L 101.461 41.299L 53.3775 1.58473L 52.1039 3.12677ZM 7.72818 41.8261C 5.46528 40.5996 3.5846 39.0106 2.67659 37.5252C 2.22661 36.789 2.06505 36.1611 2.11495 35.6572C 2.1613 35.1892 2.40311 34.6875 3.0713 34.1908L 1.87815 32.5857C 0.837245 33.3594 0.235622 34.3399 0.124688 35.4601C 0.0173097 36.5443 0.384619 37.6104 0.970143 38.5683C 2.13315 40.4709 4.35003 42.27 6.77517 43.5844L 7.72818 41.8261ZM 2.9087 34.2891C 4.00045 33.7632 5.65075 33.4899 7.40707 33.6142C 9.18092 33.7344 10.8385 34.1987 12.1478 35.1524L 13.3107 33.5252C 11.7075 32.3974 9.5283 31.7648 7.54829 31.6192C 5.55075 31.4778 3.53006 31.7699 2.04074 32.4873L 2.9087 34.2891ZM 12.1478 35.1524C 12.6097 35.4825 13.3417 36.1049 13.6174 36.4523L 15.1839 35.2088C 14.7322 34.6398 13.8181 33.8878 13.3107 33.5252L 12.1478 35.1524ZM 13.6174 36.4523C 13.6525 36.4914 13.6384 36.4721 13.6769 36.5502C 13.7207 36.6379 13.7907 36.7878 13.931 37.0426L 15.6806 36.0736C 15.5741 35.8826 15.5236 35.7721 15.4674 35.6591C 15.406 35.5364 15.3128 35.3763 15.1839 35.2088L 13.6174 36.4523ZM 14.8115 35.5581C 13.1079 35.5485 11.7693 36.5475 10.57 37.7202C 9.36224 38.9035 8.11233 40.4464 6.54772 41.995L 7.95562 43.4155C 9.59557 41.788 10.8409 40.2501 11.9682 39.1502C 13.1039 38.0398 13.9401 37.5532 14.8002 37.5581L 14.8115 35.5581ZM 14.9174 46.8275L 15.0894 46.693L 13.8581 45.117L 13.686 45.2515L 14.9174 46.8275ZM 15.0968 46.6872C 15.7815 46.1399 16.4445 45.4849 16.999 44.808L 15.4498 43.5431C 14.965 44.1392 14.4537 44.6443 13.8506 45.1229L 15.0968 46.6872ZM 2.7546 25.3785C 2.28625 25.5576 1.80402 25.7763 1.36532 26.0076L 2.29964 27.7759C 2.68468 27.5719 3.05598 27.4035 3.46712 27.2472L 2.7546 25.3785ZM 1.28356 26.0559L -0.548919 27.2592L 0.548919 28.931L 2.3814 27.7276L 1.28356 26.0559ZM 2.3814 27.7276L 33.437 7.33341L 32.3391 5.66166L 1.28356 26.0559L 2.3814 27.7276ZM 11.626 30.539C 11.6593 30.5654 11.6825 30.5849 11.7158 30.6145L 13.0421 29.1176C 12.9901 29.0716 12.9265 29.018 12.8715 28.9741L 11.626 30.539ZM 11.6051 30.5219L 11.7353 30.6314L 13.0226 29.1007L 12.8924 28.9912L 11.6051 30.5219ZM 13.8506 45.1229C 13.7974 45.1653 13.7475 45.2043 13.6934 45.2457L 14.9099 46.8332C 14.9714 46.7861 15.0362 46.7355 15.0968 46.6872L 13.8506 45.1229ZM 100.228 42.8726L 113.046 52.4009L 114.239 50.7958L 101.421 41.2675L 100.228 42.8726ZM 11.1243 27.5044C 8.9369 25.6648 5.81579 24.2113 2.7546 25.3785L 3.46712 27.2472C 5.50927 26.4686 7.85515 27.3683 9.83708 29.035L 11.1243 27.5044ZM 41.2039 2.43483C 44.6026 0.291247 49.0105 0.571825 52.1039 3.12677L 53.3775 1.58473C 49.6171 -1.52112 44.2652 -1.86052 40.137 0.743192L 41.2039 2.43483ZM 80.547 79.4708C 80.4387 78.9027 80.3172 78.5644 80.2724 78.2181C 80.2164 77.8453 80.2139 77.4836 80.3611 76.7464L 78.3975 76.3667C 78.2229 77.294 78.2216 77.9888 78.2927 78.5022C 78.3751 79.0421 78.5067 79.4196 78.5804 79.8348L 80.547 79.4708ZM 99.3768 80.4112C 99.7401 83.6652 98.5521 86.736 96.3912 88.8999L 97.8064 90.3131C 100.376 87.7402 101.798 84.0755 101.364 80.1893L 99.3768 80.4112ZM 81.5842 74.0523C 83.2382 72.4519 85.2764 71.4427 87.7443 71.1873L 87.5263 69.1992C 84.7165 69.5227 82.0907 70.8138 80.2008 72.608L 81.5842 74.0523ZM 84.49 84.321C 83.0909 83.8331 81.8319 82.6265 81.4382 81.6471L 79.5825 82.3931C 80.2228 83.9859 81.9715 85.5609 83.8315 86.2095L 84.49 84.321ZM 86.8638 89.6186L 84.6996 88.2342L 83.6219 89.919L 85.7861 91.3034L 86.8638 89.6186ZM 84.7866 88.2966L 71.3275 77.4978L 70.0759 79.0577L 83.5349 89.8565L 84.7866 88.2966ZM 94.442 74.9923C 93.9785 74.5768 93.1926 73.8647 92.0959 73.4244C 90.9331 72.9788 89.4809 72.8825 87.672 73.5239L 88.3404 75.4089C 89.7361 74.914 90.696 75.0298 91.3803 75.292C 92.1305 75.5593 92.6264 76.0505 93.1068 76.4814L 94.442 74.9923ZM 87.5622 73.5704C 85.2436 74.7194 84.3618 76.9167 84.7873 78.8141C 85.2183 80.7368 86.9813 82.2132 89.451 81.8053L 89.125 79.832C 87.7493 80.0593 86.9486 79.3124 86.7388 78.3766C 86.5233 77.4155 86.9233 76.1191 88.4502 75.3624L 87.5622 73.5704ZM 93.1068 76.4814C 93.4111 76.7542 93.6735 77.289 93.7298 78.1131L 95.7251 77.9768C 95.6476 76.842 95.2662 75.7314 94.442 74.9923L 93.1068 76.4814ZM 93.7298 78.1131C 93.7343 78.1793 93.737 78.2363 93.7388 78.3046L 95.7381 78.251C 95.7357 78.1622 95.731 78.0639 95.7251 77.9768L 93.7298 78.1131ZM 93.7388 78.3045C 93.7966 80.4605 94.0572 82.405 92.4524 83.8978L 93.8146 85.3622C 96.2285 83.1166 95.7856 80.0246 95.7381 78.251L 93.7388 78.3045ZM 89.992 81.5289C 90.4809 81.0443 91.6515 80.244 92.788 79.6328C 93.3442 79.3332 93.8177 79.1135 94.1942 78.9955C 94.3639 78.9401 94.5003 78.9355 94.4534 78.9315C 94.4505 78.9315 94.3739 78.9338 94.2635 78.8918C 94.1375 78.8438 93.9693 78.7364 93.8563 78.536L 95.5986 77.5539C 95.27 76.971 94.658 76.9281 94.4228 76.9317C 94.1825 76.9401 93.8521 77.0067 93.587 77.0899C 93.0942 77.2489 92.4517 77.5434 91.8408 77.8714C 90.6433 78.5153 89.2754 79.4232 88.5841 80.1084L 89.992 81.5289ZM 93.8563 78.536C 93.7099 78.2762 93.7631 78.0562 93.7683 78.0351L 95.7086 78.5204C 95.7642 78.2979 95.8074 77.9244 95.5986 77.5539L 93.8563 78.536ZM 87.7443 71.1873C 90.2678 70.8946 92.5311 71.4703 94.5258 72.7326L 95.5866 71.0371C 93.316 69.6308 90.4059 68.8993 87.5263 69.1992L 87.7443 71.1873ZM 94.5258 72.7326C 97.1465 74.3722 99.0105 77.1308 99.3768 80.4112L 101.364 80.1893C 100.927 76.2718 98.6988 72.9842 95.5866 71.0371L 94.5258 72.7326ZM 88.515 75.3273C 90.33 74.2462 92.7638 73.5233 95.3111 72.8518L 94.8013 70.9179C 92.2213 71.5982 89.5279 72.4141 87.4975 73.6055L 88.515 75.3273ZM 92.5822 83.7957C 92.279 83.9969 92.1628 84.0905 92.063 84.1424C 92.0042 84.175 91.9131 84.2187 91.608 84.2953L 92.0953 86.2351C 92.4945 86.1332 92.8011 86.017 93.0336 85.8911C 93.2668 85.7582 93.4465 85.6208 93.6848 85.4643L 92.5822 83.7957ZM 91.8517 85.2652C 91.4709 84.3406 91.4709 84.3405 91.471 84.3405C 91.471 84.3405 91.471 84.3405 91.4711 84.3405C 91.471 84.3405 91.4712 84.3404 91.4712 84.3404C 91.4712 84.3404 91.4712 84.3404 91.4711 84.3404C 91.4708 84.3406 91.4706 84.3407 91.47 84.3409C 91.4684 84.3416 91.4666 84.3423 91.4635 84.3436C 91.4567 84.3463 91.4477 84.35 91.4347 84.3552C 91.4072 84.3662 91.3697 84.3811 91.3191 84.4008C 91.2152 84.4413 91.0746 84.4947 90.9012 84.5567C 90.5483 84.6832 90.1179 84.8262 89.6927 84.9287L 90.1652 86.8721C 90.6683 86.749 91.1992 86.5743 91.5756 86.4396C 91.7669 86.3711 91.9329 86.308 92.0444 86.2647C 92.1016 86.2424 92.149 86.2236 92.1796 86.2113C 92.1955 86.2049 92.2088 86.1995 92.217 86.1962C 92.2215 86.1944 92.2254 86.1928 92.2276 86.1919C 92.2289 86.1913 92.2301 86.1908 92.2308 86.1906C 92.2312 86.1904 92.2316 86.1902 92.2318 86.1901C 92.232 86.1901 92.2321 86.19 92.2322 86.19C 92.2322 86.19 92.2323 86.1899 92.2323 86.1899C 92.2324 86.1899 92.2325 86.1899 91.8517 85.2652ZM 89.6927 84.9287C 88.2395 85.282 86.4209 84.795 84.4013 84.2946L 83.9202 86.2359C 85.7253 86.6831 88.1202 87.3692 90.1652 86.8721L 89.6927 84.9287ZM 92.0951 86.2351C 93.3228 85.927 95.3297 85.0873 97.117 84.1165C 98.0155 83.628 98.9104 83.0743 99.6128 82.5409C 100.294 82.0222 100.963 81.4007 101.278 80.7203L 99.4631 79.8802C 99.3677 80.0863 99.0458 80.4587 98.401 80.9498C 97.7777 81.426 97.0123 81.8978 96.1624 82.359C 94.4531 83.2874 92.6109 84.0437 91.6083 84.2953L 92.0951 86.2351ZM 96.3912 88.8999C 96.2873 89.0039 96.1899 89.1 96.0932 89.1938L 97.486 90.6292C 97.5885 90.5297 97.6971 90.4226 97.8064 90.3131L 96.3912 88.8999ZM 96.0932 89.1938C 95.2064 90.0543 94.7846 89.9365 94.0555 90.2065L 94.7499 92.0821C 95.0126 91.9848 96.1963 91.8806 97.486 90.6292L 96.0932 89.1938ZM 94.4027 91.1443C 94.2236 90.1605 94.2236 90.1605 94.2236 90.1605C 94.2236 90.1605 94.2236 90.1605 94.2236 90.1605C 94.2235 90.1605 94.2234 90.1605 94.2234 90.1605C 94.2232 90.1606 94.2229 90.1606 94.2226 90.1607C 94.2219 90.1608 94.2209 90.161 94.2195 90.1612C 94.2168 90.1617 94.2128 90.1625 94.2075 90.1634C 94.1971 90.1653 94.1817 90.1681 94.1622 90.1717C 94.1232 90.1788 94.0673 90.189 94.0001 90.2012C 93.8659 90.2257 93.686 90.2586 93.5046 90.2919C 93.1874 90.3501 92.7472 90.4304 92.6694 90.4512L 93.1861 92.3833C 93.1502 92.3929 93.1858 92.3849 93.364 92.3517C 93.5037 92.3256 93.685 92.2922 93.8657 92.259C 94.0463 92.2259 94.2252 92.1932 94.3592 92.1687C 94.4262 92.1565 94.4818 92.1464 94.5208 92.1393C 94.5402 92.1357 94.5555 92.1329 94.5659 92.131C 94.5711 92.1301 94.575 92.1294 94.5777 92.1289C 94.579 92.1286 94.5801 92.1285 94.5807 92.1283C 94.5811 92.1283 94.5813 92.1282 94.5815 92.1282C 94.5816 92.1282 94.5816 92.1282 94.5817 92.1282C 94.5817 92.1282 94.5817 92.1282 94.5817 92.1282C 94.5817 92.1282 94.5817 92.1282 94.4027 91.1443ZM 94.8616 92.0328L 97.2485 90.8L 96.3307 89.023L 93.9438 90.2558L 94.8616 92.0328ZM 97.3913 90.7102L 134.753 62.5606L 133.55 60.9633L 96.1878 89.1128L 97.3913 90.7102ZM 80.7948 74.8644C 80.848 74.7835 80.9066 74.7184 81.0326 74.5892L 79.598 73.1956C 79.4352 73.3637 79.2662 73.5595 79.1438 73.7355L 80.7948 74.8644ZM 81.0326 74.5892C 81.1733 74.444 81.3509 74.2758 81.5842 74.0523L 80.2008 72.608C 79.9709 72.8282 79.7675 73.0215 79.598 73.1956L 81.0326 74.5892ZM 127.102 44.2461C 124.028 44.2561 121.555 44.9736 119.5 46.3175L 120.603 47.9861C 122.394 46.7891 124.309 46.2362 127.102 46.2461L 127.102 44.2461ZM 134.856 62.4722C 137.722 59.6308 137.715 56.7265 137.715 54.7745L 135.715 54.7745C 135.715 56.6339 135.708 58.8113 133.448 61.0517L 134.856 62.4722ZM 137.715 54.7745C 137.715 52.4597 137.383 50.6773 136.348 49.1105C 135.335 47.577 133.723 46.3699 131.459 45.0221L 130.436 46.7407C 132.657 48.0631 133.93 49.0793 134.679 50.2131C 135.407 51.3137 135.715 52.6427 135.715 54.7745L 137.715 54.7745ZM 131.459 45.0221C 130.117 44.2233 128.974 44.2461 127.102 44.2461L 127.102 46.2461C 129.074 46.2461 129.643 46.269 130.436 46.7407L 131.459 45.0221ZM 85.8749 91.354C 87.5407 92.1886 88.9459 92.593 90.0818 92.7028C 91.2624 92.8029 92.2979 92.6201 93.1861 92.3833L 92.6694 90.4512C 91.8573 90.6692 91.172 90.8049 90.2666 90.7114C 89.3165 90.6277 88.2705 90.3265 86.775 89.568L 85.8749 91.354ZM 80.3611 76.7464C 80.4429 76.3171 80.4808 75.9123 80.5471 75.5708C 80.6108 75.2308 80.6528 75.0505 80.7948 74.8644L 79.1438 73.7355C 78.8466 74.1917 78.6673 74.7588 78.5826 75.1959C 78.5006 75.6316 78.4631 76.0339 78.3975 76.3667L 80.3611 76.7464ZM 11.7353 30.6314L 21.6979 39.0095L 22.9851 37.4788L 13.0226 29.1007L 11.7353 30.6314ZM 21.6979 39.0095L 22.6308 39.794L 23.918 38.2633L 22.9851 37.4788L 21.6979 39.0095ZM 16.9205 44.8935L 23.0376 38.962L 21.6454 37.5262L 15.5283 43.4577L 16.9205 44.8935ZM 12.8924 28.9912L 12.3875 28.5667L 11.1003 30.0974L 11.6051 30.5219L 12.8924 28.9912ZM 12.336 28.5262C 11.6324 28.0218 10.763 27.7094 9.98362 27.6793C 9.21818 27.6738 8.3305 27.9183 7.52002 28.3202C 5.93702 29.1151 4.10225 30.6531 1.81955 32.6327L 3.1299 34.1437C 5.47095 32.1134 7.1048 30.7667 8.41748 30.1075C 9.05484 29.7825 9.47176 29.6577 9.94046 29.6788C 10.3952 29.6753 10.6894 29.7855 11.1518 30.1379L 12.336 28.5262ZM 12.3875 28.5667L 11.1243 27.5044L 9.83708 29.035L 11.1003 30.0974L 12.3875 28.5667ZM 11.1518 30.1379C 11.2935 30.2413 11.414 30.3429 11.5616 30.483L 12.936 29.0301C 12.7456 28.8506 12.5301 28.6694 12.336 28.5262L 11.1518 30.1379Z"/>
<path id="path6_fill" d="M 93.405 75.6878C 92.4611 74.8414 90.8413 73.2811 87.6368 74.4173C 83.7913 76.323 85.4426 81.4539 89.288 80.8186C 90.4682 79.6489 93.9957 77.3531 94.358 77.9959C 94.2911 77.0164 93.9692 76.1937 93.405 75.6878Z"/>
<path id="path7_fill" d="M 87.6368 74.4173C 90.8413 73.2811 92.4611 74.8414 93.405 75.6878C 93.9692 76.1937 94.2911 77.0164 94.358 77.9959C 94.3892 78.0512 94.3942 78.128 94.369 78.2287C 94.5178 78.8594 94.6331 83.3459 92.7641 84.5809C 92.2734 84.9051 91.5056 85.4406 90.9802 85.5884C 93.3104 84.9411 99.2015 81.9787 100.001 80.2511C 99.5993 76.6522 97.5532 73.6291 94.6868 71.8357C 92.1231 72.5117 89.5595 73.2811 87.6368 74.4173Z"/>
<path id="path8_fill" d="M 113.546 51.5266L 100.824 42.07L 73.4705 19.2531L 61.494 9.4908C 69.4315 17.3598 112.562 49.1384 88.5928 67.9942C 95.3337 63.5692 106.031 56.5333 113.546 51.5266Z"/>
<path id="path9_fill" d="M 23.2744 39.0287L 26.1356 41.4348L 31.0358 45.4858L 41.7415 54.3362C 18.4045 34.9333 14.8283 18.3573 26.0538 10.9856L 1.83248 26.8917C 2.24435 26.6741 2.67112 26.4805 3.11086 26.3129C 5.66253 25.34 8.39602 26.5166 10.4807 28.2697L 12.2488 29.7566C 12.2929 29.7917 12.3363 29.8282 12.3789 29.866L 22.3415 38.2441L 23.2744 39.0287Z"/>
<path id="path10_stroke" d="M 10.4807 28.2697L 11.1243 27.5044L 11.1243 27.5044L 10.4807 28.2697ZM 70.7017 78.2777L 70.0645 79.0485L 70.0702 79.0531L 70.0759 79.0577L 70.7017 78.2777ZM 0 28.0951L -0.625655 27.315L 0.548919 28.931L 0 28.0951ZM 32.888 6.49753L 32.3546 5.65171L 32.3468 5.65661L 32.3391 5.66166L 32.888 6.49753ZM 26.1356 41.4348L 25.492 42.2002L 25.4984 42.2055L 26.1356 41.4348ZM 23.2744 39.0287L 22.6308 39.794L 22.6308 39.794L 23.2744 39.0287ZM 40.6705 1.58901L 41.2039 2.43483L 41.2039 2.43483L 40.6705 1.58901ZM 100.824 42.07L 100.184 42.8379L 100.205 42.8559L 100.228 42.8726L 100.824 42.07ZM 12.2488 29.7566L 11.6051 30.5219L 11.6051 30.5219L 12.2488 29.7566ZM 3.11086 26.3129L 3.46712 27.2472L 3.46712 27.2472L 3.11086 26.3129ZM 52.7407 2.35575L 52.1039 3.12678L 52.1089 3.13087L 52.7407 2.35575ZM 97.0988 89.6065L 96.3912 88.8999L 96.3912 88.8999L 97.0988 89.6065ZM 80.8925 73.3302L 80.2008 72.608L 80.2008 72.608L 80.8925 73.3302ZM 87.6353 70.1933L 87.7443 71.1873L 87.6353 70.1933ZM 84.1607 85.2652L 84.4013 84.2946L 84.4013 84.2946L 84.1607 85.2652ZM 86.325 90.461L 85.7861 91.3034L 85.8292 91.3309L 85.8749 91.354L 86.325 90.461ZM 84.1607 89.0766L 83.5349 89.8565L 83.5767 89.8901L 83.6219 89.919L 84.1607 89.0766ZM 93.405 75.6878L 92.7374 76.4323L 92.7374 76.4323L 93.405 75.6878ZM 89.288 80.8186L 89.451 81.8053L 89.7655 81.7533L 89.992 81.5289L 89.288 80.8186ZM 94.369 78.2287L 93.3694 78.2555L 93.3721 78.3582L 93.3958 78.4583L 94.369 78.2287ZM 92.7641 84.5809L 93.3153 85.4152L 92.7641 84.5809ZM 94.6868 71.8357L 95.2172 70.988L 95.2172 70.988L 94.6868 71.8357ZM 91.8517 85.2652L 91.6081 84.2953L 91.5378 84.313L 91.4709 84.3406L 91.8517 85.2652ZM 89.9289 85.9004L 90.1652 86.8721L 89.9289 85.9004ZM 96.7896 89.9115L 97.486 90.6292L 97.486 90.6292L 96.7896 89.9115ZM 94.4027 91.1443L 94.5817 92.1282L 94.6678 92.1125L 94.7499 92.0821L 94.4027 91.1443ZM 92.9277 91.4173L 93.1861 92.3833L 92.9277 91.4173ZM 79.9693 74.2999L 79.1438 73.7355L 79.1438 73.7355L 79.9693 74.2999ZM 22.3415 38.2441L 21.6979 39.0095L 21.6979 39.0095L 22.3415 38.2441ZM 82.2445 72.1573L 81.6967 71.3207L 81.6736 71.3358L 81.6514 71.3522L 82.2445 72.1573ZM 113.546 51.5266L 114.143 50.7241L 114.143 50.7241L 113.546 51.5266ZM 73.4705 19.2531L 74.1111 18.4852L 74.1023 18.478L 73.4705 19.2531ZM 31.0358 45.4858L 31.6729 44.715L 31.6729 44.715L 31.0358 45.4858ZM 22.6308 39.794L 25.492 42.2001L 26.7792 40.6695L 23.918 38.2633L 22.6308 39.794ZM 33.4215 7.34335L 41.2039 2.43483L 40.137 0.743192L 32.3546 5.65171L 33.4215 7.34335ZM 12.8924 28.9912L 11.1243 27.5044L 9.83708 29.035L 11.6051 30.5219L 12.8924 28.9912ZM 2.7546 25.3785C 2.28625 25.5576 1.80402 25.7763 1.36532 26.0076L 2.29964 27.7759C 2.68468 27.5719 3.05598 27.4035 3.46712 27.2472L 2.7546 25.3785ZM 1.28356 26.0559L -0.548919 27.2592L 0.548919 28.931L 2.3814 27.7276L 1.28356 26.0559ZM 11.626 30.539C 11.6593 30.5654 11.6825 30.5849 11.7158 30.6145L 13.0421 29.1176C 12.9901 29.0716 12.9265 29.018 12.8715 28.9741L 11.626 30.539ZM 0.625655 28.8752C 1.15703 28.4476 1.69105 28.0962 2.29964 27.7759L 1.36532 26.0076C 0.673005 26.3746 -0.0196329 26.8304 -0.625655 27.315L 0.625655 28.8752ZM 11.6051 30.5219L 11.7353 30.6314L 13.0226 29.1007L 12.8924 28.9912L 11.6051 30.5219ZM 11.1243 27.5044C 8.9369 25.6648 5.81579 24.2113 2.7546 25.3785L 3.46712 27.2472C 5.50927 26.4686 7.85515 27.3683 9.83708 29.035L 11.1243 27.5044ZM 41.2039 2.43483C 44.6026 0.291247 49.0105 0.571825 52.1039 3.12677L 53.3775 1.58473C 49.6171 -1.52112 44.2652 -1.86052 40.137 0.743192L 41.2039 2.43483ZM 99.0073 80.3621C 99.38 83.6993 98.4971 86.7911 96.3912 88.8999L 97.8064 90.3131C 100.431 87.6851 101.42 83.9432 100.995 80.1402L 99.0073 80.3621ZM 81.5842 74.0523C 83.2382 72.4519 85.2764 71.4427 87.7443 71.1873L 87.5263 69.1992C 84.7165 69.5227 82.0907 70.8138 80.2008 72.608L 81.5842 74.0523ZM 84.4013 84.2946C 83.6359 84.1049 82.7726 83.49 82.023 82.5584C 81.2583 81.618 80.7407 80.5681 80.547 79.4708L 78.5804 79.8348C 78.8417 81.1957 79.5707 82.6914 80.4648 83.8123C 81.374 84.9421 82.5817 85.9042 83.9202 86.2359L 84.4013 84.2946ZM 86.8638 89.6186L 84.6996 88.2342L 83.6219 89.919L 85.7861 91.3034L 86.8638 89.6186ZM 84.7866 88.2966L 71.3275 77.4978L 70.0759 79.0577L 83.5349 89.8565L 84.7866 88.2966ZM 94.0726 74.9433C 93.6091 74.5278 92.8232 73.8156 91.7264 73.3753C 90.5637 72.9298 89.1114 72.8334 87.3026 73.4748L 87.971 75.3598C 89.3667 74.865 90.3266 74.9807 91.0108 75.2429C 91.7611 75.5103 92.257 76.0014 92.7374 76.4323L 94.0726 74.9433ZM 87.1927 73.5213C 84.8365 74.689 84.0715 76.9415 84.617 78.8461C 85.1589 80.7384 86.9898 82.2118 89.451 81.8053L 89.125 79.832C 87.7408 80.0607 86.8234 79.2862 86.5397 78.2955C 86.2595 77.3171 86.5916 76.0513 88.0808 75.3133L 87.1927 73.5213ZM 92.7374 76.4323C 93.0416 76.7051 93.3041 77.2399 93.3603 78.064L 95.3557 77.9278C 95.2782 76.7929 94.8967 75.6823 94.0726 74.9433L 92.7374 76.4323ZM 93.3603 78.064C 93.3649 78.1303 93.3676 78.1872 93.3694 78.2555L 95.3687 78.2019C 95.3662 78.1131 95.3616 78.0148 95.3557 77.9278L 93.3603 78.064ZM 89.992 81.5289C 90.5283 80.9936 91.6079 80.2006 92.6413 79.5868C 93.1518 79.2823 93.5768 79.0618 93.9157 78.9428C 94.065 78.8879 94.1398 78.889 94.1111 78.8843C 94.0953 78.8847 94.0068 78.8863 93.8864 78.8387C 93.7486 78.7841 93.5913 78.6721 93.4869 78.4869L 95.2291 77.5048C 94.9084 76.9359 94.3218 76.878 94.058 76.885C 93.7673 76.8927 93.4779 76.9753 93.2421 77.0597C 92.7808 77.227 92.1823 77.533 91.6182 77.8683C 90.5022 78.5341 89.228 79.474 88.5841 80.1084L 89.992 81.5289ZM 93.4869 78.4869C 93.3404 78.2271 93.3936 78.0071 93.3989 77.9861L 95.3392 78.4713C 95.3948 78.2488 95.438 77.8753 95.2291 77.5048L 93.4869 78.4869ZM 87.7443 71.1873C 90.2585 70.8939 92.1531 71.4175 94.1564 72.6835L 95.2172 70.988C 92.9552 69.5854 90.4152 68.9 87.5263 69.1992L 87.7443 71.1873ZM 94.1564 72.6835C 96.7771 74.3231 98.6411 77.0817 99.0073 80.3621L 100.995 80.1402C 100.558 76.2227 98.3294 72.9351 95.2172 70.988L 94.1564 72.6835ZM 88.1455 75.2782C 89.9606 74.1971 92.3944 73.4742 94.9417 72.8027L 94.4318 70.8688C 91.8519 71.5491 89.1585 72.365 87.128 73.5564L 88.1455 75.2782ZM 91.8517 85.2652C 91.4709 84.3406 91.4709 84.3405 91.471 84.3405C 91.471 84.3405 91.471 84.3405 91.4711 84.3405C 91.471 84.3405 91.4712 84.3404 91.4712 84.3404C 91.4712 84.3404 91.4712 84.3404 91.4711 84.3404C 91.4708 84.3406 91.4706 84.3407 91.47 84.3409C 91.4684 84.3416 91.4666 84.3423 91.4635 84.3436C 91.4567 84.3463 91.4477 84.35 91.4347 84.3552C 91.4072 84.3662 91.3697 84.3811 91.3191 84.4008C 91.2152 84.4413 91.0746 84.4947 90.9012 84.5567C 90.5483 84.6832 90.1179 84.8262 89.6927 84.9287L 90.1652 86.8721C 90.6683 86.749 91.1992 86.5743 91.5756 86.4396C 91.7669 86.3711 91.9329 86.308 92.0444 86.2647C 92.1016 86.2424 92.149 86.2236 92.1796 86.2113C 92.1955 86.2049 92.2088 86.1995 92.217 86.1962C 92.2215 86.1944 92.2254 86.1928 92.2276 86.1919C 92.2289 86.1913 92.2301 86.1908 92.2308 86.1906C 92.2312 86.1904 92.2316 86.1902 92.2318 86.1901C 92.232 86.1901 92.2321 86.19 92.2322 86.19C 92.2322 86.19 92.2323 86.1899 92.2323 86.1899C 92.2324 86.1899 92.2325 86.1899 91.8517 85.2652ZM 89.6927 84.9287C 88.2395 85.282 86.4209 84.795 84.4013 84.2946L 83.9202 86.2359C 85.7253 86.6831 88.1202 87.3692 90.1652 86.8721L 89.6927 84.9287ZM 96.3912 88.8999C 96.2873 89.0039 96.1899 89.1 96.0932 89.1938L 97.486 90.6292C 97.5885 90.5297 97.6971 90.4226 97.8064 90.3131L 96.3912 88.8999ZM 96.0932 89.1938C 95.2064 90.0543 94.7846 89.9365 94.0555 90.2065L 94.7499 92.0821C 95.0126 91.9848 96.1963 91.8806 97.486 90.6292L 96.0932 89.1938ZM 94.4027 91.1443C 94.2236 90.1605 94.2236 90.1605 94.2236 90.1605C 94.2236 90.1605 94.2236 90.1605 94.2236 90.1605C 94.2235 90.1605 94.2234 90.1605 94.2234 90.1605C 94.2232 90.1606 94.2229 90.1606 94.2226 90.1607C 94.2219 90.1608 94.2209 90.161 94.2195 90.1612C 94.2168 90.1617 94.2128 90.1625 94.2075 90.1634C 94.1971 90.1653 94.1817 90.1681 94.1622 90.1717C 94.1232 90.1788 94.0673 90.189 94.0001 90.2012C 93.8659 90.2257 93.686 90.2586 93.5046 90.2919C 93.1874 90.3501 92.7472 90.4304 92.6694 90.4512L 93.1861 92.3833C 93.1502 92.3929 93.1858 92.3849 93.364 92.3517C 93.5037 92.3256 93.685 92.2922 93.8657 92.259C 94.0463 92.2259 94.2252 92.1932 94.3592 92.1687C 94.4262 92.1565 94.4818 92.1464 94.5208 92.1393C 94.5402 92.1357 94.5555 92.1329 94.5659 92.131C 94.5711 92.1301 94.575 92.1294 94.5777 92.1289C 94.579 92.1286 94.5801 92.1285 94.5807 92.1283C 94.5811 92.1283 94.5813 92.1282 94.5815 92.1282C 94.5816 92.1282 94.5816 92.1282 94.5817 92.1282C 94.5817 92.1282 94.5817 92.1282 94.5817 92.1282C 94.5817 92.1282 94.5817 92.1282 94.4027 91.1443ZM 94.8616 92.0328L 97.2485 90.8L 96.3307 89.023L 93.9438 90.2558L 94.8616 92.0328ZM 80.7948 74.8644C 80.848 74.7835 80.9066 74.7184 81.0326 74.5892L 79.598 73.1956C 79.4352 73.3637 79.2662 73.5595 79.1438 73.7355L 80.7948 74.8644ZM 81.0326 74.5892C 81.1733 74.444 81.3509 74.2758 81.5842 74.0523L 80.2008 72.608C 79.9709 72.8282 79.7675 73.0215 79.598 73.1956L 81.0326 74.5892ZM 85.8749 91.354C 87.5407 92.1886 88.9459 92.593 90.0818 92.7028C 91.2624 92.8029 92.2979 92.6201 93.1861 92.3833L 92.6694 90.4512C 91.8573 90.6692 91.172 90.8049 90.2666 90.7114C 89.3165 90.6277 88.2705 90.3265 86.775 89.568L 85.8749 91.354ZM 80.3611 76.7464C 80.4429 76.3171 80.4808 75.9123 80.5471 75.5708C 80.6108 75.2308 80.6528 75.0505 80.7948 74.8644L 79.1438 73.7355C 78.8466 74.1917 78.6673 74.7588 78.5826 75.1959C 78.5006 75.6316 78.4631 76.0339 78.3975 76.3667L 80.3611 76.7464ZM 11.7353 30.6314L 21.6979 39.0095L 22.9851 37.4788L 13.0226 29.1007L 11.7353 30.6314ZM 21.6979 39.0095L 22.6308 39.794L 23.918 38.2633L 22.9851 37.4788L 21.6979 39.0095ZM 81.6514 71.3522C 81.0238 71.8146 80.505 72.2223 80.1529 72.5357C 79.9687 72.7005 79.7901 72.879 79.6738 73.0175C 79.6076 73.0986 79.5204 73.2236 79.4694 73.3136C 79.4145 73.4146 79.3153 73.6221 79.3153 73.8924L 81.3153 73.8924C 81.3153 74.1076 81.238 74.2479 81.226 74.2698C 81.234 74.2588 81.1951 74.3151 81.2135 74.294C 81.2666 74.2281 81.3397 74.1566 81.484 74.0284C 81.7887 73.756 82.2345 73.4065 82.8375 72.9625L 81.6514 71.3522ZM 99.0937 79.8311C 99.0073 80.0176 98.6743 80.3987 97.9784 80.9255C 97.3135 81.4301 96.4884 81.9449 95.5783 82.4511C 93.7467 83.4705 91.7695 84.3313 90.7125 84.6249L 91.2478 86.5519C 92.521 86.1982 94.6545 85.2541 96.551 84.1986C 97.5049 83.6673 98.4481 83.0771 99.1855 82.5202C 99.892 81.9854 100.595 81.3485 100.909 80.6712L 99.0937 79.8311ZM 90.7093 84.6258C 90.704 84.6273 90.7439 84.6167 90.736 84.6187C 90.7448 84.6165 90.7707 84.6101 90.8045 84.6041C 90.8205 84.6013 90.8548 84.5956 90.8987 84.5921C 90.9136 84.5909 91.0496 84.5771 91.2148 84.6173C 91.3192 84.6489 91.5772 84.7883 91.7145 84.9124C 91.865 85.1272 91.9778 85.606 91.9466 85.8374C 91.9001 85.9759 91.7865 86.1774 91.7332 86.2444C 91.697 86.2838 91.6323 86.3451 91.6049 86.368C 91.5519 86.4105 91.5064 86.438 91.4899 86.4479C 91.4681 86.4609 91.45 86.4705 91.4394 86.476C 91.4183 86.4869 91.4014 86.4947 91.3942 86.498C 91.4043 86.4935 91.358 86.5136 91.3631 86.5116C 91.3694 86.509 91.3502 86.5167 91.3575 86.5139C 91.3759 86.507 91.4055 86.4961 91.4465 86.4811C 91.5294 86.4507 91.6452 86.4086 91.7619 86.3661C 91.8786 86.3236 91.9974 86.2803 92.0827 86.2487C 92.1263 86.2325 92.1675 86.217 92.1943 86.2066C 92.2114 86.1999 92.2466 86.1853 92.2712 86.1742C 92.2854 86.1675 92.3247 86.1476 92.3504 86.1334C 92.3647 86.1252 92.4186 86.0945 92.4802 86.0451C 92.5078 86.0229 92.5785 85.9646 92.6491 85.8722C 92.6832 85.8248 92.7531 85.704 92.7857 85.6297C 92.8208 85.5232 92.8547 85.267 92.8443 85.1206C 92.8071 84.9597 92.6641 84.6774 92.5655 84.5613C 92.477 84.4819 92.3042 84.3714 92.2253 84.3359C 92.07 84.2739 91.9378 84.2673 91.8973 84.2656C 91.7981 84.2613 91.7206 84.2735 91.7052 84.2758C 91.673 84.2812 91.6249 84.2912 91.6081 84.2953L 92.0953 86.2351C 92.0895 86.2365 92.0519 86.2462 92.0027 86.2536C 91.9878 86.2558 91.9107 86.268 91.8117 86.2637C 91.7714 86.262 91.6393 86.2554 91.484 86.1935C 91.4051 86.158 91.2324 86.0475 91.1439 85.9681C 91.0453 85.852 90.9024 85.5698 90.8652 85.4089C 90.8547 85.2625 90.8887 85.0064 90.9237 84.8998C 90.9563 84.8256 91.0262 84.7049 91.0602 84.6575C 91.1308 84.5651 91.2015 84.5069 91.2289 84.4849C 91.2903 84.4356 91.3439 84.4051 91.3577 84.3972C 91.3958 84.3754 91.4269 84.3611 91.4327 84.3585C 91.4609 84.3454 91.4817 84.3377 91.4669 84.3435C 91.4521 84.3493 91.427 84.3587 91.3876 84.3733C 91.3071 84.4032 91.1938 84.4445 91.0777 84.4868C 90.9616 84.5291 90.8439 84.5718 90.7585 84.6031C 90.7153 84.619 90.6769 84.6331 90.6518 84.6426C 90.6373 84.6481 90.6152 84.6566 90.6003 84.6627C 90.5932 84.6657 90.5755 84.6733 90.5642 84.6784C 90.555 84.6826 90.5317 84.6939 90.5174 84.7012C 90.5068 84.7068 90.4813 84.7209 90.4665 84.7295C 90.4444 84.7431 90.3864 84.7826 90.3512 84.8096C 90.3238 84.8325 90.259 84.8938 90.2229 84.9333C 90.1695 85.0003 90.0559 85.2018 90.0094 85.3403C 89.9781 85.5717 90.091 86.0506 90.2415 86.2654C 90.3788 86.3895 90.6369 86.5289 90.7412 86.5605C 90.9065 86.6007 91.0425 86.5869 91.0576 86.5857C 91.0865 86.583 91.1338 86.5767 91.1522 86.5736C 91.207 86.564 91.2509 86.5511 91.251 86.551L 90.7093 84.6258ZM 114.143 50.7241L 101.421 41.2675L 100.228 42.8726L 112.949 52.3292L 114.143 50.7241ZM 112.949 52.3292L 113.046 52.4009L 114.239 50.7958L 114.143 50.7241L 112.949 52.3292ZM 92.0951 86.2351C 92.0937 86.2355 92.0413 86.2494 91.9739 86.2575C 91.9535 86.26 91.9163 86.2639 91.8693 86.2647C 91.8362 86.2652 91.7295 86.2662 91.5985 86.2316C 91.5299 86.2108 91.3698 86.1397 91.2818 86.0849C 91.1684 85.9927 90.9708 85.7338 90.9009 85.5674C 90.8626 85.3949 90.871 85.0815 90.9056 84.948C 90.9408 84.8576 91.0196 84.7139 91.0583 84.6592C 91.1357 84.5576 91.2147 84.4953 91.2404 84.4753C 91.2761 84.4477 91.3064 84.428 91.3234 84.4174C 91.3576 84.396 91.3855 84.3815 91.3968 84.3757C 91.422 84.3628 91.4418 84.354 91.4471 84.3517C 91.4677 84.3426 91.4812 84.3377 91.4681 84.3427C 91.4516 84.3491 91.4247 84.3592 91.3846 84.374C 91.3028 84.4042 91.1885 84.4458 91.0722 84.4882C 90.956 84.5305 90.8383 84.5733 90.7534 84.6045C 90.7104 84.6203 90.6714 84.6348 90.6461 84.6444C 90.631 84.6502 90.6045 84.6607 90.5863 84.6684C 90.5765 84.6726 90.5503 84.6846 90.5332 84.6929C 90.518 84.7007 90.4765 84.7234 90.4504 84.739C 90.4285 84.753 90.373 84.7922 90.3401 84.8184C 90.3156 84.8392 90.2595 84.8928 90.2286 84.9261C 90.1856 84.9781 90.0922 85.1237 90.0481 85.2197C 90 85.3776 89.9928 85.7638 90.056 85.9776C 90.1588 86.1634 90.4154 86.4161 90.5447 86.4905C 90.6315 86.5273 90.7808 86.5695 90.8411 86.5797C 90.8823 86.5845 90.9535 86.5887 90.9833 86.589C 91.0834 86.5884 91.1619 86.5719 91.1684 86.5707C 91.1952 86.5651 91.2344 86.5556 91.2478 86.5519L 90.7125 84.6249C 90.7155 84.6241 90.7468 84.6152 90.7877 84.6072C 90.7937 84.6061 90.8719 84.5896 90.9718 84.589C 91.0016 84.5893 91.0727 84.5936 91.1139 84.5984C 91.1741 84.6085 91.3234 84.6508 91.4102 84.6875C 91.5395 84.7619 91.796 85.0146 91.8988 85.2004C 91.962 85.4142 91.9548 85.8003 91.9067 85.9582C 91.8626 86.0542 91.7692 86.1997 91.7262 86.2517C 91.6954 86.285 91.6393 86.3386 91.6149 86.3594C 91.5655 86.4003 91.523 86.4273 91.5049 86.4385C 91.4654 86.463 91.433 86.4791 91.4232 86.484C 91.3983 86.4964 91.3786 86.5048 91.3746 86.5065C 91.3566 86.5142 91.3452 86.5183 91.3585 86.5133C 91.3754 86.5068 91.4032 86.4965 91.4435 86.4817C 91.5252 86.4516 91.64 86.4099 91.7565 86.3675C 91.873 86.3251 91.9917 86.2818 92.0775 86.2501C 92.1212 86.234 92.1618 86.2188 92.1883 86.2086C 92.2045 86.2023 92.234 86.1904 92.2543 86.1816C 92.2647 86.1769 92.2919 86.1641 92.3093 86.1554C 92.3238 86.1478 92.3612 86.1268 92.3841 86.1129C 92.4015 86.1018 92.4433 86.0729 92.4674 86.0547C 92.4933 86.0346 92.5723 85.9723 92.6497 85.8706C 92.6885 85.8159 92.7674 85.6722 92.8025 85.5818C 92.8371 85.4483 92.8456 85.1348 92.8072 84.9623C 92.7373 84.7959 92.5398 84.5369 92.4263 84.4447C 92.3383 84.3899 92.1782 84.3188 92.1095 84.298C 91.9784 84.2633 91.8716 84.2644 91.8383 84.2649C 91.8071 84.2659 91.7546 84.2697 91.7333 84.2721C 91.6651 84.2803 91.6114 84.2945 91.6083 84.2953L 92.0951 86.2351ZM 92.2128 83.7466C 91.9611 83.9129 91.6632 84.1168 91.3677 84.2951C 91.0737 84.4733 90.8718 84.5859 90.7093 84.6258L 91.2511 86.551C 91.614 86.4431 92.0587 86.214 92.4026 86.0065C 92.7451 85.7989 93.0764 85.573 93.3153 85.4152L 92.2128 83.7466ZM 93.3958 78.4583C 93.3876 78.4296 93.4109 78.548 93.4222 78.7059C 93.4348 78.8747 93.4429 79.072 93.4439 79.3184C 93.4466 79.8218 93.4205 80.4098 93.3325 81.042C 93.246 81.678 93.1205 82.2504 92.9001 82.7741C 92.6901 83.2821 92.4482 83.591 92.2128 83.7466L 93.3153 85.4152C 94.0144 84.9533 94.459 84.2383 94.7484 83.538C 95.0274 82.8534 95.2142 82.0333 95.3139 81.3144C 95.4122 80.5917 95.4462 79.8626 95.4438 79.3088C 95.4413 78.7755 95.4079 78.277 95.3423 77.9991L 93.3958 78.4583ZM 82.2445 72.1573C 82.7923 72.9939 82.7923 72.9939 82.7923 72.9939C 82.7923 72.9939 82.7923 72.9939 82.7924 72.9939C 82.7925 72.9938 82.7926 72.9937 82.7927 72.9936C 82.793 72.9934 82.7935 72.9931 82.7941 72.9927C 82.7954 72.9919 82.7972 72.9907 82.7997 72.9891C 82.8046 72.9858 82.812 72.981 82.8218 72.9746C 82.8414 72.9618 82.8706 72.9426 82.9091 72.9174C 82.9861 72.867 83.1004 72.7921 83.2494 72.6945C 83.5474 72.4993 83.9844 72.213 84.5402 71.8486C 85.6519 71.1199 87.2392 70.079 89.1416 68.8301L 88.0441 67.1582C 86.1421 68.4068 84.5553 69.4474 83.4438 70.1759C 82.8881 70.5402 82.4513 70.8264 82.1534 71.0215C 82.0045 71.1191 81.8903 71.1939 81.8133 71.2443C 81.7748 71.2695 81.7457 71.2886 81.7261 71.3014C 81.7163 71.3078 81.709 71.3126 81.7041 71.3159C 81.7016 71.3175 81.6997 71.3187 81.6985 71.3195C 81.6979 71.3199 81.6974 71.3202 81.6971 71.3204C 81.697 71.3205 81.6969 71.3206 81.6968 71.3206C 81.6967 71.3207 81.6967 71.3207 81.6967 71.3207C 81.6967 71.3207 81.6967 71.3207 82.2445 72.1573ZM 89.1416 68.8301C 95.8828 64.4049 106.583 57.3672 114.101 52.3588L 112.992 50.6944C 105.479 55.6995 94.7845 62.7334 88.0441 67.1582L 89.1416 68.8301ZM 72.83 20.021L 100.184 42.8379L 101.465 41.3021L 74.1111 18.4852L 72.83 20.021ZM 52.1089 3.13087L 60.8622 10.2659L 62.1258 8.71568L 53.3725 1.58063L 52.1089 3.13087ZM 60.8622 10.2659L 72.8387 20.0282L 74.1023 18.478L 62.1258 8.71568L 60.8622 10.2659ZM 89.2111 68.7801C 95.4769 63.851 97.4239 57.9806 96.5773 51.8676C 95.7443 45.8528 92.2233 39.6978 87.7976 34.0084C 78.9764 22.6684 66.0189 12.5685 62.1981 8.78063L 60.79 10.201C 64.9066 14.2821 77.483 24.0059 86.219 35.2364C 90.5719 40.8323 93.8355 46.6492 94.5962 52.142C 95.3433 57.5366 93.6932 62.7095 87.9746 67.2082L 89.2111 68.7801ZM 25.4984 42.2055L 30.3986 46.2565L 31.6729 44.715L 26.7728 40.6641L 25.4984 42.2055ZM 25.5049 10.1497L 1.28356 26.0559L 2.3814 27.7276L 26.6027 11.8215L 25.5049 10.1497ZM 26.6192 11.8104C 28.5939 10.4565 30.8854 9.00898 33.437 7.33341L 32.3391 5.66166C 29.8023 7.32762 27.4942 8.78601 25.4884 10.1608L 26.6192 11.8104ZM 26.6027 11.8215L 33.437 7.33341L 32.3391 5.66166L 25.5049 10.1497L 26.6027 11.8215ZM 30.3986 46.2565L 41.1043 55.107L 42.3786 53.5655L 31.6729 44.715L 30.3986 46.2565ZM 41.1043 55.107L 70.0645 79.0485L 71.3388 77.507L 42.3786 53.5655L 41.1043 55.107ZM 25.5049 10.1497C 22.5692 12.0937 20.4782 14.7867 19.5306 17.85C 18.5795 20.9823 18.7341 24.5648 19.9847 28.4552C 22.477 36.2082 29.3712 45.3517 41.1022 55.1052L 42.3808 53.5673C 30.7748 43.9178 24.2125 35.0719 21.8888 27.8432C 20.7314 24.2428 20.6381 21.0864 21.4444 18.4311C 22.2541 15.7067 23.9257 13.5634 26.6027 11.8215L 25.5049 10.1497Z"/>
</defs>
</svg>
