<svg width="153" height="133" viewBox="0 0 153 133" version="1.1" xmlns="http://www.w3.org/2000/svg" xmlns:xlink="http://www.w3.org/1999/xlink">
<title>portfolio-icon</title>
<desc>Created using Figma</desc>
<g id="Canvas" transform="translate(77 155)">
<g id="portfolio-icon">
<g id="Ellipse">
<use xlink:href="#path0_fill" transform="translate(-66 -147)" fill="#0CCE6B"/>
</g>
<g id="open-book">
<use xlink:href="#path1_fill" transform="matrix(-0.351554 -0.936168 0.936168 -0.351554 -54.8535 -28.0444)" fill="#1C1C1C"/>
<use xlink:href="#path2_fill" transform="matrix(-0.351554 -0.936168 0.936168 -0.351554 -54.8535 -28.0444)" fill="#1C1C1C"/>
<use xlink:href="#path3_fill" transform="matrix(-0.351554 -0.936168 0.936168 -0.351554 -54.8535 -28.0444)" fill="#1C1C1C"/>
<use xlink:href="#path4_fill" transform="matrix(-0.351554 -0.936168 0.936168 -0.351554 -54.8535 -28.0444)" fill="#1C1C1C"/>
<use xlink:href="#path5_stroke" transform="matrix(-0.351554 -0.936168 0.936168 -0.351554 -54.8535 -28.0444)" fill="#1C1C1C"/>
</g>
</g>
</g>
<defs>
<path id="path0_fill" d="M 125 62.5C 125 97.0178 97.0178 125 62.5 125C 27.9822 125 0 97.0178 0 62.5C 0 27.9822 27.9822 0 62.5 0C 97.0178 0 125 27.9822 125 62.5Z"/>
<path id="path1_fill" d="M 1.03494 5.13374C 0.367573 4.47501 -0.0997336 3.31643 0.0182541 3.39915L 0.020608 117.296C 0.0206223 117.986 0.258394 118.655 0.693872 119.19L 23.9948 147.818C 24.2951 148.187 24.8923 147.968 24.8825 147.492L 24.7418 140.663L 23.8143 40.5846C 23.8108 40.2025 23.6978 39.8294 23.4889 39.5094L 21.9116 37.0947L 1.03494 5.13374Z"/>
<path id="path2_fill" d="M 94.2113 12.7098C 94.22 12.4526 94.0322 12.2309 93.7771 12.1972L 20.3044 2.49332C 19.2242 2.49332 18.7932 2.4632 18.4263 2.43756C 18.0183 2.40906 17.6897 2.38609 16.636 2.41625L 27.6485 5.13374C 29.7988 5.72482 33.0828 6.56157 36.3667 7.39832C 39.6507 8.23507 42.9346 9.07182 45.0849 9.6629C 47.4715 10.3189 50.1005 10.739 52.802 11.1706C 56.9971 11.8409 61.3669 12.539 65.2745 14.1921C 73.8398 17.8154 82.711 18.7212 89.135 14.1921C 89.135 15.2784 89.1423 16.3181 89.1494 17.3207L 89.1494 17.3265C 89.1876 22.7417 89.2182 27.0726 88.0475 31.7985C 86.6596 37.4009 84.4787 66.1143 85.6683 80.314C 85.6683 91.8667 85.6683 106.347 86.8579 111.08C 85.6683 113.721 81.4377 114.917 79.0711 115.303L 90.0415 118.197C 90.3519 118.279 90.658 118.051 90.6688 117.73L 93.4711 34.6557L 94.0191 18.4074L 94.2113 12.7098Z"/>
<path id="path3_fill" fill-rule="evenodd" d="M 47.4121 31.4028C 47.43 31.4722 47.4311 31.5398 47.4165 31.6053L 47.4121 31.4028ZM 4.70577 4.22791C 5.16826 3.02312 5.51829 3.1789 5.84512 3.32436C 5.98387 3.38611 6.11844 3.446 6.25566 3.39914C 6.83937 2.81778 7.68993 3.02924 8.38566 3.20222C 8.75199 3.29329 9.07539 3.3737 9.29432 3.32208C 9.77288 2.58418 10.1048 2.54326 10.8859 2.44695C 10.9627 2.43749 11.0438 2.42749 11.1297 2.41625C 11.86 2.44716 12.5408 2.56119 13.1774 2.66784C 14.506 2.89039 15.6424 3.08075 16.636 2.41625C 17.6897 2.38609 18.0183 2.40906 18.4263 2.43756C 18.7932 2.4632 19.2242 2.49332 20.3044 2.49332C 8.38267 -3.3721 0.0615004 2.88173 0.0182541 3.39915C -0.0997336 3.31643 0.367573 4.47501 1.03494 5.13374C 1.06754 5.11443 1.11543 5.07183 1.17491 5.01891C 1.42822 4.79356 1.89184 4.3811 2.28137 4.78343C 2.55687 3.85339 2.89641 4.18388 3.141 4.42196C 3.26046 4.53824 3.35728 4.63247 3.41292 4.54703C 3.53618 3.71263 4.06442 3.96676 4.41567 4.13575C 4.54764 4.19924 4.65463 4.25071 4.70577 4.22791Z"/>
<path id="path4_fill" d="M 99.9344 19.1666C 99.9565 18.884 99.7395 18.6396 99.4562 18.6281L 94.0191 18.4074L 93.4711 34.6557L 98.1946 35.0259C 98.47 35.0475 98.7107 34.8417 98.7322 34.5664L 99.9344 19.1666Z"/>
<path id="path5_stroke" d="M 23.9948 147.818L 23.6071 148.134L 23.9948 147.818ZM 93.7771 12.1972L 93.7116 12.6929L 93.7771 12.1972ZM 90.0415 118.197L 89.914 118.681L 90.0415 118.197ZM 16.636 2.41625L 16.6217 1.91645L 16.4777 1.92057L 16.358 2.00062L 16.636 2.41625ZM 89.135 14.1921L 89.635 14.1921L 89.635 13.2278L 88.8469 13.7834L 89.135 14.1921ZM 88.0475 31.7985L 88.5328 31.9187L 88.5328 31.9187L 88.0475 31.7985ZM 85.6683 80.314L 86.1683 80.314L 86.1683 80.293L 86.1666 80.2722L 85.6683 80.314ZM 65.2745 14.1921L 65.0797 14.6525L 65.0797 14.6525L 65.2745 14.1921ZM 45.0849 9.6629L 44.9524 10.145L 44.9524 10.145L 45.0849 9.6629ZM 27.6485 5.13374L 27.781 4.65146L 27.7683 4.6483L 27.6485 5.13374ZM 11.1297 2.41625L 11.1509 1.91669L 11.1077 1.91487L 11.0649 1.92047L 11.1297 2.41625ZM 82.711 23.2503L 83.2103 23.2779L 83.2446 22.6558L 82.6299 22.757L 82.711 23.2503ZM 77.3412 120.546L 77.3412 121.046L 77.8144 121.046L 77.8404 120.574L 77.3412 120.546ZM 74.7009 30.1169L 75.2006 30.1328L 75.2009 30.1249L 75.2009 30.1169L 74.7009 30.1169ZM 71.6985 124.703L 71.2517 124.928L 72.1982 124.719L 71.6985 124.703ZM 63.0705 31.4028L 63.5217 31.6184L 64.0283 30.5585L 62.9132 30.9282L 63.0705 31.4028ZM 39.2745 32.359L 39.3972 31.8743L 38.7513 31.7108L 38.7748 32.3766L 39.2745 32.359ZM 42.8433 131.196L 42.3438 131.22L 42.3667 131.696L 42.8433 131.696L 42.8433 131.196ZM 0.693872 119.19L 0.306082 119.505L 0.693872 119.19ZM 56.0974 16.0037L 56.3585 15.5773L 56.3585 15.5773L 56.0974 16.0037ZM 57.0152 23.2503L 57.0963 22.757L 57.0881 22.7556L 57.0799 22.7545L 57.0152 23.2503ZM 45.0849 25.6328L 45.5467 25.4411L 45.5467 25.4411L 45.0849 25.6328ZM 21.5178 32.359L 21.9321 32.0791L 20.8609 30.4931L 21.0195 32.4004L 21.5178 32.359ZM 18.7305 24.6986L 19.1468 24.4217L 19.1468 24.4217L 18.7305 24.6986ZM 36.8953 40.0816L 37.3933 40.1271L 37.4294 39.7319L 37.0527 39.607L 36.8953 40.0816ZM 35.7058 81.4973L 36.2058 81.4973L 36.2058 81.4616L 36.2007 81.4262L 35.7058 81.4973ZM 21.5178 22.332L 21.7822 21.9077L 21.7597 21.8937L 21.7359 21.8821L 21.5178 22.332ZM 30.5233 31.4028L 31.0212 31.3562L 31.0178 31.3201L 31.0092 31.2849L 30.5233 31.4028ZM 11.1297 11.6823L 11.5107 11.3585L 11.4912 11.3356L 11.4692 11.3152L 11.1297 11.6823ZM 36.8953 27.0652L 36.719 27.5331L 36.7377 27.5402L 36.757 27.5457L 36.8953 27.0652ZM 24.9995 17.5988L 25.1919 17.1373L 25.1919 17.1373L 24.9995 17.5988ZM 16.636 12.8656L 16.3424 13.2703L 16.3424 13.2703L 16.636 12.8656ZM 30.5233 16.0037L 30.8089 15.5933L 30.7824 15.5749L 30.7538 15.56L 30.5233 16.0037ZM 43.7405 17.5988L 43.6264 18.0856L 43.6264 18.0856L 43.7405 17.5988ZM 28.0979 143.21L 27.9769 143.695L 28.0979 143.21ZM 24.7418 140.663L 24.2418 140.667L 24.2419 140.673L 24.7418 140.663ZM 38.0849 138.296L 37.9643 138.781L 38.672 138.957L 38.581 138.234L 38.0849 138.296ZM 30.2009 133.563L 29.7009 133.571L 29.7012 133.58L 30.2009 133.563ZM 47.6016 127.646L 47.2058 127.341L 47.2058 127.341L 47.6016 127.646ZM 36.7354 119.363L 36.236 119.387L 36.7354 119.363ZM 64.454 127.646L 64.6114 128.121L 65.383 127.865L 64.8067 127.292L 64.454 127.646ZM 71.9431 116.996L 71.4434 116.981L 71.4434 116.981L 71.9431 116.996ZM 86.8579 111.08L 87.3138 111.285L 87.3852 111.127L 87.3428 110.958L 86.8579 111.08ZM 79.0711 115.303L 78.9907 114.809L 79.0711 115.303ZM 23.8143 40.5846L 24.3143 40.58L 23.8143 40.5846ZM 49.2024 123.601L 49.7023 123.609L 49.7023 123.609L 49.2024 123.601ZM 89.1494 17.3265L 89.6494 17.323L 89.6494 17.3219L 89.1494 17.3265ZM 52.802 11.1706L 52.8809 10.6769L 52.8809 10.6769L 52.802 11.1706ZM 36.3667 7.39832L 36.4902 6.9138L 36.4902 6.9138L 36.3667 7.39832ZM 18.4263 2.43756L 18.3915 2.93635L 18.3915 2.93635L 18.4263 2.43756ZM 47.7576 13.6308L 47.6484 14.1187L 47.6484 14.1187L 47.7576 13.6308ZM 13.1774 2.66784L 13.0948 3.16096L 13.0948 3.16096L 13.1774 2.66784ZM 89.1494 17.3207L 88.6494 17.3243L 88.6494 17.3253L 89.1494 17.3207ZM 51.0375 20.7471L 50.8006 21.1873L 50.8006 21.1873L 51.0375 20.7471ZM 26.6299 10.8225L 26.8313 10.3648L 26.8313 10.3648L 26.6299 10.8225ZM 10.8859 2.44695L 10.8248 1.9507L 10.8248 1.9507L 10.8859 2.44695ZM 35.6124 18.7162L 35.3976 19.1677L 35.3976 19.1677L 35.6124 18.7162ZM 8.38566 3.20222L 8.5063 2.71699L 8.5063 2.71699L 8.38566 3.20222ZM 12.9286 14.006L 12.5276 14.3047L 12.5276 14.3047L 12.9286 14.006ZM 4.41567 4.13575L 4.19891 4.58632L 4.19891 4.58632L 4.41567 4.13575ZM 10.6709 8.54677L 10.3782 8.95211L 10.3782 8.95211L 10.6709 8.54677ZM 20.4358 15.5428L 20.1832 15.9743L 20.1832 15.9743L 20.4358 15.5428ZM 32.1856 23.2132L 32.5953 22.9265L 32.5953 22.9265L 32.1856 23.2132ZM 24.634 17.4465L 24.8263 16.985L 24.8263 16.985L 24.634 17.4465ZM 17.9301 13.81L 17.6346 14.2134L 17.6346 14.2134L 17.9301 13.81ZM 3.141 4.42196L 2.79225 4.78025L 2.79225 4.78025L 3.141 4.42196ZM 17.2039 22.9059L 16.8323 23.2404L 16.8323 23.2404L 17.2039 22.9059ZM 23.1358 28.2639L 22.8594 28.6805L 22.8594 28.6805L 23.1358 28.2639ZM 28.5891 34.2295L 28.0917 34.1788L 28.0887 34.2081L 28.0892 34.2376L 28.5891 34.2295ZM 1.17491 5.01891L 1.50725 5.39247L 1.50725 5.39247L 1.17491 5.01891ZM 5.84512 3.32436L 5.64182 3.78116L 5.64182 3.78116L 5.84512 3.32436ZM 94.0191 18.4074L 93.5194 18.3905L 93.5194 18.3905L 94.0191 18.4074ZM 99.4562 18.6281L 99.436 19.1277L 99.4562 18.6281ZM 98.7322 34.5664L 98.2337 34.5275L 98.7322 34.5664ZM 24.8825 147.492L 24.3826 147.503L 24.8825 147.492ZM 94.2113 12.7098L 93.7116 12.6929L 94.2113 12.7098ZM 90.6688 117.73L 91.1685 117.747L 90.6688 117.73ZM 23.4889 39.5094L 23.0702 39.7828L 23.4889 39.5094ZM 99.9344 19.1666L 99.436 19.1277L 99.9344 19.1666ZM 98.1946 35.0259L 98.2337 34.5275L 98.1946 35.0259ZM 20.239 2.98901L 93.7116 12.6929L 93.8426 11.7015L 20.3699 1.99762L 20.239 2.98901ZM 87.5621 31.6782C 86.8551 34.5324 85.9616 43.1593 85.3922 52.8028C 84.8218 62.4653 84.5737 73.2292 85.1701 80.3557L 86.1666 80.2722C 85.5733 73.199 85.8209 62.5064 86.3905 52.8617C 86.9611 43.198 87.852 34.667 88.5328 31.9187L 87.5621 31.6782ZM 65.0797 14.6525C 73.6984 18.2985 82.7844 19.2812 89.4231 14.6007L 88.8469 13.7834C 82.6376 18.1612 73.9812 17.3323 65.4693 13.7316L 65.0797 14.6525ZM 16.5162 2.90168L 27.5287 5.61918L 27.7683 4.6483L 16.7558 1.93081L 16.5162 2.90168ZM 1.38618 4.77789C 1.0916 4.49192 0.852477 4.10333 0.676978 3.76021C 0.591474 3.5941 0.536768 3.46777 0.505281 3.37709C 0.487683 3.32694 0.493646 3.33189 0.49762 3.36758C 0.498931 3.37935 0.501829 3.40968 0.498332 3.45019C 0.495825 3.47923 0.485511 3.58107 0.411398 3.68608C 0.310607 3.82888 0.141321 3.90779 -0.0327546 3.89324C -0.160721 3.88254 -0.245219 3.82507 -0.26877 3.80856L 0.305278 2.98974C 0.274353 2.96806 0.183624 2.90784 0.0505462 2.89672C -0.128641 2.88174 -0.301919 2.96254 -0.405605 3.10945C -0.482614 3.21856 -0.494727 3.32671 -0.497962 3.36418C -0.500001 3.39807 -0.498715 3.45256 -0.496236 3.47825C -0.486683 3.56404 -0.458355 3.65108 -0.438307 3.70821C -0.394504 3.83209 -0.312796 4.02106 -0.212801 4.2166C -0.017303 4.59677 0.310909 5.11684 0.683692 5.48959L 1.38618 4.77789ZM 0.516517 3.4408C 0.511097 3.50564 0.493003 3.55139 0.484915 3.57C 0.490113 3.55943 0.465437 3.60776 0.466081 3.60619C 0.462279 3.61313 0.470029 3.59955 0.492059 3.57576C 0.544168 3.51786 0.615066 3.45198 0.730406 3.35773C 0.970855 3.16012 1.31352 2.91902 1.7817 2.64637C 2.73231 2.09099 4.08417 1.47206 5.82829 1.03771C 9.2982 0.169283 14.2368 0.0653186 20.0837 2.94196L 20.5252 2.04468C 14.4503 -0.944102 9.26744 -0.85386 5.58551 0.0676293C 3.75371 0.52824 2.27206 1.20319 1.27773 1.78264C 0.773441 2.0774 0.365784 2.36395 0.0963215 2.58447C -0.0432939 2.69928 -0.167248 2.81509 -0.247604 2.90278C -0.291806 2.95178 -0.342296 3.01585 -0.373247 3.06257C -0.400354 3.10442 -0.467926 3.21295 -0.480009 3.35751L 0.516517 3.4408ZM 24.3826 147.503L 1.08166 118.874L 0.306082 119.505L 23.6071 148.134L 24.3826 147.503ZM -0.481746 3.39916L -0.479392 117.296L 0.520608 117.296L 0.518254 3.39914L -0.481746 3.39916ZM 55.8364 16.4302C 57.7334 17.5913 63.0676 19.6447 68.5729 21.2884C 71.3352 22.1131 74.1712 22.8429 76.654 23.3077C 79.1242 23.7698 81.322 23.9856 82.7922 23.7437L 82.6299 22.757C 81.3469 22.968 79.3003 22.7853 76.8378 22.3247C 74.3879 21.8667 71.603 21.1496 68.859 20.3302C 63.3518 18.6859 58.1323 16.663 56.3585 15.5773L 55.8364 16.4302ZM 56.934 23.7437C 59.6826 24.1959 64.0708 24.9997 67.7756 26.1424C 69.625 26.712 71.263 27.3485 72.453 28.0706C 73.6684 28.8059 74.2009 29.5019 74.2009 30.1169L 75.2009 30.1169C 75.2009 28.9203 74.2109 27.9654 72.9706 27.215C 71.7049 26.4515 69.9539 25.7677 68.0701 25.1868C 64.3086 24.0284 59.854 23.2107 57.0963 22.757L 56.934 23.7437ZM 44.6232 25.8246C 44.8205 26.2997 45.2363 26.7413 45.7417 27.1432C 46.2475 27.5442 46.9154 27.9596 47.6629 28.3522C 49.1498 29.1315 51.0673 29.8909 53.035 30.5127C 55.0022 31.1337 57.0659 31.6325 58.8485 31.8979C 60.612 32.16 62.2131 32.2139 63.2279 31.8774L 62.9132 30.9282C 62.1436 31.1834 60.753 31.17 58.9955 30.9088C 57.2571 30.6509 55.2705 30.1704 53.3361 29.5591C 51.4021 28.9486 49.5667 28.2226 48.1275 27.4666C 47.4118 27.0915 46.8234 26.7267 46.3641 26.3605C 45.9045 25.995 45.6468 25.6821 45.5467 25.4411L 44.6232 25.8246ZM 62.6194 31.1872C 60.7448 35.1092 59.224 42.8785 58.1707 50.4587C 57.114 58.0644 56.5155 65.5888 56.5152 69.0453L 57.5152 69.0453C 57.5148 65.6285 58.1081 58.1729 59.1611 50.5963C 60.2175 42.9941 61.7244 35.3787 63.5217 31.6184L 62.6194 31.1872ZM 36.3974 40.0361C 35.2093 53.0365 34.0113 73.2156 35.2108 81.5684L 36.2007 81.4262C 35.0211 73.2127 36.2022 53.1594 37.3933 40.1271L 36.3974 40.0361ZM 21.2534 22.7564C 24.8682 25.0089 26.8775 26.4586 28.0812 27.7182C 29.2736 28.9521 29.6636 29.9758 30.0374 31.5207L 31.0092 31.2849C 30.6175 29.6756 30.117 28.4148 28.8042 27.0273C 27.5027 25.6655 25.3919 24.157 21.7822 21.9077L 21.2534 22.7564ZM 30.0255 31.4494C 30.466 36.1539 32.9605 39.3037 36.738 40.5562L 37.0527 39.607C 33.6927 38.4929 31.4288 35.7101 31.0212 31.3562L 30.0255 31.4494ZM 3.07347 4.91414L 10.7903 12.0494L 11.4692 11.3152L 3.75237 4.17991L 3.07347 4.91414ZM 6.02519 3.84286L 30.2929 16.4474L 30.7538 15.56L 6.48613 2.95543L 6.02519 3.84286ZM 24.2419 140.673L 24.3826 147.503L 25.3824 147.482L 25.2417 140.652L 24.2419 140.673ZM 28.2188 142.725C 27.2582 142.485 26.1355 141.825 25.1555 140.382L 24.3281 140.943C 25.4357 142.575 26.7598 143.392 27.9769 143.695L 28.2188 142.725ZM 29.7012 133.58L 29.9391 140.564L 30.9385 140.53L 30.7006 133.546L 29.7012 133.58ZM 38.2056 137.811C 35.8589 137.228 34.4489 136.669 33.3577 135.954C 32.2776 135.255 31.5501 134.422 30.5879 133.246L 29.8139 133.879C 30.7878 135.07 31.6232 136.012 32.8115 136.792C 33.9887 137.557 35.5527 138.18 37.9643 138.781L 38.2056 137.811ZM 36.757 27.5457C 39.1227 28.2269 41.6536 29.0033 43.6355 29.7605C 44.6233 30.1377 45.4496 30.4987 46.0573 30.8433C 46.3558 31.0117 46.5707 31.1554 46.734 31.301C 46.8117 31.3688 46.8522 31.411 46.8914 31.466C 46.9273 31.5123 46.9309 31.5514 46.928 31.5282L 47.8961 31.2775C 47.8196 30.982 47.6103 30.7406 47.3957 30.5512C 47.1819 30.3639 46.8815 30.161 46.5497 29.9729C 45.8968 29.6043 45.0022 29.2122 43.9923 28.8264C 41.9789 28.0576 39.4077 27.2684 37.0337 26.5848L 36.757 27.5457ZM 47.2058 127.341C 46.5021 128.254 45.6567 129.095 44.8228 129.727C 43.9695 130.375 43.2588 130.696 42.8433 130.696L 42.8433 131.696C 43.6173 131.696 44.5613 131.181 45.4275 130.523C 46.3132 129.849 47.2521 128.915 47.9974 127.952L 47.2058 127.341ZM 38.7748 32.3766L 42.0312 124.721L 43.0306 124.686L 39.7742 32.3414L 38.7748 32.3766ZM 42.0314 124.727L 42.3438 131.22L 43.3427 131.172L 43.0303 124.679L 42.0314 124.727ZM 35.2058 81.4973C 35.2058 92.1652 35.6353 107.107 36.236 119.387L 37.2348 119.339C 36.6345 107.068 36.2057 92.1508 36.2058 81.4973L 35.2058 81.4973ZM 36.236 119.387C 36.6356 127.555 37.1122 134.563 37.5888 138.358L 38.581 138.234C 38.1075 134.467 37.6339 127.497 37.2348 119.339L 36.236 119.387ZM 42.9414 124.418C 40.8473 121.408 39.5607 120.136 36.9466 118.91L 36.5242 119.816C 38.9883 120.956 40.0809 122.051 42.1203 124.989L 42.9414 124.418ZM 59.6583 119.363C 59.6583 119.748 59.8036 120.334 60.0209 120.983C 60.2428 121.644 60.5681 122.449 60.9628 123.276C 61.7505 124.925 62.8713 126.772 64.1014 128.001L 64.8067 127.292C 63.6576 126.154 62.6306 124.451 61.8652 122.846C 61.4833 122.046 61.1808 121.298 60.969 120.665C 60.7526 120.019 60.6583 119.57 60.6583 119.363L 59.6583 119.363ZM 64.2967 127.172C 63.4989 127.436 62.2273 127.516 60.7124 127.413C 59.2034 127.31 57.534 127.034 55.9351 126.621C 54.3374 126.209 52.8709 125.678 51.7512 125.051C 50.6065 124.411 50.016 123.773 49.9209 123.232L 48.936 123.405C 49.117 124.435 50.0967 125.272 51.2635 125.924C 52.4552 126.588 54.0415 127.164 55.6851 127.589C 57.3274 128.013 59.0878 128.303 60.6443 128.41C 62.1951 128.516 63.6248 128.448 64.6114 128.121L 64.2967 127.172ZM 56.5152 69.0453C 56.5152 88.3834 56.8721 100.39 57.4439 107.792C 57.7306 111.501 58.0745 114.08 58.4535 115.839C 58.8309 117.588 59.2631 118.637 59.7893 119.213L 60.5273 118.538C 60.1944 118.174 59.8042 117.358 59.4311 115.628C 59.0597 113.909 58.7251 111.397 58.4409 107.715C 57.8707 100.337 57.5151 88.3686 57.5152 69.0453L 56.5152 69.0453ZM 72.1452 124.479C 71.3812 122.962 70.4863 121.686 68.7384 120.683C 66.9967 119.698 64.4079 118.974 60.2286 118.381L 60.088 119.371C 64.2402 119.96 66.6741 120.664 68.2459 121.553C 69.8116 122.424 70.521 123.472 71.2517 124.928L 72.1452 124.479ZM 74.7009 30.1169C 74.2012 30.1011 74.2011 30.1013 74.2011 30.1017C 74.2011 30.1021 74.2011 30.1027 74.2011 30.1035C 74.201 30.1051 74.2009 30.1075 74.2008 30.1107C 74.2006 30.1172 74.2003 30.1268 74.1999 30.1396C 74.1991 30.1652 74.1979 30.2034 74.1963 30.254C 74.1931 30.3552 74.1883 30.506 74.182 30.704C 74.1694 31.1001 74.1509 31.6855 74.1268 32.4426C 74.0788 33.9567 74.0089 36.1576 73.9217 38.9048C 73.7473 44.3991 73.5035 52.0782 73.2261 60.8176C 72.6713 78.2964 71.9819 100.016 71.4434 116.981L 72.4429 117.012C 72.9814 100.048 73.6708 78.3282 74.2256 60.8493C 74.503 52.1099 74.7468 44.4308 74.9212 38.9365C 75.0084 36.1894 75.0783 33.9884 75.1263 32.4743C 75.1504 31.7172 75.1689 31.1318 75.1815 30.7357C 75.1878 30.5377 75.1926 30.387 75.1958 30.2857C 75.1974 30.2351 75.1986 30.1969 75.1994 30.1713C 75.1998 30.1585 75.2001 30.1489 75.2003 30.1425C 75.2004 30.1392 75.2005 30.1368 75.2006 30.1352C 75.2006 30.1344 75.2006 30.1338 75.2006 30.1334C 75.2006 30.133 75.2006 30.1328 74.7009 30.1169ZM 71.4434 116.981C 71.3956 118.485 71.3344 120.412 71.2852 121.963C 71.2606 122.738 71.239 123.419 71.2235 123.907C 71.2158 124.15 71.2096 124.346 71.2053 124.48C 71.2032 124.547 71.2016 124.599 71.2004 124.634C 71.1999 124.652 71.1995 124.665 71.1992 124.674C 71.199 124.678 71.1989 124.682 71.1988 124.684C 71.1988 124.685 71.1988 124.686 71.1988 124.687C 71.1988 124.687 71.1988 124.687 71.1987 124.687C 71.1987 124.687 71.1987 124.687 71.1987 124.688C 71.1987 124.688 71.1987 124.688 71.6985 124.703C 72.1982 124.719 72.1982 124.719 72.1982 124.719C 72.1982 124.719 72.1982 124.719 72.1982 124.719C 72.1982 124.719 72.1983 124.719 72.1983 124.718C 72.1983 124.718 72.1983 124.717 72.1983 124.716C 72.1984 124.714 72.1985 124.71 72.1987 124.706C 72.199 124.697 72.1994 124.683 72.1999 124.666C 72.201 124.631 72.2027 124.579 72.2048 124.512C 72.2091 124.377 72.2153 124.182 72.223 123.938C 72.2385 123.451 72.2601 122.77 72.2847 121.994C 72.3339 120.444 72.3951 118.517 72.4429 117.012L 71.4434 116.981ZM 77.3412 120.546C 77.3412 120.046 77.3416 120.046 77.3419 120.046C 77.342 120.046 77.3423 120.046 77.3425 120.046C 77.3424 120.046 77.344 120.046 77.3437 120.046C 77.3435 120.046 77.3457 120.046 77.3453 120.046C 77.3455 120.046 77.3464 120.046 77.3461 120.046C 77.3435 120.046 77.3426 120.046 77.3376 120.046C 77.3235 120.045 77.3089 120.045 77.2817 120.042C 77.2193 120.036 77.1405 120.026 77.0228 120.001C 76.7705 119.95 76.4328 119.855 75.9819 119.648C 75.0822 119.237 73.7903 118.397 72.324 116.673L 71.5622 117.32C 73.1148 119.146 74.522 120.081 75.5666 120.557C 76.0879 120.794 76.5336 120.921 76.8217 120.981C 76.9743 121.012 77.105 121.029 77.1844 121.037C 77.2282 121.041 77.2677 121.044 77.2899 121.045C 77.303 121.046 77.3159 121.046 77.3225 121.046C 77.3268 121.046 77.3315 121.046 77.3336 121.046C 77.3352 121.046 77.3371 121.046 77.3378 121.046C 77.3385 121.046 77.3393 121.046 77.3396 121.046C 77.3399 121.046 77.3403 121.046 77.3404 121.046C 77.3408 121.046 77.3412 121.046 77.3412 120.546ZM 85.1683 80.314C 85.1683 86.0903 85.1684 92.6051 85.3172 98.2674C 85.4655 103.908 85.7621 108.771 86.373 111.202L 87.3428 110.958C 86.7641 108.656 86.4659 103.912 86.3168 98.2411C 86.1683 92.5919 86.1683 86.0903 86.1683 80.314L 85.1683 80.314ZM 82.2118 23.2228L 77.1314 115.275L 78.1299 115.33L 83.2103 23.2779L 82.2118 23.2228ZM 77.1314 115.275L 76.842 120.519L 77.8404 120.574L 78.1299 115.33L 77.1314 115.275ZM 86.402 110.875C 85.8831 112.027 84.6664 112.92 83.2004 113.581C 81.742 114.241 80.1558 114.619 78.9907 114.809L 79.1516 115.796C 80.353 115.6 82.0655 115.187 83.6114 114.493C 85.1497 113.799 86.6431 112.774 87.3138 111.285L 86.402 110.875ZM 78.9907 114.809C 78.4744 114.895 78.0829 114.902 77.7493 114.817L 77.5119 115.788C 77.97 115.896 78.5618 115.891 79.1516 115.796L 78.9907 114.809ZM 90.1691 117.714L 79.1987 114.819L 78.9436 115.786L 89.914 118.681L 90.1691 117.714ZM 23.3144 40.5892L 24.2419 140.667L 25.2418 140.658L 24.3143 40.58L 23.3144 40.5892ZM 71.4434 116.981L 71.1987 124.688L 72.1982 124.719L 72.4429 117.012L 71.4434 116.981ZM 47.9974 127.952C 49.6503 125.81 49.6913 124.292 49.7023 123.609L 48.7024 123.593C 48.6937 124.131 48.6893 125.419 47.2058 127.341L 47.9974 127.952ZM 49.7023 123.609C 49.7036 123.529 49.7041 123.479 49.7074 123.443C 49.7117 123.391 49.7154 123.457 49.6656 123.542C 49.6318 123.599 49.5683 123.673 49.464 123.719C 49.3631 123.764 49.2728 123.76 49.2217 123.752C 49.1435 123.739 49.1099 123.708 49.1602 123.74L 49.6967 122.896C 49.6373 122.858 49.5213 122.787 49.3809 122.765C 49.2988 122.752 49.1825 122.75 49.0598 122.805C 48.9724 122.852 48.8501 122.965 48.8047 123.033C 48.7264 123.165 48.715 123.309 48.7107 123.361C 48.7053 123.43 48.7037 123.513 48.7024 123.593L 49.7023 123.609ZM 88.5328 31.9187C 89.7147 27.1314 89.6876 22.7381 89.6494 17.323L 88.6494 17.33C 88.6876 22.7452 88.7217 27.0138 87.5621 31.6782L 88.5328 31.9187ZM 65.4693 13.7316C 61.5048 12.0584 57.076 11.3471 52.8809 10.6769L 52.7231 11.6643C 56.9182 12.3346 61.2291 13.0197 65.0797 14.6525L 65.4693 13.7316ZM 52.8809 10.6769C 50.1794 10.2452 47.5774 9.83024 45.2175 9.18078L 44.9524 10.145C 47.3656 10.8076 50.0217 11.2327 52.7231 11.6643L 52.8809 10.6769ZM 45.2175 9.18078C 43.0626 8.58848 39.7741 7.75055 36.4902 6.9138L 36.2433 7.88283C 39.5272 8.71959 42.8066 9.55516 44.9524 10.145L 45.2175 9.18078ZM 36.4902 6.9138C 33.2062 6.07705 29.9268 5.24148 27.781 4.65162L 27.516 5.61586C 29.6708 6.20816 32.9593 7.04608 36.2433 7.88283L 36.4902 6.9138ZM 16.6503 2.91604C 17.6794 2.88599 17.9835 2.90784 18.3915 2.93635L 18.4612 1.93878C 18.0532 1.91027 17.7 1.8862 16.6217 1.91645L 16.6503 2.91604ZM 18.3915 2.93635C 18.7584 2.96198 19.2068 2.99301 20.3044 2.99332L 20.3044 1.99332C 19.2417 1.99362 18.8281 1.96442 18.4612 1.93878L 18.3915 2.93635ZM 56.3585 15.5773C 55.6385 15.1366 54.5483 14.7651 53.1545 14.3898C 51.7511 14.0121 49.982 13.6161 47.8668 13.1428L 47.6484 14.1187C 49.7636 14.592 51.5119 14.9831 52.8945 15.3555C 54.2868 15.7303 55.2513 16.072 55.8364 16.4302L 56.3585 15.5773ZM 47.8668 13.1428C 40.1984 11.427 27.8839 8.67324 11.3176 1.9529L 10.9418 2.87959C 27.5858 9.62778 39.98 12.4028 47.6484 14.1187L 47.8668 13.1428ZM 11.1086 2.9158C 11.8081 2.94445 12.4582 3.05432 13.0948 3.16096L 13.26 2.17471C 12.6234 2.06807 11.912 1.94987 11.1509 1.91669L 11.1086 2.9158ZM 13.0948 3.16096C 14.3746 3.37535 15.7264 3.62609 16.9139 2.83187L 16.358 2.00062C 15.5584 2.53542 14.6373 2.40543 13.26 2.17471L 13.0948 3.16096ZM 88.6494 17.3253L 88.6494 17.3311L 89.6494 17.3219L 89.6493 17.3162L 88.6494 17.3253ZM 89.6494 17.3172C 89.6423 16.3146 89.635 15.2766 89.635 14.1921L 88.635 14.1921C 88.635 15.2801 88.6423 16.3217 88.6494 17.3243L 89.6494 17.3172ZM 72.4429 117.012L 75.2006 30.1328L 74.2012 30.1011L 71.4434 116.981L 72.4429 117.012ZM 57.0799 22.7545C 55.4417 22.5407 53.5115 21.5106 51.2745 20.3068L 50.8006 21.1873C 52.9741 22.3569 55.0881 23.503 56.9504 23.7461L 57.0799 22.7545ZM 51.2745 20.3068C 49.0041 19.085 46.4796 17.7315 43.8545 17.112L 43.6264 18.0856C 46.1255 18.6667 48.5302 19.9656 50.8006 21.1873L 51.2745 20.3068ZM 43.8545 17.112C 40.2635 16.2707 35.2847 14.0832 26.8313 10.3648L 26.4286 11.2802C 34.834 14.9774 39.9213 17.2176 43.6264 18.0856L 43.8545 17.112ZM 26.8313 10.3648C 22.1928 8.32451 16.5226 5.83036 9.48875 2.86143L 9.09988 3.78272C 16.1268 6.74872 21.7902 9.23987 26.4286 11.2802L 26.8313 10.3648ZM 9.71382 3.59414C 9.92717 3.26518 10.0675 3.15448 10.1916 3.09534C 10.3436 3.02295 10.5316 2.99441 10.9471 2.94319L 10.8248 1.9507C 10.4591 1.99579 10.0906 2.03586 9.76167 2.19249C 9.40497 2.36237 9.14003 2.64108 8.87482 3.05001L 9.71382 3.59414ZM 10.9471 2.94319C 11.0239 2.93373 11.1068 2.9235 11.1946 2.91202L 11.0649 1.92047C 10.9808 1.93148 10.9015 1.94124 10.8248 1.9507L 10.9471 2.94319ZM 45.5467 25.4411C 44.8645 23.798 43.3694 22.4656 41.6215 21.3283C 39.87 20.19 37.784 19.196 35.8273 18.2647L 35.3976 19.1677C 37.3542 20.0989 39.3813 21.0625 41.0761 22.1665C 42.7746 23.2716 44.0591 24.4662 44.6232 25.8246L 45.5467 25.4411ZM 35.8273 18.2647C 33.8941 17.3446 32.0947 16.49 30.8089 15.5933L 30.2377 16.4141C 31.5925 17.3548 33.4644 18.2476 35.3976 19.1677L 35.8273 18.2647ZM 6.6085 3.75341C 6.77808 3.58451 6.99126 3.51641 7.27621 3.5178C 7.58924 3.51576 7.91716 3.60096 8.26502 3.68745L 8.5063 2.71699C 8.15843 2.6305 7.7132 2.52348 7.28109 2.51781C 6.8209 2.51556 6.31695 2.63241 5.90282 3.04488L 6.6085 3.75341ZM 8.26502 3.68745C 8.44819 3.73298 8.64074 3.78042 8.81504 3.80918C 8.98697 3.83713 9.2017 3.85763 9.40907 3.80873L 9.17957 2.83542C 9.19609 2.82997 9.16574 2.8398 9.12422 2.8381C 9.07871 2.83739 9.04005 2.83279 8.97548 2.82214C 8.84177 2.80083 8.68946 2.76253 8.5063 2.71699L 8.26502 3.68745ZM 49.9283 123.307L 47.9164 31.5944L 46.9166 31.6163L 48.9285 123.329L 49.9283 123.307ZM 46.9285 31.4965C 46.9237 31.4639 46.9367 31.5127 46.8338 31.585C 46.7176 31.6757 46.5733 31.7473 46.3447 31.8306C 45.8703 32.007 45.2384 32.1342 44.4715 32.211C 42.924 32.3687 41.0357 32.2916 39.3972 31.8743L 39.1519 32.8437C 40.8915 33.2812 42.9535 33.3683 44.5721 33.206C 45.3882 33.1229 46.1433 32.969 46.6904 32.769C 46.9724 32.6642 47.2475 32.5238 47.438 32.3819C 47.6412 32.2278 47.8386 32.0097 47.9045 31.7142L 46.9285 31.4965ZM 46.9122 31.4138L 46.9166 31.6163L 47.9164 31.5943L 47.9119 31.3919L 46.9122 31.4138ZM 46.928 31.5282C 46.9277 31.5269 46.9267 31.5225 46.9266 31.5158C 46.9265 31.509 46.9272 31.5023 46.9285 31.4965L 47.9045 31.7142C 47.9285 31.5906 47.9255 31.4051 47.8961 31.2775L 46.928 31.5282ZM 21.7359 21.8821C 18.1266 20.1324 15.4733 16.5858 13.3297 13.7074L 12.5276 14.3047C 14.6411 17.1426 17.4326 20.9072 21.2997 22.7819L 21.7359 21.8821ZM 13.3297 13.7074C 12.6785 12.833 12.073 12.0204 11.5107 11.3585L 10.7488 12.0061C 11.2907 12.6432 11.8764 13.4303 12.5276 14.3047L 13.3297 13.7074ZM 3.90755 4.6201C 3.93151 4.45791 3.96689 4.41401 3.96338 4.41841C 3.95939 4.42342 3.9472 4.43615 3.92601 4.44739C 3.90541 4.45832 3.88792 4.46168 3.87985 4.46251C 3.87189 4.46333 3.89525 4.46012 3.96608 4.48439C 4.03924 4.50853 4.1111 4.54407 4.19891 4.58632L 4.63244 3.68518C 4.49838 3.62069 4.13876 3.43068 3.77774 3.46773C 3.55759 3.49033 3.34278 3.5924 3.18103 3.79557C 3.03283 3.98172 2.95596 4.21894 2.91829 4.47396L 3.90755 4.6201ZM 4.19891 4.58632C 4.2649 4.61806 4.34773 4.6572 4.42096 4.68437C 4.46292 4.6992 4.53655 4.71901 4.59032 4.72753C 4.65446 4.73622 4.77673 4.7437 4.90934 4.68459L 4.5022 3.77123C 4.55749 3.74658 4.60754 3.73764 4.64391 3.73471C 4.67986 3.73182 4.70794 3.73433 4.72453 3.73658C 4.75504 3.74071 4.77022 3.74729 4.76111 3.744C 4.75448 3.7416 4.74095 3.73615 4.71689 3.72518C 4.69219 3.71395 4.66543 3.70105 4.63244 3.68518L 4.19891 4.58632ZM 4.41216 4.63262C 7.69536 7.01455 9.03697 7.98348 10.3782 8.95211L 10.9636 8.14143C 9.62246 7.1728 8.28172 6.2045 4.99938 3.8232L 4.41216 4.63262ZM 10.3782 8.95211C 11.7193 9.92072 13.0601 10.889 16.3424 13.2703L 16.9296 12.4609C 13.6464 10.079 12.3048 9.11004 10.9636 8.14143L 10.3782 8.95211ZM 24.8071 18.0603C 27.0658 18.9995 28.4878 19.9228 29.5282 20.8451C 30.5555 21.7495 31.1657 22.6276 31.7759 23.4998L 32.5953 22.9265C 31.985 22.0543 31.3017 21.0838 30.1908 20.0962C 29.093 19.1267 27.5322 18.115 25.1919 17.1373L 24.8071 18.0603ZM 31.7759 23.4998C 32.8359 25.0148 33.8417 26.4485 36.719 27.5331L 37.0717 26.5974C 34.4765 25.6191 33.6148 24.3838 32.5953 22.9265L 31.7759 23.4998ZM 25.1919 17.1373C 25.0664 17.085 24.9446 17.0343 24.8263 16.985L 24.4417 17.9081C 24.56 17.9574 24.6818 18.0081 24.8071 18.0603L 25.1919 17.1373ZM 24.8263 16.985C 22.5348 16.0303 21.5757 15.6319 20.6883 15.1113L 20.1832 15.9743C 21.1299 16.527 22.1502 16.9534 24.4417 17.9081L 24.8263 16.985ZM 20.6883 15.1113C 20.0129 14.7168 19.3788 14.2515 18.2255 13.4067L 17.6346 14.2134C 18.7879 15.0582 19.4642 15.5528 20.1832 15.9743L 20.6883 15.1113ZM 18.2255 13.4067C 17.8524 13.1334 17.4262 12.8212 16.9296 12.4609L 16.3424 13.2703C 16.8371 13.6293 17.2615 13.9401 17.6346 14.2134L 18.2255 13.4067ZM 2.99393 4.27418C 3.04544 4.19507 3.15739 4.09357 3.3275 4.0812C 3.45985 4.07158 3.54637 4.12439 3.55648 4.1304C 3.57469 4.14123 3.57777 4.14628 3.55885 4.12941C 3.54016 4.1129 3.51961 4.09273 3.48975 4.06366L 2.79225 4.78025C 2.83339 4.8203 2.93616 4.92496 3.04531 4.98988C 3.10151 5.02331 3.23014 5.09092 3.40001 5.07857C 3.60766 5.06347 3.75258 4.94171 3.83191 4.81988L 2.99393 4.27418ZM 3.48975 4.06367C 3.4286 4.00415 3.33256 3.91279 3.23113 3.83912C 3.12721 3.76555 2.94451 3.65876 2.70986 3.66482C 2.44515 3.67166 2.24108 3.8156 2.10217 3.995C 1.97279 4.16211 1.87828 4.38378 1.80196 4.64142L 2.76077 4.92545C 2.79034 4.82562 2.81819 4.75164 2.84258 4.69796C 2.86726 4.64365 2.88534 4.61693 2.89286 4.60722C 2.9001 4.59787 2.8912 4.61243 2.86103 4.62995C 2.8276 4.64937 2.78361 4.66325 2.73569 4.66448C 2.6911 4.66564 2.66038 4.65548 2.6488 4.65086C 2.6383 4.64666 2.63939 4.64543 2.65334 4.65531C 2.66681 4.66484 2.68518 4.67964 2.71005 4.7021C 2.73639 4.72576 2.76168 4.75049 2.79225 4.78025L 3.48975 4.06367ZM 1.88614 5.0897C 10.4837 16.1842 14.7764 20.9555 16.8323 23.2404L 17.5756 22.5715C 15.5198 20.2866 11.2512 15.5431 2.67659 4.47717L 1.88614 5.0897ZM 16.8323 23.2404C 17.6482 24.1472 18.0903 24.6366 18.3141 24.9755L 19.1468 24.4217C 18.8804 24.0236 18.3916 23.4783 17.5756 22.5715L 16.8323 23.2404ZM 18.3141 24.9755C 18.7449 25.6233 19.465 26.2658 20.2598 26.8742C 21.0603 27.4867 21.9843 28.1 22.8594 28.6805L 23.4122 27.8472C 22.5371 27.2667 21.641 26.6725 20.8676 26.0802C 20.0885 25.4837 19.481 24.9242 19.1468 24.4217L 18.3141 24.9755ZM 28.0892 34.2376L 29.701 133.571L 30.7008 133.555L 29.0891 34.2214L 28.0892 34.2376ZM 28.0892 34.2378C 28.0799 34.2012 28.0939 34.2737 28.0223 34.3684C 27.9459 34.4808 27.8545 34.5693 27.6915 34.6795C 27.3503 34.9192 26.9232 35.0829 26.3351 35.0933C 25.2138 35.1261 23.586 34.5278 21.9321 32.0791L 21.1035 32.6388C 22.889 35.2825 24.8056 36.1384 26.3644 36.0929C 27.1163 36.0641 27.8133 35.8055 28.2589 35.5029C 28.6939 35.2032 29.0977 34.7384 29.0891 34.2212L 28.0892 34.2378ZM 1.28972 5.56395C 1.37505 5.51342 1.46862 5.42684 1.50725 5.39247L 0.842573 4.64534C 0.811125 4.67332 0.790322 4.69176 0.773692 4.7057C 0.765898 4.71223 0.762126 4.71514 0.761346 4.71573C 0.759816 4.71688 0.7668 4.71143 0.780149 4.70352L 1.28972 5.56395ZM 1.50725 5.39247C 1.64621 5.26885 1.76334 5.17108 1.86779 5.12798C 1.92117 5.10351 1.92723 5.12366 1.91006 5.11392C 1.88422 5.11646 1.8905 5.08766 1.92214 5.13122L 2.64059 4.43565C 2.47452 4.26412 2.27371 4.15526 2.04948 4.12368C 1.86225 4.10465 1.6292 4.14708 1.48632 4.2036C 1.21553 4.32295 0.969226 4.53267 0.842572 4.64534L 1.50725 5.39247ZM 24.4417 17.9081L 24.8072 18.0604L 25.1918 17.1373L 24.8263 16.985L 24.4417 17.9081ZM 60.6583 119.363C 60.6583 119.148 60.6587 119.127 60.6589 119.108C 60.6591 119.087 60.6591 119.071 60.6583 118.874L 59.6583 118.878C 59.6591 119.073 59.6591 119.082 59.6589 119.097C 59.6587 119.114 59.6583 119.14 59.6583 119.363L 60.6583 119.363ZM 5.17256 4.4071C 5.27874 4.12878 5.36148 3.96316 5.44738 3.83772C 5.51441 3.73216 5.58461 3.70487 5.55067 3.71663C 5.49622 3.74397 5.44364 3.69296 5.64182 3.78116L 6.04842 2.86755C 5.91977 2.8103 5.52876 2.60867 5.10197 2.82295C 4.73053 3.00944 4.47185 3.4421 4.23898 4.04872L 5.17256 4.4071ZM 5.64182 3.78116C 5.73511 3.82268 6.06131 3.99384 6.41722 3.87232L 6.0941 2.92596C 6.1158 2.91856 6.13659 2.91591 6.153 2.91591C 6.16808 2.9159 6.17512 2.91812 6.17089 2.91707C 6.16609 2.91589 6.15457 2.9125 6.13253 2.90378C 6.10966 2.89472 6.08488 2.88378 6.04842 2.86755L 5.64182 3.78116ZM 93.7116 12.6929L 93.5194 18.3905L 94.5189 18.4242L 94.7111 12.7266L 93.7116 12.6929ZM 93.9989 18.9069L 99.436 19.1277L 99.4765 18.1285L 94.0394 17.9078L 93.9989 18.9069ZM 99.436 19.1277L 98.2337 34.5275L 99.2307 34.6053L 100.433 19.2055L 99.436 19.1277ZM 93.5194 18.3905L 92.9714 34.6389L 93.9708 34.6726L 94.5189 18.4242L 93.5194 18.3905ZM 92.9714 34.6389L 90.1691 117.714L 91.1685 117.747L 93.9708 34.6726L 92.9714 34.6389ZM 98.2337 34.5275L 93.5101 34.1572L 93.432 35.1542L 98.1556 35.5244L 98.2337 34.5275ZM 0.616325 5.40717L 21.493 37.3681L 22.3302 36.8213L 1.45355 4.86031L 0.616325 5.40717ZM 21.493 37.3681L 23.0702 39.7828L 23.9075 39.236L 22.3302 36.8213L 21.493 37.3681ZM 21.0195 32.4004L 21.4133 37.1362L 22.4099 37.0533L 22.0161 32.3175L 21.0195 32.4004ZM 22.8594 28.6805C 25.1514 30.2011 26.5056 31.2748 27.268 32.1387C 28.0066 32.9758 28.1536 33.5726 28.0917 34.1788L 29.0866 34.2802C 29.1827 33.338 28.8979 32.4745 28.0178 31.4771C 27.1614 30.5066 25.71 29.3717 23.4122 27.8472L 22.8594 28.6805ZM 23.6071 148.134C 24.2076 148.872 25.402 148.433 25.3824 147.482L 24.3826 147.503L 24.3826 147.503L 23.6071 148.134ZM 93.7116 12.6929L 93.7116 12.6929L 94.7111 12.7266C 94.7284 12.2124 94.3527 11.7689 93.8426 11.7015L 93.7116 12.6929ZM 89.914 118.681C 90.5348 118.844 91.1469 118.389 91.1685 117.747L 90.1691 117.714L 90.1691 117.714L 89.914 118.681ZM 1.08166 118.874C 0.694184 118.41 0.513346 117.901 0.520608 117.296L -0.479392 117.296C -0.472102 118.071 -0.177396 118.9 0.306082 119.505L 1.08166 118.874ZM 27.9769 143.695C 28.9354 143.934 29.7261 143.547 30.2354 142.894C 30.7278 142.263 30.9676 141.384 30.9385 140.53L 29.9391 140.564C 29.9618 141.23 29.7691 141.866 29.4471 142.279C 29.142 142.67 28.7363 142.854 28.2188 142.725L 27.9769 143.695ZM 24.3143 40.58C 24.3051 40.127 24.151 39.6181 23.9075 39.236L 23.0702 39.7828C 23.2447 40.0406 23.3165 40.278 23.3144 40.5892L 24.3143 40.58ZM 99.436 19.1277L 99.436 19.1277L 100.433 19.2055C 100.477 18.6403 100.043 18.1515 99.4765 18.1285L 99.436 19.1277ZM 98.2337 34.5275L 98.1556 35.5244C 98.7063 35.5676 99.1877 35.156 99.2307 34.6053L 98.2337 34.5275Z"/>
</defs>
</svg>
