<svg width="160" height="160" viewBox="0 0 160 160" version="1.1" xmlns="http://www.w3.org/2000/svg" xmlns:xlink="http://www.w3.org/1999/xlink">
<title>portfolio-icon-b</title>
<desc>Created using Figma</desc>
<g id="Canvas" transform="translate(83 164)">
<g id="portfolio-icon-b">
<g id="Rectangle">
<mask id="mask0_outline_ins">
<use xlink:href="#path0_fill" fill="white" transform="translate(-83 -164)"/>
</mask>
<g mask="url(#mask0_outline_ins)">
<use xlink:href="#path1_stroke_2x" transform="translate(-83 -164)" fill="#FFFFFF"/>
</g>
</g>
<g id="Ellipse">
<use xlink:href="#path2_fill" transform="translate(-66 -147)" fill="#0CCE6B"/>
</g>
<g id="open-book">
<use xlink:href="#path3_fill" transform="matrix(-0.307995 -0.951388 0.951388 -0.307995 -51.141 -32.0182)" fill="#1C1C1C"/>
<use xlink:href="#path4_fill" transform="matrix(-0.307995 -0.951388 0.951388 -0.307995 -51.141 -32.0182)" fill="#1C1C1C"/>
<use xlink:href="#path5_fill" transform="matrix(-0.307995 -0.951388 0.951388 -0.307995 -51.141 -32.0182)" fill="#1C1C1C"/>
<use xlink:href="#path6_fill" transform="matrix(-0.307995 -0.951388 0.951388 -0.307995 -51.141 -32.0182)" fill="#1C1C1C"/>
<use xlink:href="#path7_stroke" transform="matrix(-0.307995 -0.951388 0.951388 -0.307995 -51.141 -32.0182)" fill="#1C1C1C"/>
</g>
</g>
</g>
<defs>
<path id="path0_fill" d="M 0 0L 160 0L 160 160L 0 160L 0 0Z"/>
<path id="path1_stroke_2x" d="M 0 0L 0 -1L -1 -1L -1 0L 0 0ZM 160 0L 161 0L 161 -1L 160 -1L 160 0ZM 160 160L 160 161L 161 161L 161 160L 160 160ZM 0 160L -1 160L -1 161L 0 161L 0 160ZM 0 1L 160 1L 160 -1L 0 -1L 0 1ZM 159 0L 159 160L 161 160L 161 0L 159 0ZM 160 159L 0 159L 0 161L 160 161L 160 159ZM 1 160L 1 0L -1 0L -1 160L 1 160Z"/>
<path id="path2_fill" d="M 125 62.5C 125 97.0178 97.0178 125 62.5 125C 27.9822 125 0 97.0178 0 62.5C 0 27.9822 27.9822 0 62.5 0C 97.0178 0 125 27.9822 125 62.5Z"/>
<path id="path3_fill" d="M 0.90275 4.47804C 0.320625 3.90345 -0.0869954 2.89285 0.0159227 2.965L 0.0179731 102.178C 0.0179874 102.868 0.255759 103.537 0.691237 104.072L 20.8129 128.794C 21.1132 129.163 21.7104 128.944 21.7006 128.469L 21.5817 122.697L 20.7734 35.4758C 20.7698 35.0936 20.6569 34.7205 20.4479 34.4006L 19.113 32.3569L 0.90275 4.47804Z"/>
<path id="path4_fill" d="M 82.1764 11.1443C 82.1851 10.8872 81.9972 10.6654 81.7422 10.6318L 17.7111 2.17486C 16.7689 2.17486 16.3929 2.14859 16.0729 2.12623C 15.717 2.10137 15.4303 2.08134 14.5112 2.10764L 24.1171 4.47804C 25.9928 4.99363 28.8573 5.7235 31.7218 6.45338C 34.5864 7.18326 37.4509 7.91314 39.3266 8.42872C 41.4083 9.00094 43.7015 9.36735 46.058 9.74385C 49.7173 10.3285 53.529 10.9375 56.9375 12.3794C 64.4088 15.5399 72.1469 16.3301 77.7504 12.3794C 77.7504 13.327 77.7568 14.2339 77.7629 15.1085L 77.763 15.1135C 77.7963 19.837 77.823 23.6148 76.8018 27.7371C 75.5912 32.6239 73.6889 57.67 74.7265 70.056C 74.7265 80.1332 74.7265 92.7638 75.7641 96.8925C 74.7265 99.196 71.0363 100.239 68.9719 100.576L 78.4638 103.08C 78.7742 103.162 79.0802 102.934 79.091 102.614L 81.5327 30.2294L 82.0107 16.0563L 82.1764 11.1443Z"/>
<path id="path5_fill" fill-rule="evenodd" d="M 41.3564 27.392C 41.3721 27.4525 41.3731 27.5114 41.3603 27.5686L 41.3564 27.392ZM 4.10473 3.68791C 4.50816 2.637 4.81347 2.77288 5.09856 2.89976C 5.21959 2.95362 5.33697 3.00586 5.45667 2.96499C 5.96583 2.45788 6.70775 2.64234 7.31462 2.79322C 7.63416 2.87267 7.91626 2.9428 8.10722 2.89777C 8.52466 2.25412 8.81417 2.21842 9.49555 2.13442C 9.56249 2.12616 9.63322 2.11744 9.70821 2.10764C 10.3452 2.1346 10.939 2.23407 11.4943 2.32709C 12.6532 2.52122 13.6445 2.68727 14.5112 2.10764C 15.4303 2.08134 15.717 2.10137 16.0729 2.12623C 16.3929 2.14859 16.7689 2.17486 17.7111 2.17486C 7.31201 -2.94141 0.0536454 2.51367 0.0159227 2.965C -0.0869954 2.89285 0.320625 3.90345 0.90275 4.47804C 0.931192 4.4612 0.972962 4.42404 1.02485 4.37788C 1.2458 4.18131 1.65021 3.82153 1.98998 4.17248C 2.2303 3.36122 2.52647 3.6495 2.73982 3.85717C 2.84403 3.9586 2.92848 4.0408 2.97701 3.96627C 3.08453 3.23844 3.5453 3.46012 3.85169 3.60752C 3.96681 3.6629 4.06013 3.70779 4.10473 3.68791Z"/>
<path id="path6_fill" d="M 87.1654 16.7847C 87.1874 16.502 86.9704 16.2576 86.6872 16.2461L 82.0107 16.0563L 81.5327 30.2294L 85.5892 30.5473C 85.8646 30.5689 86.1053 30.3631 86.1268 30.0878L 87.1654 16.7847Z"/>
<path id="path7_stroke" d="M 20.8129 128.794L 20.4252 129.11L 20.8129 128.794ZM 81.7422 10.6318L 81.6767 11.1275L 81.7422 10.6318ZM 78.4638 103.08L 78.5913 102.597L 78.4638 103.08ZM 14.5112 2.10764L 14.4969 1.60784L 14.3529 1.61196L 14.2332 1.69201L 14.5112 2.10764ZM 77.7504 12.3794L 78.2504 12.3794L 78.2504 11.4151L 77.4623 11.9708L 77.7504 12.3794ZM 76.8018 27.7371L 77.2871 27.8573L 77.2871 27.8573L 76.8018 27.7371ZM 74.7265 70.056L 75.2265 70.056L 75.2265 70.0351L 75.2248 70.0143L 74.7265 70.056ZM 56.9375 12.3794L 56.7427 12.8399L 56.7427 12.8399L 56.9375 12.3794ZM 39.3266 8.42872L 39.194 8.91084L 39.194 8.91084L 39.3266 8.42872ZM 24.1171 4.47804L 24.2497 3.99576L 24.2369 3.99261L 24.1171 4.47804ZM 9.70821 2.10764L 9.72936 1.60808L 9.68621 1.60626L 9.64338 1.61186L 9.70821 2.10764ZM 72.1469 20.2807L 72.6462 20.3083L 72.6805 19.6862L 72.0658 19.7874L 72.1469 20.2807ZM 67.463 105.15L 67.463 105.65L 67.9361 105.65L 67.9622 105.177L 67.463 105.15ZM 65.1599 26.2703L 65.6596 26.2862L 65.6599 26.2782L 65.6599 26.2703L 65.1599 26.2703ZM 62.5409 108.776L 62.0942 109L 63.0407 108.792L 62.5409 108.776ZM 55.015 27.392L 55.4661 27.6076L 55.9727 26.5476L 54.8576 26.9174L 55.015 27.392ZM 34.2583 28.226L 34.3809 27.7413L 33.7351 27.5779L 33.7586 28.2436L 34.2583 28.226ZM 37.3712 114.439L 36.8718 114.463L 36.8947 114.939L 37.3712 114.939L 37.3712 114.439ZM 0.691237 104.072L 0.303447 104.388L 0.691237 104.072ZM 48.9325 13.9597L 49.1935 13.5332L 49.1935 13.5332L 48.9325 13.9597ZM 49.733 20.2807L 49.8142 19.7874L 49.806 19.786L 49.7977 19.7849L 49.733 20.2807ZM 39.3266 22.3589L 39.7883 22.1672L 39.7883 22.1672L 39.3266 22.3589ZM 18.7695 28.226L 19.1838 27.9461L 18.1126 26.3601L 18.2712 28.2674L 18.7695 28.226ZM 16.3382 21.544L 16.7545 21.2671L 16.7545 21.2671L 16.3382 21.544ZM 32.183 34.9623L 32.6809 35.0078L 32.717 34.6126L 32.3403 34.4877L 32.183 34.9623ZM 31.1453 71.0882L 31.6453 71.0882L 31.6453 71.0525L 31.6402 71.0171L 31.1453 71.0882ZM 18.7695 19.4797L 19.0339 19.0554L 19.0114 19.0413L 18.9876 19.0298L 18.7695 19.4797ZM 26.6248 27.392L 27.1226 27.3453L 27.1192 27.3093L 27.1107 27.274L 26.6248 27.392ZM 9.70821 10.1902L 10.0892 9.86638L 10.0697 9.84349L 10.0477 9.82309L 9.70821 10.1902ZM 32.183 23.6084L 32.0066 24.0763L 32.0254 24.0833L 32.0446 24.0889L 32.183 23.6084ZM 21.8065 15.3511L 21.9989 14.8895L 21.9989 14.8895L 21.8065 15.3511ZM 14.5112 11.2224L 14.2176 11.6271L 14.2176 11.6271L 14.5112 11.2224ZM 26.6248 13.9597L 26.9104 13.5493L 26.8839 13.5308L 26.8553 13.516L 26.6248 13.9597ZM 38.1538 15.3511L 38.0397 15.8379L 38.0397 15.8379L 38.1538 15.3511ZM 21.5817 122.697L 21.0817 122.701L 21.0818 122.707L 21.5817 122.697ZM 33.2206 120.632L 33.0999 121.118L 33.8076 121.294L 33.7167 120.57L 33.2206 120.632ZM 26.3436 116.504L 25.8435 116.512L 25.8438 116.521L 26.3436 116.504ZM 41.5218 111.343L 41.126 111.037L 41.126 111.037L 41.5218 111.343ZM 32.0435 104.118L 31.5441 104.142L 32.0435 104.118ZM 56.2218 111.343L 56.3791 111.817L 57.1507 111.562L 56.5744 110.988L 56.2218 111.343ZM 62.7543 102.053L 62.2546 102.037L 62.2546 102.037L 62.7543 102.053ZM 75.7641 96.8925L 76.22 97.0978L 76.2915 96.9393L 76.2491 96.7706L 75.7641 96.8925ZM 68.9719 100.576L 68.8915 100.082L 68.9719 100.576ZM 20.7734 35.4758L 20.2734 35.4804L 20.7734 35.4758ZM 42.9181 107.814L 43.418 107.822L 43.418 107.822L 42.9181 107.814ZM 77.763 15.1135L 78.263 15.11L 78.263 15.1089L 77.763 15.1135ZM 46.058 9.74385L 46.1369 9.25011L 46.1369 9.25011L 46.058 9.74385ZM 31.7218 6.45338L 31.8453 5.96886L 31.8453 5.96886L 31.7218 6.45338ZM 16.0729 2.12623L 16.038 2.62502L 16.038 2.62502L 16.0729 2.12623ZM 41.6579 11.8898L 41.5487 12.3778L 41.5487 12.3778L 41.6579 11.8898ZM 11.4943 2.32709L 11.4117 2.82022L 11.4117 2.82022L 11.4943 2.32709ZM 77.7629 15.1085L 77.263 15.112L 77.263 15.113L 77.7629 15.1085ZM 44.5189 18.0972L 44.2819 18.5375L 44.2819 18.5375L 44.5189 18.0972ZM 23.2287 9.4402L 23.43 8.98252L 23.43 8.98252L 23.2287 9.4402ZM 9.49555 2.13442L 9.43437 1.63817L 9.43437 1.63817L 9.49555 2.13442ZM 31.0639 16.3257L 30.849 16.7772L 30.849 16.7772L 31.0639 16.3257ZM 7.31462 2.79322L 7.43526 2.30799L 7.43526 2.30799L 7.31462 2.79322ZM 11.2774 12.2171L 10.8763 12.5158L 10.8763 12.5158L 11.2774 12.2171ZM 3.85169 3.60752L 3.63493 4.05809L 3.63493 4.05809L 3.85169 3.60752ZM 9.30798 7.45515L 9.01524 7.86049L 9.01524 7.86049L 9.30798 7.45515ZM 17.8257 13.5576L 17.5731 13.9892L 17.5731 13.9892L 17.8257 13.5576ZM 28.0747 20.2483L 28.4844 19.9617L 28.4844 19.9617L 28.0747 20.2483ZM 21.4877 15.2182L 21.68 14.7567L 21.68 14.7567L 21.4877 15.2182ZM 15.64 12.0462L 15.3445 12.4495L 15.3445 12.4495L 15.64 12.0462ZM 2.73982 3.85717L 2.39107 4.21547L 2.39108 4.21547L 2.73982 3.85717ZM 15.0066 19.9803L 14.6349 20.3147L 14.6349 20.3147L 15.0066 19.9803ZM 20.1808 24.6539L 19.9044 25.0706L 20.1808 24.6539ZM 24.9377 29.8576L 24.4402 29.8069L 24.4372 29.8362L 24.4377 29.8657L 24.9377 29.8576ZM 1.02485 4.37788L 1.35718 4.75144L 1.35719 4.75144L 1.02485 4.37788ZM 5.09856 2.89976L 4.89527 3.35656L 4.89527 3.35656L 5.09856 2.89976ZM 82.0107 16.0563L 81.511 16.0395L 81.511 16.0395L 82.0107 16.0563ZM 86.6872 16.2461L 86.6669 16.7457L 86.6872 16.2461ZM 86.1268 30.0878L 85.6283 30.0488L 86.1268 30.0878ZM 21.7006 128.469L 22.2005 128.458L 21.7006 128.469ZM 82.1764 11.1443L 82.6762 11.1612L 82.1764 11.1443ZM 79.091 102.614L 79.5908 102.63L 79.091 102.614ZM 26.5402 122.279L 26.0405 122.296L 26.5402 122.279ZM 20.4479 34.4006L 20.8665 34.1271L 20.4479 34.4006ZM 87.1654 16.7847L 87.6638 16.8236L 87.1654 16.7847ZM 85.5892 30.5473L 85.5502 31.0458L 85.5892 30.5473ZM 17.6456 2.67056L 81.6767 11.1275L 81.8077 10.1361L 17.7766 1.67917L 17.6456 2.67056ZM 76.3165 27.6168C 75.698 30.1132 74.9185 37.6444 74.4219 46.0549C 73.9243 54.4845 73.7079 63.8781 74.2282 70.0978L 75.2248 70.0143C 74.7074 63.8479 74.9234 54.5255 75.4202 46.1138C 75.918 37.6831 76.6949 30.2478 77.2871 27.8573L 76.3165 27.6168ZM 56.7427 12.8399C 64.2674 16.023 72.2203 16.8901 78.0385 12.788L 77.4623 11.9708C 72.0735 15.7701 64.5502 15.0569 57.1323 11.9189L 56.7427 12.8399ZM 14.3914 2.59307L 23.9973 4.96348L 24.2369 3.99261L 14.631 1.6222L 14.3914 2.59307ZM 1.25399 4.12219C 1.00203 3.87829 0.799141 3.54773 0.647335 3.2508C 0.573677 3.10778 0.527683 3.00159 0.501004 2.92461C 0.48581 2.88131 0.493202 2.89151 0.497532 2.93039C 0.498931 2.94296 0.501852 2.97397 0.498309 3.01501C 0.495755 3.0446 0.485326 3.14684 0.411028 3.25211C 0.310052 3.39517 0.140511 3.4742 -0.0338908 3.45962C -0.162184 3.4489 -0.24708 3.39125 -0.271101 3.37441L 0.302946 2.55559C 0.272493 2.53424 0.182162 2.4742 0.04941 2.4631C -0.129451 2.44815 -0.302474 2.52883 -0.405975 2.67547C -0.482799 2.78432 -0.494797 2.89207 -0.497985 2.929C -0.499978 2.96236 -0.498714 3.01617 -0.496325 3.04107C -0.487128 3.12366 -0.460228 3.20546 -0.442584 3.25573C -0.403589 3.36591 -0.330592 3.53475 -0.242444 3.70719C -0.0706384 4.04117 0.221343 4.50321 0.551507 4.83389L 1.25399 4.12219ZM 0.514185 3.00665C 0.508679 3.07252 0.490241 3.11948 0.481552 3.13948C 0.487351 3.12753 0.458398 3.1836 0.460153 3.18032C 0.45857 3.18383 0.458647 3.18118 0.476448 3.16203C 0.520097 3.11343 0.578552 3.05915 0.67761 2.97825C 0.885495 2.80734 1.18025 2.59994 1.58632 2.36352C 2.41272 1.88062 3.58363 1.34432 5.09939 0.967121C 8.11257 0.213001 12.4048 0.121439 17.4904 2.62351L 17.9318 1.72622C 12.6183 -0.887981 8.08181 -0.810142 4.85661 -0.00295925C 3.25317 0.400498 1.95248 0.992824 1.08235 1.4998C 0.640165 1.75832 0.280424 2.01117 0.0435254 2.20499C -0.0798081 2.30645 -0.191318 2.41066 -0.263215 2.48905C -0.303187 2.5334 -0.350444 2.5934 -0.379175 2.63669C -0.404064 2.67512 -0.47043 2.78086 -0.48234 2.92336L 0.514185 3.00665ZM 21.2007 128.479L 1.07903 103.757L 0.303447 104.388L 20.4252 129.11L 21.2007 128.479ZM -0.484077 2.96501L -0.482027 102.178L 0.517973 102.178L 0.515923 2.96499L -0.484077 2.96501ZM 48.6715 14.3861C 50.334 15.4038 54.9943 17.1968 59.7963 18.6306C 62.207 19.3503 64.684 19.9877 66.8518 20.3935C 69.007 20.7967 70.9337 20.987 72.2281 20.7741L 72.0658 19.7874C 70.9587 19.9695 69.1831 19.8123 67.0356 19.4106C 64.9007 19.0115 62.4747 18.3868 60.0824 17.6724C 55.2785 16.2381 50.733 14.4755 49.1935 13.5332L 48.6715 14.3861ZM 49.6518 20.7741C 52.0488 21.1684 55.8723 21.8687 59.1003 22.8644C 60.7112 23.3606 62.1328 23.9128 63.166 24.54C 64.2246 25.1804 64.6599 25.771 64.6599 26.2703L 65.6599 26.2703C 65.6599 25.1893 64.7671 24.3399 63.6837 23.6844C 62.5748 23.0157 61.0402 22.4162 59.3948 21.9088C 56.1101 20.8974 52.2202 20.1832 49.8142 19.7874L 49.6518 20.7741ZM 38.8648 22.5507C 39.0431 22.9801 39.416 23.3735 39.8597 23.7263C 40.3038 24.0784 40.8916 24.444 41.5456 24.7875C 42.8457 25.4688 44.5235 26.1333 46.2419 26.6764C 47.9601 27.2187 49.7651 27.655 51.3228 27.887C 52.8614 28.1157 54.2715 28.1653 55.1723 27.8666L 54.8576 26.9174C 54.202 27.1348 53.0025 27.1256 51.4698 26.8978C 49.9563 26.6734 48.2283 26.2554 46.5431 25.7228C 44.8583 25.191 43.2626 24.5599 42.0102 23.902C 41.388 23.5759 40.8797 23.2609 40.4821 22.9436C 40.0841 22.6272 39.8694 22.3625 39.7883 22.1672L 38.8648 22.5507ZM 54.5639 27.1763C 52.9238 30.6078 51.5963 37.3946 50.6777 44.0051C 49.7557 50.6413 49.2334 57.2091 49.233 60.2266L 50.233 60.2266C 50.2326 57.2488 50.7498 50.7498 51.6682 44.1428C 52.5898 37.5101 53.9033 30.8773 55.4661 27.6076L 54.5639 27.1763ZM 31.685 34.9167C 30.6489 46.2546 29.6027 63.8645 30.6504 71.1593L 31.6402 71.0171C 30.6126 63.8616 31.6418 46.3776 32.6809 35.0078L 31.685 34.9167ZM 18.5051 19.9041C 21.6586 21.8691 23.4047 23.1299 24.4485 24.2221C 25.4809 25.2886 25.814 26.1664 26.1389 27.5099L 27.1107 27.274C 26.7679 25.8662 26.3243 24.7513 25.1714 23.5312C 24.0299 22.3368 22.1822 21.0172 19.0339 19.0554L 18.5051 19.9041ZM 26.127 27.4386C 26.5133 31.5645 28.7039 34.3355 32.0256 35.4368L 32.3403 34.4877C 29.4361 33.5247 27.4761 31.1207 27.1226 27.3453L 26.127 27.4386ZM 2.63756 4.33338L 9.36877 10.5573L 10.0477 9.82309L 3.31646 3.59915L 2.63756 4.33338ZM 5.2262 3.40871L 26.3943 14.4034L 26.8553 13.516L 5.68713 2.52128L 5.2262 3.40871ZM 21.0818 122.707L 21.2007 128.479L 22.2005 128.458L 22.0816 122.686L 21.0818 122.707ZM 24.3635 124.356C 23.6067 124.102 22.7533 123.532 21.9954 122.416L 21.168 122.978C 22.0386 124.26 23.0644 124.974 24.0453 125.304L 24.3635 124.356ZM 25.8438 116.521L 26.0405 122.296L 27.04 122.261L 26.8433 116.487L 25.8438 116.521ZM 33.3413 120.147C 31.2984 119.64 30.0784 119.156 29.132 118.536C 28.1968 117.932 27.5692 117.212 26.7305 116.187L 25.9566 116.82C 26.8068 117.859 27.5424 118.688 28.5858 119.374C 29.6181 120.044 30.9922 120.592 33.0999 121.118L 33.3413 120.147ZM 32.0446 24.0889C 34.1076 24.6829 36.3127 25.3593 38.0395 26.0191C 38.8997 26.3475 39.6161 26.6604 40.1433 26.9594C 40.4016 27.1051 40.5835 27.2267 40.7228 27.351C 40.8507 27.4604 40.8731 27.5575 40.8724 27.5173L 41.8405 27.2666C 41.7689 26.9904 41.575 26.7694 41.3844 26.6012C 41.1947 26.4352 40.9272 26.2544 40.6357 26.0891C 40.0633 25.766 39.2786 25.4221 38.3963 25.0849C 36.638 24.4136 34.3927 23.7244 32.3213 23.1279L 32.0446 24.0889ZM 41.126 111.037C 40.5148 111.831 39.7834 112.558 39.0593 113.107C 38.3158 113.671 37.7108 113.939 37.3712 113.939L 37.3712 114.939C 38.0693 114.939 38.9076 114.478 39.664 113.903C 40.4398 113.313 41.2649 112.492 41.9176 111.648L 41.126 111.037ZM 33.7586 28.2436L 36.599 108.794L 37.5984 108.758L 34.7579 28.2084L 33.7586 28.2436ZM 36.5993 108.8L 36.8718 114.463L 37.8706 114.415L 37.5981 108.752L 36.5993 108.8ZM 30.6453 71.0882C 30.6454 80.3945 31.02 93.4293 31.5441 104.142L 32.5429 104.093C 32.0193 93.3905 31.6453 80.3801 31.6453 71.0882L 30.6453 71.0882ZM 31.5441 104.142C 31.8926 111.267 32.3085 117.383 32.7245 120.695L 33.7167 120.57C 33.3039 117.286 32.8909 111.209 32.5429 104.093L 31.5441 104.142ZM 37.5093 108.491C 35.6791 105.861 34.5445 104.74 32.2547 103.664L 31.8323 104.571C 33.9721 105.56 34.9127 106.503 36.6881 109.061L 37.5093 108.491ZM 51.9747 104.118C 51.9747 104.465 52.1047 104.985 52.2943 105.551C 52.4885 106.129 52.7737 106.835 53.1188 107.559C 53.8073 109 54.791 110.62 55.8692 111.697L 56.5744 110.988C 55.5773 110.002 54.6874 108.525 54.0213 107.128C 53.689 106.432 53.4266 105.783 53.2425 105.233C 53.0537 104.67 52.9747 104.287 52.9747 104.118L 51.9747 104.118ZM 56.0644 110.868C 55.3806 111.095 54.2815 111.165 52.9624 111.075C 51.6492 110.986 50.1988 110.747 48.8068 110.387C 47.4161 110.028 46.1446 109.568 45.1725 109.023C 44.1754 108.466 43.6852 107.922 43.6077 107.481L 42.6228 107.654C 42.7862 108.584 43.6657 109.327 44.6848 109.896C 45.7289 110.478 47.1203 110.984 48.5569 111.355C 49.9922 111.725 51.5335 111.98 52.8943 112.073C 54.2493 112.165 55.5065 112.107 56.3791 111.817L 56.0644 110.868ZM 49.233 60.2266C 49.2331 77.0958 49.5444 87.5717 50.0433 94.0297C 50.2936 97.2665 50.5941 99.5205 50.9253 101.057C 51.2547 102.584 51.6343 103.514 52.1057 104.03L 52.8437 103.355C 52.5657 103.051 52.228 102.354 51.9028 100.846C 51.5793 99.3489 51.2881 97.1619 51.0403 93.9526C 50.543 87.5183 50.233 77.0809 50.233 60.2266L 49.233 60.2266ZM 62.9877 108.551C 62.3191 107.224 61.5266 106.097 59.9903 105.213C 58.4603 104.348 56.1922 103.715 52.545 103.197L 52.4044 104.188C 56.0246 104.702 58.1377 105.314 59.4979 106.084C 60.8519 106.835 61.4589 107.734 62.0942 109L 62.9877 108.551ZM 65.1599 26.2703C 64.6601 26.2544 64.6601 26.2546 64.6601 26.255C 64.6601 26.2553 64.6601 26.2558 64.6601 26.2566C 64.66 26.258 64.66 26.2601 64.6599 26.2629C 64.6597 26.2685 64.6594 26.2769 64.6591 26.288C 64.6584 26.3103 64.6573 26.3437 64.6559 26.3878C 64.6531 26.4761 64.6489 26.6076 64.6434 26.7804C 64.6325 27.1259 64.6163 27.6365 64.5953 28.2969C 64.5534 29.6176 64.4924 31.5375 64.4164 33.9337C 64.2642 38.7263 64.0516 45.4246 63.8096 53.0478C 63.3257 68.2941 62.7243 87.2399 62.2546 102.037L 63.2541 102.069C 63.7238 87.2716 64.3252 68.3259 64.8091 53.0795C 65.0511 45.4563 65.2637 38.758 65.4159 33.9655C 65.4919 31.5692 65.5529 29.6494 65.5948 28.3286C 65.6158 27.6682 65.632 27.1576 65.6429 26.8121C 65.6484 26.6393 65.6526 26.5079 65.6554 26.4196C 65.6568 26.3754 65.6579 26.3421 65.6586 26.3198C 65.6589 26.3086 65.6592 26.3002 65.6594 26.2946C 65.6595 26.2918 65.6595 26.2897 65.6596 26.2883C 65.6596 26.2876 65.6596 26.287 65.6596 26.2867C 65.6596 26.2863 65.6596 26.2862 65.1599 26.2703ZM 62.2546 102.037C 62.2129 103.35 62.1596 105.031 62.1166 106.383C 62.0952 107.06 62.0763 107.654 62.0628 108.079C 62.0561 108.291 62.0507 108.462 62.0469 108.579C 62.0451 108.637 62.0437 108.683 62.0427 108.713C 62.0422 108.729 62.0418 108.74 62.0416 108.748C 62.0414 108.752 62.0414 108.755 62.0413 108.757C 62.0413 108.758 62.0412 108.759 62.0412 108.759C 62.0412 108.76 62.0412 108.76 62.0412 108.76C 62.0412 108.76 62.0412 108.76 62.0412 108.76C 62.0412 108.76 62.0412 108.76 62.5409 108.776C 63.0407 108.792 63.0407 108.792 63.0407 108.792C 63.0407 108.792 63.0407 108.792 63.0407 108.792C 63.0407 108.791 63.0407 108.791 63.0407 108.791C 63.0407 108.791 63.0408 108.79 63.0408 108.789C 63.0409 108.787 63.0409 108.784 63.0411 108.78C 63.0413 108.772 63.0417 108.76 63.0422 108.745C 63.0431 108.714 63.0446 108.669 63.0464 108.611C 63.0502 108.493 63.0556 108.323 63.0623 108.111C 63.0758 107.685 63.0947 107.091 63.1161 106.415C 63.1591 105.063 63.2124 103.382 63.2541 102.069L 62.2546 102.037ZM 67.463 105.15C 67.4629 104.65 67.4633 104.65 67.4637 104.65C 67.4638 104.65 67.4641 104.65 67.4643 104.65C 67.4641 104.65 67.4659 104.65 67.4655 104.65C 67.4653 104.65 67.4678 104.65 67.4673 104.65C 67.4673 104.65 67.4687 104.65 67.4687 104.65C 67.4667 104.65 67.4667 104.65 67.4628 104.65C 67.4511 104.649 67.4399 104.648 67.4173 104.646C 67.3639 104.641 67.2985 104.633 67.1981 104.612C 66.9803 104.567 66.6926 104.487 66.3038 104.308C 65.5283 103.954 64.4088 103.227 63.1352 101.729L 62.3734 102.377C 63.7332 103.976 64.968 104.797 65.8885 105.218C 66.3477 105.426 66.7434 105.539 66.997 105.591C 67.1323 105.619 67.2496 105.634 67.32 105.641C 67.3593 105.645 67.3952 105.648 67.4152 105.648C 67.4271 105.649 67.4391 105.649 67.4451 105.65C 67.4491 105.65 67.4536 105.65 67.4556 105.65C 67.4571 105.65 67.4589 105.65 67.4596 105.65C 67.4603 105.65 67.4611 105.65 67.4614 105.65C 67.4617 105.65 67.4621 105.65 67.4622 105.65C 67.4626 105.65 67.463 105.65 67.463 105.15ZM 74.2265 70.056C 74.2265 75.0946 74.2265 80.7781 74.3564 85.7181C 74.4857 90.6365 74.7443 94.8859 75.2792 97.0143L 76.2491 96.7706C 75.7464 94.7704 75.4861 90.6401 75.356 85.6918C 75.2265 80.765 75.2265 75.0946 75.2265 70.056L 74.2265 70.056ZM 71.6477 20.2532L 67.2162 100.548L 68.2146 100.603L 72.6462 20.3083L 71.6477 20.2532ZM 67.2162 100.548L 66.9637 105.122L 67.9622 105.177L 68.2146 100.603L 67.2162 100.548ZM 75.3083 96.6871C 74.8653 97.6704 73.8217 98.4414 72.5475 99.0159C 71.281 99.5894 69.9055 99.9172 68.8915 100.082L 69.0524 101.069C 70.1027 100.898 71.6045 100.536 72.9586 99.9275C 74.305 99.3204 75.6253 98.4181 76.22 97.0978L 75.3083 96.6871ZM 68.8915 100.082C 68.4458 100.156 68.1172 100.163 67.8341 100.09L 67.5967 101.061C 68.0042 101.157 68.5332 101.153 69.0524 101.069L 68.8915 100.082ZM 78.5913 102.597L 69.0995 100.092L 68.8444 101.059L 78.3362 103.564L 78.5913 102.597ZM 20.2734 35.4804L 21.0818 122.701L 22.0817 122.692L 21.2734 35.4711L 20.2734 35.4804ZM 62.2546 102.037L 62.0412 108.76L 63.0407 108.792L 63.2541 102.069L 62.2546 102.037ZM 41.9176 111.648C 43.3702 109.767 43.4082 108.427 43.418 107.822L 42.4182 107.806C 42.4107 108.267 42.4092 109.375 41.126 111.037L 41.9176 111.648ZM 43.418 107.822C 43.4192 107.753 43.4196 107.711 43.4222 107.682C 43.426 107.636 43.4288 107.708 43.3771 107.795C 43.3424 107.854 43.2778 107.929 43.1722 107.976C 43.0699 108.021 42.9779 108.018 42.9248 108.009C 42.8426 107.996 42.8038 107.962 42.847 107.989L 43.3835 107.146C 43.3311 107.112 43.2204 107.044 43.084 107.022C 43.0039 107.009 42.8892 107.008 42.7679 107.061C 42.6819 107.108 42.5608 107.22 42.5162 107.286C 42.4397 107.416 42.4294 107.554 42.4256 107.6C 42.4208 107.662 42.4193 107.737 42.4182 107.806L 43.418 107.822ZM 77.2871 27.8573C 78.3195 23.6736 78.2963 19.8335 78.263 15.11L 77.263 15.117C 77.2963 19.8406 77.3265 23.556 76.3165 27.6168L 77.2871 27.8573ZM 57.1323 11.9189C 53.6668 10.4569 49.7962 9.83477 46.1369 9.25011L 45.9791 10.2376C 49.6384 10.8222 53.3911 11.4181 56.7427 12.8399L 57.1323 11.9189ZM 46.1369 9.25011C 43.7804 8.87361 41.5142 8.51228 39.4591 7.94661L 39.194 8.91084C 41.3024 9.48961 43.6227 9.86109 45.9791 10.2376L 46.1369 9.25011ZM 39.4591 7.94661C 37.5789 7.4298 34.7098 6.69874 31.8453 5.96886L 31.5984 6.9379C 34.4629 7.66778 37.3229 8.39648 39.194 8.91084L 39.4591 7.94661ZM 31.8453 5.96886C 28.9808 5.23898 26.1208 4.51029 24.2497 3.99593L 23.9846 4.96016C 25.8648 5.47697 28.7339 6.20802 31.5984 6.9379L 31.8453 5.96886ZM 14.5255 2.60743C 15.42 2.58123 15.6821 2.60015 16.038 2.62502L 16.1077 1.62745C 15.7518 1.60258 15.4406 1.58144 14.4969 1.60784L 14.5255 2.60743ZM 16.038 2.62502C 16.358 2.64738 16.7514 2.67456 17.7111 2.67486L 17.7111 1.67486C 16.7863 1.67517 16.4277 1.64981 16.1077 1.62745L 16.038 2.62502ZM 49.1935 13.5332C 48.557 13.1436 47.5979 12.8176 46.3821 12.4903C 45.1566 12.1604 43.6121 11.8147 41.767 11.4019L 41.5487 12.3778C 43.3937 12.7906 44.9174 13.1314 46.1221 13.4559C 47.3364 13.7828 48.1697 14.079 48.6715 14.3861L 49.1935 13.5332ZM 41.767 11.4019C 35.0781 9.90517 24.3415 7.50451 9.89613 1.64429L 9.5203 2.57098C 24.0434 8.45905 34.8597 10.881 41.5487 12.3778L 41.767 11.4019ZM 9.68707 2.60719C 10.2933 2.63189 10.8564 2.7272 11.4117 2.82022L 11.5769 1.83396C 11.0216 1.74094 10.3972 1.63731 9.72936 1.60808L 9.68707 2.60719ZM 11.4117 2.82022C 12.5219 3.00618 13.7285 3.2326 14.7891 2.52326L 14.2332 1.69201C 13.5605 2.14194 12.7846 2.03626 11.5769 1.83396L 11.4117 2.82022ZM 77.263 15.113L 77.263 15.1181L 78.263 15.1089L 78.2629 15.1039L 77.263 15.113ZM 78.2629 15.1049C 78.2568 14.2304 78.2504 13.3252 78.2504 12.3794L 77.2504 12.3794C 77.2504 13.3287 77.2568 14.2375 77.263 15.112L 78.2629 15.1049ZM 63.2541 102.069L 65.6596 26.2862L 64.6601 26.2544L 62.2546 102.037L 63.2541 102.069ZM 49.7977 19.7849C 48.3831 19.6003 46.7112 18.7091 44.7558 17.6569L 44.2819 18.5375C 46.1737 19.5555 48.0295 20.5626 49.6683 20.7765L 49.7977 19.7849ZM 44.7558 17.6569C 42.7754 16.5912 40.5657 15.407 38.2679 14.8642L 38.0397 15.8379C 40.2116 16.3423 42.3015 17.4718 44.2819 18.5375L 44.7558 17.6569ZM 38.2679 14.8642C 35.1427 14.1321 30.8068 12.2273 23.43 8.98252L 23.0274 9.89788C 30.3561 13.1215 34.8005 15.079 38.0397 15.8379L 38.2679 14.8642ZM 23.43 8.98252C 19.384 7.20282 14.4375 5.02705 8.30165 2.43713L 7.91278 3.35842C 14.0418 5.9454 18.9814 8.11818 23.0274 9.89788L 23.43 8.98252ZM 8.52672 3.16984C 8.70951 2.888 8.82392 2.80216 8.91739 2.75765C 9.03867 2.69989 9.19115 2.67573 9.55673 2.63066L 9.43437 1.63817C 9.11857 1.67711 8.7856 1.7128 8.48742 1.8548C 8.16143 2.01005 7.92237 2.2639 7.68772 2.62571L 8.52672 3.16984ZM 9.55673 2.63066C 9.62367 2.62241 9.69622 2.61346 9.77305 2.60341L 9.64338 1.61186C 9.57021 1.62143 9.50131 1.62992 9.43437 1.63817L 9.55673 2.63066ZM 39.7883 22.1672C 39.1857 20.7158 37.8681 19.5448 36.3403 18.5507C 34.8088 17.5556 32.9855 16.6865 31.2788 15.8742L 30.849 16.7772C 32.5558 17.5895 34.3202 18.4281 35.7949 19.3889C 37.2733 20.3507 38.3803 21.384 38.8648 22.5507L 39.7883 22.1672ZM 31.2788 15.8742C 29.5925 15.0717 28.0275 14.3286 26.9104 13.5493L 26.3392 14.3701C 27.5254 15.1934 29.1628 15.9746 30.849 16.7772L 31.2788 15.8742ZM 5.80951 3.31926C 5.94181 3.18749 6.1092 3.1312 6.34656 3.13235C 6.61201 3.13009 6.89054 3.20301 7.19398 3.27845L 7.43526 2.30799C 7.13182 2.23255 6.73597 2.1378 6.35144 2.13237C 5.93884 2.13035 5.48068 2.23539 5.10383 2.61073L 5.80951 3.31926ZM 7.19398 3.27845C 7.35375 3.31817 7.52428 3.36013 7.67891 3.3857C 7.83117 3.41045 8.02858 3.43003 8.22197 3.38443L 7.99247 2.41112C 8.01778 2.39996 7.94691 2.41687 7.83936 2.39865C 7.72531 2.38055 7.59503 2.34771 7.43526 2.30799L 7.19398 3.27845ZM 43.6152 107.557L 41.8602 27.5576L 40.8604 27.5796L 42.6154 107.578L 43.6152 107.557ZM 40.8723 27.4597C 40.8637 27.4444 40.8967 27.4425 40.8135 27.5C 40.7169 27.5758 40.5994 27.6339 40.4033 27.7052C 39.9942 27.8575 39.4509 27.9667 38.7851 28.0334C 37.4397 28.1707 35.8037 28.104 34.3809 27.7413L 34.1356 28.7107C 35.6595 29.0936 37.4693 29.1702 38.8856 29.0283C 39.6007 28.9555 40.2672 28.8195 40.749 28.6436C 40.9985 28.5508 41.2467 28.4239 41.4177 28.2969C 41.6013 28.1576 41.7863 27.9557 41.8483 27.6775L 40.8723 27.4597ZM 40.8566 27.4029L 40.8604 27.5796L 41.8602 27.5576L 41.8563 27.381L 40.8566 27.4029ZM 40.8724 27.5173C 40.8709 27.5116 40.8694 27.5028 40.8692 27.4918C 40.8689 27.4807 40.8701 27.4698 40.8723 27.4597L 41.8483 27.6775C 41.8705 27.5622 41.8676 27.3853 41.8405 27.2666L 40.8724 27.5173ZM 18.9876 19.0298C 15.8558 17.5116 13.5502 14.4319 11.6784 11.9185L 10.8763 12.5158C 12.7179 14.9886 15.1617 18.2864 18.5514 19.9296L 18.9876 19.0298ZM 11.6784 11.9185C 11.1104 11.1558 10.581 10.4454 10.0892 9.86638L 9.32725 10.514C 9.79861 11.0682 10.3083 11.753 10.8763 12.5158L 11.6784 11.9185ZM 3.47164 4.03934C 3.49167 3.9038 3.51987 3.87784 3.50713 3.89385C 3.49852 3.90466 3.48119 3.92161 3.45449 3.93577C 3.42837 3.94962 3.405 3.95462 3.39083 3.95607C 3.37064 3.95814 3.38087 3.95219 3.43882 3.97205C 3.49416 3.99101 3.55402 4.01917 3.63493 4.05809L 4.06845 3.15695C 3.95683 3.10325 3.62529 2.92675 3.28872 2.9613C 3.08079 2.98264 2.87729 3.07945 2.72478 3.27102C 2.58582 3.44556 2.51612 3.66483 2.48238 3.8932L 3.47164 4.03934ZM 3.63493 4.05809C 3.69249 4.08578 3.76769 4.12125 3.83458 4.14612C 3.87337 4.1598 3.94415 4.17881 3.99546 4.187C 4.05714 4.19535 4.17733 4.20297 4.30831 4.14459L 3.90116 3.23123C 4.00984 3.18278 4.10163 3.19225 4.12967 3.19605C 4.16264 3.20051 4.18067 3.2079 4.17473 3.20575C 4.16627 3.2029 4.16103 3.20049 4.14093 3.19128C 4.11998 3.18177 4.09723 3.17079 4.06845 3.15695L 3.63493 4.05809ZM 3.81112 4.09262C 6.67504 6.17036 7.84536 7.01558 9.01524 7.86049L 9.60073 7.04981C 8.43084 6.2049 7.2614 5.36031 4.39835 3.2832L 3.81112 4.09262ZM 9.01524 7.86049C 10.1851 8.70539 11.3546 9.54999 14.2176 11.6271L 14.8048 10.8177C 11.9409 8.73994 10.7706 7.89471 9.60073 7.04981L 9.01524 7.86049ZM 21.6141 15.8126C 23.5791 16.6294 24.8107 17.4291 25.7144 18.2306C 26.6052 19.0141 27.1328 19.7742 27.6651 20.535L 28.4844 19.9617C 27.9521 19.2009 27.3514 18.3484 26.3771 17.4816C 25.4158 16.6329 24.0455 15.7448 21.9989 14.8895L 21.6141 15.8126ZM 27.6651 20.535C 28.5922 21.8601 29.4788 23.1234 32.0066 24.0763L 32.3593 23.1405C 30.1136 22.294 29.3712 21.2291 28.4844 19.9617L 27.6651 20.535ZM 21.9989 14.8895C 21.8894 14.8439 21.7832 14.7997 21.68 14.7567L 21.2954 15.6797C 21.3986 15.7227 21.5048 15.767 21.6141 15.8126L 21.9989 14.8895ZM 21.68 14.7567C 19.6812 13.9239 18.8485 13.5782 18.0782 13.1261L 17.5731 13.9892C 18.4026 14.4733 19.2966 14.847 21.2954 15.6797L 21.68 14.7567ZM 18.0782 13.1261C 17.4919 12.7837 16.9415 12.3797 15.9354 11.6428L 15.3445 12.4495C 16.3505 13.1865 16.9431 13.6197 17.5731 13.9892L 18.0782 13.1261ZM 15.9354 11.6428C 15.61 11.4044 15.2381 11.132 14.8048 10.8177L 14.2176 11.6271C 14.649 11.9401 15.0191 12.2111 15.3445 12.4495L 15.9354 11.6428ZM 2.55802 3.69342C 2.61131 3.61159 2.72536 3.50879 2.89787 3.49624C 3.03261 3.48645 3.12182 3.5402 3.13488 3.54797C 3.15604 3.56055 3.16231 3.56815 3.14681 3.55432C 3.13154 3.54087 3.11462 3.52424 3.08857 3.49888L 2.39108 4.21547C 2.42459 4.24809 2.52044 4.34603 2.62371 4.40745C 2.67697 4.43912 2.8029 4.50579 2.97038 4.49361C 3.17564 4.47869 3.31844 4.35822 3.396 4.23912L 2.55802 3.69342ZM 3.08857 3.49888C 3.03523 3.44696 2.94776 3.36394 2.85534 3.29666C 2.76043 3.22946 2.58717 3.12708 2.3621 3.1329C 2.10697 3.13949 1.91259 3.27852 1.78318 3.44565C 1.6633 3.60048 1.5781 3.80253 1.51057 4.03047L 2.46939 4.31449C 2.49456 4.22952 2.51788 4.16786 2.53765 4.12434C 2.55772 4.08018 2.57111 4.06144 2.57387 4.05787C 2.57636 4.05466 2.56266 4.07351 2.52768 4.09383C 2.48944 4.11604 2.44064 4.1312 2.38793 4.13256C 2.33856 4.13384 2.30308 4.12264 2.28682 4.11615C 2.27163 4.11008 2.26811 4.10615 2.27755 4.11284C 2.28651 4.11918 2.30049 4.1303 2.32112 4.14893C 2.34321 4.16876 2.36441 4.18951 2.39107 4.21547L 3.08857 3.49888ZM 1.59476 4.47874C 9.09572 14.158 12.8417 18.3217 14.6349 20.3147L 15.3783 19.6459C 13.585 17.6529 9.86315 13.5169 2.38521 3.86622L 1.59476 4.47874ZM 14.6349 20.3147C 15.3466 21.1057 15.7293 21.529 15.9218 21.8209L 16.7545 21.2671C 16.5194 20.9161 16.09 20.4369 15.3783 19.6459L 14.6349 20.3147ZM 15.9218 21.8209C 16.3038 22.3952 16.9391 22.961 17.6333 23.4925C 18.3333 24.028 19.1411 24.5642 19.9044 25.0706L 20.4572 24.2373C 19.6939 23.7309 18.914 23.2138 18.2412 22.6984C 17.5626 22.1789 17.0398 21.6961 16.7545 21.2671L 15.9218 21.8209ZM 24.4377 29.8657L 25.8436 116.512L 26.8435 116.496L 25.4376 29.8495L 24.4377 29.8657ZM 24.4377 29.8659C 24.4372 29.8345 24.4201 29.9896 24.1184 30.1975C 23.8274 30.4026 23.4722 30.5393 22.9697 30.5472C 22.0195 30.575 20.6181 30.0696 19.1838 27.9461L 18.3551 28.5059C 19.9211 30.8243 21.6113 31.5874 22.9989 31.5468C 23.6653 31.5205 24.2905 31.2889 24.6859 31.0209C 25.0705 30.7558 25.4456 30.3333 25.4376 29.8493L 24.4377 29.8659ZM 1.15754 4.90826C 1.2387 4.86019 1.32615 4.77905 1.35718 4.75144L 0.69251 4.00431C 0.664861 4.02891 0.647486 4.04431 0.633855 4.05573C 0.62726 4.06128 0.623484 4.06399 0.625679 4.06242C 0.626085 4.06211 0.62804 4.06065 0.631331 4.05839C 0.634532 4.05619 0.640191 4.05243 0.647964 4.04783L 1.15754 4.90826ZM 1.35719 4.75144C 1.41242 4.7023 1.46352 4.65628 1.52166 4.61307C 1.57787 4.57079 1.62188 4.54514 1.65359 4.53205C 1.68445 4.51932 1.68174 4.52744 1.6572 4.52399C 1.62432 4.51936 1.6145 4.50348 1.63076 4.52027L 2.34921 3.82469C 2.19558 3.66601 2.0078 3.56349 1.79662 3.53376C 1.62244 3.51656 1.40247 3.55632 1.27212 3.60767C 1.0264 3.71667 0.802987 3.90603 0.692509 4.00431L 1.35719 4.75144ZM 21.2954 15.6797L 21.6142 15.8126L 21.9988 14.8895L 21.68 14.7567L 21.2954 15.6797ZM 52.9747 104.118C 52.9747 103.931 52.975 103.913 52.9752 103.896C 52.9754 103.877 52.9754 103.863 52.9747 103.691L 51.9747 103.694C 51.9754 103.865 51.9754 103.872 51.9753 103.885C 51.9751 103.899 51.9747 103.922 51.9747 104.118L 52.9747 104.118ZM 4.57152 3.8671C 4.6649 3.62386 4.74373 3.47341 4.80456 3.38329C 4.85844 3.29721 4.89243 3.29322 4.87037 3.29901C 4.79215 3.33828 4.71795 3.27765 4.89527 3.35656L 5.30186 2.44296C 5.19409 2.39499 4.82469 2.20298 4.42168 2.40532C 4.07401 2.57988 3.84128 2.97904 3.63795 3.50872L 4.57152 3.8671ZM 4.89527 3.35656C 4.97083 3.39019 5.27984 3.55371 5.61823 3.43817L 5.29511 2.49182C 5.32119 2.48291 5.34634 2.47962 5.36711 2.47962C 5.38653 2.47961 5.39792 2.48247 5.39804 2.4825C 5.39821 2.48254 5.39629 2.48207 5.39186 2.48059C 5.38742 2.4791 5.38123 2.47687 5.37277 2.47352C 5.35428 2.4662 5.33389 2.45721 5.30186 2.44296L 4.89527 3.35656ZM 81.6767 11.1275L 81.511 16.0395L 82.5105 16.0732L 82.6762 11.1612L 81.6767 11.1275ZM 81.9905 16.5559L 86.6669 16.7457L 86.7074 15.7466L 82.031 15.5567L 81.9905 16.5559ZM 86.6669 16.7457L 85.6283 30.0488L 86.6253 30.1267L 87.6638 16.8236L 86.6669 16.7457ZM 81.511 16.0395L 81.033 30.2125L 82.0324 30.2462L 82.5105 16.0732L 81.511 16.0395ZM 81.033 30.2125L 78.5913 102.597L 79.5908 102.63L 82.0324 30.2462L 81.033 30.2125ZM 85.6283 30.0488L 81.5717 29.7309L 81.4936 30.7279L 85.5502 31.0458L 85.6283 30.0488ZM 0.48414 4.75148L 18.6944 32.6303L 19.5316 32.0834L 1.32136 4.20461L 0.48414 4.75148ZM 18.6944 32.6303L 20.0293 34.674L 20.8665 34.1271L 19.5316 32.0834L 18.6944 32.6303ZM 18.2712 28.2674L 18.6147 32.3983L 19.6113 32.3154L 19.2678 28.1846L 18.2712 28.2674ZM 19.9044 25.0706C 21.9033 26.3967 23.0784 27.3294 23.7373 28.0761C 24.3726 28.796 24.492 29.2996 24.4402 29.8069L 25.4351 29.9084C 25.5211 29.065 25.2639 28.2948 24.4872 27.4145C 23.7341 26.5611 22.4619 25.5672 20.4572 24.2373L 19.9044 25.0706ZM 20.4252 129.11C 21.0257 129.848 22.2201 129.409 22.2005 128.458L 21.2007 128.479L 21.2007 128.479L 20.4252 129.11ZM 81.6767 11.1275L 81.6767 11.1275L 82.6762 11.1612C 82.6935 10.6469 82.3178 10.2034 81.8077 10.1361L 81.6767 11.1275ZM 78.3362 103.564C 78.957 103.727 79.5691 103.272 79.5908 102.63L 78.5913 102.597L 78.5913 102.597L 78.3362 103.564ZM 1.07903 103.757C 0.69155 103.292 0.510711 102.783 0.517973 102.178L -0.482027 102.178C -0.474737 102.953 -0.180031 103.782 0.303447 104.388L 1.07903 103.757ZM 24.0453 125.304C 24.9947 125.623 25.8013 125.265 26.3217 124.62C 26.8212 124.001 27.0691 123.118 27.04 122.261L 26.0405 122.296C 26.0632 122.96 25.8643 123.594 25.5434 123.992C 25.2434 124.364 24.8562 124.521 24.3635 124.356L 24.0453 125.304ZM 21.2734 35.4711C 21.2641 35.0181 21.1101 34.5092 20.8665 34.1271L 20.0293 34.674C 20.2037 34.9318 20.2756 35.1691 20.2734 35.4804L 21.2734 35.4711ZM 86.6669 16.7457L 86.6669 16.7457L 87.6638 16.8236C 87.708 16.2584 87.2739 15.7696 86.7074 15.7466L 86.6669 16.7457ZM 85.6283 30.0488L 85.6283 30.0488L 85.5502 31.0458C 86.1009 31.0889 86.5823 30.6774 86.6253 30.1267L 85.6283 30.0488Z"/>
</defs>
</svg>
