<svg width="160" height="160" viewBox="0 0 160 160" version="1.1" xmlns="http://www.w3.org/2000/svg" xmlns:xlink="http://www.w3.org/1999/xlink">
<title>print-icon-c</title>
<desc>Created using Figma</desc>
<g id="Canvas" transform="translate(-191 247)">
<g id="print-icon-c">
<g id="backing">
<g id="Rectangle 9">
<mask id="mask0_outline_ins">
<use xlink:href="#path0_fill" fill="white" transform="translate(191 -247)"/>
</mask>
<g mask="url(#mask0_outline_ins)">
<use xlink:href="#path1_stroke_2x" transform="translate(191 -247)" fill="#FFFFFF"/>
</g>
</g>
<g id="Ellipse 6">
<use xlink:href="#path2_fill" transform="translate(208 -230)" fill="#FFF901"/>
</g>
</g>
<g id="pad">
<g id="Rectangle 10">
<use xlink:href="#path3_fill" transform="matrix(0.988927 0.1484 -0.148247 0.98895 208.71 -197.193)" fill="#1C1C1C"/>
<mask id="mask1_outline_ins">
<use xlink:href="#path3_fill" fill="white" transform="matrix(0.988927 0.1484 -0.148247 0.98895 208.71 -197.193)"/>
</mask>
<g mask="url(#mask1_outline_ins)">
<use xlink:href="#path4_stroke_2x" transform="matrix(0.988927 0.1484 -0.148247 0.98895 208.71 -197.193)" fill="#1C1C1C"/>
</g>
</g>
<g id="Rectangle 10">
<mask id="mask2_outline_ins">
<use xlink:href="#path5_fill" fill="white" transform="matrix(0.988927 0.1484 -0.148247 0.98895 208.831 -198)"/>
<use xlink:href="#path6_fill" fill="white" transform="matrix(0.988927 0.1484 -0.148247 0.98895 208.831 -198)"/>
<use xlink:href="#path7_fill" fill="white" transform="matrix(0.988927 0.1484 -0.148247 0.98895 208.831 -198)"/>
<use xlink:href="#path8_fill" fill="white" transform="matrix(0.988927 0.1484 -0.148247 0.98895 208.831 -198)"/>
<use xlink:href="#path9_fill" fill="white" transform="matrix(0.988927 0.1484 -0.148247 0.98895 208.831 -198)"/>
<use xlink:href="#path10_fill" fill="white" transform="matrix(0.988927 0.1484 -0.148247 0.98895 208.831 -198)"/>
</mask>
<g mask="url(#mask2_outline_ins)">
<use xlink:href="#path11_stroke_2x" transform="matrix(0.988927 0.1484 -0.148247 0.98895 208.831 -198)" fill="#1C1C1C"/>
</g>
</g>
<g id="Vector 4">
<use xlink:href="#path12_fill" transform="translate(215.847 -187.5)" fill="#FFF901"/>
<use xlink:href="#path13_stroke" transform="translate(215.847 -187.5)" fill="#1C1C1C"/>
</g>
</g>
<g id="pencil">
<g id="Rectangle 11">
<use xlink:href="#path14_fill" transform="matrix(0.955772 -0.294107 0.298456 0.954423 287 -171.297)" fill="#FFF901"/>
<use xlink:href="#path15_fill" transform="matrix(0.955772 -0.294107 0.298456 0.954423 287 -171.297)" fill="#FFF901"/>
<use xlink:href="#path16_fill" transform="matrix(0.955772 -0.294107 0.298456 0.954423 287 -171.297)" fill="#FFF901"/>
<use xlink:href="#path17_fill" transform="matrix(0.955772 -0.294107 0.298456 0.954423 287 -171.297)" fill="#FFF901"/>
<use xlink:href="#path18_fill" transform="matrix(0.955772 -0.294107 0.298456 0.954423 287 -171.297)" fill="#FFF901"/>
<mask id="mask3_outline_ins">
<use xlink:href="#path14_fill" fill="white" transform="matrix(0.955772 -0.294107 0.298456 0.954423 287 -171.297)"/>
<use xlink:href="#path15_fill" fill="white" transform="matrix(0.955772 -0.294107 0.298456 0.954423 287 -171.297)"/>
<use xlink:href="#path16_fill" fill="white" transform="matrix(0.955772 -0.294107 0.298456 0.954423 287 -171.297)"/>
<use xlink:href="#path17_fill" fill="white" transform="matrix(0.955772 -0.294107 0.298456 0.954423 287 -171.297)"/>
<use xlink:href="#path18_fill" fill="white" transform="matrix(0.955772 -0.294107 0.298456 0.954423 287 -171.297)"/>
</mask>
<g mask="url(#mask3_outline_ins)">
<use xlink:href="#path19_stroke_2x" transform="matrix(0.955772 -0.294107 0.298456 0.954423 287 -171.297)" fill="#1C1C1C"/>
</g>
</g>
<g id="eraser">
<mask id="mask4_outline_ins">
<use xlink:href="#path20_fill" fill="white" transform="matrix(0.955772 -0.294107 0.298456 0.954423 334.701 -184.671)"/>
</mask>
<g mask="url(#mask4_outline_ins)">
<use xlink:href="#path21_stroke_2x" transform="matrix(0.955772 -0.294107 0.298456 0.954423 334.701 -184.671)" fill="#1C1C1C"/>
</g>
</g>
</g>
</g>
</g>
<defs>
<path id="path0_fill" d="M 0 0L 160 0L 160 160L 0 160L 0 0Z"/>
<path id="path1_stroke_2x" d="M 0 0L 0 -1L -1 -1L -1 0L 0 0ZM 160 0L 161 0L 161 -1L 160 -1L 160 0ZM 160 160L 160 161L 161 161L 161 160L 160 160ZM 0 160L -1 160L -1 161L 0 161L 0 160ZM 0 1L 160 1L 160 -1L 0 -1L 0 1ZM 159 0L 159 160L 161 160L 161 0L 159 0ZM 160 159L 0 159L 0 161L 160 161L 160 159ZM 1 160L 1 0L -1 0L -1 160L 1 160Z"/>
<path id="path2_fill" d="M 125 62.5C 125 97.0178 97.0178 125 62.5 125C 27.9822 125 0 97.0178 0 62.5C 0 27.9822 27.9822 0 62.5 0C 97.0178 0 125 27.9822 125 62.5Z"/>
<path id="path3_fill" d="M 11.6129 31.4978L 13.9197 42.6375L 118.92 45.2596L 137.694 3.11162L 133.268 3.35691L 133.874 5.62011L 117.799 42.9403L 14.671 41.1274L 14.3243 38.815L 13.6427 36.8535L 13.2999 35.4288L 18.8438 30.4128L 46.8791 5.04652L 46.2139 0.608679L 11.6129 31.4978Z"/>
<path id="path4_stroke_2x" d="M 0 31.198L -0.321993 30.8155L -0.551881 31.009L -0.488891 31.3028L 0 31.198ZM 2.25954 41.7377L 1.77065 41.8425L 1.8489 42.2075L 2.22108 42.2362L 2.25954 41.7377ZM 36.1389 0.777307L 36.1029 0.278607L 35.941 0.290301L 35.8169 0.394788L 36.1389 0.777307ZM 46.8957 0L 47.2287 0.372993L 48.3236 -0.604488L 46.8596 -0.4987L 46.8957 0ZM -0.0129051 31.6978L 11.6 31.9976L 11.6258 30.998L 0.0129051 30.6981L -0.0129051 31.6978ZM 13.9582 42.1389L 2.29801 41.2392L 2.22108 42.2362L 13.8813 43.136L 13.9582 42.1389ZM 2.74844 41.6329L 0.488891 31.0932L -0.488891 31.3028L 1.77065 41.8425L 2.74844 41.6329ZM 0.321993 31.5805L 36.4609 1.15983L 35.8169 0.394788L -0.321993 30.8155L 0.321993 31.5805ZM 46.8596 -0.4987L 36.1029 0.278607L 36.1749 1.27601L 46.9317 0.4987L 46.8596 -0.4987ZM 46.5468 0.981672L 47.2287 0.372993L 46.5627 -0.372993L 45.8809 0.235686L 46.5468 0.981672ZM 11.6129 31.4978L 10.9469 30.7518L 10.5167 31.1359L 10.6337 31.7006L 11.6129 31.4978ZM 13.9197 42.6375L 12.9405 42.8402L 13.1014 43.6173L 13.8948 43.6371L 13.9197 42.6375ZM 118.92 45.2596L 118.895 46.2593L 119.562 46.2759L 119.834 45.6665L 118.92 45.2596ZM 14.671 41.1274L 13.682 41.2756L 13.8075 42.1124L 14.6534 42.1272L 14.671 41.1274ZM 117.799 42.9403L 117.782 43.9402L 118.452 43.952L 118.718 43.3359L 117.799 42.9403ZM 13.2999 35.4288L 12.629 34.6873L 12.1888 35.0856L 12.3277 35.6627L 13.2999 35.4288ZM 46.8791 5.04652L 47.55 5.78804L 47.9475 5.4284L 47.8681 4.89827L 46.8791 5.04652ZM 133.874 5.62011L 134.793 6.0157L 134.93 5.69679L 134.84 5.36137L 133.874 5.62011ZM 137.694 3.11162L 138.608 3.51851L 139.274 2.02253L 137.639 2.11315L 137.694 3.11162ZM 46.2139 0.608679L 47.2028 0.460429L 46.9285 -1.36976L 45.5479 -0.137308L 46.2139 0.608679ZM 18.8438 30.4128L 18.1728 29.6712L 18.8438 30.4128ZM 14.3243 38.815L 15.3133 38.6667L 15.2995 38.5747L 15.2689 38.4867L 14.3243 38.815ZM 13.6427 36.8535L 12.6704 37.0874L 12.6819 37.1352L 12.6981 37.1817L 13.6427 36.8535ZM 133.268 3.35691L 133.213 2.35844L 131.984 2.42656L 132.302 3.61565L 133.268 3.35691ZM 10.6337 31.7006L 12.9405 42.8402L 14.899 42.4347L 12.5921 31.295L 10.6337 31.7006ZM 13.8948 43.6371L 118.895 46.2593L 118.945 44.2599L 13.9447 41.6378L 13.8948 43.6371ZM 14.6534 42.1272L 117.782 43.9402L 117.817 41.9405L 14.6885 40.1275L 14.6534 42.1272ZM 118.718 43.3359L 134.793 6.0157L 132.956 5.22452L 116.881 42.5448L 118.718 43.3359ZM 119.834 45.6665L 138.608 3.51851L 136.781 2.70473L 118.007 44.8527L 119.834 45.6665ZM 12.2788 32.2438L 46.8798 1.35467L 45.5479 -0.137308L 10.9469 30.7518L 12.2788 32.2438ZM 47.8681 4.89827L 47.2028 0.460429L 45.2249 0.75693L 45.8902 5.19477L 47.8681 4.89827ZM 13.9708 36.1703L 19.5147 31.1543L 18.1728 29.6712L 12.629 34.6873L 13.9708 36.1703ZM 19.5147 31.1543L 47.55 5.78804L 46.2082 4.305L 18.1728 29.6712L 19.5147 31.1543ZM 13.3354 38.9632L 13.682 41.2756L 15.6599 40.9791L 15.3133 38.6667L 13.3354 38.9632ZM 12.3277 35.6627L 12.6704 37.0874L 14.6149 36.6195L 14.2722 35.1949L 12.3277 35.6627ZM 12.6981 37.1817L 13.3797 39.1432L 15.2689 38.4867L 14.5873 36.5252L 12.6981 37.1817ZM 134.84 5.36137L 134.234 3.09817L 132.302 3.61565L 132.908 5.87885L 134.84 5.36137ZM 137.639 2.11315L 133.213 2.35844L 133.323 4.35538L 137.749 4.11009L 137.639 2.11315Z"/>
<path id="path5_fill" d="M 0 32.0138L 11.6129 32.3136L 46.2139 1.42447L 46.8957 0.815795L 36.1389 1.5931L 0 32.0138Z"/>
<path id="path6_fill" d="M 14.671 41.9432L 117.799 43.7561L 117.338 40.6769L 117.255 40.1261L 117.034 38.6503L 116.73 36.6238L 109.972 36.599L 99.9295 36.5622L 87.8091 36.5178L 75.6603 36.4732L 64.7811 36.4333L 54.7387 36.3965L 45.5332 36.3628L 36.3276 36.329L 26.2852 36.2922L 13.2999 36.2446L 13.6427 37.6693L 14.3243 39.6308L 14.671 41.9432Z"/>
<path id="path7_fill" d="M 13.2999 36.2446L 26.2852 36.2922L 36.3276 36.329L 45.5332 36.3628L 54.7387 36.3965L 64.7811 36.4333L 75.6603 36.4732L 87.8091 36.5178L 99.9295 36.5622L 109.972 36.599L 116.73 36.6238L 119.568 29.8846L 132.15 0L 126.292 0.402727L 118.014 0.971883L 108.079 1.65487L 98.9725 2.28094L 89.8659 2.90701L 80.7593 3.53308L 72.4805 4.10224L 64.2018 4.6714L 55.923 5.24056L 46.8791 5.86232L 18.8438 31.2286L 13.2999 36.2446Z"/>
<path id="path8_fill" d="M 116.73 36.6238L 117.034 38.6503L 117.255 40.1261L 117.338 40.6769L 117.799 43.7561L 133.874 6.43591L 133.268 4.1727L 133.075 3.4523L 132.15 0L 119.568 29.8846L 116.73 36.6238Z"/>
<path id="path9_fill" d="M 11.6129 32.3136L 13.9197 43.4533L 118.92 46.0754L 137.694 3.92742L 133.268 4.1727L 133.874 6.43591L 117.799 43.7561L 14.671 41.9432L 14.3243 39.6308L 13.6427 37.6693L 13.2999 36.2446L 18.8438 31.2286L 46.8791 5.86232L 46.2139 1.42447L 11.6129 32.3136Z"/>
<path id="path10_fill" d="M 11.6129 32.3136L 0 32.0138L 2.25954 42.5535L 13.9197 43.4533L 11.6129 32.3136Z"/>
<path id="path11_stroke_2x" d="M 14.671 41.9432L 14.1765 42.0173L 14.2392 42.4357L 14.6622 42.4431L 14.671 41.9432ZM 117.799 43.7561L 117.791 44.2561L 118.126 44.262L 118.259 43.9539L 117.799 43.7561ZM 13.2999 36.2446L 12.9644 35.8738L 12.7444 36.073L 12.8138 36.3616L 13.2999 36.2446ZM 133.874 6.43591L 134.333 6.6337L 134.402 6.47424L 134.357 6.30654L 133.874 6.43591ZM 36.3276 36.329L 36.3258 36.829L 36.3258 36.829L 36.3276 36.329ZM 54.7387 36.3965L 54.7368 36.8965L 54.7387 36.3965ZM 75.6603 36.4732L 75.6585 36.9732L 75.6603 36.4732ZM 99.9295 36.5622L 99.9276 37.0622L 99.9295 36.5622ZM 18.8438 31.2286L 18.5083 30.8578L 18.8438 31.2286ZM 119.568 29.8846L 120.029 30.0786L 119.568 29.8846ZM 117.338 40.6769L 117.832 40.6028L 117.832 40.6027L 117.338 40.6769ZM 13.6427 37.6693L 13.1566 37.7862L 13.1623 37.8101L 13.1704 37.8334L 13.6427 37.6693ZM 117.034 38.6503L 117.529 38.5762L 117.529 38.5762L 117.034 38.6503ZM 117.255 40.1261L 116.761 40.2002L 116.761 40.2002L 117.255 40.1261ZM -0.0129051 32.5136L 11.6 32.8134L 11.6258 31.8138L 0.0129051 31.5139L -0.0129051 32.5136ZM 11.1233 32.415L 13.4301 43.5546L 14.4093 43.3519L 12.1025 32.2122L 11.1233 32.415ZM 14.6622 42.4431L 117.791 44.2561L 117.808 43.2562L 14.6798 41.4433L 14.6622 42.4431ZM 118.259 43.9539L 134.333 6.6337L 133.415 6.23811L 117.34 43.5583L 118.259 43.9539ZM 11.9459 32.6866L 46.5468 1.79747L 45.8809 1.05148L 11.2799 31.9406L 11.9459 32.6866ZM 26.287 35.7922L 13.3017 35.7446L 13.2981 36.7446L 26.2834 36.7922L 26.287 35.7922ZM 26.6469 36.6374L 56.2847 5.58578L 55.5613 4.89533L 25.9235 35.947L 26.6469 36.6374ZM 36.3294 35.829L 26.287 35.7922L 26.2834 36.7922L 36.3258 36.829L 36.3294 35.829ZM 36.7029 36.6595L 64.577 5.00182L 63.8265 4.34098L 35.9523 35.9986L 36.7029 36.6595ZM 45.535 35.8628L 36.3294 35.829L 36.3258 36.829L 45.5313 36.8628L 45.535 35.8628ZM 45.9169 36.6833L 72.8643 4.42278L 72.0968 3.7817L 45.1494 36.0422L 45.9169 36.6833ZM 54.7405 35.8965L 45.535 35.8628L 45.5313 36.8628L 54.7368 36.8965L 54.7405 35.8965ZM 55.1307 36.7069L 81.1513 3.84346L 80.3673 3.2227L 54.3467 36.0861L 55.1307 36.7069ZM 64.7829 35.9333L 54.7405 35.8965L 54.7368 36.8965L 64.7793 36.9333L 64.7829 35.9333ZM 65.1814 36.7329L 90.2662 3.20656L 89.4655 2.60747L 64.3807 36.1338L 65.1814 36.7329ZM 75.6622 35.9732L 64.7829 35.9333L 64.7793 36.9333L 75.6585 36.9732L 75.6622 35.9732ZM 76.0735 36.7549L 99.3856 2.5626L 98.5594 1.99928L 75.2472 36.1916L 76.0735 36.7549ZM 87.8109 36.0178L 75.6622 35.9732L 75.6585 36.9732L 87.8073 37.0178L 87.8109 36.0178ZM 88.2413 36.7691L 108.511 1.90619L 107.647 1.40355L 87.3768 36.2664L 88.2413 36.7691ZM 99.9313 36.0622L 87.8109 36.0178L 87.8073 37.0178L 99.9276 37.0622L 99.9313 36.0622ZM 100.375 36.7887L 118.459 1.19838L 117.568 0.745386L 99.4837 36.3357L 100.375 36.7887ZM 116.732 36.1238L 109.974 36.099L 109.97 37.099L 116.728 37.1238L 116.732 36.1238ZM 109.974 36.099L 99.9313 36.0622L 99.9276 37.0622L 109.97 37.099L 109.974 36.099ZM 110.428 36.8045L 126.748 0.608246L 125.837 0.197207L 109.516 36.3935L 110.428 36.8045ZM 13.6354 36.6154L 19.1792 31.5993L 18.5083 30.8578L 12.9644 35.8738L 13.6354 36.6154ZM 19.1792 31.5993L 47.2146 6.23308L 46.5437 5.49155L 18.5083 30.8578L 19.1792 31.5993ZM 131.689 -0.194023L 119.107 29.6906L 120.029 30.0786L 132.611 0.194023L 131.689 -0.194023ZM 119.107 29.6906L 116.269 36.4298L 117.191 36.8178L 120.029 30.0786L 119.107 29.6906ZM 18.8504 31.7285L 119.574 30.3845L 119.561 29.3846L 18.8371 30.7286L 18.8504 31.7285ZM 13.8299 39.7049L 14.1765 42.0173L 15.1654 41.8691L 14.8188 39.5567L 13.8299 39.7049ZM 118.294 43.682L 117.832 40.6028L 116.843 40.751L 117.305 43.8303L 118.294 43.682ZM 14.3193 40.1308L 117.333 41.1769L 117.343 40.1769L 14.3294 39.1308L 14.3193 40.1308ZM 12.8138 36.3616L 13.1566 37.7862L 14.1288 37.5523L 13.786 36.1276L 12.8138 36.3616ZM 13.1704 37.8334L 13.852 39.7949L 14.7966 39.4667L 14.115 37.5051L 13.1704 37.8334ZM 117.529 38.5762L 117.225 36.5497L 116.236 36.6979L 116.54 38.7245L 117.529 38.5762ZM 13.6379 38.1692L 117.029 39.1503L 117.039 38.1504L 13.6474 37.1693L 13.6379 38.1692ZM 134.357 6.30654L 133.751 4.04333L 132.785 4.30208L 133.391 6.56528L 134.357 6.30654ZM 117.832 40.6027L 117.75 40.052L 116.761 40.2002L 116.843 40.751L 117.832 40.6027ZM 117.75 40.052L 117.529 38.5762L 116.54 38.7245L 116.761 40.2002L 117.75 40.052ZM 132.616 3.25426L 116.796 39.9281L 117.714 40.3242L 133.534 3.65034L 132.616 3.25426ZM 0 32.0138L -0.643986 31.2487L -1.10376 31.6358L -0.977783 32.2234L 0 32.0138ZM 13.9197 43.4533L 13.8428 44.4503L 13.8688 44.4523L 13.8948 44.4529L 13.9197 43.4533ZM 2.25954 42.5535L 1.28176 42.7631L 1.43826 43.4931L 2.18261 43.5505L 2.25954 42.5535ZM 36.1389 1.5931L 36.0668 0.595703L 35.7432 0.619091L 35.4949 0.828065L 36.1389 1.5931ZM 46.8957 0.815795L 47.5616 1.56178L 49.7515 -0.393181L 46.8236 -0.181604L 46.8957 0.815795ZM 118.92 46.0754L 118.895 47.0751L 119.562 47.0917L 119.834 46.4823L 118.92 46.0754ZM 46.8791 5.86232L 45.8902 6.01057L 46.027 6.92326L 46.9477 6.85996L 46.8791 5.86232ZM 132.15 0L 133.116 -0.258745L 132.903 -1.05412L 132.082 -0.997645L 132.15 0ZM 137.694 3.92742L 138.608 4.33431L 139.274 2.83833L 137.639 2.92895L 137.694 3.92742ZM 46.2139 1.42447L 45.5479 0.678489L 45.1448 1.03834L 45.2249 1.57272L 46.2139 1.42447ZM 55.923 5.24056L 55.9916 6.2382L 55.923 5.24056ZM 64.2018 4.6714L 64.2704 5.66904L 64.2018 4.6714ZM 72.4805 4.10224L 72.4119 3.10459L 72.4805 4.10224ZM 80.7593 3.53308L 80.6907 2.53544L 80.7593 3.53308ZM 89.8659 2.90701L 89.9345 3.90466L 89.8659 2.90701ZM 98.9725 2.28094L 99.0411 3.27859L 98.9725 2.28094ZM 108.079 1.65487L 108.011 0.657225L 108.079 1.65487ZM 118.014 0.971883L 118.082 1.96953L 118.014 0.971883ZM 126.292 0.402727L 126.361 1.40037L 126.292 0.402727ZM 133.268 4.1727L 132.302 4.43146L 132.512 5.21612L 133.323 5.17117L 133.268 4.1727ZM 133.075 3.4523L 132.109 3.71105L 132.109 3.71105L 133.075 3.4523ZM 13.9967 42.4562L 2.33648 41.5564L 2.18261 43.5505L 13.8428 44.4503L 13.9967 42.4562ZM 3.23733 42.3438L 0.977783 31.8042L -0.977783 32.2234L 1.28176 42.7631L 3.23733 42.3438ZM 0.643986 32.7788L 36.7829 2.35814L 35.4949 0.828065L -0.643986 31.2487L 0.643986 32.7788ZM 46.8236 -0.181604L 36.0668 0.595703L 36.211 2.5905L 46.9678 1.81319L 46.8236 -0.181604ZM 13.8948 44.4529L 118.895 47.0751L 118.945 45.0757L 13.9447 42.4536L 13.8948 44.4529ZM 119.834 46.4823L 138.608 4.33431L 136.781 3.52052L 118.007 45.6685L 119.834 46.4823ZM 46.8798 2.17046L 47.5616 1.56178L 46.2297 0.0698094L 45.5479 0.678489L 46.8798 2.17046ZM 47.8681 5.71407L 47.2028 1.27622L 45.2249 1.57272L 45.8902 6.01057L 47.8681 5.71407ZM 46.9477 6.85996L 55.9916 6.2382L 55.8544 4.24291L 46.8105 4.86467L 46.9477 6.85996ZM 55.9916 6.2382L 64.2704 5.66904L 64.1332 3.67375L 55.8544 4.24291L 55.9916 6.2382ZM 64.2704 5.66904L 72.5491 5.09988L 72.4119 3.10459L 64.1332 3.67375L 64.2704 5.66904ZM 72.5491 5.09988L 80.8279 4.53073L 80.6907 2.53544L 72.4119 3.10459L 72.5491 5.09988ZM 80.8279 4.53073L 89.9345 3.90466L 89.7973 1.90937L 80.6907 2.53544L 80.8279 4.53073ZM 89.9345 3.90466L 99.0411 3.27859L 98.9039 1.2833L 89.7973 1.90937L 89.9345 3.90466ZM 99.0411 3.27859L 108.148 2.65252L 108.011 0.657225L 98.9039 1.2833L 99.0411 3.27859ZM 108.148 2.65252L 118.082 1.96953L 117.945 -0.0257618L 108.011 0.657225L 108.148 2.65252ZM 118.082 1.96953L 126.361 1.40037L 126.224 -0.594919L 117.945 -0.0257618L 118.082 1.96953ZM 126.361 1.40037L 132.219 0.997645L 132.082 -0.997645L 126.224 -0.594919L 126.361 1.40037ZM 137.639 2.92895L 133.213 3.17424L 133.323 5.17117L 137.749 4.92588L 137.639 2.92895ZM 134.234 3.91395L 134.041 3.19355L 132.109 3.71105L 132.302 4.43146L 134.234 3.91395ZM 134.041 3.19356L 133.116 -0.258745L 131.184 0.258745L 132.109 3.71105L 134.041 3.19356Z"/>
<path id="path12_fill" d="M 38.1531 0L 0 26.7314C 0.653061 28.5 4.65306 30.5 7.68368 28.5775C 4.65306 28 4.65306 27.5 5.17347 26.039C 7.68368 26.8852 8.52041 26.8852 10.1939 26.039C 7.68368 26.039 7.68368 25.1928 7.68368 23.5005C 9.97103 23.5005 10.1939 24.6287 13.5408 23.5005C 12.1522 23.9686 10.1939 23.5005 10.1939 21.8082C 12.7041 20.962 14.3776 21.8082 16.051 21.8082L 14.3776 20.1158C 15.2143 19.2696 16.051 19.2696 17.7245 20.1158C 17.7245 19.1245 16.8878 17.5773 17.7245 17.5773C 19.398 15.8849 19.9476 17.2468 21.9082 17.5773C 21.0714 16.7311 21.0714 15.8849 19.398 15.0388C 21.3586 15.0388 23.5816 15.8849 24.4184 15.0388C 22.7449 15.0388 21.9082 13.3464 24.4184 12.5003C 26.0918 11.9361 27.7653 13.3464 28.602 14.1926C 29.4388 13.3464 28.602 11.6541 27.7653 10.8079C 29.7259 10.4775 31.1123 11.6541 31.949 10.8079C 30.2755 9.96174 30.2755 9.11556 30.2755 8.26939C 31.9093 8.26939 33.6225 9.11556 35.2959 8.26939C 33.6225 7.42322 33.6225 6.57704 34.4592 5.73087C 36.093 5.06997 37.8061 5.73087 38.6429 4.8847C 37.8061 4.8847 36.1327 4.8847 36.9694 3.19235C 38.6429 3.19235 41.1531 2.34618 41.1531 1.50001C 39.4796 2.34618 38.9898 0.846173 38.1531 0Z"/>
<path id="path13_stroke" d="M 0 26.7314L -0.215179 26.4242L -0.451907 26.5901L -0.351785 26.8612L 0 26.7314ZM 38.1531 0L 38.4197 -0.263674L 38.1971 -0.488761L 37.9379 -0.30712L 38.1531 0ZM 41.1531 1.50001L 41.5281 1.50001L 41.5281 0.89018L 40.9839 1.16536L 41.1531 1.50001ZM 36.9694 3.19235L 36.9694 2.81735L 36.7365 2.81735L 36.6332 3.02615L 36.9694 3.19235ZM 38.6429 4.8847L 38.9095 5.14837L 39.5411 4.5097L 38.6429 4.5097L 38.6429 4.8847ZM 34.4592 5.73087L 34.3186 5.38324L 34.2469 5.41223L 34.1925 5.4672L 34.4592 5.73087ZM 35.2959 8.26939L 35.4651 8.60404L 36.127 8.26939L 35.4651 7.93474L 35.2959 8.26939ZM 30.2755 8.26939L 30.2755 7.89439L 29.9005 7.89439L 29.9005 8.26939L 30.2755 8.26939ZM 31.949 10.8079L 32.2156 11.0716L 32.5776 10.7055L 32.1182 10.4733L 31.949 10.8079ZM 27.7653 10.8079L 27.703 10.4381L 26.9909 10.5581L 27.4987 11.0716L 27.7653 10.8079ZM 28.602 14.1926L 28.3354 14.4563L 28.602 14.7259L 28.8687 14.4563L 28.602 14.1926ZM 24.4184 12.5003L 24.5382 12.8556L 24.4184 12.5003ZM 24.4184 15.0388L 24.685 15.3024L 25.3166 14.6638L 24.4184 14.6638L 24.4184 15.0388ZM 19.398 15.0388L 19.398 14.6638L 19.2288 15.3734L 19.398 15.0388ZM 21.9082 17.5773L 21.8458 17.9471L 22.9923 18.1403L 22.1748 17.3136L 21.9082 17.5773ZM 17.7245 17.5773L 17.7245 17.9523L 17.8811 17.9523L 17.9911 17.841L 17.7245 17.5773ZM 17.7245 20.1158L 17.5553 20.4505L 18.0995 20.7256L 18.0995 20.1158L 17.7245 20.1158ZM 14.3776 20.1158L 14.1109 19.8521L 13.8502 20.1158L 14.1109 20.3795L 14.3776 20.1158ZM 16.051 21.8082L 16.051 22.1832L 16.9492 22.1832L 16.3177 21.5445L 16.051 21.8082ZM 10.1939 21.8082L 10.0741 21.4528L 9.81888 21.5388L 9.81888 21.8082L 10.1939 21.8082ZM 7.68368 23.5005L 7.68368 23.1255L 7.30868 23.1255L 7.30868 23.5005L 7.68368 23.5005ZM 10.1939 26.039L 10.3631 26.3737L 10.1939 25.664L 10.1939 26.039ZM 5.17347 26.039L 5.29326 25.6837L 4.94392 25.5659L 4.82022 25.9132L 5.17347 26.039ZM 7.68368 28.5775L 7.88455 28.8942L 8.68479 28.3866L 7.75388 28.2092L 7.68368 28.5775ZM 0.215179 27.0385L 38.3682 0.30712L 37.9379 -0.30712L -0.215179 26.4242L 0.215179 27.0385ZM 37.8864 0.263674C 38.0777 0.455796 38.2507 0.690164 38.4424 0.939138C 38.6341 1.18815 38.8513 1.45745 39.0948 1.669C 39.3435 1.88017 39.687 2.06378 40.0519 2.114C 40.4389 2.15983 40.858 2.0694 41.3223 1.83466L 40.9839 1.16536C 40.6114 1.3537 40.3417 1.39308 40.1401 1.36921C 39.9163 1.34971 39.7713 1.2641 39.5837 1.10027C 39.3911 0.936811 39.2243 0.725339 39.0366 0.481558C 38.8488 0.237738 38.6468 -0.0327092 38.4197 -0.263674L 37.8864 0.263674ZM 40.7781 1.50001C 40.7781 1.52596 40.7489 1.64 40.5081 1.82263C 40.2745 2.00172 39.9558 2.16172 39.5558 2.31286C 38.748 2.62052 37.7688 2.81922 36.9694 2.81735L 36.9694 3.56735C 37.8435 3.56549 38.956 3.3411 39.8218 3.01413C 40.2584 2.84796 40.6719 2.63775 40.9613 2.4202C 41.2435 2.20619 41.5281 1.89714 41.5281 1.50001L 40.7781 1.50001ZM 36.6332 3.02615C 36.4065 3.4847 36.3155 3.89425 36.3939 4.25122C 36.4767 4.62799 36.7293 4.86618 37.0094 5.00781C 37.5241 5.26807 38.2531 5.2597 38.6429 5.2597L 38.6429 4.5097C 38.1959 4.5097 37.6698 4.50132 37.3478 4.3385C 37.2095 4.26858 37.1483 4.18946 37.1265 4.09026C 37.1003 3.97126 37.1139 3.74618 37.3055 3.35856L 36.6332 3.02615ZM 38.3762 4.62103C 38.0804 4.92015 37.6074 4.97828 36.8382 5.00245C 36.1069 5.02547 35.2045 5.03233 34.3186 5.38324L 34.5998 6.07851C 35.3477 5.76852 36.1187 5.77537 36.8617 5.75208C 37.5666 5.72993 38.3686 5.69542 38.9095 5.14837L 38.3762 4.62103ZM 34.1925 5.4672C 33.7454 5.91938 33.4195 6.47246 33.5722 7.09013C 33.7184 7.68149 34.27 8.17083 35.1267 8.60404L 35.4651 7.93474C 34.6484 7.52178 34.3633 7.16494 34.3003 6.91013C 34.2438 6.68163 34.3362 6.38853 34.7258 5.99455L 34.1925 5.4672ZM 35.1267 7.93474C 34.3722 8.3277 33.636 8.31821 32.8176 8.21463C 31.9986 8.11242 31.1387 7.89726 30.2755 7.89439L 30.2755 8.64439C 31.0461 8.64152 31.8597 8.84944 32.7241 8.95878C 33.5891 9.06674 34.5462 9.05725 35.4651 8.60404L 35.1267 7.93474ZM 29.9005 8.26939C 29.9005 8.69248 29.9104 9.2009 30.1485 9.70485C 30.406 10.2255 30.9001 10.6978 31.7798 11.1426L 32.1182 10.4733C 31.3244 10.0719 30.9818 9.69793 30.8209 9.37245C 30.6407 9.03022 30.6505 8.69248 30.6505 8.26939L 29.9005 8.26939ZM 31.6823 10.5442C 31.4282 10.8012 31.0906 10.7896 30.3561 10.6344C 29.6671 10.4889 28.7607 10.268 27.703 10.4381L 27.8276 11.1777C 28.7305 11.0174 29.4976 11.2195 30.2011 11.3682C 30.8591 11.5072 31.633 11.6607 32.2156 11.0716L 31.6823 10.5442ZM 27.4987 11.0716C 27.8924 11.4672 28.2645 12.0289 28.4551 12.6176C 28.6489 13.2058 28.6035 13.6578 28.3354 13.9289L 28.8687 14.4563C 29.4373 13.8812 29.3919 13.0639 29.1674 12.3829C 28.9396 11.7023 28.475 10.9948 28.032 10.5442L 27.4987 11.0716ZM 28.8687 13.9289C 28.4425 13.4981 27.7709 12.898 26.9995 12.4862C 26.2188 12.0726 25.2705 11.8173 24.2986 12.1449L 24.5382 12.8556C 25.2397 12.6191 25.9649 12.7868 26.6484 13.1489C 27.3414 13.5128 27.9249 14.0409 28.3354 14.4563L 28.8687 13.9289ZM 24.2986 12.1449C 23.0081 12.5799 22.3173 13.3288 22.4816 14.1596C 22.6358 14.939 23.4919 15.4138 24.4184 15.4138L 24.4184 14.6638C 23.6713 14.6638 23.2724 14.2923 23.2174 14.0141C 23.1725 13.7871 23.3184 13.2668 24.5382 12.8556L 24.2986 12.1449ZM 24.1517 14.7751C 24.0266 14.9016 23.8275 14.9883 23.5152 15.023C 23.191 15.0605 22.8159 15.0355 22.3731 14.9836C 21.4832 14.88 20.4156 14.6656 19.398 14.6638L 19.398 15.4138C 20.3409 15.4119 21.3652 15.6206 22.2861 15.7286C 22.7487 15.7825 23.2088 15.8103 23.5981 15.7685C 23.9993 15.7238 24.3918 15.599 24.685 15.3024L 24.1517 14.7751ZM 19.2288 15.3734C 20.0112 15.769 20.3851 16.1531 20.6656 16.5314C 20.9607 16.9267 21.1845 17.3719 21.6415 17.841L 22.1748 17.3136C 21.7951 16.9365 21.6006 16.5355 21.268 16.0846C 20.9211 15.6168 20.4582 15.1547 19.5672 14.7041L 19.2288 15.3734ZM 21.9705 17.2075C 21.514 17.1322 21.1528 16.9984 20.8073 16.8539C 20.4637 16.7105 20.1389 16.5538 19.8124 16.4584C 19.4793 16.3646 19.0804 16.3395 18.6906 16.4609C 18.2948 16.5919 17.8976 16.8689 17.4578 17.3136L 17.9911 17.841C 18.3882 17.4395 18.6872 17.2521 18.9264 17.1728C 19.1715 17.0839 19.3464 17.1027 19.605 17.1791C 19.8701 17.254 20.1549 17.3939 20.5181 17.5459C 20.8793 17.6968 21.322 17.8572 21.8458 17.9471L 21.9705 17.2075ZM 17.7245 17.2023C 17.563 17.2023 17.3958 17.24 17.2548 17.3491C 17.1129 17.4589 17.041 17.6073 17.0072 17.7455C 16.9458 17.9969 16.9916 18.2976 17.0433 18.55C 17.0983 18.8174 17.1778 19.108 17.2414 19.3849C 17.305 19.6615 17.3511 19.9022 17.3495 20.1158L 18.0995 20.1158C 18.0979 19.8337 18.0394 19.5093 17.9723 19.2169C 17.9051 18.9249 17.8277 18.6429 17.7781 18.3996C 17.7252 18.1413 17.7188 17.9932 17.7358 17.9235C 17.7412 17.9012 17.7412 17.921 17.7137 17.9423C 17.7132 17.9503 17.6757 17.9481 17.7245 17.9523L 17.7245 17.2023ZM 17.8937 19.7812C 17.0466 19.3528 16.3528 19.1062 15.7372 19.1062C 15.0893 19.1062 14.5801 19.3776 14.1109 19.8521L 14.6442 20.3795C 15.0117 20.0078 15.3393 19.8562 15.7372 19.8562C 16.1676 19.8562 16.7289 20.0326 17.5553 20.4505L 17.8937 19.7812ZM 14.1109 20.3795L 15.7844 22.0718L 16.3177 21.5445L 14.6442 19.8521L 14.1109 20.3795ZM 16.051 21.4332C 15.2606 21.436 14.4446 21.2277 13.4781 21.1182C 12.5159 21.0107 11.3883 21.015 10.0741 21.4528L 10.3137 22.1635C 11.5097 21.7551 12.4739 21.7595 13.3944 21.8635C 14.3105 21.9656 15.168 22.1803 16.051 22.1832L 16.051 21.4332ZM 9.81888 21.8082C 9.81888 22.8358 10.4297 23.496 11.2052 23.8118C 11.9607 24.1195 12.8909 24.1153 13.6606 23.8559L 13.421 23.1451C 12.8021 23.3538 12.0588 23.3496 11.488 23.1172C 10.9372 22.8929 10.5689 22.4728 10.5689 21.8082L 9.81888 21.8082ZM 13.421 23.1451C 11.7931 23.6939 10.9665 23.6817 10.2833 23.5549C 9.56678 23.4246 8.90597 23.1338 7.68368 23.1255L 7.68368 23.8755C 8.74874 23.8672 9.34303 24.1405 10.1465 24.2923C 10.9833 24.4476 11.9416 24.4353 13.6606 23.8559L 13.421 23.1451ZM 7.30868 23.5005C 7.30868 23.9236 7.30939 24.3168 7.35073 24.6571C 7.39503 25.005 7.50509 25.3604 7.69625 25.6278C 8.12874 26.2109 8.93464 26.414 10.1939 26.414L 10.1939 25.664C 8.94292 25.664 8.49372 25.444 8.29866 25.181C 8.17604 25.0253 8.12922 24.8518 8.09507 24.5651C 8.05797 24.2707 8.05868 23.9236 8.05868 23.5005L 7.30868 23.5005ZM 10.0247 25.7044C 9.21228 26.1162 8.6689 26.3036 7.99745 26.2986C 7.3323 26.2986 6.54686 26.1062 5.29326 25.6837L 5.05369 26.3944C 6.31029 26.818 7.19832 27.0486 7.99745 27.0486C 8.79029 27.0437 9.50202 26.808 10.3631 26.3737L 10.0247 25.7044ZM 4.82022 25.9132C 4.6881 26.2842 4.57857 26.6335 4.54678 26.9339C 4.51392 27.2664 4.57122 27.592 4.80783 27.8784C 5.02849 28.1455 5.37189 28.3364 5.8124 28.4954C 6.24925 28.6526 6.84618 28.7996 7.61348 28.9459L 7.75388 28.2092C 7.00587 28.0667 6.46632 27.9347 6.06707 27.79C 5.67148 27.6472 5.47916 27.5135 5.38604 27.4007C 5.30888 27.3073 5.27434 27.1979 5.29315 27.0077C 5.31302 26.7854 5.39864 26.5243 5.52673 26.1649L 4.82022 25.9132ZM 7.4828 28.2609C 6.08674 29.1465 4.45232 29.1383 3.06751 28.6824C 1.65818 28.2185 0.621667 27.3324 0.351785 26.6015L -0.351785 26.8612C 0.0313937 27.899 1.32141 28.8972 2.833 29.3948C 4.36911 29.9005 6.24999 29.9311 7.88455 28.8942L 7.4828 28.2609Z"/>
<path id="path14_fill" d="M 4.13379 2.06294L 4.18181 1.47631L 4.22388 0.962396L 0 1.72901L 4.24398 3.0564L 4.08577 2.64958L 4.13379 2.06294Z"/>
<path id="path15_fill" d="M 4.18181 1.47631L 4.13379 2.06294L 4.08577 2.64958L 4.24398 3.0564L 8.47158 4.37866L 9.21229 3.83788L 8.21956 2.98351L 8.56285 2.42073L 8.90615 1.85794L 8.35767 1.29632L 9.52645 0L 4.22388 0.962396L 4.18181 1.47631Z"/>
<path id="path16_fill" d="M 9.52645 0L 8.35767 1.29632L 8.90615 1.85794L 8.56285 2.42073L 47.5245 4.15308L 47.7698 1.14898L 9.52645 0Z"/>
<path id="path17_fill" d="M 8.21956 2.98351L 9.21229 3.83788L 8.47158 4.37866L 9.52645 4.70859L 47.3448 6.35341L 47.5245 4.15308L 8.56285 2.42073L 8.21956 2.98351Z"/>
<path id="path18_fill" d="M 50.5908 6.49459L 51.0203 1.24664L 49.1393 1.19013L 47.7698 1.14898L 47.5245 4.15308L 47.3448 6.35341L 48.7414 6.41416L 50.5908 6.49459Z"/>
<path id="path19_stroke_2x" d="M 53.0386 5.63835L 53.537 5.67914L 53.0386 5.63835ZM 4.13379 2.06294L 4.63213 2.10373L 4.63213 2.10373L 4.13379 2.06294ZM 4.18181 1.47631L 3.68348 1.43552L 3.68348 1.43552L 4.18181 1.47631ZM 4.08577 2.64958L 3.58744 2.60879L 3.57805 2.72353L 3.61977 2.83082L 4.08577 2.64958ZM 8.35767 1.29632L 7.98632 0.96151L 7.67213 1.30999L 7.99996 1.64567L 8.35767 1.29632ZM 8.90615 1.85794L 9.333 2.11832L 9.53535 1.78659L 9.26386 1.5086L 8.90615 1.85794ZM 8.21956 2.98351L 7.79271 2.72314L 7.57163 3.08556L 7.89341 3.36249L 8.21956 2.98351ZM 9.21229 3.83788L 9.50712 4.2417L 10.0162 3.87005L 9.53845 3.4589L 9.21229 3.83788ZM 8.56285 2.42073L 8.136 2.16035L 8.136 2.16035L 8.56285 2.42073ZM 47.5245 4.15308L 48.0228 4.19378L 48.0228 4.19378L 47.5245 4.15308ZM 4.63213 2.10373L 4.68015 1.5171L 3.68348 1.43552L 3.63546 2.02215L 4.63213 2.10373ZM 4.68015 1.5171L 4.72221 1.00319L 3.72555 0.921604L 3.68348 1.43552L 4.68015 1.5171ZM 3.63546 2.02215L 3.58744 2.60879L 4.5841 2.69038L 4.63213 2.10373L 3.63546 2.02215ZM 3.61977 2.83082L 3.77799 3.23763L 4.70998 2.87517L 4.55177 2.46835L 3.61977 2.83082ZM 9.1551 -0.334813L 7.98632 0.96151L 8.72902 1.63114L 9.8978 0.334813L 9.1551 -0.334813ZM 7.99996 1.64567L 8.54843 2.20728L 9.26386 1.5086L 8.71539 0.94698L 7.99996 1.64567ZM 7.89341 3.36249L 8.88613 4.21685L 9.53845 3.4589L 8.54572 2.60454L 7.89341 3.36249ZM 8.91746 3.43405L 8.17675 3.97484L 8.76641 4.78249L 9.50712 4.2417L 8.91746 3.43405ZM 52.5999 4.86966L 52.5403 5.59756L 53.537 5.67914L 53.5966 4.95125L 52.5999 4.86966ZM 8.47929 1.59756L 8.136 2.16035L 8.98971 2.6811L 9.333 2.11832L 8.47929 1.59756ZM 8.136 2.16035L 7.79271 2.72314L 8.64642 3.24389L 8.98971 2.6811L 8.136 2.16035ZM 51.0053 1.74641L 53.3773 1.81768L 53.4073 0.818129L 51.0354 0.746866L 51.0053 1.74641ZM 52.0202 6.05629L 50.6125 5.99506L 50.569 6.99412L 51.9768 7.05535L 52.0202 6.05629ZM 47.2715 1.10828L 47.0261 4.11238L 48.0228 4.19378L 48.2682 1.18968L 47.2715 1.10828ZM 47.0261 4.11238L 46.8464 6.31271L 47.8431 6.39411L 48.0228 4.19378L 47.0261 4.11238ZM 47.5467 3.65357L 8.58506 1.92122L 8.54064 2.92023L 47.5023 4.65258L 47.5467 3.65357ZM 47.2715 1.10828L 46.8464 6.31271L 47.8431 6.39411L 48.2682 1.18968L 47.2715 1.10828ZM 48.6407 1.15215L 48.2428 6.37618L 49.2399 6.45213L 49.6379 1.2281L 48.6407 1.15215ZM 52.5403 5.59756C 52.5184 5.86537 52.2887 6.06797 52.0202 6.05629L 51.9768 7.05535C 52.7822 7.09037 53.4712 6.48259 53.537 5.67914L 52.5403 5.59756ZM 9.52645 0L 9.55648 -0.999549L 9.45136 -1.00271L 9.34787 -0.983926L 9.52645 0ZM 9.52645 4.70859L 9.22794 5.663L 9.35256 5.70197L 9.483 5.70765L 9.52645 4.70859ZM 0 1.72901L -0.178579 0.745089L -0.298509 2.68342L 0 1.72901ZM 4.22388 0.962396L 4.40246 1.94632L 4.22388 0.962396ZM 4.24398 3.0564L 4.54249 2.10199L 4.24398 3.0564ZM 8.47158 4.37866L 8.17307 5.33307L 8.47158 4.37866ZM 51.0203 1.24664L 52.017 1.32823L 52.1029 0.278714L 51.0504 0.247091L 51.0203 1.24664ZM 50.5908 6.49459L 50.5473 7.49365L 51.5089 7.53547L 51.5874 6.57618L 50.5908 6.49459ZM 47.7698 1.14898L 47.7999 0.149433L 47.7698 1.14898ZM 47.3448 6.35341L 47.3013 7.35247L 47.3448 6.35341ZM 49.1393 1.19013L 49.1093 2.18968L 49.1393 1.19013ZM 48.7414 6.41416L 48.7848 5.4151L 48.7414 6.41416ZM 9.34787 -0.983926L 4.0453 -0.0215294L 4.40246 1.94632L 9.70503 0.983926L 9.34787 -0.983926ZM 4.0453 -0.0215294L -0.178579 0.745089L 0.178579 2.71294L 4.40246 1.94632L 4.0453 -0.0215294ZM -0.298509 2.68342L 3.94548 4.01081L 4.54249 2.10199L 0.298509 0.774607L -0.298509 2.68342ZM 3.94548 4.01081L 8.17307 5.33307L 8.77009 3.42425L 4.54249 2.10199L 3.94548 4.01081ZM 8.17307 5.33307L 9.22794 5.663L 9.82496 3.75418L 8.77009 3.42425L 8.17307 5.33307ZM 50.0237 1.16505L 49.5941 6.413L 51.5874 6.57618L 52.017 1.32823L 50.0237 1.16505ZM 9.49642 0.999549L 47.7398 2.14853L 47.7999 0.149433L 9.55648 -0.999549L 9.49642 0.999549ZM 47.3882 5.35436L 9.5699 3.70954L 9.483 5.70765L 47.3013 7.35247L 47.3882 5.35436ZM 47.7398 2.14853L 49.1093 2.18968L 49.1693 0.190577L 47.7999 0.149433L 47.7398 2.14853ZM 49.1093 2.18968L 50.9903 2.24619L 51.0504 0.247091L 49.1693 0.190577L 49.1093 2.18968ZM 47.3013 7.35247L 48.6979 7.41321L 48.7848 5.4151L 47.3882 5.35436L 47.3013 7.35247ZM 48.6979 7.41321L 50.5473 7.49365L 50.6342 5.49554L 48.7848 5.4151L 48.6979 7.41321Z"/>
<path id="path20_fill" d="M 3.60118 3.97637L 3.63934 3.65585L 3.7014 3.13471L 3.87056 1.71397C 3.97536 0.833839 3.29822 0.0552459 2.41206 0.0369423L 0.62351 0L 0 5.23655L 2.06687 5.29835C 2.8435 5.32157 3.50932 4.7479 3.60118 3.97637Z"/>
<path id="path21_stroke_2x" d="M 3.63934 3.65585L 2.64636 3.53762L 2.64636 3.53762L 3.63934 3.65585ZM 3.60118 3.97637L 4.59417 4.0946L 4.59417 4.0946L 3.60118 3.97637ZM 3.87056 1.71397L 4.86355 1.83221L 4.86355 1.8322L 3.87056 1.71397ZM 3.7014 3.13471L 4.69438 3.25294L 4.69438 3.25294L 3.7014 3.13471ZM 0.62351 0L 0.644161 -0.999787L -0.26228 -1.01851L -0.369475 -0.118234L 0.62351 0ZM 2.41206 0.0369423L 2.39141 1.03673L 2.41206 0.0369423ZM 2.06687 5.29835L 2.03698 6.2979L 2.03698 6.2979L 2.06687 5.29835ZM 0 5.23655L -0.992986 5.11831L -1.12219 6.20344L -0.0298874 6.2361L 0 5.23655ZM 2.64636 3.53762L 2.60819 3.85813L 4.59417 4.0946L 4.63233 3.77408L 2.64636 3.53762ZM 2.87757 1.59574L 2.70841 3.01647L 4.69438 3.25294L 4.86355 1.83221L 2.87757 1.59574ZM 2.70841 3.01647L 2.64636 3.53762L 4.63233 3.77408L 4.69438 3.25294L 2.70841 3.01647ZM 0.60286 0.999787L 2.39141 1.03673L 2.43271 -0.962844L 0.644161 -0.999787L 0.60286 0.999787ZM 2.09676 4.29879L 0.0298874 4.23699L -0.0298874 6.2361L 2.03698 6.2979L 2.09676 4.29879ZM -0.369475 -0.118234L -0.992986 5.11831L 0.992986 5.35478L 1.6165 0.118234L -0.369475 -0.118234ZM 4.86355 1.8322C 5.03821 0.365317 3.90964 -0.932338 2.43271 -0.962844L 2.39141 1.03673C 2.68679 1.04283 2.91251 1.30236 2.87757 1.59574L 4.86355 1.8322ZM 2.60819 3.85813C 2.57757 4.11531 2.35563 4.30654 2.09676 4.29879L 2.03698 6.2979C 3.33137 6.3366 4.44106 5.38048 4.59417 4.0946L 2.60819 3.85813Z"/>
</defs>
</svg>
