<svg width="160" height="160" viewBox="0 0 160 160" version="1.1" xmlns="http://www.w3.org/2000/svg" xmlns:xlink="http://www.w3.org/1999/xlink">
<title>social-def-icon (Canvas)</title>
<desc>Created using Figma</desc>
<g id="Canvas" transform="translate(161 220)">
<g id="Rectangle">
<mask id="mask0_outline_ins">
<use xlink:href="#path0_fill" fill="white" transform="translate(-161 -220)"/>
</mask>
<g mask="url(#mask0_outline_ins)">
<use xlink:href="#path1_stroke_2x" transform="translate(-161 -220)" fill="#FFFFFF"/>
</g>
</g>
<g id="Ellipse">
<use xlink:href="#path2_fill" transform="translate(-144 -203)" fill="#01BAEF"/>
</g>
<g id="Group">
<g id="Vector">
<use xlink:href="#path3_fill" transform="translate(-147 -191.5)" fill="#C4C4C4"/>
<use xlink:href="#path4_stroke" transform="translate(-147 -191.5)" fill="#1C1C1C"/>
</g>
<g id="Vector">
<use xlink:href="#path5_fill" transform="matrix(-1 0 0 1 -16.5 -193)" fill="#C4C4C4"/>
<use xlink:href="#path6_stroke" transform="matrix(-1 0 0 1 -16.5 -193)" fill="#1C1C1C"/>
</g>
<g id="Ellipse 2">
<use xlink:href="#path7_fill" transform="translate(-104.886 -216)" fill="#1C1C1C"/>
</g>
</g>
</g>
<defs>
<path id="path0_fill" d="M 0 0L 160 0L 160 160L 0 160L 0 0Z"/>
<path id="path1_stroke_2x" d="M 0 0L 0 -1L -1 -1L -1 0L 0 0ZM 160 0L 161 0L 161 -1L 160 -1L 160 0ZM 160 160L 160 161L 161 161L 161 160L 160 160ZM 0 160L -1 160L -1 161L 0 161L 0 160ZM 0 1L 160 1L 160 -1L 0 -1L 0 1ZM 159 0L 159 160L 161 160L 161 0L 159 0ZM 160 159L 0 159L 0 161L 160 161L 160 159ZM 1 160L 1 0L -1 0L -1 160L 1 160Z"/>
<path id="path2_fill" d="M 125 62.5C 125 97.0178 97.0178 125 62.5 125C 27.9822 125 0 97.0178 0 62.5C 0 27.9822 27.9822 0 62.5 0C 97.0178 0 125 27.9822 125 62.5Z"/>
<path id="path3_fill" d="M 49.1598 101.197L 49.1598 35.7501C 49.1598 35.2975 48.997 34.8599 48.7011 34.5174C 39.6237 24.0077 24.4617 21.2192 12.2389 27.8114L 4.54932 31.9587C 3.20421 32.6841 1.6999 33.0639 0.171622 33.0639C 0.108371 33.0639 0.0767435 32.9874 0.121535 32.9428L 4.50749 28.5698C 19.1083 14.0123 43.4823 16.9514 54.2041 34.5624C 54.3976 34.8803 54.5 35.2453 54.5 35.6174L 54.5 101.197L 49.1598 101.197Z"/>
<path id="path4_stroke" d="M 49.1598 101.197L 45.6598 101.197L 45.6598 104.697L 49.1598 104.697L 49.1598 101.197ZM 4.54932 31.9587L 2.88788 28.8781L 2.88787 28.8781L 4.54932 31.9587ZM 12.2389 27.8114L 13.9004 30.8919L 13.9004 30.8919L 12.2389 27.8114ZM 54.5 101.197L 54.5 104.697L 58 104.697L 58 101.197L 54.5 101.197ZM 4.50749 28.5698L 2.03628 26.0913L 2.03628 26.0913L 4.50749 28.5698ZM 0.121535 32.9428L -2.34967 30.4642L -2.34967 30.4642L 0.121535 32.9428ZM 48.7011 34.5174L 46.0524 36.8052L 46.0524 36.8052L 48.7011 34.5174ZM 54.2041 34.5624L 51.2146 36.3824L 51.2146 36.3825L 54.2041 34.5624ZM 45.6598 35.7501L 45.6598 101.197L 52.6598 101.197L 52.6598 35.7501L 45.6598 35.7501ZM 6.21076 35.0392L 13.9004 30.8919L 10.5775 24.7308L 2.88788 28.8781L 6.21076 35.0392ZM 49.1598 104.697L 54.5 104.697L 54.5 97.6974L 49.1598 97.6974L 49.1598 104.697ZM 58 101.197L 58 35.6174L 51 35.6174L 51 101.197L 58 101.197ZM 2.03628 26.0913L -2.34967 30.4642L 2.59274 35.4213L 6.97869 31.0483L 2.03628 26.0913ZM 2.88787 28.8781C 1.93541 29.4222 1.26821 29.5907 0.171622 29.5639L 0.171622 36.5639C 2.13158 36.5372 4.47302 35.9461 6.21076 35.0392L 2.88787 28.8781ZM 52.6598 35.7501C 52.6044 34.6774 52.0092 33.0776 51.3499 32.2296L 46.0524 36.8052C 45.7991 36.512 45.6598 36.1375 45.6598 35.7501L 52.6598 35.7501ZM 13.9004 30.8919C 24.6782 25.079 38.048 27.5379 46.0524 36.8052L 51.3499 32.2296C 41.1994 20.4776 24.2451 17.3594 10.5775 24.7308L 13.9004 30.8919ZM 58 35.6174C 57.9673 34.7682 57.6073 33.4846 57.1936 32.7423L 51.2146 36.3825C 51.0742 36.1519 51 35.8873 51 35.6174L 58 35.6174ZM 57.1936 32.7423C 45.2937 13.1962 18.2414 9.9341 2.03628 26.0913L 6.97869 31.0483C 19.9751 18.0904 41.6709 20.7065 51.2146 36.3824L 57.1936 32.7423ZM -2.34967 30.4642C -4.60441 32.7123 -3.01225 36.5639 0.171622 36.5639L 0.171622 29.5639C 3.22899 29.5639 4.75789 33.2626 2.59274 35.4213L -2.34967 30.4642Z"/>
<path id="path5_fill" d="M 48.7088 127L 48.7088 44.5265C 48.7088 44.1736 48.6024 43.8288 48.4035 43.5372C 39.82 30.9499 22.6542 27.7109 10.0739 36.3047L 4.42231 40.1655C 3.15503 41.0312 1.65601 41.4943 0.121263 41.4943C 0.0722167 41.4943 0.0448319 41.4377 0.0752795 41.3993L 2.83413 37.9153C 16.7058 20.3975 44.1295 23.4499 53.8098 43.5891C 53.935 43.8496 54 44.1348 54 44.4238L 54 127L 48.7088 127Z"/>
<path id="path6_stroke" d="M 48.7088 127L 45.2088 127L 45.2088 130.5L 48.7088 130.5L 48.7088 127ZM 4.42231 40.1655L 2.44806 37.2754L 2.44806 37.2754L 4.42231 40.1655ZM 10.0739 36.3047L 12.0482 39.1948L 12.0482 39.1948L 10.0739 36.3047ZM 54 127L 54 130.5L 57.5 130.5L 57.5 127L 54 127ZM 2.83413 37.9153L 0.0902355 35.7425L 0.0902354 35.7425L 2.83413 37.9153ZM 0.0752795 41.3993L 2.81912 43.5721L 2.81918 43.5721L 0.0752795 41.3993ZM 48.4035 43.5372L 45.5119 45.5091L 45.5119 45.5091L 48.4035 43.5372ZM 53.8098 43.5891L 56.9643 42.0729L 56.9643 42.0728L 53.8098 43.5891ZM 45.2088 44.5265L 45.2088 127L 52.2088 127L 52.2088 44.5265L 45.2088 44.5265ZM 6.39656 43.0555L 12.0482 39.1948L 8.09967 33.4147L 2.44806 37.2754L 6.39656 43.0555ZM 48.7088 130.5L 54 130.5L 54 123.5L 48.7088 123.5L 48.7088 130.5ZM 57.5 127L 57.5 44.4238L 50.5 44.4238L 50.5 127L 57.5 127ZM 0.0902354 35.7425L -2.66862 39.2265L 2.81918 43.5721L 5.57803 40.0881L 0.0902354 35.7425ZM 2.44806 37.2754C 1.63429 37.8788 1.13357 38.0335 0.121263 37.9943L 0.121263 44.9943C 2.17844 44.9551 4.67578 44.1835 6.39656 43.0555L 2.44806 37.2754ZM 52.2088 44.5265C 52.1697 43.6519 51.7557 42.31 51.2952 41.5653L 45.5119 45.5091C 45.3144 45.2195 45.2088 44.8771 45.2088 44.5265L 52.2088 44.5265ZM 12.0482 39.1948C 23.0314 31.6919 38.018 34.5198 45.5119 45.5091L 51.2952 41.5653C 41.6219 27.3801 22.277 23.7299 8.09967 33.4147L 12.0482 39.1948ZM 57.5 44.4238C 57.4781 43.7436 57.2392 42.6954 56.9643 42.0729L 50.6553 45.1054C 50.5531 44.8927 50.5 44.6598 50.5 44.4238L 57.5 44.4238ZM 56.9643 42.0728C 46.1639 19.6033 15.567 16.1977 0.0902355 35.7425L 5.57803 40.0881C 17.8446 24.5973 42.0951 27.2965 50.6553 45.1054L 56.9643 42.0728ZM -2.66856 39.2264C -4.51604 41.5593 -2.85439 44.9943 0.121263 44.9943L 0.121263 37.9943C 2.99882 37.9943 4.6057 41.3161 2.81912 43.5721L -2.66856 39.2264Z"/>
<path id="path7_fill" d="M 47.9929 23.8137C 47.9929 36.9656 37.2493 47.6273 23.9965 47.6273C 10.7436 47.6273 0 36.9656 0 23.8137C 0 10.6617 10.7436 0 23.9965 0C 37.2493 0 47.9929 10.6617 47.9929 23.8137Z"/>
</defs>
</svg>
