<svg width="160" height="160" viewBox="0 0 160 160" version="1.1" xmlns="http://www.w3.org/2000/svg" xmlns:xlink="http://www.w3.org/1999/xlink">
<title>takeaway-logo-b</title>
<desc>Created using Figma</desc>
<g id="Canvas" transform="translate(107 210)">
<g id="takeaway-logo-b">
<g id="Rectangle">
<mask id="mask0_outline_ins">
<use xlink:href="#path0_fill" fill="white" transform="translate(-107 -210)"/>
</mask>
<g mask="url(#mask0_outline_ins)">
<use xlink:href="#path1_stroke_2x" transform="translate(-107 -210)" fill="#FFFFFF"/>
</g>
</g>
<g id="Ellipse">
<use xlink:href="#path2_fill" transform="translate(-89 -192)" fill="#F0ADFF"/>
</g>
<g id="Group">
<g id="Polygon">
<mask id="mask1_outline_ins">
<use xlink:href="#path3_fill" fill="white" transform="matrix(0.733711 0.679462 -0.681042 0.732245 -7.11256 -219)"/>
<use xlink:href="#path4_fill" fill="white" transform="matrix(0.733711 0.679462 -0.681042 0.732245 -7.11256 -219)"/>
<use xlink:href="#path5_fill" fill="white" transform="matrix(0.733711 0.679462 -0.681042 0.732245 -7.11256 -219)"/>
</mask>
<g mask="url(#mask1_outline_ins)">
<use xlink:href="#path6_stroke_2x" transform="matrix(0.733711 0.679462 -0.681042 0.732245 -7.11256 -219)" fill="#1C1C1C"/>
</g>
</g>
<g id="Polygon">
<use xlink:href="#path7_fill" transform="matrix(0.733711 0.679462 -0.681042 0.732245 -7.11256 -219)" fill="#1C1C1C"/>
<use xlink:href="#path8_fill" transform="matrix(0.733711 0.679462 -0.681042 0.732245 -7.11256 -219)" fill="#1C1C1C"/>
<mask id="mask2_outline_ins">
<use xlink:href="#path7_fill" fill="white" transform="matrix(0.733711 0.679462 -0.681042 0.732245 -7.11256 -219)"/>
<use xlink:href="#path8_fill" fill="white" transform="matrix(0.733711 0.679462 -0.681042 0.732245 -7.11256 -219)"/>
</mask>
<g mask="url(#mask2_outline_ins)">
<use xlink:href="#path9_stroke_2x" transform="matrix(0.733711 0.679462 -0.681042 0.732245 -7.11256 -219)" fill="#1C1C1C"/>
</g>
</g>
<g id="Polygon">
<mask id="mask3_outline_ins">
<use xlink:href="#path10_fill" fill="white" transform="matrix(0.733711 0.679462 -0.681042 0.732245 -7.11256 -219)"/>
<use xlink:href="#path11_fill" fill="white" transform="matrix(0.733711 0.679462 -0.681042 0.732245 -7.11256 -219)"/>
<use xlink:href="#path12_fill" fill="white" transform="matrix(0.733711 0.679462 -0.681042 0.732245 -7.11256 -219)"/>
</mask>
<g mask="url(#mask3_outline_ins)">
<use xlink:href="#path13_stroke_2x" transform="matrix(0.733711 0.679462 -0.681042 0.732245 -7.11256 -219)" fill="#1C1C1C"/>
</g>
</g>
</g>
</g>
</g>
<defs>
<path id="path0_fill" d="M 0 0L 160 0L 160 160L 0 160L 0 0Z"/>
<path id="path1_stroke_2x" d="M 0 0L 0 -1L -1 -1L -1 0L 0 0ZM 160 0L 161 0L 161 -1L 160 -1L 160 0ZM 160 160L 160 161L 161 161L 161 160L 160 160ZM 0 160L -1 160L -1 161L 0 161L 0 160ZM 0 1L 160 1L 160 -1L 0 -1L 0 1ZM 159 0L 159 160L 161 160L 161 0L 159 0ZM 160 159L 0 159L 0 161L 160 161L 160 159ZM 1 160L 1 0L -1 0L -1 160L 1 160Z"/>
<path id="path2_fill" d="M 125 62.5C 125 97.0178 97.0178 125 62.5 125C 27.9822 125 0 97.0178 0 62.5C 0 27.9822 27.9822 0 62.5 0C 97.0178 0 125 27.9822 125 62.5Z"/>
<path id="path3_fill" d="M 46.4165 0L 0 130.555L 32.9088 130.555L 34.3966 116.175L 35.6616 103.948L 35.9136 101.513L 37.0416 90.6104L 38.3066 78.384L 39.3416 68.3806L 40.3222 58.9023L 41.3721 48.755L 42.422 38.6076L 43.3665 29.4785L 44.2865 20.5866L 46.4165 0Z"/>
<path id="path4_fill" d="M 92.833 130.555L 46.4165 0L 49.7534 26.4763L 51.1947 37.9121L 52.6745 49.653L 54.3193 62.7034L 55.9641 75.7538L 57.5005 87.9439L 59.122 100.809L 61.1038 116.533L 63.0217 130.717L 92.833 130.555Z"/>
<path id="path5_fill" d="M 46.4165 0L 44.2865 20.5866L 43.3665 29.4785L 42.422 38.6076L 41.3721 48.755L 40.3222 58.9023L 39.3416 68.3806L 38.3066 78.384L 37.0416 90.6104L 35.9136 101.513L 35.6616 103.948L 34.3966 116.175L 32.9088 130.555L 57.4067 156.947L 60.1388 143.751L 63.0217 130.717L 61.1038 116.533L 59.122 100.809L 57.5005 87.9439L 55.9641 75.7538L 54.3193 62.7034L 52.6745 49.653L 51.1947 37.9121L 49.7534 26.4763L 46.4165 0Z"/>
<path id="path6_stroke_2x" d="M 46.4165 0L 47.4086 -0.125045L 45.4218 -0.102914L 46.4165 0ZM 34.3966 116.175L 33.4019 116.072L 34.3966 116.175ZM 35.9136 101.513L 36.9083 101.615L 36.9083 101.615L 35.9136 101.513ZM 37.0416 90.6104L 36.0469 90.5075L 37.0416 90.6104ZM 59.122 100.809L 60.1141 100.684L 60.1141 100.684L 59.122 100.809ZM 40.3222 58.9023L 39.3275 58.7994L 39.3275 58.7994L 40.3222 58.9023ZM 54.3193 62.7034L 55.3114 62.5784L 55.3114 62.5784L 54.3193 62.7034ZM 42.422 38.6076L 41.4273 38.5047L 41.4273 38.5047L 42.422 38.6076ZM 51.1947 37.9121L 52.1869 37.7871L 51.1947 37.9121ZM 44.2865 20.5866L 43.2918 20.4837L 43.2918 20.4837L 44.2865 20.5866ZM 35.6616 103.948L 34.6669 103.845L 34.6669 103.845L 35.6616 103.948ZM 33.9035 130.657L 35.3913 116.278L 33.4019 116.072L 31.9141 130.452L 33.9035 130.657ZM 33.6656 116.857L 59.4078 144.433L 60.8698 143.068L 35.1276 115.492L 33.6656 116.857ZM 36.9083 101.615L 38.0363 90.7133L 36.0469 90.5075L 34.9189 101.41L 36.9083 101.615ZM 64.0127 130.583L 62.0947 116.399L 60.1128 116.667L 62.0308 130.851L 64.0127 130.583ZM 36.3087 91.2907L 60.3708 117.214L 61.8367 115.853L 37.7745 89.9301L 36.3087 91.2907ZM 38.0363 90.7133L 39.3013 78.487L 37.3119 78.2811L 36.0469 90.5075L 38.0363 90.7133ZM 62.0959 116.408L 60.1141 100.684L 58.1298 100.934L 60.1116 116.658L 62.0959 116.408ZM 37.5737 79.0644L 58.389 101.49L 59.8549 100.129L 39.0395 77.7037L 37.5737 79.0644ZM 39.3013 78.487L 40.3363 68.4836L 38.3469 68.2777L 37.3119 78.2811L 39.3013 78.487ZM 60.1141 100.684L 58.4926 87.8188L 56.5083 88.0689L 58.1298 100.934L 60.1141 100.684ZM 38.6087 69.061L 56.7676 88.6242L 58.2334 87.2636L 40.0745 67.7003L 38.6087 69.061ZM 40.3363 68.4836L 41.3169 59.0052L 39.3275 58.7994L 38.3469 68.2777L 40.3363 68.4836ZM 58.4926 87.8188L 56.9563 75.6288L 54.972 75.8789L 56.5083 88.0689L 58.4926 87.8188ZM 39.5893 59.5826L 55.2312 76.4341L 56.697 75.0735L 41.0552 58.222L 39.5893 59.5826ZM 41.3169 59.0052L 42.3668 48.8579L 40.3774 48.652L 39.3275 58.7994L 41.3169 59.0052ZM 56.9563 75.6288L 55.3114 62.5784L 53.3271 62.8285L 54.972 75.8789L 56.9563 75.6288ZM 40.6392 49.4353L 53.5864 63.3837L 55.0522 62.0231L 42.105 48.0746L 40.6392 49.4353ZM 42.3668 48.8579L 43.4167 38.7105L 41.4273 38.5047L 40.3774 48.652L 42.3668 48.8579ZM 55.3114 62.5784L 53.6666 49.5279L 51.6823 49.778L 53.3271 62.8285L 55.3114 62.5784ZM 41.6891 39.2879L 51.9416 50.3333L 53.4074 48.9727L 43.1549 37.9273L 41.6891 39.2879ZM 43.4167 38.7105L 44.3612 29.5815L 42.3718 29.3756L 41.4273 38.5047L 43.4167 38.7105ZM 53.6666 49.5279L 52.1869 37.7871L 50.2026 38.0372L 51.6823 49.778L 53.6666 49.5279ZM 42.6336 30.1588L 50.4618 38.5925L 51.9277 37.2318L 44.0995 28.7982L 42.6336 30.1588ZM 44.3612 29.5815L 45.2812 20.6895L 43.2918 20.4837L 42.3718 29.3756L 44.3612 29.5815ZM 45.2812 20.6895L 47.4112 0.102914L 45.4218 -0.102914L 43.2918 20.4837L 45.2812 20.6895ZM 52.1869 37.7871L 50.7456 26.3513L 48.7613 26.6014L 50.2026 38.0372L 52.1869 37.7871ZM 50.7456 26.3513L 47.4086 -0.125045L 45.4243 0.125045L 48.7613 26.6014L 50.7456 26.3513ZM 43.5536 21.2669L 49.0205 27.1566L 50.4863 25.796L 45.0194 19.9063L 43.5536 21.2669ZM 35.3913 116.278L 36.6563 104.051L 34.6669 103.845L 33.4019 116.072L 35.3913 116.278ZM 36.6563 104.051L 36.9083 101.615L 34.9189 101.41L 34.6669 103.845L 36.6563 104.051ZM 34.9287 104.629L 59.7951 131.418L 61.2609 130.057L 36.3945 103.268L 34.9287 104.629ZM 46.4165 0L 48.3009 -0.669982L 46.4165 -5.97031L 44.532 -0.669982L 46.4165 0ZM 92.833 130.555L 92.8439 132.555L 95.6612 132.539L 94.7174 129.885L 92.833 130.555ZM 0 130.555L -1.88444 129.885L -2.83371 132.555L 0 132.555L 0 130.555ZM 32.9088 130.555L 34.3747 129.194L 33.7812 128.555L 32.9088 128.555L 32.9088 130.555ZM 63.0217 130.717L 63.0108 128.717L 61.4139 128.726L 61.069 130.285L 63.0217 130.717ZM 57.4067 156.947L 55.9408 158.308L 58.5789 161.15L 59.3651 157.352L 57.4067 156.947ZM 60.1388 143.751L 58.186 143.319L 58.1831 143.332L 58.1803 143.345L 60.1388 143.751ZM 44.532 0.669982L 90.9485 131.225L 94.7174 129.885L 48.3009 -0.669982L 44.532 0.669982ZM 1.88444 131.225L 48.3009 0.669982L 44.532 -0.669982L -1.88444 129.885L 1.88444 131.225ZM 32.9088 128.555L 0 128.555L 0 132.555L 32.9088 132.555L 32.9088 128.555ZM 92.8221 128.555L 63.0108 128.717L 63.0327 132.717L 92.8439 132.555L 92.8221 128.555ZM 31.443 131.915L 55.9408 158.308L 58.8725 155.586L 34.3747 129.194L 31.443 131.915ZM 59.3651 157.352L 62.0972 144.156L 58.1803 143.345L 55.4482 156.541L 59.3651 157.352ZM 62.0916 144.183L 64.9745 131.149L 61.069 130.285L 58.186 143.319L 62.0916 144.183Z"/>
<path id="path7_fill" d="M 46.4165 0L 0 130.555L 32.9088 130.555L 46.4165 0Z"/>
<path id="path8_fill" d="M 92.833 130.555L 46.4165 0L 62.8709 130.555L 92.833 130.555Z"/>
<path id="path9_stroke_2x" d="M 57.4067 156.947L 56.6737 157.627L 57.9928 159.048L 58.3859 157.15L 57.4067 156.947ZM 32.1759 131.235L 56.6737 157.627L 58.1396 156.267L 33.6418 129.874L 32.1759 131.235ZM 58.3859 157.15L 63.8501 130.757L 61.8917 130.352L 56.4274 156.744L 58.3859 157.15ZM 46.4165 0L 48.3009 -0.669982L 46.4165 -5.97031L 44.532 -0.669982L 46.4165 0ZM 92.833 130.555L 92.833 132.555L 95.6667 132.555L 94.7174 129.885L 92.833 130.555ZM 0 130.555L -1.88444 129.885L -2.83371 132.555L 0 132.555L 0 130.555ZM 32.9088 130.555L 32.9088 132.555L 34.7126 132.555L 34.8982 130.76L 32.9088 130.555ZM 62.8709 130.555L 60.8866 130.805L 61.1072 132.555L 62.8709 132.555L 62.8709 130.555ZM 44.532 0.669982L 90.9485 131.225L 94.7174 129.885L 48.3009 -0.669982L 44.532 0.669982ZM 1.88444 131.225L 48.3009 0.669982L 44.532 -0.669982L -1.88444 129.885L 1.88444 131.225ZM 32.9088 128.555L 0 128.555L 0 132.555L 32.9088 132.555L 32.9088 128.555ZM 34.8982 130.76L 48.4059 0.205829L 44.4271 -0.205829L 30.9195 130.349L 34.8982 130.76ZM 92.833 128.555L 62.8709 128.555L 62.8709 132.555L 92.833 132.555L 92.833 128.555ZM 64.8552 130.304L 48.4008 -0.250091L 44.4322 0.250091L 60.8866 130.805L 64.8552 130.304Z"/>
<path id="path10_fill" d="M 46.4165 0L 0 130.555L 32.9088 130.555L 46.4165 0Z"/>
<path id="path11_fill" d="M 92.833 130.555L 46.4165 0L 62.8709 130.555L 92.833 130.555Z"/>
<path id="path12_fill" d="M 46.4165 0L 32.9088 130.555L 57.4067 156.947L 62.8709 130.555L 46.4165 0Z"/>
<path id="path13_stroke_2x" d="M 46.4165 0L 47.4086 -0.125046L 45.4218 -0.102914L 46.4165 0ZM 33.9035 130.657L 47.4112 0.102914L 45.4218 -0.102914L 31.9141 130.452L 33.9035 130.657ZM 63.8631 130.43L 47.4086 -0.125046L 45.4243 0.125046L 61.8788 130.68L 63.8631 130.43ZM 46.4165 0L 48.3009 -0.669982L 46.4165 -5.97031L 44.532 -0.669982L 46.4165 0ZM 92.833 130.555L 92.833 132.555L 95.6667 132.555L 94.7174 129.885L 92.833 130.555ZM 0 130.555L -1.88444 129.885L -2.83371 132.555L 0 132.555L 0 130.555ZM 32.9088 130.555L 34.3747 129.194L 33.7812 128.555L 32.9088 128.555L 32.9088 130.555ZM 62.8709 130.555L 62.8709 128.555L 61.2426 128.555L 60.9124 130.149L 62.8709 130.555ZM 57.4067 156.947L 55.9408 158.308L 58.5789 161.15L 59.3651 157.352L 57.4067 156.947ZM 44.532 0.669982L 90.9485 131.225L 94.7174 129.885L 48.3009 -0.669982L 44.532 0.669982ZM 1.88444 131.225L 48.3009 0.669982L 44.532 -0.669982L -1.88444 129.885L 1.88444 131.225ZM 32.9088 128.555L 0 128.555L 0 132.555L 32.9088 132.555L 32.9088 128.555ZM 92.833 128.555L 62.8709 128.555L 62.8709 132.555L 92.833 132.555L 92.833 128.555ZM 31.443 131.915L 55.9408 158.308L 58.8725 155.586L 34.3747 129.194L 31.443 131.915ZM 59.3651 157.352L 64.8294 130.96L 60.9124 130.149L 55.4482 156.541L 59.3651 157.352Z"/>
</defs>
</svg>
