<svg width="160" height="160" viewBox="0 0 160 160" version="1.1" xmlns="http://www.w3.org/2000/svg" xmlns:xlink="http://www.w3.org/1999/xlink">
<title>takeaway-logo</title>
<desc>Created using Figma</desc>
<g id="Canvas" transform="translate(107 210)">
<g id="takeaway-logo">
<g id="Ellipse">
<use xlink:href="#path0_fill" transform="translate(-107 -210)" fill="#F0ADFF"/>
</g>
<g id="Group">
<g id="Polygon">
<mask id="mask0_outline_ins">
<use xlink:href="#path1_fill" fill="white" transform="matrix(0.733016 0.680212 -0.680293 0.73294 -15.4783 -183)"/>
<use xlink:href="#path2_fill" fill="white" transform="matrix(0.733016 0.680212 -0.680293 0.73294 -15.4783 -183)"/>
<use xlink:href="#path3_fill" fill="white" transform="matrix(0.733016 0.680212 -0.680293 0.73294 -15.4783 -183)"/>
</mask>
<g mask="url(#mask0_outline_ins)">
<use xlink:href="#path4_stroke_2x" transform="matrix(0.733016 0.680212 -0.680293 0.73294 -15.4783 -183)" fill="#1C1C1C"/>
</g>
</g>
<g id="Polygon">
<use xlink:href="#path5_fill" transform="matrix(0.733016 0.680212 -0.680293 0.73294 -15.4783 -183)" fill="#1C1C1C"/>
<use xlink:href="#path6_fill" transform="matrix(0.733016 0.680212 -0.680293 0.73294 -15.4783 -183)" fill="#1C1C1C"/>
<mask id="mask1_outline_ins">
<use xlink:href="#path5_fill" fill="white" transform="matrix(0.733016 0.680212 -0.680293 0.73294 -15.4783 -183)"/>
<use xlink:href="#path6_fill" fill="white" transform="matrix(0.733016 0.680212 -0.680293 0.73294 -15.4783 -183)"/>
</mask>
<g mask="url(#mask1_outline_ins)">
<use xlink:href="#path7_stroke_2x" transform="matrix(0.733016 0.680212 -0.680293 0.73294 -15.4783 -183)" fill="#1C1C1C"/>
</g>
</g>
<g id="Polygon">
<mask id="mask2_outline_ins">
<use xlink:href="#path8_fill" fill="white" transform="matrix(0.733016 0.680212 -0.680293 0.73294 -15.4783 -183)"/>
<use xlink:href="#path9_fill" fill="white" transform="matrix(0.733016 0.680212 -0.680293 0.73294 -15.4783 -183)"/>
<use xlink:href="#path10_fill" fill="white" transform="matrix(0.733016 0.680212 -0.680293 0.73294 -15.4783 -183)"/>
</mask>
<g mask="url(#mask2_outline_ins)">
<use xlink:href="#path11_stroke_2x" transform="matrix(0.733016 0.680212 -0.680293 0.73294 -15.4783 -183)" fill="#1C1C1C"/>
</g>
</g>
</g>
</g>
</g>
<defs>
<path id="path0_fill" d="M 160 80C 160 124.183 124.183 160 80 160C 35.8172 160 0 124.183 0 80C 0 35.8172 35.8172 0 80 0C 124.183 0 160 35.8172 160 80Z"/>
<path id="path1_fill" d="M 27.6108 0L 0 77.6721L 19.5758 77.6721L 20.4608 69.117L 21.2133 61.843L 21.3632 60.3939L 22.0342 53.9078L 22.7866 46.6338L 23.4023 40.6824L 23.9857 35.0433L 24.6102 29.0063L 25.2347 22.9692L 25.7965 17.538L 26.3438 12.2478L 27.6108 0Z"/>
<path id="path2_fill" d="M 55.2216 77.6721L 27.6108 0L 29.5958 15.7518L 30.4531 22.5555L 31.3334 29.5406L 32.3118 37.3048L 33.2902 45.069L 34.2041 52.3213L 35.1686 59.9754L 36.3475 69.3304L 37.4884 77.7688L 55.2216 77.6721Z"/>
<path id="path3_fill" d="M 27.6108 0L 26.3438 12.2478L 25.7965 17.538L 25.2347 22.9692L 24.6102 29.0063L 23.9857 35.0433L 23.4023 40.6824L 22.7866 46.6338L 22.0342 53.9078L 21.3632 60.3939L 21.2133 61.843L 20.4608 69.117L 19.5758 77.6721L 34.1483 93.374L 35.7735 85.5231L 37.4884 77.7688L 36.3475 69.3304L 35.1686 59.9754L 34.2041 52.3213L 33.2902 45.069L 32.3118 37.3048L 31.3334 29.5406L 30.4531 22.5555L 29.5958 15.7518L 27.6108 0Z"/>
<path id="path4_stroke_2x" d="M 27.6108 0L 28.603 -0.125027L 26.6161 -0.102899L 27.6108 0ZM 20.4608 69.117L 19.4661 69.0141L 19.4661 69.0141L 20.4608 69.117ZM 21.3632 60.3939L 22.3579 60.4968L 22.3579 60.4968L 21.3632 60.3939ZM 22.0342 53.9078L 21.0395 53.8049L 22.0342 53.9078ZM 35.1686 59.9754L 36.1608 59.8504L 36.1608 59.8504L 35.1686 59.9754ZM 23.9857 35.0433L 22.991 34.9404L 22.991 34.9404L 23.9857 35.0433ZM 32.3118 37.3048L 33.3039 37.1797L 33.3039 37.1797L 32.3118 37.3048ZM 25.2347 22.9692L 24.24 22.8663L 24.24 22.8663L 25.2347 22.9692ZM 30.4531 22.5555L 31.4453 22.4304L 30.4531 22.5555ZM 26.3438 12.2478L 25.3491 12.1449L 25.3491 12.1449L 26.3438 12.2478ZM 21.2133 61.843L 20.2186 61.7401L 20.2186 61.7401L 21.2133 61.843ZM 20.5705 77.775L 21.4555 69.2199L 19.4661 69.0141L 18.5811 77.5693L 20.5705 77.775ZM 19.7298 69.7993L 35.0425 86.2054L 36.5046 84.8408L 21.1919 68.4346L 19.7298 69.7993ZM 22.3579 60.4968L 23.0289 54.0107L 21.0395 53.8049L 20.3685 60.291L 22.3579 60.4968ZM 38.4794 77.6349L 37.3385 69.1964L 35.3565 69.4644L 36.4975 77.9028L 38.4794 77.6349ZM 21.3012 54.588L 35.6145 70.0107L 37.0805 68.6502L 22.7671 53.2275L 21.3012 54.588ZM 23.0289 54.0107L 23.7813 46.7367L 21.792 46.5309L 21.0395 53.8049L 23.0289 54.0107ZM 37.3397 69.2054L 36.1608 59.8504L 34.1765 60.1005L 35.3554 69.4554L 37.3397 69.2054ZM 22.0537 47.3141L 34.4357 60.6557L 35.9016 59.2952L 23.5196 45.9536L 22.0537 47.3141ZM 23.7813 46.7367L 24.397 40.7853L 22.4076 40.5795L 21.792 46.5309L 23.7813 46.7367ZM 36.1608 59.8504L 35.1963 52.1963L 33.212 52.4464L 34.1765 60.1005L 36.1608 59.8504ZM 22.6693 41.3626L 33.4711 53.0016L 34.9371 51.6411L 24.1353 40.0021L 22.6693 41.3626ZM 24.397 40.7853L 24.9803 35.1462L 22.991 34.9404L 22.4076 40.5795L 24.397 40.7853ZM 35.1963 52.1963L 34.2824 44.944L 32.298 45.194L 33.212 52.4464L 35.1963 52.1963ZM 23.2527 35.7236L 32.5572 45.7493L 34.0232 44.3887L 24.7186 34.3631L 23.2527 35.7236ZM 24.9803 35.1462L 25.6049 29.1092L 23.6155 28.9034L 22.991 34.9404L 24.9803 35.1462ZM 34.2824 44.944L 33.3039 37.1797L 31.3196 37.4298L 32.298 45.194L 34.2824 44.944ZM 23.8772 29.6865L 31.5788 37.985L 33.0448 36.6245L 25.3431 28.326L 23.8772 29.6865ZM 25.6049 29.1092L 26.2294 23.0721L 24.24 22.8663L 23.6155 28.9034L 25.6049 29.1092ZM 33.3039 37.1797L 32.3255 29.4155L 30.3412 29.6656L 31.3196 37.4298L 33.3039 37.1797ZM 24.5017 23.6495L 30.6004 30.2208L 32.0664 28.8603L 25.9677 22.289L 24.5017 23.6495ZM 26.2294 23.0721L 26.7912 17.6409L 24.8019 17.4351L 24.24 22.8663L 26.2294 23.0721ZM 32.3255 29.4155L 31.4453 22.4304L 29.461 22.6805L 30.3412 29.6656L 32.3255 29.4155ZM 25.0636 18.2182L 29.7202 23.2357L 31.1861 21.8752L 26.5295 16.8577L 25.0636 18.2182ZM 26.7912 17.6409L 27.3385 12.3507L 25.3491 12.1449L 24.8019 17.4351L 26.7912 17.6409ZM 27.3385 12.3507L 28.6055 0.102899L 26.6161 -0.102899L 25.3491 12.1449L 27.3385 12.3507ZM 31.4453 22.4304L 30.5879 15.6268L 28.6036 15.8769L 29.461 22.6805L 31.4453 22.4304ZM 30.5879 15.6268L 28.603 -0.125027L 26.6187 0.125027L 28.6036 15.8769L 30.5879 15.6268ZM 25.6108 12.9281L 28.8628 16.4321L 30.3288 15.0716L 27.0768 11.5676L 25.6108 12.9281ZM 21.4555 69.2199L 22.208 61.9459L 20.2186 61.7401L 19.4661 69.0141L 21.4555 69.2199ZM 22.208 61.9459L 22.3579 60.4968L 20.3685 60.291L 20.2186 61.7401L 22.208 61.9459ZM 20.4803 62.5233L 35.2721 78.4614L 36.738 77.1009L 21.9463 61.1628L 20.4803 62.5233ZM 27.6108 0L 29.4953 -0.669891L 27.6108 -5.97112L 25.7263 -0.669891L 27.6108 0ZM 55.2216 77.6721L 55.2325 79.6721L 58.0497 79.6568L 57.1061 77.0023L 55.2216 77.6721ZM 0 77.6721L -1.88447 77.0023L -2.83356 79.6721L 0 79.6721L 0 77.6721ZM 19.5758 77.6721L 21.0417 76.3116L 20.4482 75.6721L 19.5758 75.6721L 19.5758 77.6721ZM 37.4884 77.7688L 37.4775 75.7689L 35.8805 75.7776L 35.5356 77.337L 37.4884 77.7688ZM 34.1483 93.374L 32.6823 94.7345L 35.3206 97.5773L 36.1068 93.7795L 34.1483 93.374ZM 35.7735 85.5231L 33.8207 85.0912L 33.8178 85.1044L 33.815 85.1177L 35.7735 85.5231ZM 25.7263 0.669891L 53.3371 78.342L 57.1061 77.0023L 29.4953 -0.669891L 25.7263 0.669891ZM 1.88447 78.342L 29.4953 0.669891L 25.7263 -0.669891L -1.88447 77.0023L 1.88447 78.342ZM 19.5758 75.6721L 0 75.6721L 0 79.6721L 19.5758 79.6721L 19.5758 75.6721ZM 55.2107 75.6722L 37.4775 75.7689L 37.4993 79.7688L 55.2325 79.6721L 55.2107 75.6722ZM 18.1098 79.0327L 32.6823 94.7345L 35.6143 92.0135L 21.0417 76.3116L 18.1098 79.0327ZM 36.1068 93.7795L 37.732 85.9285L 33.815 85.1177L 32.1898 92.9686L 36.1068 93.7795ZM 37.7263 85.955L 39.4412 78.2007L 35.5356 77.337L 33.8207 85.0912L 37.7263 85.955Z"/>
<path id="path5_fill" d="M 27.6108 0L 0 77.6721L 19.5758 77.6721L 27.6108 0Z"/>
<path id="path6_fill" d="M 55.2216 77.6721L 27.6108 0L 37.3987 77.6721L 55.2216 77.6721Z"/>
<path id="path7_stroke_2x" d="M 34.1483 93.374L 33.4153 94.0543L 34.7345 95.4756L 35.1275 93.5767L 34.1483 93.374ZM 18.8428 78.3524L 33.4153 94.0543L 34.8813 92.6938L 20.3088 76.9919L 18.8428 78.3524ZM 35.1275 93.5767L 38.3779 77.8749L 36.4195 77.4694L 33.1691 93.1713L 35.1275 93.5767ZM 27.6108 0L 29.4953 -0.669891L 27.6108 -5.97112L 25.7263 -0.669891L 27.6108 0ZM 55.2216 77.6721L 55.2216 79.6721L 58.0552 79.6721L 57.1061 77.0023L 55.2216 77.6721ZM 0 77.6721L -1.88447 77.0023L -2.83356 79.6721L 0 79.6721L 0 77.6721ZM 19.5758 77.6721L 19.5758 79.6721L 21.3796 79.6721L 21.5652 77.8779L 19.5758 77.6721ZM 37.3987 77.6721L 35.4144 77.9222L 35.6349 79.6721L 37.3987 79.6721L 37.3987 77.6721ZM 25.7263 0.669891L 53.3371 78.342L 57.1061 77.0023L 29.4953 -0.669891L 25.7263 0.669891ZM 1.88447 78.342L 29.4953 0.669891L 25.7263 -0.669891L -1.88447 77.0023L 1.88447 78.342ZM 19.5758 75.6721L 0 75.6721L 0 79.6721L 19.5758 79.6721L 19.5758 75.6721ZM 21.5652 77.8779L 29.6002 0.205798L 25.6214 -0.205798L 17.5864 77.4664L 21.5652 77.8779ZM 55.2216 75.6721L 37.3987 75.6721L 37.3987 79.6721L 55.2216 79.6721L 55.2216 75.6721ZM 39.383 77.4221L 29.5951 -0.250053L 25.6265 0.250053L 35.4144 77.9222L 39.383 77.4221Z"/>
<path id="path8_fill" d="M 27.6108 0L 0 77.6721L 19.5758 77.6721L 27.6108 0Z"/>
<path id="path9_fill" d="M 55.2216 77.6721L 27.6108 0L 37.3987 77.6721L 55.2216 77.6721Z"/>
<path id="path10_fill" d="M 27.6108 0L 19.5758 77.6721L 34.1483 93.374L 37.3987 77.6721L 27.6108 0Z"/>
<path id="path11_stroke_2x" d="M 27.6108 0L 28.603 -0.125027L 26.6161 -0.102899L 27.6108 0ZM 20.5705 77.775L 28.6055 0.102899L 26.6161 -0.102899L 18.5811 77.5693L 20.5705 77.775ZM 38.3909 77.5471L 28.603 -0.125027L 26.6187 0.125027L 36.4066 77.7972L 38.3909 77.5471ZM 27.6108 0L 29.4953 -0.669891L 27.6108 -5.97112L 25.7263 -0.669891L 27.6108 0ZM 55.2216 77.6721L 55.2216 79.6721L 58.0552 79.6721L 57.1061 77.0023L 55.2216 77.6721ZM 0 77.6721L -1.88447 77.0023L -2.83356 79.6721L 0 79.6721L 0 77.6721ZM 19.5758 77.6721L 21.0417 76.3116L 20.4482 75.6721L 19.5758 75.6721L 19.5758 77.6721ZM 37.3987 77.6721L 37.3987 75.6721L 35.7703 75.6721L 35.4402 77.2667L 37.3987 77.6721ZM 34.1483 93.374L 32.6823 94.7345L 35.3206 97.5773L 36.1068 93.7795L 34.1483 93.374ZM 25.7263 0.669891L 53.3371 78.342L 57.1061 77.0023L 29.4953 -0.669891L 25.7263 0.669891ZM 1.88447 78.342L 29.4953 0.669891L 25.7263 -0.669891L -1.88447 77.0023L 1.88447 78.342ZM 19.5758 75.6721L 0 75.6721L 0 79.6721L 19.5758 79.6721L 19.5758 75.6721ZM 55.2216 75.6721L 37.3987 75.6721L 37.3987 79.6721L 55.2216 79.6721L 55.2216 75.6721ZM 18.1098 79.0327L 32.6823 94.7345L 35.6143 92.0135L 21.0417 76.3116L 18.1098 79.0327ZM 36.1068 93.7795L 39.3572 78.0776L 35.4402 77.2667L 32.1898 92.9686L 36.1068 93.7795Z"/>
</defs>
</svg>
