<svg width="160" height="160" viewBox="0 0 160 160" version="1.1" xmlns="http://www.w3.org/2000/svg" xmlns:xlink="http://www.w3.org/1999/xlink">
<title>takeaway-logo-b</title>
<desc>Created using Figma</desc>
<g id="Canvas" transform="translate(107 210)">
<g id="takeaway-logo-b">
<g id="Rectangle">
<mask id="mask0_outline_ins">
<use xlink:href="#path0_fill" fill="white" transform="translate(-107 -210)"/>
</mask>
<g mask="url(#mask0_outline_ins)">
<use xlink:href="#path1_stroke_2x" transform="translate(-107 -210)" fill="#FFFFFF"/>
</g>
</g>
<g id="Ellipse">
<use xlink:href="#path2_fill" transform="translate(-89 -192)" fill="#F0ADFF"/>
</g>
<g id="Polygon 2">
<use xlink:href="#path3_fill" transform="matrix(0.754448 0.65636 -0.65636 0.754448 -20 -197)" fill="#1C1C1C"/>
<use xlink:href="#path4_stroke" transform="matrix(0.754448 0.65636 -0.65636 0.754448 -20 -197)" fill="#1C1C1C"/>
</g>
</g>
</g>
<defs>
<path id="path0_fill" d="M 0 0L 160 0L 160 160L 0 160L 0 0Z"/>
<path id="path1_stroke_2x" d="M 0 0L 0 -1L -1 -1L -1 0L 0 0ZM 160 0L 161 0L 161 -1L 160 -1L 160 0ZM 160 160L 160 161L 161 161L 161 160L 160 160ZM 0 160L -1 160L -1 161L 0 161L 0 160ZM 0 1L 160 1L 160 -1L 0 -1L 0 1ZM 159 0L 159 160L 161 160L 161 0L 159 0ZM 160 159L 0 159L 0 161L 160 161L 160 159ZM 1 160L 1 0L -1 0L -1 160L 1 160Z"/>
<path id="path2_fill" d="M 125 62.5C 125 97.0178 97.0178 125 62.5 125C 27.9822 125 0 97.0178 0 62.5C 0 27.9822 27.9822 0 62.5 0C 97.0178 0 125 27.9822 125 62.5Z"/>
<path id="path3_fill" d="M 44.2751 79.6628L 41.6819 25.6955C 41.6817 25.6898 41.6737 25.6889 41.6721 25.6943L 25.3009 82.0328L 47.2411 104.84C 47.4088 105.014 47.7016 104.873 47.669 104.633L 47.5406 103.688L 44.2751 79.6628Z"/>
<path id="path4_stroke" d="M 42.4886 0.494297L 41.1276 1.12495L 42.4886 0.494297ZM 81.2525 84.1486L 79.8915 84.7792L 81.2525 84.1486ZM 0.268498 92.4052L -1.09711 91.7846L 0.268498 92.4052ZM 44.2751 79.6628L 42.7768 79.7348L 42.78 79.8001L 42.7888 79.8649L 44.2751 79.6628ZM 41.6819 25.6955L 40.1837 25.7675L 40.1837 25.7675L 41.6819 25.6955ZM 47.2411 104.84L 48.3222 103.8L 47.2411 104.84ZM 42.0342 0.495978L 43.3998 1.11654L 42.0342 0.495978ZM 80.993 84.5015L 81.189 83.0144L 80.993 84.5015ZM 0.595498 92.738L 1.19188 94.1143L 0.595498 92.738ZM 41.6721 25.6943L 40.2317 25.2757L 41.6721 25.6943ZM 47.669 104.633L 49.1554 104.431L 47.669 104.633ZM 41.1276 1.12495L 79.8915 84.7792L 82.6135 83.5179L 43.8496 -0.136358L 41.1276 1.12495ZM 1.63411 93.0257L 43.3998 1.11654L 40.6685 -0.124588L -1.09711 91.7846L 1.63411 93.0257ZM 45.7734 79.5908L 43.1802 25.6235L 40.1837 25.7675L 42.7768 79.7348L 45.7734 79.5908ZM 40.2317 25.2757L 23.8605 81.6142L 26.7414 82.4514L 43.1126 26.1129L 40.2317 25.2757ZM 24.7046 80.6565L -0.000888153 91.3616L 1.19188 94.1143L 25.8973 83.4092L 24.7046 80.6565ZM 24.2199 83.0727L 46.1601 105.88L 48.3222 103.8L 26.382 80.9929L 24.2199 83.0727ZM 81.189 83.0144L 49.2381 78.8039L 48.8462 81.7782L 80.797 85.9887L 81.189 83.0144ZM 49.2381 78.8039L 44.4711 78.1757L 44.0791 81.15L 48.8462 81.7782L 49.2381 78.8039ZM 49.1554 104.431L 49.0269 103.486L 46.0542 103.89L 46.1827 104.835L 49.1554 104.431ZM 49.0269 103.486L 45.7614 79.4608L 42.7888 79.8649L 46.0542 103.89L 49.0269 103.486ZM 47.5452 80.195L 46.0436 103.592L 49.0375 103.784L 50.5391 80.3871L 47.5452 80.195ZM 43.8496 -0.136358C 43.2204 -1.49419 41.2877 -1.48704 40.6685 -0.124588L 43.3998 1.11654C 42.9575 2.08973 41.577 2.09483 41.1276 1.12495L 43.8496 -0.136358ZM 79.8915 84.7792C 79.4772 83.8852 80.2121 82.8857 81.189 83.0144L 80.797 85.9887C 82.1647 86.1689 83.1935 84.7696 82.6135 83.5179L 79.8915 84.7792ZM -1.09711 91.7846C -1.75973 93.2427 -0.277726 94.7511 1.19188 94.1143L -0.000888153 91.3616C 1.04883 90.9068 2.10741 91.9842 1.63411 93.0257L -1.09711 91.7846ZM 43.1802 25.6235C 43.0986 23.926 40.7059 23.6438 40.2317 25.2757L 43.1126 26.1129C 42.6415 27.734 40.2647 27.4537 40.1837 25.7675L 43.1802 25.6235ZM 46.1601 105.88C 47.3338 107.1 49.3834 106.108 49.1554 104.431L 46.1827 104.835C 46.0198 103.637 47.4838 102.928 48.3222 103.8L 46.1601 105.88Z"/>
</defs>
</svg>
